<svg xmlns="http://www.w3.org/2000/svg" class="leaflet-zoom-animated" width="2000" height="860" viewBox="-332 -143 2000 860" style="transform: translate3d(-332px, -143px, 0px);"><g><path stroke-linejoin="round" stroke-linecap="round" fill-rule="evenodd" stroke="#005540" stroke-opacity="1" stroke-width="0.5" fill="#086" fill-opacity="0.5" class="leaflet-clickable" d="M479 302L477 302L477 297L479 301z"/></g><g><path stroke-linejoin="round" stroke-linecap="round" fill-rule="evenodd" stroke="#005540" stroke-opacity="1" stroke-width="0.5" fill="#086" fill-opacity="0.5" class="leaflet-clickable" d="M467 293L467 296L466 293z"/></g><g><path stroke-linejoin="round" stroke-linecap="round" fill-rule="evenodd" stroke="#005540" stroke-opacity="1" stroke-width="0.5" fill="#086" fill-opacity="0.5" class="leaflet-clickable" d="M466 291L466 292z"/></g><g><path stroke-linejoin="round" stroke-linecap="round" fill-rule="evenodd" stroke="#005540" stroke-opacity="1" stroke-width="0.5" fill="#086" fill-opacity="0.5" class="leaflet-clickable" d="M459 279L462 281L463 284L459 280z"/></g><g><path stroke-linejoin="round" stroke-linecap="round" fill-rule="evenodd" stroke="#005540" stroke-opacity="1" stroke-width="0.5" fill="#086" fill-opacity="0.5" class="leaflet-clickable" d="M459 273L458 275L459 273z"/></g><g><path stroke-linejoin="round" stroke-linecap="round" fill-rule="evenodd" stroke="#005540" stroke-opacity="1" stroke-width="0.5" fill="#086" fill-opacity="0.5" class="leaflet-clickable" d="M457 263L458 266L457 264z"/></g><g><path stroke-linejoin="round" stroke-linecap="round" fill-rule="evenodd" stroke="#005540" stroke-opacity="1" stroke-width="0.5" fill="#086" fill-opacity="0.5" class="leaflet-clickable" d="M451 263L451 265L451 263z"/></g><g><path stroke-linejoin="round" stroke-linecap="round" fill-rule="evenodd" stroke="#005540" stroke-opacity="1" stroke-width="0.5" fill="#086" fill-opacity="0.5" class="leaflet-clickable" d="M451 254L451 256L449 256L447 260L448 261L447 258L448 255L450 255z"/></g><g><path stroke-linejoin="round" stroke-linecap="round" fill-rule="evenodd" stroke="#005540" stroke-opacity="1" stroke-width="0.5" fill="#086" fill-opacity="0.5" class="leaflet-clickable" d="M446 252L446 252z"/></g><g><path stroke-linejoin="round" stroke-linecap="round" fill-rule="evenodd" stroke="#005540" stroke-opacity="1" stroke-width="0.5" fill="#086" fill-opacity="0.5" class="leaflet-clickable" d="M428 224L428 226L427 224z"/></g><g><path stroke-linejoin="round" stroke-linecap="round" fill-rule="evenodd" stroke="#005540" stroke-opacity="1" stroke-width="0.5" fill="#086" fill-opacity="0.5" class="leaflet-clickable" d="M431 219L430 219z"/></g><g><path stroke-linejoin="round" stroke-linecap="round" fill-rule="evenodd" stroke="#005540" stroke-opacity="1" stroke-width="0.5" fill="#086" fill-opacity="0.5" class="leaflet-clickable" d="M357 208L357 208z"/></g><g><path stroke-linejoin="round" stroke-linecap="round" fill-rule="evenodd" stroke="#005540" stroke-opacity="1" stroke-width="0.5" fill="#086" fill-opacity="0.5" class="leaflet-clickable" d="M379 205L412 205L414 212L422 218L425 224L424 225L431 229L429 230L429 232L431 234L433 233L436 235L439 241L442 243L441 244L445 254L445 262L450 268L452 268L453 274L460 285L458 293L461 300L467 302L467 298L470 298L475 302L475 305L479 306L479 308L482 311L482 314L487 317L488 324L484 329L475 334L472 330L470 320L466 316L462 314L450 302L440 297L435 298L425 290L425 287L422 286L427 274L427 261L421 250L414 248L399 236L397 235L394 238L387 231L383 231L380 227L376 227L373 224L372 220L359 209L360 208L372 211L378 208L379 206z"/></g><g><path stroke-linejoin="round" stroke-linecap="round" fill-rule="evenodd" stroke="#005540" stroke-opacity="1" stroke-width="0.5" fill="#086" fill-opacity="0.5" class="leaflet-clickable" d="M726 427L722 427L717 423L722 414L726 421L726 426z"/></g><g><path stroke-linejoin="round" stroke-linecap="round" fill-rule="evenodd" stroke="#005540" stroke-opacity="1" stroke-width="0.5" fill="#086" fill-opacity="0.5" class="leaflet-clickable" d="M417 186L416 188L416 186z"/></g><g><path stroke-linejoin="round" stroke-linecap="round" fill-rule="evenodd" stroke="#005540" stroke-opacity="1" stroke-width="0.5" fill="#086" fill-opacity="0.5" class="leaflet-clickable" d="M423 173L425 179L422 186L417 182L418 175L422 173z"/></g><g><path stroke-linejoin="round" stroke-linecap="round" fill-rule="evenodd" stroke="#005540" stroke-opacity="1" stroke-width="0.5" fill="#086" fill-opacity="0.5" class="leaflet-clickable" d="M368 106L370 106L369 107z"/></g><g><path stroke-linejoin="round" stroke-linecap="round" fill-rule="evenodd" stroke="#005540" stroke-opacity="1" stroke-width="0.5" fill="#086" fill-opacity="0.5" class="leaflet-clickable" d="M365 86L445 115L450 118L503 118L502 120L500 120L501 123L504 125L503 126L505 126L502 126L502 129L499 129L499 132L501 135L500 136L507 141L506 144L508 145L506 145L506 158L508 158L508 160L505 160L506 166L504 168L504 182L507 186L509 196L497 198L496 202L500 209L499 210L503 213L505 217L507 222L505 224L508 231L511 231L505 239L505 241L503 241L500 244L500 246L492 248L492 244L490 241L485 238L480 238L476 229L468 227L464 223L461 223L462 209L460 207L459 208L455 206L455 208L453 208L453 206L447 204L441 195L437 193L431 186L432 184L425 180L425 173L423 170L422 171L420 169L421 167L417 162L415 156L412 155L412 148L404 134L405 122L399 119L392 118L392 114L387 110L379 113L370 106L363 103L361 96L362 95L360 93L362 91L362 87L365 87zM456 205L456 206z"/></g><g><path stroke-linejoin="round" stroke-linecap="round" fill-rule="evenodd" stroke="#005540" stroke-opacity="1" stroke-width="0.5" fill="#086" fill-opacity="0.5" class="leaflet-clickable" d="M367 444L367 444z"/></g><g><path stroke-linejoin="round" stroke-linecap="round" fill-rule="evenodd" stroke="#005540" stroke-opacity="1" stroke-width="0.5" fill="#086" fill-opacity="0.5" class="leaflet-clickable" d="M452 432L454 434L453 435L451 433L452 432z"/></g><g><path stroke-linejoin="round" stroke-linecap="round" fill-rule="evenodd" stroke="#005540" stroke-opacity="1" stroke-width="0.5" fill="#086" fill-opacity="0.5" class="leaflet-clickable" d="M623 429L617 436L603 426L596 424L597 425L600 422L601 423L609 421L608 420L610 416L615 419L619 416L623 420L623 429z"/></g><g><path stroke-linejoin="round" stroke-linecap="round" fill-rule="evenodd" stroke="#005540" stroke-opacity="1" stroke-width="0.5" fill="#086" fill-opacity="0.5" class="leaflet-clickable" d="M456 422L456 421z"/></g><g><path stroke-linejoin="round" stroke-linecap="round" fill-rule="evenodd" stroke="#005540" stroke-opacity="1" stroke-width="0.5" fill="#086" fill-opacity="0.5" class="leaflet-clickable" d="M492 248L496 248L501 244L502 241L506 239L510 229L516 230L515 233L517 233L520 236L520 245L526 253L535 253L537 256L536 258L542 262L542 264L544 264L541 267L539 267L540 270L538 271L540 275L540 280L542 280L545 286L550 289L553 295L552 296L555 299L558 299L558 297L564 299L566 305L569 308L567 308L568 316L571 317L573 321L572 322L574 324L574 328L580 329L577 333L577 340L578 339L579 342L578 343L574 341L573 344L555 325L554 321L548 315L543 307L525 294L509 274L496 269L493 265L489 265L487 257L492 248z"/></g><g><path stroke-linejoin="round" stroke-linecap="round" fill-rule="evenodd" stroke="#005540" stroke-opacity="1" stroke-width="0.5" fill="#086" fill-opacity="0.5" class="leaflet-clickable" d="M561 371L560 371z"/></g><g><path stroke-linejoin="round" stroke-linecap="round" fill-rule="evenodd" stroke="#005540" stroke-opacity="1" stroke-width="0.5" fill="#086" fill-opacity="0.5" class="leaflet-clickable" d="M556 368L558 369L557 370L555 368z"/></g><g><path stroke-linejoin="round" stroke-linecap="round" fill-rule="evenodd" stroke="#005540" stroke-opacity="1" stroke-width="0.5" fill="#086" fill-opacity="0.5" class="leaflet-clickable" d="M551 363L553 363L554 366L552 366L551 364z"/></g><g><path stroke-linejoin="round" stroke-linecap="round" fill-rule="evenodd" stroke="#005540" stroke-opacity="1" stroke-width="0.5" fill="#086" fill-opacity="0.5" class="leaflet-clickable" d="M551 361L550 362z"/></g><g><path stroke-linejoin="round" stroke-linecap="round" fill-rule="evenodd" stroke="#005540" stroke-opacity="1" stroke-width="0.5" fill="#086" fill-opacity="0.5" class="leaflet-clickable" d="M603 346L605 347L603 356L607 356L608 360L612 361L614 363L613 366L618 370L615 373L616 374L606 376L607 381L603 385L606 387L606 389L595 380L586 382L583 388L581 386L576 386L584 376L584 367L583 368L578 364L574 356L574 349L571 343L572 342L572 344L574 341L579 343L577 339L577 333L580 329L581 332L589 332L588 333L591 337L587 339L589 343L593 340L598 344L599 347L603 345z"/></g><g><path stroke-linejoin="round" stroke-linecap="round" fill-rule="evenodd" stroke="#005540" stroke-opacity="1" stroke-width="0.5" fill="#086" fill-opacity="0.5" class="leaflet-clickable" d="M348 197L347 197z"/></g><g><path stroke-linejoin="round" stroke-linecap="round" fill-rule="evenodd" stroke="#005540" stroke-opacity="1" stroke-width="0.5" fill="#086" fill-opacity="0.5" class="leaflet-clickable" d="M356 195L358 201L357 204L353 202L356 199L356 196z"/></g><g><path stroke-linejoin="round" stroke-linecap="round" fill-rule="evenodd" stroke="#005540" stroke-opacity="1" stroke-width="0.5" fill="#086" fill-opacity="0.5" class="leaflet-clickable" d="M409 187L412 189L411 190L410 188z"/></g><g><path stroke-linejoin="round" stroke-linecap="round" fill-rule="evenodd" stroke="#005540" stroke-opacity="1" stroke-width="0.5" fill="#086" fill-opacity="0.5" class="leaflet-clickable" d="M395 176L395 177z"/></g><g><path stroke-linejoin="round" stroke-linecap="round" fill-rule="evenodd" stroke="#005540" stroke-opacity="1" stroke-width="0.5" fill="#086" fill-opacity="0.5" class="leaflet-clickable" d="M395 165L398 167L398 170L400 172L403 171L403 179L393 168L394 165z"/></g><g><path stroke-linejoin="round" stroke-linecap="round" fill-rule="evenodd" stroke="#005540" stroke-opacity="1" stroke-width="0.5" fill="#086" fill-opacity="0.5" class="leaflet-clickable" d="M285 174L287 177L286 182L284 177L285 174z"/></g><g><path stroke-linejoin="round" stroke-linecap="round" fill-rule="evenodd" stroke="#005540" stroke-opacity="1" stroke-width="0.5" fill="#086" fill-opacity="0.5" class="leaflet-clickable" d="M374 153L374 154z"/></g><g><path stroke-linejoin="round" stroke-linecap="round" fill-rule="evenodd" stroke="#005540" stroke-opacity="1" stroke-width="0.5" fill="#086" fill-opacity="0.5" class="leaflet-clickable" d="M367 112L367 112z"/></g><g><path stroke-linejoin="round" stroke-linecap="round" fill-rule="evenodd" stroke="#005540" stroke-opacity="1" stroke-width="0.5" fill="#086" fill-opacity="0.5" class="leaflet-clickable" d="M367 105L369 107L368 108L366 108L366 105z"/></g><g><path stroke-linejoin="round" stroke-linecap="round" fill-rule="evenodd" stroke="#005540" stroke-opacity="1" stroke-width="0.5" fill="#086" fill-opacity="0.5" class="leaflet-clickable" d="M365 86L362 88L360 93L362 95L362 102L365 103L366 105L366 110L364 113L364 123L368 129L368 137L370 142L369 149L375 157L375 159L378 159L392 172L395 182L397 180L399 184L402 184L404 191L410 195L409 197L411 199L411 205L379 205L382 201L381 198L383 194L381 190L376 186L376 184L373 181L371 181L370 177L367 176L367 174L345 159L346 157L343 153L343 146L337 140L338 134L332 127L331 128L330 119L323 112L324 109L322 106L323 107L324 104L318 99L318 96L313 88L313 85L367 80L365 86z"/></g><g><path stroke-linejoin="round" stroke-linecap="round" fill-rule="evenodd" stroke="#005540" stroke-opacity="1" stroke-width="0.5" fill="#086" fill-opacity="0.5" class="leaflet-clickable" d="M706 398L711 401L714 400L714 407L717 409L716 410L720 407L720 405L725 405L725 403L726 409L728 407L731 407L734 410L732 414L734 418L734 428L729 430L726 427L726 421L724 419L723 414L717 421L719 425L718 430L715 431L716 433L713 436L709 434L710 435L708 435L706 438L702 438L696 444L692 439L693 438L691 437L692 434L689 431L698 418L696 412L699 411L699 403L703 403L703 399L705 398z"/></g><g><path stroke-linejoin="round" stroke-linecap="round" fill-rule="evenodd" stroke="#005540" stroke-opacity="1" stroke-width="0.5" fill="#00cc99" fill-opacity="0.5" class="leaflet-clickable" d="M921 384L921 391L925 391L926 394L929 393L934 397L933 398L939 404L942 412L949 418L949 457L908 457L908 453L898 451L895 449L896 448L893 451L893 455L881 449L881 444L877 442L874 438L877 436L885 436L888 438L905 428L914 420L914 412L920 405L919 391L921 384z"/></g><g><path stroke-linejoin="round" stroke-linecap="round" fill-rule="evenodd" stroke="#005540" stroke-opacity="1" stroke-width="0.5" fill="#00cc99" fill-opacity="0.5" class="leaflet-clickable" d="M908 457L908 470L897 470L898 467L892 465L893 462L889 459L889 455L885 455L878 460L877 459L877 461L875 463L871 463L871 465L868 468L866 466L865 467L866 466L864 464L862 464L860 459L861 456L859 456L860 455L857 453L854 454L854 460L850 464L848 469L846 467L848 463L846 463L842 458L837 456L838 452L836 448L852 442L865 442L868 440L868 438L873 437L876 442L880 442L881 449L884 450L885 452L893 456L893 450L896 448L896 450L902 453L908 453L908 455z"/></g><g><path stroke-linejoin="round" stroke-linecap="round" fill-rule="evenodd" stroke="#005540" stroke-opacity="1" stroke-width="0.5" fill="#00cc99" fill-opacity="0.5" class="leaflet-clickable" d="M726 427L729 430L733 428L731 434L732 441L731 442L729 440L724 444L718 441L714 436L719 425L726 427z"/></g><g><path stroke-linejoin="round" stroke-linecap="round" fill-rule="evenodd" stroke="#005540" stroke-opacity="1" stroke-width="0.5" fill="#00cc99" fill-opacity="0.5" class="leaflet-clickable" d="M640 362L642 361L650 365L660 358L661 357L659 357L661 355L663 355L668 361L666 361L667 362L665 367L667 370L665 370L665 372L662 374L662 376L655 385L658 388L655 394L653 396L647 396L638 402L637 400L633 402L633 405L635 404L640 407L640 409L638 410L641 415L640 416L645 417L642 423L640 422L636 424L631 430L629 428L623 429L623 421L619 416L615 419L610 416L608 421L601 423L600 422L597 425L593 423L593 421L592 422L589 420L587 415L585 415L577 404L573 394L581 392L583 390L582 388L584 385L585 386L587 382L592 380L599 382L606 390L605 385L603 385L607 381L606 376L616 374L615 373L618 370L613 365L614 363L612 361L608 361L607 357L603 355L605 347L607 345L608 346L607 343L610 344L609 347L613 344L610 339L611 337L617 339L617 341L614 342L615 343L613 347L615 351L615 347L618 341L621 343L618 352L619 353L623 353L625 350L627 350L626 347L628 345L630 347L629 348L633 350L631 356L627 356L623 360L621 360L623 362L622 365L618 367L618 369L622 369L623 371L618 373L620 373L621 377L631 379L633 374L636 375L640 371L641 372L643 368L639 365L640 363z"/></g><g><path stroke-linejoin="round" stroke-linecap="round" fill-rule="evenodd" stroke="#005540" stroke-opacity="1" stroke-width="0.5" fill="#00cc99" fill-opacity="0.5" class="leaflet-clickable" d="M753 349L751 351L743 344L741 344L740 346L733 345L731 347L724 345L722 346L714 337L713 341L710 339L706 339L705 337L700 337L702 335L700 332L702 330L700 328L701 323L699 323L701 321L704 322L703 317L706 312L712 312L714 309L714 307L710 303L712 296L709 294L709 292L713 291L714 288L718 286L720 287L722 283L721 281L724 278L727 279L738 270L735 269L735 255L729 255L727 257L725 253L722 255L721 249L719 250L715 247L716 241L710 239L712 234L708 233L710 229L708 219L704 218L704 216L709 213L713 216L715 230L719 234L723 246L725 245L727 247L732 248L732 250L738 250L743 255L756 255L761 260L763 259L762 258L767 257L767 263L760 276L755 294L753 336L751 339L752 348z"/></g><g><path stroke-linejoin="round" stroke-linecap="round" fill-rule="evenodd" stroke="#005540" stroke-opacity="1" stroke-width="0.5" fill="#00cc99" fill-opacity="0.5" class="leaflet-clickable" d="M733 417L732 414L738 414L741 412L740 411L746 411L751 415L751 417L753 417L756 420L755 422L752 421L750 424L747 423L744 426L737 420L736 417L734 418z"/></g><g><path stroke-linejoin="round" stroke-linecap="round" fill-rule="evenodd" stroke="#005540" stroke-opacity="1" stroke-width="0.5" fill="#00cc99" fill-opacity="0.5" class="leaflet-clickable" d="M753 349L755 357L763 366L761 372L762 378L769 392L776 398L783 407L786 419L791 424L791 426L794 427L796 432L801 435L810 435L820 440L827 449L836 447L837 456L845 460L847 463L847 470L845 470L842 473L818 472L819 470L814 467L810 462L812 460L811 459L809 459L803 464L800 464L796 459L798 454L797 449L789 449L790 448L789 449L787 447L782 438L778 437L777 444L775 440L771 439L769 441L766 437L763 436L765 431L764 428L771 422L762 419L763 418L761 416L761 414L764 411L764 407L768 401L761 398L758 402L754 400L755 397L753 395L754 393L755 394L758 392L755 391L753 384L751 384L750 390L748 391L746 388L745 391L740 395L735 396L736 395L734 392L737 390L738 387L736 388L740 383L740 385L742 385L743 380L745 378L741 376L742 375L739 376L736 373L737 370L736 371L733 365L738 361L735 356L737 357L738 353L741 350L733 346L739 346L742 344L748 347L751 351L752 349z"/></g><g><path stroke-linejoin="round" stroke-linecap="round" fill-rule="evenodd" stroke="#005540" stroke-opacity="1" stroke-width="0.5" fill="#7fd" fill-opacity="0.5" class="leaflet-clickable" d="M660 355L659 356L661 358L656 359L652 364L648 364L642 361L639 362L637 360L642 352L642 348L648 347L650 345L654 347L653 348L656 348L656 352L660 355z"/></g><g><path stroke-linejoin="round" stroke-linecap="round" fill-rule="evenodd" stroke="#005540" stroke-opacity="1" stroke-width="0.5" fill="#7fd" fill-opacity="0.5" class="leaflet-clickable" d="M748 392L744 397L741 398L745 399L745 401L741 407L743 410L740 411L741 412L739 414L733 414L734 409L731 407L727 407L726 409L725 406L727 404L725 403L725 405L722 404L720 408L718 408L717 410L717 408L714 405L714 400L711 401L706 398L706 391L711 390L713 388L717 379L716 378L724 376L726 372L727 375L733 376L733 372L737 370L736 373L739 376L742 375L741 376L743 376L745 379L742 383L743 385L738 384L735 388L737 387L735 396L740 395L746 389L748 391z"/></g><g><path stroke-linejoin="round" stroke-linecap="round" fill-rule="evenodd" stroke="#005540" stroke-opacity="1" stroke-width="0.5" fill="#7fd" fill-opacity="0.5" class="leaflet-clickable" d="M700 325L702 329L700 331L702 335L700 337L705 337L713 341L714 337L722 346L735 346L741 350L735 357L737 357L737 361L733 365L736 368L736 370L732 372L734 372L733 376L729 376L726 372L723 373L721 364L716 370L714 370L710 366L708 366L708 368L705 369L696 363L694 363L692 367L688 368L684 366L681 362L668 360L672 355L672 351L670 348L673 344L671 339L672 338L669 337L667 341L666 340L665 343L662 344L660 342L660 339L658 340L653 335L651 330L652 328L650 325L652 323L650 323L652 320L654 322L662 320L675 308L675 302L678 301L679 296L681 299L686 295L689 296L688 301L691 303L691 326L694 327L694 324L695 325L696 323L698 323L697 325L699 325z"/></g><g><path stroke-linejoin="round" stroke-linecap="round" fill-rule="evenodd" stroke="#005540" stroke-opacity="1" stroke-width="0.5" fill="#7fd" fill-opacity="0.5" class="leaflet-clickable" d="M724 373L723 376L719 378L718 376L713 386L714 388L706 391L706 398L704 397L704 402L700 404L697 401L697 398L695 398L691 394L689 385L692 382L700 382L701 379L702 380L702 375L708 375L710 373L707 372L709 366L716 370L721 364L723 373z"/></g><g><path stroke-linejoin="round" stroke-linecap="round" fill-rule="evenodd" stroke="#005540" stroke-opacity="1" stroke-width="0.5" fill="#7fd" fill-opacity="0.5" class="leaflet-clickable" d="M684 292L686 295L681 299L679 297L678 301L676 302L675 308L670 313L662 320L657 322L654 322L652 320L650 323L652 323L650 325L654 336L658 340L660 339L660 342L662 344L665 343L669 337L672 338L671 339L673 343L671 344L670 348L672 350L672 355L669 359L668 360L667 358L660 355L656 352L656 348L655 349L650 345L648 347L642 348L642 352L637 359L640 363L640 366L643 368L642 371L640 371L636 375L633 374L633 378L631 379L627 379L620 376L618 372L622 371L622 369L618 369L618 367L622 365L623 362L621 360L631 355L633 350L631 348L630 349L628 345L626 347L627 350L625 350L624 353L618 352L621 349L621 344L620 342L618 342L616 343L615 351L613 347L615 343L614 342L617 341L617 339L614 337L610 338L613 343L610 347L610 343L608 343L606 347L604 346L605 338L609 336L607 331L610 319L615 315L616 316L615 306L619 302L621 302L621 299L623 299L625 295L637 295L640 297L645 296L646 291L642 283L642 280L647 281L646 278L655 279L660 281L662 284L666 285L665 286L667 288L673 286L676 288L677 291L681 293L684 292z"/></g><g><path stroke-linejoin="round" stroke-linecap="round" fill-rule="evenodd" stroke="#005540" stroke-opacity="1" stroke-width="0.5" fill="#7fd" fill-opacity="0.5" class="leaflet-clickable" d="M708 368L707 371L708 373L710 373L706 376L702 375L703 376L701 382L692 382L689 385L691 393L695 398L693 402L694 405L681 406L678 402L676 402L676 404L672 404L670 402L670 400L672 399L669 398L669 396L667 396L664 399L658 399L658 397L655 394L658 391L655 384L658 382L662 374L665 373L664 370L666 370L665 367L667 363L666 362L668 360L674 360L676 362L678 361L686 367L692 367L693 363L695 363L705 369L707 368z"/></g><g><path stroke-linejoin="round" stroke-linecap="round" fill-rule="evenodd" stroke="#005540" stroke-opacity="1" stroke-width="0.5" fill="#ddfff6" fill-opacity="0.5" class="leaflet-clickable" d="M694 397L698 399L697 401L700 404L699 405L701 408L699 408L697 412L698 419L695 420L693 426L687 433L684 432L685 439L688 441L688 444L684 441L681 442L679 440L673 439L669 441L663 438L660 439L659 441L660 446L653 449L653 455L623 445L617 436L623 429L628 428L631 430L634 427L634 425L635 426L635 424L640 422L641 423L643 421L644 417L640 417L641 415L638 410L640 408L639 406L633 405L633 402L636 401L635 400L640 401L646 396L653 395L657 395L656 396L658 396L660 400L664 400L665 397L669 396L669 398L672 399L670 399L670 402L672 404L676 404L676 402L678 402L681 406L691 406L694 405L693 402L695 398z"/></g><g><path stroke-linejoin="round" stroke-linecap="round" fill-rule="evenodd" stroke="#005540" stroke-opacity="1" stroke-width="0.5" fill="#ddfff6" fill-opacity="0.5" class="leaflet-clickable" d="M777 443L773 447L768 449L765 448L760 452L758 452L756 446L752 446L752 453L754 451L755 452L753 452L750 455L748 453L744 453L744 455L739 456L738 453L734 454L724 446L724 444L727 441L732 442L731 434L734 428L733 417L735 417L744 426L747 423L750 425L752 422L756 421L753 417L750 416L751 415L749 413L747 413L747 411L742 412L743 411L741 408L746 401L744 398L741 398L744 397L750 390L751 384L754 385L754 389L758 392L753 395L755 397L754 400L758 402L761 398L767 401L761 416L763 418L762 419L771 422L769 424L770 425L766 424L763 437L764 436L769 441L773 439L777 443z"/></g><g><path stroke-linejoin="round" stroke-linecap="round" fill-rule="evenodd" stroke="#005540" stroke-opacity="1" stroke-width="0.5" fill="#ddfff6" fill-opacity="0.5" class="leaflet-clickable" d="M897 470L900 473L901 472L901 474L905 476L904 477L909 481L914 483L915 488L921 491L920 498L891 498L880 518L883 522L880 527L881 531L879 535L851 507L843 501L838 500L836 496L838 495L838 492L836 489L842 473L850 466L850 464L854 460L853 458L856 453L859 455L859 457L861 457L860 459L863 465L864 464L866 466L865 467L866 466L868 468L872 463L877 462L876 461L882 458L882 456L885 454L888 455L888 459L892 460L892 466L897 467L898 470z"/></g><g><path stroke-linejoin="round" stroke-linecap="round" fill-rule="evenodd" stroke="#005540" stroke-opacity="1" stroke-width="0.5" fill="#ddfff6" fill-opacity="0.5" class="leaflet-clickable" d="M842 473L836 489L838 492L837 496L839 500L833 497L823 495L811 496L806 501L802 501L792 506L791 505L788 508L779 508L770 505L767 502L753 501L743 494L736 493L740 490L739 487L744 485L743 484L746 481L746 477L748 475L743 474L742 470L741 471L741 464L737 460L738 456L742 454L743 455L745 453L749 453L752 455L754 452L753 451L752 453L751 448L756 445L758 452L765 448L770 449L777 443L778 437L784 440L789 449L797 449L798 454L796 459L800 463L803 464L809 459L811 459L812 460L810 462L814 467L819 470L818 471L837 473z"/></g><g><path stroke-linejoin="round" stroke-linecap="round" fill-rule="evenodd" stroke="#005540" stroke-opacity="1" stroke-width="0.5" fill="#ddfff6" fill-opacity="0.5" class="leaflet-clickable" d="M714 435L718 441L722 441L724 446L729 450L728 451L731 452L729 452L732 454L738 454L737 460L741 464L741 471L742 470L743 473L747 475L746 480L743 484L744 485L740 487L739 491L735 493L730 487L728 488L718 484L710 484L702 478L678 470L679 469L674 465L670 464L661 455L653 452L654 448L660 445L660 439L662 438L666 438L666 440L668 441L684 441L686 443L687 442L687 444L688 441L686 441L685 439L684 432L687 433L689 431L692 434L691 437L696 444L702 438L706 438L710 434L713 436z"/></g><g><path stroke-linejoin="round" stroke-linecap="round" fill-rule="evenodd" stroke="#005540" stroke-opacity="1" stroke-width="0.5" fill="#00cc99" fill-opacity="0.5" class="leaflet-clickable" d="M618 238L626 241L628 249L626 252L627 261L623 268L627 272L624 272L623 275L629 281L628 282L635 287L637 287L642 279L646 294L645 296L642 297L638 297L637 295L627 295L615 306L616 315L614 315L614 317L611 319L608 326L607 331L609 336L605 337L605 344L600 347L596 342L594 342L594 340L592 340L590 343L588 341L587 339L591 337L588 333L589 332L581 332L579 328L576 329L574 327L572 322L573 321L570 316L568 317L567 308L569 309L567 307L566 302L561 297L558 297L558 299L554 299L550 289L540 280L538 271L540 269L539 268L544 265L543 264L546 267L550 267L555 263L553 264L553 258L556 257L555 254L560 246L562 236L563 237L565 234L567 237L568 236L571 239L572 238L578 243L586 243L587 245L593 243L598 247L606 235L610 237L615 237z"/></g><g><path stroke-linejoin="round" stroke-linecap="round" fill-rule="evenodd" stroke="#005540" stroke-opacity="1" stroke-width="0.5" fill="#086" fill-opacity="0.5" class="leaflet-clickable" d="M627 179L619 191L620 192L614 202L614 207L613 206L612 209L614 209L614 223L616 224L617 229L615 234L618 236L618 238L606 235L604 236L605 237L598 247L594 243L588 245L586 243L581 244L580 242L579 243L573 240L572 238L571 239L568 236L567 237L565 234L564 237L562 237L563 238L560 242L560 246L555 253L556 257L553 258L553 264L555 262L551 267L547 267L536 258L537 257L534 252L526 253L524 251L520 245L520 237L517 233L515 233L515 229L509 231L507 230L508 229L507 230L507 227L505 225L507 222L505 219L506 217L504 216L503 212L499 210L501 209L496 202L496 198L509 196L509 192L504 181L505 176L503 174L503 172L505 172L504 168L506 166L505 160L508 159L506 157L506 145L508 146L505 138L501 137L499 133L499 130L502 129L502 126L505 126L503 126L504 125L501 123L502 121L500 121L503 118L516 118L516 106L519 105L556 106L561 113L564 116L566 116L577 128L587 135L589 135L589 137L591 137L592 143L596 148L596 156L599 159L599 161L603 165L607 166L606 167L609 170L616 172L627 179z"/></g><g><path stroke-linejoin="round" stroke-linecap="round" fill-rule="evenodd" stroke="#005540" stroke-opacity="1" stroke-width="0.5" fill="#086" fill-opacity="0.5" class="leaflet-clickable" d="M706 211L702 215L698 210L694 213L693 220L687 222L683 226L684 229L690 229L690 235L688 239L687 240L685 237L675 247L684 258L683 261L687 267L690 268L688 268L692 271L692 273L697 273L697 276L686 275L684 277L684 281L686 283L684 285L683 292L681 293L673 286L667 288L665 286L666 285L652 278L646 278L647 281L642 279L637 288L628 282L629 281L623 275L623 273L625 271L626 272L623 268L627 262L626 252L628 249L626 241L618 238L618 236L615 233L617 230L613 210L614 209L612 209L612 206L614 206L614 203L620 192L619 191L627 179L631 180L632 177L636 173L637 174L636 172L638 170L639 164L643 159L647 159L650 156L661 159L669 158L671 162L673 162L673 164L674 163L674 165L687 176L691 188L695 193L694 194L706 210z"/></g><g><path stroke-linejoin="round" stroke-linecap="round" fill-rule="evenodd" stroke="#005540" stroke-opacity="1" stroke-width="0.5" fill="#086" fill-opacity="0.5" class="leaflet-clickable" d="M706 211L709 213L704 216L704 218L708 219L710 228L708 233L712 234L710 238L716 241L715 247L719 250L721 249L722 255L725 253L727 257L729 255L735 255L735 269L738 269L728 279L724 278L721 281L721 287L718 286L714 288L713 291L709 292L709 294L711 294L712 296L710 303L715 309L712 312L706 312L703 317L704 322L701 321L699 323L701 323L700 325L697 325L698 323L696 323L695 325L694 324L695 327L692 326L692 313L690 310L691 304L688 302L689 297L684 292L684 285L686 283L684 282L684 277L686 275L697 276L697 274L693 273L688 268L690 268L685 265L682 254L675 247L685 237L687 240L688 239L690 235L690 229L684 229L683 226L687 222L693 220L694 213L698 210L702 214L704 213z"/></g><g><path stroke-linejoin="round" stroke-linecap="round" fill-rule="evenodd" stroke="#005540" stroke-opacity="1" stroke-width="0.5" fill="#00cc99" fill-opacity="0.5" class="leaflet-clickable" d="M986 368L986 380L983 386L972 398L966 398L960 404L958 404L957 407L955 407L956 408L950 414L949 413L946 415L943 413L939 407L939 404L936 400L934 400L930 393L927 394L922 391L921 384L923 379L933 374L959 370L963 367L968 367L971 365L986 368z"/></g><g><path stroke-linejoin="round" stroke-linecap="round" fill-rule="evenodd" stroke="#005540" stroke-opacity="1" stroke-width="0.5" fill="#00cc99" fill-opacity="0.5" class="leaflet-clickable" d="M936 341L939 342L940 344L938 346L935 343L936 341z"/></g><g><path stroke-linejoin="round" stroke-linecap="round" fill-rule="evenodd" stroke="#005540" stroke-opacity="1" stroke-width="0.5" fill="#00cc99" fill-opacity="0.5" class="leaflet-clickable" d="M990 443L991 440L991 442z"/></g><g><path stroke-linejoin="round" stroke-linecap="round" fill-rule="evenodd" stroke="#005540" stroke-opacity="1" stroke-width="0.5" fill="#00cc99" fill-opacity="0.5" class="leaflet-clickable" d="M992 435L992 437L992 435z"/></g><g><path stroke-linejoin="round" stroke-linecap="round" fill-rule="evenodd" stroke="#005540" stroke-opacity="1" stroke-width="0.5" fill="#00cc99" fill-opacity="0.5" class="leaflet-clickable" d="M1004 391L998 398L998 394L1000 391L1005 390z"/></g><g><path stroke-linejoin="round" stroke-linecap="round" fill-rule="evenodd" stroke="#005540" stroke-opacity="1" stroke-width="0.5" fill="#00cc99" fill-opacity="0.5" class="leaflet-clickable" d="M949 454L948 450L950 449L950 425L949 418L946 415L949 413L950 414L950 412L952 412L952 410L957 407L957 405L960 404L961 401L964 401L966 398L972 397L976 394L983 386L986 380L986 368L993 370L996 369L997 366L1002 373L1002 370L1003 371L1003 379L1000 385L988 399L988 409L987 410L988 406L987 409L981 412L983 416L988 413L989 414L988 418L983 420L983 424L986 421L988 421L986 423L978 449L975 449L975 443L970 443L970 441L964 441L962 447L959 449L956 455L952 452L950 454z"/></g><g><path stroke-linejoin="round" stroke-linecap="round" fill-rule="evenodd" stroke="#005540" stroke-opacity="1" stroke-width="0.5" fill="#00cc99" fill-opacity="0.5" class="leaflet-clickable" d="M996 365L994 367L989 368L991 366L995 366z"/></g></svg>