<svg xmlns="http://www.w3.org/2000/svg" class="leaflet-zoom-animated" width="1979" height="800" viewBox="-279 -113 1979 800" style="transform: translate3d(-279px, -113px, 0px);"><g><path stroke-linejoin="round" stroke-linecap="round" fill-rule="evenodd" stroke="#005540" stroke-opacity="1" stroke-width="0.5" fill="#086" fill-opacity="0.5" class="leaflet-clickable" d="M535 248L539 248L544 244L545 241L549 239L553 229L559 230L558 233L560 233L563 236L563 245L569 253L578 253L580 256L579 258L585 262L585 264L587 264L584 267L582 267L583 270L581 271L583 275L583 280L585 280L588 286L593 289L596 295L595 296L598 299L601 299L601 297L607 299L609 305L612 308L610 308L611 316L614 317L616 321L615 322L617 324L617 328L623 329L620 333L620 340L621 339L622 342L621 343L617 341L616 344L598 325L597 321L591 315L586 307L568 294L552 274L539 269L536 265L532 265L530 257L535 248z"/></g><g><path stroke-linejoin="round" stroke-linecap="round" fill-rule="evenodd" stroke="#005540" stroke-opacity="1" stroke-width="0.5" fill="#086" fill-opacity="0.5" class="leaflet-clickable" d="M749 398L754 401L757 400L757 407L760 409L759 410L763 407L763 405L768 405L768 403L769 409L771 407L774 407L777 410L775 414L777 418L777 428L772 430L769 427L769 421L767 419L766 414L760 421L762 425L761 430L758 431L759 433L756 436L752 434L753 435L751 435L749 438L745 438L739 444L735 439L736 438L734 437L735 434L732 431L741 418L739 412L742 411L742 403L746 403L746 399L748 398z"/></g><g><path stroke-linejoin="round" stroke-linecap="round" fill-rule="evenodd" stroke="#005540" stroke-opacity="1" stroke-width="0.5" fill="#086" fill-opacity="0.5" class="leaflet-clickable" d="M391 197L390 197z"/></g><g><path stroke-linejoin="round" stroke-linecap="round" fill-rule="evenodd" stroke="#005540" stroke-opacity="1" stroke-width="0.5" fill="#086" fill-opacity="0.5" class="leaflet-clickable" d="M399 195L401 201L400 204L396 202L399 199L399 196z"/></g><g><path stroke-linejoin="round" stroke-linecap="round" fill-rule="evenodd" stroke="#005540" stroke-opacity="1" stroke-width="0.5" fill="#086" fill-opacity="0.5" class="leaflet-clickable" d="M452 187L455 189L454 190L453 188z"/></g><g><path stroke-linejoin="round" stroke-linecap="round" fill-rule="evenodd" stroke="#005540" stroke-opacity="1" stroke-width="0.5" fill="#086" fill-opacity="0.5" class="leaflet-clickable" d="M438 176L438 177z"/></g><g><path stroke-linejoin="round" stroke-linecap="round" fill-rule="evenodd" stroke="#005540" stroke-opacity="1" stroke-width="0.5" fill="#086" fill-opacity="0.5" class="leaflet-clickable" d="M438 165L441 167L441 170L443 172L446 171L446 179L436 168L437 165z"/></g><g><path stroke-linejoin="round" stroke-linecap="round" fill-rule="evenodd" stroke="#005540" stroke-opacity="1" stroke-width="0.5" fill="#086" fill-opacity="0.5" class="leaflet-clickable" d="M328 174L330 177L329 182L327 177L328 174z"/></g><g><path stroke-linejoin="round" stroke-linecap="round" fill-rule="evenodd" stroke="#005540" stroke-opacity="1" stroke-width="0.5" fill="#086" fill-opacity="0.5" class="leaflet-clickable" d="M417 153L417 154z"/></g><g><path stroke-linejoin="round" stroke-linecap="round" fill-rule="evenodd" stroke="#005540" stroke-opacity="1" stroke-width="0.5" fill="#086" fill-opacity="0.5" class="leaflet-clickable" d="M410 112L410 112z"/></g><g><path stroke-linejoin="round" stroke-linecap="round" fill-rule="evenodd" stroke="#005540" stroke-opacity="1" stroke-width="0.5" fill="#086" fill-opacity="0.5" class="leaflet-clickable" d="M410 105L412 107L411 108L409 108L409 105z"/></g><g><path stroke-linejoin="round" stroke-linecap="round" fill-rule="evenodd" stroke="#005540" stroke-opacity="1" stroke-width="0.5" fill="#086" fill-opacity="0.5" class="leaflet-clickable" d="M408 86L405 88L403 93L405 95L405 102L408 103L409 105L409 110L407 113L407 123L411 129L411 137L413 142L412 149L418 157L418 159L421 159L435 172L438 182L440 180L442 184L445 184L447 191L453 195L452 197L454 199L454 205L422 205L425 201L424 198L426 194L424 190L419 186L419 184L416 181L414 181L413 177L410 176L410 174L388 159L389 157L386 153L386 146L380 140L381 134L375 127L374 128L373 119L366 112L367 109L365 106L366 107L367 104L361 99L361 96L356 88L356 85L410 80L408 86z"/></g><g><path stroke-linejoin="round" stroke-linecap="round" fill-rule="evenodd" stroke="#005540" stroke-opacity="1" stroke-width="0.5" fill="#086" fill-opacity="0.5" class="leaflet-clickable" d="M460 186L459 188L459 186z"/></g><g><path stroke-linejoin="round" stroke-linecap="round" fill-rule="evenodd" stroke="#005540" stroke-opacity="1" stroke-width="0.5" fill="#086" fill-opacity="0.5" class="leaflet-clickable" d="M466 173L468 179L465 186L460 182L461 175L465 173z"/></g><g><path stroke-linejoin="round" stroke-linecap="round" fill-rule="evenodd" stroke="#005540" stroke-opacity="1" stroke-width="0.5" fill="#086" fill-opacity="0.5" class="leaflet-clickable" d="M411 106L413 106L412 107z"/></g><g><path stroke-linejoin="round" stroke-linecap="round" fill-rule="evenodd" stroke="#005540" stroke-opacity="1" stroke-width="0.5" fill="#086" fill-opacity="0.5" class="leaflet-clickable" d="M408 86L488 115L493 118L546 118L545 120L543 120L544 123L547 125L546 126L548 126L545 126L545 129L542 129L542 132L544 135L543 136L550 141L549 144L551 145L549 145L549 158L551 158L551 160L548 160L549 166L547 168L547 182L550 186L552 196L540 198L539 202L543 209L542 210L546 213L548 217L550 222L548 224L551 231L554 231L548 239L548 241L546 241L543 244L543 246L535 248L535 244L533 241L528 238L523 238L519 229L511 227L507 223L504 223L505 209L503 207L502 208L498 206L498 208L496 208L496 206L490 204L484 195L480 193L474 186L475 184L468 180L468 173L466 170L465 171L463 169L464 167L460 162L458 156L455 155L455 148L447 134L448 122L442 119L435 118L435 114L430 110L422 113L413 106L406 103L404 96L405 95L403 93L405 91L405 87L408 87zM499 205L499 206z"/></g><g><path stroke-linejoin="round" stroke-linecap="round" fill-rule="evenodd" stroke="#005540" stroke-opacity="1" stroke-width="0.5" fill="#086" fill-opacity="0.5" class="leaflet-clickable" d="M670 179L662 191L663 192L657 202L657 207L656 206L655 209L657 209L657 223L659 224L660 229L658 234L661 236L661 238L649 235L647 236L648 237L641 247L637 243L631 245L629 243L624 244L623 242L622 243L616 240L615 238L614 239L611 236L610 237L608 234L607 237L605 237L606 238L603 242L603 246L598 253L599 257L596 258L596 264L598 262L594 267L590 267L579 258L580 257L577 252L569 253L567 251L563 245L563 237L560 233L558 233L558 229L552 231L550 230L551 229L550 230L550 227L548 225L550 222L548 219L549 217L547 216L546 212L542 210L544 209L539 202L539 198L552 196L552 192L547 181L548 176L546 174L546 172L548 172L547 168L549 166L548 160L551 159L549 157L549 145L551 146L548 138L544 137L542 133L542 130L545 129L545 126L548 126L546 126L547 125L544 123L545 121L543 121L546 118L559 118L559 106L562 105L599 106L604 113L607 116L609 116L620 128L630 135L632 135L632 137L634 137L635 143L639 148L639 156L642 159L642 161L646 165L650 166L649 167L652 170L659 172L670 179z"/></g><g><path stroke-linejoin="round" stroke-linecap="round" fill-rule="evenodd" stroke="#005540" stroke-opacity="1" stroke-width="0.5" fill="#086" fill-opacity="0.5" class="leaflet-clickable" d="M410 444L410 444z"/></g><g><path stroke-linejoin="round" stroke-linecap="round" fill-rule="evenodd" stroke="#005540" stroke-opacity="1" stroke-width="0.5" fill="#086" fill-opacity="0.5" class="leaflet-clickable" d="M495 432L497 434L496 435L494 433L495 432z"/></g><g><path stroke-linejoin="round" stroke-linecap="round" fill-rule="evenodd" stroke="#005540" stroke-opacity="1" stroke-width="0.5" fill="#086" fill-opacity="0.5" class="leaflet-clickable" d="M666 429L660 436L646 426L639 424L640 425L643 422L644 423L652 421L651 420L653 416L658 419L662 416L666 420L666 429z"/></g><g><path stroke-linejoin="round" stroke-linecap="round" fill-rule="evenodd" stroke="#005540" stroke-opacity="1" stroke-width="0.5" fill="#086" fill-opacity="0.5" class="leaflet-clickable" d="M499 422L499 421z"/></g><g><path stroke-linejoin="round" stroke-linecap="round" fill-rule="evenodd" stroke="#005540" stroke-opacity="1" stroke-width="0.5" fill="#086" fill-opacity="0.5" class="leaflet-clickable" d="M769 427L765 427L760 423L765 414L769 421L769 426z"/></g><g><path stroke-linejoin="round" stroke-linecap="round" fill-rule="evenodd" stroke="#005540" stroke-opacity="1" stroke-width="0.5" fill="#086" fill-opacity="0.5" class="leaflet-clickable" d="M604 371L603 371z"/></g><g><path stroke-linejoin="round" stroke-linecap="round" fill-rule="evenodd" stroke="#005540" stroke-opacity="1" stroke-width="0.5" fill="#086" fill-opacity="0.5" class="leaflet-clickable" d="M599 368L601 369L600 370L598 368z"/></g><g><path stroke-linejoin="round" stroke-linecap="round" fill-rule="evenodd" stroke="#005540" stroke-opacity="1" stroke-width="0.5" fill="#086" fill-opacity="0.5" class="leaflet-clickable" d="M594 363L596 363L597 366L595 366L594 364z"/></g><g><path stroke-linejoin="round" stroke-linecap="round" fill-rule="evenodd" stroke="#005540" stroke-opacity="1" stroke-width="0.5" fill="#086" fill-opacity="0.5" class="leaflet-clickable" d="M594 361L593 362z"/></g><g><path stroke-linejoin="round" stroke-linecap="round" fill-rule="evenodd" stroke="#005540" stroke-opacity="1" stroke-width="0.5" fill="#086" fill-opacity="0.5" class="leaflet-clickable" d="M646 346L648 347L646 356L650 356L651 360L655 361L657 363L656 366L661 370L658 373L659 374L649 376L650 381L646 385L649 387L649 389L638 380L629 382L626 388L624 386L619 386L627 376L627 367L626 368L621 364L617 356L617 349L614 343L615 342L615 344L617 341L622 343L620 339L620 333L623 329L624 332L632 332L631 333L634 337L630 339L632 343L636 340L641 344L642 347L646 345z"/></g><g><path stroke-linejoin="round" stroke-linecap="round" fill-rule="evenodd" stroke="#005540" stroke-opacity="1" stroke-width="0.5" fill="#086" fill-opacity="0.5" class="leaflet-clickable" d="M776 417L775 414L781 414L784 412L783 411L789 411L794 415L794 417L796 417L799 420L798 422L795 421L793 424L790 423L787 426L780 420L779 417L777 418z"/></g><g><path stroke-linejoin="round" stroke-linecap="round" fill-rule="evenodd" stroke="#005540" stroke-opacity="1" stroke-width="0.5" fill="#086" fill-opacity="0.5" class="leaflet-clickable" d="M661 238L669 241L671 249L669 252L670 261L666 268L670 272L667 272L666 275L672 281L671 282L678 287L680 287L685 279L689 294L688 296L685 297L681 297L680 295L670 295L658 306L659 315L657 315L657 317L654 319L651 326L650 331L652 336L648 337L648 344L643 347L639 342L637 342L637 340L635 340L633 343L631 341L630 339L634 337L631 333L632 332L624 332L622 328L619 329L617 327L615 322L616 321L613 316L611 317L610 308L612 309L610 307L609 302L604 297L601 297L601 299L597 299L593 289L583 280L581 271L583 269L582 268L587 265L586 264L589 267L593 267L598 263L596 264L596 258L599 257L598 254L603 246L605 236L606 237L608 234L610 237L611 236L614 239L615 238L621 243L629 243L630 245L636 243L641 247L649 235L653 237L658 237z"/></g><g><path stroke-linejoin="round" stroke-linecap="round" fill-rule="evenodd" stroke="#005540" stroke-opacity="1" stroke-width="0.5" fill="#00cc99" fill-opacity="0.5" class="leaflet-clickable" d="M749 211L745 215L741 210L737 213L736 220L730 222L726 226L727 229L733 229L733 235L731 239L730 240L728 237L718 247L727 258L726 261L730 267L733 268L731 268L735 271L735 273L740 273L740 276L729 275L727 277L727 281L729 283L727 285L726 292L724 293L716 286L710 288L708 286L709 285L695 278L689 278L690 281L685 279L680 288L671 282L672 281L666 275L666 273L668 271L669 272L666 268L670 262L669 252L671 249L669 241L661 238L661 236L658 233L660 230L656 210L657 209L655 209L655 206L657 206L657 203L663 192L662 191L670 179L674 180L675 177L679 173L680 174L679 172L681 170L682 164L686 159L690 159L693 156L704 159L712 158L714 162L716 162L716 164L717 163L717 165L730 176L734 188L738 193L737 194L749 210z"/></g><g><path stroke-linejoin="round" stroke-linecap="round" fill-rule="evenodd" stroke="#005540" stroke-opacity="1" stroke-width="0.5" fill="#00cc99" fill-opacity="0.5" class="leaflet-clickable" d="M796 349L794 351L786 344L784 344L783 346L776 345L774 347L767 345L765 346L757 337L756 341L753 339L749 339L748 337L743 337L745 335L743 332L745 330L743 328L744 323L742 323L744 321L747 322L746 317L749 312L755 312L757 309L757 307L753 303L755 296L752 294L752 292L756 291L757 288L761 286L763 287L765 283L764 281L767 278L770 279L781 270L778 269L778 255L772 255L770 257L768 253L765 255L764 249L762 250L758 247L759 241L753 239L755 234L751 233L753 229L751 219L747 218L747 216L752 213L756 216L758 230L762 234L766 246L768 245L770 247L775 248L775 250L781 250L786 255L799 255L804 260L806 259L805 258L810 257L810 263L803 276L798 294L796 336L794 339L795 348z"/></g><g><path stroke-linejoin="round" stroke-linecap="round" fill-rule="evenodd" stroke="#005540" stroke-opacity="1" stroke-width="0.5" fill="#00cc99" fill-opacity="0.5" class="leaflet-clickable" d="M820 443L816 447L811 449L808 448L803 452L801 452L799 446L795 446L795 453L797 451L798 452L796 452L793 455L791 453L787 453L787 455L782 456L781 453L777 454L767 446L767 444L770 441L775 442L774 434L777 428L776 417L778 417L787 426L790 423L793 425L795 422L799 421L796 417L793 416L794 415L792 413L790 413L790 411L785 412L786 411L784 408L789 401L787 398L784 398L787 397L793 390L794 384L797 385L797 389L801 392L796 395L798 397L797 400L801 402L804 398L810 401L804 416L806 418L805 419L814 422L812 424L813 425L809 424L806 437L807 436L812 441L816 439L820 443z"/></g><g><path stroke-linejoin="round" stroke-linecap="round" fill-rule="evenodd" stroke="#005540" stroke-opacity="1" stroke-width="0.5" fill="#00cc99" fill-opacity="0.5" class="leaflet-clickable" d="M769 427L772 430L776 428L774 434L775 441L774 442L772 440L767 444L761 441L757 436L762 425L769 427z"/></g><g><path stroke-linejoin="round" stroke-linecap="round" fill-rule="evenodd" stroke="#005540" stroke-opacity="1" stroke-width="0.5" fill="#00cc99" fill-opacity="0.5" class="leaflet-clickable" d="M683 362L685 361L693 365L703 358L704 357L702 357L704 355L706 355L711 361L709 361L710 362L708 367L710 370L708 370L708 372L705 374L705 376L698 385L701 388L698 394L696 396L690 396L681 402L680 400L676 402L676 405L678 404L683 407L683 409L681 410L684 415L683 416L688 417L685 423L683 422L679 424L674 430L672 428L666 429L666 421L662 416L658 419L653 416L651 421L644 423L643 422L640 425L636 423L636 421L635 422L632 420L630 415L628 415L620 404L616 394L624 392L626 390L625 388L627 385L628 386L630 382L635 380L642 382L649 390L648 385L646 385L650 381L649 376L659 374L658 373L661 370L656 365L657 363L655 361L651 361L650 357L646 355L648 347L650 345L651 346L650 343L653 344L652 347L656 344L653 339L654 337L660 339L660 341L657 342L658 343L656 347L658 351L658 347L661 341L664 343L661 352L662 353L666 353L668 350L670 350L669 347L671 345L673 347L672 348L676 350L674 356L670 356L666 360L664 360L666 362L665 365L661 367L661 369L665 369L666 371L661 373L663 373L664 377L674 379L676 374L679 375L683 371L684 372L686 368L682 365L683 363z"/></g><g><path stroke-linejoin="round" stroke-linecap="round" fill-rule="evenodd" stroke="#005540" stroke-opacity="1" stroke-width="0.5" fill="#00cc99" fill-opacity="0.5" class="leaflet-clickable" d="M791 392L787 397L784 398L788 399L788 401L784 407L786 410L783 411L784 412L782 414L776 414L777 409L774 407L770 407L769 409L768 406L770 404L768 403L768 405L765 404L763 408L761 408L760 410L760 408L757 405L757 400L754 401L749 398L749 391L754 390L756 388L760 379L759 378L767 376L769 372L770 375L776 376L776 372L780 370L779 373L782 376L785 375L784 376L786 376L788 379L785 383L786 385L781 384L778 388L780 387L778 396L783 395L789 389L791 391z"/></g><g><path stroke-linejoin="round" stroke-linecap="round" fill-rule="evenodd" stroke="#005540" stroke-opacity="1" stroke-width="0.5" fill="#00cc99" fill-opacity="0.5" class="leaflet-clickable" d="M767 373L766 376L762 378L761 376L756 386L757 388L749 391L749 398L747 397L747 402L743 404L740 401L740 398L738 398L734 394L732 385L735 382L743 382L744 379L745 380L745 375L751 375L753 373L750 372L752 366L759 370L764 364L766 373z"/></g><g><path stroke-linejoin="round" stroke-linecap="round" fill-rule="evenodd" stroke="#005540" stroke-opacity="1" stroke-width="0.5" fill="#00cc99" fill-opacity="0.5" class="leaflet-clickable" d="M1033 443L1034 440L1034 442z"/></g><g><path stroke-linejoin="round" stroke-linecap="round" fill-rule="evenodd" stroke="#005540" stroke-opacity="1" stroke-width="0.5" fill="#00cc99" fill-opacity="0.5" class="leaflet-clickable" d="M1035 435L1035 437L1035 435z"/></g><g><path stroke-linejoin="round" stroke-linecap="round" fill-rule="evenodd" stroke="#005540" stroke-opacity="1" stroke-width="0.5" fill="#00cc99" fill-opacity="0.5" class="leaflet-clickable" d="M1047 391L1041 398L1041 394L1043 391L1048 390z"/></g><g><path stroke-linejoin="round" stroke-linecap="round" fill-rule="evenodd" stroke="#005540" stroke-opacity="1" stroke-width="0.5" fill="#00cc99" fill-opacity="0.5" class="leaflet-clickable" d="M992 454L991 450L993 449L993 425L992 418L989 415L992 413L993 414L993 412L995 412L995 410L1000 407L1000 405L1003 404L1004 401L1007 401L1009 398L1015 397L1019 394L1026 386L1029 380L1029 368L1036 370L1039 369L1040 366L1045 373L1045 370L1046 371L1046 379L1043 385L1031 399L1031 409L1030 410L1031 406L1030 409L1024 412L1026 416L1031 413L1032 414L1031 418L1026 420L1026 424L1029 421L1031 421L1029 423L1021 449L1018 449L1018 443L1013 443L1013 441L1007 441L1005 447L1002 449L999 455L995 452L993 454z"/></g><g><path stroke-linejoin="round" stroke-linecap="round" fill-rule="evenodd" stroke="#005540" stroke-opacity="1" stroke-width="0.5" fill="#00cc99" fill-opacity="0.5" class="leaflet-clickable" d="M1039 365L1037 367L1032 368L1034 366L1038 366z"/></g><g><path stroke-linejoin="round" stroke-linecap="round" fill-rule="evenodd" stroke="#005540" stroke-opacity="1" stroke-width="0.5" fill="#00cc99" fill-opacity="0.5" class="leaflet-clickable" d="M1029 368L1029 380L1026 386L1015 398L1009 398L1003 404L1001 404L1000 407L998 407L999 408L993 414L992 413L989 415L986 413L982 407L982 404L979 400L977 400L973 393L970 394L965 391L964 384L966 379L976 374L1002 370L1006 367L1011 367L1014 365L1029 368z"/></g><g><path stroke-linejoin="round" stroke-linecap="round" fill-rule="evenodd" stroke="#005540" stroke-opacity="1" stroke-width="0.5" fill="#00cc99" fill-opacity="0.5" class="leaflet-clickable" d="M979 341L982 342L983 344L981 346L978 343L979 341z"/></g><g><path stroke-linejoin="round" stroke-linecap="round" fill-rule="evenodd" stroke="#005540" stroke-opacity="1" stroke-width="0.5" fill="#00cc99" fill-opacity="0.5" class="leaflet-clickable" d="M703 355L702 356L704 358L699 359L695 364L691 364L685 361L682 362L680 360L685 352L685 348L691 347L693 345L697 347L696 348L699 348L699 352L703 355z"/></g><g><path stroke-linejoin="round" stroke-linecap="round" fill-rule="evenodd" stroke="#005540" stroke-opacity="1" stroke-width="0.5" fill="#00cc99" fill-opacity="0.5" class="leaflet-clickable" d="M743 325L745 329L743 331L745 335L743 337L748 337L756 341L757 337L765 346L778 346L784 350L778 357L780 357L780 361L776 365L779 368L779 370L775 372L777 372L776 376L772 376L769 372L766 373L764 364L759 370L757 370L753 366L751 366L751 368L748 369L739 363L737 363L735 367L731 368L727 366L724 362L711 360L715 355L715 351L713 348L716 344L714 339L715 338L712 337L710 341L709 340L708 343L705 344L703 342L703 339L701 340L696 335L694 330L695 328L693 325L695 323L693 323L695 320L697 322L705 320L718 308L718 302L721 301L722 296L724 299L729 295L732 296L731 301L734 303L734 326L737 327L737 324L738 325L739 323L741 323L740 325L742 325z"/></g><g><path stroke-linejoin="round" stroke-linecap="round" fill-rule="evenodd" stroke="#005540" stroke-opacity="1" stroke-width="0.5" fill="#00cc99" fill-opacity="0.5" class="leaflet-clickable" d="M951 457L951 470L940 470L941 467L935 465L936 462L932 459L932 455L928 455L921 460L920 459L920 461L918 463L914 463L914 465L911 468L909 466L908 467L909 466L907 464L905 464L903 459L904 456L902 456L903 455L900 453L897 454L897 460L893 464L891 469L889 467L891 463L889 463L885 458L880 456L881 452L879 448L895 442L908 442L911 440L911 438L916 437L919 442L923 442L924 449L927 450L928 452L936 456L936 450L939 448L939 450L945 453L951 453L951 455z"/></g><g><path stroke-linejoin="round" stroke-linecap="round" fill-rule="evenodd" stroke="#005540" stroke-opacity="1" stroke-width="0.5" fill="#00cc99" fill-opacity="0.5" class="leaflet-clickable" d="M964 384L964 391L968 391L969 394L972 393L977 397L976 398L982 404L985 412L992 418L992 457L951 457L951 453L941 451L938 449L939 448L936 451L936 455L924 449L924 444L920 442L917 438L920 436L928 436L931 438L948 428L957 420L957 412L963 405L962 391L964 384z"/></g><g><path stroke-linejoin="round" stroke-linecap="round" fill-rule="evenodd" stroke="#005540" stroke-opacity="1" stroke-width="0.5" fill="#7fd" fill-opacity="0.5" class="leaflet-clickable" d="M796 349L798 357L806 366L804 372L805 378L812 392L819 398L826 407L829 419L834 424L834 426L837 427L839 432L844 435L853 435L863 440L870 449L879 447L880 456L888 460L890 463L890 470L888 470L885 473L861 472L862 470L857 467L853 462L855 460L854 459L852 459L846 464L843 464L839 459L841 454L840 449L832 449L833 448L832 449L830 447L825 438L821 437L820 444L818 440L814 439L812 441L809 437L806 436L808 431L807 428L814 422L805 419L806 418L804 416L804 414L807 411L807 407L811 401L804 398L801 402L797 400L798 397L796 395L797 393L798 394L801 392L798 391L796 384L794 384L793 390L791 391L789 388L788 391L783 395L778 396L779 395L777 392L780 390L781 387L779 388L783 383L783 385L785 385L786 380L788 378L784 376L785 375L782 376L779 373L780 370L779 371L776 365L781 361L778 356L780 357L781 353L784 350L776 346L782 346L785 344L791 347L794 351L795 349z"/></g><g><path stroke-linejoin="round" stroke-linecap="round" fill-rule="evenodd" stroke="#005540" stroke-opacity="1" stroke-width="0.5" fill="#7fd" fill-opacity="0.5" class="leaflet-clickable" d="M727 292L729 295L724 299L722 297L721 301L719 302L718 308L713 313L705 320L700 322L697 322L695 320L693 323L695 323L693 325L697 336L701 340L703 339L703 342L705 344L708 343L712 337L715 338L714 339L716 343L714 344L713 348L715 350L715 355L712 359L711 360L710 358L703 355L699 352L699 348L698 349L693 345L691 347L685 348L685 352L680 359L683 363L683 366L686 368L685 371L683 371L679 375L676 374L676 378L674 379L670 379L663 376L661 372L665 371L665 369L661 369L661 367L665 365L666 362L664 360L674 355L676 350L674 348L673 349L671 345L669 347L670 350L668 350L667 353L661 352L664 349L664 344L663 342L661 342L659 343L658 351L656 347L658 343L657 342L660 341L660 339L657 337L653 338L656 343L653 347L653 343L651 343L649 347L647 346L648 338L652 336L650 331L653 319L658 315L659 316L658 306L662 302L664 302L664 299L666 299L668 295L680 295L683 297L688 296L689 291L685 283L685 280L690 281L689 278L698 279L703 281L705 284L709 285L708 286L710 288L716 286L719 288L720 291L724 293L727 292z"/></g><g><path stroke-linejoin="round" stroke-linecap="round" fill-rule="evenodd" stroke="#005540" stroke-opacity="1" stroke-width="0.5" fill="#7fd" fill-opacity="0.5" class="leaflet-clickable" d="M737 397L741 399L740 401L743 404L742 405L744 408L742 408L740 412L741 419L738 420L736 426L730 433L727 432L728 439L731 441L731 444L727 441L724 442L722 440L716 439L712 441L706 438L703 439L702 441L703 446L696 449L696 455L666 445L660 436L666 429L671 428L674 430L677 427L677 425L678 426L678 424L683 422L684 423L686 421L687 417L683 417L684 415L681 410L683 408L682 406L676 405L676 402L679 401L678 400L683 401L689 396L696 395L700 395L699 396L701 396L703 400L707 400L708 397L712 396L712 398L715 399L713 399L713 402L715 404L719 404L719 402L721 402L724 406L734 406L737 405L736 402L738 398z"/></g><g><path stroke-linejoin="round" stroke-linecap="round" fill-rule="evenodd" stroke="#005540" stroke-opacity="1" stroke-width="0.5" fill="#7fd" fill-opacity="0.5" class="leaflet-clickable" d="M751 368L750 371L751 373L753 373L749 376L745 375L746 376L744 382L735 382L732 385L734 393L738 398L736 402L737 405L724 406L721 402L719 402L719 404L715 404L713 402L713 400L715 399L712 398L712 396L710 396L707 399L701 399L701 397L698 394L701 391L698 384L701 382L705 374L708 373L707 370L709 370L708 367L710 363L709 362L711 360L717 360L719 362L721 361L729 367L735 367L736 363L738 363L748 369L750 368z"/></g><g><path stroke-linejoin="round" stroke-linecap="round" fill-rule="evenodd" stroke="#005540" stroke-opacity="1" stroke-width="0.5" fill="#7fd" fill-opacity="0.5" class="leaflet-clickable" d="M757 435L761 441L765 441L767 446L772 450L771 451L774 452L772 452L775 454L781 454L780 460L784 464L784 471L785 470L786 473L790 475L789 480L786 484L787 485L783 487L782 491L778 493L773 487L771 488L761 484L753 484L745 478L721 470L722 469L717 465L713 464L704 455L696 452L697 448L703 445L703 439L705 438L709 438L709 440L711 441L727 441L729 443L730 442L730 444L731 441L729 441L728 439L727 432L730 433L732 431L735 434L734 437L739 444L745 438L749 438L753 434L756 436z"/></g><g><path stroke-linejoin="round" stroke-linecap="round" fill-rule="evenodd" stroke="#005540" stroke-opacity="1" stroke-width="0.5" fill="#7fd" fill-opacity="0.5" class="leaflet-clickable" d="M885 473L879 489L881 492L880 496L882 500L876 497L866 495L854 496L849 501L845 501L835 506L834 505L831 508L822 508L813 505L810 502L796 501L786 494L779 493L783 490L782 487L787 485L786 484L789 481L789 477L791 475L786 474L785 470L784 471L784 464L780 460L781 456L785 454L786 455L788 453L792 453L795 455L797 452L796 451L795 453L794 448L799 445L801 452L808 448L813 449L820 443L821 437L827 440L832 449L840 449L841 454L839 459L843 463L846 464L852 459L854 459L855 460L853 462L857 467L862 470L861 471L880 473z"/></g><g><path stroke-linejoin="round" stroke-linecap="round" fill-rule="evenodd" stroke="#005540" stroke-opacity="1" stroke-width="0.5" fill="#ddfff6" fill-opacity="0.5" class="leaflet-clickable" d="M940 470L943 473L944 472L944 474L948 476L947 477L952 481L957 483L958 488L964 491L963 498L934 498L923 518L926 522L923 527L924 531L922 535L894 507L886 501L881 500L879 496L881 495L881 492L879 489L885 473L893 466L893 464L897 460L896 458L899 453L902 455L902 457L904 457L903 459L906 465L907 464L909 466L908 467L909 466L911 468L915 463L920 462L919 461L925 458L925 456L928 454L931 455L931 459L935 460L935 466L940 467L941 470z"/></g><g><path stroke-linejoin="round" stroke-linecap="round" fill-rule="evenodd" stroke="#005540" stroke-opacity="1" stroke-width="0.5" fill="#00cc99" fill-opacity="0.5" class="leaflet-clickable" d="M749 211L752 213L747 216L747 218L751 219L753 228L751 233L755 234L753 238L759 241L758 247L762 250L764 249L765 255L768 253L770 257L772 255L778 255L778 269L781 269L771 279L767 278L764 281L764 287L761 286L757 288L756 291L752 292L752 294L754 294L755 296L753 303L758 309L755 312L749 312L746 317L747 322L744 321L742 323L744 323L743 325L740 325L741 323L739 323L738 325L737 324L738 327L735 326L735 313L733 310L734 304L731 302L732 297L727 292L727 285L729 283L727 282L727 277L729 275L740 276L740 274L736 273L731 268L733 268L728 265L725 254L718 247L728 237L730 240L731 239L733 235L733 229L727 229L726 226L730 222L736 220L737 213L741 210L745 214L747 213z"/></g><g><path stroke-linejoin="round" stroke-linecap="round" fill-rule="evenodd" stroke="#005540" stroke-opacity="1" stroke-width="0.5" fill="#086" fill-opacity="0.5" class="leaflet-clickable" d="M522 302L520 302L520 297L522 301z"/></g><g><path stroke-linejoin="round" stroke-linecap="round" fill-rule="evenodd" stroke="#005540" stroke-opacity="1" stroke-width="0.5" fill="#086" fill-opacity="0.5" class="leaflet-clickable" d="M510 293L510 296L509 293z"/></g><g><path stroke-linejoin="round" stroke-linecap="round" fill-rule="evenodd" stroke="#005540" stroke-opacity="1" stroke-width="0.5" fill="#086" fill-opacity="0.5" class="leaflet-clickable" d="M509 291L509 292z"/></g><g><path stroke-linejoin="round" stroke-linecap="round" fill-rule="evenodd" stroke="#005540" stroke-opacity="1" stroke-width="0.5" fill="#086" fill-opacity="0.5" class="leaflet-clickable" d="M502 279L505 281L506 284L502 280z"/></g><g><path stroke-linejoin="round" stroke-linecap="round" fill-rule="evenodd" stroke="#005540" stroke-opacity="1" stroke-width="0.5" fill="#086" fill-opacity="0.5" class="leaflet-clickable" d="M502 273L501 275L502 273z"/></g><g><path stroke-linejoin="round" stroke-linecap="round" fill-rule="evenodd" stroke="#005540" stroke-opacity="1" stroke-width="0.5" fill="#086" fill-opacity="0.5" class="leaflet-clickable" d="M500 263L501 266L500 264z"/></g><g><path stroke-linejoin="round" stroke-linecap="round" fill-rule="evenodd" stroke="#005540" stroke-opacity="1" stroke-width="0.5" fill="#086" fill-opacity="0.5" class="leaflet-clickable" d="M494 263L494 265L494 263z"/></g><g><path stroke-linejoin="round" stroke-linecap="round" fill-rule="evenodd" stroke="#005540" stroke-opacity="1" stroke-width="0.5" fill="#086" fill-opacity="0.5" class="leaflet-clickable" d="M494 254L494 256L492 256L490 260L491 261L490 258L491 255L493 255z"/></g><g><path stroke-linejoin="round" stroke-linecap="round" fill-rule="evenodd" stroke="#005540" stroke-opacity="1" stroke-width="0.5" fill="#086" fill-opacity="0.5" class="leaflet-clickable" d="M489 252L489 252z"/></g><g><path stroke-linejoin="round" stroke-linecap="round" fill-rule="evenodd" stroke="#005540" stroke-opacity="1" stroke-width="0.5" fill="#086" fill-opacity="0.5" class="leaflet-clickable" d="M471 224L471 226L470 224z"/></g><g><path stroke-linejoin="round" stroke-linecap="round" fill-rule="evenodd" stroke="#005540" stroke-opacity="1" stroke-width="0.5" fill="#086" fill-opacity="0.5" class="leaflet-clickable" d="M474 219L473 219z"/></g><g><path stroke-linejoin="round" stroke-linecap="round" fill-rule="evenodd" stroke="#005540" stroke-opacity="1" stroke-width="0.5" fill="#086" fill-opacity="0.5" class="leaflet-clickable" d="M400 208L400 208z"/></g><g><path stroke-linejoin="round" stroke-linecap="round" fill-rule="evenodd" stroke="#005540" stroke-opacity="1" stroke-width="0.5" fill="#086" fill-opacity="0.5" class="leaflet-clickable" d="M422 205L455 205L457 212L465 218L468 224L467 225L474 229L472 230L472 232L474 234L476 233L479 235L482 241L485 243L484 244L488 254L488 262L493 268L495 268L496 274L503 285L501 293L504 300L510 302L510 298L513 298L518 302L518 305L522 306L522 308L525 311L525 314L530 317L531 324L527 329L518 334L515 330L513 320L509 316L505 314L493 302L483 297L478 298L468 290L468 287L465 286L470 274L470 261L464 250L457 248L442 236L440 235L437 238L430 231L426 231L423 227L419 227L416 224L415 220L402 209L403 208L415 211L421 208L422 206z"/></g></svg>