<svg xmlns="http://www.w3.org/2000/svg" width="999.5" height="600"><g transform="translate(39.5,19.5)" class="gRoot"><g class="x axis" transform="translate(0,540.5)"><g class="tick" transform="translate(95.86363636363645,0)" style="opacity: 1;"><line y2="6" x2="0"/><text dy=".71em" y="9" x="0" style="text-anchor: middle;">50</text></g><g class="tick" transform="translate(225.409090909091,0)" style="opacity: 1;"><line y2="6" x2="0"/><text dy=".71em" y="9" x="0" style="text-anchor: middle;">55</text></g><g class="tick" transform="translate(354.95454545454555,0)" style="opacity: 1;"><line y2="6" x2="0"/><text dy=".71em" y="9" x="0" style="text-anchor: middle;">60</text></g><g class="tick" transform="translate(484.5000000000001,0)" style="opacity: 1;"><line y2="6" x2="0"/><text dy=".71em" y="9" x="0" style="text-anchor: middle;">65</text></g><g class="tick" transform="translate(614.0454545454547,0)" style="opacity: 1;"><line y2="6" x2="0"/><text dy=".71em" y="9" x="0" style="text-anchor: middle;">70</text></g><g class="tick" transform="translate(743.5909090909092,0)" style="opacity: 1;"><line y2="6" x2="0"/><text dy=".71em" y="9" x="0" style="text-anchor: middle;">75</text></g><g class="tick" transform="translate(873.1363636363637,0)" style="opacity: 1;"><line y2="6" x2="0"/><text dy=".71em" y="9" x="0" style="text-anchor: middle;">80</text></g><path class="domain" d="M0,6V0H940.5V6"/></g><g class="y axis"><g class="tick" transform="translate(0,490.4048780487805)" style="opacity: 1;"><line x2="-6" y2="0"/><text dy=".32em" x="-9" y="0" style="text-anchor: end;">2</text></g><g class="tick" transform="translate(0,437.67317073170733)" style="opacity: 1;"><line x2="-6" y2="0"/><text dy=".32em" x="-9" y="0" style="text-anchor: end;">4</text></g><g class="tick" transform="translate(0,384.94146341463414)" style="opacity: 1;"><line x2="-6" y2="0"/><text dy=".32em" x="-9" y="0" style="text-anchor: end;">6</text></g><g class="tick" transform="translate(0,332.20975609756096)" style="opacity: 1;"><line x2="-6" y2="0"/><text dy=".32em" x="-9" y="0" style="text-anchor: end;">8</text></g><g class="tick" transform="translate(0,279.4780487804878)" style="opacity: 1;"><line x2="-6" y2="0"/><text dy=".32em" x="-9" y="0" style="text-anchor: end;">10</text></g><g class="tick" transform="translate(0,226.7463414634146)" style="opacity: 1;"><line x2="-6" y2="0"/><text dy=".32em" x="-9" y="0" style="text-anchor: end;">12</text></g><g class="tick" transform="translate(0,174.01463414634145)" style="opacity: 1;"><line x2="-6" y2="0"/><text dy=".32em" x="-9" y="0" style="text-anchor: end;">14</text></g><g class="tick" transform="translate(0,121.28292682926828)" style="opacity: 1;"><line x2="-6" y2="0"/><text dy=".32em" x="-9" y="0" style="text-anchor: end;">16</text></g><g class="tick" transform="translate(0,68.55121951219519)" style="opacity: 1;"><line x2="-6" y2="0"/><text dy=".32em" x="-9" y="0" style="text-anchor: end;">18</text></g><g class="tick" transform="translate(0,15.819512195121966)" style="opacity: 1;"><line x2="-6" y2="0"/><text dy=".32em" x="-9" y="0" style="text-anchor: end;">20</text></g><path class="domain" d="M-6,0H0V540.5H-6"/></g><text class="x label" text-anchor="end" x="627" y="576.5">Prevalencia de uso de métodos anticonceptivos modernos</text><text class="y label" text-anchor="end" y="-40" x="-100" dy=".75em" transform="rotate(-90)">Proporción de la población con ingresos inferiores a 1.25 dólares diarios</text><text class="year label" text-anchor="end" y="516.5" x="940.5">1992</text><text class="country label" text-anchor="start" y="80" x="40"> </text><g class="dots"><circle class="dot" cx="637.3636363636366" cy="490.4048780487805" r="5" style="fill: rgb(0, 204, 153);"><title>Sinaloa</title></circle><circle class="dot" cx="642.5454545454546" cy="495.6780487804878" r="5" style="fill: rgb(0, 204, 153);"><title>México</title></circle><circle class="dot" cx="624.4090909090911" cy="535.2268292682927" r="5" style="fill: rgb(0, 204, 153);"><title>Sonora</title></circle><circle class="dot" cx="709.9090909090911" cy="495.6780487804878" r="5" style="fill: rgb(0, 204, 153);"><title>Baja California</title></circle><circle class="dot" cx="639.9545454545455" cy="479.85853658536587" r="5" style="fill: rgb(0, 204, 153);"><title>Chihuahua</title></circle><circle class="dot" cx="619.227272727273" cy="493.04146341463417" r="5" style="fill: rgb(0, 204, 153);"><title>Colima</title></circle><circle class="dot" cx="800.5909090909093" cy="487.76829268292687" r="5" style="fill: rgb(0, 204, 153);"><title>Baja California Sur</title></circle><circle class="dot" cx="766.9090909090911" cy="535.2268292682927" r="5" style="fill: rgb(0, 204, 153);"><title>Distrito Federal</title></circle><circle class="dot" cx="621.8181818181819" cy="448.2195121951219" r="5" style="fill: rgb(0, 204, 153);"><title>Nayarit</title></circle><circle class="dot" cx="300.5454545454546" cy="437.67317073170733" r="5" style="fill: rgb(0, 204, 153);"><title>Tlaxcala</title></circle><circle class="dot" cx="318.6818181818183" cy="437.67317073170733" r="5" style="fill: rgb(0, 204, 153);"><title>Durango</title></circle><circle class="dot" cx="704.7272727272729" cy="471.94878048780487" r="5" style="fill: rgb(0, 204, 153);"><title>Coahuila de Zaragoza</title></circle><circle class="dot" cx="531.1363636363636" cy="500.95121951219517" r="5" style="fill: rgb(0, 204, 153);"><title>Tamaulipas</title></circle><circle class="dot" cx="82.90909090909099" cy="387.5780487804878" r="5" style="fill: rgb(0, 204, 153);"><title>Puebla</title></circle><circle class="dot" cx="523.3636363636364" cy="453.4926829268293" r="5" style="fill: rgb(0, 204, 153);"><title>Morelos</title></circle><circle class="dot" cx="753.9545454545457" cy="522.0439024390244" r="5" style="fill: rgb(0, 204, 153);"><title>Nuevo León</title></circle><circle class="dot" cx="344.59090909090924" cy="506.22439024390246" r="5" style="fill: rgb(0, 204, 153);"><title>Jalisco</title></circle><circle class="dot" cx="360.13636363636385" cy="392.8512195121951" r="5" style="fill: rgb(0, 204, 153);"><title>Hidalgo</title></circle><circle class="dot" cx="103.63636363636364" cy="495.6780487804878" r="5" style="fill: rgb(0, 204, 153);"><title>Querétaro</title></circle><circle class="dot" cx="422.318181818182" cy="474.5853658536585" r="5" style="fill: rgb(0, 204, 153);"><title>Quintana Roo</title></circle><circle class="dot" cx="256.50000000000017" cy="498.31463414634146" r="5" style="fill: rgb(0, 204, 153);"><title>Yucatán</title></circle><circle class="dot" cx="290.1818181818183" cy="458.76585365853657" r="5" style="fill: rgb(0, 204, 153);"><title>Aguascalientes</title></circle><circle class="dot" cx="145.09090909090915" cy="416.58048780487803" r="5" style="fill: rgb(0, 204, 153);"><title>San Luis Potosí</title></circle><circle class="dot" cx="533.727272727273" cy="384.94146341463414" r="5" style="fill: rgb(0, 204, 153);"><title>Tabasco</title></circle><circle class="dot" cx="375.68181818181824" cy="448.2195121951219" r="5" style="fill: rgb(0, 204, 153);"><title>Campeche</title></circle><circle class="dot" cx="352.36363636363643" cy="395.4878048780488" r="5" style="fill: rgb(0, 204, 153);"><title>Veracruz de Ignacio de la Llave</title></circle><circle class="dot" cx="287.5909090909091" cy="348.0292682926829" r="5" style="fill: rgb(0, 204, 153);"><title>Zacatecas</title></circle><circle class="dot" cx="246.13636363636368" cy="390.21463414634144" r="5" style="fill: rgb(0, 204, 153);"><title>Michoacán de Ocampo</title></circle><circle class="dot" cx="186.54545454545462" cy="498.31463414634146" r="5" style="fill: rgb(0, 204, 153);"><title>Guanajuato</title></circle><circle class="dot" cx="15.545454545454586" cy="131.8292682926829" r="5" style="fill: rgb(0, 204, 153);"><title>Guerrero</title></circle><circle class="dot" cx="0" cy="242.56585365853655" r="5" style="fill: rgb(0, 204, 153);"><title>Oaxaca</title></circle><circle class="dot" cx="93.27272727272731" cy="84.37073170731715" r="5" style="fill: rgb(0, 204, 153);"><title>Chiapas</title></circle></g></g></svg>