<svg xmlns="http://www.w3.org/2000/svg" class="leaflet-zoom-animated" width="2000" height="799" viewBox="-280 -112 2000 799" style="transform: translate3d(-280px, -112px, 0px);"><g><path stroke-linejoin="round" stroke-linecap="round" fill-rule="evenodd" stroke="#005540" stroke-opacity="1" stroke-width="0.5" fill="#086" fill-opacity="0.5" class="leaflet-clickable" d="M400 197L399 197z"/></g><g><path stroke-linejoin="round" stroke-linecap="round" fill-rule="evenodd" stroke="#005540" stroke-opacity="1" stroke-width="0.5" fill="#086" fill-opacity="0.5" class="leaflet-clickable" d="M408 195L410 201L409 204L405 202L408 199L408 196z"/></g><g><path stroke-linejoin="round" stroke-linecap="round" fill-rule="evenodd" stroke="#005540" stroke-opacity="1" stroke-width="0.5" fill="#086" fill-opacity="0.5" class="leaflet-clickable" d="M461 187L464 189L463 190L462 188z"/></g><g><path stroke-linejoin="round" stroke-linecap="round" fill-rule="evenodd" stroke="#005540" stroke-opacity="1" stroke-width="0.5" fill="#086" fill-opacity="0.5" class="leaflet-clickable" d="M447 176L447 177z"/></g><g><path stroke-linejoin="round" stroke-linecap="round" fill-rule="evenodd" stroke="#005540" stroke-opacity="1" stroke-width="0.5" fill="#086" fill-opacity="0.5" class="leaflet-clickable" d="M447 165L450 167L450 170L452 172L455 171L455 179L445 168L446 165z"/></g><g><path stroke-linejoin="round" stroke-linecap="round" fill-rule="evenodd" stroke="#005540" stroke-opacity="1" stroke-width="0.5" fill="#086" fill-opacity="0.5" class="leaflet-clickable" d="M337 174L339 177L338 182L336 177L337 174z"/></g><g><path stroke-linejoin="round" stroke-linecap="round" fill-rule="evenodd" stroke="#005540" stroke-opacity="1" stroke-width="0.5" fill="#086" fill-opacity="0.5" class="leaflet-clickable" d="M426 153L426 154z"/></g><g><path stroke-linejoin="round" stroke-linecap="round" fill-rule="evenodd" stroke="#005540" stroke-opacity="1" stroke-width="0.5" fill="#086" fill-opacity="0.5" class="leaflet-clickable" d="M419 112L419 112z"/></g><g><path stroke-linejoin="round" stroke-linecap="round" fill-rule="evenodd" stroke="#005540" stroke-opacity="1" stroke-width="0.5" fill="#086" fill-opacity="0.5" class="leaflet-clickable" d="M419 105L421 107L420 108L418 108L418 105z"/></g><g><path stroke-linejoin="round" stroke-linecap="round" fill-rule="evenodd" stroke="#005540" stroke-opacity="1" stroke-width="0.5" fill="#086" fill-opacity="0.5" class="leaflet-clickable" d="M417 86L414 88L412 93L414 95L414 102L417 103L418 105L418 110L416 113L416 123L420 129L420 137L422 142L421 149L427 157L427 159L430 159L444 172L447 182L449 180L451 184L454 184L456 191L462 195L461 197L463 199L463 205L431 205L434 201L433 198L435 194L433 190L428 186L428 184L425 181L423 181L422 177L419 176L419 174L397 159L398 157L395 153L395 146L389 140L390 134L384 127L383 128L382 119L375 112L376 109L374 106L375 107L376 104L370 99L370 96L365 88L365 85L419 80L417 86z"/></g><g><path stroke-linejoin="round" stroke-linecap="round" fill-rule="evenodd" stroke="#005540" stroke-opacity="1" stroke-width="0.5" fill="#086" fill-opacity="0.5" class="leaflet-clickable" d="M419 444L419 444z"/></g><g><path stroke-linejoin="round" stroke-linecap="round" fill-rule="evenodd" stroke="#005540" stroke-opacity="1" stroke-width="0.5" fill="#086" fill-opacity="0.5" class="leaflet-clickable" d="M504 432L506 434L505 435L503 433L504 432z"/></g><g><path stroke-linejoin="round" stroke-linecap="round" fill-rule="evenodd" stroke="#005540" stroke-opacity="1" stroke-width="0.5" fill="#086" fill-opacity="0.5" class="leaflet-clickable" d="M675 429L669 436L655 426L648 424L649 425L652 422L653 423L661 421L660 420L662 416L667 419L671 416L675 420L675 429z"/></g><g><path stroke-linejoin="round" stroke-linecap="round" fill-rule="evenodd" stroke="#005540" stroke-opacity="1" stroke-width="0.5" fill="#086" fill-opacity="0.5" class="leaflet-clickable" d="M508 422L508 421z"/></g><g><path stroke-linejoin="round" stroke-linecap="round" fill-rule="evenodd" stroke="#005540" stroke-opacity="1" stroke-width="0.5" fill="#086" fill-opacity="0.5" class="leaflet-clickable" d="M531 302L529 302L529 297L531 301z"/></g><g><path stroke-linejoin="round" stroke-linecap="round" fill-rule="evenodd" stroke="#005540" stroke-opacity="1" stroke-width="0.5" fill="#086" fill-opacity="0.5" class="leaflet-clickable" d="M519 293L519 296L518 293z"/></g><g><path stroke-linejoin="round" stroke-linecap="round" fill-rule="evenodd" stroke="#005540" stroke-opacity="1" stroke-width="0.5" fill="#086" fill-opacity="0.5" class="leaflet-clickable" d="M518 291L518 292z"/></g><g><path stroke-linejoin="round" stroke-linecap="round" fill-rule="evenodd" stroke="#005540" stroke-opacity="1" stroke-width="0.5" fill="#086" fill-opacity="0.5" class="leaflet-clickable" d="M511 279L514 281L515 284L511 280z"/></g><g><path stroke-linejoin="round" stroke-linecap="round" fill-rule="evenodd" stroke="#005540" stroke-opacity="1" stroke-width="0.5" fill="#086" fill-opacity="0.5" class="leaflet-clickable" d="M511 273L510 275L511 273z"/></g><g><path stroke-linejoin="round" stroke-linecap="round" fill-rule="evenodd" stroke="#005540" stroke-opacity="1" stroke-width="0.5" fill="#086" fill-opacity="0.5" class="leaflet-clickable" d="M509 263L510 266L509 264z"/></g><g><path stroke-linejoin="round" stroke-linecap="round" fill-rule="evenodd" stroke="#005540" stroke-opacity="1" stroke-width="0.5" fill="#086" fill-opacity="0.5" class="leaflet-clickable" d="M503 263L503 265L503 263z"/></g><g><path stroke-linejoin="round" stroke-linecap="round" fill-rule="evenodd" stroke="#005540" stroke-opacity="1" stroke-width="0.5" fill="#086" fill-opacity="0.5" class="leaflet-clickable" d="M503 254L503 256L501 256L499 260L500 261L499 258L500 255L502 255z"/></g><g><path stroke-linejoin="round" stroke-linecap="round" fill-rule="evenodd" stroke="#005540" stroke-opacity="1" stroke-width="0.5" fill="#086" fill-opacity="0.5" class="leaflet-clickable" d="M498 252L498 252z"/></g><g><path stroke-linejoin="round" stroke-linecap="round" fill-rule="evenodd" stroke="#005540" stroke-opacity="1" stroke-width="0.5" fill="#086" fill-opacity="0.5" class="leaflet-clickable" d="M480 224L480 226L479 224z"/></g><g><path stroke-linejoin="round" stroke-linecap="round" fill-rule="evenodd" stroke="#005540" stroke-opacity="1" stroke-width="0.5" fill="#086" fill-opacity="0.5" class="leaflet-clickable" d="M483 219L482 219z"/></g><g><path stroke-linejoin="round" stroke-linecap="round" fill-rule="evenodd" stroke="#005540" stroke-opacity="1" stroke-width="0.5" fill="#086" fill-opacity="0.5" class="leaflet-clickable" d="M409 208L409 208z"/></g><g><path stroke-linejoin="round" stroke-linecap="round" fill-rule="evenodd" stroke="#005540" stroke-opacity="1" stroke-width="0.5" fill="#086" fill-opacity="0.5" class="leaflet-clickable" d="M431 205L464 205L466 212L474 218L477 224L476 225L483 229L481 230L481 232L483 234L485 233L488 235L491 241L494 243L493 244L497 254L497 262L502 268L504 268L505 274L512 285L510 293L513 300L519 302L519 298L522 298L527 302L527 305L531 306L531 308L534 311L534 314L539 317L540 324L536 329L527 334L524 330L522 320L518 316L514 314L502 302L492 297L487 298L477 290L477 287L474 286L479 274L479 261L473 250L466 248L451 236L449 235L446 238L439 231L435 231L432 227L428 227L425 224L424 220L411 209L412 208L424 211L430 208L431 206z"/></g><g><path stroke-linejoin="round" stroke-linecap="round" fill-rule="evenodd" stroke="#005540" stroke-opacity="1" stroke-width="0.5" fill="#086" fill-opacity="0.5" class="leaflet-clickable" d="M778 427L774 427L769 423L774 414L778 421L778 426z"/></g><g><path stroke-linejoin="round" stroke-linecap="round" fill-rule="evenodd" stroke="#005540" stroke-opacity="1" stroke-width="0.5" fill="#086" fill-opacity="0.5" class="leaflet-clickable" d="M613 371L612 371z"/></g><g><path stroke-linejoin="round" stroke-linecap="round" fill-rule="evenodd" stroke="#005540" stroke-opacity="1" stroke-width="0.5" fill="#086" fill-opacity="0.5" class="leaflet-clickable" d="M608 368L610 369L609 370L607 368z"/></g><g><path stroke-linejoin="round" stroke-linecap="round" fill-rule="evenodd" stroke="#005540" stroke-opacity="1" stroke-width="0.5" fill="#086" fill-opacity="0.5" class="leaflet-clickable" d="M603 363L605 363L606 366L604 366L603 364z"/></g><g><path stroke-linejoin="round" stroke-linecap="round" fill-rule="evenodd" stroke="#005540" stroke-opacity="1" stroke-width="0.5" fill="#086" fill-opacity="0.5" class="leaflet-clickable" d="M603 361L602 362z"/></g><g><path stroke-linejoin="round" stroke-linecap="round" fill-rule="evenodd" stroke="#005540" stroke-opacity="1" stroke-width="0.5" fill="#086" fill-opacity="0.5" class="leaflet-clickable" d="M655 346L657 347L655 356L659 356L660 360L664 361L666 363L665 366L670 370L667 373L668 374L658 376L659 381L655 385L658 387L658 389L647 380L638 382L635 388L633 386L628 386L636 376L636 367L635 368L630 364L626 356L626 349L623 343L624 342L624 344L626 341L631 343L629 339L629 333L632 329L633 332L641 332L640 333L643 337L639 339L641 343L645 340L650 344L651 347L655 345z"/></g><g><path stroke-linejoin="round" stroke-linecap="round" fill-rule="evenodd" stroke="#005540" stroke-opacity="1" stroke-width="0.5" fill="#00cc99" fill-opacity="0.5" class="leaflet-clickable" d="M778 427L781 430L785 428L783 434L784 441L783 442L781 440L776 444L770 441L766 436L771 425L778 427z"/></g><g><path stroke-linejoin="round" stroke-linecap="round" fill-rule="evenodd" stroke="#005540" stroke-opacity="1" stroke-width="0.5" fill="#00cc99" fill-opacity="0.5" class="leaflet-clickable" d="M758 211L761 213L756 216L756 218L760 219L762 228L760 233L764 234L762 238L768 241L767 247L771 250L773 249L774 255L777 253L779 257L781 255L787 255L787 269L790 269L780 279L776 278L773 281L773 287L770 286L766 288L765 291L761 292L761 294L763 294L764 296L762 303L767 309L764 312L758 312L755 317L756 322L753 321L751 323L753 323L752 325L749 325L750 323L748 323L747 325L746 324L747 327L744 326L744 313L742 310L743 304L740 302L741 297L736 292L736 285L738 283L736 282L736 277L738 275L749 276L749 274L745 273L740 268L742 268L737 265L734 254L727 247L737 237L739 240L740 239L742 235L742 229L736 229L735 226L739 222L745 220L746 213L750 210L754 214L756 213z"/></g><g><path stroke-linejoin="round" stroke-linecap="round" fill-rule="evenodd" stroke="#005540" stroke-opacity="1" stroke-width="0.5" fill="#00cc99" fill-opacity="0.5" class="leaflet-clickable" d="M800 392L796 397L793 398L797 399L797 401L793 407L795 410L792 411L793 412L791 414L785 414L786 409L783 407L779 407L778 409L777 406L779 404L777 403L777 405L774 404L772 408L770 408L769 410L769 408L766 405L766 400L763 401L758 398L758 391L763 390L765 388L769 379L768 378L776 376L778 372L779 375L785 376L785 372L789 370L788 373L791 376L794 375L793 376L795 376L797 379L794 383L795 385L790 384L787 388L789 387L787 396L792 395L798 389L800 391z"/></g><g><path stroke-linejoin="round" stroke-linecap="round" fill-rule="evenodd" stroke="#005540" stroke-opacity="1" stroke-width="0.5" fill="#00cc99" fill-opacity="0.5" class="leaflet-clickable" d="M776 373L775 376L771 378L770 376L765 386L766 388L758 391L758 398L756 397L756 402L752 404L749 401L749 398L747 398L743 394L741 385L744 382L752 382L753 379L754 380L754 375L760 375L762 373L759 372L761 366L768 370L773 364L775 373z"/></g><g><path stroke-linejoin="round" stroke-linecap="round" fill-rule="evenodd" stroke="#005540" stroke-opacity="1" stroke-width="0.5" fill="#00cc99" fill-opacity="0.5" class="leaflet-clickable" d="M1042 443L1043 440L1043 442z"/></g><g><path stroke-linejoin="round" stroke-linecap="round" fill-rule="evenodd" stroke="#005540" stroke-opacity="1" stroke-width="0.5" fill="#00cc99" fill-opacity="0.5" class="leaflet-clickable" d="M1044 435L1044 437L1044 435z"/></g><g><path stroke-linejoin="round" stroke-linecap="round" fill-rule="evenodd" stroke="#005540" stroke-opacity="1" stroke-width="0.5" fill="#00cc99" fill-opacity="0.5" class="leaflet-clickable" d="M1056 391L1050 398L1050 394L1052 391L1057 390z"/></g><g><path stroke-linejoin="round" stroke-linecap="round" fill-rule="evenodd" stroke="#005540" stroke-opacity="1" stroke-width="0.5" fill="#00cc99" fill-opacity="0.5" class="leaflet-clickable" d="M1001 454L1000 450L1002 449L1002 425L1001 418L998 415L1001 413L1002 414L1002 412L1004 412L1004 410L1009 407L1009 405L1012 404L1013 401L1016 401L1018 398L1024 397L1028 394L1035 386L1038 380L1038 368L1045 370L1048 369L1049 366L1054 373L1054 370L1055 371L1055 379L1052 385L1040 399L1040 409L1039 410L1040 406L1039 409L1033 412L1035 416L1040 413L1041 414L1040 418L1035 420L1035 424L1038 421L1040 421L1038 423L1030 449L1027 449L1027 443L1022 443L1022 441L1016 441L1014 447L1011 449L1008 455L1004 452L1002 454z"/></g><g><path stroke-linejoin="round" stroke-linecap="round" fill-rule="evenodd" stroke="#005540" stroke-opacity="1" stroke-width="0.5" fill="#00cc99" fill-opacity="0.5" class="leaflet-clickable" d="M1048 365L1046 367L1041 368L1043 366L1047 366z"/></g><g><path stroke-linejoin="round" stroke-linecap="round" fill-rule="evenodd" stroke="#005540" stroke-opacity="1" stroke-width="0.5" fill="#00cc99" fill-opacity="0.5" class="leaflet-clickable" d="M1038 368L1038 380L1035 386L1024 398L1018 398L1012 404L1010 404L1009 407L1007 407L1008 408L1002 414L1001 413L998 415L995 413L991 407L991 404L988 400L986 400L982 393L979 394L974 391L973 384L975 379L985 374L1011 370L1015 367L1020 367L1023 365L1038 368z"/></g><g><path stroke-linejoin="round" stroke-linecap="round" fill-rule="evenodd" stroke="#005540" stroke-opacity="1" stroke-width="0.5" fill="#00cc99" fill-opacity="0.5" class="leaflet-clickable" d="M988 341L991 342L992 344L990 346L987 343L988 341z"/></g><g><path stroke-linejoin="round" stroke-linecap="round" fill-rule="evenodd" stroke="#005540" stroke-opacity="1" stroke-width="0.5" fill="#00cc99" fill-opacity="0.5" class="leaflet-clickable" d="M712 355L711 356L713 358L708 359L704 364L700 364L694 361L691 362L689 360L694 352L694 348L700 347L702 345L706 347L705 348L708 348L708 352L712 355z"/></g><g><path stroke-linejoin="round" stroke-linecap="round" fill-rule="evenodd" stroke="#005540" stroke-opacity="1" stroke-width="0.5" fill="#00cc99" fill-opacity="0.5" class="leaflet-clickable" d="M752 325L754 329L752 331L754 335L752 337L757 337L765 341L766 337L774 346L787 346L793 350L787 357L789 357L789 361L785 365L788 368L788 370L784 372L786 372L785 376L781 376L778 372L775 373L773 364L768 370L766 370L762 366L760 366L760 368L757 369L748 363L746 363L744 367L740 368L736 366L733 362L720 360L724 355L724 351L722 348L725 344L723 339L724 338L721 337L719 341L718 340L717 343L714 344L712 342L712 339L710 340L705 335L703 330L704 328L702 325L704 323L702 323L704 320L706 322L714 320L727 308L727 302L730 301L731 296L733 299L738 295L741 296L740 301L743 303L743 326L746 327L746 324L747 325L748 323L750 323L749 325L751 325z"/></g><g><path stroke-linejoin="round" stroke-linecap="round" fill-rule="evenodd" stroke="#005540" stroke-opacity="1" stroke-width="0.5" fill="#00cc99" fill-opacity="0.5" class="leaflet-clickable" d="M960 457L960 470L949 470L950 467L944 465L945 462L941 459L941 455L937 455L930 460L929 459L929 461L927 463L923 463L923 465L920 468L918 466L917 467L918 466L916 464L914 464L912 459L913 456L911 456L912 455L909 453L906 454L906 460L902 464L900 469L898 467L900 463L898 463L894 458L889 456L890 452L888 448L904 442L917 442L920 440L920 438L925 437L928 442L932 442L933 449L936 450L937 452L945 456L945 450L948 448L948 450L954 453L960 453L960 455z"/></g><g><path stroke-linejoin="round" stroke-linecap="round" fill-rule="evenodd" stroke="#005540" stroke-opacity="1" stroke-width="0.5" fill="#00cc99" fill-opacity="0.5" class="leaflet-clickable" d="M973 384L973 391L977 391L978 394L981 393L986 397L985 398L991 404L994 412L1001 418L1001 457L960 457L960 453L950 451L947 449L948 448L945 451L945 455L933 449L933 444L929 442L926 438L929 436L937 436L940 438L957 428L966 420L966 412L972 405L971 391L973 384z"/></g><g><path stroke-linejoin="round" stroke-linecap="round" fill-rule="evenodd" stroke="#005540" stroke-opacity="1" stroke-width="0.5" fill="#7fd" fill-opacity="0.5" class="leaflet-clickable" d="M805 349L807 357L815 366L813 372L814 378L821 392L828 398L835 407L838 419L843 424L843 426L846 427L848 432L853 435L862 435L872 440L879 449L888 447L889 456L897 460L899 463L899 470L897 470L894 473L870 472L871 470L866 467L862 462L864 460L863 459L861 459L855 464L852 464L848 459L850 454L849 449L841 449L842 448L841 449L839 447L834 438L830 437L829 444L827 440L823 439L821 441L818 437L815 436L817 431L816 428L823 422L814 419L815 418L813 416L813 414L816 411L816 407L820 401L813 398L810 402L806 400L807 397L805 395L806 393L807 394L810 392L807 391L805 384L803 384L802 390L800 391L798 388L797 391L792 395L787 396L788 395L786 392L789 390L790 387L788 388L792 383L792 385L794 385L795 380L797 378L793 376L794 375L791 376L788 373L789 370L788 371L785 365L790 361L787 356L789 357L790 353L793 350L785 346L791 346L794 344L800 347L803 351L804 349z"/></g><g><path stroke-linejoin="round" stroke-linecap="round" fill-rule="evenodd" stroke="#005540" stroke-opacity="1" stroke-width="0.5" fill="#7fd" fill-opacity="0.5" class="leaflet-clickable" d="M736 292L738 295L733 299L731 297L730 301L728 302L727 308L722 313L714 320L709 322L706 322L704 320L702 323L704 323L702 325L706 336L710 340L712 339L712 342L714 344L717 343L721 337L724 338L723 339L725 343L723 344L722 348L724 350L724 355L721 359L720 360L719 358L712 355L708 352L708 348L707 349L702 345L700 347L694 348L694 352L689 359L692 363L692 366L695 368L694 371L692 371L688 375L685 374L685 378L683 379L679 379L672 376L670 372L674 371L674 369L670 369L670 367L674 365L675 362L673 360L683 355L685 350L683 348L682 349L680 345L678 347L679 350L677 350L676 353L670 352L673 349L673 344L672 342L670 342L668 343L667 351L665 347L667 343L666 342L669 341L669 339L666 337L662 338L665 343L662 347L662 343L660 343L658 347L656 346L657 338L661 336L659 331L662 319L667 315L668 316L667 306L671 302L673 302L673 299L675 299L677 295L689 295L692 297L697 296L698 291L694 283L694 280L699 281L698 278L707 279L712 281L714 284L718 285L717 286L719 288L725 286L728 288L729 291L733 293L736 292z"/></g><g><path stroke-linejoin="round" stroke-linecap="round" fill-rule="evenodd" stroke="#005540" stroke-opacity="1" stroke-width="0.5" fill="#7fd" fill-opacity="0.5" class="leaflet-clickable" d="M746 397L750 399L749 401L752 404L751 405L753 408L751 408L749 412L750 419L747 420L745 426L739 433L736 432L737 439L740 441L740 444L736 441L733 442L731 440L725 439L721 441L715 438L712 439L711 441L712 446L705 449L705 455L675 445L669 436L675 429L680 428L683 430L686 427L686 425L687 426L687 424L692 422L693 423L695 421L696 417L692 417L693 415L690 410L692 408L691 406L685 405L685 402L688 401L687 400L692 401L698 396L705 395L709 395L708 396L710 396L712 400L716 400L717 397L721 396L721 398L724 399L722 399L722 402L724 404L728 404L728 402L730 402L733 406L743 406L746 405L745 402L747 398z"/></g><g><path stroke-linejoin="round" stroke-linecap="round" fill-rule="evenodd" stroke="#005540" stroke-opacity="1" stroke-width="0.5" fill="#7fd" fill-opacity="0.5" class="leaflet-clickable" d="M760 368L759 371L760 373L762 373L758 376L754 375L755 376L753 382L744 382L741 385L743 393L747 398L745 402L746 405L733 406L730 402L728 402L728 404L724 404L722 402L722 400L724 399L721 398L721 396L719 396L716 399L710 399L710 397L707 394L710 391L707 384L710 382L714 374L717 373L716 370L718 370L717 367L719 363L718 362L720 360L726 360L728 362L730 361L738 367L744 367L745 363L747 363L757 369L759 368z"/></g><g><path stroke-linejoin="round" stroke-linecap="round" fill-rule="evenodd" stroke="#005540" stroke-opacity="1" stroke-width="0.5" fill="#7fd" fill-opacity="0.5" class="leaflet-clickable" d="M766 435L770 441L774 441L776 446L781 450L780 451L783 452L781 452L784 454L790 454L789 460L793 464L793 471L794 470L795 473L799 475L798 480L795 484L796 485L792 487L791 491L787 493L782 487L780 488L770 484L762 484L754 478L730 470L731 469L726 465L722 464L713 455L705 452L706 448L712 445L712 439L714 438L718 438L718 440L720 441L736 441L738 443L739 442L739 444L740 441L738 441L737 439L736 432L739 433L741 431L744 434L743 437L748 444L754 438L758 438L762 434L765 436z"/></g><g><path stroke-linejoin="round" stroke-linecap="round" fill-rule="evenodd" stroke="#005540" stroke-opacity="1" stroke-width="0.5" fill="#ddfff6" fill-opacity="0.5" class="leaflet-clickable" d="M949 470L952 473L953 472L953 474L957 476L956 477L961 481L966 483L967 488L973 491L972 498L943 498L932 518L935 522L932 527L933 531L931 535L903 507L895 501L890 500L888 496L890 495L890 492L888 489L894 473L902 466L902 464L906 460L905 458L908 453L911 455L911 457L913 457L912 459L915 465L916 464L918 466L917 467L918 466L920 468L924 463L929 462L928 461L934 458L934 456L937 454L940 455L940 459L944 460L944 466L949 467L950 470z"/></g><g><path stroke-linejoin="round" stroke-linecap="round" fill-rule="evenodd" stroke="#005540" stroke-opacity="1" stroke-width="0.5" fill="#00cc99" fill-opacity="0.5" class="leaflet-clickable" d="M805 349L803 351L795 344L793 344L792 346L785 345L783 347L776 345L774 346L766 337L765 341L762 339L758 339L757 337L752 337L754 335L752 332L754 330L752 328L753 323L751 323L753 321L756 322L755 317L758 312L764 312L766 309L766 307L762 303L764 296L761 294L761 292L765 291L766 288L770 286L772 287L774 283L773 281L776 278L779 279L790 270L787 269L787 255L781 255L779 257L777 253L774 255L773 249L771 250L767 247L768 241L762 239L764 234L760 233L762 229L760 219L756 218L756 216L761 213L765 216L767 230L771 234L775 246L777 245L779 247L784 248L784 250L790 250L795 255L808 255L813 260L815 259L814 258L819 257L819 263L812 276L807 294L805 336L803 339L804 348z"/></g><g><path stroke-linejoin="round" stroke-linecap="round" fill-rule="evenodd" stroke="#005540" stroke-opacity="1" stroke-width="0.5" fill="#00cc99" fill-opacity="0.5" class="leaflet-clickable" d="M758 211L754 215L750 210L746 213L745 220L739 222L735 226L736 229L742 229L742 235L740 239L739 240L737 237L727 247L736 258L735 261L739 267L742 268L740 268L744 271L744 273L749 273L749 276L738 275L736 277L736 281L738 283L736 285L735 292L733 293L725 286L719 288L717 286L718 285L704 278L698 278L699 281L694 279L689 288L680 282L681 281L675 275L675 273L677 271L678 272L675 268L679 262L678 252L680 249L678 241L670 238L670 236L667 233L669 230L665 210L666 209L664 209L664 206L666 206L666 203L672 192L671 191L679 179L683 180L684 177L688 173L689 174L688 172L690 170L691 164L695 159L699 159L702 156L713 159L721 158L723 162L725 162L725 164L726 163L726 165L739 176L743 188L747 193L746 194L758 210z"/></g><g><path stroke-linejoin="round" stroke-linecap="round" fill-rule="evenodd" stroke="#005540" stroke-opacity="1" stroke-width="0.5" fill="#086" fill-opacity="0.5" class="leaflet-clickable" d="M679 179L671 191L672 192L666 202L666 207L665 206L664 209L666 209L666 223L668 224L669 229L667 234L670 236L670 238L658 235L656 236L657 237L650 247L646 243L640 245L638 243L633 244L632 242L631 243L625 240L624 238L623 239L620 236L619 237L617 234L616 237L614 237L615 238L612 242L612 246L607 253L608 257L605 258L605 264L607 262L603 267L599 267L588 258L589 257L586 252L578 253L576 251L572 245L572 237L569 233L567 233L567 229L561 231L559 230L560 229L559 230L559 227L557 225L559 222L557 219L558 217L556 216L555 212L551 210L553 209L548 202L548 198L561 196L561 192L556 181L557 176L555 174L555 172L557 172L556 168L558 166L557 160L560 159L558 157L558 145L560 146L557 138L553 137L551 133L551 130L554 129L554 126L557 126L555 126L556 125L553 123L554 121L552 121L555 118L568 118L568 106L571 105L608 106L613 113L616 116L618 116L629 128L639 135L641 135L641 137L643 137L644 143L648 148L648 156L651 159L651 161L655 165L659 166L658 167L661 170L668 172L679 179z"/></g><g><path stroke-linejoin="round" stroke-linecap="round" fill-rule="evenodd" stroke="#005540" stroke-opacity="1" stroke-width="0.5" fill="#086" fill-opacity="0.5" class="leaflet-clickable" d="M469 186L468 188L468 186z"/></g><g><path stroke-linejoin="round" stroke-linecap="round" fill-rule="evenodd" stroke="#005540" stroke-opacity="1" stroke-width="0.5" fill="#086" fill-opacity="0.5" class="leaflet-clickable" d="M475 173L477 179L474 186L469 182L470 175L474 173z"/></g><g><path stroke-linejoin="round" stroke-linecap="round" fill-rule="evenodd" stroke="#005540" stroke-opacity="1" stroke-width="0.5" fill="#086" fill-opacity="0.5" class="leaflet-clickable" d="M420 106L422 106L421 107z"/></g><g><path stroke-linejoin="round" stroke-linecap="round" fill-rule="evenodd" stroke="#005540" stroke-opacity="1" stroke-width="0.5" fill="#086" fill-opacity="0.5" class="leaflet-clickable" d="M417 86L497 115L502 118L555 118L554 120L552 120L553 123L556 125L555 126L557 126L554 126L554 129L551 129L551 132L553 135L552 136L559 141L558 144L560 145L558 145L558 158L560 158L560 160L557 160L558 166L556 168L556 182L559 186L561 196L549 198L548 202L552 209L551 210L555 213L557 217L559 222L557 224L560 231L563 231L557 239L557 241L555 241L552 244L552 246L544 248L544 244L542 241L537 238L532 238L528 229L520 227L516 223L513 223L514 209L512 207L511 208L507 206L507 208L505 208L505 206L499 204L493 195L489 193L483 186L484 184L477 180L477 173L475 170L474 171L472 169L473 167L469 162L467 156L464 155L464 148L456 134L457 122L451 119L444 118L444 114L439 110L431 113L422 106L415 103L413 96L414 95L412 93L414 91L414 87L417 87zM508 205L508 206z"/></g><g><path stroke-linejoin="round" stroke-linecap="round" fill-rule="evenodd" stroke="#005540" stroke-opacity="1" stroke-width="0.5" fill="#7fd" fill-opacity="0.5" class="leaflet-clickable" d="M894 473L888 489L890 492L889 496L891 500L885 497L875 495L863 496L858 501L854 501L844 506L843 505L840 508L831 508L822 505L819 502L805 501L795 494L788 493L792 490L791 487L796 485L795 484L798 481L798 477L800 475L795 474L794 470L793 471L793 464L789 460L790 456L794 454L795 455L797 453L801 453L804 455L806 452L805 451L804 453L803 448L808 445L810 452L817 448L822 449L829 443L830 437L836 440L841 449L849 449L850 454L848 459L852 463L855 464L861 459L863 459L864 460L862 462L866 467L871 470L870 471L889 473z"/></g><g><path stroke-linejoin="round" stroke-linecap="round" fill-rule="evenodd" stroke="#005540" stroke-opacity="1" stroke-width="0.5" fill="#00cc99" fill-opacity="0.5" class="leaflet-clickable" d="M829 443L825 447L820 449L817 448L812 452L810 452L808 446L804 446L804 453L806 451L807 452L805 452L802 455L800 453L796 453L796 455L791 456L790 453L786 454L776 446L776 444L779 441L784 442L783 434L786 428L785 417L787 417L796 426L799 423L802 425L804 422L808 421L805 417L802 416L803 415L801 413L799 413L799 411L794 412L795 411L793 408L798 401L796 398L793 398L796 397L802 390L803 384L806 385L806 389L810 392L805 395L807 397L806 400L810 402L813 398L819 401L813 416L815 418L814 419L823 422L821 424L822 425L818 424L815 437L816 436L821 441L825 439L829 443z"/></g><g><path stroke-linejoin="round" stroke-linecap="round" fill-rule="evenodd" stroke="#005540" stroke-opacity="1" stroke-width="0.5" fill="#086" fill-opacity="0.5" class="leaflet-clickable" d="M785 417L784 414L790 414L793 412L792 411L798 411L803 415L803 417L805 417L808 420L807 422L804 421L802 424L799 423L796 426L789 420L788 417L786 418z"/></g><g><path stroke-linejoin="round" stroke-linecap="round" fill-rule="evenodd" stroke="#005540" stroke-opacity="1" stroke-width="0.5" fill="#086" fill-opacity="0.5" class="leaflet-clickable" d="M758 398L763 401L766 400L766 407L769 409L768 410L772 407L772 405L777 405L777 403L778 409L780 407L783 407L786 410L784 414L786 418L786 428L781 430L778 427L778 421L776 419L775 414L769 421L771 425L770 430L767 431L768 433L765 436L761 434L762 435L760 435L758 438L754 438L748 444L744 439L745 438L743 437L744 434L741 431L750 418L748 412L751 411L751 403L755 403L755 399L757 398z"/></g><g><path stroke-linejoin="round" stroke-linecap="round" fill-rule="evenodd" stroke="#005540" stroke-opacity="1" stroke-width="0.5" fill="#00cc99" fill-opacity="0.5" class="leaflet-clickable" d="M692 362L694 361L702 365L712 358L713 357L711 357L713 355L715 355L720 361L718 361L719 362L717 367L719 370L717 370L717 372L714 374L714 376L707 385L710 388L707 394L705 396L699 396L690 402L689 400L685 402L685 405L687 404L692 407L692 409L690 410L693 415L692 416L697 417L694 423L692 422L688 424L683 430L681 428L675 429L675 421L671 416L667 419L662 416L660 421L653 423L652 422L649 425L645 423L645 421L644 422L641 420L639 415L637 415L629 404L625 394L633 392L635 390L634 388L636 385L637 386L639 382L644 380L651 382L658 390L657 385L655 385L659 381L658 376L668 374L667 373L670 370L665 365L666 363L664 361L660 361L659 357L655 355L657 347L659 345L660 346L659 343L662 344L661 347L665 344L662 339L663 337L669 339L669 341L666 342L667 343L665 347L667 351L667 347L670 341L673 343L670 352L671 353L675 353L677 350L679 350L678 347L680 345L682 347L681 348L685 350L683 356L679 356L675 360L673 360L675 362L674 365L670 367L670 369L674 369L675 371L670 373L672 373L673 377L683 379L685 374L688 375L692 371L693 372L695 368L691 365L692 363z"/></g><g><path stroke-linejoin="round" stroke-linecap="round" fill-rule="evenodd" stroke="#005540" stroke-opacity="1" stroke-width="0.5" fill="#086" fill-opacity="0.5" class="leaflet-clickable" d="M670 238L678 241L680 249L678 252L679 261L675 268L679 272L676 272L675 275L681 281L680 282L687 287L689 287L694 279L698 294L697 296L694 297L690 297L689 295L679 295L667 306L668 315L666 315L666 317L663 319L660 326L659 331L661 336L657 337L657 344L652 347L648 342L646 342L646 340L644 340L642 343L640 341L639 339L643 337L640 333L641 332L633 332L631 328L628 329L626 327L624 322L625 321L622 316L620 317L619 308L621 309L619 307L618 302L613 297L610 297L610 299L606 299L602 289L592 280L590 271L592 269L591 268L596 265L595 264L598 267L602 267L607 263L605 264L605 258L608 257L607 254L612 246L614 236L615 237L617 234L619 237L620 236L623 239L624 238L630 243L638 243L639 245L645 243L650 247L658 235L662 237L667 237z"/></g><g><path stroke-linejoin="round" stroke-linecap="round" fill-rule="evenodd" stroke="#005540" stroke-opacity="1" stroke-width="0.5" fill="#086" fill-opacity="0.5" class="leaflet-clickable" d="M544 248L548 248L553 244L554 241L558 239L562 229L568 230L567 233L569 233L572 236L572 245L578 253L587 253L589 256L588 258L594 262L594 264L596 264L593 267L591 267L592 270L590 271L592 275L592 280L594 280L597 286L602 289L605 295L604 296L607 299L610 299L610 297L616 299L618 305L621 308L619 308L620 316L623 317L625 321L624 322L626 324L626 328L632 329L629 333L629 340L630 339L631 342L630 343L626 341L625 344L607 325L606 321L600 315L595 307L577 294L561 274L548 269L545 265L541 265L539 257L544 248z"/></g></svg>