<svg xmlns="http://www.w3.org/2000/svg" class="leaflet-zoom-animated" width="1984" height="620" viewBox="-72 -22 1984 620" style="transform: translate3d(-72px, -22px, 0px);"><g><path stroke-linejoin="round" stroke-linecap="round" fill-rule="evenodd" stroke="#005540" stroke-opacity="1" stroke-width="0.5" fill="#086" fill-opacity="0.5" class="leaflet-clickable" d="M619 444L619 444z"/></g><g><path stroke-linejoin="round" stroke-linecap="round" fill-rule="evenodd" stroke="#005540" stroke-opacity="1" stroke-width="0.5" fill="#086" fill-opacity="0.5" class="leaflet-clickable" d="M704 432L706 434L705 435L703 433L704 432z"/></g><g><path stroke-linejoin="round" stroke-linecap="round" fill-rule="evenodd" stroke="#005540" stroke-opacity="1" stroke-width="0.5" fill="#086" fill-opacity="0.5" class="leaflet-clickable" d="M875 429L869 436L855 426L848 424L849 425L852 422L853 423L861 421L860 420L862 416L867 419L871 416L875 420L875 429z"/></g><g><path stroke-linejoin="round" stroke-linecap="round" fill-rule="evenodd" stroke="#005540" stroke-opacity="1" stroke-width="0.5" fill="#086" fill-opacity="0.5" class="leaflet-clickable" d="M708 422L708 421z"/></g><g><path stroke-linejoin="round" stroke-linecap="round" fill-rule="evenodd" stroke="#005540" stroke-opacity="1" stroke-width="0.5" fill="#086" fill-opacity="0.5" class="leaflet-clickable" d="M978 427L974 427L969 423L974 414L978 421L978 426z"/></g><g><path stroke-linejoin="round" stroke-linecap="round" fill-rule="evenodd" stroke="#005540" stroke-opacity="1" stroke-width="0.5" fill="#086" fill-opacity="0.5" class="leaflet-clickable" d="M985 417L984 414L990 414L993 412L992 411L998 411L1003 415L1003 417L1005 417L1008 420L1007 422L1004 421L1002 424L999 423L996 426L989 420L988 417L986 418z"/></g><g><path stroke-linejoin="round" stroke-linecap="round" fill-rule="evenodd" stroke="#005540" stroke-opacity="1" stroke-width="0.5" fill="#00cc99" fill-opacity="0.5" class="leaflet-clickable" d="M1000 392L996 397L993 398L997 399L997 401L993 407L995 410L992 411L993 412L991 414L985 414L986 409L983 407L979 407L978 409L977 406L979 404L977 403L977 405L974 404L972 408L970 408L969 410L969 408L966 405L966 400L963 401L958 398L958 391L963 390L965 388L969 379L968 378L976 376L978 372L979 375L985 376L985 372L989 370L988 373L991 376L994 375L993 376L995 376L997 379L994 383L995 385L990 384L987 388L989 387L987 396L992 395L998 389L1000 391z"/></g><g><path stroke-linejoin="round" stroke-linecap="round" fill-rule="evenodd" stroke="#005540" stroke-opacity="1" stroke-width="0.5" fill="#00cc99" fill-opacity="0.5" class="leaflet-clickable" d="M1242 443L1243 440L1243 442z"/></g><g><path stroke-linejoin="round" stroke-linecap="round" fill-rule="evenodd" stroke="#005540" stroke-opacity="1" stroke-width="0.5" fill="#00cc99" fill-opacity="0.5" class="leaflet-clickable" d="M1244 435L1244 437L1244 435z"/></g><g><path stroke-linejoin="round" stroke-linecap="round" fill-rule="evenodd" stroke="#005540" stroke-opacity="1" stroke-width="0.5" fill="#00cc99" fill-opacity="0.5" class="leaflet-clickable" d="M1256 391L1250 398L1250 394L1252 391L1257 390z"/></g><g><path stroke-linejoin="round" stroke-linecap="round" fill-rule="evenodd" stroke="#005540" stroke-opacity="1" stroke-width="0.5" fill="#00cc99" fill-opacity="0.5" class="leaflet-clickable" d="M1201 454L1200 450L1202 449L1202 425L1201 418L1198 415L1201 413L1202 414L1202 412L1204 412L1204 410L1209 407L1209 405L1212 404L1213 401L1216 401L1218 398L1224 397L1228 394L1235 386L1238 380L1238 368L1245 370L1248 369L1249 366L1254 373L1254 370L1255 371L1255 379L1252 385L1240 399L1240 409L1239 410L1240 406L1239 409L1233 412L1235 416L1240 413L1241 414L1240 418L1235 420L1235 424L1238 421L1240 421L1238 423L1230 449L1227 449L1227 443L1222 443L1222 441L1216 441L1214 447L1211 449L1208 455L1204 452L1202 454z"/></g><g><path stroke-linejoin="round" stroke-linecap="round" fill-rule="evenodd" stroke="#005540" stroke-opacity="1" stroke-width="0.5" fill="#00cc99" fill-opacity="0.5" class="leaflet-clickable" d="M1248 365L1246 367L1241 368L1243 366L1247 366z"/></g><g><path stroke-linejoin="round" stroke-linecap="round" fill-rule="evenodd" stroke="#005540" stroke-opacity="1" stroke-width="0.5" fill="#00cc99" fill-opacity="0.5" class="leaflet-clickable" d="M1238 368L1238 380L1235 386L1224 398L1218 398L1212 404L1210 404L1209 407L1207 407L1208 408L1202 414L1201 413L1198 415L1195 413L1191 407L1191 404L1188 400L1186 400L1182 393L1179 394L1174 391L1173 384L1175 379L1185 374L1211 370L1215 367L1220 367L1223 365L1238 368z"/></g><g><path stroke-linejoin="round" stroke-linecap="round" fill-rule="evenodd" stroke="#005540" stroke-opacity="1" stroke-width="0.5" fill="#00cc99" fill-opacity="0.5" class="leaflet-clickable" d="M1188 341L1192 344L1190 346L1187 343L1188 341z"/></g><g><path stroke-linejoin="round" stroke-linecap="round" fill-rule="evenodd" stroke="#005540" stroke-opacity="1" stroke-width="0.5" fill="#00cc99" fill-opacity="0.5" class="leaflet-clickable" d="M912 355L911 356L913 358L908 359L904 364L900 364L894 361L891 362L889 360L894 352L894 348L900 347L902 345L906 347L905 348L908 348L908 352L912 355z"/></g><g><path stroke-linejoin="round" stroke-linecap="round" fill-rule="evenodd" stroke="#005540" stroke-opacity="1" stroke-width="0.5" fill="#00cc99" fill-opacity="0.5" class="leaflet-clickable" d="M1160 457L1160 470L1149 470L1150 467L1144 465L1145 462L1141 459L1141 455L1137 455L1130 460L1129 459L1129 461L1127 463L1123 463L1123 465L1120 468L1118 466L1117 467L1118 466L1116 464L1114 464L1112 459L1113 456L1111 456L1112 455L1109 453L1106 454L1106 460L1102 464L1100 469L1098 467L1100 463L1098 463L1094 458L1089 456L1090 452L1088 448L1104 442L1117 442L1120 440L1120 438L1125 437L1128 442L1132 442L1133 449L1137 452L1145 456L1145 450L1148 448L1148 450L1154 453L1160 453L1160 455z"/></g><g><path stroke-linejoin="round" stroke-linecap="round" fill-rule="evenodd" stroke="#005540" stroke-opacity="1" stroke-width="0.5" fill="#00cc99" fill-opacity="0.5" class="leaflet-clickable" d="M1173 384L1173 391L1177 391L1178 394L1181 393L1186 397L1185 398L1191 404L1194 412L1201 418L1201 457L1160 457L1160 453L1150 451L1147 449L1148 448L1145 451L1145 455L1133 449L1133 444L1129 442L1126 438L1129 436L1137 436L1140 438L1157 428L1166 420L1166 412L1172 405L1171 391L1173 384z"/></g><g><path stroke-linejoin="round" stroke-linecap="round" fill-rule="evenodd" stroke="#005540" stroke-opacity="1" stroke-width="0.5" fill="#ddfff6" fill-opacity="0.5" class="leaflet-clickable" d="M1149 470L1152 473L1153 472L1153 474L1157 476L1156 477L1161 481L1166 483L1167 488L1173 491L1172 498L1143 498L1132 518L1135 522L1132 527L1133 531L1131 535L1103 507L1095 501L1090 500L1088 496L1090 495L1090 492L1088 489L1094 473L1102 466L1102 464L1106 460L1105 458L1108 453L1111 455L1111 457L1113 457L1112 459L1115 465L1116 464L1118 466L1117 467L1118 466L1120 468L1124 463L1129 462L1128 461L1134 458L1134 456L1137 454L1140 455L1140 459L1144 460L1144 466L1149 467L1150 470z"/></g><g><path stroke-linejoin="round" stroke-linecap="round" fill-rule="evenodd" stroke="#005540" stroke-opacity="1" stroke-width="0.5" fill="#086" fill-opacity="0.5" class="leaflet-clickable" d="M744 248L748 248L753 244L754 241L758 239L762 229L768 230L767 233L769 233L772 236L772 245L778 253L787 253L789 256L788 258L794 262L794 264L796 264L793 267L791 267L792 270L790 271L792 275L792 280L794 280L797 286L802 289L805 295L804 296L807 299L810 299L810 297L816 299L818 305L821 308L819 308L820 316L823 317L825 321L824 322L826 324L826 328L832 329L829 333L829 340L830 339L831 342L830 343L826 341L825 344L807 325L806 321L800 315L795 307L777 294L761 274L748 269L745 265L741 265L739 257L744 248z"/></g><g><path stroke-linejoin="round" stroke-linecap="round" fill-rule="evenodd" stroke="#005540" stroke-opacity="1" stroke-width="0.5" fill="#7fd" fill-opacity="0.5" class="leaflet-clickable" d="M936 292L938 295L933 299L931 297L930 301L928 302L927 308L922 313L914 320L909 322L906 322L904 320L902 323L904 323L902 325L906 336L910 340L912 339L912 342L914 344L917 343L921 337L924 338L923 339L925 343L923 344L922 348L924 350L924 355L921 359L920 360L919 358L912 355L908 352L908 348L907 349L902 345L900 347L894 348L894 352L889 359L892 363L892 366L895 368L894 371L892 371L888 375L885 374L885 378L883 379L879 379L872 376L870 372L874 371L874 369L870 369L870 367L874 365L875 362L873 360L883 355L885 350L883 348L882 349L880 345L878 347L879 350L877 350L876 353L870 352L873 349L873 344L872 342L870 342L868 343L867 351L865 347L867 343L866 342L869 341L869 339L866 337L862 338L865 343L862 347L862 343L860 343L858 347L856 346L857 338L861 336L859 331L862 319L867 315L868 316L867 306L871 302L873 302L873 299L875 299L877 295L889 295L892 297L897 296L898 291L894 283L894 280L899 281L898 278L907 279L912 281L914 284L918 285L917 286L919 288L925 286L928 288L929 291L933 293L936 292z"/></g><g><path stroke-linejoin="round" stroke-linecap="round" fill-rule="evenodd" stroke="#005540" stroke-opacity="1" stroke-width="0.5" fill="#00cc99" fill-opacity="0.5" class="leaflet-clickable" d="M976 373L975 376L971 378L970 376L965 386L966 388L958 391L958 398L956 397L956 402L952 404L949 401L949 398L947 398L943 394L941 385L944 382L952 382L953 379L954 380L954 375L960 375L962 373L959 372L961 366L968 370L973 364L975 373z"/></g><g><path stroke-linejoin="round" stroke-linecap="round" fill-rule="evenodd" stroke="#005540" stroke-opacity="1" stroke-width="0.5" fill="#00cc99" fill-opacity="0.5" class="leaflet-clickable" d="M952 325L954 329L952 331L954 335L952 337L957 337L965 341L966 337L974 346L987 346L993 350L987 357L989 357L989 361L985 365L988 368L988 370L984 372L986 372L985 376L981 376L978 372L975 373L973 364L968 370L966 370L962 366L960 366L960 368L957 369L948 363L946 363L944 367L940 368L936 366L933 362L920 360L924 355L924 351L922 348L925 344L923 339L924 338L921 337L919 341L918 340L917 343L914 344L912 342L912 339L910 340L905 335L903 330L904 328L902 325L904 323L902 323L904 320L906 322L914 320L927 308L927 302L930 301L931 296L933 299L938 295L941 296L940 301L943 303L943 326L946 327L946 324L947 325L948 323L950 323L949 325L951 325z"/></g><g><path stroke-linejoin="round" stroke-linecap="round" fill-rule="evenodd" stroke="#005540" stroke-opacity="1" stroke-width="0.5" fill="#00cc99" fill-opacity="0.5" class="leaflet-clickable" d="M1005 349L1003 351L995 344L993 344L992 346L985 345L983 347L976 345L974 346L966 337L965 341L962 339L958 339L957 337L952 337L954 335L952 332L954 330L952 328L953 323L951 323L953 321L956 322L955 317L958 312L964 312L966 309L966 307L962 303L964 296L961 294L961 292L965 291L966 288L970 286L972 287L974 283L973 281L976 278L979 279L990 270L987 269L987 255L981 255L979 257L977 253L974 255L973 249L971 250L967 247L968 241L962 239L964 234L960 233L962 229L960 219L956 218L956 216L961 213L965 216L967 230L971 234L975 246L977 245L979 247L984 248L984 250L990 250L995 255L1008 255L1013 260L1015 259L1014 258L1019 257L1019 263L1012 276L1007 294L1005 336L1003 339L1004 348z"/></g><g><path stroke-linejoin="round" stroke-linecap="round" fill-rule="evenodd" stroke="#005540" stroke-opacity="1" stroke-width="0.5" fill="#00cc99" fill-opacity="0.5" class="leaflet-clickable" d="M958 211L961 213L956 216L956 218L960 219L962 228L960 233L964 234L962 238L968 241L967 247L971 250L973 249L974 255L977 253L979 257L981 255L987 255L987 269L990 269L980 279L976 278L973 281L973 287L970 286L966 288L965 291L961 292L961 294L963 294L964 296L962 303L967 309L964 312L958 312L955 317L956 322L953 321L951 323L953 323L952 325L949 325L950 323L948 323L947 325L946 324L947 327L944 326L944 313L942 310L943 304L940 302L941 297L936 292L936 285L938 283L936 282L936 277L938 275L949 276L949 274L945 273L940 268L942 268L937 265L934 254L927 247L937 237L939 240L940 239L942 235L942 229L936 229L935 226L939 222L945 220L946 213L950 210L954 214L956 213z"/></g><g><path stroke-linejoin="round" stroke-linecap="round" fill-rule="evenodd" stroke="#005540" stroke-opacity="1" stroke-width="0.5" fill="#086" fill-opacity="0.5" class="leaflet-clickable" d="M870 238L878 241L880 249L878 252L879 261L875 268L879 272L876 272L875 275L881 281L880 282L887 287L889 287L894 279L898 294L897 296L894 297L890 297L889 295L879 295L867 306L868 315L866 315L866 317L863 319L860 326L859 331L861 336L857 337L857 344L852 347L848 342L846 342L846 340L844 340L842 343L840 341L839 339L843 337L840 333L841 332L833 332L831 328L828 329L826 327L824 322L825 321L822 316L820 317L819 308L821 309L819 307L818 302L813 297L810 297L810 299L806 299L802 289L792 280L790 271L792 269L791 268L796 265L795 264L798 267L802 267L807 263L805 264L805 258L808 257L807 254L812 246L814 236L815 237L817 234L819 237L820 236L823 239L824 238L830 243L838 243L839 245L845 243L850 247L858 235L862 237L867 237z"/></g><g><path stroke-linejoin="round" stroke-linecap="round" fill-rule="evenodd" stroke="#005540" stroke-opacity="1" stroke-width="0.5" fill="#086" fill-opacity="0.5" class="leaflet-clickable" d="M731 302L729 302L729 297L731 301z"/></g><g><path stroke-linejoin="round" stroke-linecap="round" fill-rule="evenodd" stroke="#005540" stroke-opacity="1" stroke-width="0.5" fill="#086" fill-opacity="0.5" class="leaflet-clickable" d="M719 293L719 296L718 293z"/></g><g><path stroke-linejoin="round" stroke-linecap="round" fill-rule="evenodd" stroke="#005540" stroke-opacity="1" stroke-width="0.5" fill="#086" fill-opacity="0.5" class="leaflet-clickable" d="M718 291L718 292z"/></g><g><path stroke-linejoin="round" stroke-linecap="round" fill-rule="evenodd" stroke="#005540" stroke-opacity="1" stroke-width="0.5" fill="#086" fill-opacity="0.5" class="leaflet-clickable" d="M711 279L714 281L715 284L711 280z"/></g><g><path stroke-linejoin="round" stroke-linecap="round" fill-rule="evenodd" stroke="#005540" stroke-opacity="1" stroke-width="0.5" fill="#086" fill-opacity="0.5" class="leaflet-clickable" d="M711 273L710 275L711 273z"/></g><g><path stroke-linejoin="round" stroke-linecap="round" fill-rule="evenodd" stroke="#005540" stroke-opacity="1" stroke-width="0.5" fill="#086" fill-opacity="0.5" class="leaflet-clickable" d="M709 263L710 266L709 264z"/></g><g><path stroke-linejoin="round" stroke-linecap="round" fill-rule="evenodd" stroke="#005540" stroke-opacity="1" stroke-width="0.5" fill="#086" fill-opacity="0.5" class="leaflet-clickable" d="M703 263L703 265L703 263z"/></g><g><path stroke-linejoin="round" stroke-linecap="round" fill-rule="evenodd" stroke="#005540" stroke-opacity="1" stroke-width="0.5" fill="#086" fill-opacity="0.5" class="leaflet-clickable" d="M703 254L703 256L701 256L699 260L700 261L699 258L700 255L702 255z"/></g><g><path stroke-linejoin="round" stroke-linecap="round" fill-rule="evenodd" stroke="#005540" stroke-opacity="1" stroke-width="0.5" fill="#086" fill-opacity="0.5" class="leaflet-clickable" d="M698 252L698 252z"/></g><g><path stroke-linejoin="round" stroke-linecap="round" fill-rule="evenodd" stroke="#005540" stroke-opacity="1" stroke-width="0.5" fill="#086" fill-opacity="0.5" class="leaflet-clickable" d="M680 224L680 226L679 224z"/></g><g><path stroke-linejoin="round" stroke-linecap="round" fill-rule="evenodd" stroke="#005540" stroke-opacity="1" stroke-width="0.5" fill="#086" fill-opacity="0.5" class="leaflet-clickable" d="M683 219L682 219z"/></g><g><path stroke-linejoin="round" stroke-linecap="round" fill-rule="evenodd" stroke="#005540" stroke-opacity="1" stroke-width="0.5" fill="#086" fill-opacity="0.5" class="leaflet-clickable" d="M609 208L609 208z"/></g><g><path stroke-linejoin="round" stroke-linecap="round" fill-rule="evenodd" stroke="#005540" stroke-opacity="1" stroke-width="0.5" fill="#086" fill-opacity="0.5" class="leaflet-clickable" d="M631 205L664 205L666 212L674 218L677 224L676 225L683 229L681 230L681 232L683 234L685 233L688 235L691 241L694 243L693 244L697 254L697 262L702 268L704 268L705 274L712 285L710 293L713 300L719 302L719 298L722 298L727 302L727 305L731 306L731 308L734 311L734 314L739 317L740 324L736 329L727 334L724 330L722 320L718 316L714 314L702 302L692 297L687 298L677 290L677 287L674 286L679 274L679 261L673 250L666 248L651 236L649 235L646 238L639 231L635 231L632 227L628 227L625 224L624 220L611 209L612 208L624 211L630 208L631 206z"/></g><g><path stroke-linejoin="round" stroke-linecap="round" fill-rule="evenodd" stroke="#005540" stroke-opacity="1" stroke-width="0.5" fill="#086" fill-opacity="0.5" class="leaflet-clickable" d="M813 371L812 371z"/></g><g><path stroke-linejoin="round" stroke-linecap="round" fill-rule="evenodd" stroke="#005540" stroke-opacity="1" stroke-width="0.5" fill="#086" fill-opacity="0.5" class="leaflet-clickable" d="M808 368L810 369L809 370L807 368z"/></g><g><path stroke-linejoin="round" stroke-linecap="round" fill-rule="evenodd" stroke="#005540" stroke-opacity="1" stroke-width="0.5" fill="#086" fill-opacity="0.5" class="leaflet-clickable" d="M803 363L805 363L806 366L804 366L803 364z"/></g><g><path stroke-linejoin="round" stroke-linecap="round" fill-rule="evenodd" stroke="#005540" stroke-opacity="1" stroke-width="0.5" fill="#086" fill-opacity="0.5" class="leaflet-clickable" d="M803 361L802 362z"/></g><g><path stroke-linejoin="round" stroke-linecap="round" fill-rule="evenodd" stroke="#005540" stroke-opacity="1" stroke-width="0.5" fill="#086" fill-opacity="0.5" class="leaflet-clickable" d="M855 346L857 347L855 356L859 356L860 360L864 361L866 363L865 366L870 370L867 373L868 374L858 376L859 381L855 385L858 387L858 389L847 380L838 382L835 388L833 386L828 386L836 376L836 367L835 368L830 364L826 356L826 349L823 343L824 342L824 344L826 341L831 343L829 339L829 333L832 329L833 332L841 332L840 333L843 337L839 339L841 343L845 340L850 344L851 347L855 345z"/></g><g><path stroke-linejoin="round" stroke-linecap="round" fill-rule="evenodd" stroke="#005540" stroke-opacity="1" stroke-width="0.5" fill="#00cc99" fill-opacity="0.5" class="leaflet-clickable" d="M892 362L894 361L902 365L912 358L913 357L911 357L913 355L915 355L920 361L918 361L919 362L917 367L919 370L917 370L917 372L914 374L914 376L907 385L910 388L907 394L905 396L899 396L890 402L889 400L885 402L885 405L887 404L892 407L892 409L890 410L893 415L892 416L897 417L894 423L892 422L888 424L883 430L881 428L875 429L875 421L871 416L867 419L862 416L860 421L853 423L852 422L849 425L845 423L845 421L844 422L841 420L839 415L837 415L829 404L825 394L833 392L835 390L834 388L836 385L837 386L839 382L844 380L851 382L858 390L857 385L855 385L859 381L858 376L868 374L867 373L870 370L865 365L866 363L864 361L860 361L859 357L855 355L857 347L859 345L860 346L859 343L862 344L861 347L865 344L862 339L863 337L869 339L869 341L866 342L867 343L865 347L867 351L867 347L870 341L873 343L870 352L871 353L875 353L877 350L879 350L878 347L880 345L882 347L881 348L885 350L883 356L879 356L875 360L873 360L875 362L874 365L870 367L870 369L874 369L875 371L870 373L872 373L873 377L883 379L885 374L888 375L892 371L893 372L895 368L891 365L892 363z"/></g><g><path stroke-linejoin="round" stroke-linecap="round" fill-rule="evenodd" stroke="#005540" stroke-opacity="1" stroke-width="0.5" fill="#00cc99" fill-opacity="0.5" class="leaflet-clickable" d="M978 427L981 430L985 428L983 434L984 441L983 442L981 440L976 444L970 441L966 436L971 425L978 427z"/></g><g><path stroke-linejoin="round" stroke-linecap="round" fill-rule="evenodd" stroke="#005540" stroke-opacity="1" stroke-width="0.5" fill="#00cc99" fill-opacity="0.5" class="leaflet-clickable" d="M1029 443L1025 447L1020 449L1017 448L1012 452L1010 452L1008 446L1004 446L1004 453L1006 451L1007 452L1005 452L1002 455L1000 453L996 453L996 455L991 456L990 453L986 454L976 446L976 444L979 441L984 442L983 434L986 428L985 417L987 417L996 426L999 423L1002 425L1004 422L1008 421L1005 417L1002 416L1003 415L1001 413L999 413L999 411L994 412L995 411L993 408L998 401L996 398L993 398L996 397L1002 390L1003 384L1006 385L1006 389L1010 392L1005 395L1007 397L1006 400L1010 402L1013 398L1019 401L1013 416L1015 418L1014 419L1023 422L1021 424L1022 425L1018 424L1015 437L1016 436L1021 441L1025 439L1029 443z"/></g><g><path stroke-linejoin="round" stroke-linecap="round" fill-rule="evenodd" stroke="#005540" stroke-opacity="1" stroke-width="0.5" fill="#7fd" fill-opacity="0.5" class="leaflet-clickable" d="M960 368L959 371L960 373L962 373L958 376L954 375L955 376L953 382L944 382L941 385L943 393L947 398L945 402L946 405L933 406L930 402L928 402L928 404L924 404L922 402L922 400L924 399L921 398L921 396L919 396L916 399L910 399L910 397L907 394L910 391L907 384L910 382L914 374L917 373L916 370L918 370L917 367L919 363L918 362L920 360L926 360L928 362L930 361L938 367L944 367L945 363L947 363L957 369L959 368z"/></g><g><path stroke-linejoin="round" stroke-linecap="round" fill-rule="evenodd" stroke="#005540" stroke-opacity="1" stroke-width="0.5" fill="#7fd" fill-opacity="0.5" class="leaflet-clickable" d="M946 397L950 399L949 401L952 404L951 405L953 408L951 408L949 412L950 419L947 420L945 426L939 433L936 432L937 439L940 441L940 444L936 441L933 442L931 440L925 439L921 441L915 438L912 439L911 441L912 446L905 449L905 455L875 445L869 436L875 429L880 428L883 430L886 427L886 425L887 426L887 424L892 422L893 423L895 421L896 417L892 417L893 415L890 410L892 408L891 406L885 405L885 402L888 401L887 400L892 401L898 396L905 395L909 395L908 396L910 396L912 400L916 400L917 397L921 396L921 398L924 399L922 399L922 402L924 404L928 404L928 402L930 402L933 406L943 406L946 405L945 402L947 398z"/></g><g><path stroke-linejoin="round" stroke-linecap="round" fill-rule="evenodd" stroke="#005540" stroke-opacity="1" stroke-width="0.5" fill="#086" fill-opacity="0.5" class="leaflet-clickable" d="M958 398L963 401L966 400L966 407L969 409L968 410L972 407L972 405L977 405L977 403L978 409L980 407L983 407L986 410L984 414L986 418L986 428L981 430L978 427L978 421L976 419L975 414L969 421L971 425L970 430L967 431L968 433L965 436L961 434L962 435L960 435L958 438L954 438L948 444L944 439L945 438L943 437L944 434L941 431L950 418L948 412L951 411L951 403L955 403L955 399L957 398z"/></g><g><path stroke-linejoin="round" stroke-linecap="round" fill-rule="evenodd" stroke="#005540" stroke-opacity="1" stroke-width="0.5" fill="#7fd" fill-opacity="0.5" class="leaflet-clickable" d="M966 435L970 441L974 441L976 446L981 450L980 451L983 452L981 452L984 454L990 454L989 460L993 464L993 471L994 470L995 473L999 475L998 480L995 484L996 485L992 487L991 491L987 493L982 487L980 488L970 484L962 484L954 478L930 470L931 469L926 465L922 464L913 455L905 452L906 448L912 445L912 439L914 438L918 438L918 440L920 441L936 441L938 443L939 442L939 444L940 441L938 441L937 439L936 432L939 433L941 431L944 434L943 437L948 444L954 438L958 438L962 434L965 436z"/></g><g><path stroke-linejoin="round" stroke-linecap="round" fill-rule="evenodd" stroke="#005540" stroke-opacity="1" stroke-width="0.5" fill="#7fd" fill-opacity="0.5" class="leaflet-clickable" d="M1094 473L1088 489L1090 492L1089 496L1091 500L1085 497L1075 495L1063 496L1058 501L1054 501L1044 506L1043 505L1040 508L1031 508L1022 505L1019 502L1005 501L995 494L988 493L992 490L991 487L996 485L995 484L998 481L998 477L1000 475L995 474L994 470L993 471L993 464L989 460L990 456L994 454L995 455L997 453L1001 453L1004 455L1006 452L1005 451L1004 453L1003 448L1008 445L1010 452L1017 448L1022 449L1029 443L1030 437L1036 440L1041 449L1049 449L1050 454L1048 459L1052 463L1055 464L1061 459L1063 459L1064 460L1062 462L1066 467L1071 470L1070 471L1089 473z"/></g><g><path stroke-linejoin="round" stroke-linecap="round" fill-rule="evenodd" stroke="#005540" stroke-opacity="1" stroke-width="0.5" fill="#7fd" fill-opacity="0.5" class="leaflet-clickable" d="M1005 349L1007 357L1015 366L1013 372L1014 378L1021 392L1028 398L1035 407L1038 419L1043 424L1043 426L1046 427L1048 432L1053 435L1062 435L1072 440L1079 449L1088 447L1089 456L1097 460L1099 463L1099 470L1097 470L1094 473L1070 472L1071 470L1066 467L1062 462L1064 460L1063 459L1061 459L1055 464L1052 464L1048 459L1050 454L1049 449L1041 449L1042 448L1041 449L1039 447L1034 438L1030 437L1029 444L1027 440L1023 439L1021 441L1018 437L1015 436L1017 431L1016 428L1023 422L1014 419L1015 418L1013 416L1013 414L1016 411L1016 407L1020 401L1013 398L1010 402L1006 400L1007 397L1005 395L1006 393L1007 394L1010 392L1007 391L1005 384L1003 384L1002 390L1000 391L998 388L997 391L992 395L987 396L988 395L986 392L989 390L990 387L988 388L992 383L992 385L994 385L995 380L997 378L993 376L994 375L991 376L988 373L989 370L988 371L985 365L990 361L987 356L989 357L990 353L993 350L985 346L991 346L994 344L1000 347L1003 351L1004 349z"/></g><g><path stroke-linejoin="round" stroke-linecap="round" fill-rule="evenodd" stroke="#005540" stroke-opacity="1" stroke-width="0.5" fill="#086" fill-opacity="0.5" class="leaflet-clickable" d="M669 186L668 188L668 186z"/></g><g><path stroke-linejoin="round" stroke-linecap="round" fill-rule="evenodd" stroke="#005540" stroke-opacity="1" stroke-width="0.5" fill="#086" fill-opacity="0.5" class="leaflet-clickable" d="M675 173L677 179L674 186L669 182L670 175L674 173z"/></g><g><path stroke-linejoin="round" stroke-linecap="round" fill-rule="evenodd" stroke="#005540" stroke-opacity="1" stroke-width="0.5" fill="#086" fill-opacity="0.5" class="leaflet-clickable" d="M620 106L622 106L621 107z"/></g><g><path stroke-linejoin="round" stroke-linecap="round" fill-rule="evenodd" stroke="#005540" stroke-opacity="1" stroke-width="0.5" fill="#086" fill-opacity="0.5" class="leaflet-clickable" d="M617 86L697 115L702 118L755 118L754 120L752 120L753 123L756 125L755 126L757 126L754 126L754 129L751 129L751 132L753 135L752 136L759 141L758 144L760 145L758 145L758 158L760 158L760 160L757 160L758 166L756 168L756 182L759 186L761 196L749 198L748 202L752 209L751 210L755 213L757 217L759 222L757 224L760 231L763 231L757 239L757 241L755 241L752 244L752 246L744 248L744 244L742 241L737 238L732 238L728 229L720 227L716 223L713 223L714 209L712 207L711 208L707 206L707 208L705 208L705 206L699 204L693 195L689 193L683 186L684 184L677 180L677 173L675 170L674 171L672 169L673 167L669 162L667 156L664 155L664 148L656 134L657 122L651 119L644 118L644 114L639 110L631 113L622 106L615 103L613 96L614 95L612 93L614 91L614 87L617 87zM708 205L708 206z"/></g><g><path stroke-linejoin="round" stroke-linecap="round" fill-rule="evenodd" stroke="#005540" stroke-opacity="1" stroke-width="0.5" fill="#086" fill-opacity="0.5" class="leaflet-clickable" d="M600 197L599 197z"/></g><g><path stroke-linejoin="round" stroke-linecap="round" fill-rule="evenodd" stroke="#005540" stroke-opacity="1" stroke-width="0.5" fill="#086" fill-opacity="0.5" class="leaflet-clickable" d="M608 195L610 201L609 204L605 202L608 199L608 196z"/></g><g><path stroke-linejoin="round" stroke-linecap="round" fill-rule="evenodd" stroke="#005540" stroke-opacity="1" stroke-width="0.5" fill="#086" fill-opacity="0.5" class="leaflet-clickable" d="M661 187L664 189L663 190L662 188z"/></g><g><path stroke-linejoin="round" stroke-linecap="round" fill-rule="evenodd" stroke="#005540" stroke-opacity="1" stroke-width="0.5" fill="#086" fill-opacity="0.5" class="leaflet-clickable" d="M647 176L647 177z"/></g><g><path stroke-linejoin="round" stroke-linecap="round" fill-rule="evenodd" stroke="#005540" stroke-opacity="1" stroke-width="0.5" fill="#086" fill-opacity="0.5" class="leaflet-clickable" d="M647 165L650 167L650 170L652 172L655 171L655 179L645 168L646 165z"/></g><g><path stroke-linejoin="round" stroke-linecap="round" fill-rule="evenodd" stroke="#005540" stroke-opacity="1" stroke-width="0.5" fill="#086" fill-opacity="0.5" class="leaflet-clickable" d="M537 174L539 177L538 182L536 177L537 174z"/></g><g><path stroke-linejoin="round" stroke-linecap="round" fill-rule="evenodd" stroke="#005540" stroke-opacity="1" stroke-width="0.5" fill="#086" fill-opacity="0.5" class="leaflet-clickable" d="M626 153L626 154z"/></g><g><path stroke-linejoin="round" stroke-linecap="round" fill-rule="evenodd" stroke="#005540" stroke-opacity="1" stroke-width="0.5" fill="#086" fill-opacity="0.5" class="leaflet-clickable" d="M619 112L619 112z"/></g><g><path stroke-linejoin="round" stroke-linecap="round" fill-rule="evenodd" stroke="#005540" stroke-opacity="1" stroke-width="0.5" fill="#086" fill-opacity="0.5" class="leaflet-clickable" d="M619 105L621 107L620 108L618 108L618 105z"/></g><g><path stroke-linejoin="round" stroke-linecap="round" fill-rule="evenodd" stroke="#005540" stroke-opacity="1" stroke-width="0.5" fill="#086" fill-opacity="0.5" class="leaflet-clickable" d="M617 86L614 88L612 93L614 95L614 102L617 103L618 105L618 110L616 113L616 123L620 129L620 137L622 142L621 149L627 157L627 159L630 159L644 172L647 182L649 180L651 184L654 184L656 191L662 195L661 197L663 199L663 205L631 205L634 201L633 198L635 194L633 190L628 186L628 184L625 181L623 181L622 177L619 176L619 174L597 159L598 157L595 153L595 146L589 140L590 134L584 127L583 128L582 119L575 112L576 109L574 106L575 107L576 104L570 99L570 96L565 88L565 85L619 80L617 86z"/></g><g><path stroke-linejoin="round" stroke-linecap="round" fill-rule="evenodd" stroke="#005540" stroke-opacity="1" stroke-width="0.5" fill="#086" fill-opacity="0.5" class="leaflet-clickable" d="M879 179L871 191L872 192L866 202L866 207L865 206L864 209L866 209L866 223L868 224L869 229L867 234L870 236L870 238L858 235L856 236L857 237L850 247L846 243L840 245L838 243L833 244L832 242L831 243L825 240L824 238L823 239L820 236L819 237L817 234L816 237L814 237L815 238L812 242L812 246L807 253L808 257L805 258L805 264L807 262L803 267L799 267L788 258L789 257L786 252L778 253L776 251L772 245L772 237L769 233L767 233L767 229L761 231L759 230L760 229L759 230L759 227L757 225L759 222L757 219L758 217L756 216L755 212L751 210L753 209L748 202L748 198L761 196L761 192L756 181L757 176L755 174L755 172L757 172L756 168L758 166L757 160L760 159L758 157L758 145L760 146L757 138L753 137L751 133L751 130L754 129L754 126L757 126L755 126L756 125L753 123L754 121L752 121L755 118L768 118L768 106L771 105L808 106L813 113L816 116L818 116L829 128L839 135L841 135L841 137L843 137L844 143L848 148L848 156L851 159L851 161L855 165L859 166L858 167L861 170L868 172L879 179z"/></g><g><path stroke-linejoin="round" stroke-linecap="round" fill-rule="evenodd" stroke="#005540" stroke-opacity="1" stroke-width="0.5" fill="#00cc99" fill-opacity="0.5" class="leaflet-clickable" d="M958 211L954 215L950 210L946 213L945 220L939 222L935 226L936 229L942 229L942 235L940 239L939 240L937 237L927 247L936 258L935 261L939 267L942 268L940 268L944 271L944 273L949 273L949 276L938 275L936 277L936 281L938 283L936 285L935 292L933 293L925 286L919 288L917 286L918 285L904 278L898 278L899 281L894 279L889 288L880 282L881 281L875 275L875 273L877 271L878 272L875 268L879 262L878 252L880 249L878 241L870 238L870 236L867 233L869 230L865 210L866 209L864 209L864 206L866 206L866 203L872 192L871 191L879 179L883 180L884 177L888 173L889 174L888 172L890 170L891 164L895 159L899 159L902 156L913 159L921 158L923 162L925 162L925 164L926 163L926 165L939 176L943 188L947 193L946 194L958 210z"/></g></svg>