<svg xmlns="http://www.w3.org/2000/svg" class="leaflet-zoom-animated" width="2000" height="804" viewBox="-285 -114 2000 804" style="transform: translate3d(-285px, -114px, 0px);"><g><path stroke-linejoin="round" stroke-linecap="round" fill-rule="evenodd" stroke="#005540" stroke-opacity="1" stroke-width="0.5" fill="#086" fill-opacity="0.5" class="leaflet-clickable" d="M414 444L414 444z"/></g><g><path stroke-linejoin="round" stroke-linecap="round" fill-rule="evenodd" stroke="#005540" stroke-opacity="1" stroke-width="0.5" fill="#086" fill-opacity="0.5" class="leaflet-clickable" d="M499 432L501 434L500 435L498 433L499 432z"/></g><g><path stroke-linejoin="round" stroke-linecap="round" fill-rule="evenodd" stroke="#005540" stroke-opacity="1" stroke-width="0.5" fill="#086" fill-opacity="0.5" class="leaflet-clickable" d="M670 429L664 436L650 426L643 424L644 425L647 422L648 423L656 421L655 420L657 416L662 419L666 416L670 420L670 429z"/></g><g><path stroke-linejoin="round" stroke-linecap="round" fill-rule="evenodd" stroke="#005540" stroke-opacity="1" stroke-width="0.5" fill="#086" fill-opacity="0.5" class="leaflet-clickable" d="M503 422L503 421z"/></g><g><path stroke-linejoin="round" stroke-linecap="round" fill-rule="evenodd" stroke="#005540" stroke-opacity="1" stroke-width="0.5" fill="#086" fill-opacity="0.5" class="leaflet-clickable" d="M608 371L607 371z"/></g><g><path stroke-linejoin="round" stroke-linecap="round" fill-rule="evenodd" stroke="#005540" stroke-opacity="1" stroke-width="0.5" fill="#086" fill-opacity="0.5" class="leaflet-clickable" d="M603 368L605 369L604 370L602 368z"/></g><g><path stroke-linejoin="round" stroke-linecap="round" fill-rule="evenodd" stroke="#005540" stroke-opacity="1" stroke-width="0.5" fill="#086" fill-opacity="0.5" class="leaflet-clickable" d="M598 363L600 363L601 366L599 366L598 364z"/></g><g><path stroke-linejoin="round" stroke-linecap="round" fill-rule="evenodd" stroke="#005540" stroke-opacity="1" stroke-width="0.5" fill="#086" fill-opacity="0.5" class="leaflet-clickable" d="M598 361L597 362z"/></g><g><path stroke-linejoin="round" stroke-linecap="round" fill-rule="evenodd" stroke="#005540" stroke-opacity="1" stroke-width="0.5" fill="#086" fill-opacity="0.5" class="leaflet-clickable" d="M650 346L652 347L650 356L654 356L655 360L659 361L661 363L660 366L665 370L662 373L663 374L653 376L654 381L650 385L653 387L653 389L642 380L633 382L630 388L628 386L623 386L631 376L631 367L630 368L625 364L621 356L621 349L618 343L619 342L619 344L621 341L626 343L624 339L624 333L627 329L628 332L636 332L635 333L638 337L634 339L636 343L640 340L645 344L646 347L650 345z"/></g><g><path stroke-linejoin="round" stroke-linecap="round" fill-rule="evenodd" stroke="#005540" stroke-opacity="1" stroke-width="0.5" fill="#086" fill-opacity="0.5" class="leaflet-clickable" d="M780 417L779 414L785 414L788 412L787 411L793 411L798 415L798 417L800 417L803 420L802 422L799 421L797 424L794 423L791 426L784 420L783 417L781 418z"/></g><g><path stroke-linejoin="round" stroke-linecap="round" fill-rule="evenodd" stroke="#005540" stroke-opacity="1" stroke-width="0.5" fill="#00cc99" fill-opacity="0.5" class="leaflet-clickable" d="M753 211L749 215L745 210L741 213L740 220L734 222L730 226L731 229L737 229L737 235L735 239L734 240L732 237L722 247L731 258L730 261L734 267L737 268L735 268L739 271L739 273L744 273L744 276L733 275L731 277L731 281L733 283L731 285L730 292L728 293L720 286L714 288L712 286L713 285L699 278L693 278L694 281L689 279L684 288L675 282L676 281L670 275L670 273L672 271L673 272L670 268L674 262L673 252L675 249L673 241L665 238L665 236L662 233L664 230L660 210L661 209L659 209L659 206L661 206L661 203L667 192L666 191L674 179L678 180L679 177L683 173L684 174L683 172L685 170L686 164L690 159L694 159L697 156L708 159L716 158L718 162L720 162L720 164L721 163L721 165L734 176L738 188L742 193L741 194L753 210z"/></g><g><path stroke-linejoin="round" stroke-linecap="round" fill-rule="evenodd" stroke="#005540" stroke-opacity="1" stroke-width="0.5" fill="#00cc99" fill-opacity="0.5" class="leaflet-clickable" d="M800 349L798 351L790 344L788 344L787 346L780 345L778 347L771 345L769 346L761 337L760 341L757 339L753 339L752 337L747 337L749 335L747 332L749 330L747 328L748 323L746 323L748 321L751 322L750 317L753 312L759 312L761 309L761 307L757 303L759 296L756 294L756 292L760 291L761 288L765 286L767 287L769 283L768 281L771 278L774 279L785 270L782 269L782 255L776 255L774 257L772 253L769 255L768 249L766 250L762 247L763 241L757 239L759 234L755 233L757 229L755 219L751 218L751 216L756 213L760 216L762 230L766 234L770 246L772 245L774 247L779 248L779 250L785 250L790 255L803 255L808 260L810 259L809 258L814 257L814 263L807 276L802 294L800 336L798 339L799 348z"/></g><g><path stroke-linejoin="round" stroke-linecap="round" fill-rule="evenodd" stroke="#005540" stroke-opacity="1" stroke-width="0.5" fill="#00cc99" fill-opacity="0.5" class="leaflet-clickable" d="M753 211L756 213L751 216L751 218L755 219L757 228L755 233L759 234L757 238L763 241L762 247L766 250L768 249L769 255L772 253L774 257L776 255L782 255L782 269L785 269L775 279L771 278L768 281L768 287L765 286L761 288L760 291L756 292L756 294L758 294L759 296L757 303L762 309L759 312L753 312L750 317L751 322L748 321L746 323L748 323L747 325L744 325L745 323L743 323L742 325L741 324L742 327L739 326L739 313L737 310L738 304L735 302L736 297L731 292L731 285L733 283L731 282L731 277L733 275L744 276L744 274L740 273L735 268L737 268L732 265L729 254L722 247L732 237L734 240L735 239L737 235L737 229L731 229L730 226L734 222L740 220L741 213L745 210L749 214L751 213z"/></g><g><path stroke-linejoin="round" stroke-linecap="round" fill-rule="evenodd" stroke="#005540" stroke-opacity="1" stroke-width="0.5" fill="#00cc99" fill-opacity="0.5" class="leaflet-clickable" d="M747 325L749 329L747 331L749 335L747 337L752 337L760 341L761 337L769 346L782 346L788 350L782 357L784 357L784 361L780 365L783 368L783 370L779 372L781 372L780 376L776 376L773 372L770 373L768 364L763 370L761 370L757 366L755 366L755 368L752 369L743 363L741 363L739 367L735 368L731 366L728 362L715 360L719 355L719 351L717 348L720 344L718 339L719 338L716 337L714 341L713 340L712 343L709 344L707 342L707 339L705 340L700 335L698 330L699 328L697 325L699 323L697 323L699 320L701 322L709 320L722 308L722 302L725 301L726 296L728 299L733 295L736 296L735 301L738 303L738 326L741 327L741 324L742 325L743 323L745 323L744 325L746 325z"/></g><g><path stroke-linejoin="round" stroke-linecap="round" fill-rule="evenodd" stroke="#005540" stroke-opacity="1" stroke-width="0.5" fill="#086" fill-opacity="0.5" class="leaflet-clickable" d="M674 179L666 191L667 192L661 202L661 207L660 206L659 209L661 209L661 223L663 224L664 229L662 234L665 236L665 238L653 235L651 236L652 237L645 247L641 243L635 245L633 243L628 244L627 242L626 243L620 240L619 238L618 239L615 236L614 237L612 234L611 237L609 237L610 238L607 242L607 246L602 253L603 257L600 258L600 264L602 262L598 267L594 267L583 258L584 257L581 252L573 253L571 251L567 245L567 237L564 233L562 233L562 229L556 231L554 230L555 229L554 230L554 227L552 225L554 222L552 219L553 217L551 216L550 212L546 210L548 209L543 202L543 198L556 196L556 192L551 181L552 176L550 174L550 172L552 172L551 168L553 166L552 160L555 159L553 157L553 145L555 146L552 138L548 137L546 133L546 130L549 129L549 126L552 126L550 126L551 125L548 123L549 121L547 121L550 118L563 118L563 106L566 105L603 106L608 113L611 116L613 116L624 128L634 135L636 135L636 137L638 137L639 143L643 148L643 156L646 159L646 161L650 165L654 166L653 167L656 170L663 172L674 179z"/></g><g><path stroke-linejoin="round" stroke-linecap="round" fill-rule="evenodd" stroke="#005540" stroke-opacity="1" stroke-width="0.5" fill="#00cc99" fill-opacity="0.5" class="leaflet-clickable" d="M707 355L706 356L708 358L703 359L699 364L695 364L689 361L686 362L684 360L689 352L689 348L695 347L697 345L701 347L700 348L703 348L703 352L707 355z"/></g><g><path stroke-linejoin="round" stroke-linecap="round" fill-rule="evenodd" stroke="#005540" stroke-opacity="1" stroke-width="0.5" fill="#7fd" fill-opacity="0.5" class="leaflet-clickable" d="M755 368L754 371L755 373L757 373L753 376L749 375L750 376L748 382L739 382L736 385L738 393L742 398L740 402L741 405L728 406L725 402L723 402L723 404L719 404L717 402L717 400L719 399L716 398L716 396L714 396L711 399L705 399L705 397L702 394L705 391L702 384L705 382L709 374L712 373L711 370L713 370L712 367L714 363L713 362L715 360L721 360L723 362L725 361L733 367L739 367L740 363L742 363L752 369L754 368z"/></g><g><path stroke-linejoin="round" stroke-linecap="round" fill-rule="evenodd" stroke="#005540" stroke-opacity="1" stroke-width="0.5" fill="#00cc99" fill-opacity="0.5" class="leaflet-clickable" d="M771 373L770 376L766 378L765 376L760 386L761 388L753 391L753 398L751 397L751 402L747 404L744 401L744 398L742 398L738 394L736 385L739 382L747 382L748 379L749 380L749 375L755 375L757 373L754 372L756 366L763 370L768 364L770 373z"/></g><g><path stroke-linejoin="round" stroke-linecap="round" fill-rule="evenodd" stroke="#005540" stroke-opacity="1" stroke-width="0.5" fill="#00cc99" fill-opacity="0.5" class="leaflet-clickable" d="M795 392L791 397L788 398L792 399L792 401L788 407L790 410L787 411L788 412L786 414L780 414L781 409L778 407L774 407L773 409L772 406L774 404L772 403L772 405L769 404L767 408L765 408L764 410L764 408L761 405L761 400L758 401L753 398L753 391L758 390L760 388L764 379L763 378L771 376L773 372L774 375L780 376L780 372L784 370L783 373L786 376L789 375L788 376L790 376L792 379L789 383L790 385L785 384L782 388L784 387L782 396L787 395L793 389L795 391z"/></g><g><path stroke-linejoin="round" stroke-linecap="round" fill-rule="evenodd" stroke="#005540" stroke-opacity="1" stroke-width="0.5" fill="#00cc99" fill-opacity="0.5" class="leaflet-clickable" d="M824 443L820 447L815 449L812 448L807 452L805 452L803 446L799 446L799 453L801 451L802 452L800 452L797 455L795 453L791 453L791 455L786 456L785 453L781 454L771 446L771 444L774 441L779 442L778 434L781 428L780 417L782 417L791 426L794 423L797 425L799 422L803 421L800 417L797 416L798 415L796 413L794 413L794 411L789 412L790 411L788 408L793 401L791 398L788 398L791 397L797 390L798 384L801 385L801 389L805 392L800 395L802 397L801 400L805 402L808 398L814 401L808 416L810 418L809 419L818 422L816 424L817 425L813 424L810 437L811 436L816 441L820 439L824 443z"/></g><g><path stroke-linejoin="round" stroke-linecap="round" fill-rule="evenodd" stroke="#005540" stroke-opacity="1" stroke-width="0.5" fill="#ddfff6" fill-opacity="0.5" class="leaflet-clickable" d="M944 470L947 473L948 472L948 474L952 476L951 477L956 481L961 483L962 488L968 491L967 498L938 498L927 518L930 522L927 527L928 531L926 535L898 507L890 501L885 500L883 496L885 495L885 492L883 489L889 473L897 466L897 464L901 460L900 458L903 453L906 455L906 457L908 457L907 459L910 465L911 464L913 466L912 467L913 466L915 468L919 463L924 462L923 461L929 458L929 456L932 454L935 455L935 459L939 460L939 466L944 467L945 470z"/></g><g><path stroke-linejoin="round" stroke-linecap="round" fill-rule="evenodd" stroke="#005540" stroke-opacity="1" stroke-width="0.5" fill="#00cc99" fill-opacity="0.5" class="leaflet-clickable" d="M955 457L955 470L944 470L945 467L939 465L940 462L936 459L936 455L932 455L925 460L924 459L924 461L922 463L918 463L918 465L915 468L913 466L912 467L913 466L911 464L909 464L907 459L908 456L906 456L907 455L904 453L901 454L901 460L897 464L895 469L893 467L895 463L893 463L889 458L884 456L885 452L883 448L899 442L912 442L915 440L915 438L920 437L923 442L927 442L928 449L931 450L932 452L940 456L940 450L943 448L943 450L949 453L955 453L955 455z"/></g><g><path stroke-linejoin="round" stroke-linecap="round" fill-rule="evenodd" stroke="#005540" stroke-opacity="1" stroke-width="0.5" fill="#00cc99" fill-opacity="0.5" class="leaflet-clickable" d="M1037 443L1038 440L1038 442z"/></g><g><path stroke-linejoin="round" stroke-linecap="round" fill-rule="evenodd" stroke="#005540" stroke-opacity="1" stroke-width="0.5" fill="#00cc99" fill-opacity="0.5" class="leaflet-clickable" d="M1039 435L1039 437L1039 435z"/></g><g><path stroke-linejoin="round" stroke-linecap="round" fill-rule="evenodd" stroke="#005540" stroke-opacity="1" stroke-width="0.5" fill="#00cc99" fill-opacity="0.5" class="leaflet-clickable" d="M1051 391L1045 398L1045 394L1047 391L1052 390z"/></g><g><path stroke-linejoin="round" stroke-linecap="round" fill-rule="evenodd" stroke="#005540" stroke-opacity="1" stroke-width="0.5" fill="#00cc99" fill-opacity="0.5" class="leaflet-clickable" d="M996 454L995 450L997 449L997 425L996 418L993 415L996 413L997 414L997 412L999 412L999 410L1004 407L1004 405L1007 404L1008 401L1011 401L1013 398L1019 397L1023 394L1030 386L1033 380L1033 368L1040 370L1043 369L1044 366L1049 373L1049 370L1050 371L1050 379L1047 385L1035 399L1035 409L1034 410L1035 406L1034 409L1028 412L1030 416L1035 413L1036 414L1035 418L1030 420L1030 424L1033 421L1035 421L1033 423L1025 449L1022 449L1022 443L1017 443L1017 441L1011 441L1009 447L1006 449L1003 455L999 452L997 454z"/></g><g><path stroke-linejoin="round" stroke-linecap="round" fill-rule="evenodd" stroke="#005540" stroke-opacity="1" stroke-width="0.5" fill="#00cc99" fill-opacity="0.5" class="leaflet-clickable" d="M1043 365L1041 367L1036 368L1038 366L1042 366z"/></g><g><path stroke-linejoin="round" stroke-linecap="round" fill-rule="evenodd" stroke="#005540" stroke-opacity="1" stroke-width="0.5" fill="#00cc99" fill-opacity="0.5" class="leaflet-clickable" d="M1033 368L1033 380L1030 386L1019 398L1013 398L1007 404L1005 404L1004 407L1002 407L1003 408L997 414L996 413L993 415L990 413L986 407L986 404L983 400L981 400L977 393L974 394L969 391L968 384L970 379L980 374L1006 370L1010 367L1015 367L1018 365L1033 368z"/></g><g><path stroke-linejoin="round" stroke-linecap="round" fill-rule="evenodd" stroke="#005540" stroke-opacity="1" stroke-width="0.5" fill="#00cc99" fill-opacity="0.5" class="leaflet-clickable" d="M983 341L986 342L987 344L985 346L982 343L983 341z"/></g><g><path stroke-linejoin="round" stroke-linecap="round" fill-rule="evenodd" stroke="#005540" stroke-opacity="1" stroke-width="0.5" fill="#00cc99" fill-opacity="0.5" class="leaflet-clickable" d="M968 384L968 391L972 391L973 394L976 393L981 397L980 398L986 404L989 412L996 418L996 457L955 457L955 453L945 451L942 449L943 448L940 451L940 455L928 449L928 444L924 442L921 438L924 436L932 436L935 438L952 428L961 420L961 412L967 405L966 391L968 384z"/></g><g><path stroke-linejoin="round" stroke-linecap="round" fill-rule="evenodd" stroke="#005540" stroke-opacity="1" stroke-width="0.5" fill="#7fd" fill-opacity="0.5" class="leaflet-clickable" d="M800 349L802 357L810 366L808 372L809 378L816 392L823 398L830 407L833 419L838 424L838 426L841 427L843 432L848 435L857 435L867 440L874 449L883 447L884 456L892 460L894 463L894 470L892 470L889 473L865 472L866 470L861 467L857 462L859 460L858 459L856 459L850 464L847 464L843 459L845 454L844 449L836 449L837 448L836 449L834 447L829 438L825 437L824 444L822 440L818 439L816 441L813 437L810 436L812 431L811 428L818 422L809 419L810 418L808 416L808 414L811 411L811 407L815 401L808 398L805 402L801 400L802 397L800 395L801 393L802 394L805 392L802 391L800 384L798 384L797 390L795 391L793 388L792 391L787 395L782 396L783 395L781 392L784 390L785 387L783 388L787 383L787 385L789 385L790 380L792 378L788 376L789 375L786 376L783 373L784 370L783 371L780 365L785 361L782 356L784 357L785 353L788 350L780 346L786 346L789 344L795 347L798 351L799 349z"/></g><g><path stroke-linejoin="round" stroke-linecap="round" fill-rule="evenodd" stroke="#005540" stroke-opacity="1" stroke-width="0.5" fill="#7fd" fill-opacity="0.5" class="leaflet-clickable" d="M889 473L883 489L885 492L884 496L886 500L880 497L870 495L858 496L853 501L849 501L839 506L838 505L835 508L826 508L817 505L814 502L800 501L790 494L783 493L787 490L786 487L791 485L790 484L793 481L793 477L795 475L790 474L789 470L788 471L788 464L784 460L785 456L789 454L790 455L792 453L796 453L799 455L801 452L800 451L799 453L798 448L803 445L805 452L812 448L817 449L824 443L825 437L831 440L836 449L844 449L845 454L843 459L847 463L850 464L856 459L858 459L859 460L857 462L861 467L866 470L865 471L884 473z"/></g><g><path stroke-linejoin="round" stroke-linecap="round" fill-rule="evenodd" stroke="#005540" stroke-opacity="1" stroke-width="0.5" fill="#7fd" fill-opacity="0.5" class="leaflet-clickable" d="M761 435L765 441L769 441L771 446L776 450L775 451L778 452L776 452L779 454L785 454L784 460L788 464L788 471L789 470L790 473L794 475L793 480L790 484L791 485L787 487L786 491L782 493L777 487L775 488L765 484L757 484L749 478L725 470L726 469L721 465L717 464L708 455L700 452L701 448L707 445L707 439L709 438L713 438L713 440L715 441L731 441L733 443L734 442L734 444L735 441L733 441L732 439L731 432L734 433L736 431L739 434L738 437L743 444L749 438L753 438L757 434L760 436z"/></g><g><path stroke-linejoin="round" stroke-linecap="round" fill-rule="evenodd" stroke="#005540" stroke-opacity="1" stroke-width="0.5" fill="#00cc99" fill-opacity="0.5" class="leaflet-clickable" d="M773 427L776 430L780 428L778 434L779 441L778 442L776 440L771 444L765 441L761 436L766 425L773 427z"/></g><g><path stroke-linejoin="round" stroke-linecap="round" fill-rule="evenodd" stroke="#005540" stroke-opacity="1" stroke-width="0.5" fill="#086" fill-opacity="0.5" class="leaflet-clickable" d="M773 427L769 427L764 423L769 414L773 421L773 426z"/></g><g><path stroke-linejoin="round" stroke-linecap="round" fill-rule="evenodd" stroke="#005540" stroke-opacity="1" stroke-width="0.5" fill="#086" fill-opacity="0.5" class="leaflet-clickable" d="M753 398L758 401L761 400L761 407L764 409L763 410L767 407L767 405L772 405L772 403L773 409L775 407L778 407L781 410L779 414L781 418L781 428L776 430L773 427L773 421L771 419L770 414L764 421L766 425L765 430L762 431L763 433L760 436L756 434L757 435L755 435L753 438L749 438L743 444L739 439L740 438L738 437L739 434L736 431L745 418L743 412L746 411L746 403L750 403L750 399L752 398z"/></g><g><path stroke-linejoin="round" stroke-linecap="round" fill-rule="evenodd" stroke="#005540" stroke-opacity="1" stroke-width="0.5" fill="#7fd" fill-opacity="0.5" class="leaflet-clickable" d="M741 397L745 399L744 401L747 404L746 405L748 408L746 408L744 412L745 419L742 420L740 426L734 433L731 432L732 439L735 441L735 444L731 441L728 442L726 440L720 439L716 441L710 438L707 439L706 441L707 446L700 449L700 455L670 445L664 436L670 429L675 428L678 430L681 427L681 425L682 426L682 424L687 422L688 423L690 421L691 417L687 417L688 415L685 410L687 408L686 406L680 405L680 402L683 401L682 400L687 401L693 396L700 395L704 395L703 396L705 396L707 400L711 400L712 397L716 396L716 398L719 399L717 399L717 402L719 404L723 404L723 402L725 402L728 406L738 406L741 405L740 402L742 398z"/></g><g><path stroke-linejoin="round" stroke-linecap="round" fill-rule="evenodd" stroke="#005540" stroke-opacity="1" stroke-width="0.5" fill="#7fd" fill-opacity="0.5" class="leaflet-clickable" d="M731 292L733 295L728 299L726 297L725 301L723 302L722 308L717 313L709 320L704 322L701 322L699 320L697 323L699 323L697 325L701 336L705 340L707 339L707 342L709 344L712 343L716 337L719 338L718 339L720 343L718 344L717 348L719 350L719 355L716 359L715 360L714 358L707 355L703 352L703 348L702 349L697 345L695 347L689 348L689 352L684 359L687 363L687 366L690 368L689 371L687 371L683 375L680 374L680 378L678 379L674 379L667 376L665 372L669 371L669 369L665 369L665 367L669 365L670 362L668 360L678 355L680 350L678 348L677 349L675 345L673 347L674 350L672 350L671 353L665 352L668 349L668 344L667 342L665 342L663 343L662 351L660 347L662 343L661 342L664 341L664 339L661 337L657 338L660 343L657 347L657 343L655 343L653 347L651 346L652 338L656 336L654 331L657 319L662 315L663 316L662 306L666 302L668 302L668 299L670 299L672 295L684 295L687 297L692 296L693 291L689 283L689 280L694 281L693 278L702 279L707 281L709 284L713 285L712 286L714 288L720 286L723 288L724 291L728 293L731 292z"/></g><g><path stroke-linejoin="round" stroke-linecap="round" fill-rule="evenodd" stroke="#005540" stroke-opacity="1" stroke-width="0.5" fill="#00cc99" fill-opacity="0.5" class="leaflet-clickable" d="M687 362L689 361L697 365L707 358L708 357L706 357L708 355L710 355L715 361L713 361L714 362L712 367L714 370L712 370L712 372L709 374L709 376L702 385L705 388L702 394L700 396L694 396L685 402L684 400L680 402L680 405L682 404L687 407L687 409L685 410L688 415L687 416L692 417L689 423L687 422L683 424L678 430L676 428L670 429L670 421L666 416L662 419L657 416L655 421L648 423L647 422L644 425L640 423L640 421L639 422L636 420L634 415L632 415L624 404L620 394L628 392L630 390L629 388L631 385L632 386L634 382L639 380L646 382L653 390L652 385L650 385L654 381L653 376L663 374L662 373L665 370L660 365L661 363L659 361L655 361L654 357L650 355L652 347L654 345L655 346L654 343L657 344L656 347L660 344L657 339L658 337L664 339L664 341L661 342L662 343L660 347L662 351L662 347L665 341L668 343L665 352L666 353L670 353L672 350L674 350L673 347L675 345L677 347L676 348L680 350L678 356L674 356L670 360L668 360L670 362L669 365L665 367L665 369L669 369L670 371L665 373L667 373L668 377L678 379L680 374L683 375L687 371L688 372L690 368L686 365L687 363z"/></g><g><path stroke-linejoin="round" stroke-linecap="round" fill-rule="evenodd" stroke="#005540" stroke-opacity="1" stroke-width="0.5" fill="#086" fill-opacity="0.5" class="leaflet-clickable" d="M665 238L673 241L675 249L673 252L674 261L670 268L674 272L671 272L670 275L676 281L675 282L682 287L684 287L689 279L693 294L692 296L689 297L685 297L684 295L674 295L662 306L663 315L661 315L661 317L658 319L655 326L654 331L656 336L652 337L652 344L647 347L643 342L641 342L641 340L639 340L637 343L635 341L634 339L638 337L635 333L636 332L628 332L626 328L623 329L621 327L619 322L620 321L617 316L615 317L614 308L616 309L614 307L613 302L608 297L605 297L605 299L601 299L597 289L587 280L585 271L587 269L586 268L591 265L590 264L593 267L597 267L602 263L600 264L600 258L603 257L602 254L607 246L609 236L610 237L612 234L614 237L615 236L618 239L619 238L625 243L633 243L634 245L640 243L645 247L653 235L657 237L662 237z"/></g><g><path stroke-linejoin="round" stroke-linecap="round" fill-rule="evenodd" stroke="#005540" stroke-opacity="1" stroke-width="0.5" fill="#086" fill-opacity="0.5" class="leaflet-clickable" d="M539 248L543 248L548 244L549 241L553 239L557 229L563 230L562 233L564 233L567 236L567 245L573 253L582 253L584 256L583 258L589 262L589 264L591 264L588 267L586 267L587 270L585 271L587 275L587 280L589 280L592 286L597 289L600 295L599 296L602 299L605 299L605 297L611 299L613 305L616 308L614 308L615 316L618 317L620 321L619 322L621 324L621 328L627 329L624 333L624 340L625 339L626 342L625 343L621 341L620 344L602 325L601 321L595 315L590 307L572 294L556 274L543 269L540 265L536 265L534 257L539 248z"/></g><g><path stroke-linejoin="round" stroke-linecap="round" fill-rule="evenodd" stroke="#005540" stroke-opacity="1" stroke-width="0.5" fill="#086" fill-opacity="0.5" class="leaflet-clickable" d="M464 186L463 188L463 186z"/></g><g><path stroke-linejoin="round" stroke-linecap="round" fill-rule="evenodd" stroke="#005540" stroke-opacity="1" stroke-width="0.5" fill="#086" fill-opacity="0.5" class="leaflet-clickable" d="M470 173L472 179L469 186L464 182L465 175L469 173z"/></g><g><path stroke-linejoin="round" stroke-linecap="round" fill-rule="evenodd" stroke="#005540" stroke-opacity="1" stroke-width="0.5" fill="#086" fill-opacity="0.5" class="leaflet-clickable" d="M415 106L417 106L416 107z"/></g><g><path stroke-linejoin="round" stroke-linecap="round" fill-rule="evenodd" stroke="#005540" stroke-opacity="1" stroke-width="0.5" fill="#086" fill-opacity="0.5" class="leaflet-clickable" d="M412 86L492 115L497 118L550 118L549 120L547 120L548 123L551 125L550 126L552 126L549 126L549 129L546 129L546 132L548 135L547 136L554 141L553 144L555 145L553 145L553 158L555 158L555 160L552 160L553 166L551 168L551 182L554 186L556 196L544 198L543 202L547 209L546 210L550 213L552 217L554 222L552 224L555 231L558 231L552 239L552 241L550 241L547 244L547 246L539 248L539 244L537 241L532 238L527 238L523 229L515 227L511 223L508 223L509 209L507 207L506 208L502 206L502 208L500 208L500 206L494 204L488 195L484 193L478 186L479 184L472 180L472 173L470 170L469 171L467 169L468 167L464 162L462 156L459 155L459 148L451 134L452 122L446 119L439 118L439 114L434 110L426 113L417 106L410 103L408 96L409 95L407 93L409 91L409 87L412 87zM503 205L503 206z"/></g><g><path stroke-linejoin="round" stroke-linecap="round" fill-rule="evenodd" stroke="#005540" stroke-opacity="1" stroke-width="0.5" fill="#086" fill-opacity="0.5" class="leaflet-clickable" d="M395 197L394 197z"/></g><g><path stroke-linejoin="round" stroke-linecap="round" fill-rule="evenodd" stroke="#005540" stroke-opacity="1" stroke-width="0.5" fill="#086" fill-opacity="0.5" class="leaflet-clickable" d="M403 195L405 201L404 204L400 202L403 199L403 196z"/></g><g><path stroke-linejoin="round" stroke-linecap="round" fill-rule="evenodd" stroke="#005540" stroke-opacity="1" stroke-width="0.5" fill="#086" fill-opacity="0.5" class="leaflet-clickable" d="M456 187L459 189L458 190L457 188z"/></g><g><path stroke-linejoin="round" stroke-linecap="round" fill-rule="evenodd" stroke="#005540" stroke-opacity="1" stroke-width="0.5" fill="#086" fill-opacity="0.5" class="leaflet-clickable" d="M442 176L442 177z"/></g><g><path stroke-linejoin="round" stroke-linecap="round" fill-rule="evenodd" stroke="#005540" stroke-opacity="1" stroke-width="0.5" fill="#086" fill-opacity="0.5" class="leaflet-clickable" d="M442 165L445 167L445 170L447 172L450 171L450 179L440 168L441 165z"/></g><g><path stroke-linejoin="round" stroke-linecap="round" fill-rule="evenodd" stroke="#005540" stroke-opacity="1" stroke-width="0.5" fill="#086" fill-opacity="0.5" class="leaflet-clickable" d="M332 174L334 177L333 182L331 177L332 174z"/></g><g><path stroke-linejoin="round" stroke-linecap="round" fill-rule="evenodd" stroke="#005540" stroke-opacity="1" stroke-width="0.5" fill="#086" fill-opacity="0.5" class="leaflet-clickable" d="M421 153L421 154z"/></g><g><path stroke-linejoin="round" stroke-linecap="round" fill-rule="evenodd" stroke="#005540" stroke-opacity="1" stroke-width="0.5" fill="#086" fill-opacity="0.5" class="leaflet-clickable" d="M414 112L414 112z"/></g><g><path stroke-linejoin="round" stroke-linecap="round" fill-rule="evenodd" stroke="#005540" stroke-opacity="1" stroke-width="0.5" fill="#086" fill-opacity="0.5" class="leaflet-clickable" d="M414 105L416 107L415 108L413 108L413 105z"/></g><g><path stroke-linejoin="round" stroke-linecap="round" fill-rule="evenodd" stroke="#005540" stroke-opacity="1" stroke-width="0.5" fill="#086" fill-opacity="0.5" class="leaflet-clickable" d="M412 86L409 88L407 93L409 95L409 102L412 103L413 105L413 110L411 113L411 123L415 129L415 137L417 142L416 149L422 157L422 159L425 159L439 172L442 182L444 180L446 184L449 184L451 191L457 195L456 197L458 199L458 205L426 205L429 201L428 198L430 194L428 190L423 186L423 184L420 181L418 181L417 177L414 176L414 174L392 159L393 157L390 153L390 146L384 140L385 134L379 127L378 128L377 119L370 112L371 109L369 106L370 107L371 104L365 99L365 96L360 88L360 85L414 80L412 86z"/></g><g><path stroke-linejoin="round" stroke-linecap="round" fill-rule="evenodd" stroke="#005540" stroke-opacity="1" stroke-width="0.5" fill="#086" fill-opacity="0.5" class="leaflet-clickable" d="M526 302L524 302L524 297L526 301z"/></g><g><path stroke-linejoin="round" stroke-linecap="round" fill-rule="evenodd" stroke="#005540" stroke-opacity="1" stroke-width="0.5" fill="#086" fill-opacity="0.5" class="leaflet-clickable" d="M514 293L514 296L513 293z"/></g><g><path stroke-linejoin="round" stroke-linecap="round" fill-rule="evenodd" stroke="#005540" stroke-opacity="1" stroke-width="0.5" fill="#086" fill-opacity="0.5" class="leaflet-clickable" d="M513 291L513 292z"/></g><g><path stroke-linejoin="round" stroke-linecap="round" fill-rule="evenodd" stroke="#005540" stroke-opacity="1" stroke-width="0.5" fill="#086" fill-opacity="0.5" class="leaflet-clickable" d="M506 279L509 281L510 284L506 280z"/></g><g><path stroke-linejoin="round" stroke-linecap="round" fill-rule="evenodd" stroke="#005540" stroke-opacity="1" stroke-width="0.5" fill="#086" fill-opacity="0.5" class="leaflet-clickable" d="M506 273L505 275L506 273z"/></g><g><path stroke-linejoin="round" stroke-linecap="round" fill-rule="evenodd" stroke="#005540" stroke-opacity="1" stroke-width="0.5" fill="#086" fill-opacity="0.5" class="leaflet-clickable" d="M504 263L505 266L504 264z"/></g><g><path stroke-linejoin="round" stroke-linecap="round" fill-rule="evenodd" stroke="#005540" stroke-opacity="1" stroke-width="0.5" fill="#086" fill-opacity="0.5" class="leaflet-clickable" d="M498 263L498 265L498 263z"/></g><g><path stroke-linejoin="round" stroke-linecap="round" fill-rule="evenodd" stroke="#005540" stroke-opacity="1" stroke-width="0.5" fill="#086" fill-opacity="0.5" class="leaflet-clickable" d="M498 254L498 256L496 256L494 260L495 261L494 258L495 255L497 255z"/></g><g><path stroke-linejoin="round" stroke-linecap="round" fill-rule="evenodd" stroke="#005540" stroke-opacity="1" stroke-width="0.5" fill="#086" fill-opacity="0.5" class="leaflet-clickable" d="M493 252L493 252z"/></g><g><path stroke-linejoin="round" stroke-linecap="round" fill-rule="evenodd" stroke="#005540" stroke-opacity="1" stroke-width="0.5" fill="#086" fill-opacity="0.5" class="leaflet-clickable" d="M475 224L475 226L474 224z"/></g><g><path stroke-linejoin="round" stroke-linecap="round" fill-rule="evenodd" stroke="#005540" stroke-opacity="1" stroke-width="0.5" fill="#086" fill-opacity="0.5" class="leaflet-clickable" d="M478 219L477 219z"/></g><g><path stroke-linejoin="round" stroke-linecap="round" fill-rule="evenodd" stroke="#005540" stroke-opacity="1" stroke-width="0.5" fill="#086" fill-opacity="0.5" class="leaflet-clickable" d="M404 208L404 208z"/></g><g><path stroke-linejoin="round" stroke-linecap="round" fill-rule="evenodd" stroke="#005540" stroke-opacity="1" stroke-width="0.5" fill="#086" fill-opacity="0.5" class="leaflet-clickable" d="M426 205L459 205L461 212L469 218L472 224L471 225L478 229L476 230L476 232L478 234L480 233L483 235L486 241L489 243L488 244L492 254L492 262L497 268L499 268L500 274L507 285L505 293L508 300L514 302L514 298L517 298L522 302L522 305L526 306L526 308L529 311L529 314L534 317L535 324L531 329L522 334L519 330L517 320L513 316L509 314L497 302L487 297L482 298L472 290L472 287L469 286L474 274L474 261L468 250L461 248L446 236L444 235L441 238L434 231L430 231L427 227L423 227L420 224L419 220L406 209L407 208L419 211L425 208L426 206z"/></g></svg>