<svg xmlns="http://www.w3.org/2000/svg" width="999.5" height="600"><g transform="translate(39.5,19.5)" class="gRoot"><g class="x axis" transform="translate(0,540.5)"><g class="tick" transform="translate(54.52173913043478,0)" style="opacity: 1;"><line y2="6" x2="0"/><text dy=".71em" y="9" x="0" style="text-anchor: middle;">1</text></g><g class="tick" transform="translate(122.67391304347825,0)" style="opacity: 1;"><line y2="6" x2="0"/><text dy=".71em" y="9" x="0" style="text-anchor: middle;">2</text></g><g class="tick" transform="translate(190.82608695652172,0)" style="opacity: 1;"><line y2="6" x2="0"/><text dy=".71em" y="9" x="0" style="text-anchor: middle;">3</text></g><g class="tick" transform="translate(258.9782608695652,0)" style="opacity: 1;"><line y2="6" x2="0"/><text dy=".71em" y="9" x="0" style="text-anchor: middle;">4</text></g><g class="tick" transform="translate(327.1304347826087,0)" style="opacity: 1;"><line y2="6" x2="0"/><text dy=".71em" y="9" x="0" style="text-anchor: middle;">5</text></g><g class="tick" transform="translate(395.28260869565213,0)" style="opacity: 1;"><line y2="6" x2="0"/><text dy=".71em" y="9" x="0" style="text-anchor: middle;">6</text></g><g class="tick" transform="translate(463.4347826086956,0)" style="opacity: 1;"><line y2="6" x2="0"/><text dy=".71em" y="9" x="0" style="text-anchor: middle;">7</text></g><g class="tick" transform="translate(531.5869565217391,0)" style="opacity: 1;"><line y2="6" x2="0"/><text dy=".71em" y="9" x="0" style="text-anchor: middle;">8</text></g><g class="tick" transform="translate(599.7391304347826,0)" style="opacity: 1;"><line y2="6" x2="0"/><text dy=".71em" y="9" x="0" style="text-anchor: middle;">9</text></g><g class="tick" transform="translate(667.8913043478261,0)" style="opacity: 1;"><line y2="6" x2="0"/><text dy=".71em" y="9" x="0" style="text-anchor: middle;">10</text></g><g class="tick" transform="translate(736.0434782608696,0)" style="opacity: 1;"><line y2="6" x2="0"/><text dy=".71em" y="9" x="0" style="text-anchor: middle;">11</text></g><g class="tick" transform="translate(804.1956521739131,0)" style="opacity: 1;"><line y2="6" x2="0"/><text dy=".71em" y="9" x="0" style="text-anchor: middle;">12</text></g><g class="tick" transform="translate(872.3478260869565,0)" style="opacity: 1;"><line y2="6" x2="0"/><text dy=".71em" y="9" x="0" style="text-anchor: middle;">13</text></g><g class="tick" transform="translate(940.5,0)" style="opacity: 1;"><line y2="6" x2="0"/><text dy=".71em" y="9" x="0" style="text-anchor: middle;">14</text></g><path class="domain" d="M0,6V0H940.5V6"/></g><g class="y axis"><g class="tick" transform="translate(0,513.220188574598)" style="opacity: 1;"><line x2="-6" y2="0"/><text dy=".32em" x="-9" y="0" style="text-anchor: end;">4</text></g><g class="tick" transform="translate(0,453.2645590682196)" style="opacity: 1;"><line x2="-6" y2="0"/><text dy=".32em" x="-9" y="0" style="text-anchor: end;">6</text></g><g class="tick" transform="translate(0,393.3089295618414)" style="opacity: 1;"><line x2="-6" y2="0"/><text dy=".32em" x="-9" y="0" style="text-anchor: end;">8</text></g><g class="tick" transform="translate(0,333.35330005546314)" style="opacity: 1;"><line x2="-6" y2="0"/><text dy=".32em" x="-9" y="0" style="text-anchor: end;">10</text></g><g class="tick" transform="translate(0,273.39767054908486)" style="opacity: 1;"><line x2="-6" y2="0"/><text dy=".32em" x="-9" y="0" style="text-anchor: end;">12</text></g><g class="tick" transform="translate(0,213.4420410427066)" style="opacity: 1;"><line x2="-6" y2="0"/><text dy=".32em" x="-9" y="0" style="text-anchor: end;">14</text></g><g class="tick" transform="translate(0,153.48641153632838)" style="opacity: 1;"><line x2="-6" y2="0"/><text dy=".32em" x="-9" y="0" style="text-anchor: end;">16</text></g><g class="tick" transform="translate(0,93.53078202995012)" style="opacity: 1;"><line x2="-6" y2="0"/><text dy=".32em" x="-9" y="0" style="text-anchor: end;">18</text></g><g class="tick" transform="translate(0,33.57515252357185)" style="opacity: 1;"><line x2="-6" y2="0"/><text dy=".32em" x="-9" y="0" style="text-anchor: end;">20</text></g><path class="domain" d="M-6,0H0V540.5H-6"/></g><text class="x label" text-anchor="end" x="627" y="576.5">Tasa de desocupación</text><text class="y label" text-anchor="end" y="-40" x="-100" dy=".75em" transform="rotate(-90)">Tasa de ocupación infantil</text><text class="year label" text-anchor="end" y="516.5" x="940.5">2014</text><text class="country label" text-anchor="start" y="80" x="40"> </text><g class="dots"><circle class="dot" cx="776.9347826086956" cy="488.18871325568495" r="5" style="fill: rgb(0, 204, 153);"><title>Baja California Sur</title></circle><circle class="dot" cx="279.4239130434782" cy="391.81003882418196" r="5" style="fill: rgb(0, 204, 153);"><title>Sonora</title></circle><circle class="dot" cx="279.4239130434782" cy="412.94439822518024" r="5" style="fill: rgb(0, 204, 153);"><title>Tlaxcala</title></circle><circle class="dot" cx="265.7934782608695" cy="504.22684414864113" r="5" style="fill: rgb(0, 204, 153);"><title>Distrito Federal</title></circle><circle class="dot" cx="265.7934782608695" cy="366.6286744315031" r="5" style="fill: rgb(0, 204, 153);"><title>Durango</title></circle><circle class="dot" cx="252.16304347826085" cy="278.04423183582924" r="5" style="fill: rgb(0, 204, 153);"><title>Tabasco</title></circle><circle class="dot" cx="252.16304347826085" cy="440.6738768718802" r="5" style="fill: rgb(0, 204, 153);"><title>Tamaulipas</title></circle><circle class="dot" cx="245.34782608695647" cy="327.05795895729335" r="5" style="fill: rgb(0, 204, 153);"><title>Quintana Roo</title></circle><circle class="dot" cx="238.53260869565213" cy="462.1080144204104" r="5" style="fill: rgb(0, 204, 153);"><title>Nuevo León</title></circle><circle class="dot" cx="231.7173913043478" cy="391.51026067665003" r="5" style="fill: rgb(0, 204, 153);"><title>Sinaloa</title></circle><circle class="dot" cx="218.0869565217391" cy="486.3900443704936" r="5" style="fill: rgb(0, 204, 153);"><title>México</title></circle><circle class="dot" cx="218.0869565217391" cy="445.47032723239045" r="5" style="fill: rgb(0, 204, 153);"><title>Coahuila de Zaragoza</title></circle><circle class="dot" cx="197.64130434782606" cy="283.88990571270114" r="5" style="fill: rgb(0, 204, 153);"><title>Nayarit</title></circle><circle class="dot" cx="190.82608695652172" cy="230.52939545202432" r="5" style="fill: rgb(0, 204, 153);"><title>Colima</title></circle><circle class="dot" cx="190.82608695652172" cy="367.6778979478647" r="5" style="fill: rgb(0, 204, 153);"><title>Jalisco</title></circle><circle class="dot" cx="184.01086956521738" cy="238.47351636161955" r="5" style="fill: rgb(0, 204, 153);"><title>Guanajuato</title></circle><circle class="dot" cx="177.19565217391303" cy="554.5895729339989" r="5" style="fill: rgb(0, 204, 153);"><title>Chihuahua</title></circle><circle class="dot" cx="177.19565217391303" cy="445.4703272323905" r="5" style="fill: rgb(0, 204, 153);"><title>Hidalgo</title></circle><circle class="dot" cx="177.19565217391303" cy="293.9324736550194" r="5" style="fill: rgb(0, 204, 153);"><title>Zacatecas</title></circle><circle class="dot" cx="177.19565217391303" cy="553.0906821963395" r="5" style="fill: rgb(0, 204, 153);"><title>Baja California</title></circle><circle class="dot" cx="170.3804347826087" cy="451.1661120354963" r="5" style="fill: rgb(0, 204, 153);"><title>Aguascalientes</title></circle><circle class="dot" cx="156.75" cy="372.62423738214096" r="5" style="fill: rgb(0, 204, 153);"><title>Michoacán de Ocampo</title></circle><circle class="dot" cx="149.93478260869563" cy="529.558097615086" r="5" style="fill: rgb(0, 204, 153);"><title>Querétaro</title></circle><circle class="dot" cx="136.30434782608697" cy="430.6313089295619" r="5" style="fill: rgb(0, 204, 153);"><title>Veracruz de Ignacio de la Llave</title></circle><circle class="dot" cx="129.48913043478262" cy="436.9266500277315" r="5" style="fill: rgb(0, 204, 153);"><title>Morelos</title></circle><circle class="dot" cx="122.67391304347825" cy="413.54395452024403" r="5" style="fill: rgb(0, 204, 153);"><title>Yucatán</title></circle><circle class="dot" cx="122.67391304347825" cy="238.1737382140876" r="5" style="fill: rgb(0, 204, 153);"><title>Puebla</title></circle><circle class="dot" cx="115.8586956521739" cy="344.7448696616749" r="5" style="fill: rgb(0, 204, 153);"><title>Chiapas</title></circle><circle class="dot" cx="102.22826086956522" cy="330.805185801442" r="5" style="fill: rgb(0, 204, 153);"><title>Campeche</title></circle><circle class="dot" cx="95.41304347826087" cy="337.9998613422075" r="5" style="fill: rgb(0, 204, 153);"><title>San Luis Potosí</title></circle><circle class="dot" cx="81.78260869565217" cy="330.6552967276761" r="5" style="fill: rgb(0, 204, 153);"><title>Oaxaca</title></circle><circle class="dot" cx="74.96739130434783" cy="326.4584026622297" r="5" style="fill: rgb(0, 204, 153);"><title>Guerrero</title></circle></g></g></svg>