<svg xmlns="http://www.w3.org/2000/svg" width="999.5" height="600"><g transform="translate(39.5,19.5)" class="gRoot"><g class="gDragit selected" style="opacity: 1;"><path class="lineTrajectory" d="M0,105.66165413533864L0,105.66165413533864L0,105.66165413533864L0,105.66165413533864L0,105.66165413533864L0,105.66165413533864L0,105.66165413533864L0,105.66165413533864L0,105.66165413533864L0,105.66165413533864L0,105.66165413533864L0,105.66165413533864L0,105.66165413533864L5.43641618421,105.66165413533864L235.125,105.66165413533864L0,105.66165413533864L0,105.66165413533864L940.5,105.66165413533864L0,105.66165413533864L0,105.66165413533864L31.525139662335,105.66165413533864L470.25,105.66165413533864L160.57317071565,105.66165413533864L0,105.66165413533864"/><circle class="pointTrajectory" cx="0" cy="105.66165413533864" r="3"/><circle class="pointTrajectory" cx="0" cy="105.66165413533864" r="3"/><circle class="pointTrajectory" cx="0" cy="105.66165413533864" r="3"/><circle class="pointTrajectory" cx="0" cy="105.66165413533864" r="3"/><circle class="pointTrajectory" cx="0" cy="105.66165413533864" r="3"/><circle class="pointTrajectory" cx="0" cy="105.66165413533864" r="3"/><circle class="pointTrajectory" cx="0" cy="105.66165413533864" r="3"/><circle class="pointTrajectory" cx="0" cy="105.66165413533864" r="3"/><circle class="pointTrajectory" cx="0" cy="105.66165413533864" r="3"/><circle class="pointTrajectory" cx="0" cy="105.66165413533864" r="3"/><circle class="pointTrajectory" cx="0" cy="105.66165413533864" r="3"/><circle class="pointTrajectory" cx="0" cy="105.66165413533864" r="3"/><circle class="pointTrajectory" cx="0" cy="105.66165413533864" r="3"/><circle class="pointTrajectory" cx="5.43641618421" cy="105.66165413533864" r="3"/><circle class="pointTrajectory" cx="235.125" cy="105.66165413533864" r="3"/><circle class="pointTrajectory" cx="0" cy="105.66165413533864" r="3"/><circle class="pointTrajectory" cx="0" cy="105.66165413533864" r="3"/><circle class="pointTrajectory" cx="940.5" cy="105.66165413533864" r="3"/><circle class="pointTrajectory" cx="0" cy="105.66165413533864" r="3"/><circle class="pointTrajectory" cx="0" cy="105.66165413533864" r="3"/><circle class="pointTrajectory" cx="31.525139662335" cy="105.66165413533864" r="3"/><circle class="pointTrajectory" cx="470.25" cy="105.66165413533864" r="3"/><circle class="pointTrajectory" cx="160.57317071565" cy="105.66165413533864" r="3"/><circle class="pointTrajectory" cx="0" cy="105.66165413533864" r="3"/></g><g class="gDragit selected" style="opacity: 1;"><path class="lineTrajectory" d="M0,105.66165413533864L0,105.66165413533864L0,105.66165413533864L0,105.66165413533864L0,105.66165413533864L0,105.66165413533864L0,105.66165413533864L0,105.66165413533864L0,105.66165413533864L0,105.66165413533864L0,105.66165413533864L0,105.66165413533864L0,105.66165413533864L5.43641618421,105.66165413533864L235.125,105.66165413533864L0,105.66165413533864L0,105.66165413533864L940.5,105.66165413533864L0,105.66165413533864L0,105.66165413533864L31.525139662335,105.66165413533864L470.25,105.66165413533864L160.57317071565,105.66165413533864L0,105.66165413533864"/><circle class="pointTrajectory" cx="0" cy="105.66165413533864" r="3"/><circle class="pointTrajectory" cx="0" cy="105.66165413533864" r="3"/><circle class="pointTrajectory" cx="0" cy="105.66165413533864" r="3"/><circle class="pointTrajectory" cx="0" cy="105.66165413533864" r="3"/><circle class="pointTrajectory" cx="0" cy="105.66165413533864" r="3"/><circle class="pointTrajectory" cx="0" cy="105.66165413533864" r="3"/><circle class="pointTrajectory" cx="0" cy="105.66165413533864" r="3"/><circle class="pointTrajectory" cx="0" cy="105.66165413533864" r="3"/><circle class="pointTrajectory" cx="0" cy="105.66165413533864" r="3"/><circle class="pointTrajectory" cx="0" cy="105.66165413533864" r="3"/><circle class="pointTrajectory" cx="0" cy="105.66165413533864" r="3"/><circle class="pointTrajectory" cx="0" cy="105.66165413533864" r="3"/><circle class="pointTrajectory" cx="0" cy="105.66165413533864" r="3"/><circle class="pointTrajectory" cx="5.43641618421" cy="105.66165413533864" r="3"/><circle class="pointTrajectory" cx="235.125" cy="105.66165413533864" r="3"/><circle class="pointTrajectory" cx="0" cy="105.66165413533864" r="3"/><circle class="pointTrajectory" cx="0" cy="105.66165413533864" r="3"/><circle class="pointTrajectory" cx="940.5" cy="105.66165413533864" r="3"/><circle class="pointTrajectory" cx="0" cy="105.66165413533864" r="3"/><circle class="pointTrajectory" cx="0" cy="105.66165413533864" r="3"/><circle class="pointTrajectory" cx="31.525139662335" cy="105.66165413533864" r="3"/><circle class="pointTrajectory" cx="470.25" cy="105.66165413533864" r="3"/><circle class="pointTrajectory" cx="160.57317071565" cy="105.66165413533864" r="3"/><circle class="pointTrajectory" cx="0" cy="105.66165413533864" r="3"/></g><g class="gDragit selected" style="opacity: 1;"><path class="lineTrajectory" d="M0,105.66165413533864L0,105.66165413533864L0,105.66165413533864L0,105.66165413533864L0,105.66165413533864L0,105.66165413533864L0,105.66165413533864L0,105.66165413533864L0,105.66165413533864L0,105.66165413533864L0,105.66165413533864L0,105.66165413533864L0,105.66165413533864L5.43641618421,105.66165413533864L235.125,105.66165413533864L0,105.66165413533864L0,105.66165413533864L940.5,105.66165413533864L0,105.66165413533864L0,105.66165413533864L31.525139662335,105.66165413533864L470.25,105.66165413533864L160.57317071565,105.66165413533864L0,105.66165413533864"/><circle class="pointTrajectory" cx="0" cy="105.66165413533864" r="3"/><circle class="pointTrajectory" cx="0" cy="105.66165413533864" r="3"/><circle class="pointTrajectory" cx="0" cy="105.66165413533864" r="3"/><circle class="pointTrajectory" cx="0" cy="105.66165413533864" r="3"/><circle class="pointTrajectory" cx="0" cy="105.66165413533864" r="3"/><circle class="pointTrajectory" cx="0" cy="105.66165413533864" r="3"/><circle class="pointTrajectory" cx="0" cy="105.66165413533864" r="3"/><circle class="pointTrajectory" cx="0" cy="105.66165413533864" r="3"/><circle class="pointTrajectory" cx="0" cy="105.66165413533864" r="3"/><circle class="pointTrajectory" cx="0" cy="105.66165413533864" r="3"/><circle class="pointTrajectory" cx="0" cy="105.66165413533864" r="3"/><circle class="pointTrajectory" cx="0" cy="105.66165413533864" r="3"/><circle class="pointTrajectory" cx="0" cy="105.66165413533864" r="3"/><circle class="pointTrajectory" cx="5.43641618421" cy="105.66165413533864" r="3"/><circle class="pointTrajectory" cx="235.125" cy="105.66165413533864" r="3"/><circle class="pointTrajectory" cx="0" cy="105.66165413533864" r="3"/><circle class="pointTrajectory" cx="0" cy="105.66165413533864" r="3"/><circle class="pointTrajectory" cx="940.5" cy="105.66165413533864" r="3"/><circle class="pointTrajectory" cx="0" cy="105.66165413533864" r="3"/><circle class="pointTrajectory" cx="0" cy="105.66165413533864" r="3"/><circle class="pointTrajectory" cx="31.525139662335" cy="105.66165413533864" r="3"/><circle class="pointTrajectory" cx="470.25" cy="105.66165413533864" r="3"/><circle class="pointTrajectory" cx="160.57317071565" cy="105.66165413533864" r="3"/><circle class="pointTrajectory" cx="0" cy="105.66165413533864" r="3"/></g><g class="gDragit selected" style="opacity: 1;"><path class="lineTrajectory" d="M0,105.66165413533864L0,105.66165413533864L0,105.66165413533864L0,105.66165413533864L0,105.66165413533864L0,105.66165413533864L0,105.66165413533864L0,105.66165413533864L0,105.66165413533864L0,105.66165413533864L0,105.66165413533864L0,105.66165413533864L0,105.66165413533864L5.43641618421,105.66165413533864L235.125,105.66165413533864L0,105.66165413533864L0,105.66165413533864L940.5,105.66165413533864L0,105.66165413533864L0,105.66165413533864L31.525139662335,105.66165413533864L470.25,105.66165413533864L160.57317071565,105.66165413533864L0,105.66165413533864"/><circle class="pointTrajectory" cx="0" cy="105.66165413533864" r="3"/><circle class="pointTrajectory" cx="0" cy="105.66165413533864" r="3"/><circle class="pointTrajectory" cx="0" cy="105.66165413533864" r="3"/><circle class="pointTrajectory" cx="0" cy="105.66165413533864" r="3"/><circle class="pointTrajectory" cx="0" cy="105.66165413533864" r="3"/><circle class="pointTrajectory" cx="0" cy="105.66165413533864" r="3"/><circle class="pointTrajectory" cx="0" cy="105.66165413533864" r="3"/><circle class="pointTrajectory" cx="0" cy="105.66165413533864" r="3"/><circle class="pointTrajectory" cx="0" cy="105.66165413533864" r="3"/><circle class="pointTrajectory" cx="0" cy="105.66165413533864" r="3"/><circle class="pointTrajectory" cx="0" cy="105.66165413533864" r="3"/><circle class="pointTrajectory" cx="0" cy="105.66165413533864" r="3"/><circle class="pointTrajectory" cx="0" cy="105.66165413533864" r="3"/><circle class="pointTrajectory" cx="5.43641618421" cy="105.66165413533864" r="3"/><circle class="pointTrajectory" cx="235.125" cy="105.66165413533864" r="3"/><circle class="pointTrajectory" cx="0" cy="105.66165413533864" r="3"/><circle class="pointTrajectory" cx="0" cy="105.66165413533864" r="3"/><circle class="pointTrajectory" cx="940.5" cy="105.66165413533864" r="3"/><circle class="pointTrajectory" cx="0" cy="105.66165413533864" r="3"/><circle class="pointTrajectory" cx="0" cy="105.66165413533864" r="3"/><circle class="pointTrajectory" cx="31.525139662335" cy="105.66165413533864" r="3"/><circle class="pointTrajectory" cx="470.25" cy="105.66165413533864" r="3"/><circle class="pointTrajectory" cx="160.57317071565" cy="105.66165413533864" r="3"/><circle class="pointTrajectory" cx="0" cy="105.66165413533864" r="3"/></g><g class="gDragit selected" style="opacity: 1;"><path class="lineTrajectory" d="M0,105.66165413533864L0,105.66165413533864L0,105.66165413533864L0,105.66165413533864L0,105.66165413533864L0,105.66165413533864L0,105.66165413533864L0,105.66165413533864L0,105.66165413533864L0,105.66165413533864L0,105.66165413533864L0,105.66165413533864L0,105.66165413533864L5.43641618421,105.66165413533864L235.125,105.66165413533864L0,105.66165413533864L0,105.66165413533864L940.5,105.66165413533864L0,105.66165413533864L0,105.66165413533864L31.525139662335,105.66165413533864L470.25,105.66165413533864L160.57317071565,105.66165413533864L0,105.66165413533864"/><circle class="pointTrajectory" cx="0" cy="105.66165413533864" r="3"/><circle class="pointTrajectory" cx="0" cy="105.66165413533864" r="3"/><circle class="pointTrajectory" cx="0" cy="105.66165413533864" r="3"/><circle class="pointTrajectory" cx="0" cy="105.66165413533864" r="3"/><circle class="pointTrajectory" cx="0" cy="105.66165413533864" r="3"/><circle class="pointTrajectory" cx="0" cy="105.66165413533864" r="3"/><circle class="pointTrajectory" cx="0" cy="105.66165413533864" r="3"/><circle class="pointTrajectory" cx="0" cy="105.66165413533864" r="3"/><circle class="pointTrajectory" cx="0" cy="105.66165413533864" r="3"/><circle class="pointTrajectory" cx="0" cy="105.66165413533864" r="3"/><circle class="pointTrajectory" cx="0" cy="105.66165413533864" r="3"/><circle class="pointTrajectory" cx="0" cy="105.66165413533864" r="3"/><circle class="pointTrajectory" cx="0" cy="105.66165413533864" r="3"/><circle class="pointTrajectory" cx="5.43641618421" cy="105.66165413533864" r="3"/><circle class="pointTrajectory" cx="235.125" cy="105.66165413533864" r="3"/><circle class="pointTrajectory" cx="0" cy="105.66165413533864" r="3"/><circle class="pointTrajectory" cx="0" cy="105.66165413533864" r="3"/><circle class="pointTrajectory" cx="940.5" cy="105.66165413533864" r="3"/><circle class="pointTrajectory" cx="0" cy="105.66165413533864" r="3"/><circle class="pointTrajectory" cx="0" cy="105.66165413533864" r="3"/><circle class="pointTrajectory" cx="31.525139662335" cy="105.66165413533864" r="3"/><circle class="pointTrajectory" cx="470.25" cy="105.66165413533864" r="3"/><circle class="pointTrajectory" cx="160.57317071565" cy="105.66165413533864" r="3"/><circle class="pointTrajectory" cx="0" cy="105.66165413533864" r="3"/></g><g class="x axis" transform="translate(0,540.5)"><g class="tick" transform="translate(0,0)" style="opacity: 1;"><line y2="6" x2="0"/><text dy=".71em" y="9" x="0" style="text-anchor: middle;">0</text></g><g class="tick" transform="translate(94.05000000000001,0)" style="opacity: 1;"><line y2="6" x2="0"/><text dy=".71em" y="9" x="0" style="text-anchor: middle;">10</text></g><g class="tick" transform="translate(188.10000000000002,0)" style="opacity: 1;"><line y2="6" x2="0"/><text dy=".71em" y="9" x="0" style="text-anchor: middle;">20</text></g><g class="tick" transform="translate(282.15,0)" style="opacity: 1;"><line y2="6" x2="0"/><text dy=".71em" y="9" x="0" style="text-anchor: middle;">30</text></g><g class="tick" transform="translate(376.20000000000005,0)" style="opacity: 1;"><line y2="6" x2="0"/><text dy=".71em" y="9" x="0" style="text-anchor: middle;">40</text></g><g class="tick" transform="translate(470.25,0)" style="opacity: 1;"><line y2="6" x2="0"/><text dy=".71em" y="9" x="0" style="text-anchor: middle;">50</text></g><g class="tick" transform="translate(564.3,0)" style="opacity: 1;"><line y2="6" x2="0"/><text dy=".71em" y="9" x="0" style="text-anchor: middle;">60</text></g><g class="tick" transform="translate(658.3499999999999,0)" style="opacity: 1;"><line y2="6" x2="0"/><text dy=".71em" y="9" x="0" style="text-anchor: middle;">70</text></g><g class="tick" transform="translate(752.4000000000001,0)" style="opacity: 1;"><line y2="6" x2="0"/><text dy=".71em" y="9" x="0" style="text-anchor: middle;">80</text></g><g class="tick" transform="translate(846.45,0)" style="opacity: 1;"><line y2="6" x2="0"/><text dy=".71em" y="9" x="0" style="text-anchor: middle;">90</text></g><g class="tick" transform="translate(940.5,0)" style="opacity: 1;"><line y2="6" x2="0"/><text dy=".71em" y="9" x="0" style="text-anchor: middle;">100</text></g><path class="domain" d="M0,6V0H940.5V6"/></g><g class="y axis"><g class="tick" transform="translate(0,491.73308270676694)" style="opacity: 1;"><line x2="-6" y2="0"/><text dy=".32em" x="-9" y="0" style="text-anchor: end;">96.0</text></g><g class="tick" transform="translate(0,424.001253132832)" style="opacity: 1;"><line x2="-6" y2="0"/><text dy=".32em" x="-9" y="0" style="text-anchor: end;">96.5</text></g><g class="tick" transform="translate(0,356.2694235588971)" style="opacity: 1;"><line x2="-6" y2="0"/><text dy=".32em" x="-9" y="0" style="text-anchor: end;">97.0</text></g><g class="tick" transform="translate(0,288.53759398496214)" style="opacity: 1;"><line x2="-6" y2="0"/><text dy=".32em" x="-9" y="0" style="text-anchor: end;">97.5</text></g><g class="tick" transform="translate(0,220.80576441102724)" style="opacity: 1;"><line x2="-6" y2="0"/><text dy=".32em" x="-9" y="0" style="text-anchor: end;">98.0</text></g><g class="tick" transform="translate(0,153.07393483709234)" style="opacity: 1;"><line x2="-6" y2="0"/><text dy=".32em" x="-9" y="0" style="text-anchor: end;">98.5</text></g><g class="tick" transform="translate(0,85.34210526315738)" style="opacity: 1;"><line x2="-6" y2="0"/><text dy=".32em" x="-9" y="0" style="text-anchor: end;">99.0</text></g><g class="tick" transform="translate(0,17.610275689222487)" style="opacity: 1;"><line x2="-6" y2="0"/><text dy=".32em" x="-9" y="0" style="text-anchor: end;">99.5</text></g><path class="domain" d="M-6,0H0V540.5H-6"/></g><text class="x label" text-anchor="end" x="627" y="576.5">Tasa de letalidad por dengue hemorrágico </text><text class="y label" text-anchor="end" y="-40" x="-100" dy=".75em" transform="rotate(-90)">Porcentaje de la población con servicio eléctrico</text><text class="year label" text-anchor="end" y="516.5" x="940.5">2014</text><text class="country label" text-anchor="start" y="80" x="40"/><g class="dots"><circle class="dot" cx="40.891304348234996" cy="58.249373433583024" r="5" style="fill: rgb(0, 204, 153); opacity: 1;"><title>Puebla</title></circle><circle class="dot" cx="32.43103448211" cy="101.5977443609024" r="5" style="fill: rgb(0, 204, 153); opacity: 1;"><title>Nuevo León</title></circle><circle class="dot" cx="19.80000000099" cy="107.01629072681611" r="5" style="fill: rgb(0, 204, 153); opacity: 1;"><title>Baja California Sur</title></circle><circle class="dot" cx="11.611111108905" cy="150.3646616541355" r="5" style="fill: rgb(0, 204, 153); opacity: 1;"><title>Tabasco</title></circle><circle class="dot" cx="11.469512193975" cy="304.7932330827072" r="5" style="fill: rgb(0, 204, 153); opacity: 1;"><title>Tamaulipas</title></circle><circle class="dot" cx="8.472972973905" cy="174.748120300751" r="5" style="fill: rgb(0, 204, 153); opacity: 1;"><title>Campeche</title></circle><circle class="dot" cx="7.43898305106" cy="486.3145363408513" r="5" style="fill: rgb(0, 204, 153); opacity: 1;"><title>Chiapas</title></circle><circle class="dot" cx="6.45652174068" cy="63.667919799498655" r="5" style="fill: rgb(0, 204, 153); opacity: 1;"><title>Yucatán</title></circle><circle class="dot" cx="4.58780487759" cy="46.0576441102743" r="5" style="fill: rgb(0, 204, 153); opacity: 1;"><title>Quintana Roo</title></circle><circle class="dot" cx="3.838775507325" cy="498.50626566416" r="5" style="fill: rgb(0, 204, 153); opacity: 1;"><title>Guerrero</title></circle><circle class="dot" cx="3.4360647215399998" cy="264.1541353383447" r="5" style="fill: rgb(0, 204, 153); opacity: 1;"><title>Veracruz de Ignacio de la Llave</title></circle><circle class="dot" cx="3.122855564895" cy="97.53383458646616" r="5" style="fill: rgb(0, 204, 153); opacity: 1;"><title>Sinaloa</title></circle><circle class="dot" cx="2.39008894443" cy="540.5" r="5" style="fill: rgb(0, 204, 153); opacity: 1;"><title>Oaxaca</title></circle><circle class="dot selected" cx="1.31354748162" cy="105.66165413533864" r="5" style="fill: rgb(0, 204, 153); opacity: 1;"><title>Sonora</title></circle><circle class="dot" cx="0" cy="83.98746867167799" r="5" style="fill: rgb(0, 204, 153); opacity: 1;"><title>México</title></circle><circle class="dot" cx="0" cy="128.69047619047484" r="5" style="fill: rgb(0, 204, 153); opacity: 1;"><title>Michoacán de Ocampo</title></circle><circle class="dot" cx="0" cy="0" r="5" style="fill: rgb(0, 204, 153); opacity: 1;"><title>Aguascalientes</title></circle><circle class="dot" cx="0" cy="102.95238095237987" r="5" style="fill: rgb(0, 204, 153); opacity: 1;"><title>Morelos</title></circle><circle class="dot" cx="0" cy="98.88847117794363" r="5" style="fill: rgb(0, 204, 153); opacity: 1;"><title>Hidalgo</title></circle><circle class="dot" cx="0" cy="47.412280701753694" r="5" style="fill: rgb(0, 204, 153); opacity: 1;"><title>Jalisco</title></circle><circle class="dot" cx="0" cy="380.6528822055146" r="5" style="fill: rgb(0, 204, 153); opacity: 1;"><title>Durango</title></circle><circle class="dot" cx="0" cy="421.29197994987516" r="5" style="fill: rgb(0, 204, 153); opacity: 1;"><title>San Luis Potosí</title></circle><circle class="dot" cx="0" cy="361.68796992481276" r="5" style="fill: rgb(0, 204, 153); opacity: 1;"><title>Chihuahua</title></circle><circle class="dot" cx="0" cy="18.964912280701874" r="5" style="fill: rgb(0, 204, 153); opacity: 1;"><title>Distrito Federal</title></circle><circle class="dot" cx="0" cy="180.16666666666669" r="5" style="fill: rgb(0, 204, 153); opacity: 1;"><title>Querétaro</title></circle><circle class="dot" cx="0" cy="121.91729323308168" r="5" style="fill: rgb(0, 204, 153); opacity: 1;"><title>Zacatecas</title></circle><circle class="dot" cx="0" cy="0" r="5" style="fill: rgb(0, 204, 153); opacity: 1;"><title>Coahuila de Zaragoza</title></circle><circle class="dot" cx="0" cy="52.83082706766932" r="5" style="fill: rgb(0, 204, 153); opacity: 1;"><title>Baja California</title></circle><circle class="dot" cx="0" cy="8.12781954887248" r="5" style="fill: rgb(0, 204, 153); opacity: 1;"><title>Tlaxcala</title></circle><circle class="dot" cx="0" cy="266.8634085213034" r="5" style="fill: rgb(0, 204, 153); opacity: 1;"><title>Nayarit</title></circle><circle class="dot" cx="0" cy="65.02255639097612" r="5" style="fill: rgb(0, 204, 153); opacity: 1;"><title>Guanajuato</title></circle><circle class="dot" cx="0" cy="59.604010025062415" r="5" style="fill: rgb(0, 204, 153); opacity: 1;"><title>Colima</title></circle></g></g></svg>