<svg xmlns="http://www.w3.org/2000/svg" class="leaflet-zoom-animated" width="1977" height="881" viewBox="-344 -153 1977 881" style="transform: translate3d(-344px, -153px, 0px);"><g><path class="class-12 leaflet-clickable" stroke-linejoin="round" stroke-linecap="round" fill-rule="evenodd" stroke="#005540" stroke-opacity="1" stroke-width="0.5" fill="#c0976b" fill-opacity="0.5" d="M683 211L686 213L681 216L681 218L685 219L687 228L685 233L689 234L687 238L693 241L692 247L696 250L698 249L699 255L702 253L704 257L706 255L712 255L712 269L715 269L705 279L701 278L698 281L698 287L695 286L691 288L690 291L686 292L686 294L688 294L689 296L687 303L692 309L689 312L683 312L680 317L681 322L678 321L676 323L678 323L677 325L674 325L675 323L673 323L672 325L671 324L672 327L669 326L669 313L667 310L668 304L665 302L666 297L661 292L661 285L663 283L661 282L661 277L663 275L674 276L674 274L670 273L665 268L667 268L662 265L659 254L652 247L662 237L664 240L665 239L667 235L667 229L661 229L660 226L664 222L670 220L671 213L675 210L679 214L681 213z"/></g><g><path class="class-02 leaflet-clickable" stroke-linejoin="round" stroke-linecap="round" fill-rule="evenodd" stroke="#005540" stroke-opacity="1" stroke-width="0.5" fill="#e6a583" fill-opacity="0.5" d="M456 302L454 302L454 297L456 301z"/></g><g><path class="class-02 leaflet-clickable" stroke-linejoin="round" stroke-linecap="round" fill-rule="evenodd" stroke="#005540" stroke-opacity="1" stroke-width="0.5" fill="#e6a583" fill-opacity="0.5" d="M444 293L444 296L443 293z"/></g><g><path class="class-02 leaflet-clickable" stroke-linejoin="round" stroke-linecap="round" fill-rule="evenodd" stroke="#005540" stroke-opacity="1" stroke-width="0.5" fill="#e6a583" fill-opacity="0.5" d="M443 291L443 292z"/></g><g><path class="class-02 leaflet-clickable" stroke-linejoin="round" stroke-linecap="round" fill-rule="evenodd" stroke="#005540" stroke-opacity="1" stroke-width="0.5" fill="#e6a583" fill-opacity="0.5" d="M436 279L439 281L440 284L436 280z"/></g><g><path class="class-02 leaflet-clickable" stroke-linejoin="round" stroke-linecap="round" fill-rule="evenodd" stroke="#005540" stroke-opacity="1" stroke-width="0.5" fill="#e6a583" fill-opacity="0.5" d="M436 273L435 275L436 273z"/></g><g><path class="class-02 leaflet-clickable" stroke-linejoin="round" stroke-linecap="round" fill-rule="evenodd" stroke="#005540" stroke-opacity="1" stroke-width="0.5" fill="#e6a583" fill-opacity="0.5" d="M434 263L435 266L434 264z"/></g><g><path class="class-02 leaflet-clickable" stroke-linejoin="round" stroke-linecap="round" fill-rule="evenodd" stroke="#005540" stroke-opacity="1" stroke-width="0.5" fill="#e6a583" fill-opacity="0.5" d="M428 263L428 265L428 263z"/></g><g><path class="class-02 leaflet-clickable" stroke-linejoin="round" stroke-linecap="round" fill-rule="evenodd" stroke="#005540" stroke-opacity="1" stroke-width="0.5" fill="#e6a583" fill-opacity="0.5" d="M428 254L428 256L426 256L424 260L425 261L424 258L425 255L427 255z"/></g><g><path class="class-02 leaflet-clickable" stroke-linejoin="round" stroke-linecap="round" fill-rule="evenodd" stroke="#005540" stroke-opacity="1" stroke-width="0.5" fill="#e6a583" fill-opacity="0.5" d="M423 252L423 252z"/></g><g><path class="class-02 leaflet-clickable" stroke-linejoin="round" stroke-linecap="round" fill-rule="evenodd" stroke="#005540" stroke-opacity="1" stroke-width="0.5" fill="#e6a583" fill-opacity="0.5" d="M405 224L405 226L404 224z"/></g><g><path class="class-02 leaflet-clickable" stroke-linejoin="round" stroke-linecap="round" fill-rule="evenodd" stroke="#005540" stroke-opacity="1" stroke-width="0.5" fill="#e6a583" fill-opacity="0.5" d="M408 219L407 219z"/></g><g><path class="class-02 leaflet-clickable" stroke-linejoin="round" stroke-linecap="round" fill-rule="evenodd" stroke="#005540" stroke-opacity="1" stroke-width="0.5" fill="#e6a583" fill-opacity="0.5" d="M334 208L334 208z"/></g><g><path class="class-02 leaflet-clickable" stroke-linejoin="round" stroke-linecap="round" fill-rule="evenodd" stroke="#005540" stroke-opacity="1" stroke-width="0.5" fill="#e6a583" fill-opacity="0.5" d="M356 205L389 205L391 212L399 218L402 224L401 225L408 229L406 230L406 232L408 234L410 233L413 235L416 241L419 243L418 244L422 254L422 262L427 268L429 268L430 274L437 285L435 293L438 300L444 302L444 298L447 298L452 302L452 305L456 306L456 308L459 311L459 314L464 317L465 324L461 329L452 334L449 330L447 320L443 316L439 314L427 302L417 297L412 298L402 290L402 287L399 286L404 274L404 261L398 250L391 248L376 236L374 235L371 238L364 231L360 231L357 227L353 227L350 224L349 220L336 209L337 208L349 211L355 208L356 206z"/></g><g><path class="class-12 leaflet-clickable" stroke-linejoin="round" stroke-linecap="round" fill-rule="evenodd" stroke="#005540" stroke-opacity="1" stroke-width="0.5" fill="#c0976b" fill-opacity="0.5" d="M683 211L679 215L675 210L671 213L670 220L664 222L660 226L661 229L667 229L667 235L665 239L664 240L662 237L652 247L661 258L660 261L664 267L667 268L665 268L669 271L669 273L674 273L674 276L663 275L661 277L661 281L663 283L661 285L660 292L658 293L650 286L644 288L642 286L643 285L629 278L623 278L624 281L619 279L614 288L605 282L606 281L600 275L600 273L602 271L603 272L600 268L604 262L603 252L605 249L603 241L595 238L595 236L592 233L594 230L590 210L591 209L589 209L589 206L591 206L591 203L597 192L596 191L604 179L608 180L609 177L613 173L614 174L613 172L615 170L616 164L620 159L624 159L627 156L638 159L646 158L648 162L650 162L650 164L651 163L651 165L664 176L668 188L672 193L671 194L683 210z"/></g><g><path class="class-22 leaflet-clickable" stroke-linejoin="round" stroke-linecap="round" fill-rule="evenodd" stroke="#005540" stroke-opacity="1" stroke-width="0.5" fill="#897c36" fill-opacity="0.5" d="M394 186L393 188L393 186z"/></g><g><path class="class-22 leaflet-clickable" stroke-linejoin="round" stroke-linecap="round" fill-rule="evenodd" stroke="#005540" stroke-opacity="1" stroke-width="0.5" fill="#897c36" fill-opacity="0.5" d="M400 173L402 179L399 186L394 182L395 175L399 173z"/></g><g><path class="class-22 leaflet-clickable" stroke-linejoin="round" stroke-linecap="round" fill-rule="evenodd" stroke="#005540" stroke-opacity="1" stroke-width="0.5" fill="#897c36" fill-opacity="0.5" d="M345 106L347 106L346 107z"/></g><g><path class="class-22 leaflet-clickable" stroke-linejoin="round" stroke-linecap="round" fill-rule="evenodd" stroke="#005540" stroke-opacity="1" stroke-width="0.5" fill="#897c36" fill-opacity="0.5" d="M342 86L422 115L427 118L480 118L479 120L477 120L478 123L481 125L480 126L482 126L479 126L479 129L476 129L476 132L478 135L477 136L484 141L483 144L485 145L483 145L483 158L485 158L485 160L482 160L483 166L481 168L481 182L484 186L486 196L474 198L473 202L477 209L476 210L480 213L482 217L484 222L482 224L485 231L488 231L482 239L482 241L480 241L477 244L477 246L469 248L469 244L467 241L462 238L457 238L453 229L445 227L441 223L438 223L439 209L437 207L436 208L432 206L432 208L430 208L430 206L424 204L418 195L414 193L408 186L409 184L402 180L402 173L400 170L399 171L397 169L398 167L394 162L392 156L389 155L389 148L381 134L382 122L376 119L369 118L369 114L364 110L356 113L347 106L340 103L338 96L339 95L337 93L339 91L339 87L342 87zM433 205L433 206z"/></g><g><path class="class-12 leaflet-clickable" stroke-linejoin="round" stroke-linecap="round" fill-rule="evenodd" stroke="#005540" stroke-opacity="1" stroke-width="0.5" fill="#c0976b" fill-opacity="0.5" d="M730 349L728 351L720 344L718 344L717 346L710 345L708 347L701 345L699 346L691 337L690 341L687 339L683 339L682 337L677 337L679 335L677 332L679 330L677 328L678 323L676 323L678 321L681 322L680 317L683 312L689 312L691 309L691 307L687 303L689 296L686 294L686 292L690 291L691 288L695 286L697 287L699 283L698 281L701 278L704 279L715 270L712 269L712 255L706 255L704 257L702 253L699 255L698 249L696 250L692 247L693 241L687 239L689 234L685 233L687 229L685 219L681 218L681 216L686 213L690 216L692 230L696 234L700 246L702 245L704 247L709 248L709 250L715 250L720 255L733 255L738 260L740 259L739 258L744 257L744 263L737 276L732 294L730 336L728 339L729 348z"/></g><g><path class="class-02 leaflet-clickable" stroke-linejoin="round" stroke-linecap="round" fill-rule="evenodd" stroke="#005540" stroke-opacity="1" stroke-width="0.5" fill="#e6a583" fill-opacity="0.5" d="M325 197L324 197z"/></g><g><path class="class-02 leaflet-clickable" stroke-linejoin="round" stroke-linecap="round" fill-rule="evenodd" stroke="#005540" stroke-opacity="1" stroke-width="0.5" fill="#e6a583" fill-opacity="0.5" d="M333 195L335 201L334 204L330 202L333 199L333 196z"/></g><g><path class="class-02 leaflet-clickable" stroke-linejoin="round" stroke-linecap="round" fill-rule="evenodd" stroke="#005540" stroke-opacity="1" stroke-width="0.5" fill="#e6a583" fill-opacity="0.5" d="M386 187L389 189L388 190L387 188z"/></g><g><path class="class-02 leaflet-clickable" stroke-linejoin="round" stroke-linecap="round" fill-rule="evenodd" stroke="#005540" stroke-opacity="1" stroke-width="0.5" fill="#e6a583" fill-opacity="0.5" d="M372 176L372 177z"/></g><g><path class="class-02 leaflet-clickable" stroke-linejoin="round" stroke-linecap="round" fill-rule="evenodd" stroke="#005540" stroke-opacity="1" stroke-width="0.5" fill="#e6a583" fill-opacity="0.5" d="M372 165L375 167L375 170L377 172L380 171L380 179L370 168L371 165z"/></g><g><path class="class-02 leaflet-clickable" stroke-linejoin="round" stroke-linecap="round" fill-rule="evenodd" stroke="#005540" stroke-opacity="1" stroke-width="0.5" fill="#e6a583" fill-opacity="0.5" d="M262 174L264 177L263 182L261 177L262 174z"/></g><g><path class="class-02 leaflet-clickable" stroke-linejoin="round" stroke-linecap="round" fill-rule="evenodd" stroke="#005540" stroke-opacity="1" stroke-width="0.5" fill="#e6a583" fill-opacity="0.5" d="M351 153L351 154z"/></g><g><path class="class-02 leaflet-clickable" stroke-linejoin="round" stroke-linecap="round" fill-rule="evenodd" stroke="#005540" stroke-opacity="1" stroke-width="0.5" fill="#e6a583" fill-opacity="0.5" d="M344 112L344 112z"/></g><g><path class="class-02 leaflet-clickable" stroke-linejoin="round" stroke-linecap="round" fill-rule="evenodd" stroke="#005540" stroke-opacity="1" stroke-width="0.5" fill="#e6a583" fill-opacity="0.5" d="M344 105L346 107L345 108L343 108L343 105z"/></g><g><path class="class-02 leaflet-clickable" stroke-linejoin="round" stroke-linecap="round" fill-rule="evenodd" stroke="#005540" stroke-opacity="1" stroke-width="0.5" fill="#e6a583" fill-opacity="0.5" d="M342 86L339 88L337 93L339 95L339 102L342 103L343 105L343 110L341 113L341 123L345 129L345 137L347 142L346 149L352 157L352 159L355 159L369 172L372 182L374 180L376 184L379 184L381 191L387 195L386 197L388 199L388 205L356 205L359 201L358 198L360 194L358 190L353 186L353 184L350 181L348 181L347 177L344 176L344 174L322 159L323 157L320 153L320 146L314 140L315 134L309 127L308 128L307 119L300 112L301 109L299 106L300 107L301 104L295 99L295 96L290 88L290 85L344 80L342 86z"/></g><g><path class="class-22 leaflet-clickable" stroke-linejoin="round" stroke-linecap="round" fill-rule="evenodd" stroke="#005540" stroke-opacity="1" stroke-width="0.5" fill="#897c36" fill-opacity="0.5" d="M344 444L344 444z"/></g><g><path class="class-22 leaflet-clickable" stroke-linejoin="round" stroke-linecap="round" fill-rule="evenodd" stroke="#005540" stroke-opacity="1" stroke-width="0.5" fill="#897c36" fill-opacity="0.5" d="M429 432L431 434L430 435L428 433L429 432z"/></g><g><path class="class-22 leaflet-clickable" stroke-linejoin="round" stroke-linecap="round" fill-rule="evenodd" stroke="#005540" stroke-opacity="1" stroke-width="0.5" fill="#897c36" fill-opacity="0.5" d="M600 429L594 436L580 426L573 424L574 425L577 422L578 423L586 421L585 420L587 416L592 419L596 416L600 420L600 429z"/></g><g><path class="class-22 leaflet-clickable" stroke-linejoin="round" stroke-linecap="round" fill-rule="evenodd" stroke="#005540" stroke-opacity="1" stroke-width="0.5" fill="#897c36" fill-opacity="0.5" d="M433 422L433 421z"/></g><g><path class="class-12 leaflet-clickable" stroke-linejoin="round" stroke-linecap="round" fill-rule="evenodd" stroke="#005540" stroke-opacity="1" stroke-width="0.5" fill="#c0976b" fill-opacity="0.5" d="M703 427L699 427L694 423L699 414L703 421L703 426z"/></g><g><path class="class-22 leaflet-clickable" stroke-linejoin="round" stroke-linecap="round" fill-rule="evenodd" stroke="#005540" stroke-opacity="1" stroke-width="0.5" fill="#897c36" fill-opacity="0.5" d="M469 248L473 248L478 244L479 241L483 239L487 229L493 230L492 233L494 233L497 236L497 245L503 253L512 253L514 256L513 258L519 262L519 264L521 264L518 267L516 267L517 270L515 271L517 275L517 280L519 280L522 286L527 289L530 295L529 296L532 299L535 299L535 297L541 299L543 305L546 308L544 308L545 316L548 317L550 321L549 322L551 324L551 328L557 329L554 333L554 340L555 339L556 342L555 343L551 341L550 344L532 325L531 321L525 315L520 307L502 294L486 274L473 269L470 265L466 265L464 257L469 248z"/></g><g><path class="class-12 leaflet-clickable" stroke-linejoin="round" stroke-linecap="round" fill-rule="evenodd" stroke="#005540" stroke-opacity="1" stroke-width="0.5" fill="#c0976b" fill-opacity="0.5" d="M637 355L636 356L638 358L633 359L629 364L625 364L619 361L616 362L614 360L619 352L619 348L625 347L627 345L631 347L630 348L633 348L633 352L637 355z"/></g><g><path class="class-22 leaflet-clickable" stroke-linejoin="round" stroke-linecap="round" fill-rule="evenodd" stroke="#005540" stroke-opacity="1" stroke-width="0.5" fill="#897c36" fill-opacity="0.5" d="M617 362L619 361L627 365L637 358L638 357L636 357L638 355L640 355L645 361L643 361L644 362L642 367L644 370L642 370L642 372L639 374L639 376L632 385L635 388L632 394L630 396L624 396L615 402L614 400L610 402L610 405L612 404L617 407L617 409L615 410L618 415L617 416L622 417L619 423L617 422L613 424L608 430L606 428L600 429L600 421L596 416L592 419L587 416L585 421L578 423L577 422L574 425L570 423L570 421L569 422L566 420L564 415L562 415L554 404L550 394L558 392L560 390L559 388L561 385L562 386L564 382L569 380L576 382L583 390L582 385L580 385L584 381L583 376L593 374L592 373L595 370L590 365L591 363L589 361L585 361L584 357L580 355L582 347L584 345L585 346L584 343L587 344L586 347L590 344L587 339L588 337L594 339L594 341L591 342L592 343L590 347L592 351L592 347L595 341L598 343L595 352L596 353L600 353L602 350L604 350L603 347L605 345L607 347L606 348L610 350L608 356L604 356L600 360L598 360L600 362L599 365L595 367L595 369L599 369L600 371L595 373L597 373L598 377L608 379L610 374L613 375L617 371L618 372L620 368L616 365L617 363z"/></g><g><path class="class-02 leaflet-clickable" stroke-linejoin="round" stroke-linecap="round" fill-rule="evenodd" stroke="#005540" stroke-opacity="1" stroke-width="0.5" fill="#e6a583" fill-opacity="0.5" d="M701 373L700 376L696 378L695 376L690 386L691 388L683 391L683 398L681 397L681 402L677 404L674 401L674 398L672 398L668 394L666 385L669 382L677 382L678 379L679 380L679 375L685 375L687 373L684 372L686 366L693 370L698 364L700 373z"/></g><g><path class="class-12 leaflet-clickable" stroke-linejoin="round" stroke-linecap="round" fill-rule="evenodd" stroke="#005540" stroke-opacity="1" stroke-width="0.5" fill="#c0976b" fill-opacity="0.5" d="M604 179L596 191L597 192L591 202L591 207L590 206L589 209L591 209L591 223L593 224L594 229L592 234L595 236L595 238L583 235L581 236L582 237L575 247L571 243L565 245L563 243L558 244L557 242L556 243L550 240L549 238L548 239L545 236L544 237L542 234L541 237L539 237L540 238L537 242L537 246L532 253L533 257L530 258L530 264L532 262L528 267L524 267L513 258L514 257L511 252L503 253L501 251L497 245L497 237L494 233L492 233L492 229L486 231L484 230L485 229L484 230L484 227L482 225L484 222L482 219L483 217L481 216L480 212L476 210L478 209L473 202L473 198L486 196L486 192L481 181L482 176L480 174L480 172L482 172L481 168L483 166L482 160L485 159L483 157L483 145L485 146L482 138L478 137L476 133L476 130L479 129L479 126L482 126L480 126L481 125L478 123L479 121L477 121L480 118L493 118L493 106L496 105L533 106L538 113L541 116L543 116L554 128L564 135L566 135L566 137L568 137L569 143L573 148L573 156L576 159L576 161L580 165L584 166L583 167L586 170L593 172L604 179z"/></g><g><path class="class-02 leaflet-clickable" stroke-linejoin="round" stroke-linecap="round" fill-rule="evenodd" stroke="#005540" stroke-opacity="1" stroke-width="0.5" fill="#e6a583" fill-opacity="0.5" d="M683 398L688 401L691 400L691 407L694 409L693 410L697 407L697 405L702 405L702 403L703 409L705 407L708 407L711 410L709 414L711 418L711 428L706 430L703 427L703 421L701 419L700 414L694 421L696 425L695 430L692 431L693 433L690 436L686 434L687 435L685 435L683 438L679 438L673 444L669 439L670 438L668 437L669 434L666 431L675 418L673 412L676 411L676 403L680 403L680 399L682 398z"/></g><g><path class="class-12 leaflet-clickable" stroke-linejoin="round" stroke-linecap="round" fill-rule="evenodd" stroke="#005540" stroke-opacity="1" stroke-width="0.5" fill="#c0976b" fill-opacity="0.5" d="M685 368L684 371L685 373L687 373L683 376L679 375L680 376L678 382L669 382L666 385L668 393L672 398L670 402L671 405L658 406L655 402L653 402L653 404L649 404L647 402L647 400L649 399L646 398L646 396L644 396L641 399L635 399L635 397L632 394L635 391L632 384L635 382L639 374L642 373L641 370L643 370L642 367L644 363L643 362L645 360L651 360L653 362L655 361L663 367L669 367L670 363L672 363L682 369L684 368z"/></g><g><path class="class-22 leaflet-clickable" stroke-linejoin="round" stroke-linecap="round" fill-rule="evenodd" stroke="#005540" stroke-opacity="1" stroke-width="0.5" fill="#897c36" fill-opacity="0.5" d="M661 292L663 295L658 299L656 297L655 301L653 302L652 308L647 313L639 320L634 322L631 322L629 320L627 323L629 323L627 325L631 336L635 340L637 339L637 342L639 344L642 343L646 337L649 338L648 339L650 343L648 344L647 348L649 350L649 355L646 359L645 360L644 358L637 355L633 352L633 348L632 349L627 345L625 347L619 348L619 352L614 359L617 363L617 366L620 368L619 371L617 371L613 375L610 374L610 378L608 379L604 379L597 376L595 372L599 371L599 369L595 369L595 367L599 365L600 362L598 360L608 355L610 350L608 348L607 349L605 345L603 347L604 350L602 350L601 353L595 352L598 349L598 344L597 342L595 342L593 343L592 351L590 347L592 343L591 342L594 341L594 339L591 337L587 338L590 343L587 347L587 343L585 343L583 347L581 346L582 338L586 336L584 331L587 319L592 315L593 316L592 306L596 302L598 302L598 299L600 299L602 295L614 295L617 297L622 296L623 291L619 283L619 280L624 281L623 278L632 279L637 281L639 284L643 285L642 286L644 288L650 286L653 288L654 291L658 293L661 292z"/></g><g><path class="class-02 leaflet-clickable" stroke-linejoin="round" stroke-linecap="round" fill-rule="evenodd" stroke="#005540" stroke-opacity="1" stroke-width="0.5" fill="#e6a583" fill-opacity="0.5" d="M710 417L709 414L715 414L718 412L717 411L723 411L728 415L728 417L730 417L733 420L732 422L729 421L727 424L724 423L721 426L714 420L713 417L711 418z"/></g><g><path class="class-22 leaflet-clickable" stroke-linejoin="round" stroke-linecap="round" fill-rule="evenodd" stroke="#005540" stroke-opacity="1" stroke-width="0.5" fill="#897c36" fill-opacity="0.5" d="M538 371L537 371z"/></g><g><path class="class-22 leaflet-clickable" stroke-linejoin="round" stroke-linecap="round" fill-rule="evenodd" stroke="#005540" stroke-opacity="1" stroke-width="0.5" fill="#897c36" fill-opacity="0.5" d="M533 368L535 369L534 370L532 368z"/></g><g><path class="class-22 leaflet-clickable" stroke-linejoin="round" stroke-linecap="round" fill-rule="evenodd" stroke="#005540" stroke-opacity="1" stroke-width="0.5" fill="#897c36" fill-opacity="0.5" d="M528 363L530 363L531 366L529 366L528 364z"/></g><g><path class="class-22 leaflet-clickable" stroke-linejoin="round" stroke-linecap="round" fill-rule="evenodd" stroke="#005540" stroke-opacity="1" stroke-width="0.5" fill="#897c36" fill-opacity="0.5" d="M528 361L527 362z"/></g><g><path class="class-22 leaflet-clickable" stroke-linejoin="round" stroke-linecap="round" fill-rule="evenodd" stroke="#005540" stroke-opacity="1" stroke-width="0.5" fill="#897c36" fill-opacity="0.5" d="M580 346L582 347L580 356L584 356L585 360L589 361L591 363L590 366L595 370L592 373L593 374L583 376L584 381L580 385L583 387L583 389L572 380L563 382L560 388L558 386L553 386L561 376L561 367L560 368L555 364L551 356L551 349L548 343L549 342L549 344L551 341L556 343L554 339L554 333L557 329L558 332L566 332L565 333L568 337L564 339L566 343L570 340L575 344L576 347L580 345z"/></g><g><path class="class-22 leaflet-clickable" stroke-linejoin="round" stroke-linecap="round" fill-rule="evenodd" stroke="#005540" stroke-opacity="1" stroke-width="0.5" fill="#897c36" fill-opacity="0.5" d="M671 397L675 399L674 401L677 404L676 405L678 408L676 408L674 412L675 419L672 420L670 426L664 433L661 432L662 439L665 441L665 444L661 441L658 442L656 440L650 439L646 441L640 438L637 439L636 441L637 446L630 449L630 455L600 445L594 436L600 429L605 428L608 430L611 427L611 425L612 426L612 424L617 422L618 423L620 421L621 417L617 417L618 415L615 410L617 408L616 406L610 405L610 402L613 401L612 400L617 401L623 396L630 395L634 395L633 396L635 396L637 400L641 400L642 397L646 396L646 398L649 399L647 399L647 402L649 404L653 404L653 402L655 402L658 406L668 406L671 405L670 402L672 398z"/></g><g><path class="class-12 leaflet-clickable" stroke-linejoin="round" stroke-linecap="round" fill-rule="evenodd" stroke="#005540" stroke-opacity="1" stroke-width="0.5" fill="#c0976b" fill-opacity="0.5" d="M595 238L603 241L605 249L603 252L604 261L600 268L604 272L601 272L600 275L606 281L605 282L612 287L614 287L619 279L623 294L622 296L619 297L615 297L614 295L604 295L592 306L593 315L591 315L591 317L588 319L585 326L584 331L586 336L582 337L582 344L577 347L573 342L571 342L571 340L569 340L567 343L565 341L564 339L568 337L565 333L566 332L558 332L556 328L553 329L551 327L549 322L550 321L547 316L545 317L544 308L546 309L544 307L543 302L538 297L535 297L535 299L531 299L527 289L517 280L515 271L517 269L516 268L521 265L520 264L523 267L527 267L532 263L530 264L530 258L533 257L532 254L537 246L539 236L540 237L542 234L544 237L545 236L548 239L549 238L555 243L563 243L564 245L570 243L575 247L583 235L587 237L592 237z"/></g><g><path class="class-02 leaflet-clickable" stroke-linejoin="round" stroke-linecap="round" fill-rule="evenodd" stroke="#005540" stroke-opacity="1" stroke-width="0.5" fill="#e6a583" fill-opacity="0.5" d="M967 443L968 440L968 442z"/></g><g><path class="class-02 leaflet-clickable" stroke-linejoin="round" stroke-linecap="round" fill-rule="evenodd" stroke="#005540" stroke-opacity="1" stroke-width="0.5" fill="#e6a583" fill-opacity="0.5" d="M969 435L969 437L969 435z"/></g><g><path class="class-02 leaflet-clickable" stroke-linejoin="round" stroke-linecap="round" fill-rule="evenodd" stroke="#005540" stroke-opacity="1" stroke-width="0.5" fill="#e6a583" fill-opacity="0.5" d="M981 391L975 398L975 394L977 391L982 390z"/></g><g><path class="class-02 leaflet-clickable" stroke-linejoin="round" stroke-linecap="round" fill-rule="evenodd" stroke="#005540" stroke-opacity="1" stroke-width="0.5" fill="#e6a583" fill-opacity="0.5" d="M926 454L925 450L927 449L927 425L926 418L923 415L926 413L927 414L927 412L929 412L929 410L934 407L934 405L937 404L938 401L941 401L943 398L949 397L953 394L960 386L963 380L963 368L970 370L973 369L974 366L979 373L979 370L980 371L980 379L977 385L965 399L965 409L964 410L965 406L964 409L958 412L960 416L965 413L966 414L965 418L960 420L960 424L963 421L965 421L963 423L955 449L952 449L952 443L947 443L947 441L941 441L939 447L936 449L933 455L929 452L927 454z"/></g><g><path class="class-02 leaflet-clickable" stroke-linejoin="round" stroke-linecap="round" fill-rule="evenodd" stroke="#005540" stroke-opacity="1" stroke-width="0.5" fill="#e6a583" fill-opacity="0.5" d="M973 365L971 367L966 368L968 366L972 366z"/></g><g><path class="class-02 leaflet-clickable" stroke-linejoin="round" stroke-linecap="round" fill-rule="evenodd" stroke="#005540" stroke-opacity="1" stroke-width="0.5" fill="#e6a583" fill-opacity="0.5" d="M725 392L721 397L718 398L722 399L722 401L718 407L720 410L717 411L718 412L716 414L710 414L711 409L708 407L704 407L703 409L702 406L704 404L702 403L702 405L699 404L697 408L695 408L694 410L694 408L691 405L691 400L688 401L683 398L683 391L688 390L690 388L694 379L693 378L701 376L703 372L704 375L710 376L710 372L714 370L713 373L716 376L719 375L718 376L720 376L722 379L719 383L720 385L715 384L712 388L714 387L712 396L717 395L723 389L725 391z"/></g><g><path class="class-02 leaflet-clickable" stroke-linejoin="round" stroke-linecap="round" fill-rule="evenodd" stroke="#005540" stroke-opacity="1" stroke-width="0.5" fill="#e6a583" fill-opacity="0.5" d="M963 368L963 380L960 386L949 398L943 398L937 404L935 404L934 407L932 407L933 408L927 414L926 413L923 415L920 413L916 407L916 404L913 400L911 400L907 393L904 394L899 391L898 384L900 379L910 374L936 370L940 367L945 367L948 365L963 368z"/></g><g><path class="class-02 leaflet-clickable" stroke-linejoin="round" stroke-linecap="round" fill-rule="evenodd" stroke="#005540" stroke-opacity="1" stroke-width="0.5" fill="#e6a583" fill-opacity="0.5" d="M913 341L916 342L917 344L915 346L912 343L913 341z"/></g><g><path class="class-12 leaflet-clickable" stroke-linejoin="round" stroke-linecap="round" fill-rule="evenodd" stroke="#005540" stroke-opacity="1" stroke-width="0.5" fill="#c0976b" fill-opacity="0.5" d="M703 427L706 430L710 428L708 434L709 441L708 442L706 440L701 444L695 441L691 436L696 425L703 427z"/></g><g><path class="class-12 leaflet-clickable" stroke-linejoin="round" stroke-linecap="round" fill-rule="evenodd" stroke="#005540" stroke-opacity="1" stroke-width="0.5" fill="#c0976b" fill-opacity="0.5" d="M677 325L679 329L677 331L679 335L677 337L682 337L690 341L691 337L699 346L712 346L718 350L712 357L714 357L714 361L710 365L713 368L713 370L709 372L711 372L710 376L706 376L703 372L700 373L698 364L693 370L691 370L687 366L685 366L685 368L682 369L673 363L671 363L669 367L665 368L661 366L658 362L645 360L649 355L649 351L647 348L650 344L648 339L649 338L646 337L644 341L643 340L642 343L639 344L637 342L637 339L635 340L630 335L628 330L629 328L627 325L629 323L627 323L629 320L631 322L639 320L652 308L652 302L655 301L656 296L658 299L663 295L666 296L665 301L668 303L668 326L671 327L671 324L672 325L673 323L675 323L674 325L676 325z"/></g><g><path class="class-02 leaflet-clickable" stroke-linejoin="round" stroke-linecap="round" fill-rule="evenodd" stroke="#005540" stroke-opacity="1" stroke-width="0.5" fill="#e6a583" fill-opacity="0.5" d="M898 384L898 391L902 391L903 394L906 393L911 397L910 398L916 404L919 412L926 418L926 457L885 457L885 453L875 451L872 449L873 448L870 451L870 455L858 449L858 444L854 442L851 438L854 436L862 436L865 438L882 428L891 420L891 412L897 405L896 391L898 384z"/></g><g><path class="class-12 leaflet-clickable" stroke-linejoin="round" stroke-linecap="round" fill-rule="evenodd" stroke="#005540" stroke-opacity="1" stroke-width="0.5" fill="#c0976b" fill-opacity="0.5" d="M885 457L885 470L874 470L875 467L869 465L870 462L866 459L866 455L862 455L855 460L854 459L854 461L852 463L848 463L848 465L845 468L843 466L842 467L843 466L841 464L839 464L837 459L838 456L836 456L837 455L834 453L831 454L831 460L827 464L825 469L823 467L825 463L823 463L819 458L814 456L815 452L813 448L829 442L842 442L845 440L845 438L850 437L853 442L857 442L858 449L861 450L862 452L870 456L870 450L873 448L873 450L879 453L885 453L885 455z"/></g><g><path class="class-11 leaflet-clickable" stroke-linejoin="round" stroke-linecap="round" fill-rule="evenodd" stroke="#005540" stroke-opacity="1" stroke-width="0.5" fill="#cbc39a" fill-opacity="0.5" d="M730 349L732 357L740 366L738 372L739 378L746 392L753 398L760 407L763 419L768 424L768 426L771 427L773 432L778 435L787 435L797 440L804 449L813 447L814 456L822 460L824 463L824 470L822 470L819 473L795 472L796 470L791 467L787 462L789 460L788 459L786 459L780 464L777 464L773 459L775 454L774 449L766 449L767 448L766 449L764 447L759 438L755 437L754 444L752 440L748 439L746 441L743 437L740 436L742 431L741 428L748 422L739 419L740 418L738 416L738 414L741 411L741 407L745 401L738 398L735 402L731 400L732 397L730 395L731 393L732 394L735 392L732 391L730 384L728 384L727 390L725 391L723 388L722 391L717 395L712 396L713 395L711 392L714 390L715 387L713 388L717 383L717 385L719 385L720 380L722 378L718 376L719 375L716 376L713 373L714 370L713 371L710 365L715 361L712 356L714 357L715 353L718 350L710 346L716 346L719 344L725 347L728 351L729 349z"/></g><g><path class="class-01 leaflet-clickable" stroke-linejoin="round" stroke-linecap="round" fill-rule="evenodd" stroke="#005540" stroke-opacity="1" stroke-width="0.5" fill="#f1d2b2" fill-opacity="0.5" d="M754 443L750 447L745 449L742 448L737 452L735 452L733 446L729 446L729 453L731 451L732 452L730 452L727 455L725 453L721 453L721 455L716 456L715 453L711 454L701 446L701 444L704 441L709 442L708 434L711 428L710 417L712 417L721 426L724 423L727 425L729 422L733 421L730 417L727 416L728 415L726 413L724 413L724 411L719 412L720 411L718 408L723 401L721 398L718 398L721 397L727 390L728 384L731 385L731 389L735 392L730 395L732 397L731 400L735 402L738 398L744 401L738 416L740 418L739 419L748 422L746 424L747 425L743 424L740 437L741 436L746 441L750 439L754 443z"/></g><g><path class="class-01 leaflet-clickable" stroke-linejoin="round" stroke-linecap="round" fill-rule="evenodd" stroke="#005540" stroke-opacity="1" stroke-width="0.5" fill="#f1d2b2" fill-opacity="0.5" d="M691 435L695 441L699 441L701 446L706 450L705 451L708 452L706 452L709 454L715 454L714 460L718 464L718 471L719 470L720 473L724 475L723 480L720 484L721 485L717 487L716 491L712 493L707 487L705 488L695 484L687 484L679 478L655 470L656 469L651 465L647 464L638 455L630 452L631 448L637 445L637 439L639 438L643 438L643 440L645 441L661 441L663 443L664 442L664 444L665 441L663 441L662 439L661 432L664 433L666 431L669 434L668 437L673 444L679 438L683 438L687 434L690 436z"/></g><g><path class="class-01 leaflet-clickable" stroke-linejoin="round" stroke-linecap="round" fill-rule="evenodd" stroke="#005540" stroke-opacity="1" stroke-width="0.5" fill="#f1d2b2" fill-opacity="0.5" d="M819 473L813 489L815 492L814 496L816 500L810 497L800 495L788 496L783 501L779 501L769 506L768 505L765 508L756 508L747 505L744 502L730 501L720 494L713 493L717 490L716 487L721 485L720 484L723 481L723 477L725 475L720 474L719 470L718 471L718 464L714 460L715 456L719 454L720 455L722 453L726 453L729 455L731 452L730 451L729 453L728 448L733 445L735 452L742 448L747 449L754 443L755 437L761 440L766 449L774 449L775 454L773 459L777 463L780 464L786 459L788 459L789 460L787 462L791 467L796 470L795 471L814 473z"/></g><g><path class="class-11 leaflet-clickable" stroke-linejoin="round" stroke-linecap="round" fill-rule="evenodd" stroke="#005540" stroke-opacity="1" stroke-width="0.5" fill="#cbc39a" fill-opacity="0.5" d="M874 470L877 473L878 472L878 474L882 476L881 477L886 481L891 483L892 488L898 491L897 498L868 498L857 518L860 522L857 527L858 531L856 535L828 507L820 501L815 500L813 496L815 495L815 492L813 489L819 473L827 466L827 464L831 460L830 458L833 453L836 455L836 457L838 457L837 459L840 465L841 464L843 466L842 467L843 466L845 468L849 463L854 462L853 461L859 458L859 456L862 454L865 455L865 459L869 460L869 466L874 467L875 470z"/></g></svg>