<svg xmlns="http://www.w3.org/2000/svg" width="999.5" height="600"><g transform="translate(39.5,19.5)" class="gRoot"><g class="x axis" transform="translate(0,540.5)"><g class="tick" transform="translate(73.83829417227625,0)" style="opacity: 1;"><line y2="6" x2="0"/><text dy=".71em" y="9" x="0" style="text-anchor: middle;">15</text></g><g class="tick" transform="translate(165.96680802895222,0)" style="opacity: 1;"><line y2="6" x2="0"/><text dy=".71em" y="9" x="0" style="text-anchor: middle;">20</text></g><g class="tick" transform="translate(258.0953218856282,0)" style="opacity: 1;"><line y2="6" x2="0"/><text dy=".71em" y="9" x="0" style="text-anchor: middle;">25</text></g><g class="tick" transform="translate(350.2238357423042,0)" style="opacity: 1;"><line y2="6" x2="0"/><text dy=".71em" y="9" x="0" style="text-anchor: middle;">30</text></g><g class="tick" transform="translate(442.35234959898014,0)" style="opacity: 1;"><line y2="6" x2="0"/><text dy=".71em" y="9" x="0" style="text-anchor: middle;">35</text></g><g class="tick" transform="translate(534.480863455656,0)" style="opacity: 1;"><line y2="6" x2="0"/><text dy=".71em" y="9" x="0" style="text-anchor: middle;">40</text></g><g class="tick" transform="translate(626.6093773123322,0)" style="opacity: 1;"><line y2="6" x2="0"/><text dy=".71em" y="9" x="0" style="text-anchor: middle;">45</text></g><g class="tick" transform="translate(718.7378911690081,0)" style="opacity: 1;"><line y2="6" x2="0"/><text dy=".71em" y="9" x="0" style="text-anchor: middle;">50</text></g><g class="tick" transform="translate(810.8664050256841,0)" style="opacity: 1;"><line y2="6" x2="0"/><text dy=".71em" y="9" x="0" style="text-anchor: middle;">55</text></g><g class="tick" transform="translate(902.99491888236,0)" style="opacity: 1;"><line y2="6" x2="0"/><text dy=".71em" y="9" x="0" style="text-anchor: middle;">60</text></g><path class="domain" d="M0,6V0H940.5V6"/></g><g class="y axis"><g class="tick" transform="translate(0,490.4048780487805)" style="opacity: 1;"><line x2="-6" y2="0"/><text dy=".32em" x="-9" y="0" style="text-anchor: end;">2</text></g><g class="tick" transform="translate(0,437.67317073170733)" style="opacity: 1;"><line x2="-6" y2="0"/><text dy=".32em" x="-9" y="0" style="text-anchor: end;">4</text></g><g class="tick" transform="translate(0,384.94146341463414)" style="opacity: 1;"><line x2="-6" y2="0"/><text dy=".32em" x="-9" y="0" style="text-anchor: end;">6</text></g><g class="tick" transform="translate(0,332.20975609756096)" style="opacity: 1;"><line x2="-6" y2="0"/><text dy=".32em" x="-9" y="0" style="text-anchor: end;">8</text></g><g class="tick" transform="translate(0,279.4780487804878)" style="opacity: 1;"><line x2="-6" y2="0"/><text dy=".32em" x="-9" y="0" style="text-anchor: end;">10</text></g><g class="tick" transform="translate(0,226.7463414634146)" style="opacity: 1;"><line x2="-6" y2="0"/><text dy=".32em" x="-9" y="0" style="text-anchor: end;">12</text></g><g class="tick" transform="translate(0,174.01463414634145)" style="opacity: 1;"><line x2="-6" y2="0"/><text dy=".32em" x="-9" y="0" style="text-anchor: end;">14</text></g><g class="tick" transform="translate(0,121.28292682926828)" style="opacity: 1;"><line x2="-6" y2="0"/><text dy=".32em" x="-9" y="0" style="text-anchor: end;">16</text></g><g class="tick" transform="translate(0,68.55121951219519)" style="opacity: 1;"><line x2="-6" y2="0"/><text dy=".32em" x="-9" y="0" style="text-anchor: end;">18</text></g><g class="tick" transform="translate(0,15.819512195121966)" style="opacity: 1;"><line x2="-6" y2="0"/><text dy=".32em" x="-9" y="0" style="text-anchor: end;">20</text></g><path class="domain" d="M-6,0H0V540.5H-6"/></g><text class="x label" text-anchor="end" x="627" y="576.5">Tasa de mortalidad en niños menores de 5 años</text><text class="y label" text-anchor="end" y="-40" x="-100" dy=".75em" transform="rotate(-90)">Proporción de la población con ingresos inferiores a 1.25 dólares diarios</text><text class="year label" text-anchor="end" y="516.5" x="940.5">2011</text><text class="country label" text-anchor="start" y="80" x="40"/><g class="dots"><circle class="dot" cx="185.08579297613517" cy="92.28048780487806" r="5" style="fill: rgb(0, 204, 153); opacity: 1;"><title>Chiapas</title></circle><circle class="dot" cx="193.33775022701658" cy="225.42804878048776" r="5" style="fill: rgb(0, 204, 153); opacity: 1;"><title>Oaxaca</title></circle><circle class="dot" cx="194.75265017720494" cy="395.4878048780488" r="5" style="fill: rgb(0, 204, 153); opacity: 1;"><title>Puebla</title></circle><circle class="dot" cx="190.80964117562493" cy="210.9268292682927" r="5" style="fill: rgb(0, 204, 153); opacity: 1;"><title>Guerrero</title></circle><circle class="dot" cx="99.9374812828141" cy="441.62804878048786" r="5" style="fill: rgb(0, 204, 153); opacity: 1;"><title>Tlaxcala</title></circle><circle class="dot" cx="138.7617861519743" cy="417.8987804878049" r="5" style="fill: rgb(0, 204, 153); opacity: 1;"><title>Hidalgo</title></circle><circle class="dot" cx="128.9152693202896" cy="387.5780487804878" r="5" style="fill: rgb(0, 204, 153); opacity: 1;"><title>Veracruz</title></circle><circle class="dot" cx="143.3944104302935" cy="493.04146341463417" r="5" style="fill: rgb(0, 204, 153); opacity: 1;"><title>México</title></circle><circle class="dot" cx="150.0666343421066" cy="449.5378048780488" r="5" style="fill: rgb(0, 204, 153); opacity: 1;"><title>Chihuahua</title></circle><circle class="dot" cx="130.15937922040618" cy="487.76829268292687" r="5" style="fill: rgb(0, 204, 153); opacity: 1;"><title>Baja California</title></circle><circle class="dot" cx="111.06129491639079" cy="375.7134146341463" r="5" style="fill: rgb(0, 204, 153); opacity: 1;"><title>San Luis Potosí</title></circle><circle class="dot" cx="58.060934059140536" cy="437.67317073170733" r="5" style="fill: rgb(0, 204, 153); opacity: 1;"><title>Michoacán</title></circle><circle class="dot" cx="51.70725775049285" cy="469.3121951219512" r="5" style="fill: rgb(0, 204, 153); opacity: 1;"><title>Guanajuato</title></circle><circle class="dot" cx="48.59880926373174" cy="453.4926829268293" r="5" style="fill: rgb(0, 204, 153); opacity: 1;"><title>Querétaro</title></circle><circle class="dot" cx="107.8881563667979" cy="446.9012195121951" r="5" style="fill: rgb(0, 204, 153); opacity: 1;"><title>Tabasco</title></circle><circle class="dot" cx="77.53251067495736" cy="460.0841463414634" r="5" style="fill: rgb(0, 204, 153); opacity: 1;"><title>Quintana Roo</title></circle><circle class="dot" cx="51.58794690287978" cy="316.39024390243907" r="5" style="fill: rgb(0, 204, 153); opacity: 1;"><title>Zacatecas</title></circle><circle class="dot" cx="112.61785848699517" cy="403.39756097560974" r="5" style="fill: rgb(0, 204, 153); opacity: 1;"><title>Durango</title></circle><circle class="dot" cx="86.62124247310263" cy="489.0865853658537" r="5" style="fill: rgb(0, 204, 153); opacity: 1;"><title>Morelos</title></circle><circle class="dot" cx="115.05704970323804" cy="415.2621951219512" r="5" style="fill: rgb(0, 204, 153); opacity: 1;"><title>Campeche</title></circle><circle class="dot" cx="66.52758188674568" cy="369.12195121951214" r="5" style="fill: rgb(0, 204, 153); opacity: 1;"><title>Nayarit</title></circle><circle class="dot" cx="41.400963989041024" cy="487.76829268292687" r="5" style="fill: rgb(0, 204, 153); opacity: 1;"><title>Sonora</title></circle><circle class="dot" cx="51.078632286954864" cy="508.86097560975605" r="5" style="fill: rgb(0, 204, 153); opacity: 1;"><title>Tamaulipas</title></circle><circle class="dot" cx="29.7587076463865" cy="494.359756097561" r="5" style="fill: rgb(0, 204, 153); opacity: 1;"><title>Yucatán</title></circle><circle class="dot" cx="67.10653312966838" cy="462.72073170731704" r="5" style="fill: rgb(0, 204, 153); opacity: 1;"><title>Jalisco</title></circle><circle class="dot" cx="12.044600725397546" cy="474.5853658536585" r="5" style="fill: rgb(0, 204, 153); opacity: 1;"><title>Baja California Sur</title></circle><circle class="dot" cx="53.98932065398366" cy="490.4048780487805" r="5" style="fill: rgb(0, 204, 153); opacity: 1;"><title>Colima</title></circle><circle class="dot" cx="13.237582801207115" cy="453.4926829268293" r="5" style="fill: rgb(0, 204, 153); opacity: 1;"><title>Aguascalientes</title></circle><circle class="dot" cx="100.17558300470802" cy="524.680487804878" r="5" style="fill: rgb(0, 204, 153); opacity: 1;"><title>Distrito Federal</title></circle><circle class="dot" cx="55.06337053037216" cy="477.2219512195122" r="5" style="fill: rgb(0, 204, 153); opacity: 1;"><title>Sinaloa</title></circle><circle class="dot" cx="15.101301547210504" cy="496.99634146341464" r="5" style="fill: rgb(0, 204, 153); opacity: 1;"><title>Coahuila</title></circle><circle class="dot" cx="0.03278780105347725" cy="522.0439024390244" r="5" style="fill: rgb(0, 204, 153); opacity: 1;"><title>Nuevo León</title></circle></g></g></svg>