<svg xmlns="http://www.w3.org/2000/svg" class="leaflet-zoom-animated" width="2000" height="898" viewBox="-360 -162 2000 898" style="transform: translate3d(-360px, -162px, 0px);"><g><path class="class-3 leaflet-clickable" stroke-linejoin="round" stroke-linecap="round" fill-rule="evenodd" stroke="#005540" stroke-opacity="1" stroke-width="0.5" fill="#086" fill-opacity="0.5" d="M678 398L683 401L686 400L686 407L689 409L688 410L692 407L692 405L697 405L697 403L698 409L700 407L703 407L706 410L704 414L706 418L706 428L701 430L698 427L698 421L696 419L695 414L689 421L691 425L690 430L687 431L688 433L685 436L681 434L682 435L680 435L678 438L674 438L668 444L664 439L665 438L663 437L664 434L661 431L670 418L668 412L671 411L671 403L675 403L675 399L677 398z"/></g><g><path class="class-3 leaflet-clickable" stroke-linejoin="round" stroke-linecap="round" fill-rule="evenodd" stroke="#005540" stroke-opacity="1" stroke-width="0.5" fill="#086" fill-opacity="0.5" d="M339 444L339 444z"/></g><g><path class="class-3 leaflet-clickable" stroke-linejoin="round" stroke-linecap="round" fill-rule="evenodd" stroke="#005540" stroke-opacity="1" stroke-width="0.5" fill="#086" fill-opacity="0.5" d="M424 432L426 434L425 435L423 433L424 432z"/></g><g><path class="class-3 leaflet-clickable" stroke-linejoin="round" stroke-linecap="round" fill-rule="evenodd" stroke="#005540" stroke-opacity="1" stroke-width="0.5" fill="#086" fill-opacity="0.5" d="M595 429L589 436L575 426L568 424L569 425L572 422L573 423L581 421L580 420L582 416L587 419L591 416L595 420L595 429z"/></g><g><path class="class-3 leaflet-clickable" stroke-linejoin="round" stroke-linecap="round" fill-rule="evenodd" stroke="#005540" stroke-opacity="1" stroke-width="0.5" fill="#086" fill-opacity="0.5" d="M428 422L428 421z"/></g><g><path class="class-3 leaflet-clickable" stroke-linejoin="round" stroke-linecap="round" fill-rule="evenodd" stroke="#005540" stroke-opacity="1" stroke-width="0.5" fill="#086" fill-opacity="0.5" d="M698 427L694 427L689 423L694 414L698 421L698 426z"/></g><g><path class="class-3 leaflet-clickable" stroke-linejoin="round" stroke-linecap="round" fill-rule="evenodd" stroke="#005540" stroke-opacity="1" stroke-width="0.5" fill="#086" fill-opacity="0.5" d="M533 371L532 371z"/></g><g><path class="class-3 leaflet-clickable" stroke-linejoin="round" stroke-linecap="round" fill-rule="evenodd" stroke="#005540" stroke-opacity="1" stroke-width="0.5" fill="#086" fill-opacity="0.5" d="M528 368L530 369L529 370L527 368z"/></g><g><path class="class-3 leaflet-clickable" stroke-linejoin="round" stroke-linecap="round" fill-rule="evenodd" stroke="#005540" stroke-opacity="1" stroke-width="0.5" fill="#086" fill-opacity="0.5" d="M523 363L525 363L526 366L524 366L523 364z"/></g><g><path class="class-3 leaflet-clickable" stroke-linejoin="round" stroke-linecap="round" fill-rule="evenodd" stroke="#005540" stroke-opacity="1" stroke-width="0.5" fill="#086" fill-opacity="0.5" d="M523 361L522 362z"/></g><g><path class="class-3 leaflet-clickable" stroke-linejoin="round" stroke-linecap="round" fill-rule="evenodd" stroke="#005540" stroke-opacity="1" stroke-width="0.5" fill="#086" fill-opacity="0.5" d="M575 346L577 347L575 356L579 356L580 360L584 361L586 363L585 366L590 370L587 373L588 374L578 376L579 381L575 385L578 387L578 389L567 380L558 382L555 388L553 386L548 386L556 376L556 367L555 368L550 364L546 356L546 349L543 343L544 342L544 344L546 341L551 343L549 339L549 333L552 329L553 332L561 332L560 333L563 337L559 339L561 343L565 340L570 344L571 347L575 345z"/></g><g><path class="class-3 leaflet-clickable" stroke-linejoin="round" stroke-linecap="round" fill-rule="evenodd" stroke="#005540" stroke-opacity="1" stroke-width="0.5" fill="#086" fill-opacity="0.5" d="M705 417L704 414L710 414L713 412L712 411L718 411L723 415L723 417L725 417L728 420L727 422L724 421L722 424L719 423L716 426L709 420L708 417L706 418z"/></g><g><path class="class-2 leaflet-clickable" stroke-linejoin="round" stroke-linecap="round" fill-rule="evenodd" stroke="#005540" stroke-opacity="1" stroke-width="0.5" fill="#00cc99" fill-opacity="0.5" d="M749 443L745 447L740 449L737 448L732 452L730 452L728 446L724 446L724 453L726 451L727 452L725 452L722 455L720 453L716 453L716 455L711 456L710 453L706 454L696 446L696 444L699 441L704 442L703 434L706 428L705 417L707 417L716 426L719 423L722 425L724 422L728 421L725 417L722 416L723 415L721 413L719 413L719 411L714 412L715 411L713 408L718 401L716 398L713 398L716 397L722 390L723 384L726 385L726 389L730 392L725 395L727 397L726 400L730 402L733 398L739 401L733 416L735 418L734 419L743 422L741 424L742 425L738 424L735 437L736 436L741 441L745 439L749 443z"/></g><g><path class="class-2 leaflet-clickable" stroke-linejoin="round" stroke-linecap="round" fill-rule="evenodd" stroke="#005540" stroke-opacity="1" stroke-width="0.5" fill="#00cc99" fill-opacity="0.5" d="M698 427L701 430L705 428L703 434L704 441L703 442L701 440L696 444L690 441L686 436L691 425L698 427z"/></g><g><path class="class-2 leaflet-clickable" stroke-linejoin="round" stroke-linecap="round" fill-rule="evenodd" stroke="#005540" stroke-opacity="1" stroke-width="0.5" fill="#00cc99" fill-opacity="0.5" d="M720 392L716 397L713 398L717 399L717 401L713 407L715 410L712 411L713 412L711 414L705 414L706 409L703 407L699 407L698 409L697 406L699 404L697 403L697 405L694 404L692 408L690 408L689 410L689 408L686 405L686 400L683 401L678 398L678 391L683 390L685 388L689 379L688 378L696 376L698 372L699 375L705 376L705 372L709 370L708 373L711 376L714 375L713 376L715 376L717 379L714 383L715 385L710 384L707 388L709 387L707 396L712 395L718 389L720 391z"/></g><g><path class="class-2 leaflet-clickable" stroke-linejoin="round" stroke-linecap="round" fill-rule="evenodd" stroke="#005540" stroke-opacity="1" stroke-width="0.5" fill="#00cc99" fill-opacity="0.5" d="M696 373L695 376L691 378L690 376L685 386L686 388L678 391L678 398L676 397L676 402L672 404L669 401L669 398L667 398L663 394L661 385L664 382L672 382L673 379L674 380L674 375L680 375L682 373L679 372L681 366L688 370L693 364L695 373z"/></g><g><path class="class-2 leaflet-clickable" stroke-linejoin="round" stroke-linecap="round" fill-rule="evenodd" stroke="#005540" stroke-opacity="1" stroke-width="0.5" fill="#00cc99" fill-opacity="0.5" d="M962 443L963 440L963 442z"/></g><g><path class="class-2 leaflet-clickable" stroke-linejoin="round" stroke-linecap="round" fill-rule="evenodd" stroke="#005540" stroke-opacity="1" stroke-width="0.5" fill="#00cc99" fill-opacity="0.5" d="M964 435L964 437L964 435z"/></g><g><path class="class-2 leaflet-clickable" stroke-linejoin="round" stroke-linecap="round" fill-rule="evenodd" stroke="#005540" stroke-opacity="1" stroke-width="0.5" fill="#00cc99" fill-opacity="0.5" d="M976 391L970 398L970 394L972 391L977 390z"/></g><g><path class="class-2 leaflet-clickable" stroke-linejoin="round" stroke-linecap="round" fill-rule="evenodd" stroke="#005540" stroke-opacity="1" stroke-width="0.5" fill="#00cc99" fill-opacity="0.5" d="M921 454L920 450L922 449L922 425L921 418L918 415L921 413L922 414L922 412L924 412L924 410L929 407L929 405L932 404L933 401L936 401L938 398L944 397L948 394L955 386L958 380L958 368L965 370L968 369L969 366L974 373L974 370L975 371L975 379L972 385L960 399L960 409L959 410L960 406L959 409L953 412L955 416L960 413L961 414L960 418L955 420L955 424L958 421L960 421L958 423L950 449L947 449L947 443L942 443L942 441L936 441L934 447L931 449L928 455L924 452L922 454z"/></g><g><path class="class-2 leaflet-clickable" stroke-linejoin="round" stroke-linecap="round" fill-rule="evenodd" stroke="#005540" stroke-opacity="1" stroke-width="0.5" fill="#00cc99" fill-opacity="0.5" d="M968 365L966 367L961 368L963 366L967 366z"/></g><g><path class="class-2 leaflet-clickable" stroke-linejoin="round" stroke-linecap="round" fill-rule="evenodd" stroke="#005540" stroke-opacity="1" stroke-width="0.5" fill="#00cc99" fill-opacity="0.5" d="M958 368L958 380L955 386L944 398L938 398L932 404L930 404L929 407L927 407L928 408L922 414L921 413L918 415L915 413L911 407L911 404L908 400L906 400L902 393L899 394L894 391L893 384L895 379L905 374L931 370L935 367L940 367L943 365L958 368z"/></g><g><path class="class-2 leaflet-clickable" stroke-linejoin="round" stroke-linecap="round" fill-rule="evenodd" stroke="#005540" stroke-opacity="1" stroke-width="0.5" fill="#00cc99" fill-opacity="0.5" d="M908 341L911 342L912 344L910 346L907 343L908 341z"/></g><g><path class="class-2 leaflet-clickable" stroke-linejoin="round" stroke-linecap="round" fill-rule="evenodd" stroke="#005540" stroke-opacity="1" stroke-width="0.5" fill="#00cc99" fill-opacity="0.5" d="M893 384L893 391L897 391L898 394L901 393L906 397L905 398L911 404L914 412L921 418L921 457L880 457L880 453L870 451L867 449L868 448L865 451L865 455L853 449L853 444L849 442L846 438L849 436L857 436L860 438L877 428L886 420L886 412L892 405L891 391L893 384z"/></g><g><path class="class-1 leaflet-clickable" stroke-linejoin="round" stroke-linecap="round" fill-rule="evenodd" stroke="#005540" stroke-opacity="1" stroke-width="0.5" fill="#7fd" fill-opacity="0.5" d="M725 349L727 357L735 366L733 372L734 378L741 392L748 398L755 407L758 419L763 424L763 426L766 427L768 432L773 435L782 435L792 440L799 449L808 447L809 456L817 460L819 463L819 470L817 470L814 473L790 472L791 470L786 467L782 462L784 460L783 459L781 459L775 464L772 464L768 459L770 454L769 449L761 449L762 448L761 449L759 447L754 438L750 437L749 444L747 440L743 439L741 441L738 437L735 436L737 431L736 428L743 422L734 419L735 418L733 416L733 414L736 411L736 407L740 401L733 398L730 402L726 400L727 397L725 395L726 393L727 394L730 392L727 391L725 384L723 384L722 390L720 391L718 388L717 391L712 395L707 396L708 395L706 392L709 390L710 387L708 388L712 383L712 385L714 385L715 380L717 378L713 376L714 375L711 376L708 373L709 370L708 371L705 365L710 361L707 356L709 357L710 353L713 350L705 346L711 346L714 344L720 347L723 351L724 349z"/></g><g><path class="class-1 leaflet-clickable" stroke-linejoin="round" stroke-linecap="round" fill-rule="evenodd" stroke="#005540" stroke-opacity="1" stroke-width="0.5" fill="#7fd" fill-opacity="0.5" d="M666 397L670 399L669 401L672 404L671 405L673 408L671 408L669 412L670 419L667 420L665 426L659 433L656 432L657 439L660 441L660 444L656 441L653 442L651 440L645 439L641 441L635 438L632 439L631 441L632 446L625 449L625 455L595 445L589 436L595 429L600 428L603 430L606 427L606 425L607 426L607 424L612 422L613 423L615 421L616 417L612 417L613 415L610 410L612 408L611 406L605 405L605 402L608 401L607 400L612 401L618 396L625 395L629 395L628 396L630 396L632 400L636 400L637 397L641 396L641 398L644 399L642 399L642 402L644 404L648 404L648 402L650 402L653 406L663 406L666 405L665 402L667 398z"/></g><g><path class="class-1 leaflet-clickable" stroke-linejoin="round" stroke-linecap="round" fill-rule="evenodd" stroke="#005540" stroke-opacity="1" stroke-width="0.5" fill="#7fd" fill-opacity="0.5" d="M686 435L690 441L694 441L696 446L701 450L700 451L703 452L701 452L704 454L710 454L709 460L713 464L713 471L714 470L715 473L719 475L718 480L715 484L716 485L712 487L711 491L707 493L702 487L700 488L690 484L682 484L674 478L650 470L651 469L646 465L642 464L633 455L625 452L626 448L632 445L632 439L634 438L638 438L638 440L640 441L656 441L658 443L659 442L659 444L660 441L658 441L657 439L656 432L659 433L661 431L664 434L663 437L668 444L674 438L678 438L682 434L685 436z"/></g><g><path class="class-1 leaflet-clickable" stroke-linejoin="round" stroke-linecap="round" fill-rule="evenodd" stroke="#005540" stroke-opacity="1" stroke-width="0.5" fill="#7fd" fill-opacity="0.5" d="M814 473L808 489L810 492L809 496L811 500L805 497L795 495L783 496L778 501L774 501L764 506L763 505L760 508L751 508L742 505L739 502L725 501L715 494L708 493L712 490L711 487L716 485L715 484L718 481L718 477L720 475L715 474L714 470L713 471L713 464L709 460L710 456L714 454L715 455L717 453L721 453L724 455L726 452L725 451L724 453L723 448L728 445L730 452L737 448L742 449L749 443L750 437L756 440L761 449L769 449L770 454L768 459L772 463L775 464L781 459L783 459L784 460L782 462L786 467L791 470L790 471L809 473z"/></g><g><path class="class-2 leaflet-clickable" stroke-linejoin="round" stroke-linecap="round" fill-rule="evenodd" stroke="#005540" stroke-opacity="1" stroke-width="0.5" fill="#00cc99" fill-opacity="0.5" d="M678 211L681 213L676 216L676 218L680 219L682 228L680 233L684 234L682 238L688 241L687 247L691 250L693 249L694 255L697 253L699 257L701 255L707 255L707 269L710 269L700 279L696 278L693 281L693 287L690 286L686 288L685 291L681 292L681 294L683 294L684 296L682 303L687 309L684 312L678 312L675 317L676 322L673 321L671 323L673 323L672 325L669 325L670 323L668 323L667 325L666 324L667 327L664 326L664 313L662 310L663 304L660 302L661 297L656 292L656 285L658 283L656 282L656 277L658 275L669 276L669 274L665 273L660 268L662 268L657 265L654 254L647 247L657 237L659 240L660 239L662 235L662 229L656 229L655 226L659 222L665 220L666 213L670 210L674 214L676 213z"/></g><g><path class="class-3 leaflet-clickable" stroke-linejoin="round" stroke-linecap="round" fill-rule="evenodd" stroke="#005540" stroke-opacity="1" stroke-width="0.5" fill="#086" fill-opacity="0.5" d="M590 238L598 241L600 249L598 252L599 261L595 268L599 272L596 272L595 275L601 281L600 282L607 287L609 287L614 279L618 294L617 296L614 297L610 297L609 295L599 295L587 306L588 315L586 315L586 317L583 319L580 326L579 331L581 336L577 337L577 344L572 347L568 342L566 342L566 340L564 340L562 343L560 341L559 339L563 337L560 333L561 332L553 332L551 328L548 329L546 327L544 322L545 321L542 316L540 317L539 308L541 309L539 307L538 302L533 297L530 297L530 299L526 299L522 289L512 280L510 271L512 269L511 268L516 265L515 264L518 267L522 267L527 263L525 264L525 258L528 257L527 254L532 246L534 236L535 237L537 234L539 237L540 236L543 239L544 238L550 243L558 243L559 245L565 243L570 247L578 235L582 237L587 237z"/></g><g><path class="class-2 leaflet-clickable" stroke-linejoin="round" stroke-linecap="round" fill-rule="evenodd" stroke="#005540" stroke-opacity="1" stroke-width="0.5" fill="#00cc99" fill-opacity="0.5" d="M632 355L631 356L633 358L628 359L624 364L620 364L614 361L611 362L609 360L614 352L614 348L620 347L622 345L626 347L625 348L628 348L628 352L632 355z"/></g><g><path class="class-2 leaflet-clickable" stroke-linejoin="round" stroke-linecap="round" fill-rule="evenodd" stroke="#005540" stroke-opacity="1" stroke-width="0.5" fill="#00cc99" fill-opacity="0.5" d="M612 362L614 361L622 365L632 358L633 357L631 357L633 355L635 355L640 361L638 361L639 362L637 367L639 370L637 370L637 372L634 374L634 376L627 385L630 388L627 394L625 396L619 396L610 402L609 400L605 402L605 405L607 404L612 407L612 409L610 410L613 415L612 416L617 417L614 423L612 422L608 424L603 430L601 428L595 429L595 421L591 416L587 419L582 416L580 421L573 423L572 422L569 425L565 423L565 421L564 422L561 420L559 415L557 415L549 404L545 394L553 392L555 390L554 388L556 385L557 386L559 382L564 380L571 382L578 390L577 385L575 385L579 381L578 376L588 374L587 373L590 370L585 365L586 363L584 361L580 361L579 357L575 355L577 347L579 345L580 346L579 343L582 344L581 347L585 344L582 339L583 337L589 339L589 341L586 342L587 343L585 347L587 351L587 347L590 341L593 343L590 352L591 353L595 353L597 350L599 350L598 347L600 345L602 347L601 348L605 350L603 356L599 356L595 360L593 360L595 362L594 365L590 367L590 369L594 369L595 371L590 373L592 373L593 377L603 379L605 374L608 375L612 371L613 372L615 368L611 365L612 363z"/></g><g><path class="class-1 leaflet-clickable" stroke-linejoin="round" stroke-linecap="round" fill-rule="evenodd" stroke="#005540" stroke-opacity="1" stroke-width="0.5" fill="#7fd" fill-opacity="0.5" d="M680 368L679 371L680 373L682 373L678 376L674 375L675 376L673 382L664 382L661 385L663 393L667 398L665 402L666 405L653 406L650 402L648 402L648 404L644 404L642 402L642 400L644 399L641 398L641 396L639 396L636 399L630 399L630 397L627 394L630 391L627 384L630 382L634 374L637 373L636 370L638 370L637 367L639 363L638 362L640 360L646 360L648 362L650 361L658 367L664 367L665 363L667 363L677 369L679 368z"/></g><g><path class="class-2 leaflet-clickable" stroke-linejoin="round" stroke-linecap="round" fill-rule="evenodd" stroke="#005540" stroke-opacity="1" stroke-width="0.5" fill="#00cc99" fill-opacity="0.5" d="M672 325L674 329L672 331L674 335L672 337L677 337L685 341L686 337L694 346L707 346L713 350L707 357L709 357L709 361L705 365L708 368L708 370L704 372L706 372L705 376L701 376L698 372L695 373L693 364L688 370L686 370L682 366L680 366L680 368L677 369L668 363L666 363L664 367L660 368L656 366L653 362L640 360L644 355L644 351L642 348L645 344L643 339L644 338L641 337L639 341L638 340L637 343L634 344L632 342L632 339L630 340L625 335L623 330L624 328L622 325L624 323L622 323L624 320L626 322L634 320L647 308L647 302L650 301L651 296L653 299L658 295L661 296L660 301L663 303L663 326L666 327L666 324L667 325L668 323L670 323L669 325L671 325z"/></g><g><path class="class-3 leaflet-clickable" stroke-linejoin="round" stroke-linecap="round" fill-rule="evenodd" stroke="#005540" stroke-opacity="1" stroke-width="0.5" fill="#086" fill-opacity="0.5" d="M451 302L449 302L449 297L451 301z"/></g><g><path class="class-3 leaflet-clickable" stroke-linejoin="round" stroke-linecap="round" fill-rule="evenodd" stroke="#005540" stroke-opacity="1" stroke-width="0.5" fill="#086" fill-opacity="0.5" d="M439 293L439 296L438 293z"/></g><g><path class="class-3 leaflet-clickable" stroke-linejoin="round" stroke-linecap="round" fill-rule="evenodd" stroke="#005540" stroke-opacity="1" stroke-width="0.5" fill="#086" fill-opacity="0.5" d="M438 291L438 292z"/></g><g><path class="class-3 leaflet-clickable" stroke-linejoin="round" stroke-linecap="round" fill-rule="evenodd" stroke="#005540" stroke-opacity="1" stroke-width="0.5" fill="#086" fill-opacity="0.5" d="M431 279L434 281L435 284L431 280z"/></g><g><path class="class-3 leaflet-clickable" stroke-linejoin="round" stroke-linecap="round" fill-rule="evenodd" stroke="#005540" stroke-opacity="1" stroke-width="0.5" fill="#086" fill-opacity="0.5" d="M431 273L430 275L431 273z"/></g><g><path class="class-3 leaflet-clickable" stroke-linejoin="round" stroke-linecap="round" fill-rule="evenodd" stroke="#005540" stroke-opacity="1" stroke-width="0.5" fill="#086" fill-opacity="0.5" d="M429 263L430 266L429 264z"/></g><g><path class="class-3 leaflet-clickable" stroke-linejoin="round" stroke-linecap="round" fill-rule="evenodd" stroke="#005540" stroke-opacity="1" stroke-width="0.5" fill="#086" fill-opacity="0.5" d="M423 263L423 265L423 263z"/></g><g><path class="class-3 leaflet-clickable" stroke-linejoin="round" stroke-linecap="round" fill-rule="evenodd" stroke="#005540" stroke-opacity="1" stroke-width="0.5" fill="#086" fill-opacity="0.5" d="M423 254L423 256L421 256L419 260L420 261L419 258L420 255L422 255z"/></g><g><path class="class-3 leaflet-clickable" stroke-linejoin="round" stroke-linecap="round" fill-rule="evenodd" stroke="#005540" stroke-opacity="1" stroke-width="0.5" fill="#086" fill-opacity="0.5" d="M418 252L418 252z"/></g><g><path class="class-3 leaflet-clickable" stroke-linejoin="round" stroke-linecap="round" fill-rule="evenodd" stroke="#005540" stroke-opacity="1" stroke-width="0.5" fill="#086" fill-opacity="0.5" d="M400 224L400 226L399 224z"/></g><g><path class="class-3 leaflet-clickable" stroke-linejoin="round" stroke-linecap="round" fill-rule="evenodd" stroke="#005540" stroke-opacity="1" stroke-width="0.5" fill="#086" fill-opacity="0.5" d="M403 219L402 219z"/></g><g><path class="class-3 leaflet-clickable" stroke-linejoin="round" stroke-linecap="round" fill-rule="evenodd" stroke="#005540" stroke-opacity="1" stroke-width="0.5" fill="#086" fill-opacity="0.5" d="M329 208L329 208z"/></g><g><path class="class-3 leaflet-clickable" stroke-linejoin="round" stroke-linecap="round" fill-rule="evenodd" stroke="#005540" stroke-opacity="1" stroke-width="0.5" fill="#086" fill-opacity="0.5" d="M351 205L384 205L386 212L394 218L397 224L396 225L403 229L401 230L401 232L403 234L405 233L408 235L411 241L414 243L413 244L417 254L417 262L422 268L424 268L425 274L432 285L430 293L433 300L439 302L439 298L442 298L447 302L447 305L451 306L451 308L454 311L454 314L459 317L460 324L456 329L447 334L444 330L442 320L438 316L434 314L422 302L412 297L407 298L397 290L397 287L394 286L399 274L399 261L393 250L386 248L371 236L369 235L366 238L359 231L355 231L352 227L348 227L345 224L344 220L331 209L332 208L344 211L350 208L351 206z"/></g><g><path class="class-3 leaflet-clickable" stroke-linejoin="round" stroke-linecap="round" fill-rule="evenodd" stroke="#005540" stroke-opacity="1" stroke-width="0.5" fill="#086" fill-opacity="0.5" d="M464 248L468 248L473 244L474 241L478 239L482 229L488 230L487 233L489 233L492 236L492 245L498 253L507 253L509 256L508 258L514 262L514 264L516 264L513 267L511 267L512 270L510 271L512 275L512 280L514 280L517 286L522 289L525 295L524 296L527 299L530 299L530 297L536 299L538 305L541 308L539 308L540 316L543 317L545 321L544 322L546 324L546 328L552 329L549 333L549 340L550 339L551 342L550 343L546 341L545 344L527 325L526 321L520 315L515 307L497 294L481 274L468 269L465 265L461 265L459 257L464 248z"/></g><g><path class="class-2 leaflet-clickable" stroke-linejoin="round" stroke-linecap="round" fill-rule="evenodd" stroke="#005540" stroke-opacity="1" stroke-width="0.5" fill="#00cc99" fill-opacity="0.5" d="M678 211L674 215L670 210L666 213L665 220L659 222L655 226L656 229L662 229L662 235L660 239L659 240L657 237L647 247L656 258L655 261L659 267L662 268L660 268L664 271L664 273L669 273L669 276L658 275L656 277L656 281L658 283L656 285L655 292L653 293L645 286L639 288L637 286L638 285L624 278L618 278L619 281L614 279L609 288L600 282L601 281L595 275L595 273L597 271L598 272L595 268L599 262L598 252L600 249L598 241L590 238L590 236L587 233L589 230L585 210L586 209L584 209L584 206L586 206L586 203L592 192L591 191L599 179L603 180L604 177L608 173L609 174L608 172L610 170L611 164L615 159L619 159L622 156L633 159L641 158L643 162L645 162L645 164L646 163L646 165L659 176L663 188L667 193L666 194L678 210z"/></g><g><path class="class-3 leaflet-clickable" stroke-linejoin="round" stroke-linecap="round" fill-rule="evenodd" stroke="#005540" stroke-opacity="1" stroke-width="0.5" fill="#086" fill-opacity="0.5" d="M320 197L319 197z"/></g><g><path class="class-3 leaflet-clickable" stroke-linejoin="round" stroke-linecap="round" fill-rule="evenodd" stroke="#005540" stroke-opacity="1" stroke-width="0.5" fill="#086" fill-opacity="0.5" d="M328 195L330 201L329 204L325 202L328 199L328 196z"/></g><g><path class="class-3 leaflet-clickable" stroke-linejoin="round" stroke-linecap="round" fill-rule="evenodd" stroke="#005540" stroke-opacity="1" stroke-width="0.5" fill="#086" fill-opacity="0.5" d="M381 187L384 189L383 190L382 188z"/></g><g><path class="class-3 leaflet-clickable" stroke-linejoin="round" stroke-linecap="round" fill-rule="evenodd" stroke="#005540" stroke-opacity="1" stroke-width="0.5" fill="#086" fill-opacity="0.5" d="M367 176L367 177z"/></g><g><path class="class-3 leaflet-clickable" stroke-linejoin="round" stroke-linecap="round" fill-rule="evenodd" stroke="#005540" stroke-opacity="1" stroke-width="0.5" fill="#086" fill-opacity="0.5" d="M367 165L370 167L370 170L372 172L375 171L375 179L365 168L366 165z"/></g><g><path class="class-3 leaflet-clickable" stroke-linejoin="round" stroke-linecap="round" fill-rule="evenodd" stroke="#005540" stroke-opacity="1" stroke-width="0.5" fill="#086" fill-opacity="0.5" d="M257 174L259 177L258 182L256 177L257 174z"/></g><g><path class="class-3 leaflet-clickable" stroke-linejoin="round" stroke-linecap="round" fill-rule="evenodd" stroke="#005540" stroke-opacity="1" stroke-width="0.5" fill="#086" fill-opacity="0.5" d="M346 153L346 154z"/></g><g><path class="class-3 leaflet-clickable" stroke-linejoin="round" stroke-linecap="round" fill-rule="evenodd" stroke="#005540" stroke-opacity="1" stroke-width="0.5" fill="#086" fill-opacity="0.5" d="M339 112L339 112z"/></g><g><path class="class-3 leaflet-clickable" stroke-linejoin="round" stroke-linecap="round" fill-rule="evenodd" stroke="#005540" stroke-opacity="1" stroke-width="0.5" fill="#086" fill-opacity="0.5" d="M339 105L341 107L340 108L338 108L338 105z"/></g><g><path class="class-3 leaflet-clickable" stroke-linejoin="round" stroke-linecap="round" fill-rule="evenodd" stroke="#005540" stroke-opacity="1" stroke-width="0.5" fill="#086" fill-opacity="0.5" d="M337 86L334 88L332 93L334 95L334 102L337 103L338 105L338 110L336 113L336 123L340 129L340 137L342 142L341 149L347 157L347 159L350 159L364 172L367 182L369 180L371 184L374 184L376 191L382 195L381 197L383 199L383 205L351 205L354 201L353 198L355 194L353 190L348 186L348 184L345 181L343 181L342 177L339 176L339 174L317 159L318 157L315 153L315 146L309 140L310 134L304 127L303 128L302 119L295 112L296 109L294 106L295 107L296 104L290 99L290 96L285 88L285 85L339 80L337 86z"/></g><g><path class="class-3 leaflet-clickable" stroke-linejoin="round" stroke-linecap="round" fill-rule="evenodd" stroke="#005540" stroke-opacity="1" stroke-width="0.5" fill="#086" fill-opacity="0.5" d="M389 186L388 188L388 186z"/></g><g><path class="class-3 leaflet-clickable" stroke-linejoin="round" stroke-linecap="round" fill-rule="evenodd" stroke="#005540" stroke-opacity="1" stroke-width="0.5" fill="#086" fill-opacity="0.5" d="M395 173L397 179L394 186L389 182L390 175L394 173z"/></g><g><path class="class-3 leaflet-clickable" stroke-linejoin="round" stroke-linecap="round" fill-rule="evenodd" stroke="#005540" stroke-opacity="1" stroke-width="0.5" fill="#086" fill-opacity="0.5" d="M340 106L342 106L341 107z"/></g><g><path class="class-3 leaflet-clickable" stroke-linejoin="round" stroke-linecap="round" fill-rule="evenodd" stroke="#005540" stroke-opacity="1" stroke-width="0.5" fill="#086" fill-opacity="0.5" d="M337 86L417 115L422 118L475 118L474 120L472 120L473 123L476 125L475 126L477 126L474 126L474 129L471 129L471 132L473 135L472 136L479 141L478 144L480 145L478 145L478 158L480 158L480 160L477 160L478 166L476 168L476 182L479 186L481 196L469 198L468 202L472 209L471 210L475 213L477 217L479 222L477 224L480 231L483 231L477 239L477 241L475 241L472 244L472 246L464 248L464 244L462 241L457 238L452 238L448 229L440 227L436 223L433 223L434 209L432 207L431 208L427 206L427 208L425 208L425 206L419 204L413 195L409 193L403 186L404 184L397 180L397 173L395 170L394 171L392 169L393 167L389 162L387 156L384 155L384 148L376 134L377 122L371 119L364 118L364 114L359 110L351 113L342 106L335 103L333 96L334 95L332 93L334 91L334 87L337 87zM428 205L428 206z"/></g><g><path class="class-0 leaflet-clickable" stroke-linejoin="round" stroke-linecap="round" fill-rule="evenodd" stroke="#005540" stroke-opacity="1" stroke-width="0.5" fill="#ddfff6" fill-opacity="0.5" d="M869 470L872 473L873 472L873 474L877 476L876 477L881 481L886 483L887 488L893 491L892 498L863 498L852 518L855 522L852 527L853 531L851 535L823 507L815 501L810 500L808 496L810 495L810 492L808 489L814 473L822 466L822 464L826 460L825 458L828 453L831 455L831 457L833 457L832 459L835 465L836 464L838 466L837 467L838 466L840 468L844 463L849 462L848 461L854 458L854 456L857 454L860 455L860 459L864 460L864 466L869 467L870 470z"/></g><g><path class="class-3 leaflet-clickable" stroke-linejoin="round" stroke-linecap="round" fill-rule="evenodd" stroke="#005540" stroke-opacity="1" stroke-width="0.5" fill="#086" fill-opacity="0.5" d="M599 179L591 191L592 192L586 202L586 207L585 206L584 209L586 209L586 223L588 224L589 229L587 234L590 236L590 238L578 235L576 236L577 237L570 247L566 243L560 245L558 243L553 244L552 242L551 243L545 240L544 238L543 239L540 236L539 237L537 234L536 237L534 237L535 238L532 242L532 246L527 253L528 257L525 258L525 264L527 262L523 267L519 267L508 258L509 257L506 252L498 253L496 251L492 245L492 237L489 233L487 233L487 229L481 231L479 230L480 229L479 230L479 227L477 225L479 222L477 219L478 217L476 216L475 212L471 210L473 209L468 202L468 198L481 196L481 192L476 181L477 176L475 174L475 172L477 172L476 168L478 166L477 160L480 159L478 157L478 145L480 146L477 138L473 137L471 133L471 130L474 129L474 126L477 126L475 126L476 125L473 123L474 121L472 121L475 118L488 118L488 106L491 105L528 106L533 113L536 116L538 116L549 128L559 135L561 135L561 137L563 137L564 143L568 148L568 156L571 159L571 161L575 165L579 166L578 167L581 170L588 172L599 179z"/></g><g><path class="class-2 leaflet-clickable" stroke-linejoin="round" stroke-linecap="round" fill-rule="evenodd" stroke="#005540" stroke-opacity="1" stroke-width="0.5" fill="#00cc99" fill-opacity="0.5" d="M880 457L880 470L869 470L870 467L864 465L865 462L861 459L861 455L857 455L850 460L849 459L849 461L847 463L843 463L843 465L840 468L838 466L837 467L838 466L836 464L834 464L832 459L833 456L831 456L832 455L829 453L826 454L826 460L822 464L820 469L818 467L820 463L818 463L814 458L809 456L810 452L808 448L824 442L837 442L840 440L840 438L845 437L848 442L852 442L853 449L856 450L857 452L865 456L865 450L868 448L868 450L874 453L880 453L880 455z"/></g><g><path class="class-2 leaflet-clickable" stroke-linejoin="round" stroke-linecap="round" fill-rule="evenodd" stroke="#005540" stroke-opacity="1" stroke-width="0.5" fill="#00cc99" fill-opacity="0.5" d="M725 349L723 351L715 344L713 344L712 346L705 345L703 347L696 345L694 346L686 337L685 341L682 339L678 339L677 337L672 337L674 335L672 332L674 330L672 328L673 323L671 323L673 321L676 322L675 317L678 312L684 312L686 309L686 307L682 303L684 296L681 294L681 292L685 291L686 288L690 286L692 287L694 283L693 281L696 278L699 279L710 270L707 269L707 255L701 255L699 257L697 253L694 255L693 249L691 250L687 247L688 241L682 239L684 234L680 233L682 229L680 219L676 218L676 216L681 213L685 216L687 230L691 234L695 246L697 245L699 247L704 248L704 250L710 250L715 255L728 255L733 260L735 259L734 258L739 257L739 263L732 276L727 294L725 336L723 339L724 348z"/></g><g><path class="class-1 leaflet-clickable" stroke-linejoin="round" stroke-linecap="round" fill-rule="evenodd" stroke="#005540" stroke-opacity="1" stroke-width="0.5" fill="#7fd" fill-opacity="0.5" d="M656 292L658 295L653 299L651 297L650 301L648 302L647 308L642 313L634 320L629 322L626 322L624 320L622 323L624 323L622 325L626 336L630 340L632 339L632 342L634 344L637 343L641 337L644 338L643 339L645 343L643 344L642 348L644 350L644 355L641 359L640 360L639 358L632 355L628 352L628 348L627 349L622 345L620 347L614 348L614 352L609 359L612 363L612 366L615 368L614 371L612 371L608 375L605 374L605 378L603 379L599 379L592 376L590 372L594 371L594 369L590 369L590 367L594 365L595 362L593 360L603 355L605 350L603 348L602 349L600 345L598 347L599 350L597 350L596 353L590 352L593 349L593 344L592 342L590 342L588 343L587 351L585 347L587 343L586 342L589 341L589 339L586 337L582 338L585 343L582 347L582 343L580 343L578 347L576 346L577 338L581 336L579 331L582 319L587 315L588 316L587 306L591 302L593 302L593 299L595 299L597 295L609 295L612 297L617 296L618 291L614 283L614 280L619 281L618 278L627 279L632 281L634 284L638 285L637 286L639 288L645 286L648 288L649 291L653 293L656 292z"/></g></svg>