<svg xmlns="http://www.w3.org/2000/svg" width="999.5" height="600"><g transform="translate(39.5,19.5)" class="gRoot"><g class="gDragit selected" style="opacity: 1;"><path class="lineTrajectory" d="M303.27266166472253,12.814900739677286L267.8033397113478,12.814900739677286L237.04760273169916,10.723678417641564L209.1138043263399,7.9353819882606995L184.31391909748578,7.2383078809154995L162.33369723714276,7.2383078809154995L143.65267005527627,7.2383078809154995L125.84747456709506,5.844159666225157L110.83011057183124,3.752937344189495L96.51835388925603,3.055863236844294L83.619309104665,3.055863236844294L71.60506785695274,2.3587891294991534L61.663472924911794,1.6617150221537726L51.95680846706076,1.6617150221537726L43.464029676299376,0.9646409148086317L36.023712655788465,0.9646409148086317L29.114925568262848,0.9646409148086317L22.713249751124753,0.4663910941716909L16.90683966265718,0.2458259722516028L11.438157596911887,0.16122661882486627L6.35750387988437,0L0.03278780105347725,1.4939728516476145L14.113195966057551,1.0633183769073775L7.925704940102148,2.6941924705003424L1.7382139141467463,2.0380656115390985"/><circle class="pointTrajectory" cx="303.27266166472253" cy="12.814900739677286" r="3"/><circle class="pointTrajectory" cx="267.8033397113478" cy="12.814900739677286" r="3"/><circle class="pointTrajectory" cx="237.04760273169916" cy="10.723678417641564" r="3"/><circle class="pointTrajectory" cx="209.1138043263399" cy="7.9353819882606995" r="3"/><circle class="pointTrajectory" cx="184.31391909748578" cy="7.2383078809154995" r="3"/><circle class="pointTrajectory" cx="162.33369723714276" cy="7.2383078809154995" r="3"/><circle class="pointTrajectory" cx="143.65267005527627" cy="7.2383078809154995" r="3"/><circle class="pointTrajectory" cx="125.84747456709506" cy="5.844159666225157" r="3"/><circle class="pointTrajectory" cx="110.83011057183124" cy="3.752937344189495" r="3"/><circle class="pointTrajectory" cx="96.51835388925603" cy="3.055863236844294" r="3"/><circle class="pointTrajectory" cx="83.619309104665" cy="3.055863236844294" r="3"/><circle class="pointTrajectory" cx="71.60506785695274" cy="2.3587891294991534" r="3"/><circle class="pointTrajectory" cx="61.663472924911794" cy="1.6617150221537726" r="3"/><circle class="pointTrajectory" cx="51.95680846706076" cy="1.6617150221537726" r="3"/><circle class="pointTrajectory" cx="43.464029676299376" cy="0.9646409148086317" r="3"/><circle class="pointTrajectory" cx="36.023712655788465" cy="0.9646409148086317" r="3"/><circle class="pointTrajectory" cx="29.114925568262848" cy="0.9646409148086317" r="3"/><circle class="pointTrajectory" cx="22.713249751124753" cy="0.4663910941716909" r="3"/><circle class="pointTrajectory" cx="16.90683966265718" cy="0.2458259722516028" r="3"/><circle class="pointTrajectory" cx="11.438157596911887" cy="0.16122661882486627" r="3"/><circle class="pointTrajectory" cx="6.35750387988437" cy="0" r="3"/><circle class="pointTrajectory" cx="0.03278780105347725" cy="1.4939728516476145" r="3"/><circle class="pointTrajectory" cx="14.113195966057551" cy="1.0633183769073775" r="3"/><circle class="pointTrajectory" cx="7.925704940102148" cy="2.6941924705003424" r="3"/><circle class="pointTrajectory" cx="1.7382139141467463" cy="2.0380656115390985" r="3"/></g><g class="gDragit selected" style="opacity: 1;"><path class="lineTrajectory" d="M940.5,540.5L865.4025775057925,532.1351107118575L798.4145774748233,508.4345910621204L735.937551178822,488.21944194910935L680.0649436824918,465.21599640671747L630.3027819785492,470.79258926547914L585.1311226593621,471.4896633728244L544.1788354039677,465.21599640671747L507.0551307720879,458.24525533326533L472.1692467202607,465.21599640671747L439.792955546853,479.1574785536217L409.58692840408605,474.9750339095504L381.04772644839153,461.03355176264625L354.6598981243423,446.39499550839685L329.83329304687135,430.36229103945703L307.28354966551296,423.39154996600496L285.81776992566216,421.30032764396935L265.1365704290918,404.1990786941246L245.9237831772124,341.46819907000616L228.05081297929854,345.70256667311133L210.7134048109073,334.45218296357467L185.08579297613517,235.5772392125704L156.61992550172755,204.5707075924604L150.33765302923047,188.81733786635678L144.05538055673335,168.420448986227"/><circle class="pointTrajectory" cx="940.5" cy="540.5" r="3"/><circle class="pointTrajectory" cx="865.4025775057925" cy="532.1351107118575" r="3"/><circle class="pointTrajectory" cx="798.4145774748233" cy="508.4345910621204" r="3"/><circle class="pointTrajectory" cx="735.937551178822" cy="488.21944194910935" r="3"/><circle class="pointTrajectory" cx="680.0649436824918" cy="465.21599640671747" r="3"/><circle class="pointTrajectory" cx="630.3027819785492" cy="470.79258926547914" r="3"/><circle class="pointTrajectory" cx="585.1311226593621" cy="471.4896633728244" r="3"/><circle class="pointTrajectory" cx="544.1788354039677" cy="465.21599640671747" r="3"/><circle class="pointTrajectory" cx="507.0551307720879" cy="458.24525533326533" r="3"/><circle class="pointTrajectory" cx="472.1692467202607" cy="465.21599640671747" r="3"/><circle class="pointTrajectory" cx="439.792955546853" cy="479.1574785536217" r="3"/><circle class="pointTrajectory" cx="409.58692840408605" cy="474.9750339095504" r="3"/><circle class="pointTrajectory" cx="381.04772644839153" cy="461.03355176264625" r="3"/><circle class="pointTrajectory" cx="354.6598981243423" cy="446.39499550839685" r="3"/><circle class="pointTrajectory" cx="329.83329304687135" cy="430.36229103945703" r="3"/><circle class="pointTrajectory" cx="307.28354966551296" cy="423.39154996600496" r="3"/><circle class="pointTrajectory" cx="285.81776992566216" cy="421.30032764396935" r="3"/><circle class="pointTrajectory" cx="265.1365704290918" cy="404.1990786941246" r="3"/><circle class="pointTrajectory" cx="245.9237831772124" cy="341.46819907000616" r="3"/><circle class="pointTrajectory" cx="228.05081297929854" cy="345.70256667311133" r="3"/><circle class="pointTrajectory" cx="210.7134048109073" cy="334.45218296357467" r="3"/><circle class="pointTrajectory" cx="185.08579297613517" cy="235.5772392125704" r="3"/><circle class="pointTrajectory" cx="156.61992550172755" cy="204.5707075924604" r="3"/><circle class="pointTrajectory" cx="150.33765302923047" cy="188.81733786635678" r="3"/><circle class="pointTrajectory" cx="144.05538055673335" cy="168.420448986227" r="3"/></g><g class="gDragit selected" style="opacity: 1;"><path class="lineTrajectory" d="M940.5,540.5L865.4025775057925,532.1351107118575L798.4145774748233,508.4345910621204L735.937551178822,488.21944194910935L680.0649436824918,465.21599640671747L630.3027819785492,470.79258926547914L585.1311226593621,471.4896633728244L544.1788354039677,465.21599640671747L507.0551307720879,458.24525533326533L472.1692467202607,465.21599640671747L439.792955546853,479.1574785536217L409.58692840408605,474.9750339095504L381.04772644839153,461.03355176264625L354.6598981243423,446.39499550839685L329.83329304687135,430.36229103945703L307.28354966551296,423.39154996600496L285.81776992566216,421.30032764396935L265.1365704290918,404.1990786941246L245.9237831772124,341.46819907000616L228.05081297929854,345.70256667311133L210.7134048109073,334.45218296357467L185.08579297613517,235.5772392125704L156.61992550172755,204.5707075924604L150.33765302923047,188.81733786635678L144.05538055673335,168.420448986227"/><circle class="pointTrajectory" cx="940.5" cy="540.5" r="3"/><circle class="pointTrajectory" cx="865.4025775057925" cy="532.1351107118575" r="3"/><circle class="pointTrajectory" cx="798.4145774748233" cy="508.4345910621204" r="3"/><circle class="pointTrajectory" cx="735.937551178822" cy="488.21944194910935" r="3"/><circle class="pointTrajectory" cx="680.0649436824918" cy="465.21599640671747" r="3"/><circle class="pointTrajectory" cx="630.3027819785492" cy="470.79258926547914" r="3"/><circle class="pointTrajectory" cx="585.1311226593621" cy="471.4896633728244" r="3"/><circle class="pointTrajectory" cx="544.1788354039677" cy="465.21599640671747" r="3"/><circle class="pointTrajectory" cx="507.0551307720879" cy="458.24525533326533" r="3"/><circle class="pointTrajectory" cx="472.1692467202607" cy="465.21599640671747" r="3"/><circle class="pointTrajectory" cx="439.792955546853" cy="479.1574785536217" r="3"/><circle class="pointTrajectory" cx="409.58692840408605" cy="474.9750339095504" r="3"/><circle class="pointTrajectory" cx="381.04772644839153" cy="461.03355176264625" r="3"/><circle class="pointTrajectory" cx="354.6598981243423" cy="446.39499550839685" r="3"/><circle class="pointTrajectory" cx="329.83329304687135" cy="430.36229103945703" r="3"/><circle class="pointTrajectory" cx="307.28354966551296" cy="423.39154996600496" r="3"/><circle class="pointTrajectory" cx="285.81776992566216" cy="421.30032764396935" r="3"/><circle class="pointTrajectory" cx="265.1365704290918" cy="404.1990786941246" r="3"/><circle class="pointTrajectory" cx="245.9237831772124" cy="341.46819907000616" r="3"/><circle class="pointTrajectory" cx="228.05081297929854" cy="345.70256667311133" r="3"/><circle class="pointTrajectory" cx="210.7134048109073" cy="334.45218296357467" r="3"/><circle class="pointTrajectory" cx="185.08579297613517" cy="235.5772392125704" r="3"/><circle class="pointTrajectory" cx="156.61992550172755" cy="204.5707075924604" r="3"/><circle class="pointTrajectory" cx="150.33765302923047" cy="188.81733786635678" r="3"/><circle class="pointTrajectory" cx="144.05538055673335" cy="168.420448986227" r="3"/></g><g class="gDragit selected" style="opacity: 1;"><path class="lineTrajectory" d="M940.5,540.5L865.4025775057925,532.1351107118575L798.4145774748233,508.4345910621204L735.937551178822,488.21944194910935L680.0649436824918,465.21599640671747L630.3027819785492,470.79258926547914L585.1311226593621,471.4896633728244L544.1788354039677,465.21599640671747L507.0551307720879,458.24525533326533L472.1692467202607,465.21599640671747L439.792955546853,479.1574785536217L409.58692840408605,474.9750339095504L381.04772644839153,461.03355176264625L354.6598981243423,446.39499550839685L329.83329304687135,430.36229103945703L307.28354966551296,423.39154996600496L285.81776992566216,421.30032764396935L265.1365704290918,404.1990786941246L245.9237831772124,341.46819907000616L228.05081297929854,345.70256667311133L210.7134048109073,334.45218296357467L185.08579297613517,235.5772392125704L156.61992550172755,204.5707075924604L150.33765302923047,188.81733786635678L144.05538055673335,168.420448986227"/><circle class="pointTrajectory" cx="940.5" cy="540.5" r="3"/><circle class="pointTrajectory" cx="865.4025775057925" cy="532.1351107118575" r="3"/><circle class="pointTrajectory" cx="798.4145774748233" cy="508.4345910621204" r="3"/><circle class="pointTrajectory" cx="735.937551178822" cy="488.21944194910935" r="3"/><circle class="pointTrajectory" cx="680.0649436824918" cy="465.21599640671747" r="3"/><circle class="pointTrajectory" cx="630.3027819785492" cy="470.79258926547914" r="3"/><circle class="pointTrajectory" cx="585.1311226593621" cy="471.4896633728244" r="3"/><circle class="pointTrajectory" cx="544.1788354039677" cy="465.21599640671747" r="3"/><circle class="pointTrajectory" cx="507.0551307720879" cy="458.24525533326533" r="3"/><circle class="pointTrajectory" cx="472.1692467202607" cy="465.21599640671747" r="3"/><circle class="pointTrajectory" cx="439.792955546853" cy="479.1574785536217" r="3"/><circle class="pointTrajectory" cx="409.58692840408605" cy="474.9750339095504" r="3"/><circle class="pointTrajectory" cx="381.04772644839153" cy="461.03355176264625" r="3"/><circle class="pointTrajectory" cx="354.6598981243423" cy="446.39499550839685" r="3"/><circle class="pointTrajectory" cx="329.83329304687135" cy="430.36229103945703" r="3"/><circle class="pointTrajectory" cx="307.28354966551296" cy="423.39154996600496" r="3"/><circle class="pointTrajectory" cx="285.81776992566216" cy="421.30032764396935" r="3"/><circle class="pointTrajectory" cx="265.1365704290918" cy="404.1990786941246" r="3"/><circle class="pointTrajectory" cx="245.9237831772124" cy="341.46819907000616" r="3"/><circle class="pointTrajectory" cx="228.05081297929854" cy="345.70256667311133" r="3"/><circle class="pointTrajectory" cx="210.7134048109073" cy="334.45218296357467" r="3"/><circle class="pointTrajectory" cx="185.08579297613517" cy="235.5772392125704" r="3"/><circle class="pointTrajectory" cx="156.61992550172755" cy="204.5707075924604" r="3"/><circle class="pointTrajectory" cx="150.33765302923047" cy="188.81733786635678" r="3"/><circle class="pointTrajectory" cx="144.05538055673335" cy="168.420448986227" r="3"/></g><g class="x axis" transform="translate(0,540.5)"><g class="tick" transform="translate(73.83829417227625,0)" style="opacity: 1;"><line y2="6" x2="0"/><text dy=".71em" y="9" x="0" style="text-anchor: middle;">15</text></g><g class="tick" transform="translate(165.96680802895222,0)" style="opacity: 1;"><line y2="6" x2="0"/><text dy=".71em" y="9" x="0" style="text-anchor: middle;">20</text></g><g class="tick" transform="translate(258.0953218856282,0)" style="opacity: 1;"><line y2="6" x2="0"/><text dy=".71em" y="9" x="0" style="text-anchor: middle;">25</text></g><g class="tick" transform="translate(350.2238357423042,0)" style="opacity: 1;"><line y2="6" x2="0"/><text dy=".71em" y="9" x="0" style="text-anchor: middle;">30</text></g><g class="tick" transform="translate(442.35234959898014,0)" style="opacity: 1;"><line y2="6" x2="0"/><text dy=".71em" y="9" x="0" style="text-anchor: middle;">35</text></g><g class="tick" transform="translate(534.480863455656,0)" style="opacity: 1;"><line y2="6" x2="0"/><text dy=".71em" y="9" x="0" style="text-anchor: middle;">40</text></g><g class="tick" transform="translate(626.6093773123322,0)" style="opacity: 1;"><line y2="6" x2="0"/><text dy=".71em" y="9" x="0" style="text-anchor: middle;">45</text></g><g class="tick" transform="translate(718.7378911690081,0)" style="opacity: 1;"><line y2="6" x2="0"/><text dy=".71em" y="9" x="0" style="text-anchor: middle;">50</text></g><g class="tick" transform="translate(810.8664050256841,0)" style="opacity: 1;"><line y2="6" x2="0"/><text dy=".71em" y="9" x="0" style="text-anchor: middle;">55</text></g><g class="tick" transform="translate(902.99491888236,0)" style="opacity: 1;"><line y2="6" x2="0"/><text dy=".71em" y="9" x="0" style="text-anchor: middle;">60</text></g><path class="domain" d="M0,6V0H940.5V6"/></g><g class="y axis"><g class="tick" transform="translate(0,487.52236784176415)" style="opacity: 1;"><line x2="-6" y2="0"/><text dy=".32em" x="-9" y="0" style="text-anchor: end;">30</text></g><g class="tick" transform="translate(0,417.8149571072433)" style="opacity: 1;"><line x2="-6" y2="0"/><text dy=".32em" x="-9" y="0" style="text-anchor: end;">40</text></g><g class="tick" transform="translate(0,348.1075463727224)" style="opacity: 1;"><line x2="-6" y2="0"/><text dy=".32em" x="-9" y="0" style="text-anchor: end;">50</text></g><g class="tick" transform="translate(0,278.4001356382016)" style="opacity: 1;"><line x2="-6" y2="0"/><text dy=".32em" x="-9" y="0" style="text-anchor: end;">60</text></g><g class="tick" transform="translate(0,208.69272490368076)" style="opacity: 1;"><line x2="-6" y2="0"/><text dy=".32em" x="-9" y="0" style="text-anchor: end;">70</text></g><g class="tick" transform="translate(0,138.9853141691599)" style="opacity: 1;"><line x2="-6" y2="0"/><text dy=".32em" x="-9" y="0" style="text-anchor: end;">80</text></g><g class="tick" transform="translate(0,69.27790343463909)" style="opacity: 1;"><line x2="-6" y2="0"/><text dy=".32em" x="-9" y="0" style="text-anchor: end;">90</text></g><path class="domain" d="M-6,0H0V540.5H-6"/></g><text class="x label" text-anchor="end" x="627" y="576.5">Tasa de mortalidad en niños menores de 5 años</text><text class="y label" text-anchor="end" y="-40" x="-100" dy=".75em" transform="rotate(-90)">Proporción de nacimientos asistidos por personal sanitario calificado</text><text class="year label" text-anchor="end" y="516.5" x="940.5">2013</text><text class="country label" text-anchor="start" y="80" x="40"/><g class="dots"><circle class="dot" cx="36.29934182225975" cy="1.2728648484126222" r="5" style="fill: rgb(0, 204, 153); opacity: 1;"><title>Colima</title></circle><circle class="dot" cx="0" cy="2.3885242196960745" r="5" style="fill: rgb(0, 204, 153); opacity: 1;"><title>Aguascalientes</title></circle><circle class="dot" cx="78.51237093837719" cy="2.182051357052346" r="5" style="fill: rgb(0, 204, 153); opacity: 1;"><title>Tamaulipas</title></circle><circle class="dot" cx="47.50364353196729" cy="24.212157405972054" r="5" style="fill: rgb(0, 204, 153); opacity: 1;"><title>Coahuila</title></circle><circle class="dot selected" cx="7.925704940102148" cy="2.6941924705003424" r="5" style="fill: rgb(0, 204, 153); opacity: 1;"><title>Nuevo León</title></circle><circle class="dot" cx="56.06719471004529" cy="3.830081350623413" r="5" style="fill: rgb(0, 204, 153); opacity: 1;"><title>Querétaro</title></circle><circle class="dot" cx="68.6302230354444" cy="2.3884395948995154" r="5" style="fill: rgb(0, 204, 153); opacity: 1;"><title>Distrito Federal</title></circle><circle class="dot" cx="36.00147836025431" cy="3.020787513373924" r="5" style="fill: rgb(0, 204, 153); opacity: 1;"><title>Jalisco</title></circle><circle class="dot" cx="37.14127630332767" cy="3.4606078155515076" r="5" style="fill: rgb(0, 204, 153); opacity: 1;"><title>Sonora</title></circle><circle class="dot" cx="80.6445221398634" cy="3.1352603262079213" r="5" style="fill: rgb(0, 204, 153); opacity: 1;"><title>Durango</title></circle><circle class="dot" cx="43.82607262491276" cy="1.9769108121499428" r="5" style="fill: rgb(0, 204, 153); opacity: 1;"><title>Zacatecas</title></circle><circle class="dot" cx="89.09998022243254" cy="4.241455661750718" r="5" style="fill: rgb(0, 204, 153); opacity: 1;"><title>Tlaxcala</title></circle><circle class="dot" cx="45.96577209979629" cy="6.027760133258669" r="5" style="fill: rgb(0, 204, 153); opacity: 1;"><title>Nayarit</title></circle><circle class="dot" cx="42.082691959451964" cy="7.12171561425805" r="5" style="fill: rgb(0, 204, 153); opacity: 1;"><title>Guanajuato</title></circle><circle class="dot" cx="113.77063088867497" cy="9.610229259230396" r="5" style="fill: rgb(0, 204, 153); opacity: 1;"><title>México</title></circle><circle class="dot" cx="56.66182438345612" cy="10.118294859202415" r="5" style="fill: rgb(0, 204, 153); opacity: 1;"><title>Michoacán</title></circle><circle class="dot" cx="41.51159153996608" cy="7.7121644993621485" r="5" style="fill: rgb(0, 204, 153); opacity: 1;"><title>Baja California Sur</title></circle><circle class="dot" cx="62.66913027775363" cy="14.494899458007346" r="5" style="fill: rgb(0, 204, 153); opacity: 1;"><title>Morelos</title></circle><circle class="dot" cx="109.80858629356196" cy="13.160425387594902" r="5" style="fill: rgb(0, 204, 153); opacity: 1;"><title>Hidalgo</title></circle><circle class="dot" cx="32.11839619308268" cy="14.606812266182272" r="5" style="fill: rgb(0, 204, 153); opacity: 1;"><title>Yucatán</title></circle><circle class="dot" cx="44.856689987499756" cy="14.225592614157145" r="5" style="fill: rgb(0, 204, 153); opacity: 1;"><title>Quintana Roo</title></circle><circle class="dot" cx="94.01928503523122" cy="17.845505006097596" r="5" style="fill: rgb(0, 204, 153); opacity: 1;"><title>San Luis Potosí</title></circle><circle class="dot" cx="142.93300043048967" cy="24.393507857202085" r="5" style="fill: rgb(0, 204, 153); opacity: 1;"><title>Chihuahua</title></circle><circle class="dot" cx="140.0955190388846" cy="30.658769364307815" r="5" style="fill: rgb(0, 204, 153); opacity: 1;"><title>Puebla</title></circle><circle class="dot" cx="107.46903593445266" cy="24.458253982392304" r="5" style="fill: rgb(0, 204, 153); opacity: 1;"><title>Campeche</title></circle><circle class="dot" cx="134.5929965116865" cy="37.04245435175091" r="5" style="fill: rgb(0, 204, 153); opacity: 1;"><title>Veracruz</title></circle><circle class="dot" cx="90.88669814081152" cy="34.54898269748268" r="5" style="fill: rgb(0, 204, 153); opacity: 1;"><title>Tabasco</title></circle><circle class="dot" cx="122.45544732865898" cy="1.8936611336096407" r="5" style="fill: rgb(0, 204, 153); opacity: 1;"><title>Baja California</title></circle><circle class="dot" cx="15.27142127021552" cy="1.783963696655395" r="5" style="fill: rgb(0, 204, 153); opacity: 1;"><title>Sinaloa</title></circle><circle class="dot" cx="153.6296023528632" cy="88.95054047300438" r="5" style="fill: rgb(0, 204, 153); opacity: 1;"><title>Oaxaca</title></circle><circle class="dot" cx="154.97010189485923" cy="103.70510254546468" r="5" style="fill: rgb(0, 204, 153); opacity: 1;"><title>Guerrero</title></circle><circle class="dot" cx="150.33765302923047" cy="188.81733786635678" r="5" style="fill: rgb(0, 204, 153); opacity: 1;"><title>Chiapas</title></circle></g></g></svg>