<svg xmlns="http://www.w3.org/2000/svg" class="leaflet-zoom-animated" width="2000" height="852" viewBox="-326 -139 2000 852" style="transform: translate3d(-326px, -139px, 0px);"><g><path class="class-3 leaflet-clickable" stroke-linejoin="round" stroke-linecap="round" fill-rule="evenodd" stroke="#005540" stroke-opacity="1" stroke-width="0.5" fill="#086" fill-opacity="0.5" d="M1674 478.42857142857144L1663 497L1670 506L1666 511L1666 524L1663 530L1654 524L1627 494L1617 485L1592 466L1580 461L1577 455L1580 452L1580 447L1576 440L1588 408L1592 403L1596 403L1600 400L1606 388L1607 389L1607 387L1611 383L1610 379L1612 377L1610 377L1612 377L1612 372L1615 368L1621 370L1623 372L1621 374L1622 375L1626 375L1627 377L1625 380L1625 384L1628 390L1630 392L1633 390L1636 394L1635 395L1638 396L1638 398L1640 398L1647 389L1652 387L1653 388L1657 385L1657 381L1660 381L1665 377L1666 378L1669 374L1671 374L1670 373L1674 371z"/></g><g><path class="class-3 leaflet-clickable" stroke-linejoin="round" stroke-linecap="round" fill-rule="evenodd" stroke="#005540" stroke-opacity="1" stroke-width="0.5" fill="#086" fill-opacity="0.5" d="M1332 332L1334 338L1339 344L1349 346L1351 349L1351 354L1355 356L1354 358L1360 359L1360 364L1365 365L1363 367L1370 370L1377 367L1380 367L1381 369L1381 375L1377 378L1379 385L1383 386L1386 392L1385 393L1387 399L1385 400L1385 402L1390 403L1390 408L1400 413L1397 414L1395 417L1397 421L1395 426L1391 429L1389 428L1391 433L1387 436L1382 436L1382 438L1384 439L1382 444L1376 445L1374 447L1365 436L1359 437L1344 432L1329 429L1327 430L1317 425L1315 423L1316 422L1313 422L1305 417L1264 403L1254 394L1244 390L1243 387L1240 385L1237 385L1229 377L1228 373L1216 368L1213 368L1212 370L1212 368L1209 366L1211 359L1219 357L1224 353L1223 341L1228 338L1235 338L1238 343L1254 341L1257 343L1262 342L1266 346L1267 344L1273 344L1276 348L1277 347L1280 350L1282 347L1274 340L1274 325L1277 327L1277 329L1281 324L1289 331L1287 336L1289 338L1289 342L1291 341L1292 343L1291 347L1295 349L1297 349L1297 346L1298 347L1303 342L1305 342L1307 338L1311 340L1314 337L1317 337L1321 332L1324 333L1322 330L1323 329L1326 332L1330 334L1331 333z"/></g><g><path class="class-3 leaflet-clickable" stroke-linejoin="round" stroke-linecap="round" fill-rule="evenodd" stroke="#005540" stroke-opacity="1" stroke-width="0.5" fill="#086" fill-opacity="0.5" d="M1588 408L1576 440L1580 447L1580 451L1577 454L1580 461L1582 462L1563 454L1550 452L1530 453L1521 458L1519 460L1520 461L1517 463L1496 469L1480 477L1466 478L1457 475L1452 475L1441 468L1433 465L1410 463L1390 451L1381 450L1375 447L1376 445L1382 444L1384 441L1382 437L1391 434L1389 428L1394 428L1397 421L1395 417L1396 414L1400 413L1391 409L1390 403L1385 402L1386 392L1385 389L1378 382L1377 378L1381 375L1381 373L1385 373L1387 370L1389 373L1394 368L1400 368L1403 369L1403 371L1408 371L1412 366L1414 366L1410 364L1409 367L1407 367L1408 364L1406 358L1409 353L1416 353L1416 358L1422 366L1424 366L1427 362L1433 359L1437 359L1438 357L1441 360L1444 359L1446 356L1452 355L1457 348L1460 349L1460 342L1459 343L1458 340L1461 336L1465 339L1470 340L1480 358L1483 358L1482 359L1484 361L1486 359L1488 361L1493 359L1499 361L1500 369L1498 376L1495 380L1497 380L1497 382L1504 389L1509 389L1514 386L1515 387L1526 379L1528 382L1524 386L1533 397L1541 400L1540 405L1579 408z"/></g><g><path class="class-3 leaflet-clickable" stroke-linejoin="round" stroke-linecap="round" fill-rule="evenodd" stroke="#005540" stroke-opacity="1" stroke-width="0.5" fill="#086" fill-opacity="0.5" d="M0 0"/></g><g><path class="class-3 leaflet-clickable" stroke-linejoin="round" stroke-linecap="round" fill-rule="evenodd" stroke="#005540" stroke-opacity="1" stroke-width="0.5" fill="#086" fill-opacity="0.5" d="M0 0"/></g><g><path class="class-3 leaflet-clickable" stroke-linejoin="round" stroke-linecap="round" fill-rule="evenodd" stroke="#005540" stroke-opacity="1" stroke-width="0.5" fill="#086" fill-opacity="0.5" d="M1674 371L1670 373L1671 374L1669 374L1667 378L1665 377L1660 382L1658 381L1657 385L1653 388L1649 387L1642 395L1642 397L1638 398L1638 396L1635 395L1636 394L1633 390L1630 391L1626 386L1626 375L1621 374L1623 372L1615 368L1612 371L1612 376L1610 378L1611 383L1607 387L1607 389L1606 388L1600 400L1598 400L1599 399L1596 397L1599 393L1599 389L1594 385L1594 382L1586 379L1583 374L1582 375L1578 373L1579 364L1577 361L1578 359L1576 359L1576 357L1608 346L1633 346L1638 343L1642 337L1644 338L1652 336L1654 344L1657 346L1665 345L1665 358L1669 363L1670 362L1674 366z"/></g><g><path class="class-2 leaflet-clickable" stroke-linejoin="round" stroke-linecap="round" fill-rule="evenodd" stroke="#005540" stroke-opacity="1" stroke-width="0.5" fill="#00cc99" fill-opacity="0.5" d="M1674 366L1671 362L1669 363L1666 360L1665 345L1657 346L1652 338L1652 336L1655 335L1674 333.5z"/></g><g><path class="class-2 leaflet-clickable" stroke-linejoin="round" stroke-linecap="round" fill-rule="evenodd" stroke="#005540" stroke-opacity="1" stroke-width="0.5" fill="#00cc99" fill-opacity="0.5" d="M1401 246L1395 252L1395 254L1391 257L1389 256L1387 259L1388 260L1391 258L1395 264L1392 268L1393 272L1390 272L1386 278L1388 278L1388 280L1391 282L1389 284L1386 284L1383 290L1377 290L1376 288L1370 290L1369 289L1372 287L1371 284L1373 282L1370 279L1369 280L1369 278L1364 276L1364 278L1360 275L1358 276L1359 277L1357 280L1354 279L1353 277L1356 276L1356 274L1354 274L1357 271L1357 269L1355 268L1354 272L1350 269L1347 269L1344 277L1337 282L1337 277L1336 278L1332 275L1335 271L1331 264L1332 263L1327 262L1326 264L1324 262L1320 262L1316 257L1315 258L1317 244L1321 244L1326 241L1327 242L1329 239L1332 239L1330 234L1332 233L1337 224L1337 217L1339 217L1340 215L1343 217L1351 214L1352 215L1352 208L1357 207L1358 211L1361 214L1369 212L1370 213L1373 211L1373 208L1369 206L1375 203L1379 204L1375 209L1379 210L1378 211L1381 215L1386 213L1386 215L1390 215L1393 218L1393 220L1390 223L1390 227L1388 227L1388 230L1390 231L1388 233L1385 233L1384 232L1386 231L1383 229L1380 230L1379 234L1375 237L1376 239L1380 235L1377 239L1378 242L1376 242L1375 246L1373 246L1376 254L1379 255L1388 246L1392 245L1397 238L1400 245z"/></g><g><path class="class-2 leaflet-clickable" stroke-linejoin="round" stroke-linecap="round" fill-rule="evenodd" stroke="#005540" stroke-opacity="1" stroke-width="0.5" fill="#00cc99" fill-opacity="0.5" d="M1410 160L1410 167L1417 181L1427 192L1430 193L1426 211L1437 235L1437 239L1471 278L1474 292L1477 296L1477 303L1484 309L1485 308L1488 316L1492 316L1494 325L1507 332L1527 333L1535 340L1545 341L1549 349L1554 353L1554 357L1556 359L1561 360L1576 357L1576 359L1578 359L1577 361L1579 364L1578 372L1582 375L1583 374L1586 379L1593 382L1594 385L1599 389L1598 395L1596 396L1599 399L1598 400L1600 400L1596 403L1592 403L1588 407L1579 408L1540 405L1541 400L1533 397L1524 385L1528 383L1526 379L1515 387L1514 386L1509 389L1504 389L1503 387L1501 387L1497 380L1495 380L1498 376L1500 369L1499 361L1494 359L1490 361L1488 361L1487 359L1484 361L1482 359L1483 358L1480 358L1476 349L1468 339L1465 339L1461 336L1458 340L1458 342L1460 342L1460 349L1458 349L1458 347L1455 346L1455 342L1453 343L1448 340L1442 345L1439 338L1435 336L1434 337L1429 333L1429 330L1434 323L1434 314L1437 311L1442 311L1443 313L1443 309L1446 305L1437 303L1432 300L1429 301L1427 299L1430 297L1429 295L1427 295L1426 289L1431 286L1431 279L1438 263L1426 259L1419 267L1419 265L1416 262L1414 263L1412 261L1412 258L1414 256L1411 252L1412 249L1416 251L1416 249L1420 247L1418 243L1415 244L1411 239L1411 235L1413 233L1411 231L1406 230L1403 236L1405 237L1405 240L1401 244L1401 246L1397 238L1392 245L1390 245L1384 251L1382 251L1379 255L1375 253L1373 247L1376 245L1376 242L1378 242L1377 240L1381 235L1376 238L1375 237L1379 234L1380 230L1384 229L1385 233L1390 231L1388 231L1388 228L1390 227L1389 226L1393 218L1390 215L1386 215L1386 213L1381 215L1378 211L1379 210L1375 209L1379 204L1376 202L1376 198L1373 196L1371 190L1379 185L1375 179L1375 177L1377 177L1374 176L1376 174L1379 175L1378 174L1380 172L1381 166L1385 163L1385 161L1383 162L1380 158L1379 159L1373 155L1369 155L1369 153L1375 154L1380 152L1384 154L1387 150L1389 150L1397 156L1401 157L1405 162L1407 163L1408 161z"/></g><g><path class="class-2 leaflet-clickable" stroke-linejoin="round" stroke-linecap="round" fill-rule="evenodd" stroke="#005540" stroke-opacity="1" stroke-width="0.5" fill="#00cc99" fill-opacity="0.5" d="M1458 348L1452 355L1446 356L1444 359L1441 360L1438 358L1433 359L1424 366L1422 366L1416 359L1416 354L1410 353L1406 358L1408 364L1407 367L1408 368L1410 364L1414 366L1412 366L1408 371L1404 371L1401 368L1394 368L1390 373L1387 370L1385 373L1384 372L1382 374L1380 368L1378 367L1370 370L1366 367L1363 367L1366 365L1360 364L1360 359L1354 358L1354 354L1351 354L1351 351L1363 342L1367 346L1368 345L1368 337L1366 331L1370 324L1368 324L1369 321L1372 317L1370 310L1370 297L1374 296L1377 298L1385 311L1386 310L1392 314L1398 309L1403 311L1407 308L1406 306L1408 304L1415 305L1417 303L1409 295L1406 295L1404 290L1402 291L1398 288L1397 284L1395 287L1389 286L1388 284L1391 282L1387 278L1389 273L1393 272L1392 268L1395 265L1392 258L1389 260L1387 259L1388 256L1391 257L1392 254L1394 254L1401 246L1401 244L1404 242L1405 240L1403 236L1405 230L1411 231L1413 233L1411 237L1412 239L1415 244L1418 243L1421 247L1416 249L1416 251L1413 249L1411 251L1414 256L1411 258L1412 261L1418 264L1419 267L1423 264L1425 259L1438 263L1439 265L1431 278L1431 286L1426 291L1426 293L1430 296L1427 299L1430 301L1432 300L1439 304L1446 305L1444 313L1442 311L1436 311L1433 316L1434 323L1429 329L1429 333L1433 337L1435 336L1439 338L1442 345L1448 340L1453 343L1454 342L1455 346L1458 347z"/></g><g><path class="class-1 leaflet-clickable" stroke-linejoin="round" stroke-linecap="round" fill-rule="evenodd" stroke="#005540" stroke-opacity="1" stroke-width="0.5" fill="#7fd" fill-opacity="0.5" d="M0 0"/></g><g><path class="class-1 leaflet-clickable" stroke-linejoin="round" stroke-linecap="round" fill-rule="evenodd" stroke="#005540" stroke-opacity="1" stroke-width="0.5" fill="#7fd" fill-opacity="0.5" d="M0 0"/></g><g><path class="class-1 leaflet-clickable" stroke-linejoin="round" stroke-linecap="round" fill-rule="evenodd" stroke="#005540" stroke-opacity="1" stroke-width="0.5" fill="#7fd" fill-opacity="0.5" d="M0 0"/></g><g><path class="class-1 leaflet-clickable" stroke-linejoin="round" stroke-linecap="round" fill-rule="evenodd" stroke="#005540" stroke-opacity="1" stroke-width="0.5" fill="#7fd" fill-opacity="0.5" d="M0 0"/></g><g><path class="class-1 leaflet-clickable" stroke-linejoin="round" stroke-linecap="round" fill-rule="evenodd" stroke="#005540" stroke-opacity="1" stroke-width="0.5" fill="#7fd" fill-opacity="0.5" d="M0 0"/></g><g><path class="class-1 leaflet-clickable" stroke-linejoin="round" stroke-linecap="round" fill-rule="evenodd" stroke="#005540" stroke-opacity="1" stroke-width="0.5" fill="#7fd" fill-opacity="0.5" d="M1370 297L1368 293L1370 290L1374 288L1376 288L1376 290L1383 290L1385 284L1388 284L1388 286L1393 287L1397 284L1398 287L1406 292L1405 294L1407 296L1409 295L1417 302L1414 305L1407 304L1407 308L1403 311L1398 308L1392 314L1389 311L1384 310L1385 309L1376 297L1372 297z"/></g><g><path class="class-1 leaflet-clickable" stroke-linejoin="round" stroke-linecap="round" fill-rule="evenodd" stroke="#005540" stroke-opacity="1" stroke-width="0.5" fill="#7fd" fill-opacity="0.5" d="M1352 208L1352 215L1346 215L1343 217L1340 215L1336 218L1338 220L1336 223L1336 227L1332 230L1330 235L1332 239L1317 244L1315 258L1313 257L1313 260L1311 260L1311 258L1310 259L1310 261L1312 262L1311 268L1302 268L1300 264L1298 264L1301 261L1291 255L1290 252L1287 252L1287 243L1282 237L1282 235L1284 235L1283 231L1288 226L1290 228L1297 226L1297 224L1304 226L1306 224L1305 223L1309 220L1308 217L1310 211L1314 214L1323 211L1324 207L1320 208L1318 205L1320 194L1324 194L1332 202L1333 200L1336 201L1337 195L1340 196L1342 192L1345 190L1349 194L1348 196L1350 204L1348 206L1351 208z"/></g><g><path class="class-1 leaflet-clickable" stroke-linejoin="round" stroke-linecap="round" fill-rule="evenodd" stroke="#005540" stroke-opacity="1" stroke-width="0.5" fill="#7fd" fill-opacity="0.5" d="M888 -42L890 -44L893 -41L899 -47L905 -47L905 -49L907 -50L903 -50L905 -54L909 -56L914 -56L916 -63L920 -67L919 -68L925 -76L922 -76L924 -79L930 -77L930 -79L934 -79L937 -77L934 -72L941 -70L944 -67L943 -65L945 -65L942 -59L947 -52L944 -48L951 -38L951 -36L954 -35L955 -33L958 -35L963 -35L967 -31L969 -33L975 -32L978 -26L977 -22L988 -14L988 -11L992 -11L992 -7L982 -3L984 0L981 3L983 8L981 8L985 12L984 22L987 23L989 28L994 31L994 34L997 33L1005 44L1006 48L1010 51L1010 53L1008 54L1012 59L1016 60L1019 59L1021 56L1028 58L1029 57L1036 67L1035 71L1040 75L1038 77L1042 79L1042 81L1038 79L1041 97L1042 94L1044 94L1047 97L1049 103L1048 106L1053 112L1052 117L1054 119L1061 118L1063 120L1063 122L1059 126L1060 130L1058 135L1058 139L1062 146L1060 148L1057 148L1051 144L1049 146L1051 150L1048 149L1042 138L1033 131L1021 117L1016 115L1017 113L1013 109L1014 108L1003 94L1001 94L995 82L984 71L946 43L942 35L939 33L935 24L924 11L919 8L908 6L898 2L890 -7L882 -8L879 -24L888 -42z"/></g><g><path class="class-1 leaflet-clickable" stroke-linejoin="round" stroke-linecap="round" fill-rule="evenodd" stroke="#005540" stroke-opacity="1" stroke-width="0.5" fill="#7fd" fill-opacity="0.5" d="M1355 315L1358 316L1364 322L1367 322L1371 318L1368 324L1370 324L1366 330L1368 337L1368 345L1367 346L1363 342L1351 351L1348 345L1339 345L1334 338L1332 332L1334 330L1335 325L1338 324L1340 321L1341 313L1352 317L1352 315L1355 315z"/></g><g><path class="class-1 leaflet-clickable" stroke-linejoin="round" stroke-linecap="round" fill-rule="evenodd" stroke="#005540" stroke-opacity="1" stroke-width="0.5" fill="#7fd" fill-opacity="0.5" d="M1319 198L1318 205L1320 208L1324 207L1323 211L1317 214L1310 211L1308 213L1309 220L1306 221L1304 226L1298 224L1297 226L1295 225L1294 227L1290 228L1287 226L1288 227L1283 230L1284 234L1282 235L1282 237L1287 243L1287 252L1289 252L1294 258L1291 265L1291 267L1293 268L1292 270L1285 274L1285 272L1284 273L1282 271L1275 275L1273 275L1273 273L1271 272L1271 274L1265 274L1263 272L1265 270L1261 266L1257 268L1256 267L1256 269L1253 270L1246 269L1244 261L1247 261L1247 259L1245 259L1244 257L1243 258L1243 255L1237 255L1231 261L1223 261L1221 260L1219 253L1217 254L1217 252L1213 252L1220 242L1220 240L1215 235L1214 231L1220 225L1221 226L1223 219L1224 217L1226 217L1225 215L1228 213L1228 211L1234 208L1234 204L1232 203L1236 202L1237 200L1234 196L1237 192L1237 184L1249 181L1256 185L1264 185L1271 190L1270 192L1282 197L1288 196L1288 190L1293 188L1300 191L1301 190L1301 192L1306 197L1311 196L1310 197L1312 200L1317 200L1319 199L1318 198z"/></g><g><path class="class-1 leaflet-clickable" stroke-linejoin="round" stroke-linecap="round" fill-rule="evenodd" stroke="#005540" stroke-opacity="1" stroke-width="0.5" fill="#7fd" fill-opacity="0.5" d="M639 350L641 350L638 351L638 349z"/></g><g><path class="class-1 leaflet-clickable" stroke-linejoin="round" stroke-linecap="round" fill-rule="evenodd" stroke="#005540" stroke-opacity="1" stroke-width="0.5" fill="#7fd" fill-opacity="0.5" d="M809 326L812 329L811 332L809 332L806 329L808 327z"/></g><g><path class="class-1 leaflet-clickable" stroke-linejoin="round" stroke-linecap="round" fill-rule="evenodd" stroke="#005540" stroke-opacity="1" stroke-width="0.5" fill="#7fd" fill-opacity="0.5" d="M1150 321L1146 325L1143 325L1144 329L1141 330L1139 334L1128 325L1112 318L1112 314L1110 313L1107 315L1105 313L1095 310L1099 310L1100 312L1103 306L1105 308L1110 305L1113 306L1113 304L1120 304L1124 298L1124 295L1131 298L1139 298L1141 295L1144 294L1144 296L1150 303L1150 310L1148 315L1150 319z"/></g><g><path class="class-1 leaflet-clickable" stroke-linejoin="round" stroke-linecap="round" fill-rule="evenodd" stroke="#005540" stroke-opacity="1" stroke-width="0.5" fill="#7fd" fill-opacity="0.5" d="M817 305L817 304z"/></g><g><path class="class-1 leaflet-clickable" stroke-linejoin="round" stroke-linecap="round" fill-rule="evenodd" stroke="#005540" stroke-opacity="1" stroke-width="0.5" fill="#7fd" fill-opacity="0.5" d="M1315 258L1316 257L1322 263L1332 263L1331 264L1335 271L1332 275L1336 278L1337 277L1337 281L1339 281L1345 276L1345 271L1349 269L1352 271L1353 270L1353 272L1354 268L1357 269L1357 271L1354 274L1356 274L1357 276L1353 277L1354 279L1357 280L1359 277L1358 276L1360 275L1364 278L1364 276L1369 280L1370 279L1373 282L1368 292L1371 298L1370 310L1372 317L1367 322L1365 322L1355 315L1357 308L1356 304L1352 300L1351 295L1348 293L1348 291L1347 295L1345 294L1344 298L1338 304L1342 313L1340 315L1340 321L1338 324L1335 325L1334 330L1330 334L1326 331L1325 332L1323 329L1322 330L1324 333L1321 332L1318 337L1314 337L1311 340L1309 340L1308 338L1306 339L1305 342L1303 342L1298 347L1297 346L1296 349L1291 347L1292 343L1291 341L1289 341L1289 338L1287 336L1289 331L1286 327L1282 326L1281 324L1292 312L1295 305L1295 301L1300 298L1300 294L1297 289L1298 288L1296 287L1297 285L1302 284L1302 279L1305 277L1303 275L1304 270L1302 270L1302 268L1311 268L1312 263L1310 259L1311 258L1311 260L1313 260L1313 257L1314 258z"/></g><g><path class="class-0 leaflet-clickable" stroke-linejoin="round" stroke-linecap="round" fill-rule="evenodd" stroke="#005540" stroke-opacity="1" stroke-width="0.5" fill="#ddfff6" fill-opacity="0.5" d="M0 0"/></g><g><path class="class-0 leaflet-clickable" stroke-linejoin="round" stroke-linecap="round" fill-rule="evenodd" stroke="#005540" stroke-opacity="1" stroke-width="0.5" fill="#ddfff6" fill-opacity="0.5" d="M0 0"/></g><g><path class="class-0 leaflet-clickable" stroke-linejoin="round" stroke-linecap="round" fill-rule="evenodd" stroke="#005540" stroke-opacity="1" stroke-width="0.5" fill="#ddfff6" fill-opacity="0.5" d="M0 0"/></g><g><path class="class-0 leaflet-clickable" stroke-linejoin="round" stroke-linecap="round" fill-rule="evenodd" stroke="#005540" stroke-opacity="1" stroke-width="0.5" fill="#ddfff6" fill-opacity="0.5" d="M896 -139L898 -129L903 -125L903 -121L905 -120L903 -118L904 -115L910 -113L911 -108L915 -105L918 -93L915 -90L915 -86L918 -81L917 -80L920 -77L925 -76L914 -59L914 -56L909 -56L905 -54L903 -50L906 -51L906 -48L899 -46L893 -41L890 -44L888 -42L887 -43L888 -49L886 -54L880 -60L868 -60L861 -65L860 -71L856 -76L856 -79L849 -83L842 -84L835 -90L827 -93L827 -104L825 -110L827 -120L830 -120L828 -122L817 -124L816 -126L813 -123L815 -123L814 -120L810 -123L811 -124L809 -126L805 -125L802 -128L800 -128L795 -133L793 -139zM815 -127L816 -127z"/></g><g><path class="class-0 leaflet-clickable" stroke-linejoin="round" stroke-linecap="round" fill-rule="evenodd" stroke="#005540" stroke-opacity="1" stroke-width="0.5" fill="#ddfff6" fill-opacity="0.5" d="M1135 -139L1130 -127L1132 -126L1132 -124L1129 -125L1129 -119L1131 -119L1130 -118L1132 -115L1132 -93L1135 -91L1135 -89L1136 -90L1136 -83L1138 -81L1138 -78L1134 -74L1134 -72L1138 -68L1140 -63L1127 -64L1127 -66L1124 -64L1118 -65L1114 -69L1114 -67L1112 -67L1114 -63L1112 -59L1107 -57L1101 -43L1091 -52L1084 -51L1079 -47L1077 -53L1069 -50L1065 -51L1065 -53L1059 -52L1059 -54L1056 -54L1054 -59L1054 -57L1051 -57L1048 -62L1046 -62L1046 -60L1034 -69L1031 -65L1030 -66L1028 -64L1030 -62L1027 -61L1023 -52L1025 -50L1022 -46L1023 -43L1022 -44L1016 -36L1017 -33L1014 -29L1014 -26L1016 -26L1013 -25L1012 -23L1011 -24L1010 -22L1011 -11L1015 -13L1006 -5L996 -4L995 -8L991 -9L991 -12L988 -11L988 -14L977 -22L975 -31L971 -33L967 -31L966 -34L963 -35L958 -35L955 -33L954 -35L951 -36L951 -38L944 -48L947 -51L941 -59L944 -61L945 -65L943 -65L944 -67L941 -70L938 -70L938 -72L934 -72L934 -75L937 -77L935 -79L931 -79L930 -77L923 -79L922 -77L920 -77L917 -79L918 -81L917 -85L915 -86L915 -90L918 -93L915 -104L912 -106L910 -110L911 -111L908 -115L904 -115L903 -117L905 -120L903 -121L903 -125L897 -132L896 -139z"/></g><g><path class="class-0 leaflet-clickable" stroke-linejoin="round" stroke-linecap="round" fill-rule="evenodd" stroke="#005540" stroke-opacity="1" stroke-width="0.5" fill="#ddfff6" fill-opacity="0.5" d="M863 67L860 67L857 61L857 56L862 64z"/></g><g><path class="class-0 leaflet-clickable" stroke-linejoin="round" stroke-linecap="round" fill-rule="evenodd" stroke="#005540" stroke-opacity="1" stroke-width="0.5" fill="#ddfff6" fill-opacity="0.5" d="M838 48L841 51L839 54L836 51L836 48z"/></g><g><path class="class-0 leaflet-clickable" stroke-linejoin="round" stroke-linecap="round" fill-rule="evenodd" stroke="#005540" stroke-opacity="1" stroke-width="0.5" fill="#ddfff6" fill-opacity="0.5" d="M836 45L837 47L835 46z"/></g><g><path class="class-0 leaflet-clickable" stroke-linejoin="round" stroke-linecap="round" fill-rule="evenodd" stroke="#005540" stroke-opacity="1" stroke-width="0.5" fill="#ddfff6" fill-opacity="0.5" d="M822 19L823 22L826 22L828 24L830 30L828 31L821 22z"/></g><g><path class="class-0 leaflet-clickable" stroke-linejoin="round" stroke-linecap="round" fill-rule="evenodd" stroke="#005540" stroke-opacity="1" stroke-width="0.5" fill="#ddfff6" fill-opacity="0.5" d="M822 9L822 11L822 9z"/></g><g><path class="class-0 leaflet-clickable" stroke-linejoin="round" stroke-linecap="round" fill-rule="evenodd" stroke="#005540" stroke-opacity="1" stroke-width="0.5" fill="#ddfff6" fill-opacity="0.5" d="M819 -12L819 -6L817 -10z"/></g><g><path class="class-0 leaflet-clickable" stroke-linejoin="round" stroke-linecap="round" fill-rule="evenodd" stroke="#005540" stroke-opacity="1" stroke-width="0.5" fill="#ddfff6" fill-opacity="0.5" d="M807 -12L808 -9L806 -9L806 -11z"/></g><g><path class="class-0 leaflet-clickable" stroke-linejoin="round" stroke-linecap="round" fill-rule="evenodd" stroke="#005540" stroke-opacity="1" stroke-width="0.5" fill="#ddfff6" fill-opacity="0.5" d="M806 -30L805 -26L803 -26L798 -17L799 -23L801 -25L800 -28L804 -29z"/></g><g><path class="class-0 leaflet-clickable" stroke-linejoin="round" stroke-linecap="round" fill-rule="evenodd" stroke="#005540" stroke-opacity="1" stroke-width="0.5" fill="#ddfff6" fill-opacity="0.5" d="M796 -33L795 -32L796 -33z"/></g><g><path class="class-0 leaflet-clickable" stroke-linejoin="round" stroke-linecap="round" fill-rule="evenodd" stroke="#005540" stroke-opacity="1" stroke-width="0.5" fill="#ddfff6" fill-opacity="0.5" d="M759 -90L761 -88L760 -86L759 -90z"/></g><g><path class="class-0 leaflet-clickable" stroke-linejoin="round" stroke-linecap="round" fill-rule="evenodd" stroke="#005540" stroke-opacity="1" stroke-width="0.5" fill="#ddfff6" fill-opacity="0.5" d="M765 -99L764 -99z"/></g><g><path class="class-0 leaflet-clickable" stroke-linejoin="round" stroke-linecap="round" fill-rule="evenodd" stroke="#005540" stroke-opacity="1" stroke-width="0.5" fill="#ddfff6" fill-opacity="0.5" d="M617 -122L619 -122L617 -122z"/></g><g><path class="class-0 leaflet-clickable" stroke-linejoin="round" stroke-linecap="round" fill-rule="evenodd" stroke="#005540" stroke-opacity="1" stroke-width="0.5" fill="#ddfff6" fill-opacity="0.5" d="M662 -128L728 -128L728 -121L732 -114L736 -110L739 -110L747 -105L748 -99L754 -90L753 -88L756 -85L765 -82L762 -79L762 -75L765 -73L765 -71L767 -71L767 -69L771 -72L783 -61L782 -55L788 -53L787 -47L791 -42L790 -39L794 -31L792 -25L794 -15L799 -11L799 -7L803 -2L808 -2L807 1L811 9L812 17L817 23L818 22L824 34L820 42L820 47L823 51L823 57L826 62L832 65L839 66L840 63L838 59L840 57L843 57L846 62L853 66L854 72L857 73L861 71L863 73L861 77L867 84L868 92L878 96L877 98L880 102L880 109L877 116L873 120L867 122L858 130L853 129L849 123L845 106L838 95L826 89L809 71L797 63L784 56L779 56L776 59L758 46L755 42L757 40L756 38L753 35L749 35L757 11L758 -16L755 -21L755 -24L749 -30L745 -38L741 -38L733 -43L732 -42L711 -60L705 -62L701 -67L695 -67L691 -62L689 -62L683 -68L683 -71L680 -75L675 -77L672 -76L664 -84L660 -85L658 -83L657 -85L652 -86L652 -88L650 -88L649 -97L639 -104L635 -109L626 -114L623 -120L624 -121L627 -119L631 -120L634 -118L636 -119L640 -117L649 -117L657 -122L658 -121L661 -127z"/></g><g><path class="class-0 leaflet-clickable" stroke-linejoin="round" stroke-linecap="round" fill-rule="evenodd" stroke="#005540" stroke-opacity="1" stroke-width="0.5" fill="#ddfff6" fill-opacity="0.5" d="M1224 172L1223 175L1225 178L1217 180L1211 188L1208 188L1208 190L1204 190L1204 192L1193 186L1187 185L1186 187L1184 187L1179 181L1181 173L1186 168L1189 162L1187 161L1187 159L1194 159L1204 152L1210 155L1211 159L1216 159L1218 162L1218 165L1216 166L1224 171z"/></g><g><path class="class-0 leaflet-clickable" stroke-linejoin="round" stroke-linecap="round" fill-rule="evenodd" stroke="#005540" stroke-opacity="1" stroke-width="0.5" fill="#ddfff6" fill-opacity="0.5" d="M1316 -116L1309 -108L1300 -118L1293 -112L1290 -97L1278 -94L1271 -87L1271 -81L1273 -79L1275 -79L1275 -81L1277 -82L1284 -79L1284 -67L1277 -57L1275 -63L1254 -45L1260 -36L1267 -30L1268 -24L1271 -23L1270 -17L1273 -8L1276 -8L1277 -4L1284 -2L1281 -1L1283 -1L1282 1L1288 3L1287 7L1294 7L1298 11L1298 13L1294 13L1294 15L1282 11L1277 12L1272 16L1272 24L1276 28L1271 33L1273 37L1272 47L1268 45L1265 47L1260 45L1253 35L1245 35L1242 38L1235 36L1234 34L1236 35L1236 33L1234 31L1228 31L1225 23L1214 21L1207 18L1197 18L1198 24L1187 21L1178 37L1176 35L1168 33L1161 26L1161 24L1149 10L1151 8L1151 5L1154 4L1156 6L1157 4L1150 -3L1153 -5L1158 -14L1156 -33L1160 -41L1158 -44L1155 -57L1140 -63L1134 -72L1134 -74L1138 -78L1138 -81L1136 -83L1136 -90L1135 -89L1135 -91L1132 -93L1133 -108L1130 -118L1131 -119L1129 -119L1129 -126L1132 -124L1132 -126L1130 -127L1135 -139L1299 -139L1305 -136L1314 -123L1314 -118L1316 -118z"/></g><g><path class="class-0 leaflet-clickable" stroke-linejoin="round" stroke-linecap="round" fill-rule="evenodd" stroke="#005540" stroke-opacity="1" stroke-width="0.5" fill="#ddfff6" fill-opacity="0.5" d="M0 0"/></g><g><path class="class-0 leaflet-clickable" stroke-linejoin="round" stroke-linecap="round" fill-rule="evenodd" stroke="#005540" stroke-opacity="1" stroke-width="0.5" fill="#ddfff6" fill-opacity="0.5" d="M618 -139L618 -131L616 -130L610 -134L615 -139z"/></g><g><path class="class-0 leaflet-clickable" stroke-linejoin="round" stroke-linecap="round" fill-rule="evenodd" stroke="#005540" stroke-opacity="1" stroke-width="0.5" fill="#ddfff6" fill-opacity="0.5" d="M0 0"/></g><g><path class="class-0 leaflet-clickable" stroke-linejoin="round" stroke-linecap="round" fill-rule="evenodd" stroke="#005540" stroke-opacity="1" stroke-width="0.5" fill="#ddfff6" fill-opacity="0.5" d="M0 0"/></g><g><path class="class-0 leaflet-clickable" stroke-linejoin="round" stroke-linecap="round" fill-rule="evenodd" stroke="#005540" stroke-opacity="1" stroke-width="0.5" fill="#ddfff6" fill-opacity="0.5" d="M0 0"/></g><g><path class="class-0 leaflet-clickable" stroke-linejoin="round" stroke-linecap="round" fill-rule="evenodd" stroke="#005540" stroke-opacity="1" stroke-width="0.5" fill="#ddfff6" fill-opacity="0.5" d="M0 0"/></g><g><path class="class-0 leaflet-clickable" stroke-linejoin="round" stroke-linecap="round" fill-rule="evenodd" stroke="#005540" stroke-opacity="1" stroke-width="0.5" fill="#ddfff6" fill-opacity="0.5" d="M0 0"/></g><g><path class="class-0 leaflet-clickable" stroke-linejoin="round" stroke-linecap="round" fill-rule="evenodd" stroke="#005540" stroke-opacity="1" stroke-width="0.5" fill="#ddfff6" fill-opacity="0.5" d="M0 0"/></g><g><path class="class-0 leaflet-clickable" stroke-linejoin="round" stroke-linecap="round" fill-rule="evenodd" stroke="#005540" stroke-opacity="1" stroke-width="0.5" fill="#ddfff6" fill-opacity="0.5" d="M0 0"/></g><g><path class="class-0 leaflet-clickable" stroke-linejoin="round" stroke-linecap="round" fill-rule="evenodd" stroke="#005540" stroke-opacity="1" stroke-width="0.5" fill="#ddfff6" fill-opacity="0.5" d="M726 -139L726 -131L728 -128L662 -128L669 -139z"/></g><g><path class="class-0 leaflet-clickable" stroke-linejoin="round" stroke-linecap="round" fill-rule="evenodd" stroke="#005540" stroke-opacity="1" stroke-width="0.5" fill="#ddfff6" fill-opacity="0.5" d="M1355 315L1353 315L1352 317L1342 313L1338 306L1338 304L1344 299L1345 294L1347 295L1348 291L1348 293L1351 295L1352 300L1356 303L1356 315z"/></g><g><path class="class-0 leaflet-clickable" stroke-linejoin="round" stroke-linecap="round" fill-rule="evenodd" stroke="#005540" stroke-opacity="1" stroke-width="0.5" fill="#ddfff6" fill-opacity="0.5" d="M1410 160L1407 163L1400 156L1397 156L1390 150L1385 152L1385 154L1378 152L1375 154L1369 153L1366 155L1359 156L1357 154L1344 153L1340 143L1337 142L1337 140L1335 141L1332 136L1330 137L1332 143L1323 140L1318 141L1314 136L1305 136L1308 133L1307 128L1304 128L1304 125L1307 121L1304 118L1305 109L1302 107L1305 104L1312 105L1311 96L1315 86L1326 86L1332 80L1334 81L1332 76L1324 68L1328 55L1325 49L1322 50L1321 47L1327 43L1329 44L1332 42L1334 38L1341 34L1345 36L1345 31L1347 29L1347 21L1350 21L1351 18L1353 18L1353 21L1357 21L1381 2L1381 0L1373 0L1373 -27L1362 -29L1359 -25L1353 -31L1347 -29L1345 -39L1338 -43L1336 -42L1335 -44L1336 -56L1330 -60L1324 -60L1328 -70L1325 -72L1320 -71L1319 -73L1321 -73L1325 -80L1320 -91L1320 -99L1313 -102L1312 -105L1321 -112L1325 -109L1327 -110L1331 -106L1330 -103L1333 -102L1330 -93L1332 -93L1335 -86L1334 -78L1340 -72L1339 -71L1342 -70L1347 -53L1350 -52L1349 -48L1351 -46L1352 -47L1362 -44L1363 -45L1369 -39L1373 -39L1376 -37L1379 -38L1382 -34L1391 -29L1409 -29L1415 -27L1426 -18L1428 -18L1429 -22L1439 -24L1438 -12L1423 18L1415 46L1412 67L1412 91L1410 105L1411 129L1406 145L1408 158z"/></g><g><path class="class-2 leaflet-clickable" stroke-linejoin="round" stroke-linecap="round" fill-rule="evenodd" stroke="#005540" stroke-opacity="1" stroke-width="0.5" fill="#00cc99" fill-opacity="0.5" d="M1025 204L1025 206L1023 205L1024 204z"/></g><g><path class="class-2 leaflet-clickable" stroke-linejoin="round" stroke-linecap="round" fill-rule="evenodd" stroke="#005540" stroke-opacity="1" stroke-width="0.5" fill="#00cc99" fill-opacity="0.5" d="M1016 198L1019 200L1018 201L1013 199L1015 198z"/></g><g><path class="class-2 leaflet-clickable" stroke-linejoin="round" stroke-linecap="round" fill-rule="evenodd" stroke="#005540" stroke-opacity="1" stroke-width="0.5" fill="#00cc99" fill-opacity="0.5" d="M1006 188L1010 189L1013 193L1011 195L1007 193L1006 189z"/></g><g><path class="class-2 leaflet-clickable" stroke-linejoin="round" stroke-linecap="round" fill-rule="evenodd" stroke="#005540" stroke-opacity="1" stroke-width="0.5" fill="#00cc99" fill-opacity="0.5" d="M1005 184L1005 186z"/></g><g><path class="class-2 leaflet-clickable" stroke-linejoin="round" stroke-linecap="round" fill-rule="evenodd" stroke="#005540" stroke-opacity="1" stroke-width="0.5" fill="#00cc99" fill-opacity="0.5" d="M1111 153L1114 155L1114 158L1110 166L1110 174L1111 175L1113 173L1119 175L1118 181L1120 183L1131 185L1130 186L1132 188L1130 193L1139 201L1138 206L1134 210L1128 210L1123 213L1122 212L1117 214L1117 224L1115 228L1110 231L1110 233L1112 232L1116 236L1115 241L1114 237L1107 231L1106 232L1101 226L1098 226L1091 221L1089 221L1083 226L1077 226L1069 237L1066 234L1063 235L1057 233L1067 222L1067 220L1068 221L1071 218L1070 205L1073 200L1070 196L1069 197L1061 192L1052 174L1051 156L1047 147L1049 150L1051 150L1049 146L1051 144L1053 144L1055 147L1060 148L1062 146L1061 142L1058 139L1058 133L1060 130L1059 127L1063 120L1065 120L1067 127L1081 125L1082 132L1086 134L1086 137L1078 140L1081 144L1082 149L1088 143L1088 141L1090 141L1093 146L1097 147L1097 149L1102 155L1104 156L1110 152z"/></g><g><path class="class-1 leaflet-clickable" stroke-linejoin="round" stroke-linecap="round" fill-rule="evenodd" stroke="#005540" stroke-opacity="1" stroke-width="0.5" fill="#7fd" fill-opacity="0.5" d="M1141 -63L1143 -61L1155 -57L1158 -44L1160 -41L1156 -33L1158 -14L1151 -3L1157 4L1157 6L1154 4L1151 5L1151 8L1149 10L1168 33L1176 35L1178 37L1187 21L1189 24L1187 25L1187 27L1192 29L1195 39L1196 52L1186 56L1179 54L1177 51L1177 53L1174 51L1173 53L1170 51L1168 54L1162 54L1161 52L1155 53L1149 60L1146 61L1147 64L1143 69L1142 67L1134 73L1135 85L1133 87L1137 90L1135 94L1134 92L1132 93L1132 95L1124 101L1122 105L1121 115L1119 118L1119 127L1122 129L1123 134L1121 136L1118 135L1115 137L1115 144L1112 147L1113 151L1111 153L1110 152L1104 155L1105 156L1101 154L1097 150L1096 145L1093 146L1091 144L1092 142L1090 141L1088 141L1088 143L1082 149L1081 144L1078 141L1079 139L1086 137L1086 134L1082 132L1081 126L1067 127L1065 121L1062 118L1054 119L1052 117L1053 112L1049 108L1047 97L1044 94L1042 94L1041 97L1040 95L1038 79L1042 81L1042 79L1038 77L1040 75L1035 71L1036 67L1029 57L1028 58L1021 56L1020 59L1012 60L1008 54L1010 53L1010 51L1006 48L1004 41L997 33L994 34L992 29L989 29L988 24L984 22L985 12L981 8L983 8L981 3L984 -1L982 -2L983 -4L985 -3L992 -7L991 -9L994 -8L996 -4L1006 -4L1008 -8L1015 -12L1011 -11L1010 -22L1011 -24L1012 -23L1016 -26L1014 -26L1014 -29L1017 -33L1016 -36L1020 -42L1022 -44L1023 -43L1022 -46L1025 -50L1023 -52L1025 -54L1026 -61L1030 -62L1028 -64L1030 -66L1031 -65L1034 -69L1044 -61L1046 -60L1045 -62L1047 -62L1049 -59L1054 -57L1054 -59L1056 -54L1059 -54L1059 -52L1065 -53L1066 -50L1069 -50L1077 -53L1079 -47L1086 -52L1090 -52L1101 -43L1104 -47L1107 -57L1112 -59L1114 -63L1112 -67L1114 -67L1114 -69L1118 -65L1124 -64L1127 -66L1127 -64L1133 -64z"/></g><g><path class="class-0 leaflet-clickable" stroke-linejoin="round" stroke-linecap="round" fill-rule="evenodd" stroke="#005540" stroke-opacity="1" stroke-width="0.5" fill="#ddfff6" fill-opacity="0.5" d="M1316 -116L1317 -117L1321 -112L1312 -105L1313 -102L1320 -99L1320 -91L1325 -80L1321 -73L1319 -73L1320 -71L1325 -72L1328 -70L1326 -63L1324 -61L1330 -60L1336 -56L1335 -44L1336 -42L1338 -43L1345 -39L1347 -29L1353 -31L1359 -25L1362 -29L1373 -27L1373 0L1381 0L1381 2L1357 21L1353 21L1354 20L1352 18L1350 21L1347 21L1347 29L1345 31L1346 36L1341 34L1336 38L1332 39L1331 43L1328 43L1321 47L1322 50L1325 49L1328 55L1324 68L1330 73L1334 81L1332 80L1327 86L1315 86L1311 96L1312 105L1305 104L1302 107L1305 109L1304 112L1299 112L1299 109L1292 111L1292 115L1294 114L1294 116L1287 114L1288 106L1285 103L1286 99L1288 99L1287 94L1289 90L1287 89L1286 84L1284 82L1285 67L1281 66L1282 63L1280 63L1282 57L1281 54L1277 50L1275 51L1272 47L1273 37L1271 33L1276 28L1272 24L1272 16L1277 12L1282 11L1294 15L1294 13L1297 14L1298 11L1294 7L1287 7L1288 4L1283 1L1283 -1L1281 -1L1285 -2L1277 -4L1276 -8L1273 -8L1270 -17L1271 -22L1268 -24L1267 -30L1260 -36L1254 -45L1275 -63L1277 -57L1284 -67L1284 -78L1277 -83L1275 -80L1273 -80L1271 -87L1278 -94L1290 -97L1293 -112L1300 -118L1309 -108L1312 -112z"/></g><g><path class="class-2 leaflet-clickable" stroke-linejoin="round" stroke-linecap="round" fill-rule="evenodd" stroke="#005540" stroke-opacity="1" stroke-width="0.5" fill="#00cc99" fill-opacity="0.5" d="M1304 112L1303 116L1308 121L1306 122L1306 124L1304 124L1304 128L1307 128L1308 133L1304 136L1314 136L1318 141L1323 140L1330 143L1332 143L1330 139L1330 137L1332 136L1335 141L1337 140L1337 142L1340 143L1344 153L1352 153L1357 154L1359 156L1363 156L1368 153L1369 155L1373 155L1376 158L1380 158L1382 160L1381 161L1385 161L1385 163L1380 168L1379 174L1376 174L1374 176L1377 177L1376 176L1375 177L1377 178L1375 179L1379 184L1376 188L1375 187L1371 190L1372 194L1376 198L1377 203L1372 205L1371 204L1369 206L1373 208L1373 211L1371 213L1369 212L1361 214L1357 208L1350 208L1348 206L1350 202L1348 196L1349 194L1346 190L1340 196L1337 195L1336 201L1330 201L1324 194L1320 194L1318 198L1319 199L1313 200L1311 199L1311 196L1306 197L1304 193L1301 193L1301 191L1293 188L1288 190L1288 195L1282 197L1270 192L1271 190L1264 185L1257 185L1249 181L1241 183L1240 182L1242 179L1245 178L1244 177L1248 172L1246 172L1248 167L1247 165L1249 163L1246 160L1244 160L1244 155L1246 156L1246 152L1249 151L1250 144L1246 140L1247 138L1245 136L1241 137L1241 139L1238 141L1234 148L1229 148L1230 150L1225 149L1225 141L1221 141L1212 135L1209 131L1206 120L1208 118L1205 112L1207 108L1206 110L1204 108L1206 107L1207 102L1209 102L1210 106L1228 102L1255 78L1254 66L1260 64L1263 55L1263 57L1266 60L1277 50L1282 57L1280 63L1282 63L1281 66L1285 68L1283 78L1287 89L1289 89L1287 93L1288 99L1286 98L1285 103L1288 106L1287 113L1293 116L1294 114L1292 115L1292 111L1296 109L1299 109L1299 112L1303 112z"/></g><g><path class="class-1 leaflet-clickable" stroke-linejoin="round" stroke-linecap="round" fill-rule="evenodd" stroke="#005540" stroke-opacity="1" stroke-width="0.5" fill="#7fd" fill-opacity="0.5" d="M1272 47L1275 51L1270 57L1266 60L1263 58L1263 56L1260 64L1255 66L1255 78L1253 80L1228 102L1212 106L1210 106L1210 104L1207 102L1204 108L1206 110L1207 108L1205 112L1208 117L1206 122L1209 131L1212 135L1221 141L1225 141L1225 149L1230 150L1229 148L1234 148L1237 144L1236 143L1241 139L1241 137L1245 136L1247 138L1246 140L1250 144L1250 148L1246 151L1246 156L1244 155L1244 160L1246 160L1249 163L1247 165L1248 166L1246 172L1248 172L1245 175L1245 178L1241 180L1241 183L1238 181L1236 177L1234 178L1229 172L1224 172L1216 166L1218 162L1217 159L1211 159L1211 156L1206 155L1204 151L1201 155L1197 156L1194 159L1187 159L1187 161L1189 162L1179 177L1178 181L1184 187L1181 190L1183 190L1183 192L1189 196L1189 203L1187 205L1185 203L1185 205L1179 208L1176 212L1170 209L1168 216L1169 218L1167 219L1162 218L1157 220L1151 215L1146 216L1143 212L1143 208L1139 208L1144 205L1149 205L1148 201L1146 201L1145 203L1140 199L1141 195L1144 195L1145 193L1147 194L1149 187L1148 184L1146 184L1149 181L1150 182L1158 175L1164 175L1163 173L1167 172L1167 170L1165 170L1169 168L1167 166L1170 163L1170 161L1168 159L1163 160L1162 159L1165 156L1165 154L1159 153L1156 155L1156 159L1159 159L1159 161L1155 162L1153 167L1142 168L1141 167L1145 160L1143 156L1145 157L1145 153L1147 152L1145 148L1146 147L1144 145L1140 145L1138 146L1134 156L1135 159L1133 165L1130 157L1133 150L1133 146L1138 142L1137 137L1126 136L1124 138L1128 146L1127 147L1130 150L1126 155L1122 156L1124 153L1123 147L1118 149L1119 154L1117 152L1115 156L1111 153L1113 151L1112 148L1115 144L1115 136L1123 135L1122 129L1119 125L1119 118L1121 115L1122 105L1124 101L1131 96L1132 93L1134 92L1135 94L1137 90L1134 90L1133 88L1135 84L1134 73L1142 67L1143 69L1147 64L1146 61L1149 60L1154 53L1161 52L1168 54L1170 51L1173 53L1174 51L1177 53L1177 51L1180 55L1182 54L1184 56L1196 53L1195 39L1192 29L1187 27L1187 25L1189 25L1187 21L1198 24L1197 18L1207 18L1214 21L1225 23L1228 31L1234 31L1236 33L1236 35L1234 34L1235 36L1242 38L1248 34L1253 35L1260 45L1265 47L1268 45L1272 47z"/></g><g><path class="class-0 leaflet-clickable" stroke-linejoin="round" stroke-linecap="round" fill-rule="evenodd" stroke="#005540" stroke-opacity="1" stroke-width="0.5" fill="#ddfff6" fill-opacity="0.5" d="M1184 187L1186 187L1186 185L1193 186L1203 192L1204 190L1208 190L1208 188L1212 187L1216 180L1225 178L1225 176L1223 176L1224 172L1230 173L1234 178L1237 177L1240 183L1237 184L1237 192L1235 196L1237 202L1232 203L1234 204L1234 208L1228 210L1226 217L1223 218L1224 219L1222 221L1221 226L1220 225L1216 230L1214 230L1214 233L1220 240L1219 244L1217 244L1216 249L1213 252L1210 252L1209 254L1198 254L1190 258L1189 260L1188 259L1187 262L1181 264L1181 266L1175 262L1174 263L1176 264L1172 264L1170 266L1170 270L1172 273L1173 271L1175 271L1182 273L1185 276L1185 278L1181 281L1182 289L1184 289L1186 293L1184 295L1186 294L1188 296L1191 294L1193 296L1188 308L1182 307L1174 311L1171 313L1173 316L1171 316L1171 318L1170 317L1170 319L1165 323L1162 318L1150 321L1148 315L1150 310L1150 303L1144 296L1144 294L1141 295L1139 298L1135 299L1124 295L1121 304L1113 304L1113 306L1111 305L1105 308L1103 306L1100 312L1093 307L1090 308L1090 304L1088 305L1083 303L1080 300L1078 293L1069 286L1058 270L1056 266L1057 262L1050 252L1055 247L1067 246L1070 244L1071 241L1069 238L1070 235L1074 232L1074 229L1079 225L1080 227L1083 227L1089 221L1094 222L1096 225L1101 225L1106 232L1107 231L1113 237L1114 241L1116 236L1114 233L1110 233L1116 227L1117 214L1126 212L1128 210L1135 210L1139 204L1138 203L1140 201L1130 193L1130 189L1132 188L1130 186L1131 185L1124 183L1123 184L1118 181L1118 174L1110 174L1110 166L1112 164L1111 163L1114 156L1117 152L1119 154L1118 149L1123 147L1124 148L1122 156L1126 155L1130 150L1127 147L1128 146L1124 138L1126 136L1138 138L1137 142L1133 145L1133 153L1130 156L1131 162L1133 164L1137 146L1139 145L1144 145L1146 147L1145 157L1143 156L1145 160L1141 167L1142 168L1151 168L1156 161L1158 162L1159 159L1157 159L1156 157L1158 153L1164 154L1165 156L1162 159L1163 160L1168 159L1170 161L1170 163L1167 166L1169 167L1165 170L1167 170L1167 172L1163 173L1164 175L1158 175L1146 184L1148 184L1149 186L1147 193L1145 193L1145 195L1142 195L1140 199L1142 199L1145 203L1146 201L1148 201L1149 204L1146 206L1140 206L1139 208L1143 208L1143 212L1146 216L1153 215L1156 220L1161 218L1167 219L1169 218L1168 216L1170 209L1176 212L1180 207L1183 207L1185 203L1187 205L1189 204L1189 196L1183 192L1183 188z"/></g><g><path class="class-2 leaflet-clickable" stroke-linejoin="round" stroke-linecap="round" fill-rule="evenodd" stroke="#005540" stroke-opacity="1" stroke-width="0.5" fill="#00cc99" fill-opacity="0.5" d="M1293 257L1301 261L1298 264L1300 264L1300 267L1303 269L1302 268L1302 270L1304 270L1303 275L1304 277L1306 277L1302 279L1302 284L1296 287L1298 288L1298 292L1300 293L1300 298L1295 301L1295 305L1292 312L1277 329L1275 325L1273 327L1275 342L1282 347L1280 350L1278 349L1278 347L1276 348L1273 344L1267 344L1267 346L1262 342L1259 343L1254 341L1240 344L1236 341L1235 338L1228 338L1223 341L1224 353L1221 356L1211 358L1209 366L1212 368L1212 370L1208 371L1204 368L1188 365L1171 358L1167 358L1156 354L1150 351L1146 343L1140 338L1141 337L1139 335L1144 327L1144 324L1146 325L1151 320L1154 321L1161 318L1165 323L1170 319L1170 317L1171 318L1171 316L1173 316L1171 314L1172 312L1173 313L1174 311L1182 307L1188 308L1192 299L1193 296L1191 294L1188 296L1186 294L1185 295L1186 293L1181 286L1181 281L1184 280L1185 276L1182 273L1170 271L1170 266L1172 264L1173 265L1177 263L1181 266L1181 264L1187 262L1188 259L1189 260L1190 258L1198 254L1201 255L1204 253L1208 254L1212 252L1217 252L1217 254L1220 254L1220 258L1223 261L1231 261L1237 255L1243 255L1242 258L1244 257L1245 259L1247 259L1247 261L1245 261L1244 263L1246 265L1245 269L1253 270L1256 269L1256 266L1257 268L1260 266L1264 268L1263 269L1265 270L1263 272L1265 274L1271 274L1271 272L1273 275L1275 275L1279 272L1281 273L1282 271L1284 273L1285 272L1285 274L1292 271L1293 269L1291 265L1293 262L1293 257z"/></g></svg>