<svg xmlns="http://www.w3.org/2000/svg" class="leaflet-zoom-animated" width="1979" height="719" viewBox="1266 332 1979 719" style="transform: translate3d(1266px, 332px, 0px);"><g><path class="class-3 leaflet-clickable" stroke-linejoin="round" stroke-linecap="round" fill-rule="evenodd" stroke="#005540" stroke-opacity="1" stroke-width="0.5" fill="#086" fill-opacity="0.5" d="M2394 819L2394 826L2398 826L2399 829L2402 828L2407 832L2406 833L2412 839L2415 847L2422 853L2422 892L2381 892L2381 888L2371 886L2368 884L2369 883L2366 886L2366 890L2354 884L2354 879L2350 877L2347 873L2350 871L2358 871L2361 873L2378 863L2387 855L2387 847L2393 840L2392 826L2394 819z"/></g><g><path class="class-3 leaflet-clickable" stroke-linejoin="round" stroke-linecap="round" fill-rule="evenodd" stroke="#005540" stroke-opacity="1" stroke-width="0.5" fill="#086" fill-opacity="0.5" d="M2459 803L2459 815L2456 821L2445 833L2439 833L2433 839L2431 839L2430 842L2428 842L2429 843L2423 849L2422 848L2419 850L2416 848L2412 842L2412 839L2409 835L2407 835L2403 828L2400 829L2395 826L2394 819L2396 814L2406 809L2432 805L2436 802L2441 802L2444 800L2459 803z"/></g><g><path class="class-3 leaflet-clickable" stroke-linejoin="round" stroke-linecap="round" fill-rule="evenodd" stroke="#005540" stroke-opacity="1" stroke-width="0.5" fill="#086" fill-opacity="0.5" d="M2409 776L2413 779L2411 781L2408 778L2409 776z"/></g><g><path class="class-3 leaflet-clickable" stroke-linejoin="round" stroke-linecap="round" fill-rule="evenodd" stroke="#005540" stroke-opacity="1" stroke-width="0.5" fill="#086" fill-opacity="0.5" d="M2250 878L2246 882L2241 884L2238 883L2233 887L2231 887L2229 881L2225 881L2225 888L2227 886L2228 887L2226 887L2223 890L2221 888L2217 888L2217 890L2212 891L2211 888L2207 889L2197 881L2197 879L2200 876L2205 877L2204 869L2207 863L2206 852L2208 852L2217 861L2220 858L2223 860L2225 857L2229 856L2226 852L2223 851L2224 850L2222 848L2220 848L2220 846L2215 847L2216 846L2214 843L2219 836L2217 833L2214 833L2217 832L2223 825L2224 819L2227 820L2227 824L2231 827L2226 830L2228 832L2227 835L2231 837L2234 833L2240 836L2234 851L2236 853L2235 854L2244 857L2242 859L2243 860L2239 859L2236 872L2237 871L2242 876L2246 874L2250 878z"/></g><g><path class="class-3 leaflet-clickable" stroke-linejoin="round" stroke-linecap="round" fill-rule="evenodd" stroke="#005540" stroke-opacity="1" stroke-width="0.5" fill="#086" fill-opacity="0.5" d="M2226 784L2224 786L2216 779L2214 779L2213 781L2206 780L2204 782L2197 780L2195 781L2187 772L2186 776L2183 774L2179 774L2178 772L2173 772L2175 770L2173 767L2175 765L2173 763L2174 758L2172 758L2174 756L2177 757L2176 752L2179 747L2185 747L2187 744L2187 742L2183 738L2185 731L2182 729L2182 727L2186 726L2187 723L2191 721L2193 722L2195 718L2194 716L2197 713L2200 714L2211 705L2208 704L2208 690L2202 690L2200 692L2198 688L2195 690L2194 684L2192 685L2188 682L2189 676L2183 674L2185 669L2181 668L2183 664L2181 654L2177 653L2177 651L2182 648L2186 651L2188 665L2192 669L2196 681L2198 680L2200 682L2205 683L2205 685L2211 685L2216 690L2229 690L2234 695L2236 694L2235 693L2240 692L2240 698L2233 711L2228 729L2226 771L2224 774L2225 783z"/></g><g><path class="class-3 leaflet-clickable" stroke-linejoin="round" stroke-linecap="round" fill-rule="evenodd" stroke="#005540" stroke-opacity="1" stroke-width="0.5" fill="#086" fill-opacity="0.5" d="M2199 862L2202 865L2206 863L2204 869L2205 876L2204 877L2202 875L2197 879L2191 876L2187 871L2192 860L2199 862z"/></g><g><path class="class-3 leaflet-clickable" stroke-linejoin="round" stroke-linecap="round" fill-rule="evenodd" stroke="#005540" stroke-opacity="1" stroke-width="0.5" fill="#086" fill-opacity="0.5" d="M1952 737L1950 737L1950 732L1952 736z"/></g><g><path class="class-3 leaflet-clickable" stroke-linejoin="round" stroke-linecap="round" fill-rule="evenodd" stroke="#005540" stroke-opacity="1" stroke-width="0.5" fill="#086" fill-opacity="0.5" d="M1940 728L1940 731L1939 728z"/></g><g><path class="class-3 leaflet-clickable" stroke-linejoin="round" stroke-linecap="round" fill-rule="evenodd" stroke="#005540" stroke-opacity="1" stroke-width="0.5" fill="#086" fill-opacity="0.5" d="M1939 726L1939 727z"/></g><g><path class="class-3 leaflet-clickable" stroke-linejoin="round" stroke-linecap="round" fill-rule="evenodd" stroke="#005540" stroke-opacity="1" stroke-width="0.5" fill="#086" fill-opacity="0.5" d="M1932 714L1935 716L1936 719L1932 715z"/></g><g><path class="class-3 leaflet-clickable" stroke-linejoin="round" stroke-linecap="round" fill-rule="evenodd" stroke="#005540" stroke-opacity="1" stroke-width="0.5" fill="#086" fill-opacity="0.5" d="M1932 708L1931 710L1932 708z"/></g><g><path class="class-3 leaflet-clickable" stroke-linejoin="round" stroke-linecap="round" fill-rule="evenodd" stroke="#005540" stroke-opacity="1" stroke-width="0.5" fill="#086" fill-opacity="0.5" d="M1930 698L1931 701L1930 699z"/></g><g><path class="class-3 leaflet-clickable" stroke-linejoin="round" stroke-linecap="round" fill-rule="evenodd" stroke="#005540" stroke-opacity="1" stroke-width="0.5" fill="#086" fill-opacity="0.5" d="M1924 698L1924 700L1924 698z"/></g><g><path class="class-3 leaflet-clickable" stroke-linejoin="round" stroke-linecap="round" fill-rule="evenodd" stroke="#005540" stroke-opacity="1" stroke-width="0.5" fill="#086" fill-opacity="0.5" d="M1924 689L1924 691L1922 691L1920 695L1921 696L1920 693L1921 690L1923 690z"/></g><g><path class="class-3 leaflet-clickable" stroke-linejoin="round" stroke-linecap="round" fill-rule="evenodd" stroke="#005540" stroke-opacity="1" stroke-width="0.5" fill="#086" fill-opacity="0.5" d="M1919 687L1919 687z"/></g><g><path class="class-3 leaflet-clickable" stroke-linejoin="round" stroke-linecap="round" fill-rule="evenodd" stroke="#005540" stroke-opacity="1" stroke-width="0.5" fill="#086" fill-opacity="0.5" d="M1901 659L1901 661L1900 659z"/></g><g><path class="class-3 leaflet-clickable" stroke-linejoin="round" stroke-linecap="round" fill-rule="evenodd" stroke="#005540" stroke-opacity="1" stroke-width="0.5" fill="#086" fill-opacity="0.5" d="M1904 654L1903 654z"/></g><g><path class="class-3 leaflet-clickable" stroke-linejoin="round" stroke-linecap="round" fill-rule="evenodd" stroke="#005540" stroke-opacity="1" stroke-width="0.5" fill="#086" fill-opacity="0.5" d="M1830 643L1830 643z"/></g><g><path class="class-3 leaflet-clickable" stroke-linejoin="round" stroke-linecap="round" fill-rule="evenodd" stroke="#005540" stroke-opacity="1" stroke-width="0.5" fill="#086" fill-opacity="0.5" d="M1852 640L1885 640L1887 647L1895 653L1898 659L1897 660L1904 664L1902 665L1902 667L1904 669L1906 668L1909 670L1912 676L1915 678L1914 679L1918 689L1918 697L1923 703L1925 703L1926 709L1933 720L1931 728L1934 735L1940 737L1940 733L1943 733L1948 737L1948 740L1952 741L1952 743L1955 746L1955 749L1960 752L1961 759L1957 764L1948 769L1945 765L1943 755L1939 751L1935 749L1923 737L1913 732L1908 733L1898 725L1898 722L1895 721L1900 709L1900 696L1894 685L1887 683L1872 671L1870 670L1867 673L1860 666L1856 666L1853 662L1849 662L1846 659L1845 655L1832 644L1833 643L1845 646L1851 643L1852 641z"/></g><g><path class="class-3 leaflet-clickable" stroke-linejoin="round" stroke-linecap="round" fill-rule="evenodd" stroke="#005540" stroke-opacity="1" stroke-width="0.5" fill="#086" fill-opacity="0.5" d="M2181 803L2180 806L2181 808L2183 808L2179 811L2175 810L2176 811L2174 817L2165 817L2162 820L2164 828L2168 833L2166 837L2167 840L2154 841L2151 837L2149 837L2149 839L2145 839L2143 837L2143 835L2145 834L2142 833L2142 831L2140 831L2137 834L2131 834L2131 832L2128 829L2131 826L2128 819L2131 817L2135 809L2138 808L2137 805L2139 805L2138 802L2140 798L2139 797L2141 795L2147 795L2149 797L2151 796L2159 802L2165 802L2166 798L2168 798L2178 804L2180 803z"/></g><g><path class="class-3 leaflet-clickable" stroke-linejoin="round" stroke-linecap="round" fill-rule="evenodd" stroke="#005540" stroke-opacity="1" stroke-width="0.5" fill="#086" fill-opacity="0.5" d="M2199 862L2195 862L2190 858L2195 849L2199 856L2199 861z"/></g><g><path class="class-3 leaflet-clickable" stroke-linejoin="round" stroke-linecap="round" fill-rule="evenodd" stroke="#005540" stroke-opacity="1" stroke-width="0.5" fill="#086" fill-opacity="0.5" d="M2221 827L2217 832L2214 833L2218 834L2218 836L2214 842L2216 845L2213 846L2214 847L2212 849L2206 849L2207 844L2204 842L2200 842L2199 844L2198 841L2200 839L2198 838L2198 840L2195 839L2193 843L2191 843L2190 845L2190 843L2187 840L2187 835L2184 836L2179 833L2179 826L2184 825L2186 823L2190 814L2189 813L2197 811L2199 807L2200 810L2206 811L2206 807L2210 805L2209 808L2212 811L2215 810L2214 811L2216 811L2218 814L2215 818L2216 820L2211 819L2208 823L2210 822L2208 831L2213 830L2219 824L2221 826z"/></g><g><path class="class-3 leaflet-clickable" stroke-linejoin="round" stroke-linecap="round" fill-rule="evenodd" stroke="#005540" stroke-opacity="1" stroke-width="0.5" fill="#086" fill-opacity="0.5" d="M2179 646L2182 648L2177 651L2177 653L2181 654L2183 663L2181 668L2185 669L2183 673L2189 676L2188 682L2192 685L2194 684L2195 690L2198 688L2200 692L2202 690L2208 690L2208 704L2211 704L2201 714L2197 713L2194 716L2194 722L2191 721L2187 723L2186 726L2182 727L2182 729L2184 729L2185 731L2183 738L2188 744L2185 747L2179 747L2176 752L2177 757L2174 756L2172 758L2174 758L2173 760L2170 760L2171 758L2169 758L2168 760L2167 759L2168 762L2165 761L2165 748L2163 745L2164 739L2161 737L2162 732L2157 727L2157 720L2159 718L2157 717L2157 712L2159 710L2170 711L2170 709L2166 708L2161 703L2163 703L2158 700L2155 689L2148 682L2158 672L2160 675L2161 674L2163 670L2163 664L2157 664L2156 661L2160 657L2166 655L2167 648L2171 645L2175 649L2177 648z"/></g><g><path class="class-3 leaflet-clickable" stroke-linejoin="round" stroke-linecap="round" fill-rule="evenodd" stroke="#005540" stroke-opacity="1" stroke-width="0.5" fill="#086" fill-opacity="0.5" d="M2463 878L2464 875L2464 877z"/></g><g><path class="class-3 leaflet-clickable" stroke-linejoin="round" stroke-linecap="round" fill-rule="evenodd" stroke="#005540" stroke-opacity="1" stroke-width="0.5" fill="#086" fill-opacity="0.5" d="M2465 870L2465 872L2465 870z"/></g><g><path class="class-3 leaflet-clickable" stroke-linejoin="round" stroke-linecap="round" fill-rule="evenodd" stroke="#005540" stroke-opacity="1" stroke-width="0.5" fill="#086" fill-opacity="0.5" d="M2477 826L2471 833L2471 829L2473 826L2478 825z"/></g><g><path class="class-3 leaflet-clickable" stroke-linejoin="round" stroke-linecap="round" fill-rule="evenodd" stroke="#005540" stroke-opacity="1" stroke-width="0.5" fill="#086" fill-opacity="0.5" d="M2422 889L2421 885L2423 884L2423 860L2422 853L2419 850L2422 848L2423 849L2423 847L2425 847L2425 845L2430 842L2430 840L2433 839L2434 836L2437 836L2439 833L2445 832L2449 829L2456 821L2459 815L2459 803L2466 805L2469 804L2470 801L2475 808L2475 805L2476 806L2476 814L2473 820L2461 834L2461 844L2460 845L2461 841L2460 844L2454 847L2456 851L2461 848L2462 849L2461 853L2456 855L2456 859L2459 856L2461 856L2459 858L2451 884L2448 884L2448 878L2443 878L2443 876L2437 876L2435 882L2432 884L2429 890L2425 887L2423 889z"/></g><g><path class="class-3 leaflet-clickable" stroke-linejoin="round" stroke-linecap="round" fill-rule="evenodd" stroke="#005540" stroke-opacity="1" stroke-width="0.5" fill="#086" fill-opacity="0.5" d="M2469 800L2467 802L2462 803L2464 801L2468 801z"/></g><g><path class="class-2 leaflet-clickable" stroke-linejoin="round" stroke-linecap="round" fill-rule="evenodd" stroke="#005540" stroke-opacity="1" stroke-width="0.5" fill="#00cc99" fill-opacity="0.5" d="M1965 683L1969 683L1974 679L1975 676L1979 674L1983 664L1989 665L1988 668L1990 668L1993 671L1993 680L1999 688L2008 688L2010 691L2009 693L2015 697L2015 699L2017 699L2014 702L2012 702L2013 705L2011 706L2013 710L2013 715L2015 715L2018 721L2023 724L2026 730L2025 731L2028 734L2031 734L2031 732L2037 734L2039 740L2042 743L2040 743L2041 751L2044 752L2046 756L2045 757L2047 759L2047 763L2053 764L2050 768L2050 775L2051 774L2052 777L2051 778L2047 776L2046 779L2028 760L2027 756L2021 750L2016 742L1998 729L1982 709L1969 704L1966 700L1962 700L1960 692L1965 683z"/></g><g><path class="class-2 leaflet-clickable" stroke-linejoin="round" stroke-linecap="round" fill-rule="evenodd" stroke="#005540" stroke-opacity="1" stroke-width="0.5" fill="#00cc99" fill-opacity="0.5" d="M2173 760L2175 764L2173 766L2175 770L2173 772L2178 772L2186 776L2187 772L2195 781L2208 781L2214 785L2208 792L2210 792L2210 796L2206 800L2209 803L2209 805L2205 807L2207 807L2206 811L2202 811L2199 807L2196 808L2194 799L2189 805L2187 805L2183 801L2181 801L2181 803L2178 804L2169 798L2167 798L2165 802L2161 803L2157 801L2154 797L2141 795L2145 790L2145 786L2143 783L2144 780L2146 779L2144 774L2145 773L2142 772L2140 776L2139 775L2138 778L2135 779L2133 777L2133 774L2131 775L2126 770L2124 765L2125 763L2123 760L2125 758L2123 758L2125 755L2127 757L2135 755L2148 743L2148 737L2151 736L2152 731L2154 734L2159 730L2162 731L2161 736L2164 738L2164 761L2167 762L2167 759L2168 760L2169 758L2171 758L2170 760L2172 760z"/></g><g><path class="class-2 leaflet-clickable" stroke-linejoin="round" stroke-linecap="round" fill-rule="evenodd" stroke="#005540" stroke-opacity="1" stroke-width="0.5" fill="#00cc99" fill-opacity="0.5" d="M2315 908L2309 924L2311 927L2310 931L2312 935L2306 932L2296 930L2284 931L2279 936L2275 936L2265 941L2264 940L2261 943L2252 943L2243 940L2240 937L2226 936L2216 929L2209 928L2213 925L2212 922L2217 920L2216 919L2219 916L2219 912L2221 910L2216 909L2215 905L2214 906L2214 899L2210 895L2211 891L2215 889L2216 890L2218 888L2222 888L2225 890L2227 887L2226 886L2225 888L2224 883L2229 880L2231 887L2238 883L2243 884L2250 878L2251 872L2257 875L2262 884L2270 884L2271 889L2269 894L2273 898L2276 899L2282 894L2284 894L2285 895L2283 897L2287 902L2292 905L2291 906L2310 908z"/></g><g><path class="class-2 leaflet-clickable" stroke-linejoin="round" stroke-linecap="round" fill-rule="evenodd" stroke="#005540" stroke-opacity="1" stroke-width="0.5" fill="#00cc99" fill-opacity="0.5" d="M1890 621L1889 623L1889 621z"/></g><g><path class="class-2 leaflet-clickable" stroke-linejoin="round" stroke-linecap="round" fill-rule="evenodd" stroke="#005540" stroke-opacity="1" stroke-width="0.5" fill="#00cc99" fill-opacity="0.5" d="M1896 608L1898 614L1895 621L1890 617L1891 610L1895 608z"/></g><g><path class="class-2 leaflet-clickable" stroke-linejoin="round" stroke-linecap="round" fill-rule="evenodd" stroke="#005540" stroke-opacity="1" stroke-width="0.5" fill="#00cc99" fill-opacity="0.5" d="M1841 541L1843 541L1842 542z"/></g><g><path class="class-2 leaflet-clickable" stroke-linejoin="round" stroke-linecap="round" fill-rule="evenodd" stroke="#005540" stroke-opacity="1" stroke-width="0.5" fill="#00cc99" fill-opacity="0.5" d="M1838 521L1918 550L1923 553L1976 553L1975 555L1973 555L1974 558L1977 560L1976 561L1978 561L1975 561L1975 564L1972 564L1972 567L1974 570L1973 571L1980 576L1979 579L1981 580L1979 580L1979 593L1981 593L1981 595L1978 595L1979 601L1977 603L1977 617L1980 621L1982 631L1970 633L1969 637L1973 644L1972 645L1976 648L1978 652L1980 657L1978 659L1981 666L1984 666L1978 674L1978 676L1976 676L1973 679L1973 681L1965 683L1965 679L1963 676L1958 673L1953 673L1949 664L1941 662L1937 658L1934 658L1935 644L1933 642L1932 643L1928 641L1928 643L1926 643L1926 641L1920 639L1914 630L1910 628L1904 621L1905 619L1898 615L1898 608L1896 605L1895 606L1893 604L1894 602L1890 597L1888 591L1885 590L1885 583L1877 569L1878 557L1872 554L1865 553L1865 549L1860 545L1852 548L1843 541L1836 538L1834 531L1835 530L1833 528L1835 526L1835 522L1838 522zM1929 640L1929 641z"/></g><g><path class="class-2 leaflet-clickable" stroke-linejoin="round" stroke-linecap="round" fill-rule="evenodd" stroke="#005540" stroke-opacity="1" stroke-width="0.5" fill="#00cc99" fill-opacity="0.5" d="M2113 797L2115 796L2123 800L2133 793L2134 792L2132 792L2134 790L2136 790L2141 796L2139 796L2140 797L2138 802L2140 805L2138 805L2138 807L2135 809L2135 811L2128 820L2131 823L2128 829L2126 831L2120 831L2111 837L2110 835L2106 837L2106 840L2108 839L2113 842L2113 844L2111 845L2114 850L2113 851L2118 852L2115 858L2113 857L2109 859L2104 865L2102 863L2096 864L2096 856L2092 851L2088 854L2083 851L2081 856L2074 858L2073 857L2070 860L2066 858L2066 856L2065 857L2062 855L2060 850L2058 850L2050 839L2046 829L2054 827L2056 825L2055 823L2057 820L2058 821L2060 817L2065 815L2072 817L2079 825L2078 820L2076 820L2080 816L2079 811L2089 809L2088 808L2091 805L2086 800L2087 798L2085 796L2081 796L2080 792L2076 790L2078 782L2080 780L2081 781L2080 778L2083 779L2082 782L2086 779L2083 774L2084 772L2090 774L2090 776L2087 777L2088 778L2086 782L2088 786L2088 782L2091 776L2094 778L2091 787L2092 788L2096 788L2098 785L2100 785L2099 782L2101 780L2103 782L2102 783L2106 785L2104 791L2100 791L2096 795L2094 795L2096 797L2095 800L2091 802L2091 804L2095 804L2096 806L2091 808L2093 808L2094 812L2104 814L2106 809L2109 810L2113 806L2114 807L2116 803L2112 800L2113 798z"/></g><g><path class="class-2 leaflet-clickable" stroke-linejoin="round" stroke-linecap="round" fill-rule="evenodd" stroke="#005540" stroke-opacity="1" stroke-width="0.5" fill="#00cc99" fill-opacity="0.5" d="M1821 632L1820 632z"/></g><g><path class="class-2 leaflet-clickable" stroke-linejoin="round" stroke-linecap="round" fill-rule="evenodd" stroke="#005540" stroke-opacity="1" stroke-width="0.5" fill="#00cc99" fill-opacity="0.5" d="M1829 630L1831 636L1830 639L1826 637L1829 634L1829 631z"/></g><g><path class="class-2 leaflet-clickable" stroke-linejoin="round" stroke-linecap="round" fill-rule="evenodd" stroke="#005540" stroke-opacity="1" stroke-width="0.5" fill="#00cc99" fill-opacity="0.5" d="M1882 622L1885 624L1884 625L1883 623z"/></g><g><path class="class-2 leaflet-clickable" stroke-linejoin="round" stroke-linecap="round" fill-rule="evenodd" stroke="#005540" stroke-opacity="1" stroke-width="0.5" fill="#00cc99" fill-opacity="0.5" d="M1868 611L1868 612z"/></g><g><path class="class-2 leaflet-clickable" stroke-linejoin="round" stroke-linecap="round" fill-rule="evenodd" stroke="#005540" stroke-opacity="1" stroke-width="0.5" fill="#00cc99" fill-opacity="0.5" d="M1868 600L1871 602L1871 605L1873 607L1876 606L1876 614L1866 603L1867 600z"/></g><g><path class="class-2 leaflet-clickable" stroke-linejoin="round" stroke-linecap="round" fill-rule="evenodd" stroke="#005540" stroke-opacity="1" stroke-width="0.5" fill="#00cc99" fill-opacity="0.5" d="M1758 609L1760 612L1759 617L1757 612L1758 609z"/></g><g><path class="class-2 leaflet-clickable" stroke-linejoin="round" stroke-linecap="round" fill-rule="evenodd" stroke="#005540" stroke-opacity="1" stroke-width="0.5" fill="#00cc99" fill-opacity="0.5" d="M1847 588L1847 589z"/></g><g><path class="class-2 leaflet-clickable" stroke-linejoin="round" stroke-linecap="round" fill-rule="evenodd" stroke="#005540" stroke-opacity="1" stroke-width="0.5" fill="#00cc99" fill-opacity="0.5" d="M1840 547L1840 547z"/></g><g><path class="class-2 leaflet-clickable" stroke-linejoin="round" stroke-linecap="round" fill-rule="evenodd" stroke="#005540" stroke-opacity="1" stroke-width="0.5" fill="#00cc99" fill-opacity="0.5" d="M1840 540L1842 542L1841 543L1839 543L1839 540z"/></g><g><path class="class-2 leaflet-clickable" stroke-linejoin="round" stroke-linecap="round" fill-rule="evenodd" stroke="#005540" stroke-opacity="1" stroke-width="0.5" fill="#00cc99" fill-opacity="0.5" d="M1838 521L1835 523L1833 528L1835 530L1835 537L1839 540L1839 545L1837 548L1837 558L1841 564L1841 572L1843 577L1842 584L1848 592L1848 594L1851 594L1865 607L1868 617L1870 615L1872 619L1875 619L1877 626L1883 630L1882 632L1884 634L1884 640L1852 640L1855 636L1854 633L1856 629L1854 625L1849 621L1849 619L1846 616L1844 616L1843 612L1840 611L1840 609L1818 594L1819 592L1816 588L1816 581L1810 575L1811 569L1805 562L1804 563L1803 554L1796 547L1797 544L1795 541L1796 542L1797 539L1791 534L1791 531L1786 523L1786 520L1840 515L1838 521z"/></g><g><path class="class-2 leaflet-clickable" stroke-linejoin="round" stroke-linecap="round" fill-rule="evenodd" stroke="#005540" stroke-opacity="1" stroke-width="0.5" fill="#00cc99" fill-opacity="0.5" d="M2157 727L2159 730L2154 734L2152 732L2151 736L2149 737L2148 743L2143 748L2135 755L2130 757L2127 757L2125 755L2123 758L2125 758L2123 760L2127 771L2131 775L2133 774L2133 777L2135 779L2138 778L2142 772L2145 773L2144 774L2146 778L2144 779L2143 783L2145 785L2145 790L2142 794L2141 795L2140 793L2133 790L2129 787L2129 783L2128 784L2123 780L2121 782L2115 783L2115 787L2110 794L2113 798L2113 801L2116 803L2115 806L2113 806L2109 810L2106 809L2106 813L2104 814L2100 814L2093 811L2091 807L2095 806L2095 804L2091 804L2091 802L2095 800L2096 797L2094 795L2104 790L2106 785L2104 783L2103 784L2101 780L2099 782L2100 785L2098 785L2097 788L2091 787L2094 784L2094 779L2093 777L2091 777L2089 778L2088 786L2086 782L2088 778L2087 777L2090 776L2090 774L2087 772L2083 773L2086 778L2083 782L2083 778L2081 778L2079 782L2077 781L2078 773L2082 771L2080 766L2083 754L2088 750L2089 751L2088 741L2092 737L2094 737L2094 734L2096 734L2098 730L2110 730L2113 732L2118 731L2119 726L2115 718L2115 715L2120 716L2119 713L2128 714L2133 716L2135 719L2139 720L2138 721L2140 723L2146 721L2149 723L2150 726L2154 728L2157 727z"/></g><g><path class="class-2 leaflet-clickable" stroke-linejoin="round" stroke-linecap="round" fill-rule="evenodd" stroke="#005540" stroke-opacity="1" stroke-width="0.5" fill="#00cc99" fill-opacity="0.5" d="M1840 879L1840 879z"/></g><g><path class="class-2 leaflet-clickable" stroke-linejoin="round" stroke-linecap="round" fill-rule="evenodd" stroke="#005540" stroke-opacity="1" stroke-width="0.5" fill="#00cc99" fill-opacity="0.5" d="M1925 867L1927 869L1926 870L1924 868L1925 867z"/></g><g><path class="class-2 leaflet-clickable" stroke-linejoin="round" stroke-linecap="round" fill-rule="evenodd" stroke="#005540" stroke-opacity="1" stroke-width="0.5" fill="#00cc99" fill-opacity="0.5" d="M2096 864L2090 871L2076 861L2069 859L2070 860L2073 857L2074 858L2082 856L2081 855L2083 851L2088 854L2092 851L2096 855L2096 864z"/></g><g><path class="class-2 leaflet-clickable" stroke-linejoin="round" stroke-linecap="round" fill-rule="evenodd" stroke="#005540" stroke-opacity="1" stroke-width="0.5" fill="#00cc99" fill-opacity="0.5" d="M1929 857L1929 856z"/></g><g><path class="class-2 leaflet-clickable" stroke-linejoin="round" stroke-linecap="round" fill-rule="evenodd" stroke="#005540" stroke-opacity="1" stroke-width="0.5" fill="#00cc99" fill-opacity="0.5" d="M2381 892L2381 905L2370 905L2371 902L2365 900L2366 897L2362 894L2362 890L2358 890L2351 895L2350 894L2350 896L2348 898L2344 898L2344 900L2341 903L2339 901L2338 902L2339 901L2337 899L2335 899L2333 894L2334 891L2332 891L2333 890L2330 888L2327 889L2327 895L2323 899L2321 904L2319 902L2321 898L2319 898L2315 893L2310 891L2311 887L2309 883L2325 877L2338 877L2341 875L2341 873L2346 872L2349 877L2353 877L2354 884L2358 887L2366 891L2366 885L2369 883L2369 885L2375 888L2381 888L2381 890z"/></g><g><path class="class-2 leaflet-clickable" stroke-linejoin="round" stroke-linecap="round" fill-rule="evenodd" stroke="#005540" stroke-opacity="1" stroke-width="0.5" fill="#00cc99" fill-opacity="0.5" d="M2179 646L2175 650L2171 645L2167 648L2166 655L2160 657L2156 661L2157 664L2163 664L2163 670L2161 674L2160 675L2158 672L2148 682L2157 693L2156 696L2160 702L2163 703L2161 703L2165 706L2165 708L2170 708L2170 711L2159 710L2157 712L2157 716L2159 718L2157 720L2156 727L2154 728L2146 721L2140 723L2138 721L2139 720L2125 713L2119 713L2120 716L2115 714L2110 723L2101 717L2102 716L2096 710L2096 708L2098 706L2099 707L2096 703L2100 697L2099 687L2101 684L2099 676L2091 673L2091 671L2088 668L2090 665L2086 645L2087 644L2085 644L2085 641L2087 641L2087 638L2093 627L2092 626L2100 614L2104 615L2105 612L2109 608L2110 609L2109 607L2111 605L2112 599L2116 594L2120 594L2123 591L2134 594L2142 593L2144 597L2146 597L2146 599L2147 598L2147 600L2160 611L2164 623L2168 628L2167 629L2170 634L2175 638L2179 645z"/></g><g><path class="class-2 leaflet-clickable" stroke-linejoin="round" stroke-linecap="round" fill-rule="evenodd" stroke="#005540" stroke-opacity="1" stroke-width="0.5" fill="#00cc99" fill-opacity="0.5" d="M2133 790L2132 791L2134 793L2129 794L2125 799L2121 799L2115 796L2112 797L2110 795L2115 787L2115 783L2121 782L2123 780L2127 782L2126 783L2129 783L2129 787L2133 790z"/></g><g><path class="class-1 leaflet-clickable" stroke-linejoin="round" stroke-linecap="round" fill-rule="evenodd" stroke="#005540" stroke-opacity="1" stroke-width="0.5" fill="#7fd" fill-opacity="0.5" d="M2100 614L2092 626L2093 627L2087 637L2087 642L2086 641L2085 644L2087 644L2087 658L2089 659L2090 664L2088 669L2091 671L2091 673L2079 670L2077 671L2078 672L2071 682L2067 678L2061 680L2059 678L2054 679L2053 677L2052 678L2041 671L2040 672L2038 669L2037 672L2035 672L2036 673L2033 677L2033 681L2028 688L2029 692L2026 693L2026 699L2028 697L2024 702L2020 702L2009 693L2010 692L2007 687L1999 688L1997 686L1993 680L1993 672L1990 668L1988 668L1988 664L1982 666L1980 665L1981 664L1980 665L1980 662L1978 660L1980 657L1978 654L1979 652L1977 651L1976 647L1972 645L1974 644L1969 637L1969 633L1982 631L1982 627L1977 616L1978 611L1976 609L1976 607L1978 607L1977 603L1979 601L1978 595L1981 594L1979 592L1979 580L1981 581L1978 573L1974 572L1972 568L1972 565L1975 564L1975 561L1978 561L1976 561L1977 560L1974 558L1975 556L1973 556L1976 553L1989 553L1989 541L1992 540L2029 541L2034 548L2037 551L2039 551L2050 563L2060 570L2062 570L2062 572L2064 572L2065 578L2069 583L2069 591L2072 594L2072 596L2076 600L2080 601L2079 602L2082 605L2089 607L2100 614z"/></g><g><path class="class-1 leaflet-clickable" stroke-linejoin="round" stroke-linecap="round" fill-rule="evenodd" stroke="#005540" stroke-opacity="1" stroke-width="0.5" fill="#7fd" fill-opacity="0.5" d="M2226 784L2228 792L2236 801L2234 807L2235 813L2242 827L2249 833L2256 842L2259 854L2264 859L2264 861L2267 862L2269 867L2274 870L2283 870L2293 875L2300 884L2309 882L2310 891L2318 895L2320 898L2320 905L2318 905L2315 908L2291 907L2292 905L2287 902L2283 897L2285 895L2284 894L2282 894L2276 899L2273 899L2269 894L2271 889L2270 884L2262 884L2263 883L2262 884L2260 882L2255 873L2251 872L2250 879L2248 875L2244 874L2242 876L2239 872L2236 871L2238 866L2237 863L2244 857L2235 854L2236 853L2234 851L2234 849L2237 846L2237 842L2241 836L2234 833L2231 837L2227 835L2228 832L2226 830L2227 828L2228 829L2231 827L2228 826L2226 819L2224 819L2223 825L2221 826L2219 823L2218 826L2213 830L2208 831L2209 830L2207 827L2210 825L2211 822L2209 823L2213 818L2213 820L2215 820L2216 815L2218 813L2214 811L2215 810L2212 811L2209 808L2210 805L2209 806L2206 800L2211 796L2208 791L2210 792L2211 788L2214 785L2206 781L2212 781L2215 779L2221 782L2224 786L2225 784z"/></g><g><path class="class-1 leaflet-clickable" stroke-linejoin="round" stroke-linecap="round" fill-rule="evenodd" stroke="#005540" stroke-opacity="1" stroke-width="0.5" fill="#7fd" fill-opacity="0.5" d="M2370 905L2373 908L2374 907L2374 909L2378 911L2377 912L2382 916L2387 918L2388 923L2394 926L2393 933L2364 933L2353 953L2356 957L2353 962L2354 966L2352 970L2324 942L2316 936L2311 935L2309 931L2311 930L2311 927L2309 924L2315 908L2323 901L2323 899L2327 895L2326 893L2329 888L2332 890L2332 892L2334 892L2333 894L2336 900L2337 899L2339 901L2338 902L2339 901L2341 903L2345 898L2350 897L2349 896L2355 893L2355 891L2358 889L2361 890L2361 894L2365 895L2365 901L2370 902L2371 905z"/></g><g><path class="class-1 leaflet-clickable" stroke-linejoin="round" stroke-linecap="round" fill-rule="evenodd" stroke="#005540" stroke-opacity="1" stroke-width="0.5" fill="#7fd" fill-opacity="0.5" d="M2187 870L2191 876L2195 876L2197 881L2202 885L2201 886L2204 887L2202 887L2205 889L2211 889L2210 895L2214 899L2214 906L2215 905L2216 908L2220 910L2219 915L2216 919L2217 920L2213 922L2212 926L2208 928L2203 922L2201 923L2191 919L2183 919L2175 913L2151 905L2152 904L2147 900L2143 899L2134 890L2126 887L2127 883L2133 880L2133 874L2135 873L2139 873L2139 875L2141 876L2157 876L2159 878L2160 877L2160 879L2161 876L2159 876L2158 874L2157 867L2160 868L2162 866L2165 869L2164 872L2169 879L2175 873L2179 873L2183 869L2186 871z"/></g><g><path class="class-1 leaflet-clickable" stroke-linejoin="round" stroke-linecap="round" fill-rule="evenodd" stroke="#005540" stroke-opacity="1" stroke-width="0.5" fill="#7fd" fill-opacity="0.5" d="M2091 673L2099 676L2101 684L2099 687L2100 696L2096 703L2100 707L2097 707L2096 710L2102 716L2101 717L2108 722L2110 722L2115 714L2119 729L2115 732L2111 732L2110 730L2100 730L2088 741L2089 750L2087 750L2087 752L2084 754L2081 761L2080 766L2082 771L2078 772L2078 779L2073 782L2069 777L2067 777L2067 775L2065 775L2063 778L2061 776L2060 774L2064 772L2061 768L2062 767L2054 767L2052 763L2049 764L2047 762L2045 757L2046 756L2043 751L2041 752L2040 743L2042 744L2040 742L2039 737L2034 732L2031 732L2031 734L2027 734L2023 724L2013 715L2011 706L2013 704L2012 703L2017 700L2016 699L2019 702L2023 702L2028 698L2026 699L2026 693L2029 692L2028 689L2033 681L2035 671L2036 672L2038 669L2040 672L2041 671L2044 674L2045 673L2051 678L2059 678L2060 680L2066 678L2071 682L2079 670L2083 672L2088 672z"/></g><g><path class="class-1 leaflet-clickable" stroke-linejoin="round" stroke-linecap="round" fill-rule="evenodd" stroke="#005540" stroke-opacity="1" stroke-width="0.5" fill="#7fd" fill-opacity="0.5" d="M2197 808L2196 811L2192 813L2191 811L2186 821L2187 823L2179 826L2179 833L2177 832L2177 837L2173 839L2170 836L2170 833L2168 833L2164 829L2162 820L2165 817L2173 817L2174 814L2175 815L2175 810L2181 810L2183 808L2180 807L2182 801L2189 805L2194 799L2196 808z"/></g><g><path class="class-1 leaflet-clickable" stroke-linejoin="round" stroke-linecap="round" fill-rule="evenodd" stroke="#005540" stroke-opacity="1" stroke-width="0.5" fill="#7fd" fill-opacity="0.5" d="M2206 852L2205 849L2211 849L2214 847L2213 846L2219 846L2224 850L2224 852L2226 852L2229 855L2228 857L2225 856L2223 859L2220 858L2217 861L2210 855L2209 852L2207 853z"/></g><g><path class="class-1 leaflet-clickable" stroke-linejoin="round" stroke-linecap="round" fill-rule="evenodd" stroke="#005540" stroke-opacity="1" stroke-width="0.5" fill="#7fd" fill-opacity="0.5" d="M2179 833L2184 836L2187 835L2187 842L2190 844L2189 845L2193 842L2193 840L2198 840L2198 838L2199 844L2201 842L2204 842L2207 845L2205 849L2207 853L2207 863L2202 865L2199 862L2199 856L2197 854L2196 849L2190 856L2192 860L2191 865L2188 866L2189 868L2186 871L2182 869L2183 870L2181 870L2179 873L2175 873L2169 879L2165 874L2166 873L2164 872L2165 869L2162 866L2171 853L2169 847L2172 846L2172 838L2176 838L2176 834L2178 833z"/></g><g><path class="class-1 leaflet-clickable" stroke-linejoin="round" stroke-linecap="round" fill-rule="evenodd" stroke="#005540" stroke-opacity="1" stroke-width="0.5" fill="#7fd" fill-opacity="0.5" d="M2167 832L2171 834L2170 836L2173 839L2172 840L2174 843L2172 843L2170 847L2171 854L2168 855L2166 861L2160 868L2157 867L2158 874L2161 876L2161 879L2157 876L2154 877L2152 875L2146 874L2142 876L2136 873L2132 876L2133 881L2126 884L2126 890L2096 880L2090 871L2096 864L2101 863L2104 865L2107 862L2107 860L2108 861L2108 859L2113 857L2114 858L2116 856L2117 852L2113 852L2114 850L2111 845L2113 843L2112 841L2106 840L2106 837L2109 836L2108 835L2113 836L2119 831L2126 830L2130 830L2129 831L2131 831L2133 835L2137 835L2138 832L2142 831L2142 833L2145 834L2143 834L2143 837L2145 839L2149 839L2149 837L2151 837L2153 838L2154 841L2164 841L2167 840L2166 837L2168 833z"/></g><g><path class="class-0 leaflet-clickable" stroke-linejoin="round" stroke-linecap="round" fill-rule="evenodd" stroke="#005540" stroke-opacity="1" stroke-width="0.5" fill="#ddfff6" fill-opacity="0.5" d="M2034 806L2033 806z"/></g><g><path class="class-0 leaflet-clickable" stroke-linejoin="round" stroke-linecap="round" fill-rule="evenodd" stroke="#005540" stroke-opacity="1" stroke-width="0.5" fill="#ddfff6" fill-opacity="0.5" d="M2029 803L2031 804L2030 805L2028 803z"/></g><g><path class="class-0 leaflet-clickable" stroke-linejoin="round" stroke-linecap="round" fill-rule="evenodd" stroke="#005540" stroke-opacity="1" stroke-width="0.5" fill="#ddfff6" fill-opacity="0.5" d="M2024 798L2026 798L2027 801L2025 801L2024 799z"/></g><g><path class="class-0 leaflet-clickable" stroke-linejoin="round" stroke-linecap="round" fill-rule="evenodd" stroke="#005540" stroke-opacity="1" stroke-width="0.5" fill="#ddfff6" fill-opacity="0.5" d="M2024 796L2023 797z"/></g><g><path class="class-0 leaflet-clickable" stroke-linejoin="round" stroke-linecap="round" fill-rule="evenodd" stroke="#005540" stroke-opacity="1" stroke-width="0.5" fill="#ddfff6" fill-opacity="0.5" d="M2076 781L2078 782L2076 791L2080 791L2081 795L2085 796L2087 798L2086 801L2091 805L2088 808L2089 809L2079 811L2080 816L2076 820L2079 822L2079 824L2068 815L2059 817L2056 823L2054 821L2049 821L2057 811L2057 802L2056 803L2051 799L2047 791L2047 784L2044 778L2045 777L2045 779L2047 776L2052 778L2050 774L2050 768L2053 764L2054 767L2062 767L2061 768L2064 772L2060 774L2062 778L2066 775L2071 779L2072 782L2076 780z"/></g></svg>