<svg xmlns="http://www.w3.org/2000/svg" class="leaflet-zoom-animated" width="1925" height="599" viewBox="-3 -12 1925 599" style="transform: translate3d(-3px, -12px, 0px);"><g><path class="class-3 leaflet-clickable" stroke-linejoin="round" stroke-linecap="round" fill-rule="evenodd" stroke="#005540" stroke-opacity="1" stroke-width="0.5" fill="#086" fill-opacity="0.5" d="M640 197L639 197z"/></g><g><path class="class-3 leaflet-clickable" stroke-linejoin="round" stroke-linecap="round" fill-rule="evenodd" stroke="#005540" stroke-opacity="1" stroke-width="0.5" fill="#086" fill-opacity="0.5" d="M648 195L650 201L649 204L645 202L648 199L648 196z"/></g><g><path class="class-3 leaflet-clickable" stroke-linejoin="round" stroke-linecap="round" fill-rule="evenodd" stroke="#005540" stroke-opacity="1" stroke-width="0.5" fill="#086" fill-opacity="0.5" d="M701 187L704 189L703 190L702 188z"/></g><g><path class="class-3 leaflet-clickable" stroke-linejoin="round" stroke-linecap="round" fill-rule="evenodd" stroke="#005540" stroke-opacity="1" stroke-width="0.5" fill="#086" fill-opacity="0.5" d="M687 176L687 177z"/></g><g><path class="class-3 leaflet-clickable" stroke-linejoin="round" stroke-linecap="round" fill-rule="evenodd" stroke="#005540" stroke-opacity="1" stroke-width="0.5" fill="#086" fill-opacity="0.5" d="M687 165L690 167L690 170L692 172L695 171L695 179L685 168L686 165z"/></g><g><path class="class-3 leaflet-clickable" stroke-linejoin="round" stroke-linecap="round" fill-rule="evenodd" stroke="#005540" stroke-opacity="1" stroke-width="0.5" fill="#086" fill-opacity="0.5" d="M577 174L579 177L578 182L576 177L577 174z"/></g><g><path class="class-3 leaflet-clickable" stroke-linejoin="round" stroke-linecap="round" fill-rule="evenodd" stroke="#005540" stroke-opacity="1" stroke-width="0.5" fill="#086" fill-opacity="0.5" d="M666 153L666 154z"/></g><g><path class="class-3 leaflet-clickable" stroke-linejoin="round" stroke-linecap="round" fill-rule="evenodd" stroke="#005540" stroke-opacity="1" stroke-width="0.5" fill="#086" fill-opacity="0.5" d="M659 112L659 112z"/></g><g><path class="class-3 leaflet-clickable" stroke-linejoin="round" stroke-linecap="round" fill-rule="evenodd" stroke="#005540" stroke-opacity="1" stroke-width="0.5" fill="#086" fill-opacity="0.5" d="M659 105L661 107L660 108L658 108L658 105z"/></g><g><path class="class-3 leaflet-clickable" stroke-linejoin="round" stroke-linecap="round" fill-rule="evenodd" stroke="#005540" stroke-opacity="1" stroke-width="0.5" fill="#086" fill-opacity="0.5" d="M657 86L654 88L652 93L654 95L654 102L657 103L658 105L658 110L656 113L656 123L660 129L660 137L662 142L661 149L667 157L667 159L670 159L684 172L687 182L689 180L691 184L694 184L696 191L702 195L701 197L703 199L703 205L671 205L674 201L673 198L675 194L673 190L668 186L668 184L665 181L663 181L662 177L659 176L659 174L637 159L638 157L635 153L635 146L629 140L630 134L624 127L623 128L622 119L615 112L616 109L614 106L615 107L616 104L610 99L610 96L605 88L605 85L659 80L657 86z"/></g><g><path class="class-3 leaflet-clickable" stroke-linejoin="round" stroke-linecap="round" fill-rule="evenodd" stroke="#005540" stroke-opacity="1" stroke-width="0.5" fill="#086" fill-opacity="0.5" d="M952 355L951 356L953 358L948 359L944 364L940 364L934 361L931 362L929 360L934 352L934 348L940 347L942 345L946 347L945 348L948 348L948 352L952 355z"/></g><g><path class="class-3 leaflet-clickable" stroke-linejoin="round" stroke-linecap="round" fill-rule="evenodd" stroke="#005540" stroke-opacity="1" stroke-width="0.5" fill="#086" fill-opacity="0.5" d="M659 444L659 444z"/></g><g><path class="class-3 leaflet-clickable" stroke-linejoin="round" stroke-linecap="round" fill-rule="evenodd" stroke="#005540" stroke-opacity="1" stroke-width="0.5" fill="#086" fill-opacity="0.5" d="M744 432L746 434L745 435L743 433L744 432z"/></g><g><path class="class-3 leaflet-clickable" stroke-linejoin="round" stroke-linecap="round" fill-rule="evenodd" stroke="#005540" stroke-opacity="1" stroke-width="0.5" fill="#086" fill-opacity="0.5" d="M915 429L909 436L895 426L888 424L889 425L892 422L893 423L901 421L900 420L902 416L907 419L911 416L915 420L915 429z"/></g><g><path class="class-3 leaflet-clickable" stroke-linejoin="round" stroke-linecap="round" fill-rule="evenodd" stroke="#005540" stroke-opacity="1" stroke-width="0.5" fill="#086" fill-opacity="0.5" d="M748 422L748 421z"/></g><g><path class="class-3 leaflet-clickable" stroke-linejoin="round" stroke-linecap="round" fill-rule="evenodd" stroke="#005540" stroke-opacity="1" stroke-width="0.5" fill="#086" fill-opacity="0.5" d="M1018 427L1014 427L1009 423L1014 414L1018 421L1018 426z"/></g><g><path class="class-3 leaflet-clickable" stroke-linejoin="round" stroke-linecap="round" fill-rule="evenodd" stroke="#005540" stroke-opacity="1" stroke-width="0.5" fill="#086" fill-opacity="0.5" d="M932 362L934 361L942 365L952 358L953 357L951 357L953 355L955 355L960 361L958 361L959 362L957 367L959 370L957 370L957 372L954 374L954 376L947 385L950 388L947 394L945 396L939 396L930 402L929 400L925 402L925 405L927 404L932 407L932 409L930 410L933 415L932 416L937 417L934 423L932 422L928 424L923 430L921 428L915 429L915 421L911 416L907 419L902 416L900 421L893 423L892 422L889 425L885 423L885 421L884 422L881 420L879 415L877 415L869 404L865 394L873 392L875 390L874 388L876 385L877 386L879 382L884 380L891 382L898 390L897 385L895 385L899 381L898 376L908 374L907 373L910 370L905 365L906 363L904 361L900 361L899 357L895 355L897 347L899 345L900 346L899 343L902 344L901 347L905 344L902 339L903 337L909 339L909 341L906 342L907 343L905 347L907 351L907 347L910 341L913 343L910 352L911 353L915 353L917 350L919 350L918 347L920 345L922 347L921 348L925 350L923 356L919 356L915 360L913 360L915 362L914 365L910 367L910 369L914 369L915 371L910 373L912 373L913 377L923 379L925 374L928 375L932 371L933 372L935 368L931 365L932 363z"/></g><g><path class="class-3 leaflet-clickable" stroke-linejoin="round" stroke-linecap="round" fill-rule="evenodd" stroke="#005540" stroke-opacity="1" stroke-width="0.5" fill="#086" fill-opacity="0.5" d="M1282 443L1283 440L1283 442z"/></g><g><path class="class-3 leaflet-clickable" stroke-linejoin="round" stroke-linecap="round" fill-rule="evenodd" stroke="#005540" stroke-opacity="1" stroke-width="0.5" fill="#086" fill-opacity="0.5" d="M1284 435L1284 437L1284 435z"/></g><g><path class="class-3 leaflet-clickable" stroke-linejoin="round" stroke-linecap="round" fill-rule="evenodd" stroke="#005540" stroke-opacity="1" stroke-width="0.5" fill="#086" fill-opacity="0.5" d="M1296 391L1290 398L1290 394L1292 391L1297 390z"/></g><g><path class="class-3 leaflet-clickable" stroke-linejoin="round" stroke-linecap="round" fill-rule="evenodd" stroke="#005540" stroke-opacity="1" stroke-width="0.5" fill="#086" fill-opacity="0.5" d="M1241 454L1240 450L1242 449L1242 425L1241 418L1238 415L1241 413L1242 414L1242 412L1244 412L1244 410L1249 407L1249 405L1252 404L1253 401L1256 401L1258 398L1264 397L1268 394L1275 386L1278 380L1278 368L1285 370L1288 369L1289 366L1294 373L1294 370L1295 371L1295 379L1292 385L1280 399L1280 409L1279 410L1280 406L1279 409L1273 412L1275 416L1280 413L1281 414L1280 418L1275 420L1275 424L1278 421L1280 421L1278 423L1270 449L1267 449L1267 443L1262 443L1262 441L1256 441L1254 447L1251 449L1248 455L1244 452L1242 454z"/></g><g><path class="class-3 leaflet-clickable" stroke-linejoin="round" stroke-linecap="round" fill-rule="evenodd" stroke="#005540" stroke-opacity="1" stroke-width="0.5" fill="#086" fill-opacity="0.5" d="M1288 365L1286 367L1281 368L1283 366L1287 366z"/></g><g><path class="class-2 leaflet-clickable" stroke-linejoin="round" stroke-linecap="round" fill-rule="evenodd" stroke="#005540" stroke-opacity="1" stroke-width="0.5" fill="#00cc99" fill-opacity="0.5" d="M1016 373L1015 376L1011 378L1010 376L1005 386L1006 388L998 391L998 398L996 397L996 402L992 404L989 401L989 398L987 398L983 394L981 385L984 382L992 382L993 379L994 380L994 375L1000 375L1002 373L999 372L1001 366L1008 370L1013 364L1015 373z"/></g><g><path class="class-2 leaflet-clickable" stroke-linejoin="round" stroke-linecap="round" fill-rule="evenodd" stroke="#005540" stroke-opacity="1" stroke-width="0.5" fill="#00cc99" fill-opacity="0.5" d="M1278 368L1278 380L1275 386L1264 398L1258 398L1252 404L1250 404L1249 407L1247 407L1248 408L1242 414L1241 413L1238 415L1235 413L1231 407L1231 404L1228 400L1226 400L1222 393L1219 394L1214 391L1213 384L1215 379L1225 374L1251 370L1255 367L1260 367L1263 365L1278 368z"/></g><g><path class="class-2 leaflet-clickable" stroke-linejoin="round" stroke-linecap="round" fill-rule="evenodd" stroke="#005540" stroke-opacity="1" stroke-width="0.5" fill="#00cc99" fill-opacity="0.5" d="M1228 341L1232 344L1230 346L1227 343L1228 341z"/></g><g><path class="class-2 leaflet-clickable" stroke-linejoin="round" stroke-linecap="round" fill-rule="evenodd" stroke="#005540" stroke-opacity="1" stroke-width="0.5" fill="#00cc99" fill-opacity="0.5" d="M1213 384L1213 391L1217 391L1218 394L1221 393L1226 397L1225 398L1231 404L1234 412L1241 418L1241 457L1200 457L1200 453L1190 451L1187 449L1188 448L1185 451L1185 455L1173 449L1173 444L1169 442L1166 438L1169 436L1177 436L1180 438L1197 428L1206 420L1206 412L1212 405L1211 391L1213 384z"/></g><g><path class="class-2 leaflet-clickable" stroke-linejoin="round" stroke-linecap="round" fill-rule="evenodd" stroke="#005540" stroke-opacity="1" stroke-width="0.5" fill="#00cc99" fill-opacity="0.5" d="M992 325L994 329L992 331L994 335L992 337L997 337L1005 341L1006 337L1014 346L1027 346L1033 350L1027 357L1029 357L1029 361L1025 365L1028 368L1028 370L1024 372L1026 372L1025 376L1021 376L1018 372L1015 373L1013 364L1008 370L1006 370L1002 366L1000 366L1000 368L997 369L988 363L986 363L984 367L980 368L976 366L973 362L960 360L964 355L964 351L962 348L965 344L963 339L964 338L961 337L959 341L958 340L957 343L954 344L952 342L952 339L950 340L945 335L943 330L944 328L942 325L944 323L942 323L944 320L946 322L954 320L967 308L967 302L970 301L971 296L973 299L978 295L981 296L980 301L983 303L983 326L986 327L986 324L987 325L988 323L990 323L989 325L991 325z"/></g><g><path class="class-2 leaflet-clickable" stroke-linejoin="round" stroke-linecap="round" fill-rule="evenodd" stroke="#005540" stroke-opacity="1" stroke-width="0.5" fill="#00cc99" fill-opacity="0.5" d="M1000 368L999 371L1000 373L1002 373L998 376L994 375L995 376L993 382L984 382L981 385L983 393L987 398L985 402L986 405L973 406L970 402L968 402L968 404L964 404L962 402L962 400L964 399L961 398L961 396L959 396L956 399L950 399L950 397L947 394L950 391L947 384L950 382L954 374L957 373L956 370L958 370L957 367L959 363L958 362L960 360L966 360L968 362L970 361L978 367L984 367L985 363L987 363L997 369L999 368z"/></g><g><path class="class-2 leaflet-clickable" stroke-linejoin="round" stroke-linecap="round" fill-rule="evenodd" stroke="#005540" stroke-opacity="1" stroke-width="0.5" fill="#00cc99" fill-opacity="0.5" d="M853 371L852 371z"/></g><g><path class="class-2 leaflet-clickable" stroke-linejoin="round" stroke-linecap="round" fill-rule="evenodd" stroke="#005540" stroke-opacity="1" stroke-width="0.5" fill="#00cc99" fill-opacity="0.5" d="M848 368L850 369L849 370L847 368z"/></g><g><path class="class-2 leaflet-clickable" stroke-linejoin="round" stroke-linecap="round" fill-rule="evenodd" stroke="#005540" stroke-opacity="1" stroke-width="0.5" fill="#00cc99" fill-opacity="0.5" d="M843 363L845 363L846 366L844 366L843 364z"/></g><g><path class="class-2 leaflet-clickable" stroke-linejoin="round" stroke-linecap="round" fill-rule="evenodd" stroke="#005540" stroke-opacity="1" stroke-width="0.5" fill="#00cc99" fill-opacity="0.5" d="M843 361L842 362z"/></g><g><path class="class-2 leaflet-clickable" stroke-linejoin="round" stroke-linecap="round" fill-rule="evenodd" stroke="#005540" stroke-opacity="1" stroke-width="0.5" fill="#00cc99" fill-opacity="0.5" d="M895 346L897 347L895 356L899 356L900 360L904 361L906 363L905 366L910 370L907 373L908 374L898 376L899 381L895 385L898 387L898 389L887 380L878 382L875 388L873 386L868 386L876 376L876 367L875 368L870 364L866 356L866 349L863 343L864 342L864 344L866 341L871 343L869 339L869 333L872 329L873 332L881 332L880 333L883 337L879 339L881 343L885 340L890 344L891 347L895 345z"/></g><g><path class="class-2 leaflet-clickable" stroke-linejoin="round" stroke-linecap="round" fill-rule="evenodd" stroke="#005540" stroke-opacity="1" stroke-width="0.5" fill="#00cc99" fill-opacity="0.5" d="M976 292L978 295L973 299L971 297L970 301L968 302L967 308L962 313L954 320L949 322L946 322L944 320L942 323L944 323L942 325L946 336L950 340L952 339L952 342L954 344L957 343L961 337L964 338L963 339L965 343L963 344L962 348L964 350L964 355L961 359L960 360L959 358L952 355L948 352L948 348L947 349L942 345L940 347L934 348L934 352L929 359L932 363L932 366L935 368L934 371L932 371L928 375L925 374L925 378L923 379L919 379L912 376L910 372L914 371L914 369L910 369L910 367L914 365L915 362L913 360L923 355L925 350L923 348L922 349L920 345L918 347L919 350L917 350L916 353L910 352L913 349L913 344L912 342L910 342L908 343L907 351L905 347L907 343L906 342L909 341L909 339L906 337L902 338L905 343L902 347L902 343L900 343L898 347L896 346L897 338L901 336L899 331L902 319L907 315L908 316L907 306L911 302L913 302L913 299L915 299L917 295L929 295L932 297L937 296L938 291L934 283L934 280L939 281L938 278L947 279L952 281L954 284L958 285L957 286L959 288L965 286L968 288L969 291L973 293L976 292z"/></g><g><path class="class-2 leaflet-clickable" stroke-linejoin="round" stroke-linecap="round" fill-rule="evenodd" stroke="#005540" stroke-opacity="1" stroke-width="0.5" fill="#00cc99" fill-opacity="0.5" d="M1018 427L1021 430L1025 428L1023 434L1024 441L1023 442L1021 440L1016 444L1010 441L1006 436L1011 425L1018 427z"/></g><g><path class="class-2 leaflet-clickable" stroke-linejoin="round" stroke-linecap="round" fill-rule="evenodd" stroke="#005540" stroke-opacity="1" stroke-width="0.5" fill="#00cc99" fill-opacity="0.5" d="M998 398L1003 401L1006 400L1006 407L1009 409L1008 410L1012 407L1012 405L1017 405L1017 403L1018 409L1020 407L1023 407L1026 410L1024 414L1026 418L1026 428L1021 430L1018 427L1018 421L1016 419L1015 414L1009 421L1011 425L1010 430L1007 431L1008 433L1005 436L1001 434L1002 435L1000 435L998 438L994 438L988 444L984 439L985 438L983 437L984 434L981 431L990 418L988 412L991 411L991 403L995 403L995 399L997 398z"/></g><g><path class="class-2 leaflet-clickable" stroke-linejoin="round" stroke-linecap="round" fill-rule="evenodd" stroke="#005540" stroke-opacity="1" stroke-width="0.5" fill="#00cc99" fill-opacity="0.5" d="M1045 349L1047 357L1055 366L1053 372L1054 378L1061 392L1068 398L1075 407L1078 419L1083 424L1083 426L1086 427L1088 432L1093 435L1102 435L1112 440L1119 449L1128 447L1129 456L1137 460L1139 463L1139 470L1137 470L1134 473L1110 472L1111 470L1106 467L1102 462L1104 460L1103 459L1101 459L1095 464L1092 464L1088 459L1090 454L1089 449L1081 449L1082 448L1081 449L1079 447L1074 438L1070 437L1069 444L1067 440L1063 439L1061 441L1058 437L1055 436L1057 431L1056 428L1063 422L1054 419L1055 418L1053 416L1053 414L1056 411L1056 407L1060 401L1053 398L1050 402L1046 400L1047 397L1045 395L1046 393L1047 394L1050 392L1047 391L1045 384L1043 384L1042 390L1040 391L1038 388L1037 391L1032 395L1027 396L1028 395L1026 392L1029 390L1030 387L1028 388L1032 383L1032 385L1034 385L1035 380L1037 378L1033 376L1034 375L1031 376L1028 373L1029 370L1028 371L1025 365L1030 361L1027 356L1029 357L1030 353L1033 350L1025 346L1031 346L1034 344L1040 347L1043 351L1044 349z"/></g><g><path class="class-1 leaflet-clickable" stroke-linejoin="round" stroke-linecap="round" fill-rule="evenodd" stroke="#005540" stroke-opacity="1" stroke-width="0.5" fill="#7fd" fill-opacity="0.5" d="M1025 417L1024 414L1030 414L1033 412L1032 411L1038 411L1043 415L1043 417L1045 417L1048 420L1047 422L1044 421L1042 424L1039 423L1036 426L1029 420L1028 417L1026 418z"/></g><g><path class="class-1 leaflet-clickable" stroke-linejoin="round" stroke-linecap="round" fill-rule="evenodd" stroke="#005540" stroke-opacity="1" stroke-width="0.5" fill="#7fd" fill-opacity="0.5" d="M1200 457L1200 470L1189 470L1190 467L1184 465L1185 462L1181 459L1181 455L1177 455L1170 460L1169 459L1169 461L1167 463L1163 463L1163 465L1160 468L1158 466L1157 467L1158 466L1156 464L1154 464L1152 459L1153 456L1151 456L1152 455L1149 453L1146 454L1146 460L1142 464L1140 469L1138 467L1140 463L1138 463L1134 458L1129 456L1130 452L1128 448L1144 442L1157 442L1160 440L1160 438L1165 437L1168 442L1172 442L1173 449L1177 452L1185 456L1185 450L1188 448L1188 450L1194 453L1200 453L1200 455z"/></g><g><path class="class-1 leaflet-clickable" stroke-linejoin="round" stroke-linecap="round" fill-rule="evenodd" stroke="#005540" stroke-opacity="1" stroke-width="0.5" fill="#7fd" fill-opacity="0.5" d="M1040 392L1036 397L1033 398L1037 399L1037 401L1033 407L1035 410L1032 411L1033 412L1031 414L1025 414L1026 409L1023 407L1019 407L1018 409L1017 406L1019 404L1017 403L1017 405L1014 404L1012 408L1010 408L1009 410L1009 408L1006 405L1006 400L1003 401L998 398L998 391L1003 390L1005 388L1009 379L1008 378L1016 376L1018 372L1019 375L1025 376L1025 372L1029 370L1028 373L1031 376L1034 375L1033 376L1035 376L1037 379L1034 383L1035 385L1030 384L1027 388L1029 387L1027 396L1032 395L1038 389L1040 391z"/></g><g><path class="class-1 leaflet-clickable" stroke-linejoin="round" stroke-linecap="round" fill-rule="evenodd" stroke="#005540" stroke-opacity="1" stroke-width="0.5" fill="#7fd" fill-opacity="0.5" d="M986 397L990 399L989 401L992 404L991 405L993 408L991 408L989 412L990 419L987 420L985 426L979 433L976 432L977 439L980 441L980 444L976 441L973 442L971 440L965 439L961 441L955 438L952 439L951 441L952 446L945 449L945 455L915 445L909 436L915 429L920 428L923 430L926 427L926 425L927 426L927 424L932 422L933 423L935 421L936 417L932 417L933 415L930 410L932 408L931 406L925 405L925 402L928 401L927 400L932 401L938 396L945 395L949 395L948 396L950 396L952 400L956 400L957 397L961 396L961 398L964 399L962 399L962 402L964 404L968 404L968 402L970 402L973 406L983 406L986 405L985 402L987 398z"/></g><g><path class="class-1 leaflet-clickable" stroke-linejoin="round" stroke-linecap="round" fill-rule="evenodd" stroke="#005540" stroke-opacity="1" stroke-width="0.5" fill="#7fd" fill-opacity="0.5" d="M1134 473L1128 489L1130 492L1129 496L1131 500L1125 497L1115 495L1103 496L1098 501L1094 501L1084 506L1083 505L1080 508L1071 508L1062 505L1059 502L1045 501L1035 494L1028 493L1032 490L1031 487L1036 485L1035 484L1038 481L1038 477L1040 475L1035 474L1034 470L1033 471L1033 464L1029 460L1030 456L1034 454L1035 455L1037 453L1041 453L1044 455L1046 452L1045 451L1044 453L1043 448L1048 445L1050 452L1057 448L1062 449L1069 443L1070 437L1076 440L1081 449L1089 449L1090 454L1088 459L1092 463L1095 464L1101 459L1103 459L1104 460L1102 462L1106 467L1111 470L1110 471L1129 473z"/></g><g><path class="class-1 leaflet-clickable" stroke-linejoin="round" stroke-linecap="round" fill-rule="evenodd" stroke="#005540" stroke-opacity="1" stroke-width="0.5" fill="#7fd" fill-opacity="0.5" d="M1069 443L1065 447L1060 449L1057 448L1052 452L1050 452L1048 446L1044 446L1044 453L1046 451L1047 452L1045 452L1042 455L1040 453L1036 453L1036 455L1031 456L1030 453L1026 454L1016 446L1016 444L1019 441L1024 442L1023 434L1026 428L1025 417L1027 417L1036 426L1039 423L1042 425L1044 422L1048 421L1045 417L1042 416L1043 415L1041 413L1039 413L1039 411L1034 412L1035 411L1033 408L1038 401L1036 398L1033 398L1036 397L1042 390L1043 384L1046 385L1046 389L1050 392L1045 395L1047 397L1046 400L1050 402L1053 398L1059 401L1053 416L1055 418L1054 419L1063 422L1061 424L1062 425L1058 424L1055 437L1056 436L1061 441L1065 439L1069 443z"/></g><g><path class="class-1 leaflet-clickable" stroke-linejoin="round" stroke-linecap="round" fill-rule="evenodd" stroke="#005540" stroke-opacity="1" stroke-width="0.5" fill="#7fd" fill-opacity="0.5" d="M1006 435L1010 441L1014 441L1016 446L1021 450L1020 451L1023 452L1021 452L1024 454L1030 454L1029 460L1033 464L1033 471L1034 470L1035 473L1039 475L1038 480L1035 484L1036 485L1032 487L1031 491L1027 493L1022 487L1020 488L1010 484L1002 484L994 478L970 470L971 469L966 465L962 464L953 455L945 452L946 448L952 445L952 439L954 438L958 438L958 440L960 441L976 441L978 443L979 442L979 444L980 441L978 441L977 439L976 432L979 433L981 431L984 434L983 437L988 444L994 438L998 438L1002 434L1005 436z"/></g><g><path class="class-1 leaflet-clickable" stroke-linejoin="round" stroke-linecap="round" fill-rule="evenodd" stroke="#005540" stroke-opacity="1" stroke-width="0.5" fill="#7fd" fill-opacity="0.5" d="M1189 470L1192 473L1193 472L1193 474L1197 476L1196 477L1201 481L1206 483L1207 488L1213 491L1212 498L1183 498L1172 518L1175 522L1172 527L1173 531L1171 535L1143 507L1135 501L1130 500L1128 496L1130 495L1130 492L1128 489L1134 473L1142 466L1142 464L1146 460L1145 458L1148 453L1151 455L1151 457L1153 457L1152 459L1155 465L1156 464L1158 466L1157 467L1158 466L1160 468L1164 463L1169 462L1168 461L1174 458L1174 456L1177 454L1180 455L1180 459L1184 460L1184 466L1189 467L1190 470z"/></g><g><path class="class-3 leaflet-clickable" stroke-linejoin="round" stroke-linecap="round" fill-rule="evenodd" stroke="#005540" stroke-opacity="1" stroke-width="0.5" fill="#086" fill-opacity="0.5" d="M709 186L708 188L708 186z"/></g><g><path class="class-3 leaflet-clickable" stroke-linejoin="round" stroke-linecap="round" fill-rule="evenodd" stroke="#005540" stroke-opacity="1" stroke-width="0.5" fill="#086" fill-opacity="0.5" d="M715 173L717 179L714 186L709 182L710 175L714 173z"/></g><g><path class="class-3 leaflet-clickable" stroke-linejoin="round" stroke-linecap="round" fill-rule="evenodd" stroke="#005540" stroke-opacity="1" stroke-width="0.5" fill="#086" fill-opacity="0.5" d="M660 106L662 106L661 107z"/></g><g><path class="class-3 leaflet-clickable" stroke-linejoin="round" stroke-linecap="round" fill-rule="evenodd" stroke="#005540" stroke-opacity="1" stroke-width="0.5" fill="#086" fill-opacity="0.5" d="M657 86L737 115L742 118L795 118L794 120L792 120L793 123L796 125L795 126L797 126L794 126L794 129L791 129L791 132L793 135L792 136L799 141L798 144L800 145L798 145L798 158L800 158L800 160L797 160L798 166L796 168L796 182L799 186L801 196L789 198L788 202L792 209L791 210L795 213L797 217L799 222L797 224L800 231L803 231L797 239L797 241L795 241L792 244L792 246L784 248L784 244L782 241L777 238L772 238L768 229L760 227L756 223L753 223L754 209L752 207L751 208L747 206L747 208L745 208L745 206L739 204L733 195L729 193L723 186L724 184L717 180L717 173L715 170L714 171L712 169L713 167L709 162L707 156L704 155L704 148L696 134L697 122L691 119L684 118L684 114L679 110L671 113L662 106L655 103L653 96L654 95L652 93L654 91L654 87L657 87zM748 205L748 206z"/></g><g><path class="class-#ccc leaflet-clickable" stroke-linejoin="round" stroke-linecap="round" fill-rule="evenodd" stroke="#005540" stroke-opacity="1" stroke-width="0.5" fill="#ccc" fill-opacity="0.5" d="M771 302L769 302L769 297L771 301z"/></g><g><path class="class-#ccc leaflet-clickable" stroke-linejoin="round" stroke-linecap="round" fill-rule="evenodd" stroke="#005540" stroke-opacity="1" stroke-width="0.5" fill="#ccc" fill-opacity="0.5" d="M759 293L759 296L758 293z"/></g><g><path class="class-#ccc leaflet-clickable" stroke-linejoin="round" stroke-linecap="round" fill-rule="evenodd" stroke="#005540" stroke-opacity="1" stroke-width="0.5" fill="#ccc" fill-opacity="0.5" d="M758 291L758 292z"/></g><g><path class="class-#ccc leaflet-clickable" stroke-linejoin="round" stroke-linecap="round" fill-rule="evenodd" stroke="#005540" stroke-opacity="1" stroke-width="0.5" fill="#ccc" fill-opacity="0.5" d="M751 279L754 281L755 284L751 280z"/></g><g><path class="class-#ccc leaflet-clickable" stroke-linejoin="round" stroke-linecap="round" fill-rule="evenodd" stroke="#005540" stroke-opacity="1" stroke-width="0.5" fill="#ccc" fill-opacity="0.5" d="M751 273L750 275L751 273z"/></g><g><path class="class-#ccc leaflet-clickable" stroke-linejoin="round" stroke-linecap="round" fill-rule="evenodd" stroke="#005540" stroke-opacity="1" stroke-width="0.5" fill="#ccc" fill-opacity="0.5" d="M749 263L750 266L749 264z"/></g><g><path class="class-#ccc leaflet-clickable" stroke-linejoin="round" stroke-linecap="round" fill-rule="evenodd" stroke="#005540" stroke-opacity="1" stroke-width="0.5" fill="#ccc" fill-opacity="0.5" d="M743 263L743 265L743 263z"/></g><g><path class="class-#ccc leaflet-clickable" stroke-linejoin="round" stroke-linecap="round" fill-rule="evenodd" stroke="#005540" stroke-opacity="1" stroke-width="0.5" fill="#ccc" fill-opacity="0.5" d="M743 254L743 256L741 256L739 260L740 261L739 258L740 255L742 255z"/></g><g><path class="class-#ccc leaflet-clickable" stroke-linejoin="round" stroke-linecap="round" fill-rule="evenodd" stroke="#005540" stroke-opacity="1" stroke-width="0.5" fill="#ccc" fill-opacity="0.5" d="M738 252L738 252z"/></g><g><path class="class-#ccc leaflet-clickable" stroke-linejoin="round" stroke-linecap="round" fill-rule="evenodd" stroke="#005540" stroke-opacity="1" stroke-width="0.5" fill="#ccc" fill-opacity="0.5" d="M720 224L720 226L719 224z"/></g><g><path class="class-#ccc leaflet-clickable" stroke-linejoin="round" stroke-linecap="round" fill-rule="evenodd" stroke="#005540" stroke-opacity="1" stroke-width="0.5" fill="#ccc" fill-opacity="0.5" d="M723 219L722 219z"/></g><g><path class="class-#ccc leaflet-clickable" stroke-linejoin="round" stroke-linecap="round" fill-rule="evenodd" stroke="#005540" stroke-opacity="1" stroke-width="0.5" fill="#ccc" fill-opacity="0.5" d="M649 208L649 208z"/></g><g><path class="class-#ccc leaflet-clickable" stroke-linejoin="round" stroke-linecap="round" fill-rule="evenodd" stroke="#005540" stroke-opacity="1" stroke-width="0.5" fill="#ccc" fill-opacity="0.5" d="M671 205L704 205L706 212L714 218L717 224L716 225L723 229L721 230L721 232L723 234L725 233L728 235L731 241L734 243L733 244L737 254L737 262L742 268L744 268L745 274L752 285L750 293L753 300L759 302L759 298L762 298L767 302L767 305L771 306L771 308L774 311L774 314L779 317L780 324L776 329L767 334L764 330L762 320L758 316L754 314L742 302L732 297L727 298L717 290L717 287L714 286L719 274L719 261L713 250L706 248L691 236L689 235L686 238L679 231L675 231L672 227L668 227L665 224L664 220L651 209L652 208L664 211L670 208L671 206z"/></g><g><path class="class-3 leaflet-clickable" stroke-linejoin="round" stroke-linecap="round" fill-rule="evenodd" stroke="#005540" stroke-opacity="1" stroke-width="0.5" fill="#086" fill-opacity="0.5" d="M784 248L788 248L793 244L794 241L798 239L802 229L808 230L807 233L809 233L812 236L812 245L818 253L827 253L829 256L828 258L834 262L834 264L836 264L833 267L831 267L832 270L830 271L832 275L832 280L834 280L837 286L842 289L845 295L844 296L847 299L850 299L850 297L856 299L858 305L861 308L859 308L860 316L863 317L865 321L864 322L866 324L866 328L872 329L869 333L869 340L870 339L871 342L870 343L866 341L865 344L847 325L846 321L840 315L835 307L817 294L801 274L788 269L785 265L781 265L779 257L784 248z"/></g><g><path class="class-3 leaflet-clickable" stroke-linejoin="round" stroke-linecap="round" fill-rule="evenodd" stroke="#005540" stroke-opacity="1" stroke-width="0.5" fill="#086" fill-opacity="0.5" d="M919 179L911 191L912 192L906 202L906 207L905 206L904 209L906 209L906 223L908 224L909 229L907 234L910 236L910 238L898 235L896 236L897 237L890 247L886 243L880 245L878 243L873 244L872 242L871 243L865 240L864 238L863 239L860 236L859 237L857 234L856 237L854 237L855 238L852 242L852 246L847 253L848 257L845 258L845 264L847 262L843 267L839 267L828 258L829 257L826 252L818 253L816 251L812 245L812 237L809 233L807 233L807 229L801 231L799 230L800 229L799 230L799 227L797 225L799 222L797 219L798 217L796 216L795 212L791 210L793 209L788 202L788 198L801 196L801 192L796 181L797 176L795 174L795 172L797 172L796 168L798 166L797 160L800 159L798 157L798 145L800 146L797 138L793 137L791 133L791 130L794 129L794 126L797 126L795 126L796 125L793 123L794 121L792 121L795 118L808 118L808 106L811 105L848 106L853 113L856 116L858 116L869 128L879 135L881 135L881 137L883 137L884 143L888 148L888 156L891 159L891 161L895 165L899 166L898 167L901 170L908 172L919 179z"/></g><g><path class="class-2 leaflet-clickable" stroke-linejoin="round" stroke-linecap="round" fill-rule="evenodd" stroke="#005540" stroke-opacity="1" stroke-width="0.5" fill="#00cc99" fill-opacity="0.5" d="M910 238L918 241L920 249L918 252L919 261L915 268L919 272L916 272L915 275L921 281L920 282L927 287L929 287L934 279L938 294L937 296L934 297L930 297L929 295L919 295L907 306L908 315L906 315L906 317L903 319L900 326L899 331L901 336L897 337L897 344L892 347L888 342L886 342L886 340L884 340L882 343L880 341L879 339L883 337L880 333L881 332L873 332L871 328L868 329L866 327L864 322L865 321L862 316L860 317L859 308L861 309L859 307L858 302L853 297L850 297L850 299L846 299L842 289L832 280L830 271L832 269L831 268L836 265L835 264L838 267L842 267L847 263L845 264L845 258L848 257L847 254L852 246L854 236L855 237L857 234L859 237L860 236L863 239L864 238L870 243L878 243L879 245L885 243L890 247L898 235L902 237L907 237z"/></g><g><path class="class-3 leaflet-clickable" stroke-linejoin="round" stroke-linecap="round" fill-rule="evenodd" stroke="#005540" stroke-opacity="1" stroke-width="0.5" fill="#086" fill-opacity="0.5" d="M998 211L994 215L990 210L986 213L985 220L979 222L975 226L976 229L982 229L982 235L980 239L979 240L977 237L967 247L976 258L975 261L979 267L982 268L980 268L984 271L984 273L989 273L989 276L978 275L976 277L976 281L978 283L976 285L975 292L973 293L965 286L959 288L957 286L958 285L944 278L938 278L939 281L934 279L929 288L920 282L921 281L915 275L915 273L917 271L918 272L915 268L919 262L918 252L920 249L918 241L910 238L910 236L907 233L909 230L905 210L906 209L904 209L904 206L906 206L906 203L912 192L911 191L919 179L923 180L924 177L928 173L929 174L928 172L930 170L931 164L935 159L939 159L942 156L953 159L961 158L963 162L965 162L965 164L966 163L966 165L979 176L983 188L987 193L986 194L998 210z"/></g><g><path class="class-3 leaflet-clickable" stroke-linejoin="round" stroke-linecap="round" fill-rule="evenodd" stroke="#005540" stroke-opacity="1" stroke-width="0.5" fill="#086" fill-opacity="0.5" d="M998 211L1001 213L996 216L996 218L1000 219L1002 228L1000 233L1004 234L1002 238L1008 241L1007 247L1011 250L1013 249L1014 255L1017 253L1019 257L1021 255L1027 255L1027 269L1030 269L1020 279L1016 278L1013 281L1013 287L1010 286L1006 288L1005 291L1001 292L1001 294L1003 294L1004 296L1002 303L1007 309L1004 312L998 312L995 317L996 322L993 321L991 323L993 323L992 325L989 325L990 323L988 323L987 325L986 324L987 327L984 326L984 313L982 310L983 304L980 302L981 297L976 292L976 285L978 283L976 282L976 277L978 275L989 276L989 274L985 273L980 268L982 268L977 265L974 254L967 247L977 237L979 240L980 239L982 235L982 229L976 229L975 226L979 222L985 220L986 213L990 210L994 214L996 213z"/></g><g><path class="class-3 leaflet-clickable" stroke-linejoin="round" stroke-linecap="round" fill-rule="evenodd" stroke="#005540" stroke-opacity="1" stroke-width="0.5" fill="#086" fill-opacity="0.5" d="M1045 349L1043 351L1035 344L1033 344L1032 346L1025 345L1023 347L1016 345L1014 346L1006 337L1005 341L1002 339L998 339L997 337L992 337L994 335L992 332L994 330L992 328L993 323L991 323L993 321L996 322L995 317L998 312L1004 312L1006 309L1006 307L1002 303L1004 296L1001 294L1001 292L1005 291L1006 288L1010 286L1012 287L1014 283L1013 281L1016 278L1019 279L1030 270L1027 269L1027 255L1021 255L1019 257L1017 253L1014 255L1013 249L1011 250L1007 247L1008 241L1002 239L1004 234L1000 233L1002 229L1000 219L996 218L996 216L1001 213L1005 216L1007 230L1011 234L1015 246L1017 245L1019 247L1024 248L1024 250L1030 250L1035 255L1048 255L1053 260L1055 259L1054 258L1059 257L1059 263L1052 276L1047 294L1045 336L1043 339L1044 348z"/></g></svg>