<svg xmlns="http://www.w3.org/2000/svg" width="844.5" height="400"><g transform="translate(39.5,19.5)" class="gRoot"><g class="gDragit selected" style="opacity: 1;"><path class="lineTrajectory" d="M432.9829268292683,16.60812928501472L432.9829268292683,42.08726738491675L432.9829268292683,63.69784524975512L432.9829268292683,83.2407443682664L432.9829268292683,101.58305582761996L432.9829268292683,118.59138099902057L432.9829268292683,133.66542605288933L432.9829268292683,147.6722820763957L432.9829268292683,161.14554358472083L432.9829268292683,173.484916748286L432.9829268292683,184.95719882468165L432.9829268292683,196.02928501469148L432.9829268292683,206.16758080313414L432.9829268292683,215.83898139079335L432.9829268292683,224.57659157688536L432.9829268292683,231.71341821743383L432.9829268292683,239.0503428011753L432.9829268292683,246.25386875612145L432.9829268292683,253.190597453477L486.62682926829274,259.26023506366306L540.270731707317,265.73006856023505L457.88902439024395,270.46571988246814L375.5073170731708,276.8688540646425L293.1256097560977,284.8727717923604"/><circle class="pointTrajectory" cx="432.9829268292683" cy="16.60812928501472" r="3"/><circle class="pointTrajectory" cx="432.9829268292683" cy="42.08726738491675" r="3"/><circle class="pointTrajectory" cx="432.9829268292683" cy="63.69784524975512" r="3"/><circle class="pointTrajectory" cx="432.9829268292683" cy="83.2407443682664" r="3"/><circle class="pointTrajectory" cx="432.9829268292683" cy="101.58305582761996" r="3"/><circle class="pointTrajectory" cx="432.9829268292683" cy="118.59138099902057" r="3"/><circle class="pointTrajectory" cx="432.9829268292683" cy="133.66542605288933" r="3"/><circle class="pointTrajectory" cx="432.9829268292683" cy="147.6722820763957" r="3"/><circle class="pointTrajectory" cx="432.9829268292683" cy="161.14554358472083" r="3"/><circle class="pointTrajectory" cx="432.9829268292683" cy="173.484916748286" r="3"/><circle class="pointTrajectory" cx="432.9829268292683" cy="184.95719882468165" r="3"/><circle class="pointTrajectory" cx="432.9829268292683" cy="196.02928501469148" r="3"/><circle class="pointTrajectory" cx="432.9829268292683" cy="206.16758080313414" r="3"/><circle class="pointTrajectory" cx="432.9829268292683" cy="215.83898139079335" r="3"/><circle class="pointTrajectory" cx="432.9829268292683" cy="224.57659157688536" r="3"/><circle class="pointTrajectory" cx="432.9829268292683" cy="231.71341821743383" r="3"/><circle class="pointTrajectory" cx="432.9829268292683" cy="239.0503428011753" r="3"/><circle class="pointTrajectory" cx="432.9829268292683" cy="246.25386875612145" r="3"/><circle class="pointTrajectory" cx="432.9829268292683" cy="253.190597453477" r="3"/><circle class="pointTrajectory" cx="486.62682926829274" cy="259.26023506366306" r="3"/><circle class="pointTrajectory" cx="540.270731707317" cy="265.73006856023505" r="3"/><circle class="pointTrajectory" cx="457.88902439024395" cy="270.46571988246814" r="3"/><circle class="pointTrajectory" cx="375.5073170731708" cy="276.8688540646425" r="3"/><circle class="pointTrajectory" cx="293.1256097560977" cy="284.8727717923604" r="3"/></g><g class="x axis" transform="translate(0,340.5)"><g class="tick" transform="translate(72.80243902439024,0)" style="opacity: 1;"><line y2="6" x2="0"/><text dy=".71em" y="9" x="0" style="text-anchor: middle;">2</text></g><g class="tick" transform="translate(149.43658536585366,0)" style="opacity: 1;"><line y2="6" x2="0"/><text dy=".71em" y="9" x="0" style="text-anchor: middle;">4</text></g><g class="tick" transform="translate(226.0707317073171,0)" style="opacity: 1;"><line y2="6" x2="0"/><text dy=".71em" y="9" x="0" style="text-anchor: middle;">6</text></g><g class="tick" transform="translate(302.7048780487805,0)" style="opacity: 1;"><line y2="6" x2="0"/><text dy=".71em" y="9" x="0" style="text-anchor: middle;">8</text></g><g class="tick" transform="translate(379.33902439024394,0)" style="opacity: 1;"><line y2="6" x2="0"/><text dy=".71em" y="9" x="0" style="text-anchor: middle;">10</text></g><g class="tick" transform="translate(455.9731707317074,0)" style="opacity: 1;"><line y2="6" x2="0"/><text dy=".71em" y="9" x="0" style="text-anchor: middle;">12</text></g><g class="tick" transform="translate(532.6073170731707,0)" style="opacity: 1;"><line y2="6" x2="0"/><text dy=".71em" y="9" x="0" style="text-anchor: middle;">14</text></g><g class="tick" transform="translate(609.2414634146342,0)" style="opacity: 1;"><line y2="6" x2="0"/><text dy=".71em" y="9" x="0" style="text-anchor: middle;">16</text></g><g class="tick" transform="translate(685.8756097560974,0)" style="opacity: 1;"><line y2="6" x2="0"/><text dy=".71em" y="9" x="0" style="text-anchor: middle;">18</text></g><g class="tick" transform="translate(762.509756097561,0)" style="opacity: 1;"><line y2="6" x2="0"/><text dy=".71em" y="9" x="0" style="text-anchor: middle;">20</text></g><path class="domain" d="M0,6V0H785.5V6"/></g><g class="y axis"><g class="tick" transform="translate(0,313.7535749265426)" style="opacity: 1;"><line x2="-6" y2="0"/><text dy=".32em" x="-9" y="0" style="text-anchor: end;">15</text></g><g class="tick" transform="translate(0,280.4039177277179)" style="opacity: 1;"><line x2="-6" y2="0"/><text dy=".32em" x="-9" y="0" style="text-anchor: end;">20</text></g><g class="tick" transform="translate(0,247.05426052889325)" style="opacity: 1;"><line x2="-6" y2="0"/><text dy=".32em" x="-9" y="0" style="text-anchor: end;">25</text></g><g class="tick" transform="translate(0,213.70460333006855)" style="opacity: 1;"><line x2="-6" y2="0"/><text dy=".32em" x="-9" y="0" style="text-anchor: end;">30</text></g><g class="tick" transform="translate(0,180.35494613124388)" style="opacity: 1;"><line x2="-6" y2="0"/><text dy=".32em" x="-9" y="0" style="text-anchor: end;">35</text></g><g class="tick" transform="translate(0,147.0052889324192)" style="opacity: 1;"><line x2="-6" y2="0"/><text dy=".32em" x="-9" y="0" style="text-anchor: end;">40</text></g><g class="tick" transform="translate(0,113.6556317335945)" style="opacity: 1;"><line x2="-6" y2="0"/><text dy=".32em" x="-9" y="0" style="text-anchor: end;">45</text></g><g class="tick" transform="translate(0,80.30597453476983)" style="opacity: 1;"><line x2="-6" y2="0"/><text dy=".32em" x="-9" y="0" style="text-anchor: end;">50</text></g><g class="tick" transform="translate(0,46.95631733594514)" style="opacity: 1;"><line x2="-6" y2="0"/><text dy=".32em" x="-9" y="0" style="text-anchor: end;">55</text></g><g class="tick" transform="translate(0,13.606660137120468)" style="opacity: 1;"><line x2="-6" y2="0"/><text dy=".32em" x="-9" y="0" style="text-anchor: end;">60</text></g><path class="domain" d="M-6,0H0V340.5H-6"/></g><text class="x label" text-anchor="end" x="523.6666666666666" y="376.5">Proporción de la población con ingresos inferiores a 1.25 dólares diarios</text><text class="y label" text-anchor="end" y="-40" x="-100" dy=".75em" transform="rotate(-90)">Tasa de mortalidad en niños menores de 5 años</text><text class="year label" text-anchor="end" y="316.5" x="785.5">1992</text><text class="country label" text-anchor="start" y="80" x="40"/><g class="dots"><circle class="dot" cx="662.8853658536584" cy="51.4918707149853" r="5" style="fill: rgb(0, 204, 153); opacity: 1;"><title>Chiapas</title></circle><circle class="dot selected" cx="432.9829268292683" cy="63.69784524975512" r="5" style="fill: rgb(0, 204, 153); opacity: 1;"><title>Oaxaca</title></circle><circle class="dot" cx="222.2390243902439" cy="97.44769833496572" r="5" style="fill: rgb(0, 204, 153); opacity: 1;"><title>Puebla</title></circle><circle class="dot" cx="593.9146341463414" cy="112.38834476003919" r="5" style="fill: rgb(0, 204, 153); opacity: 1;"><title>Guerrero</title></circle><circle class="dot" cx="149.43658536585366" cy="120.45896180215478" r="5" style="fill: rgb(0, 204, 153); opacity: 1;"><title>Tlaxcala</title></circle><circle class="dot" cx="214.57560975609758" cy="146.0714985308521" r="5" style="fill: rgb(0, 204, 153); opacity: 1;"><title>Hidalgo</title></circle><circle class="dot" cx="210.7439024390244" cy="147.53888344760037" r="5" style="fill: rgb(0, 204, 153); opacity: 1;"><title>Veracruz</title></circle><circle class="dot" cx="88.12926829268292" cy="155.6761998041136" r="5" style="fill: rgb(0, 204, 153); opacity: 1;"><title>Chihuahua</title></circle><circle class="dot" cx="65.1390243902439" cy="159.8782566111655" r="5" style="fill: rgb(0, 204, 153); opacity: 1;"><title>México</title></circle><circle class="dot" cx="65.1390243902439" cy="162.14603330068562" r="5" style="fill: rgb(0, 204, 153); opacity: 1;"><title>Baja California</title></circle><circle class="dot" cx="180.09024390243903" cy="167.3485798237022" r="5" style="fill: rgb(0, 204, 153); opacity: 1;"><title>San Luis Potosí</title></circle><circle class="dot" cx="218.40731707317076" cy="174.7522037218413" r="5" style="fill: rgb(0, 204, 153); opacity: 1;"><title>Michoacán</title></circle><circle class="dot" cx="61.30731707317073" cy="158.14407443682666" r="5" style="fill: rgb(0, 204, 153); opacity: 1;"><title>Guanajuato</title></circle><circle class="dot" cx="65.1390243902439" cy="178.2205680705191" r="5" style="fill: rgb(0, 204, 153); opacity: 1;"><title>Querétaro</title></circle><circle class="dot" cx="226.0707317073171" cy="190.6933398628795" r="5" style="fill: rgb(0, 204, 153); opacity: 1;"><title>Tabasco</title></circle><circle class="dot" cx="95.79268292682927" cy="212.03712047012732" r="5" style="fill: rgb(0, 204, 153); opacity: 1;"><title>Quintana Roo</title></circle><circle class="dot" cx="279.7146341463415" cy="179.1543584720862" r="5" style="fill: rgb(0, 204, 153); opacity: 1;"><title>Zacatecas</title></circle><circle class="dot" cx="149.43658536585366" cy="199.49764936336922" r="5" style="fill: rgb(0, 204, 153); opacity: 1;"><title>Durango</title></circle><circle class="dot" cx="126.44634146341464" cy="219.1739471106758" r="5" style="fill: rgb(0, 204, 153); opacity: 1;"><title>Morelos</title></circle><circle class="dot" cx="134.109756097561" cy="211.50352595494616" r="5" style="fill: rgb(0, 204, 153); opacity: 1;"><title>Nayarit</title></circle><circle class="dot" cx="134.109756097561" cy="211.2367286973555" r="5" style="fill: rgb(0, 204, 153); opacity: 1;"><title>Campeche</title></circle><circle class="dot" cx="7.663414634146341" cy="204.7001958863859" r="5" style="fill: rgb(0, 204, 153); opacity: 1;"><title>Sonora</title></circle><circle class="dot" cx="57.475609756097555" cy="215.905680705191" r="5" style="fill: rgb(0, 204, 153); opacity: 1;"><title>Tamaulipas</title></circle><circle class="dot" cx="61.30731707317073" cy="232.38041136141038" r="5" style="fill: rgb(0, 204, 153); opacity: 1;"><title>Yucatán</title></circle><circle class="dot" cx="49.81219512195121" cy="210.23623898139078" r="5" style="fill: rgb(0, 204, 153); opacity: 1;"><title>Jalisco</title></circle><circle class="dot" cx="76.63414634146342" cy="240.25093046033302" r="5" style="fill: rgb(0, 204, 153); opacity: 1;"><title>Baja California Sur</title></circle><circle class="dot" cx="118.78292682926829" cy="216.3058765915769" r="5" style="fill: rgb(0, 204, 153); opacity: 1;"><title>Aguascalientes</title></circle><circle class="dot" cx="68.97073170731707" cy="215.6388834476004" r="5" style="fill: rgb(0, 204, 153); opacity: 1;"><title>Colima</title></circle><circle class="dot" cx="7.663414634146341" cy="252.05670910871697" r="5" style="fill: rgb(0, 204, 153); opacity: 1;"><title>Distrito Federal</title></circle><circle class="dot" cx="72.80243902439024" cy="243.45249755142018" r="5" style="fill: rgb(0, 204, 153); opacity: 1;"><title>Sinaloa</title></circle><circle class="dot" cx="99.62439024390244" cy="225.3102840352595" r="5" style="fill: rgb(0, 204, 153); opacity: 1;"><title>Coahuila</title></circle><circle class="dot" cx="26.821951219512197" cy="254.65798237022526" r="5" style="fill: rgb(0, 204, 153); opacity: 1;"><title>Nuevo León</title></circle></g></g></svg>