<svg xmlns="http://www.w3.org/2000/svg" width="999.5" height="600"><g transform="translate(39.5,19.5)" class="gRoot"><g class="x axis" transform="translate(0,540.5)"><g class="tick" transform="translate(87.16829268292683,0)" style="opacity: 1;"><line y2="6" x2="0"/><text dy=".71em" y="9" x="0" style="text-anchor: middle;">2</text></g><g class="tick" transform="translate(178.92439024390245,0)" style="opacity: 1;"><line y2="6" x2="0"/><text dy=".71em" y="9" x="0" style="text-anchor: middle;">4</text></g><g class="tick" transform="translate(270.68048780487806,0)" style="opacity: 1;"><line y2="6" x2="0"/><text dy=".71em" y="9" x="0" style="text-anchor: middle;">6</text></g><g class="tick" transform="translate(362.43658536585366,0)" style="opacity: 1;"><line y2="6" x2="0"/><text dy=".71em" y="9" x="0" style="text-anchor: middle;">8</text></g><g class="tick" transform="translate(454.1926829268293,0)" style="opacity: 1;"><line y2="6" x2="0"/><text dy=".71em" y="9" x="0" style="text-anchor: middle;">10</text></g><g class="tick" transform="translate(545.9487804878049,0)" style="opacity: 1;"><line y2="6" x2="0"/><text dy=".71em" y="9" x="0" style="text-anchor: middle;">12</text></g><g class="tick" transform="translate(637.7048780487805,0)" style="opacity: 1;"><line y2="6" x2="0"/><text dy=".71em" y="9" x="0" style="text-anchor: middle;">14</text></g><g class="tick" transform="translate(729.4609756097561,0)" style="opacity: 1;"><line y2="6" x2="0"/><text dy=".71em" y="9" x="0" style="text-anchor: middle;">16</text></g><g class="tick" transform="translate(821.2170731707316,0)" style="opacity: 1;"><line y2="6" x2="0"/><text dy=".71em" y="9" x="0" style="text-anchor: middle;">18</text></g><g class="tick" transform="translate(912.9731707317073,0)" style="opacity: 1;"><line y2="6" x2="0"/><text dy=".71em" y="9" x="0" style="text-anchor: middle;">20</text></g><path class="domain" d="M0,6V0H940.5V6"/></g><g class="y axis"><g class="tick" transform="translate(0,498.043486777669)" style="opacity: 1;"><line x2="-6" y2="0"/><text dy=".32em" x="-9" y="0" style="text-anchor: end;">15</text></g><g class="tick" transform="translate(0,445.10519098922623)" style="opacity: 1;"><line x2="-6" y2="0"/><text dy=".32em" x="-9" y="0" style="text-anchor: end;">20</text></g><g class="tick" transform="translate(0,392.16689520078353)" style="opacity: 1;"><line x2="-6" y2="0"/><text dy=".32em" x="-9" y="0" style="text-anchor: end;">25</text></g><g class="tick" transform="translate(0,339.2285994123408)" style="opacity: 1;"><line x2="-6" y2="0"/><text dy=".32em" x="-9" y="0" style="text-anchor: end;">30</text></g><g class="tick" transform="translate(0,286.2903036238981)" style="opacity: 1;"><line x2="-6" y2="0"/><text dy=".32em" x="-9" y="0" style="text-anchor: end;">35</text></g><g class="tick" transform="translate(0,233.35200783545545)" style="opacity: 1;"><line x2="-6" y2="0"/><text dy=".32em" x="-9" y="0" style="text-anchor: end;">40</text></g><g class="tick" transform="translate(0,180.41371204701272)" style="opacity: 1;"><line x2="-6" y2="0"/><text dy=".32em" x="-9" y="0" style="text-anchor: end;">45</text></g><g class="tick" transform="translate(0,127.47541625857004)" style="opacity: 1;"><line x2="-6" y2="0"/><text dy=".32em" x="-9" y="0" style="text-anchor: end;">50</text></g><g class="tick" transform="translate(0,74.53712047012729)" style="opacity: 1;"><line x2="-6" y2="0"/><text dy=".32em" x="-9" y="0" style="text-anchor: end;">55</text></g><g class="tick" transform="translate(0,21.59882468168462)" style="opacity: 1;"><line x2="-6" y2="0"/><text dy=".32em" x="-9" y="0" style="text-anchor: end;">60</text></g><path class="domain" d="M-6,0H0V540.5H-6"/></g><text class="x label" text-anchor="end" x="627" y="576.5">Proporción de la población con ingresos inferiores a 1.25 dólares diarios</text><text class="y label" text-anchor="end" y="-40" x="-100" dy=".75em" transform="rotate(-90)">Tasa de mortalidad en niños menores de 5 años</text><text class="year label" text-anchor="end" y="516.5" x="940.5">1993</text><text class="country label" text-anchor="start" y="80" x="40"> </text><g class="dots"><circle class="dot" cx="711.109756097561" cy="199.89500489715965" r="5" style="fill: rgb(0, 204, 153);"><title>Guerrero</title></circle><circle class="dot" cx="518.4219512195123" cy="132.13398628795298" r="5" style="fill: rgb(0, 204, 153);"><title>Oaxaca</title></circle><circle class="dot" cx="793.6902439024389" cy="117.62889324191971" r="5" style="fill: rgb(0, 204, 153);"><title>Chiapas</title></circle><circle class="dot" cx="105.51951219512193" cy="276.6555337904016" r="5" style="fill: rgb(0, 204, 153);"><title>Chihuahua</title></circle><circle class="dot" cx="266.0926829268293" cy="180.30783545543588" r="5" style="fill: rgb(0, 204, 153);"><title>Puebla</title></circle><circle class="dot" cx="252.32926829268294" cy="254.95083251714007" r="5" style="fill: rgb(0, 204, 153);"><title>Veracruz</title></circle><circle class="dot" cx="77.99268292682927" cy="283.00812928501466" r="5" style="fill: rgb(0, 204, 153);"><title>Baja California</title></circle><circle class="dot" cx="77.99268292682927" cy="275.27913809990207" r="5" style="fill: rgb(0, 204, 153);"><title>México</title></circle><circle class="dot" cx="256.9170731707317" cy="252.1980411361411" r="5" style="fill: rgb(0, 204, 153);"><title>Hidalgo</title></circle><circle class="dot" cx="160.57317073170734" cy="350.66327130264443" r="5" style="fill: rgb(0, 204, 153);"><title>Campeche</title></circle><circle class="dot" cx="215.62682926829268" cy="286.18442703232125" r="5" style="fill: rgb(0, 204, 153);"><title>San Luis Potosí</title></circle><circle class="dot" cx="270.68048780487806" cy="319.1120470127326" r="5" style="fill: rgb(0, 204, 153);"><title>Tabasco</title></circle><circle class="dot" cx="178.92439024390245" cy="213.02370225269343" r="5" style="fill: rgb(0, 204, 153);"><title>Tlaxcala</title></circle><circle class="dot" cx="178.92439024390245" cy="335.2052889324192" r="5" style="fill: rgb(0, 204, 153);"><title>Durango</title></circle><circle class="dot" cx="68.8170731707317" cy="360.72154750244863" r="5" style="fill: rgb(0, 204, 153);"><title>Tamaulipas</title></circle><circle class="dot" cx="9.175609756097561" cy="409.318903036239" r="5" style="fill: rgb(0, 204, 153);"><title>Distrito Federal</title></circle><circle class="dot" cx="151.39756097560976" cy="361.35680705190987" r="5" style="fill: rgb(0, 204, 153);"><title>Morelos</title></circle><circle class="dot" cx="261.5048780487805" cy="295.7133202742409" r="5" style="fill: rgb(0, 204, 153);"><title>Michoacán</title></circle><circle class="dot" cx="77.99268292682927" cy="301.96003917727717" r="5" style="fill: rgb(0, 204, 153);"><title>Querétaro</title></circle><circle class="dot" cx="119.28292682926829" cy="379.1440744368266" r="5" style="fill: rgb(0, 204, 153);"><title>Coahuila</title></circle><circle class="dot" cx="160.57317073170734" cy="350.8750244857983" r="5" style="fill: rgb(0, 204, 153);"><title>Nayarit</title></circle><circle class="dot" cx="114.6951219512195" cy="352.1455435847208" r="5" style="fill: rgb(0, 204, 153);"><title>Quintana Roo</title></circle><circle class="dot" cx="334.909756097561" cy="305.9833496571988" r="5" style="fill: rgb(0, 204, 153);"><title>Zacatecas</title></circle><circle class="dot" cx="73.40487804878049" cy="276.23202742409404" r="5" style="fill: rgb(0, 204, 153);"><title>Guanajuato</title></circle><circle class="dot" cx="91.75609756097562" cy="395.34319294809006" r="5" style="fill: rgb(0, 204, 153);"><title>Baja California Sur</title></circle><circle class="dot" cx="9.175609756097561" cy="344.2047992164545" r="5" style="fill: rgb(0, 204, 153);"><title>Sonora</title></circle><circle class="dot" cx="82.58048780487805" cy="361.4626836434868" r="5" style="fill: rgb(0, 204, 153);"><title>Colima</title></circle><circle class="dot" cx="59.64146341463413" cy="350.4515181194907" r="5" style="fill: rgb(0, 204, 153);"><title>Jalisco</title></circle><circle class="dot" cx="73.40487804878049" cy="380.0969637610186" r="5" style="fill: rgb(0, 204, 153);"><title>Yucatán</title></circle><circle class="dot" cx="87.16829268292683" cy="399.68413320274243" r="5" style="fill: rgb(0, 204, 153);"><title>Sinaloa</title></circle><circle class="dot" cx="32.114634146341466" cy="420.3300685602351" r="5" style="fill: rgb(0, 204, 153);"><title>Nuevo León</title></circle><circle class="dot" cx="142.2219512195122" cy="360.82742409402545" r="5" style="fill: rgb(0, 204, 153);"><title>Aguascalientes</title></circle></g></g></svg>