<svg xmlns="http://www.w3.org/2000/svg" width="789.5" height="400"><g transform="translate(39.5,19.5)" class="gRoot"><g class="x axis" transform="translate(0,340.5)"><g class="tick" transform="translate(67.70487804878049,0)" style="opacity: 1;"><line y2="6" x2="0"/><text dy=".71em" y="9" x="0" style="text-anchor: middle;">2</text></g><g class="tick" transform="translate(138.9731707317073,0)" style="opacity: 1;"><line y2="6" x2="0"/><text dy=".71em" y="9" x="0" style="text-anchor: middle;">4</text></g><g class="tick" transform="translate(210.24146341463418,0)" style="opacity: 1;"><line y2="6" x2="0"/><text dy=".71em" y="9" x="0" style="text-anchor: middle;">6</text></g><g class="tick" transform="translate(281.50975609756097,0)" style="opacity: 1;"><line y2="6" x2="0"/><text dy=".71em" y="9" x="0" style="text-anchor: middle;">8</text></g><g class="tick" transform="translate(352.77804878048784,0)" style="opacity: 1;"><line y2="6" x2="0"/><text dy=".71em" y="9" x="0" style="text-anchor: middle;">10</text></g><g class="tick" transform="translate(424.0463414634147,0)" style="opacity: 1;"><line y2="6" x2="0"/><text dy=".71em" y="9" x="0" style="text-anchor: middle;">12</text></g><g class="tick" transform="translate(495.3146341463415,0)" style="opacity: 1;"><line y2="6" x2="0"/><text dy=".71em" y="9" x="0" style="text-anchor: middle;">14</text></g><g class="tick" transform="translate(566.5829268292683,0)" style="opacity: 1;"><line y2="6" x2="0"/><text dy=".71em" y="9" x="0" style="text-anchor: middle;">16</text></g><g class="tick" transform="translate(637.851219512195,0)" style="opacity: 1;"><line y2="6" x2="0"/><text dy=".71em" y="9" x="0" style="text-anchor: middle;">18</text></g><g class="tick" transform="translate(709.119512195122,0)" style="opacity: 1;"><line y2="6" x2="0"/><text dy=".71em" y="9" x="0" style="text-anchor: middle;">20</text></g><path class="domain" d="M0,6V0H730.5V6"/></g><g class="y axis"><g class="tick" transform="translate(0,313.7535749265426)" style="opacity: 1;"><line x2="-6" y2="0"/><text dy=".32em" x="-9" y="0" style="text-anchor: end;">15</text></g><g class="tick" transform="translate(0,280.4039177277179)" style="opacity: 1;"><line x2="-6" y2="0"/><text dy=".32em" x="-9" y="0" style="text-anchor: end;">20</text></g><g class="tick" transform="translate(0,247.05426052889325)" style="opacity: 1;"><line x2="-6" y2="0"/><text dy=".32em" x="-9" y="0" style="text-anchor: end;">25</text></g><g class="tick" transform="translate(0,213.70460333006855)" style="opacity: 1;"><line x2="-6" y2="0"/><text dy=".32em" x="-9" y="0" style="text-anchor: end;">30</text></g><g class="tick" transform="translate(0,180.35494613124388)" style="opacity: 1;"><line x2="-6" y2="0"/><text dy=".32em" x="-9" y="0" style="text-anchor: end;">35</text></g><g class="tick" transform="translate(0,147.0052889324192)" style="opacity: 1;"><line x2="-6" y2="0"/><text dy=".32em" x="-9" y="0" style="text-anchor: end;">40</text></g><g class="tick" transform="translate(0,113.6556317335945)" style="opacity: 1;"><line x2="-6" y2="0"/><text dy=".32em" x="-9" y="0" style="text-anchor: end;">45</text></g><g class="tick" transform="translate(0,80.30597453476983)" style="opacity: 1;"><line x2="-6" y2="0"/><text dy=".32em" x="-9" y="0" style="text-anchor: end;">50</text></g><g class="tick" transform="translate(0,46.95631733594514)" style="opacity: 1;"><line x2="-6" y2="0"/><text dy=".32em" x="-9" y="0" style="text-anchor: end;">55</text></g><g class="tick" transform="translate(0,13.606660137120468)" style="opacity: 1;"><line x2="-6" y2="0"/><text dy=".32em" x="-9" y="0" style="text-anchor: end;">60</text></g><path class="domain" d="M-6,0H0V340.5H-6"/></g><text class="x label" text-anchor="end" x="487" y="376.5">Proporción de la población con ingresos inferiores a 1.25 dólares diarios</text><text class="y label" text-anchor="end" y="-40" x="-100" dy=".75em" transform="rotate(-90)">Tasa de mortalidad en niños menores de 5 años</text><text class="year label" text-anchor="end" y="316.5" x="730.5">2013</text><text class="country label" text-anchor="start" y="80" x="40"> </text><g class="dots"><circle class="dot" cx="409.79268292682923" cy="284.4058765915769" r="5" style="fill: rgb(0, 204, 153);"><title>Guerrero</title></circle><circle class="dot" cx="272.6012195121952" cy="284.8727717923604" r="5" style="fill: rgb(0, 204, 153);"><title>Oaxaca</title></circle><circle class="dot" cx="356.3414634146341" cy="286.0733594515181" r="5" style="fill: rgb(0, 204, 153);"><title>Chiapas</title></circle><circle class="dot" cx="90.86707317073171" cy="288.7413320274241" r="5" style="fill: rgb(0, 204, 153);"><title>Chihuahua</title></circle><circle class="dot" cx="231.62195121951217" cy="289.7418217433888" r="5" style="fill: rgb(0, 204, 153);"><title>Puebla</title></circle><circle class="dot" cx="57.014634146341436" cy="291.74280117531833" r="5" style="fill: rgb(0, 204, 153);"><title>Veracruz</title></circle><circle class="dot" cx="49.88780487804878" cy="296.1449559255632" r="5" style="fill: rgb(0, 204, 153);"><title>Baja California</title></circle><circle class="dot" cx="57.014634146341464" cy="299.2798237022527" r="5" style="fill: rgb(0, 204, 153);"><title>México</title></circle><circle class="dot" cx="176.38902439024395" cy="300.747208619001" r="5" style="fill: rgb(0, 204, 153);"><title>Hidalgo</title></circle><circle class="dot" cx="122.93780487804881" cy="301.5476003917728" r="5" style="fill: rgb(0, 204, 153);"><title>Campeche</title></circle><circle class="dot" cx="133.62804878048777" cy="306.4166503428012" r="5" style="fill: rgb(0, 204, 153);"><title>San Luis Potosí</title></circle><circle class="dot" cx="201.33292682926836" cy="307.55053868756124" r="5" style="fill: rgb(0, 204, 153);"><title>Tabasco</title></circle><circle class="dot" cx="115.81097560975611" cy="308.2175318315377" r="5" style="fill: rgb(0, 204, 153);"><title>Tlaxcala</title></circle><circle class="dot" cx="235.18536585365854" cy="311.28570029382956" r="5" style="fill: rgb(0, 204, 153);"><title>Durango</title></circle><circle class="dot" cx="42.7609756097561" cy="312.08609206660134" r="5" style="fill: rgb(0, 204, 153);"><title>Tamaulipas</title></circle><circle class="dot" cx="21.380487804878044" cy="315.6211557296768" r="5" style="fill: rgb(0, 204, 153);"><title>Distrito Federal</title></circle><circle class="dot" cx="44.542682926829265" cy="317.8222331047992" r="5" style="fill: rgb(0, 204, 153);"><title>Morelos</title></circle><circle class="dot" cx="103.33902439024389" cy="319.956611165524" r="5" style="fill: rgb(0, 204, 153);"><title>Michoacán</title></circle><circle class="dot" cx="89.08536585365853" cy="320.15670910871694" r="5" style="fill: rgb(0, 204, 153);"><title>Querétaro</title></circle><circle class="dot" cx="33.85243902439023" cy="323.29157688540647" r="5" style="fill: rgb(0, 204, 153);"><title>Coahuila</title></circle><circle class="dot" cx="345.6512195121951" cy="323.8251714005877" r="5" style="fill: rgb(0, 204, 153);"><title>Nayarit</title></circle><circle class="dot" cx="155.00853658536585" cy="324.22536728697355" r="5" style="fill: rgb(0, 204, 153);"><title>Quintana Roo</title></circle><circle class="dot" cx="267.25609756097555" cy="324.62556317335947" r="5" style="fill: rgb(0, 204, 153);"><title>Zacatecas</title></circle><circle class="dot" cx="81.95853658536586" cy="325.22585700293826" r="5" style="fill: rgb(0, 204, 153);"><title>Guanajuato</title></circle><circle class="dot" cx="110.46585365853659" cy="325.42595494613124" r="5" style="fill: rgb(0, 204, 153);"><title>Baja California Sur</title></circle><circle class="dot" cx="57.01463414634145" cy="327.02673849167485" r="5" style="fill: rgb(0, 204, 153);"><title>Sonora</title></circle><circle class="dot" cx="96.2121951219512" cy="327.3602350636631" r="5" style="fill: rgb(0, 204, 153);"><title>Colima</title></circle><circle class="dot" cx="94.43048780487803" cy="327.4269343780607" r="5" style="fill: rgb(0, 204, 153);"><title>Jalisco</title></circle><circle class="dot" cx="37.41585365853658" cy="328.8276199804113" r="5" style="fill: rgb(0, 204, 153);"><title>Yucatán</title></circle><circle class="dot" cx="28.507317073170732" cy="334.96395690499514" r="5" style="fill: rgb(0, 204, 153);"><title>Sinaloa</title></circle><circle class="dot" cx="74.83170731707318" cy="337.6319294809011" r="5" style="fill: rgb(0, 204, 153);"><title>Nuevo León</title></circle><circle class="dot" cx="96.21219512195123" cy="340.5" r="5" style="fill: rgb(0, 204, 153);"><title>Aguascalientes</title></circle></g></g></svg>