<svg xmlns="http://www.w3.org/2000/svg" class="leaflet-zoom-animated" width="2222" height="800" viewBox="-311 -112 2222 800" style="transform: translate3d(-311px, -112px, 0px);"><g><path class="class-2 leaflet-clickable" stroke-linejoin="round" stroke-linecap="round" fill-rule="evenodd" stroke="#005540" stroke-opacity="1" stroke-width="0.5" fill="#00cc99" fill-opacity="0.5" d="M880 393L876 398L873 399L877 400L877 402L873 408L875 411L872 412L873 413L871 415L865 415L866 410L863 408L859 408L858 410L857 407L859 405L857 404L857 406L854 405L852 409L850 409L849 411L849 409L846 406L846 401L843 402L838 399L838 392L843 391L845 389L849 380L848 379L856 377L858 373L859 376L865 377L865 373L869 371L868 374L871 377L874 376L873 377L875 377L877 380L874 384L875 386L870 385L867 389L869 388L867 397L872 396L878 390L880 392z"/></g><g><path class="class-2 leaflet-clickable" stroke-linejoin="round" stroke-linecap="round" fill-rule="evenodd" stroke="#005540" stroke-opacity="1" stroke-width="0.5" fill="#00cc99" fill-opacity="0.5" d="M759 180L751 192L752 193L746 203L746 208L745 207L744 210L746 210L746 224L748 225L749 230L747 235L750 237L750 239L738 236L736 237L737 238L730 248L726 244L720 246L718 244L713 245L712 243L711 244L705 241L704 239L703 240L700 237L699 238L697 235L696 238L694 238L695 239L692 243L692 247L687 254L688 258L685 259L685 265L687 263L683 268L679 268L668 259L669 258L666 253L658 254L656 252L652 246L652 238L649 234L647 234L647 230L641 232L639 231L640 230L639 231L639 228L637 226L639 223L637 220L638 218L636 217L635 213L631 211L633 210L628 203L628 199L641 197L641 193L636 182L637 177L635 175L635 173L637 173L636 169L638 167L637 161L640 160L638 158L638 146L640 147L637 139L633 138L631 134L631 131L634 130L634 127L637 127L635 127L636 126L633 124L634 122L632 122L635 119L648 119L648 107L651 106L688 107L693 114L696 117L698 117L709 129L719 136L721 136L721 138L723 138L724 144L728 149L728 157L731 160L731 162L735 166L739 167L738 168L741 171L748 173L759 180z"/></g><g><path class="class-2 leaflet-clickable" stroke-linejoin="round" stroke-linecap="round" fill-rule="evenodd" stroke="#005540" stroke-opacity="1" stroke-width="0.5" fill="#00cc99" fill-opacity="0.5" d="M865 418L864 415L870 415L873 413L872 412L878 412L883 416L883 418L885 418L888 421L887 423L884 422L882 425L879 424L876 427L869 421L868 418L866 419z"/></g><g><path class="class-1 leaflet-clickable" stroke-linejoin="round" stroke-linecap="round" fill-rule="evenodd" stroke="#005540" stroke-opacity="1" stroke-width="0.5" fill="#7fd" fill-opacity="0.5" d="M549 187L548 189L548 187z"/></g><g><path class="class-1 leaflet-clickable" stroke-linejoin="round" stroke-linecap="round" fill-rule="evenodd" stroke="#005540" stroke-opacity="1" stroke-width="0.5" fill="#7fd" fill-opacity="0.5" d="M555 174L557 180L554 187L549 183L550 176L554 174z"/></g><g><path class="class-1 leaflet-clickable" stroke-linejoin="round" stroke-linecap="round" fill-rule="evenodd" stroke="#005540" stroke-opacity="1" stroke-width="0.5" fill="#7fd" fill-opacity="0.5" d="M500 107L502 107L501 108z"/></g><g><path class="class-1 leaflet-clickable" stroke-linejoin="round" stroke-linecap="round" fill-rule="evenodd" stroke="#005540" stroke-opacity="1" stroke-width="0.5" fill="#7fd" fill-opacity="0.5" d="M497 87L577 116L582 119L635 119L634 121L632 121L633 124L636 126L635 127L637 127L634 127L634 130L631 130L631 133L633 136L632 137L639 142L638 145L640 146L638 146L638 159L640 159L640 161L637 161L638 167L636 169L636 183L639 187L641 197L629 199L628 203L632 210L631 211L635 214L637 218L639 223L637 225L640 232L643 232L637 240L637 242L635 242L632 245L632 247L624 249L624 245L622 242L617 239L612 239L608 230L600 228L596 224L593 224L594 210L592 208L591 209L587 207L587 209L585 209L585 207L579 205L573 196L569 194L563 187L564 185L557 181L557 174L555 171L554 172L552 170L553 168L549 163L547 157L544 156L544 149L536 135L537 123L531 120L524 119L524 115L519 111L511 114L502 107L495 104L493 97L494 96L492 94L494 92L494 88L497 88zM588 206L588 207z"/></g><g><path class="class-1 leaflet-clickable" stroke-linejoin="round" stroke-linecap="round" fill-rule="evenodd" stroke="#005540" stroke-opacity="1" stroke-width="0.5" fill="#7fd" fill-opacity="0.5" d="M838 212L834 216L830 211L826 214L825 221L819 223L815 227L816 230L822 230L822 236L820 240L819 241L817 238L807 248L816 259L815 262L819 268L822 269L820 269L824 272L824 274L829 274L829 277L818 276L816 278L816 282L818 284L816 286L815 293L813 294L805 287L799 289L797 287L798 286L784 279L778 279L779 282L774 280L769 289L760 283L761 282L755 276L755 274L757 272L758 273L755 269L759 263L758 253L760 250L758 242L750 239L750 237L747 234L749 231L745 211L746 210L744 210L744 207L746 207L746 204L752 193L751 192L759 180L763 181L764 178L768 174L769 175L768 173L770 171L771 165L775 160L779 160L782 157L793 160L801 159L803 163L805 163L805 165L806 164L806 166L819 177L823 189L827 194L826 195L838 211z"/></g><g><path class="class-1 leaflet-clickable" stroke-linejoin="round" stroke-linecap="round" fill-rule="evenodd" stroke="#005540" stroke-opacity="1" stroke-width="0.5" fill="#7fd" fill-opacity="0.5" d="M858 428L861 431L865 429L863 435L864 442L863 443L861 441L856 445L850 442L846 437L851 426L858 428z"/></g><g><path class="class-1 leaflet-clickable" stroke-linejoin="round" stroke-linecap="round" fill-rule="evenodd" stroke="#005540" stroke-opacity="1" stroke-width="0.5" fill="#7fd" fill-opacity="0.5" d="M856 374L855 377L851 379L850 377L845 387L846 389L838 392L838 399L836 398L836 403L832 405L829 402L829 399L827 399L823 395L821 386L824 383L832 383L833 380L834 381L834 376L840 376L842 374L839 373L841 367L848 371L853 365L855 374z"/></g><g><path class="class-1 leaflet-clickable" stroke-linejoin="round" stroke-linecap="round" fill-rule="evenodd" stroke="#005540" stroke-opacity="1" stroke-width="0.5" fill="#7fd" fill-opacity="0.5" d="M693 372L692 372z"/></g><g><path class="class-1 leaflet-clickable" stroke-linejoin="round" stroke-linecap="round" fill-rule="evenodd" stroke="#005540" stroke-opacity="1" stroke-width="0.5" fill="#7fd" fill-opacity="0.5" d="M688 369L690 370L689 371L687 369z"/></g><g><path class="class-1 leaflet-clickable" stroke-linejoin="round" stroke-linecap="round" fill-rule="evenodd" stroke="#005540" stroke-opacity="1" stroke-width="0.5" fill="#7fd" fill-opacity="0.5" d="M683 364L685 364L686 367L684 367L683 365z"/></g><g><path class="class-1 leaflet-clickable" stroke-linejoin="round" stroke-linecap="round" fill-rule="evenodd" stroke="#005540" stroke-opacity="1" stroke-width="0.5" fill="#7fd" fill-opacity="0.5" d="M683 362L682 363z"/></g><g><path class="class-1 leaflet-clickable" stroke-linejoin="round" stroke-linecap="round" fill-rule="evenodd" stroke="#005540" stroke-opacity="1" stroke-width="0.5" fill="#7fd" fill-opacity="0.5" d="M735 347L737 348L735 357L739 357L740 361L744 362L746 364L745 367L750 371L747 374L748 375L738 377L739 382L735 386L738 388L738 390L727 381L718 383L715 389L713 387L708 387L716 377L716 368L715 369L710 365L706 357L706 350L703 344L704 343L704 345L706 342L711 344L709 340L709 334L712 330L713 333L721 333L720 334L723 338L719 340L721 344L725 341L730 345L731 348L735 346z"/></g><g><path class="class-0 leaflet-clickable" stroke-linejoin="round" stroke-linecap="round" fill-rule="evenodd" stroke="#005540" stroke-opacity="1" stroke-width="0.5" fill="#ddfff6" fill-opacity="0.5" d="M1122 444L1123 441L1123 443z"/></g><g><path class="class-0 leaflet-clickable" stroke-linejoin="round" stroke-linecap="round" fill-rule="evenodd" stroke="#005540" stroke-opacity="1" stroke-width="0.5" fill="#ddfff6" fill-opacity="0.5" d="M1124 436L1124 438L1124 436z"/></g><g><path class="class-0 leaflet-clickable" stroke-linejoin="round" stroke-linecap="round" fill-rule="evenodd" stroke="#005540" stroke-opacity="1" stroke-width="0.5" fill="#ddfff6" fill-opacity="0.5" d="M1136 392L1130 399L1130 395L1132 392L1137 391z"/></g><g><path class="class-0 leaflet-clickable" stroke-linejoin="round" stroke-linecap="round" fill-rule="evenodd" stroke="#005540" stroke-opacity="1" stroke-width="0.5" fill="#ddfff6" fill-opacity="0.5" d="M1081 455L1080 451L1082 450L1082 426L1081 419L1078 416L1081 414L1082 415L1082 413L1084 413L1084 411L1089 408L1089 406L1092 405L1093 402L1096 402L1098 399L1104 398L1108 395L1115 387L1118 381L1118 369L1125 371L1128 370L1129 367L1134 374L1134 371L1135 372L1135 380L1132 386L1120 400L1120 410L1119 411L1120 407L1119 410L1113 413L1115 417L1120 414L1121 415L1120 419L1115 421L1115 425L1118 422L1120 422L1118 424L1110 450L1107 450L1107 444L1102 444L1102 442L1096 442L1094 448L1091 450L1088 456L1084 453L1082 455z"/></g><g><path class="class-0 leaflet-clickable" stroke-linejoin="round" stroke-linecap="round" fill-rule="evenodd" stroke="#005540" stroke-opacity="1" stroke-width="0.5" fill="#ddfff6" fill-opacity="0.5" d="M1128 366L1126 368L1121 369L1123 367L1127 367z"/></g><g><path class="class-0 leaflet-clickable" stroke-linejoin="round" stroke-linecap="round" fill-rule="evenodd" stroke="#005540" stroke-opacity="1" stroke-width="0.5" fill="#ddfff6" fill-opacity="0.5" d="M772 363L774 362L782 366L792 359L793 358L791 358L793 356L795 356L800 362L798 362L799 363L797 368L799 371L797 371L797 373L794 375L794 377L787 386L790 389L787 395L785 397L779 397L770 403L769 401L765 403L765 406L767 405L772 408L772 410L770 411L773 416L772 417L777 418L774 424L772 423L768 425L763 431L761 429L755 430L755 422L751 417L747 420L742 417L740 422L733 424L732 423L729 426L725 424L725 422L724 423L721 421L719 416L717 416L709 405L705 395L713 393L715 391L714 389L716 386L717 387L719 383L724 381L731 383L738 391L737 386L735 386L739 382L738 377L748 375L747 374L750 371L745 366L746 364L744 362L740 362L739 358L735 356L737 348L739 346L740 347L739 344L742 345L741 348L745 345L742 340L743 338L749 340L749 342L746 343L747 344L745 348L747 352L747 348L750 342L753 344L750 353L751 354L755 354L757 351L759 351L758 348L760 346L762 348L761 349L765 351L763 357L759 357L755 361L753 361L755 363L754 366L750 368L750 370L754 370L755 372L750 374L752 374L753 378L763 380L765 375L768 376L772 372L773 373L775 369L771 366L772 364z"/></g><g><path class="class-0 leaflet-clickable" stroke-linejoin="round" stroke-linecap="round" fill-rule="evenodd" stroke="#005540" stroke-opacity="1" stroke-width="0.5" fill="#ddfff6" fill-opacity="0.5" d="M1118 369L1118 381L1115 387L1104 399L1098 399L1092 405L1090 405L1089 408L1087 408L1088 409L1082 415L1081 414L1078 416L1075 414L1071 408L1071 405L1068 401L1066 401L1062 394L1059 395L1054 392L1053 385L1055 380L1065 375L1091 371L1095 368L1100 368L1103 366L1118 369z"/></g><g><path class="class-0 leaflet-clickable" stroke-linejoin="round" stroke-linecap="round" fill-rule="evenodd" stroke="#005540" stroke-opacity="1" stroke-width="0.5" fill="#ddfff6" fill-opacity="0.5" d="M1068 342L1072 345L1070 347L1067 344L1068 342z"/></g><g><path class="class-0 leaflet-clickable" stroke-linejoin="round" stroke-linecap="round" fill-rule="evenodd" stroke="#005540" stroke-opacity="1" stroke-width="0.5" fill="#ddfff6" fill-opacity="0.5" d="M816 293L818 296L813 300L811 298L810 302L808 303L807 309L802 314L794 321L789 323L786 323L784 321L782 324L784 324L782 326L786 337L790 341L792 340L792 343L794 345L797 344L801 338L804 339L803 340L805 344L803 345L802 349L804 351L804 356L801 360L800 361L799 359L792 356L788 353L788 349L787 350L782 346L780 348L774 349L774 353L769 360L772 364L772 367L775 369L774 372L772 372L768 376L765 375L765 379L763 380L759 380L752 377L750 373L754 372L754 370L750 370L750 368L754 366L755 363L753 361L763 356L765 351L763 349L762 350L760 346L758 348L759 351L757 351L756 354L750 353L753 350L753 345L752 343L750 343L748 344L747 352L745 348L747 344L746 343L749 342L749 340L746 338L742 339L745 344L742 348L742 344L740 344L738 348L736 347L737 339L741 337L739 332L742 320L747 316L748 317L747 307L751 303L753 303L753 300L755 300L757 296L769 296L772 298L777 297L778 292L774 284L774 281L779 282L778 279L787 280L792 282L794 285L798 286L797 287L799 289L805 287L808 289L809 292L813 294L816 293z"/></g><g><path class="class-0 leaflet-clickable" stroke-linejoin="round" stroke-linecap="round" fill-rule="evenodd" stroke="#005540" stroke-opacity="1" stroke-width="0.5" fill="#ddfff6" fill-opacity="0.5" d="M499 445L499 445z"/></g><g><path class="class-0 leaflet-clickable" stroke-linejoin="round" stroke-linecap="round" fill-rule="evenodd" stroke="#005540" stroke-opacity="1" stroke-width="0.5" fill="#ddfff6" fill-opacity="0.5" d="M584 433L586 435L585 436L583 434L584 433z"/></g><g><path class="class-0 leaflet-clickable" stroke-linejoin="round" stroke-linecap="round" fill-rule="evenodd" stroke="#005540" stroke-opacity="1" stroke-width="0.5" fill="#ddfff6" fill-opacity="0.5" d="M755 430L749 437L735 427L728 425L729 426L732 423L733 424L741 422L740 421L742 417L747 420L751 417L755 421L755 430z"/></g><g><path class="class-0 leaflet-clickable" stroke-linejoin="round" stroke-linecap="round" fill-rule="evenodd" stroke="#005540" stroke-opacity="1" stroke-width="0.5" fill="#ddfff6" fill-opacity="0.5" d="M588 423L588 422z"/></g><g><path class="class-0 leaflet-clickable" stroke-linejoin="round" stroke-linecap="round" fill-rule="evenodd" stroke="#005540" stroke-opacity="1" stroke-width="0.5" fill="#ddfff6" fill-opacity="0.5" d="M792 356L791 357L793 359L788 360L784 365L780 365L774 362L771 363L769 361L774 353L774 349L780 348L782 346L786 348L785 349L788 349L788 353L792 356z"/></g><g><path class="class-0 leaflet-clickable" stroke-linejoin="round" stroke-linecap="round" fill-rule="evenodd" stroke="#005540" stroke-opacity="1" stroke-width="0.5" fill="#ddfff6" fill-opacity="0.5" d="M624 249L628 249L633 245L634 242L638 240L642 230L648 231L647 234L649 234L652 237L652 246L658 254L667 254L669 257L668 259L674 263L674 265L676 265L673 268L671 268L672 271L670 272L672 276L672 281L674 281L677 287L682 290L685 296L684 297L687 300L690 300L690 298L696 300L698 306L701 309L699 309L700 317L703 318L705 322L704 323L706 325L706 329L712 330L709 334L709 341L710 340L711 343L710 344L706 342L705 345L687 326L686 322L680 316L675 308L657 295L641 275L628 270L625 266L621 266L619 258L624 249z"/></g><g><path class="class-1 leaflet-clickable" stroke-linejoin="round" stroke-linecap="round" fill-rule="evenodd" stroke="#005540" stroke-opacity="1" stroke-width="0.5" fill="#7fd" fill-opacity="0.5" d="M885 350L883 352L875 345L873 345L872 347L865 346L863 348L856 346L854 347L846 338L845 342L842 340L838 340L837 338L832 338L834 336L832 333L834 331L832 329L833 324L831 324L833 322L836 323L835 318L838 313L844 313L846 310L846 308L842 304L844 297L841 295L841 293L845 292L846 289L850 287L852 288L854 284L853 282L856 279L859 280L870 271L867 270L867 256L861 256L859 258L857 254L854 256L853 250L851 251L847 248L848 242L842 240L844 235L840 234L842 230L840 220L836 219L836 217L841 214L845 217L847 231L851 235L855 247L857 246L859 248L864 249L864 251L870 251L875 256L888 256L893 261L895 260L894 259L899 258L899 264L892 277L887 295L885 337L883 340L884 349z"/></g><g><path class="class-0 leaflet-clickable" stroke-linejoin="round" stroke-linecap="round" fill-rule="evenodd" stroke="#005540" stroke-opacity="1" stroke-width="0.5" fill="#ddfff6" fill-opacity="0.5" d="M838 212L841 214L836 217L836 219L840 220L842 229L840 234L844 235L842 239L848 242L847 248L851 251L853 250L854 256L857 254L859 258L861 256L867 256L867 270L870 270L860 280L856 279L853 282L853 288L850 287L846 289L845 292L841 293L841 295L843 295L844 297L842 304L847 310L844 313L838 313L835 318L836 323L833 322L831 324L833 324L832 326L829 326L830 324L828 324L827 326L826 325L827 328L824 327L824 314L822 311L823 305L820 303L821 298L816 293L816 286L818 284L816 283L816 278L818 276L829 277L829 275L825 274L820 269L822 269L817 266L814 255L807 248L817 238L819 241L820 240L822 236L822 230L816 230L815 227L819 223L825 221L826 214L830 211L834 215L836 214z"/></g><g><path class="class-0 leaflet-clickable" stroke-linejoin="round" stroke-linecap="round" fill-rule="evenodd" stroke="#005540" stroke-opacity="1" stroke-width="0.5" fill="#ddfff6" fill-opacity="0.5" d="M840 369L839 372L840 374L842 374L838 377L834 376L835 377L833 383L824 383L821 386L823 394L827 399L825 403L826 406L813 407L810 403L808 403L808 405L804 405L802 403L802 401L804 400L801 399L801 397L799 397L796 400L790 400L790 398L787 395L790 392L787 385L790 383L794 375L797 374L796 371L798 371L797 368L799 364L798 363L800 361L806 361L808 363L810 362L818 368L824 368L825 364L827 364L837 370L839 369z"/></g><g><path class="class-1 leaflet-clickable" stroke-linejoin="round" stroke-linecap="round" fill-rule="evenodd" stroke="#005540" stroke-opacity="1" stroke-width="0.5" fill="#7fd" fill-opacity="0.5" d="M826 398L830 400L829 402L832 405L831 406L833 409L831 409L829 413L830 420L827 421L825 427L819 434L816 433L817 440L820 442L820 445L816 442L813 443L811 441L805 440L801 442L795 439L792 440L791 442L792 447L785 450L785 456L755 446L749 437L755 430L760 429L763 431L766 428L766 426L767 427L767 425L772 423L773 424L775 422L776 418L772 418L773 416L770 411L772 409L771 407L765 406L765 403L768 402L767 401L772 402L778 397L785 396L789 396L788 397L790 397L792 401L796 401L797 398L801 397L801 399L804 400L802 400L802 403L804 405L808 405L808 403L810 403L813 407L823 407L826 406L825 403L827 399z"/></g><g><path class="class-1 leaflet-clickable" stroke-linejoin="round" stroke-linecap="round" fill-rule="evenodd" stroke="#005540" stroke-opacity="1" stroke-width="0.5" fill="#7fd" fill-opacity="0.5" d="M858 428L854 428L849 424L854 415L858 422L858 427z"/></g><g><path class="class-2 leaflet-clickable" stroke-linejoin="round" stroke-linecap="round" fill-rule="evenodd" stroke="#005540" stroke-opacity="1" stroke-width="0.5" fill="#00cc99" fill-opacity="0.5" d="M838 399L843 402L846 401L846 408L849 410L848 411L852 408L852 406L857 406L857 404L858 410L860 408L863 408L866 411L864 415L866 419L866 429L861 431L858 428L858 422L856 420L855 415L849 422L851 426L850 431L847 432L848 434L845 437L841 435L842 436L840 436L838 439L834 439L828 445L824 440L825 439L823 438L824 435L821 432L830 419L828 413L831 412L831 404L835 404L835 400L837 399z"/></g><g><path class="class-3 leaflet-clickable" stroke-linejoin="round" stroke-linecap="round" fill-rule="evenodd" stroke="#005540" stroke-opacity="1" stroke-width="0.5" fill="#086" fill-opacity="0.5" d="M909 444L905 448L900 450L897 449L892 453L890 453L888 447L884 447L884 454L886 452L887 453L885 453L882 456L880 454L876 454L876 456L871 457L870 454L866 455L856 447L856 445L859 442L864 443L863 435L866 429L865 418L867 418L876 427L879 424L882 426L884 423L888 422L885 418L882 417L883 416L881 414L879 414L879 412L874 413L875 412L873 409L878 402L876 399L873 399L876 398L882 391L883 385L886 386L886 390L890 393L885 396L887 398L886 401L890 403L893 399L899 402L893 417L895 419L894 420L903 423L901 425L902 426L898 425L895 438L896 437L901 442L905 440L909 444z"/></g><g><path class="class-3 leaflet-clickable" stroke-linejoin="round" stroke-linecap="round" fill-rule="evenodd" stroke="#005540" stroke-opacity="1" stroke-width="0.5" fill="#086" fill-opacity="0.5" d="M846 436L850 442L854 442L856 447L861 451L860 452L863 453L861 453L864 455L870 455L869 461L873 465L873 472L874 471L875 474L879 476L878 481L875 485L876 486L872 488L871 492L867 494L862 488L860 489L850 485L842 485L834 479L810 471L811 470L806 466L802 465L793 456L785 453L786 449L792 446L792 440L794 439L798 439L798 441L800 442L816 442L818 444L819 443L819 445L820 442L818 442L817 440L816 433L819 434L821 432L824 435L823 438L828 445L834 439L838 439L842 435L845 437z"/></g><g><path class="class-3 leaflet-clickable" stroke-linejoin="round" stroke-linecap="round" fill-rule="evenodd" stroke="#005540" stroke-opacity="1" stroke-width="0.5" fill="#086" fill-opacity="0.5" d="M974 474L968 490L970 493L969 497L971 501L965 498L955 496L943 497L938 502L934 502L924 507L923 506L920 509L911 509L902 506L899 503L885 502L875 495L868 494L872 491L871 488L876 486L875 485L878 482L878 478L880 476L875 475L874 471L873 472L873 465L869 461L870 457L874 455L875 456L877 454L881 454L884 456L886 453L885 452L884 454L883 449L888 446L890 453L897 449L902 450L909 444L910 438L916 441L921 450L929 450L930 455L928 460L932 464L935 465L941 460L943 460L944 461L942 463L946 468L951 471L950 472L969 474z"/></g><g><path class="class-3 leaflet-clickable" stroke-linejoin="round" stroke-linecap="round" fill-rule="evenodd" stroke="#005540" stroke-opacity="1" stroke-width="0.5" fill="#086" fill-opacity="0.5" d="M1029 471L1032 474L1033 473L1033 475L1037 477L1036 478L1041 482L1046 484L1047 489L1053 492L1052 499L1023 499L1012 519L1015 523L1012 528L1013 532L1011 536L983 508L975 502L970 501L968 497L970 496L970 493L968 490L974 474L982 467L982 465L986 461L985 459L988 454L991 456L991 458L993 458L992 460L995 466L996 465L998 467L997 468L998 467L1000 469L1004 464L1009 463L1008 462L1014 459L1014 457L1017 455L1020 456L1020 460L1024 461L1024 467L1029 468L1030 471z"/></g><g><path class="class-3 leaflet-clickable" stroke-linejoin="round" stroke-linecap="round" fill-rule="evenodd" stroke="#005540" stroke-opacity="1" stroke-width="0.5" fill="#086" fill-opacity="0.5" d="M1053 385L1053 392L1057 392L1058 395L1061 394L1066 398L1065 399L1071 405L1074 413L1081 419L1081 458L1040 458L1040 454L1030 452L1027 450L1028 449L1025 452L1025 456L1013 450L1013 445L1009 443L1006 439L1009 437L1017 437L1020 439L1037 429L1046 421L1046 413L1052 406L1051 392L1053 385z"/></g><g><path class="class-2 leaflet-clickable" stroke-linejoin="round" stroke-linecap="round" fill-rule="evenodd" stroke="#005540" stroke-opacity="1" stroke-width="0.5" fill="#00cc99" fill-opacity="0.5" d="M1040 458L1040 471L1029 471L1030 468L1024 466L1025 463L1021 460L1021 456L1017 456L1010 461L1009 460L1009 462L1007 464L1003 464L1003 466L1000 469L998 467L997 468L998 467L996 465L994 465L992 460L993 457L991 457L992 456L989 454L986 455L986 461L982 465L980 470L978 468L980 464L978 464L974 459L969 457L970 453L968 449L984 443L997 443L1000 441L1000 439L1005 438L1008 443L1012 443L1013 450L1016 451L1017 453L1025 457L1025 451L1028 449L1028 451L1034 454L1040 454L1040 456z"/></g><g><path class="class-3 leaflet-clickable" stroke-linejoin="round" stroke-linecap="round" fill-rule="evenodd" stroke="#005540" stroke-opacity="1" stroke-width="0.5" fill="#086" fill-opacity="0.5" d="M885 350L887 358L895 367L893 373L894 379L901 393L908 399L915 408L918 420L923 425L923 427L926 428L928 433L933 436L942 436L952 441L959 450L968 448L969 457L977 461L979 464L979 471L977 471L974 474L950 473L951 471L946 468L942 463L944 461L943 460L941 460L935 465L932 465L928 460L930 455L929 450L921 450L922 449L921 450L919 448L914 439L910 438L909 445L907 441L903 440L901 442L898 438L895 437L897 432L896 429L903 423L894 420L895 419L893 417L893 415L896 412L896 408L900 402L893 399L890 403L886 401L887 398L885 396L886 394L887 395L890 393L887 392L885 385L883 385L882 391L880 392L878 389L877 392L872 396L867 397L868 396L866 393L869 391L870 388L868 389L872 384L872 386L874 386L875 381L877 379L873 377L874 376L871 377L868 374L869 371L868 372L865 366L870 362L867 357L869 358L870 354L873 351L865 347L871 347L874 345L880 348L883 352L884 350z"/></g><g><path class="class-2 leaflet-clickable" stroke-linejoin="round" stroke-linecap="round" fill-rule="evenodd" stroke="#005540" stroke-opacity="1" stroke-width="0.5" fill="#00cc99" fill-opacity="0.5" d="M832 326L834 330L832 332L834 336L832 338L837 338L845 342L846 338L854 347L867 347L873 351L867 358L869 358L869 362L865 366L868 369L868 371L864 373L866 373L865 377L861 377L858 373L855 374L853 365L848 371L846 371L842 367L840 367L840 369L837 370L828 364L826 364L824 368L820 369L816 367L813 363L800 361L804 356L804 352L802 349L805 345L803 340L804 339L801 338L799 342L798 341L797 344L794 345L792 343L792 340L790 341L785 336L783 331L784 329L782 326L784 324L782 324L784 321L786 323L794 321L807 309L807 303L810 302L811 297L813 300L818 296L821 297L820 302L823 304L823 327L826 328L826 325L827 326L828 324L830 324L829 326L831 326z"/></g><g><path class="class-1 leaflet-clickable" stroke-linejoin="round" stroke-linecap="round" fill-rule="evenodd" stroke="#005540" stroke-opacity="1" stroke-width="0.5" fill="#7fd" fill-opacity="0.5" d="M750 239L758 242L760 250L758 253L759 262L755 269L759 273L756 273L755 276L761 282L760 283L767 288L769 288L774 280L778 295L777 297L774 298L770 298L769 296L759 296L747 307L748 316L746 316L746 318L743 320L740 327L739 332L741 337L737 338L737 345L732 348L728 343L726 343L726 341L724 341L722 344L720 342L719 340L723 338L720 334L721 333L713 333L711 329L708 330L706 328L704 323L705 322L702 317L700 318L699 309L701 310L699 308L698 303L693 298L690 298L690 300L686 300L682 290L672 281L670 272L672 270L671 269L676 266L675 265L678 268L682 268L687 264L685 265L685 259L688 258L687 255L692 247L694 237L695 238L697 235L699 238L700 237L703 240L704 239L710 244L718 244L719 246L725 244L730 248L738 236L742 238L747 238z"/></g><g><path class="class-2 leaflet-clickable" stroke-linejoin="round" stroke-linecap="round" fill-rule="evenodd" stroke="#005540" stroke-opacity="1" stroke-width="0.5" fill="#00cc99" fill-opacity="0.5" d="M480 198L479 198z"/></g><g><path class="class-2 leaflet-clickable" stroke-linejoin="round" stroke-linecap="round" fill-rule="evenodd" stroke="#005540" stroke-opacity="1" stroke-width="0.5" fill="#00cc99" fill-opacity="0.5" d="M488 196L490 202L489 205L485 203L488 200L488 197z"/></g><g><path class="class-2 leaflet-clickable" stroke-linejoin="round" stroke-linecap="round" fill-rule="evenodd" stroke="#005540" stroke-opacity="1" stroke-width="0.5" fill="#00cc99" fill-opacity="0.5" d="M541 188L544 190L543 191L542 189z"/></g><g><path class="class-2 leaflet-clickable" stroke-linejoin="round" stroke-linecap="round" fill-rule="evenodd" stroke="#005540" stroke-opacity="1" stroke-width="0.5" fill="#00cc99" fill-opacity="0.5" d="M527 177L527 178z"/></g><g><path class="class-2 leaflet-clickable" stroke-linejoin="round" stroke-linecap="round" fill-rule="evenodd" stroke="#005540" stroke-opacity="1" stroke-width="0.5" fill="#00cc99" fill-opacity="0.5" d="M527 166L530 168L530 171L532 173L535 172L535 180L525 169L526 166z"/></g><g><path class="class-2 leaflet-clickable" stroke-linejoin="round" stroke-linecap="round" fill-rule="evenodd" stroke="#005540" stroke-opacity="1" stroke-width="0.5" fill="#00cc99" fill-opacity="0.5" d="M417 175L419 178L418 183L416 178L417 175z"/></g><g><path class="class-2 leaflet-clickable" stroke-linejoin="round" stroke-linecap="round" fill-rule="evenodd" stroke="#005540" stroke-opacity="1" stroke-width="0.5" fill="#00cc99" fill-opacity="0.5" d="M506 154L506 155z"/></g><g><path class="class-2 leaflet-clickable" stroke-linejoin="round" stroke-linecap="round" fill-rule="evenodd" stroke="#005540" stroke-opacity="1" stroke-width="0.5" fill="#00cc99" fill-opacity="0.5" d="M499 113L499 113z"/></g><g><path class="class-2 leaflet-clickable" stroke-linejoin="round" stroke-linecap="round" fill-rule="evenodd" stroke="#005540" stroke-opacity="1" stroke-width="0.5" fill="#00cc99" fill-opacity="0.5" d="M499 106L501 108L500 109L498 109L498 106z"/></g><g><path class="class-2 leaflet-clickable" stroke-linejoin="round" stroke-linecap="round" fill-rule="evenodd" stroke="#005540" stroke-opacity="1" stroke-width="0.5" fill="#00cc99" fill-opacity="0.5" d="M497 87L494 89L492 94L494 96L494 103L497 104L498 106L498 111L496 114L496 124L500 130L500 138L502 143L501 150L507 158L507 160L510 160L524 173L527 183L529 181L531 185L534 185L536 192L542 196L541 198L543 200L543 206L511 206L514 202L513 199L515 195L513 191L508 187L508 185L505 182L503 182L502 178L499 177L499 175L477 160L478 158L475 154L475 147L469 141L470 135L464 128L463 129L462 120L455 113L456 110L454 107L455 108L456 105L450 100L450 97L445 89L445 86L499 81L497 87z"/></g><g><path class="class-0 leaflet-clickable" stroke-linejoin="round" stroke-linecap="round" fill-rule="evenodd" stroke="#005540" stroke-opacity="1" stroke-width="0.5" fill="#ddfff6" fill-opacity="0.5" d="M611 303L609 303L609 298L611 302z"/></g><g><path class="class-0 leaflet-clickable" stroke-linejoin="round" stroke-linecap="round" fill-rule="evenodd" stroke="#005540" stroke-opacity="1" stroke-width="0.5" fill="#ddfff6" fill-opacity="0.5" d="M599 294L599 297L598 294z"/></g><g><path class="class-0 leaflet-clickable" stroke-linejoin="round" stroke-linecap="round" fill-rule="evenodd" stroke="#005540" stroke-opacity="1" stroke-width="0.5" fill="#ddfff6" fill-opacity="0.5" d="M598 292L598 293z"/></g><g><path class="class-0 leaflet-clickable" stroke-linejoin="round" stroke-linecap="round" fill-rule="evenodd" stroke="#005540" stroke-opacity="1" stroke-width="0.5" fill="#ddfff6" fill-opacity="0.5" d="M591 280L594 282L595 285L591 281z"/></g><g><path class="class-0 leaflet-clickable" stroke-linejoin="round" stroke-linecap="round" fill-rule="evenodd" stroke="#005540" stroke-opacity="1" stroke-width="0.5" fill="#ddfff6" fill-opacity="0.5" d="M591 274L590 276L591 274z"/></g><g><path class="class-0 leaflet-clickable" stroke-linejoin="round" stroke-linecap="round" fill-rule="evenodd" stroke="#005540" stroke-opacity="1" stroke-width="0.5" fill="#ddfff6" fill-opacity="0.5" d="M589 264L590 267L589 265z"/></g><g><path class="class-0 leaflet-clickable" stroke-linejoin="round" stroke-linecap="round" fill-rule="evenodd" stroke="#005540" stroke-opacity="1" stroke-width="0.5" fill="#ddfff6" fill-opacity="0.5" d="M583 264L583 266L583 264z"/></g><g><path class="class-0 leaflet-clickable" stroke-linejoin="round" stroke-linecap="round" fill-rule="evenodd" stroke="#005540" stroke-opacity="1" stroke-width="0.5" fill="#ddfff6" fill-opacity="0.5" d="M583 255L583 257L581 257L579 261L580 262L579 259L580 256L582 256z"/></g><g><path class="class-0 leaflet-clickable" stroke-linejoin="round" stroke-linecap="round" fill-rule="evenodd" stroke="#005540" stroke-opacity="1" stroke-width="0.5" fill="#ddfff6" fill-opacity="0.5" d="M578 253L578 253z"/></g><g><path class="class-0 leaflet-clickable" stroke-linejoin="round" stroke-linecap="round" fill-rule="evenodd" stroke="#005540" stroke-opacity="1" stroke-width="0.5" fill="#ddfff6" fill-opacity="0.5" d="M560 225L560 227L559 225z"/></g><g><path class="class-0 leaflet-clickable" stroke-linejoin="round" stroke-linecap="round" fill-rule="evenodd" stroke="#005540" stroke-opacity="1" stroke-width="0.5" fill="#ddfff6" fill-opacity="0.5" d="M563 220L562 220z"/></g><g><path class="class-0 leaflet-clickable" stroke-linejoin="round" stroke-linecap="round" fill-rule="evenodd" stroke="#005540" stroke-opacity="1" stroke-width="0.5" fill="#ddfff6" fill-opacity="0.5" d="M489 209L489 209z"/></g><g><path class="class-0 leaflet-clickable" stroke-linejoin="round" stroke-linecap="round" fill-rule="evenodd" stroke="#005540" stroke-opacity="1" stroke-width="0.5" fill="#ddfff6" fill-opacity="0.5" d="M511 206L544 206L546 213L554 219L557 225L556 226L563 230L561 231L561 233L563 235L565 234L568 236L571 242L574 244L573 245L577 255L577 263L582 269L584 269L585 275L592 286L590 294L593 301L599 303L599 299L602 299L607 303L607 306L611 307L611 309L614 312L614 315L619 318L620 325L616 330L607 335L604 331L602 321L598 317L594 315L582 303L572 298L567 299L557 291L557 288L554 287L559 275L559 262L553 251L546 249L531 237L529 236L526 239L519 232L515 232L512 228L508 228L505 225L504 221L491 210L492 209L504 212L510 209L511 207z"/></g></svg>