<svg xmlns="http://www.w3.org/2000/svg" class="leaflet-zoom-animated" width="2000" height="898" viewBox="-360 -162 2000 898" style="transform: translate3d(-360px, -162px, 0px);"><g><path class="class-2 leaflet-clickable" stroke-linejoin="round" stroke-linecap="round" fill-rule="evenodd" stroke="#005540" stroke-opacity="1" stroke-width="0.5" fill="#00cc99" fill-opacity="0.5" d="M1609 228L1609 242L1616 242L1616 246L1619 246L1619 248L1624 248L1627 245L1634 255L1634 259L1636 259L1636 261L1638 260L1640 262.57142857142856L1640 374L1582 374L1582 367L1570 365L1567 362L1559 359L1558 357L1554 359L1552 371L1547 367L1546 368L1545 366L1537 364L1534 360L1532 361L1529 358L1528 343L1520 344L1515 334L1536 331L1543 336L1543 334L1559 327L1563 322L1578 314L1591 304L1595 295L1595 284L1597 280L1602 277L1606 272L1604 261L1604 245L1607 238L1608 229z"/></g><g><path class="class-2 leaflet-clickable" stroke-linejoin="round" stroke-linecap="round" fill-rule="evenodd" stroke="#005540" stroke-opacity="1" stroke-width="0.5" fill="#00cc99" fill-opacity="0.5" d="M1218 313L1216 313L1215 315L1205 311L1201 304L1201 302L1207 297L1208 292L1210 293L1211 289L1211 291L1214 293L1215 298L1219 301L1219 313z"/></g><g><path class="class-1 leaflet-clickable" stroke-linejoin="round" stroke-linecap="round" fill-rule="evenodd" stroke="#005540" stroke-opacity="1" stroke-width="0.5" fill="#7fd" fill-opacity="0.5" d="M0 0"/></g><g><path class="class-1 leaflet-clickable" stroke-linejoin="round" stroke-linecap="round" fill-rule="evenodd" stroke="#005540" stroke-opacity="1" stroke-width="0.5" fill="#7fd" fill-opacity="0.5" d="M0 0"/></g><g><path class="class-1 leaflet-clickable" stroke-linejoin="round" stroke-linecap="round" fill-rule="evenodd" stroke="#005540" stroke-opacity="1" stroke-width="0.5" fill="#7fd" fill-opacity="0.5" d="M0 0"/></g><g><path class="class-1 leaflet-clickable" stroke-linejoin="round" stroke-linecap="round" fill-rule="evenodd" stroke="#005540" stroke-opacity="1" stroke-width="0.5" fill="#7fd" fill-opacity="0.5" d="M0 0"/></g><g><path class="class-1 leaflet-clickable" stroke-linejoin="round" stroke-linecap="round" fill-rule="evenodd" stroke="#005540" stroke-opacity="1" stroke-width="0.5" fill="#7fd" fill-opacity="0.5" d="M0 0"/></g><g><path class="class-1 leaflet-clickable" stroke-linejoin="round" stroke-linecap="round" fill-rule="evenodd" stroke="#005540" stroke-opacity="1" stroke-width="0.5" fill="#7fd" fill-opacity="0.5" d="M1640 262.57142857142856L1638 260L1636 262L1636 259L1634 259L1633 256L1634 255L1627 245L1624 248L1619 248L1619 246L1616 246L1616 243L1609 242L1610 222L1620 214L1640 206z"/></g><g><path class="class-1 leaflet-clickable" stroke-linejoin="round" stroke-linecap="round" fill-rule="evenodd" stroke="#005540" stroke-opacity="1" stroke-width="0.5" fill="#7fd" fill-opacity="0.5" d="M1639 141L1640 151L1637 147L1639 147L1640 145L1639 142L1637 143L1638 141L1639 142z"/></g><g><path class="class-3 leaflet-clickable" stroke-linejoin="round" stroke-linecap="round" fill-rule="evenodd" stroke="#005540" stroke-opacity="1" stroke-width="0.5" fill="#086" fill-opacity="0.5" d="M463 -147L462 -146z"/></g><g><path class="class-3 leaflet-clickable" stroke-linejoin="round" stroke-linecap="round" fill-rule="evenodd" stroke="#005540" stroke-opacity="1" stroke-width="0.5" fill="#086" fill-opacity="0.5" d="M479 -150L482 -144L481 -133L479 -132L473 -136L478 -141L478 -149z"/></g><g><path class="class-3 leaflet-clickable" stroke-linejoin="round" stroke-linecap="round" fill-rule="evenodd" stroke="#005540" stroke-opacity="1" stroke-width="0.5" fill="#086" fill-opacity="0.5" d="M590 -162L590 -160L589 -162z"/></g><g><path class="class-3 leaflet-clickable" stroke-linejoin="round" stroke-linecap="round" fill-rule="evenodd" stroke="#005540" stroke-opacity="1" stroke-width="0.5" fill="#086" fill-opacity="0.5" d="M0 0"/></g><g><path class="class-3 leaflet-clickable" stroke-linejoin="round" stroke-linecap="round" fill-rule="evenodd" stroke="#005540" stroke-opacity="1" stroke-width="0.5" fill="#086" fill-opacity="0.5" d="M0 0"/></g><g><path class="class-3 leaflet-clickable" stroke-linejoin="round" stroke-linecap="round" fill-rule="evenodd" stroke="#005540" stroke-opacity="1" stroke-width="0.5" fill="#086" fill-opacity="0.5" d="M0 0"/></g><g><path class="class-3 leaflet-clickable" stroke-linejoin="round" stroke-linecap="round" fill-rule="evenodd" stroke="#005540" stroke-opacity="1" stroke-width="0.5" fill="#086" fill-opacity="0.5" d="M0 0"/></g><g><path class="class-3 leaflet-clickable" stroke-linejoin="round" stroke-linecap="round" fill-rule="evenodd" stroke="#005540" stroke-opacity="1" stroke-width="0.5" fill="#086" fill-opacity="0.5" d="M0 0"/></g><g><path class="class-3 leaflet-clickable" stroke-linejoin="round" stroke-linecap="round" fill-rule="evenodd" stroke="#005540" stroke-opacity="1" stroke-width="0.5" fill="#086" fill-opacity="0.5" d="M0 0"/></g><g><path class="class-3 leaflet-clickable" stroke-linejoin="round" stroke-linecap="round" fill-rule="evenodd" stroke="#005540" stroke-opacity="1" stroke-width="0.5" fill="#086" fill-opacity="0.5" d="M574 -162L575 -156L580 -154L585 -155L587 -153L586 -144L590 -140L589 -133L591 -130L525 -130L532 -141L529 -144L533 -155L530 -159L527 -160L528 -162z"/></g><g><path class="class-1 leaflet-clickable" stroke-linejoin="round" stroke-linecap="round" fill-rule="evenodd" stroke="#005540" stroke-opacity="1" stroke-width="0.5" fill="#7fd" fill-opacity="0.5" d="M1215 206L1215 213L1209 213L1206 215L1203 213L1199 216L1201 218L1199 221L1199 225L1195 228L1193 233L1195 237L1180 242L1178 256L1176 255L1176 258L1174 258L1174 256L1173 257L1173 259L1175 260L1174 266L1165 266L1163 262L1161 262L1164 259L1154 253L1153 250L1150 250L1150 241L1145 235L1145 233L1147 233L1146 229L1151 224L1153 226L1160 224L1160 222L1167 224L1169 222L1168 221L1172 218L1171 215L1173 209L1177 212L1186 209L1187 205L1183 206L1181 203L1183 192L1187 192L1195 200L1196 198L1199 199L1200 193L1203 194L1205 190L1208 188L1212 192L1211 194L1213 202L1211 204L1214 206z"/></g><g><path class="class-3 leaflet-clickable" stroke-linejoin="round" stroke-linecap="round" fill-rule="evenodd" stroke="#005540" stroke-opacity="1" stroke-width="0.5" fill="#086" fill-opacity="0.5" d="M1561 401L1563 403L1569 404L1572 411L1576 412L1576 414L1579 416L1578 417L1582 419L1582 417L1585 421L1590 422L1595 426L1597 432L1599 433L1598 436L1599 435L1600 438L1602 437L1605 438L1605 440L1609 441L1607 446L1608 448L1606 449L1608 449L1606 450L1608 452L1606 454L1607 457L1548 457L1526 495L1533 504L1529 509L1529 522L1526 528L1517 522L1490 492L1480 483L1455 464L1443 459L1440 453L1443 450L1443 445L1439 438L1451 406L1455 401L1459 401L1463 398L1469 386L1470 387L1470 385L1474 381L1473 377L1475 375L1473 375L1475 375L1475 370L1478 366L1484 368L1486 370L1484 372L1485 373L1489 373L1490 375L1488 378L1488 382L1491 388L1493 390L1496 388L1499 392L1498 393L1501 394L1501 396L1503 396L1510 387L1515 385L1516 386L1520 383L1520 379L1523 379L1528 375L1529 376L1536 369L1538 369L1538 371L1544 370L1546 373L1544 378L1552 381L1551 384L1553 387L1550 390L1556 394L1557 393L1561 395L1564 398L1562 399z"/></g><g><path class="class-3 leaflet-clickable" stroke-linejoin="round" stroke-linecap="round" fill-rule="evenodd" stroke="#005540" stroke-opacity="1" stroke-width="0.5" fill="#086" fill-opacity="0.5" d="M1178 256L1179 255L1185 261L1195 261L1194 262L1198 269L1195 273L1199 276L1200 275L1200 279L1202 279L1208 274L1208 269L1212 267L1215 269L1216 268L1216 270L1217 266L1220 267L1220 269L1217 272L1219 272L1220 274L1216 275L1217 277L1220 278L1222 275L1221 274L1223 273L1227 276L1227 274L1232 278L1233 277L1236 280L1231 290L1234 296L1233 308L1235 315L1230 320L1228 320L1218 313L1220 306L1219 302L1215 298L1214 293L1211 291L1211 289L1210 293L1208 292L1207 296L1201 302L1205 311L1203 313L1203 319L1201 322L1198 323L1197 328L1193 332L1189 329L1188 330L1186 327L1185 328L1187 331L1184 330L1181 335L1177 335L1174 338L1172 338L1171 336L1169 337L1168 340L1166 340L1161 345L1160 344L1159 347L1154 345L1155 341L1154 339L1152 339L1152 336L1150 334L1152 329L1149 325L1145 324L1144 322L1155 310L1158 303L1158 299L1163 296L1163 292L1160 287L1161 286L1159 285L1160 283L1165 282L1165 277L1168 275L1166 273L1167 268L1165 268L1165 266L1174 266L1175 261L1173 257L1174 256L1174 258L1176 258L1176 255L1177 256z"/></g><g><path class="class-2 leaflet-clickable" stroke-linejoin="round" stroke-linecap="round" fill-rule="evenodd" stroke="#005540" stroke-opacity="1" stroke-width="0.5" fill="#00cc99" fill-opacity="0.5" d="M1233 295L1231 291L1233 288L1237 286L1239 286L1239 288L1246 288L1248 282L1251 282L1251 284L1256 285L1260 282L1261 285L1269 290L1268 292L1270 294L1272 293L1280 300L1277 303L1270 302L1270 306L1266 309L1261 306L1255 312L1252 309L1247 308L1248 307L1239 295L1235 295z"/></g><g><path class="class-0 leaflet-clickable" stroke-linejoin="round" stroke-linecap="round" fill-rule="evenodd" stroke="#005540" stroke-opacity="1" stroke-width="0.5" fill="#ddfff6" fill-opacity="0.5" d="M1087 170L1086 173L1088 176L1080 178L1074 186L1071 186L1071 188L1067 188L1067 190L1056 184L1050 183L1049 185L1047 185L1042 179L1044 171L1049 166L1052 160L1050 159L1050 157L1057 157L1067 150L1073 153L1074 157L1079 157L1081 160L1081 163L1079 164L1087 169z"/></g><g><path class="class-2 leaflet-clickable" stroke-linejoin="round" stroke-linecap="round" fill-rule="evenodd" stroke="#005540" stroke-opacity="1" stroke-width="0.5" fill="#00cc99" fill-opacity="0.5" d="M1264 244L1258 250L1258 252L1254 255L1252 254L1250 257L1251 258L1254 256L1258 262L1255 266L1256 270L1253 270L1249 276L1251 276L1251 278L1254 280L1252 282L1249 282L1246 288L1240 288L1239 286L1233 288L1232 287L1235 285L1234 282L1236 280L1233 277L1232 278L1232 276L1227 274L1227 276L1223 273L1221 274L1222 275L1220 278L1217 277L1216 275L1219 274L1219 272L1217 272L1220 269L1220 267L1218 266L1217 270L1213 267L1210 267L1207 275L1200 280L1200 275L1199 276L1195 273L1198 269L1194 262L1195 261L1190 260L1189 262L1187 260L1183 260L1179 255L1178 256L1180 242L1184 242L1189 239L1190 240L1192 237L1195 237L1193 232L1195 231L1200 222L1200 215L1202 215L1203 213L1206 215L1214 212L1215 213L1215 206L1220 205L1221 209L1224 212L1232 210L1233 211L1236 209L1236 206L1232 204L1238 201L1242 202L1238 207L1242 208L1241 209L1244 213L1249 211L1249 213L1253 213L1256 216L1256 218L1253 221L1253 225L1251 225L1251 228L1253 229L1251 231L1248 231L1247 230L1249 229L1246 227L1243 228L1242 232L1238 235L1239 237L1243 233L1240 237L1241 240L1239 240L1238 244L1236 244L1239 252L1242 253L1251 244L1255 243L1260 236L1263 243z"/></g><g><path class="class-2 leaflet-clickable" stroke-linejoin="round" stroke-linecap="round" fill-rule="evenodd" stroke="#005540" stroke-opacity="1" stroke-width="0.5" fill="#00cc99" fill-opacity="0.5" d="M1582 374L1582 401L1561 401L1564 397L1561 394L1556 394L1550 390L1553 387L1552 382L1545 378L1546 373L1544 370L1539 371L1538 369L1536 369L1533 371L1534 372L1531 373L1530 376L1528 375L1523 380L1521 379L1520 383L1516 386L1512 385L1505 393L1505 395L1501 396L1501 394L1498 393L1499 392L1496 388L1493 389L1489 384L1489 373L1484 372L1486 370L1478 366L1475 369L1475 374L1473 376L1474 381L1470 385L1470 387L1469 386L1463 398L1461 398L1462 397L1459 395L1462 391L1462 387L1457 383L1457 380L1449 377L1446 372L1445 373L1441 371L1442 362L1440 359L1441 357L1439 357L1439 355L1471 344L1496 344L1501 341L1505 335L1507 336L1515 334L1517 342L1520 344L1528 343L1528 356L1532 361L1533 360L1537 364L1545 366L1546 368L1547 367L1552 371L1554 363L1553 362L1555 358L1558 357L1558 359L1567 362L1572 366L1582 367L1582 371z"/></g><g><path class="class-1 leaflet-clickable" stroke-linejoin="round" stroke-linecap="round" fill-rule="evenodd" stroke="#005540" stroke-opacity="1" stroke-width="0.5" fill="#7fd" fill-opacity="0.5" d="M726 65L723 65L720 59L720 54L725 62z"/></g><g><path class="class-1 leaflet-clickable" stroke-linejoin="round" stroke-linecap="round" fill-rule="evenodd" stroke="#005540" stroke-opacity="1" stroke-width="0.5" fill="#7fd" fill-opacity="0.5" d="M701 46L704 49L702 52L699 49L699 46z"/></g><g><path class="class-1 leaflet-clickable" stroke-linejoin="round" stroke-linecap="round" fill-rule="evenodd" stroke="#005540" stroke-opacity="1" stroke-width="0.5" fill="#7fd" fill-opacity="0.5" d="M699 43L700 45L698 44z"/></g><g><path class="class-1 leaflet-clickable" stroke-linejoin="round" stroke-linecap="round" fill-rule="evenodd" stroke="#005540" stroke-opacity="1" stroke-width="0.5" fill="#7fd" fill-opacity="0.5" d="M685 17L686 20L689 20L691 22L693 28L691 29L684 20z"/></g><g><path class="class-1 leaflet-clickable" stroke-linejoin="round" stroke-linecap="round" fill-rule="evenodd" stroke="#005540" stroke-opacity="1" stroke-width="0.5" fill="#7fd" fill-opacity="0.5" d="M685 7L685 9L685 7z"/></g><g><path class="class-1 leaflet-clickable" stroke-linejoin="round" stroke-linecap="round" fill-rule="evenodd" stroke="#005540" stroke-opacity="1" stroke-width="0.5" fill="#7fd" fill-opacity="0.5" d="M682 -14L682 -8L680 -12z"/></g><g><path class="class-1 leaflet-clickable" stroke-linejoin="round" stroke-linecap="round" fill-rule="evenodd" stroke="#005540" stroke-opacity="1" stroke-width="0.5" fill="#7fd" fill-opacity="0.5" d="M670 -14L671 -11L669 -11L669 -13z"/></g><g><path class="class-1 leaflet-clickable" stroke-linejoin="round" stroke-linecap="round" fill-rule="evenodd" stroke="#005540" stroke-opacity="1" stroke-width="0.5" fill="#7fd" fill-opacity="0.5" d="M669 -32L668 -28L666 -28L661 -19L662 -25L664 -27L663 -30L667 -31z"/></g><g><path class="class-1 leaflet-clickable" stroke-linejoin="round" stroke-linecap="round" fill-rule="evenodd" stroke="#005540" stroke-opacity="1" stroke-width="0.5" fill="#7fd" fill-opacity="0.5" d="M659 -35L658 -34L659 -35z"/></g><g><path class="class-1 leaflet-clickable" stroke-linejoin="round" stroke-linecap="round" fill-rule="evenodd" stroke="#005540" stroke-opacity="1" stroke-width="0.5" fill="#7fd" fill-opacity="0.5" d="M622 -92L624 -90L623 -88L622 -92z"/></g><g><path class="class-1 leaflet-clickable" stroke-linejoin="round" stroke-linecap="round" fill-rule="evenodd" stroke="#005540" stroke-opacity="1" stroke-width="0.5" fill="#7fd" fill-opacity="0.5" d="M628 -101L627 -101z"/></g><g><path class="class-1 leaflet-clickable" stroke-linejoin="round" stroke-linecap="round" fill-rule="evenodd" stroke="#005540" stroke-opacity="1" stroke-width="0.5" fill="#7fd" fill-opacity="0.5" d="M480 -124L482 -124L480 -124z"/></g><g><path class="class-1 leaflet-clickable" stroke-linejoin="round" stroke-linecap="round" fill-rule="evenodd" stroke="#005540" stroke-opacity="1" stroke-width="0.5" fill="#7fd" fill-opacity="0.5" d="M525 -130L591 -130L591 -123L595 -116L599 -112L602 -112L610 -107L611 -101L617 -92L616 -90L619 -87L628 -84L625 -81L625 -77L628 -75L628 -73L630 -73L630 -71L634 -74L646 -63L645 -57L651 -55L650 -49L654 -44L653 -41L657 -33L655 -27L657 -17L662 -13L662 -9L666 -4L671 -4L670 -1L674 7L675 15L680 21L681 20L687 32L683 40L683 45L686 49L686 55L689 60L695 63L702 64L703 61L701 57L703 55L706 55L709 60L716 64L717 70L720 71L724 69L726 71L724 75L730 82L731 90L741 94L740 96L743 100L743 107L740 114L736 118L730 120L721 128L716 127L712 121L708 104L701 93L689 87L672 69L660 61L647 54L642 54L639 57L621 44L618 40L620 38L619 36L616 33L612 33L620 9L621 -18L618 -23L618 -26L612 -32L608 -40L604 -40L596 -45L595 -44L574 -62L568 -64L564 -69L558 -69L554 -64L552 -64L546 -70L546 -73L543 -77L538 -79L535 -78L527 -86L523 -87L521 -85L520 -87L515 -88L515 -90L513 -90L512 -99L502 -106L498 -111L489 -116L486 -122L487 -123L490 -121L494 -122L497 -120L499 -121L503 -119L512 -119L520 -124L521 -123L524 -129z"/></g><g><path class="class-1 leaflet-clickable" stroke-linejoin="round" stroke-linecap="round" fill-rule="evenodd" stroke="#005540" stroke-opacity="1" stroke-width="0.5" fill="#7fd" fill-opacity="0.5" d="M1182 196L1181 203L1183 206L1187 205L1186 209L1180 212L1173 209L1171 211L1172 218L1169 219L1167 224L1161 222L1160 224L1158 223L1157 225L1153 226L1150 224L1151 225L1146 228L1147 232L1145 233L1145 235L1150 241L1150 250L1152 250L1157 256L1154 263L1154 265L1156 266L1155 268L1148 272L1148 270L1147 271L1145 269L1138 273L1136 273L1136 271L1134 270L1134 272L1128 272L1126 270L1128 268L1124 264L1120 266L1119 265L1119 267L1116 268L1109 267L1107 259L1110 259L1110 257L1108 257L1107 255L1106 256L1106 253L1100 253L1094 259L1086 259L1084 258L1082 251L1080 252L1080 250L1076 250L1083 240L1083 238L1078 233L1077 229L1083 223L1084 224L1086 217L1087 215L1089 215L1088 213L1091 211L1091 209L1097 206L1097 202L1095 201L1099 200L1100 198L1097 194L1100 190L1100 182L1112 179L1119 183L1127 183L1134 188L1133 190L1145 195L1151 194L1151 188L1156 186L1163 189L1164 188L1164 190L1169 195L1174 194L1173 195L1175 198L1180 198L1182 197L1181 196z"/></g><g><path class="class-3 leaflet-clickable" stroke-linejoin="round" stroke-linecap="round" fill-rule="evenodd" stroke="#005540" stroke-opacity="1" stroke-width="0.5" fill="#086" fill-opacity="0.5" d="M1321 346L1315 353L1309 354L1307 357L1304 358L1301 356L1296 357L1287 364L1285 364L1279 357L1279 352L1273 351L1269 356L1271 362L1270 365L1271 366L1273 362L1277 364L1275 364L1271 369L1267 369L1264 366L1257 366L1253 371L1250 368L1248 371L1247 370L1245 372L1243 366L1241 365L1233 368L1229 365L1226 365L1229 363L1223 362L1223 357L1217 356L1217 352L1214 352L1214 349L1226 340L1230 344L1231 343L1231 335L1229 329L1233 322L1231 322L1232 319L1235 315L1233 308L1233 295L1237 294L1240 296L1248 309L1249 308L1255 312L1261 307L1266 309L1270 306L1269 304L1271 302L1278 303L1280 301L1272 293L1269 293L1267 288L1265 289L1261 286L1260 282L1258 285L1252 284L1251 282L1254 280L1250 276L1252 271L1256 270L1255 266L1258 263L1255 256L1252 258L1250 257L1251 254L1254 255L1255 252L1257 252L1264 244L1264 242L1267 240L1268 238L1266 234L1268 228L1274 229L1276 231L1274 235L1275 237L1278 242L1281 241L1284 245L1279 247L1279 249L1276 247L1274 249L1277 254L1274 256L1275 259L1281 262L1282 265L1286 262L1288 257L1301 261L1302 263L1294 276L1294 284L1289 289L1289 291L1293 294L1290 297L1293 299L1295 298L1302 302L1309 303L1307 311L1305 309L1299 309L1296 314L1297 321L1292 327L1292 331L1296 335L1298 334L1302 336L1305 343L1311 338L1316 341L1317 340L1318 344L1321 345z"/></g><g><path class="class-1 leaflet-clickable" stroke-linejoin="round" stroke-linecap="round" fill-rule="evenodd" stroke="#005540" stroke-opacity="1" stroke-width="0.5" fill="#7fd" fill-opacity="0.5" d="M1218 313L1221 314L1227 320L1230 320L1234 316L1231 322L1233 322L1229 328L1231 335L1231 343L1230 344L1226 340L1214 349L1211 343L1202 343L1197 336L1195 330L1197 328L1198 323L1201 322L1203 319L1204 311L1215 315L1215 313L1218 313z"/></g><g><path class="class-2 leaflet-clickable" stroke-linejoin="round" stroke-linecap="round" fill-rule="evenodd" stroke="#005540" stroke-opacity="1" stroke-width="0.5" fill="#00cc99" fill-opacity="0.5" d="M1167 110L1166 114L1171 119L1169 120L1169 122L1167 122L1167 126L1170 126L1171 131L1167 134L1177 134L1181 139L1186 138L1193 141L1195 141L1193 137L1193 135L1195 134L1198 139L1200 138L1200 140L1203 141L1207 151L1215 151L1220 152L1222 154L1226 154L1231 151L1232 153L1236 153L1239 156L1243 156L1245 158L1244 159L1248 159L1248 161L1243 166L1242 172L1239 172L1237 174L1240 175L1239 174L1238 175L1240 176L1238 177L1242 182L1239 186L1238 185L1234 188L1235 192L1239 196L1240 201L1235 203L1234 202L1232 204L1236 206L1236 209L1234 211L1232 210L1224 212L1220 206L1213 206L1211 204L1213 200L1211 194L1212 192L1209 188L1203 194L1200 193L1199 199L1193 199L1187 192L1183 192L1181 196L1182 197L1176 198L1174 197L1174 194L1169 195L1167 191L1164 191L1164 189L1156 186L1151 188L1151 193L1145 195L1133 190L1134 188L1127 183L1120 183L1112 179L1104 181L1103 180L1105 177L1108 176L1107 175L1111 170L1109 170L1111 165L1110 163L1112 161L1109 158L1107 158L1107 153L1109 154L1109 150L1112 149L1113 142L1109 138L1110 136L1108 134L1104 135L1104 137L1101 139L1097 146L1092 146L1093 148L1088 147L1088 139L1084 139L1075 133L1072 129L1069 118L1071 116L1068 110L1070 106L1069 108L1067 106L1069 105L1070 100L1072 100L1073 104L1091 100L1118 76L1117 64L1123 62L1126 53L1126 55L1129 58L1140 48L1145 55L1143 61L1145 61L1144 64L1148 66L1146 76L1150 87L1152 87L1150 91L1151 97L1149 96L1148 101L1151 104L1150 111L1156 114L1157 112L1155 113L1155 109L1159 107L1162 107L1162 110L1166 110z"/></g><g><path class="class-1 leaflet-clickable" stroke-linejoin="round" stroke-linecap="round" fill-rule="evenodd" stroke="#005540" stroke-opacity="1" stroke-width="0.5" fill="#7fd" fill-opacity="0.5" d="M1135 45L1138 49L1133 55L1129 58L1126 56L1126 54L1123 62L1118 64L1118 76L1116 78L1091 100L1075 104L1073 104L1073 102L1070 100L1067 106L1069 108L1070 106L1068 110L1071 115L1069 120L1072 129L1075 133L1084 139L1088 139L1088 147L1093 148L1092 146L1097 146L1100 142L1099 141L1104 137L1104 135L1108 134L1110 136L1109 138L1113 142L1113 146L1109 149L1109 154L1107 153L1107 158L1109 158L1112 161L1110 163L1111 164L1109 170L1111 170L1108 173L1108 176L1104 178L1104 181L1101 179L1099 175L1097 176L1092 170L1087 170L1079 164L1081 160L1080 157L1074 157L1074 154L1069 153L1067 149L1064 153L1060 154L1057 157L1050 157L1050 159L1052 160L1042 175L1041 179L1047 185L1044 188L1046 188L1046 190L1052 194L1052 201L1050 203L1048 201L1048 203L1042 206L1039 210L1033 207L1031 214L1032 216L1030 217L1025 216L1020 218L1014 213L1009 214L1006 210L1006 206L1002 206L1007 203L1012 203L1011 199L1009 199L1008 201L1003 197L1004 193L1007 193L1008 191L1010 192L1012 185L1011 182L1009 182L1012 179L1013 180L1021 173L1027 173L1026 171L1030 170L1030 168L1028 168L1032 166L1030 164L1033 161L1033 159L1031 157L1026 158L1025 157L1028 154L1028 152L1022 151L1019 153L1019 157L1022 157L1022 159L1018 160L1016 165L1005 166L1004 165L1008 158L1006 154L1008 155L1008 151L1010 150L1008 146L1009 145L1007 143L1003 143L1001 144L997 154L998 157L996 163L993 155L996 148L996 144L1001 140L1000 135L989 134L987 136L991 144L990 145L993 148L989 153L985 154L987 151L986 145L981 147L982 152L980 150L978 154L974 151L976 149L975 146L978 142L978 134L986 133L985 127L982 123L982 116L984 113L985 103L987 99L994 94L995 91L997 90L998 92L1000 88L997 88L996 86L998 82L997 71L1005 65L1006 67L1010 62L1009 59L1012 58L1017 51L1024 50L1031 52L1033 49L1036 51L1037 49L1040 51L1040 49L1043 53L1045 52L1047 54L1059 51L1058 37L1055 27L1050 25L1050 23L1052 23L1050 19L1061 22L1060 16L1070 16L1077 19L1088 21L1091 29L1097 29L1099 31L1099 33L1097 32L1098 34L1105 36L1111 32L1116 33L1123 43L1128 45L1131 43L1135 45z"/></g><g><path class="class-1 leaflet-clickable" stroke-linejoin="round" stroke-linecap="round" fill-rule="evenodd" stroke="#005540" stroke-opacity="1" stroke-width="0.5" fill="#7fd" fill-opacity="0.5" d="M888 202L888 204L886 203L887 202z"/></g><g><path class="class-1 leaflet-clickable" stroke-linejoin="round" stroke-linecap="round" fill-rule="evenodd" stroke="#005540" stroke-opacity="1" stroke-width="0.5" fill="#7fd" fill-opacity="0.5" d="M879 196L882 198L881 199L876 197L878 196z"/></g><g><path class="class-1 leaflet-clickable" stroke-linejoin="round" stroke-linecap="round" fill-rule="evenodd" stroke="#005540" stroke-opacity="1" stroke-width="0.5" fill="#7fd" fill-opacity="0.5" d="M869 186L873 187L876 191L874 193L870 191L869 187z"/></g><g><path class="class-1 leaflet-clickable" stroke-linejoin="round" stroke-linecap="round" fill-rule="evenodd" stroke="#005540" stroke-opacity="1" stroke-width="0.5" fill="#7fd" fill-opacity="0.5" d="M868 182L868 184z"/></g><g><path class="class-1 leaflet-clickable" stroke-linejoin="round" stroke-linecap="round" fill-rule="evenodd" stroke="#005540" stroke-opacity="1" stroke-width="0.5" fill="#7fd" fill-opacity="0.5" d="M974 151L977 153L977 156L973 164L973 172L974 173L976 171L982 173L981 179L983 181L994 183L993 184L995 186L993 191L1002 199L1001 204L997 208L991 208L986 211L985 210L980 212L980 222L978 226L973 229L973 231L975 230L979 234L978 239L977 235L970 229L969 230L964 224L961 224L954 219L952 219L946 224L940 224L932 235L929 232L926 233L920 231L930 220L930 218L931 219L934 216L933 203L936 198L933 194L932 195L924 190L915 172L914 154L910 145L912 148L914 148L912 144L914 142L916 142L918 145L923 146L925 144L924 140L921 137L921 131L923 128L922 125L926 118L928 118L930 125L944 123L945 130L949 132L949 135L941 138L944 142L945 147L951 141L951 139L953 139L956 144L960 145L960 147L965 153L967 154L973 150z"/></g><g><path class="class-1 leaflet-clickable" stroke-linejoin="round" stroke-linecap="round" fill-rule="evenodd" stroke="#005540" stroke-opacity="1" stroke-width="0.5" fill="#7fd" fill-opacity="0.5" d="M1179 -118L1172 -110L1163 -120L1156 -114L1153 -99L1141 -96L1134 -89L1134 -83L1136 -81L1138 -81L1138 -83L1140 -84L1147 -81L1147 -69L1140 -59L1138 -65L1117 -47L1123 -38L1130 -32L1131 -26L1134 -25L1133 -19L1136 -10L1139 -10L1140 -6L1147 -4L1144 -3L1146 -3L1145 -1L1151 1L1150 5L1157 5L1161 9L1161 11L1157 11L1157 13L1145 9L1140 10L1135 14L1135 22L1139 26L1134 31L1136 35L1135 45L1131 43L1128 45L1123 43L1116 33L1108 33L1105 36L1098 34L1097 32L1099 33L1099 31L1097 29L1091 29L1088 21L1077 19L1070 16L1060 16L1061 22L1050 19L1041 35L1039 33L1031 31L1024 24L1024 22L1012 8L1014 6L1014 3L1017 2L1019 4L1020 2L1013 -5L1016 -7L1021 -16L1019 -35L1023 -43L1021 -46L1018 -59L1003 -65L997 -74L997 -76L1001 -80L1001 -83L999 -85L999 -92L998 -91L998 -93L995 -95L996 -110L993 -120L994 -121L992 -121L992 -128L995 -126L995 -128L993 -129L1007.5 -162L1152 -162L1154 -161L1153 -159L1157 -156L1156 -151L1159 -147L1158 -145L1162 -142L1162 -140L1168 -138L1177 -125L1177 -120L1179 -120z"/></g><g><path class="class-0 leaflet-clickable" stroke-linejoin="round" stroke-linecap="round" fill-rule="evenodd" stroke="#005540" stroke-opacity="1" stroke-width="0.5" fill="#ddfff6" fill-opacity="0.5" d="M1179 -118L1180 -119L1184 -114L1175 -107L1176 -104L1183 -101L1183 -93L1188 -82L1184 -75L1182 -75L1183 -73L1188 -74L1191 -72L1189 -65L1187 -63L1193 -62L1199 -58L1198 -46L1199 -44L1201 -45L1208 -41L1210 -31L1216 -33L1222 -27L1225 -31L1236 -29L1236 -2L1244 -2L1244 0L1220 19L1216 19L1217 18L1215 16L1213 19L1210 19L1210 27L1208 29L1209 34L1204 32L1199 36L1195 37L1194 41L1191 41L1184 45L1185 48L1188 47L1191 53L1187 66L1193 71L1197 79L1195 78L1190 84L1178 84L1174 94L1175 103L1168 102L1165 105L1168 107L1167 110L1162 110L1162 107L1155 109L1155 113L1157 112L1157 114L1150 112L1151 104L1148 101L1149 97L1151 97L1150 92L1152 88L1150 87L1149 82L1147 80L1148 65L1144 64L1145 61L1143 61L1145 55L1144 52L1140 48L1138 49L1135 45L1136 35L1134 31L1139 26L1135 22L1135 14L1140 10L1145 9L1157 13L1157 11L1160 12L1161 9L1157 5L1150 5L1151 2L1146 -1L1146 -3L1144 -3L1148 -4L1140 -6L1139 -10L1136 -10L1133 -19L1134 -24L1131 -26L1130 -32L1123 -38L1117 -47L1138 -65L1140 -59L1147 -69L1147 -80L1140 -85L1138 -82L1136 -82L1134 -89L1141 -96L1153 -99L1156 -114L1163 -120L1172 -110L1175 -114z"/></g><g><path class="class-2 leaflet-clickable" stroke-linejoin="round" stroke-linecap="round" fill-rule="evenodd" stroke="#005540" stroke-opacity="1" stroke-width="0.5" fill="#00cc99" fill-opacity="0.5" d="M1273 158L1270 161L1263 154L1260 154L1253 148L1248 150L1248 152L1241 150L1238 152L1232 151L1229 153L1222 154L1220 152L1207 151L1203 141L1200 140L1200 138L1198 139L1195 134L1193 135L1195 141L1186 138L1181 139L1177 134L1168 134L1171 131L1170 126L1167 126L1167 123L1170 119L1167 116L1168 107L1165 105L1168 102L1175 103L1174 94L1178 84L1189 84L1195 78L1197 79L1195 74L1187 66L1191 53L1188 47L1185 48L1184 45L1190 41L1192 42L1195 40L1197 36L1204 32L1208 34L1208 29L1210 27L1210 19L1213 19L1214 16L1216 16L1216 19L1220 19L1244 0L1244 -2L1236 -2L1236 -29L1225 -31L1222 -27L1216 -33L1210 -31L1208 -41L1201 -45L1199 -44L1198 -46L1199 -58L1193 -62L1187 -62L1191 -72L1188 -74L1183 -73L1182 -75L1184 -75L1188 -82L1183 -93L1183 -101L1176 -104L1175 -107L1184 -114L1188 -111L1190 -112L1194 -108L1193 -105L1196 -104L1193 -95L1195 -95L1198 -88L1197 -80L1203 -74L1202 -73L1205 -72L1210 -55L1213 -54L1212 -50L1214 -48L1215 -49L1225 -46L1226 -47L1232 -41L1236 -41L1239 -39L1242 -40L1245 -36L1254 -31L1272 -31L1278 -29L1289 -20L1291 -20L1292 -24L1302 -26L1301 -14L1286 16L1278 44L1275 65L1275 89L1273 103L1274 127L1269 143L1271 156z"/></g><g><path class="class-3 leaflet-clickable" stroke-linejoin="round" stroke-linecap="round" fill-rule="evenodd" stroke="#005540" stroke-opacity="1" stroke-width="0.5" fill="#086" fill-opacity="0.5" d="M1273 158L1273 165L1280 179L1290 190L1293 191L1289 209L1300 233L1300 237L1334 276L1337 290L1340 294L1340 301L1347 307L1348 306L1351 314L1355 314L1357 323L1370 330L1390 331L1398 338L1408 339L1412 347L1417 351L1417 355L1419 357L1424 358L1439 355L1439 357L1441 357L1440 359L1442 362L1441 370L1445 373L1446 372L1449 377L1456 380L1457 383L1462 387L1461 393L1459 394L1462 397L1461 398L1463 398L1459 401L1455 401L1451 405L1442 406L1403 403L1404 398L1396 395L1387 383L1391 381L1389 377L1378 385L1377 384L1372 387L1367 387L1366 385L1364 385L1360 378L1358 378L1361 374L1363 367L1362 359L1357 357L1353 359L1351 359L1350 357L1347 359L1345 357L1346 356L1343 356L1339 347L1331 337L1328 337L1324 334L1321 338L1321 340L1323 340L1323 347L1321 347L1321 345L1318 344L1318 340L1316 341L1311 338L1305 343L1302 336L1298 334L1297 335L1292 331L1292 328L1297 321L1297 312L1300 309L1305 309L1306 311L1306 307L1309 303L1300 301L1295 298L1292 299L1290 297L1293 295L1292 293L1290 293L1289 287L1294 284L1294 277L1301 261L1289 257L1282 265L1282 263L1279 260L1277 261L1275 259L1275 256L1277 254L1274 250L1275 247L1279 249L1279 247L1283 245L1281 241L1278 242L1274 237L1274 233L1276 231L1274 229L1269 228L1266 234L1268 235L1268 238L1264 242L1264 244L1260 236L1255 243L1253 243L1247 249L1245 249L1242 253L1238 251L1236 245L1239 243L1239 240L1241 240L1240 238L1244 233L1239 236L1238 235L1242 232L1243 228L1247 227L1248 231L1253 229L1251 229L1251 226L1253 225L1252 224L1256 216L1253 213L1249 213L1249 211L1244 213L1241 209L1242 208L1238 207L1242 202L1239 200L1239 196L1236 194L1234 188L1242 183L1238 177L1238 175L1240 175L1237 174L1239 172L1242 173L1241 172L1243 170L1244 164L1248 161L1248 159L1246 160L1243 156L1242 157L1236 153L1232 153L1232 151L1238 152L1243 150L1247 152L1250 148L1252 148L1260 154L1264 155L1268 160L1270 161L1271 159z"/></g><g><path class="class-3 leaflet-clickable" stroke-linejoin="round" stroke-linecap="round" fill-rule="evenodd" stroke="#005540" stroke-opacity="1" stroke-width="0.5" fill="#086" fill-opacity="0.5" d="M1451 406L1439 438L1443 445L1443 449L1440 452L1443 459L1445 460L1426 452L1413 450L1393 451L1384 456L1382 458L1383 459L1380 461L1359 467L1343 475L1329 476L1320 473L1315 473L1304 466L1296 463L1273 461L1253 449L1244 448L1238 445L1239 443L1245 442L1247 439L1245 435L1254 432L1252 426L1257 426L1260 419L1258 415L1259 412L1263 411L1254 407L1253 401L1248 400L1249 390L1248 387L1241 380L1240 376L1244 373L1244 371L1248 371L1250 368L1252 371L1257 366L1263 366L1266 367L1266 369L1271 369L1275 364L1277 364L1273 362L1272 365L1270 365L1271 362L1269 356L1272 351L1279 351L1279 356L1285 364L1287 364L1290 360L1296 357L1300 357L1301 355L1304 358L1307 357L1309 354L1315 353L1320 346L1323 347L1323 340L1322 341L1321 338L1324 334L1328 337L1333 338L1343 356L1346 356L1345 357L1347 359L1349 357L1351 359L1356 357L1362 359L1363 367L1361 374L1358 378L1360 378L1360 380L1367 387L1372 387L1377 384L1378 385L1389 377L1391 380L1387 384L1396 395L1404 398L1403 403L1442 406z"/></g><g><path class="class-3 leaflet-clickable" stroke-linejoin="round" stroke-linecap="round" fill-rule="evenodd" stroke="#005540" stroke-opacity="1" stroke-width="0.5" fill="#086" fill-opacity="0.5" d="M1195 330L1197 336L1202 342L1212 344L1214 347L1214 352L1218 354L1217 356L1223 357L1223 362L1228 363L1226 365L1233 368L1240 365L1243 365L1244 367L1244 373L1240 376L1242 383L1246 384L1249 390L1248 391L1250 397L1248 398L1248 400L1253 401L1253 406L1263 411L1260 412L1258 415L1260 419L1258 424L1254 427L1252 426L1254 431L1250 434L1245 434L1245 436L1247 437L1245 442L1239 443L1237 445L1228 434L1222 435L1207 430L1192 427L1190 428L1180 423L1178 421L1179 420L1176 420L1168 415L1127 401L1117 392L1107 388L1106 385L1103 383L1100 383L1092 375L1091 371L1079 366L1076 366L1075 368L1075 366L1072 364L1074 357L1082 355L1087 351L1086 339L1091 336L1098 336L1101 341L1117 339L1120 341L1125 340L1129 344L1130 342L1136 342L1139 346L1140 345L1143 348L1145 345L1137 338L1137 323L1140 325L1140 327L1144 322L1152 329L1150 334L1152 336L1152 340L1154 339L1155 341L1154 345L1158 347L1160 347L1160 344L1161 345L1166 340L1168 340L1170 336L1174 338L1177 335L1180 335L1184 330L1187 331L1185 328L1186 327L1189 330L1193 332L1194 331z"/></g><g><path class="class-1 leaflet-clickable" stroke-linejoin="round" stroke-linecap="round" fill-rule="evenodd" stroke="#005540" stroke-opacity="1" stroke-width="0.5" fill="#7fd" fill-opacity="0.5" d="M1156 255L1164 259L1161 262L1163 262L1163 265L1166 267L1165 266L1165 268L1167 268L1166 273L1167 275L1169 275L1165 277L1165 282L1159 285L1161 286L1161 290L1163 291L1163 296L1158 299L1158 303L1155 310L1140 327L1138 323L1136 325L1138 340L1145 345L1143 348L1141 347L1141 345L1139 346L1136 342L1130 342L1130 344L1125 340L1122 341L1117 339L1103 342L1099 339L1098 336L1091 336L1086 339L1087 351L1084 354L1074 356L1072 364L1075 366L1075 368L1071 369L1067 366L1051 363L1034 356L1030 356L1019 352L1013 349L1009 341L1003 336L1004 335L1002 333L1007 325L1007 322L1009 323L1014 318L1017 319L1024 316L1028 321L1033 317L1033 315L1034 316L1034 314L1036 314L1034 312L1035 310L1036 311L1037 309L1045 305L1051 306L1055 297L1056 294L1054 292L1051 294L1049 292L1048 293L1049 291L1044 284L1044 279L1047 278L1048 274L1045 271L1033 269L1033 264L1035 262L1036 263L1040 261L1044 264L1044 262L1050 260L1051 257L1052 258L1053 256L1061 252L1064 253L1067 251L1071 252L1075 250L1080 250L1080 252L1083 252L1083 256L1086 259L1094 259L1100 253L1106 253L1105 256L1107 255L1108 257L1110 257L1110 259L1108 259L1107 261L1109 263L1108 267L1116 268L1119 267L1119 264L1120 266L1123 264L1127 266L1126 267L1128 268L1126 270L1128 272L1134 272L1134 270L1136 273L1138 273L1142 270L1144 271L1145 269L1147 271L1148 270L1148 272L1155 269L1156 267L1154 263L1156 260L1156 255z"/></g><g><path class="class-1 leaflet-clickable" stroke-linejoin="round" stroke-linecap="round" fill-rule="evenodd" stroke="#005540" stroke-opacity="1" stroke-width="0.5" fill="#7fd" fill-opacity="0.5" d="M502 348L504 348L501 349L501 347z"/></g><g><path class="class-1 leaflet-clickable" stroke-linejoin="round" stroke-linecap="round" fill-rule="evenodd" stroke="#005540" stroke-opacity="1" stroke-width="0.5" fill="#7fd" fill-opacity="0.5" d="M672 324L675 327L674 330L672 330L669 327L671 325z"/></g><g><path class="class-1 leaflet-clickable" stroke-linejoin="round" stroke-linecap="round" fill-rule="evenodd" stroke="#005540" stroke-opacity="1" stroke-width="0.5" fill="#7fd" fill-opacity="0.5" d="M1013 319L1009 323L1006 323L1007 327L1004 328L1002 332L991 323L975 316L975 312L973 311L970 313L968 311L958 308L962 308L963 310L966 304L968 306L973 303L976 304L976 302L983 302L987 296L987 293L994 296L1002 296L1004 293L1007 292L1007 294L1013 301L1013 308L1011 313L1013 317z"/></g><g><path class="class-1 leaflet-clickable" stroke-linejoin="round" stroke-linecap="round" fill-rule="evenodd" stroke="#005540" stroke-opacity="1" stroke-width="0.5" fill="#7fd" fill-opacity="0.5" d="M680 303L680 302z"/></g><g><path class="class-1 leaflet-clickable" stroke-linejoin="round" stroke-linecap="round" fill-rule="evenodd" stroke="#005540" stroke-opacity="1" stroke-width="0.5" fill="#7fd" fill-opacity="0.5" d="M1047 185L1049 185L1049 183L1056 184L1066 190L1067 188L1071 188L1071 186L1075 185L1079 178L1088 176L1088 174L1086 174L1087 170L1093 171L1097 176L1100 175L1103 181L1100 182L1100 190L1098 194L1100 200L1095 201L1097 202L1097 206L1091 208L1089 215L1086 216L1087 217L1085 219L1084 224L1083 223L1079 228L1077 228L1077 231L1083 238L1082 242L1080 242L1079 247L1076 250L1073 250L1072 252L1061 252L1053 256L1052 258L1051 257L1050 260L1044 262L1044 264L1038 260L1037 261L1039 262L1035 262L1033 264L1033 268L1035 271L1036 269L1038 269L1045 271L1048 274L1048 276L1044 279L1045 287L1047 287L1049 291L1047 293L1049 292L1051 294L1054 292L1056 294L1051 306L1045 305L1037 309L1034 311L1036 314L1034 314L1034 316L1033 315L1033 317L1028 321L1025 316L1013 319L1011 313L1013 308L1013 301L1007 294L1007 292L1004 293L1002 296L998 297L987 293L984 302L976 302L976 304L974 303L968 306L966 304L963 310L956 305L953 306L953 302L951 303L946 301L943 298L941 291L932 284L921 268L919 264L920 260L913 250L918 245L930 244L933 242L934 239L932 236L933 233L937 230L937 227L942 223L943 225L946 225L952 219L957 220L959 223L964 223L969 230L970 229L976 235L977 239L979 234L977 231L973 231L979 225L980 212L989 210L991 208L998 208L1002 202L1001 201L1003 199L993 191L993 187L995 186L993 184L994 183L987 181L986 182L981 179L981 172L973 172L973 164L975 162L974 161L977 154L980 150L982 152L981 147L986 145L987 146L985 154L989 153L993 148L990 145L991 144L987 136L989 134L1001 136L1000 140L996 143L996 151L993 154L994 160L996 162L1000 144L1002 143L1007 143L1009 145L1008 155L1006 154L1008 158L1004 165L1005 166L1014 166L1019 159L1021 160L1022 157L1020 157L1019 155L1021 151L1027 152L1028 154L1025 157L1026 158L1031 157L1033 159L1033 161L1030 164L1032 165L1028 168L1030 168L1030 170L1026 171L1027 173L1021 173L1009 182L1011 182L1012 184L1010 191L1008 191L1008 193L1005 193L1003 197L1005 197L1008 201L1009 199L1011 199L1012 202L1009 204L1003 204L1002 206L1006 206L1006 210L1009 214L1016 213L1019 218L1024 216L1030 217L1032 216L1031 214L1033 207L1039 210L1043 205L1046 205L1048 201L1050 203L1052 202L1052 194L1046 190L1046 186z"/></g><g><path class="class-1 leaflet-clickable" stroke-linejoin="round" stroke-linecap="round" fill-rule="evenodd" stroke="#005540" stroke-opacity="1" stroke-width="0.5" fill="#7fd" fill-opacity="0.5" d="M0 0"/></g><g><path class="class-1 leaflet-clickable" stroke-linejoin="round" stroke-linecap="round" fill-rule="evenodd" stroke="#005540" stroke-opacity="1" stroke-width="0.5" fill="#7fd" fill-opacity="0.5" d="M0 0"/></g><g><path class="class-1 leaflet-clickable" stroke-linejoin="round" stroke-linecap="round" fill-rule="evenodd" stroke="#005540" stroke-opacity="1" stroke-width="0.5" fill="#7fd" fill-opacity="0.5" d="M0 0"/></g><g><path class="class-1 leaflet-clickable" stroke-linejoin="round" stroke-linecap="round" fill-rule="evenodd" stroke="#005540" stroke-opacity="1" stroke-width="0.5" fill="#7fd" fill-opacity="0.5" d="M782 -162L784 -156L785 -157L784 -152L786 -150L783 -147L780 -148L779 -146L774 -144L763 -145L762 -143L761 -145L759 -143L759 -138L761 -131L766 -127L766 -123L768 -122L766 -120L767 -117L773 -115L774 -110L778 -107L781 -95L778 -92L778 -88L781 -83L780 -82L783 -79L788 -78L777 -61L777 -58L772 -58L768 -56L766 -52L769 -53L769 -50L762 -48L756 -43L753 -46L751 -44L750 -45L751 -51L749 -56L743 -62L731 -62L724 -67L723 -73L719 -78L719 -81L712 -85L705 -86L698 -92L690 -95L690 -106L688 -112L690 -122L693 -122L691 -124L680 -126L679 -128L676 -125L678 -125L677 -122L673 -125L674 -126L672 -128L668 -127L665 -130L663 -130L658 -135L656 -141L649 -150L639 -154L636 -162zM678 -129L679 -129z"/></g><g><path class="class-3 leaflet-clickable" stroke-linejoin="round" stroke-linecap="round" fill-rule="evenodd" stroke="#005540" stroke-opacity="1" stroke-width="0.5" fill="#086" fill-opacity="0.5" d="M1010 -162L1007.5 -162L1008 -160L993 -129L995 -128L995 -126L992 -127L992 -121L994 -121L993 -120L995 -117L996 -107L995 -95L998 -93L998 -91L999 -92L999 -85L1001 -83L1001 -80L997 -76L997 -74L1001 -70L1003 -65L990 -66L990 -68L987 -66L981 -67L977 -71L977 -69L975 -69L977 -65L975 -61L970 -59L964 -45L954 -54L947 -53L942 -49L940 -55L932 -52L928 -53L928 -55L922 -54L922 -56L919 -56L917 -61L917 -59L914 -59L911 -64L909 -64L909 -62L897 -71L894 -67L893 -68L891 -66L893 -64L890 -63L886 -54L888 -52L885 -48L886 -45L885 -46L879 -38L880 -35L877 -31L877 -28L879 -28L876 -27L875 -25L874 -26L873 -24L874 -13L878 -15L869 -7L859 -6L858 -10L854 -11L854 -14L851 -13L851 -16L840 -24L838 -33L834 -35L830 -33L829 -36L826 -37L821 -37L818 -35L817 -37L814 -38L814 -40L807 -50L810 -53L804 -61L807 -63L808 -67L806 -67L807 -69L804 -72L801 -72L801 -74L797 -74L797 -77L800 -79L798 -81L794 -81L793 -79L786 -81L785 -79L783 -79L780 -81L781 -83L780 -87L778 -88L778 -92L781 -95L778 -106L775 -108L773 -112L774 -113L771 -117L767 -117L766 -119L768 -122L766 -123L766 -127L760 -134L759 -143L761 -145L762 -143L772 -143L779 -146L779 -148L783 -147L786 -150L784 -152L785 -156L782 -162z"/></g><g><path class="class-2 leaflet-clickable" stroke-linejoin="round" stroke-linecap="round" fill-rule="evenodd" stroke="#005540" stroke-opacity="1" stroke-width="0.5" fill="#00cc99" fill-opacity="0.5" d="M1004 -65L1006 -63L1018 -59L1021 -46L1023 -43L1019 -35L1021 -16L1014 -5L1020 2L1020 4L1017 2L1014 3L1014 6L1012 8L1031 31L1039 33L1041 35L1050 19L1052 22L1050 23L1050 25L1055 27L1058 37L1059 50L1049 54L1042 52L1040 49L1040 51L1037 49L1036 51L1033 49L1031 52L1025 52L1024 50L1018 51L1012 58L1009 59L1010 62L1006 67L1005 65L997 71L998 83L996 85L997 87L1000 88L998 92L997 90L995 91L995 93L987 99L985 103L984 113L982 116L982 125L985 127L986 132L984 134L981 133L978 135L978 142L975 145L976 149L974 151L973 150L967 153L968 154L964 152L960 148L959 143L956 144L954 142L955 140L953 139L951 139L951 141L945 147L944 142L941 139L942 137L949 135L949 132L945 130L944 124L930 125L928 119L925 116L917 117L915 115L916 110L912 106L910 95L907 92L905 92L904 95L903 93L901 77L905 79L905 77L901 75L903 73L898 69L899 65L892 55L891 56L884 54L883 57L875 58L871 52L873 51L873 49L869 46L867 39L860 31L857 32L855 27L852 27L851 22L847 20L848 10L844 6L846 6L844 1L847 -3L845 -4L846 -6L848 -5L855 -9L854 -11L857 -10L859 -6L869 -6L871 -10L878 -14L874 -13L873 -24L874 -26L875 -25L879 -28L877 -28L877 -31L880 -35L879 -38L883 -44L885 -46L886 -45L885 -48L888 -52L886 -54L888 -56L889 -63L893 -64L891 -66L893 -68L894 -67L897 -71L907 -63L909 -62L908 -64L910 -64L912 -61L917 -59L917 -61L919 -56L922 -56L922 -54L928 -55L929 -52L932 -52L940 -55L942 -49L949 -54L953 -54L964 -45L967 -49L970 -59L975 -61L977 -65L975 -69L977 -69L977 -71L981 -67L987 -66L990 -68L990 -66L996 -66z"/></g><g><path class="class-1 leaflet-clickable" stroke-linejoin="round" stroke-linecap="round" fill-rule="evenodd" stroke="#005540" stroke-opacity="1" stroke-width="0.5" fill="#7fd" fill-opacity="0.5" d="M751 -44L753 -46L756 -43L762 -49L768 -49L768 -51L770 -52L766 -52L768 -56L772 -58L777 -58L779 -65L783 -69L782 -70L788 -78L785 -78L787 -81L793 -79L793 -81L797 -81L800 -79L797 -74L804 -72L807 -69L806 -67L808 -67L805 -61L810 -54L807 -50L814 -40L814 -38L817 -37L818 -35L821 -37L826 -37L830 -33L832 -35L838 -34L841 -28L840 -24L851 -16L851 -13L855 -13L855 -9L845 -5L847 -2L844 1L846 6L844 6L848 10L847 20L850 21L852 26L857 29L857 32L860 31L868 42L869 46L873 49L873 51L871 52L875 57L879 58L882 57L884 54L891 56L892 55L899 65L898 69L903 73L901 75L905 77L905 79L901 77L904 95L905 92L907 92L910 95L912 101L911 104L916 110L915 115L917 117L924 116L926 118L926 120L922 124L923 128L921 133L921 137L925 144L923 146L920 146L914 142L912 144L914 148L911 147L905 136L896 129L884 115L879 113L880 111L876 107L877 106L866 92L864 92L858 80L847 69L809 41L805 33L802 31L798 22L787 9L782 6L771 4L761 0L753 -9L745 -10L742 -26L751 -44z"/></g></svg>