<svg xmlns="http://www.w3.org/2000/svg" class="leaflet-zoom-animated" width="2000" height="841" viewBox="-316 -133 2000 841" style="transform: translate3d(-316px, -133px, 0px);"><g><path class="class-3 leaflet-clickable" stroke-linejoin="round" stroke-linecap="round" fill-rule="evenodd" stroke="#005540" stroke-opacity="1" stroke-width="0.5" fill="#086" fill-opacity="0.5" d="M913 470L916 473L917 472L917 474L921 476L920 477L925 481L930 483L931 488L937 491L936 498L907 498L896 518L899 522L896 527L897 531L895 535L867 507L859 501L854 500L852 496L854 495L854 492L852 489L858 473L866 466L866 464L870 460L869 458L872 453L875 455L875 457L877 457L876 459L879 465L880 464L882 466L881 467L882 466L884 468L888 463L893 462L892 461L898 458L898 456L901 454L904 455L904 459L908 460L908 466L913 467L914 470z"/></g><g><path class="class-3 leaflet-clickable" stroke-linejoin="round" stroke-linecap="round" fill-rule="evenodd" stroke="#005540" stroke-opacity="1" stroke-width="0.5" fill="#086" fill-opacity="0.5" d="M858 473L852 489L854 492L853 496L855 500L849 497L839 495L827 496L822 501L818 501L808 506L807 505L804 508L795 508L786 505L783 502L769 501L759 494L752 493L756 490L755 487L760 485L759 484L762 481L762 477L764 475L759 474L758 470L757 471L757 464L753 460L754 456L758 454L759 455L761 453L765 453L768 455L770 452L769 451L768 453L767 448L772 445L774 452L781 448L786 449L793 443L794 437L800 440L805 449L813 449L814 454L812 459L816 463L819 464L825 459L827 459L828 460L826 462L830 467L835 470L834 471L853 473z"/></g><g><path class="class-3 leaflet-clickable" stroke-linejoin="round" stroke-linecap="round" fill-rule="evenodd" stroke="#005540" stroke-opacity="1" stroke-width="0.5" fill="#086" fill-opacity="0.5" d="M793 443L789 447L784 449L781 448L776 452L774 452L772 446L768 446L768 453L770 451L771 452L769 452L766 455L764 453L760 453L760 455L755 456L754 453L750 454L740 446L740 444L743 441L748 442L747 434L750 428L749 417L751 417L760 426L763 423L766 425L768 422L772 421L769 417L766 416L767 415L765 413L763 413L763 411L758 412L759 411L757 408L762 401L760 398L757 398L760 397L766 390L767 384L770 385L770 389L774 392L769 395L771 397L770 400L774 402L777 398L783 401L777 416L779 418L778 419L787 422L785 424L786 425L782 424L779 437L780 436L785 441L789 439L793 443z"/></g><g><path class="class-3 leaflet-clickable" stroke-linejoin="round" stroke-linecap="round" fill-rule="evenodd" stroke="#005540" stroke-opacity="1" stroke-width="0.5" fill="#086" fill-opacity="0.5" d="M749 417L748 414L754 414L757 412L756 411L762 411L767 415L767 417L769 417L772 420L771 422L768 421L766 424L763 423L760 426L753 420L752 417L750 418z"/></g><g><path class="class-2 leaflet-clickable" stroke-linejoin="round" stroke-linecap="round" fill-rule="evenodd" stroke="#005540" stroke-opacity="1" stroke-width="0.5" fill="#00cc99" fill-opacity="0.5" d="M769 349L771 357L779 366L777 372L778 378L785 392L792 398L799 407L802 419L807 424L807 426L810 427L812 432L817 435L826 435L836 440L843 449L852 447L853 456L861 460L863 463L863 470L861 470L858 473L834 472L835 470L830 467L826 462L828 460L827 459L825 459L819 464L816 464L812 459L814 454L813 449L805 449L806 448L805 449L803 447L798 438L794 437L793 444L791 440L787 439L785 441L782 437L779 436L781 431L780 428L787 422L778 419L779 418L777 416L777 414L780 411L780 407L784 401L777 398L774 402L770 400L771 397L769 395L770 393L771 394L774 392L771 391L769 384L767 384L766 390L764 391L762 388L761 391L756 395L751 396L752 395L750 392L753 390L754 387L752 388L756 383L756 385L758 385L759 380L761 378L757 376L758 375L755 376L752 373L753 370L752 371L749 365L754 361L751 356L753 357L754 353L757 350L749 346L755 346L758 344L764 347L767 351L768 349z"/></g><g><path class="class-2 leaflet-clickable" stroke-linejoin="round" stroke-linecap="round" fill-rule="evenodd" stroke="#005540" stroke-opacity="1" stroke-width="0.5" fill="#00cc99" fill-opacity="0.5" d="M364 197L363 197z"/></g><g><path class="class-2 leaflet-clickable" stroke-linejoin="round" stroke-linecap="round" fill-rule="evenodd" stroke="#005540" stroke-opacity="1" stroke-width="0.5" fill="#00cc99" fill-opacity="0.5" d="M372 195L374 201L373 204L369 202L372 199L372 196z"/></g><g><path class="class-2 leaflet-clickable" stroke-linejoin="round" stroke-linecap="round" fill-rule="evenodd" stroke="#005540" stroke-opacity="1" stroke-width="0.5" fill="#00cc99" fill-opacity="0.5" d="M425 187L428 189L427 190L426 188z"/></g><g><path class="class-2 leaflet-clickable" stroke-linejoin="round" stroke-linecap="round" fill-rule="evenodd" stroke="#005540" stroke-opacity="1" stroke-width="0.5" fill="#00cc99" fill-opacity="0.5" d="M411 176L411 177z"/></g><g><path class="class-2 leaflet-clickable" stroke-linejoin="round" stroke-linecap="round" fill-rule="evenodd" stroke="#005540" stroke-opacity="1" stroke-width="0.5" fill="#00cc99" fill-opacity="0.5" d="M411 165L414 167L414 170L416 172L419 171L419 179L409 168L410 165z"/></g><g><path class="class-2 leaflet-clickable" stroke-linejoin="round" stroke-linecap="round" fill-rule="evenodd" stroke="#005540" stroke-opacity="1" stroke-width="0.5" fill="#00cc99" fill-opacity="0.5" d="M301 174L303 177L302 182L300 177L301 174z"/></g><g><path class="class-2 leaflet-clickable" stroke-linejoin="round" stroke-linecap="round" fill-rule="evenodd" stroke="#005540" stroke-opacity="1" stroke-width="0.5" fill="#00cc99" fill-opacity="0.5" d="M390 153L390 154z"/></g><g><path class="class-2 leaflet-clickable" stroke-linejoin="round" stroke-linecap="round" fill-rule="evenodd" stroke="#005540" stroke-opacity="1" stroke-width="0.5" fill="#00cc99" fill-opacity="0.5" d="M383 112L383 112z"/></g><g><path class="class-2 leaflet-clickable" stroke-linejoin="round" stroke-linecap="round" fill-rule="evenodd" stroke="#005540" stroke-opacity="1" stroke-width="0.5" fill="#00cc99" fill-opacity="0.5" d="M383 105L385 107L384 108L382 108L382 105z"/></g><g><path class="class-2 leaflet-clickable" stroke-linejoin="round" stroke-linecap="round" fill-rule="evenodd" stroke="#005540" stroke-opacity="1" stroke-width="0.5" fill="#00cc99" fill-opacity="0.5" d="M381 86L378 88L376 93L378 95L378 102L381 103L382 105L382 110L380 113L380 123L384 129L384 137L386 142L385 149L391 157L391 159L394 159L408 172L411 182L413 180L415 184L418 184L420 191L426 195L425 197L427 199L427 205L395 205L398 201L397 198L399 194L397 190L392 186L392 184L389 181L387 181L386 177L383 176L383 174L361 159L362 157L359 153L359 146L353 140L354 134L348 127L347 128L346 119L339 112L340 109L338 106L339 107L340 104L334 99L334 96L329 88L329 85L383 80L381 86z"/></g><g><path class="class-1 leaflet-clickable" stroke-linejoin="round" stroke-linecap="round" fill-rule="evenodd" stroke="#005540" stroke-opacity="1" stroke-width="0.5" fill="#7fd" fill-opacity="0.5" d="M924 457L924 470L913 470L914 467L908 465L909 462L905 459L905 455L901 455L894 460L893 459L893 461L891 463L887 463L887 465L884 468L882 466L881 467L882 466L880 464L878 464L876 459L877 456L875 456L876 455L873 453L870 454L870 460L866 464L864 469L862 467L864 463L862 463L858 458L853 456L854 452L852 448L868 442L881 442L884 440L884 438L889 437L892 442L896 442L897 449L900 450L901 452L909 456L909 450L912 448L912 450L918 453L924 453L924 455z"/></g><g><path class="class-1 leaflet-clickable" stroke-linejoin="round" stroke-linecap="round" fill-rule="evenodd" stroke="#005540" stroke-opacity="1" stroke-width="0.5" fill="#7fd" fill-opacity="0.5" d="M634 238L642 241L644 249L642 252L643 261L639 268L643 272L640 272L639 275L645 281L644 282L651 287L653 287L658 279L662 294L661 296L658 297L654 297L653 295L643 295L631 306L632 315L630 315L630 317L627 319L624 326L623 331L625 336L621 337L621 344L616 347L612 342L610 342L610 340L608 340L606 343L604 341L603 339L607 337L604 333L605 332L597 332L595 328L592 329L590 327L588 322L589 321L586 316L584 317L583 308L585 309L583 307L582 302L577 297L574 297L574 299L570 299L566 289L556 280L554 271L556 269L555 268L560 265L559 264L562 267L566 267L571 263L569 264L569 258L572 257L571 254L576 246L578 236L579 237L581 234L583 237L584 236L587 239L588 238L594 243L602 243L603 245L609 243L614 247L622 235L626 237L631 237z"/></g><g><path class="class-1 leaflet-clickable" stroke-linejoin="round" stroke-linecap="round" fill-rule="evenodd" stroke="#005540" stroke-opacity="1" stroke-width="0.5" fill="#7fd" fill-opacity="0.5" d="M1006 443L1007 440L1007 442z"/></g><g><path class="class-1 leaflet-clickable" stroke-linejoin="round" stroke-linecap="round" fill-rule="evenodd" stroke="#005540" stroke-opacity="1" stroke-width="0.5" fill="#7fd" fill-opacity="0.5" d="M1008 435L1008 437L1008 435z"/></g><g><path class="class-1 leaflet-clickable" stroke-linejoin="round" stroke-linecap="round" fill-rule="evenodd" stroke="#005540" stroke-opacity="1" stroke-width="0.5" fill="#7fd" fill-opacity="0.5" d="M1020 391L1014 398L1014 394L1016 391L1021 390z"/></g><g><path class="class-1 leaflet-clickable" stroke-linejoin="round" stroke-linecap="round" fill-rule="evenodd" stroke="#005540" stroke-opacity="1" stroke-width="0.5" fill="#7fd" fill-opacity="0.5" d="M965 454L964 450L966 449L966 425L965 418L962 415L965 413L966 414L966 412L968 412L968 410L973 407L973 405L976 404L977 401L980 401L982 398L988 397L992 394L999 386L1002 380L1002 368L1009 370L1012 369L1013 366L1018 373L1018 370L1019 371L1019 379L1016 385L1004 399L1004 409L1003 410L1004 406L1003 409L997 412L999 416L1004 413L1005 414L1004 418L999 420L999 424L1002 421L1004 421L1002 423L994 449L991 449L991 443L986 443L986 441L980 441L978 447L975 449L972 455L968 452L966 454z"/></g><g><path class="class-1 leaflet-clickable" stroke-linejoin="round" stroke-linecap="round" fill-rule="evenodd" stroke="#005540" stroke-opacity="1" stroke-width="0.5" fill="#7fd" fill-opacity="0.5" d="M1012 365L1010 367L1005 368L1007 366L1011 366z"/></g><g><path class="class-1 leaflet-clickable" stroke-linejoin="round" stroke-linecap="round" fill-rule="evenodd" stroke="#005540" stroke-opacity="1" stroke-width="0.5" fill="#7fd" fill-opacity="0.5" d="M577 371L576 371z"/></g><g><path class="class-1 leaflet-clickable" stroke-linejoin="round" stroke-linecap="round" fill-rule="evenodd" stroke="#005540" stroke-opacity="1" stroke-width="0.5" fill="#7fd" fill-opacity="0.5" d="M572 368L574 369L573 370L571 368z"/></g><g><path class="class-1 leaflet-clickable" stroke-linejoin="round" stroke-linecap="round" fill-rule="evenodd" stroke="#005540" stroke-opacity="1" stroke-width="0.5" fill="#7fd" fill-opacity="0.5" d="M567 363L569 363L570 366L568 366L567 364z"/></g><g><path class="class-1 leaflet-clickable" stroke-linejoin="round" stroke-linecap="round" fill-rule="evenodd" stroke="#005540" stroke-opacity="1" stroke-width="0.5" fill="#7fd" fill-opacity="0.5" d="M567 361L566 362z"/></g><g><path class="class-1 leaflet-clickable" stroke-linejoin="round" stroke-linecap="round" fill-rule="evenodd" stroke="#005540" stroke-opacity="1" stroke-width="0.5" fill="#7fd" fill-opacity="0.5" d="M619 346L621 347L619 356L623 356L624 360L628 361L630 363L629 366L634 370L631 373L632 374L622 376L623 381L619 385L622 387L622 389L611 380L602 382L599 388L597 386L592 386L600 376L600 367L599 368L594 364L590 356L590 349L587 343L588 342L588 344L590 341L595 343L593 339L593 333L596 329L597 332L605 332L604 333L607 337L603 339L605 343L609 340L614 344L615 347L619 345z"/></g><g><path class="class-1 leaflet-clickable" stroke-linejoin="round" stroke-linecap="round" fill-rule="evenodd" stroke="#005540" stroke-opacity="1" stroke-width="0.5" fill="#7fd" fill-opacity="0.5" d="M742 427L745 430L749 428L747 434L748 441L747 442L745 440L740 444L734 441L730 436L735 425L742 427z"/></g><g><path class="class-1 leaflet-clickable" stroke-linejoin="round" stroke-linecap="round" fill-rule="evenodd" stroke="#005540" stroke-opacity="1" stroke-width="0.5" fill="#7fd" fill-opacity="0.5" d="M937 384L937 391L941 391L942 394L945 393L950 397L949 398L955 404L958 412L965 418L965 457L924 457L924 453L914 451L911 449L912 448L909 451L909 455L897 449L897 444L893 442L890 438L893 436L901 436L904 438L921 428L930 420L930 412L936 405L935 391L937 384z"/></g><g><path class="class-1 leaflet-clickable" stroke-linejoin="round" stroke-linecap="round" fill-rule="evenodd" stroke="#005540" stroke-opacity="1" stroke-width="0.5" fill="#7fd" fill-opacity="0.5" d="M1002 368L1002 380L999 386L988 398L982 398L976 404L974 404L973 407L971 407L972 408L966 414L965 413L962 415L959 413L955 407L955 404L952 400L950 400L946 393L943 394L938 391L937 384L939 379L949 374L975 370L979 367L984 367L987 365L1002 368z"/></g><g><path class="class-1 leaflet-clickable" stroke-linejoin="round" stroke-linecap="round" fill-rule="evenodd" stroke="#005540" stroke-opacity="1" stroke-width="0.5" fill="#7fd" fill-opacity="0.5" d="M952 341L955 342L956 344L954 346L951 343L952 341z"/></g><g><path class="class-1 leaflet-clickable" stroke-linejoin="round" stroke-linecap="round" fill-rule="evenodd" stroke="#005540" stroke-opacity="1" stroke-width="0.5" fill="#7fd" fill-opacity="0.5" d="M676 355L675 356L677 358L672 359L668 364L664 364L658 361L655 362L653 360L658 352L658 348L664 347L666 345L670 347L669 348L672 348L672 352L676 355z"/></g><g><path class="class-1 leaflet-clickable" stroke-linejoin="round" stroke-linecap="round" fill-rule="evenodd" stroke="#005540" stroke-opacity="1" stroke-width="0.5" fill="#7fd" fill-opacity="0.5" d="M383 444L383 444z"/></g><g><path class="class-1 leaflet-clickable" stroke-linejoin="round" stroke-linecap="round" fill-rule="evenodd" stroke="#005540" stroke-opacity="1" stroke-width="0.5" fill="#7fd" fill-opacity="0.5" d="M468 432L470 434L469 435L467 433L468 432z"/></g><g><path class="class-1 leaflet-clickable" stroke-linejoin="round" stroke-linecap="round" fill-rule="evenodd" stroke="#005540" stroke-opacity="1" stroke-width="0.5" fill="#7fd" fill-opacity="0.5" d="M639 429L633 436L619 426L612 424L613 425L616 422L617 423L625 421L624 420L626 416L631 419L635 416L639 420L639 429z"/></g><g><path class="class-1 leaflet-clickable" stroke-linejoin="round" stroke-linecap="round" fill-rule="evenodd" stroke="#005540" stroke-opacity="1" stroke-width="0.5" fill="#7fd" fill-opacity="0.5" d="M472 422L472 421z"/></g><g><path class="class-0 leaflet-clickable" stroke-linejoin="round" stroke-linecap="round" fill-rule="evenodd" stroke="#005540" stroke-opacity="1" stroke-width="0.5" fill="#ddfff6" fill-opacity="0.5" d="M495 302L493 302L493 297L495 301z"/></g><g><path class="class-0 leaflet-clickable" stroke-linejoin="round" stroke-linecap="round" fill-rule="evenodd" stroke="#005540" stroke-opacity="1" stroke-width="0.5" fill="#ddfff6" fill-opacity="0.5" d="M483 293L483 296L482 293z"/></g><g><path class="class-0 leaflet-clickable" stroke-linejoin="round" stroke-linecap="round" fill-rule="evenodd" stroke="#005540" stroke-opacity="1" stroke-width="0.5" fill="#ddfff6" fill-opacity="0.5" d="M482 291L482 292z"/></g><g><path class="class-0 leaflet-clickable" stroke-linejoin="round" stroke-linecap="round" fill-rule="evenodd" stroke="#005540" stroke-opacity="1" stroke-width="0.5" fill="#ddfff6" fill-opacity="0.5" d="M475 279L478 281L479 284L475 280z"/></g><g><path class="class-0 leaflet-clickable" stroke-linejoin="round" stroke-linecap="round" fill-rule="evenodd" stroke="#005540" stroke-opacity="1" stroke-width="0.5" fill="#ddfff6" fill-opacity="0.5" d="M475 273L474 275L475 273z"/></g><g><path class="class-0 leaflet-clickable" stroke-linejoin="round" stroke-linecap="round" fill-rule="evenodd" stroke="#005540" stroke-opacity="1" stroke-width="0.5" fill="#ddfff6" fill-opacity="0.5" d="M473 263L474 266L473 264z"/></g><g><path class="class-0 leaflet-clickable" stroke-linejoin="round" stroke-linecap="round" fill-rule="evenodd" stroke="#005540" stroke-opacity="1" stroke-width="0.5" fill="#ddfff6" fill-opacity="0.5" d="M467 263L467 265L467 263z"/></g><g><path class="class-0 leaflet-clickable" stroke-linejoin="round" stroke-linecap="round" fill-rule="evenodd" stroke="#005540" stroke-opacity="1" stroke-width="0.5" fill="#ddfff6" fill-opacity="0.5" d="M467 254L467 256L465 256L463 260L464 261L463 258L464 255L466 255z"/></g><g><path class="class-0 leaflet-clickable" stroke-linejoin="round" stroke-linecap="round" fill-rule="evenodd" stroke="#005540" stroke-opacity="1" stroke-width="0.5" fill="#ddfff6" fill-opacity="0.5" d="M462 252L462 252z"/></g><g><path class="class-0 leaflet-clickable" stroke-linejoin="round" stroke-linecap="round" fill-rule="evenodd" stroke="#005540" stroke-opacity="1" stroke-width="0.5" fill="#ddfff6" fill-opacity="0.5" d="M444 224L444 226L443 224z"/></g><g><path class="class-0 leaflet-clickable" stroke-linejoin="round" stroke-linecap="round" fill-rule="evenodd" stroke="#005540" stroke-opacity="1" stroke-width="0.5" fill="#ddfff6" fill-opacity="0.5" d="M447 219L446 219z"/></g><g><path class="class-0 leaflet-clickable" stroke-linejoin="round" stroke-linecap="round" fill-rule="evenodd" stroke="#005540" stroke-opacity="1" stroke-width="0.5" fill="#ddfff6" fill-opacity="0.5" d="M373 208L373 208z"/></g><g><path class="class-0 leaflet-clickable" stroke-linejoin="round" stroke-linecap="round" fill-rule="evenodd" stroke="#005540" stroke-opacity="1" stroke-width="0.5" fill="#ddfff6" fill-opacity="0.5" d="M395 205L428 205L430 212L438 218L441 224L440 225L447 229L445 230L445 232L447 234L449 233L452 235L455 241L458 243L457 244L461 254L461 262L466 268L468 268L469 274L476 285L474 293L477 300L483 302L483 298L486 298L491 302L491 305L495 306L495 308L498 311L498 314L503 317L504 324L500 329L491 334L488 330L486 320L482 316L478 314L466 302L456 297L451 298L441 290L441 287L438 286L443 274L443 261L437 250L430 248L415 236L413 235L410 238L403 231L399 231L396 227L392 227L389 224L388 220L375 209L376 208L388 211L394 208L395 206z"/></g><g><path class="class-0 leaflet-clickable" stroke-linejoin="round" stroke-linecap="round" fill-rule="evenodd" stroke="#005540" stroke-opacity="1" stroke-width="0.5" fill="#ddfff6" fill-opacity="0.5" d="M742 427L738 427L733 423L738 414L742 421L742 426z"/></g><g><path class="class-0 leaflet-clickable" stroke-linejoin="round" stroke-linecap="round" fill-rule="evenodd" stroke="#005540" stroke-opacity="1" stroke-width="0.5" fill="#ddfff6" fill-opacity="0.5" d="M508 248L512 248L517 244L518 241L522 239L526 229L532 230L531 233L533 233L536 236L536 245L542 253L551 253L553 256L552 258L558 262L558 264L560 264L557 267L555 267L556 270L554 271L556 275L556 280L558 280L561 286L566 289L569 295L568 296L571 299L574 299L574 297L580 299L582 305L585 308L583 308L584 316L587 317L589 321L588 322L590 324L590 328L596 329L593 333L593 340L594 339L595 342L594 343L590 341L589 344L571 325L570 321L564 315L559 307L541 294L525 274L512 269L509 265L505 265L503 257L508 248z"/></g><g><path class="class-1 leaflet-clickable" stroke-linejoin="round" stroke-linecap="round" fill-rule="evenodd" stroke="#005540" stroke-opacity="1" stroke-width="0.5" fill="#7fd" fill-opacity="0.5" d="M433 186L432 188L432 186z"/></g><g><path class="class-1 leaflet-clickable" stroke-linejoin="round" stroke-linecap="round" fill-rule="evenodd" stroke="#005540" stroke-opacity="1" stroke-width="0.5" fill="#7fd" fill-opacity="0.5" d="M439 173L441 179L438 186L433 182L434 175L438 173z"/></g><g><path class="class-1 leaflet-clickable" stroke-linejoin="round" stroke-linecap="round" fill-rule="evenodd" stroke="#005540" stroke-opacity="1" stroke-width="0.5" fill="#7fd" fill-opacity="0.5" d="M384 106L386 106L385 107z"/></g><g><path class="class-1 leaflet-clickable" stroke-linejoin="round" stroke-linecap="round" fill-rule="evenodd" stroke="#005540" stroke-opacity="1" stroke-width="0.5" fill="#7fd" fill-opacity="0.5" d="M381 86L461 115L466 118L519 118L518 120L516 120L517 123L520 125L519 126L521 126L518 126L518 129L515 129L515 132L517 135L516 136L523 141L522 144L524 145L522 145L522 158L524 158L524 160L521 160L522 166L520 168L520 182L523 186L525 196L513 198L512 202L516 209L515 210L519 213L521 217L523 222L521 224L524 231L527 231L521 239L521 241L519 241L516 244L516 246L508 248L508 244L506 241L501 238L496 238L492 229L484 227L480 223L477 223L478 209L476 207L475 208L471 206L471 208L469 208L469 206L463 204L457 195L453 193L447 186L448 184L441 180L441 173L439 170L438 171L436 169L437 167L433 162L431 156L428 155L428 148L420 134L421 122L415 119L408 118L408 114L403 110L395 113L386 106L379 103L377 96L378 95L376 93L378 91L378 87L381 87zM472 205L472 206z"/></g><g><path class="class-2 leaflet-clickable" stroke-linejoin="round" stroke-linecap="round" fill-rule="evenodd" stroke="#005540" stroke-opacity="1" stroke-width="0.5" fill="#00cc99" fill-opacity="0.5" d="M643 179L635 191L636 192L630 202L630 207L629 206L628 209L630 209L630 223L632 224L633 229L631 234L634 236L634 238L622 235L620 236L621 237L614 247L610 243L604 245L602 243L597 244L596 242L595 243L589 240L588 238L587 239L584 236L583 237L581 234L580 237L578 237L579 238L576 242L576 246L571 253L572 257L569 258L569 264L571 262L567 267L563 267L552 258L553 257L550 252L542 253L540 251L536 245L536 237L533 233L531 233L531 229L525 231L523 230L524 229L523 230L523 227L521 225L523 222L521 219L522 217L520 216L519 212L515 210L517 209L512 202L512 198L525 196L525 192L520 181L521 176L519 174L519 172L521 172L520 168L522 166L521 160L524 159L522 157L522 145L524 146L521 138L517 137L515 133L515 130L518 129L518 126L521 126L519 126L520 125L517 123L518 121L516 121L519 118L532 118L532 106L535 105L572 106L577 113L580 116L582 116L593 128L603 135L605 135L605 137L607 137L608 143L612 148L612 156L615 159L615 161L619 165L623 166L622 167L625 170L632 172L643 179z"/></g><g><path class="class-1 leaflet-clickable" stroke-linejoin="round" stroke-linecap="round" fill-rule="evenodd" stroke="#005540" stroke-opacity="1" stroke-width="0.5" fill="#7fd" fill-opacity="0.5" d="M656 362L658 361L666 365L676 358L677 357L675 357L677 355L679 355L684 361L682 361L683 362L681 367L683 370L681 370L681 372L678 374L678 376L671 385L674 388L671 394L669 396L663 396L654 402L653 400L649 402L649 405L651 404L656 407L656 409L654 410L657 415L656 416L661 417L658 423L656 422L652 424L647 430L645 428L639 429L639 421L635 416L631 419L626 416L624 421L617 423L616 422L613 425L609 423L609 421L608 422L605 420L603 415L601 415L593 404L589 394L597 392L599 390L598 388L600 385L601 386L603 382L608 380L615 382L622 390L621 385L619 385L623 381L622 376L632 374L631 373L634 370L629 365L630 363L628 361L624 361L623 357L619 355L621 347L623 345L624 346L623 343L626 344L625 347L629 344L626 339L627 337L633 339L633 341L630 342L631 343L629 347L631 351L631 347L634 341L637 343L634 352L635 353L639 353L641 350L643 350L642 347L644 345L646 347L645 348L649 350L647 356L643 356L639 360L637 360L639 362L638 365L634 367L634 369L638 369L639 371L634 373L636 373L637 377L647 379L649 374L652 375L656 371L657 372L659 368L655 365L656 363z"/></g><g><path class="class-3 leaflet-clickable" stroke-linejoin="round" stroke-linecap="round" fill-rule="evenodd" stroke="#005540" stroke-opacity="1" stroke-width="0.5" fill="#086" fill-opacity="0.5" d="M764 392L760 397L757 398L761 399L761 401L757 407L759 410L756 411L757 412L755 414L749 414L750 409L747 407L743 407L742 409L741 406L743 404L741 403L741 405L738 404L736 408L734 408L733 410L733 408L730 405L730 400L727 401L722 398L722 391L727 390L729 388L733 379L732 378L740 376L742 372L743 375L749 376L749 372L753 370L752 373L755 376L758 375L757 376L759 376L761 379L758 383L759 385L754 384L751 388L753 387L751 396L756 395L762 389L764 391z"/></g><g><path class="class-1 leaflet-clickable" stroke-linejoin="round" stroke-linecap="round" fill-rule="evenodd" stroke="#005540" stroke-opacity="1" stroke-width="0.5" fill="#7fd" fill-opacity="0.5" d="M769 349L767 351L759 344L757 344L756 346L749 345L747 347L740 345L738 346L730 337L729 341L726 339L722 339L721 337L716 337L718 335L716 332L718 330L716 328L717 323L715 323L717 321L720 322L719 317L722 312L728 312L730 309L730 307L726 303L728 296L725 294L725 292L729 291L730 288L734 286L736 287L738 283L737 281L740 278L743 279L754 270L751 269L751 255L745 255L743 257L741 253L738 255L737 249L735 250L731 247L732 241L726 239L728 234L724 233L726 229L724 219L720 218L720 216L725 213L729 216L731 230L735 234L739 246L741 245L743 247L748 248L748 250L754 250L759 255L772 255L777 260L779 259L778 258L783 257L783 263L776 276L771 294L769 336L767 339L768 348z"/></g><g><path class="class-0 leaflet-clickable" stroke-linejoin="round" stroke-linecap="round" fill-rule="evenodd" stroke="#005540" stroke-opacity="1" stroke-width="0.5" fill="#ddfff6" fill-opacity="0.5" d="M722 211L725 213L720 216L720 218L724 219L726 228L724 233L728 234L726 238L732 241L731 247L735 250L737 249L738 255L741 253L743 257L745 255L751 255L751 269L754 269L744 279L740 278L737 281L737 287L734 286L730 288L729 291L725 292L725 294L727 294L728 296L726 303L731 309L728 312L722 312L719 317L720 322L717 321L715 323L717 323L716 325L713 325L714 323L712 323L711 325L710 324L711 327L708 326L708 313L706 310L707 304L704 302L705 297L700 292L700 285L702 283L700 282L700 277L702 275L713 276L713 274L709 273L704 268L706 268L701 265L698 254L691 247L701 237L703 240L704 239L706 235L706 229L700 229L699 226L703 222L709 220L710 213L714 210L718 214L720 213z"/></g><g><path class="class-0 leaflet-clickable" stroke-linejoin="round" stroke-linecap="round" fill-rule="evenodd" stroke="#005540" stroke-opacity="1" stroke-width="0.5" fill="#ddfff6" fill-opacity="0.5" d="M722 211L718 215L714 210L710 213L709 220L703 222L699 226L700 229L706 229L706 235L704 239L703 240L701 237L691 247L700 258L699 261L703 267L706 268L704 268L708 271L708 273L713 273L713 276L702 275L700 277L700 281L702 283L700 285L699 292L697 293L689 286L683 288L681 286L682 285L668 278L662 278L663 281L658 279L653 288L644 282L645 281L639 275L639 273L641 271L642 272L639 268L643 262L642 252L644 249L642 241L634 238L634 236L631 233L633 230L629 210L630 209L628 209L628 206L630 206L630 203L636 192L635 191L643 179L647 180L648 177L652 173L653 174L652 172L654 170L655 164L659 159L663 159L666 156L677 159L685 158L687 162L689 162L689 164L690 163L690 165L703 176L707 188L711 193L710 194L722 210z"/></g><g><path class="class-1 leaflet-clickable" stroke-linejoin="round" stroke-linecap="round" fill-rule="evenodd" stroke="#005540" stroke-opacity="1" stroke-width="0.5" fill="#7fd" fill-opacity="0.5" d="M700 292L702 295L697 299L695 297L694 301L692 302L691 308L686 313L678 320L673 322L670 322L668 320L666 323L668 323L666 325L670 336L674 340L676 339L676 342L678 344L681 343L685 337L688 338L687 339L689 343L687 344L686 348L688 350L688 355L685 359L684 360L683 358L676 355L672 352L672 348L671 349L666 345L664 347L658 348L658 352L653 359L656 363L656 366L659 368L658 371L656 371L652 375L649 374L649 378L647 379L643 379L636 376L634 372L638 371L638 369L634 369L634 367L638 365L639 362L637 360L647 355L649 350L647 348L646 349L644 345L642 347L643 350L641 350L640 353L634 352L637 349L637 344L636 342L634 342L632 343L631 351L629 347L631 343L630 342L633 341L633 339L630 337L626 338L629 343L626 347L626 343L624 343L622 347L620 346L621 338L625 336L623 331L626 319L631 315L632 316L631 306L635 302L637 302L637 299L639 299L641 295L653 295L656 297L661 296L662 291L658 283L658 280L663 281L662 278L671 279L676 281L678 284L682 285L681 286L683 288L689 286L692 288L693 291L697 293L700 292z"/></g><g><path class="class-2 leaflet-clickable" stroke-linejoin="round" stroke-linecap="round" fill-rule="evenodd" stroke="#005540" stroke-opacity="1" stroke-width="0.5" fill="#00cc99" fill-opacity="0.5" d="M716 325L718 329L716 331L718 335L716 337L721 337L729 341L730 337L738 346L751 346L757 350L751 357L753 357L753 361L749 365L752 368L752 370L748 372L750 372L749 376L745 376L742 372L739 373L737 364L732 370L730 370L726 366L724 366L724 368L721 369L712 363L710 363L708 367L704 368L700 366L697 362L684 360L688 355L688 351L686 348L689 344L687 339L688 338L685 337L683 341L682 340L681 343L678 344L676 342L676 339L674 340L669 335L667 330L668 328L666 325L668 323L666 323L668 320L670 322L678 320L691 308L691 302L694 301L695 296L697 299L702 295L705 296L704 301L707 303L707 326L710 327L710 324L711 325L712 323L714 323L713 325L715 325z"/></g><g><path class="class-2 leaflet-clickable" stroke-linejoin="round" stroke-linecap="round" fill-rule="evenodd" stroke="#005540" stroke-opacity="1" stroke-width="0.5" fill="#00cc99" fill-opacity="0.5" d="M724 368L723 371L724 373L726 373L722 376L718 375L719 376L717 382L708 382L705 385L707 393L711 398L709 402L710 405L697 406L694 402L692 402L692 404L688 404L686 402L686 400L688 399L685 398L685 396L683 396L680 399L674 399L674 397L671 394L674 391L671 384L674 382L678 374L681 373L680 370L682 370L681 367L683 363L682 362L684 360L690 360L692 362L694 361L702 367L708 367L709 363L711 363L721 369L723 368z"/></g><g><path class="class-2 leaflet-clickable" stroke-linejoin="round" stroke-linecap="round" fill-rule="evenodd" stroke="#005540" stroke-opacity="1" stroke-width="0.5" fill="#00cc99" fill-opacity="0.5" d="M740 373L739 376L735 378L734 376L729 386L730 388L722 391L722 398L720 397L720 402L716 404L713 401L713 398L711 398L707 394L705 385L708 382L716 382L717 379L718 380L718 375L724 375L726 373L723 372L725 366L732 370L737 364L739 373z"/></g><g><path class="class-2 leaflet-clickable" stroke-linejoin="round" stroke-linecap="round" fill-rule="evenodd" stroke="#005540" stroke-opacity="1" stroke-width="0.5" fill="#00cc99" fill-opacity="0.5" d="M710 397L714 399L713 401L716 404L715 405L717 408L715 408L713 412L714 419L711 420L709 426L703 433L700 432L701 439L704 441L704 444L700 441L697 442L695 440L689 439L685 441L679 438L676 439L675 441L676 446L669 449L669 455L639 445L633 436L639 429L644 428L647 430L650 427L650 425L651 426L651 424L656 422L657 423L659 421L660 417L656 417L657 415L654 410L656 408L655 406L649 405L649 402L652 401L651 400L656 401L662 396L669 395L673 395L672 396L674 396L676 400L680 400L681 397L685 396L685 398L688 399L686 399L686 402L688 404L692 404L692 402L694 402L697 406L707 406L710 405L709 402L711 398z"/></g><g><path class="class-2 leaflet-clickable" stroke-linejoin="round" stroke-linecap="round" fill-rule="evenodd" stroke="#005540" stroke-opacity="1" stroke-width="0.5" fill="#00cc99" fill-opacity="0.5" d="M722 398L727 401L730 400L730 407L733 409L732 410L736 407L736 405L741 405L741 403L742 409L744 407L747 407L750 410L748 414L750 418L750 428L745 430L742 427L742 421L740 419L739 414L733 421L735 425L734 430L731 431L732 433L729 436L725 434L726 435L724 435L722 438L718 438L712 444L708 439L709 438L707 437L708 434L705 431L714 418L712 412L715 411L715 403L719 403L719 399L721 398z"/></g><g><path class="class-3 leaflet-clickable" stroke-linejoin="round" stroke-linecap="round" fill-rule="evenodd" stroke="#005540" stroke-opacity="1" stroke-width="0.5" fill="#086" fill-opacity="0.5" d="M730 435L734 441L738 441L740 446L745 450L744 451L747 452L745 452L748 454L754 454L753 460L757 464L757 471L758 470L759 473L763 475L762 480L759 484L760 485L756 487L755 491L751 493L746 487L744 488L734 484L726 484L718 478L694 470L695 469L690 465L686 464L677 455L669 452L670 448L676 445L676 439L678 438L682 438L682 440L684 441L700 441L702 443L703 442L703 444L704 441L702 441L701 439L700 432L703 433L705 431L708 434L707 437L712 444L718 438L722 438L726 434L729 436z"/></g></svg>