<svg xmlns="http://www.w3.org/2000/svg" class="leaflet-zoom-animated" width="1990" height="575" viewBox="0 0 1990 575" style="transform: translate3d(0px, 0px, 0px);"><g><path class="class-3 leaflet-clickable" stroke-linejoin="round" stroke-linecap="round" fill-rule="evenodd" stroke="#005540" stroke-opacity="1" stroke-width="0.5" fill="#086" fill-opacity="0.5" d="M0 0"/></g><g><path class="class-3 leaflet-clickable" stroke-linejoin="round" stroke-linecap="round" fill-rule="evenodd" stroke="#005540" stroke-opacity="1" stroke-width="0.5" fill="#086" fill-opacity="0.5" d="M0 0"/></g><g><path class="class-3 leaflet-clickable" stroke-linejoin="round" stroke-linecap="round" fill-rule="evenodd" stroke="#005540" stroke-opacity="1" stroke-width="0.5" fill="#086" fill-opacity="0.5" d="M0 0"/></g><g><path class="class-3 leaflet-clickable" stroke-linejoin="round" stroke-linecap="round" fill-rule="evenodd" stroke="#005540" stroke-opacity="1" stroke-width="0.5" fill="#086" fill-opacity="0.5" d="M0 0"/></g><g><path class="class-3 leaflet-clickable" stroke-linejoin="round" stroke-linecap="round" fill-rule="evenodd" stroke="#005540" stroke-opacity="1" stroke-width="0.5" fill="#086" fill-opacity="0.5" d="M0 0"/></g><g><path class="class-2 leaflet-clickable" stroke-linejoin="round" stroke-linecap="round" fill-rule="evenodd" stroke="#005540" stroke-opacity="1" stroke-width="0.5" fill="#00cc99" fill-opacity="0.5" d="M0 0"/></g><g><path class="class-2 leaflet-clickable" stroke-linejoin="round" stroke-linecap="round" fill-rule="evenodd" stroke="#005540" stroke-opacity="1" stroke-width="0.5" fill="#00cc99" fill-opacity="0.5" d="M0 0"/></g><g><path class="class-2 leaflet-clickable" stroke-linejoin="round" stroke-linecap="round" fill-rule="evenodd" stroke="#005540" stroke-opacity="1" stroke-width="0.5" fill="#00cc99" fill-opacity="0.5" d="M0 0"/></g><g><path class="class-2 leaflet-clickable" stroke-linejoin="round" stroke-linecap="round" fill-rule="evenodd" stroke="#005540" stroke-opacity="1" stroke-width="0.5" fill="#00cc99" fill-opacity="0.5" d="M0 0"/></g><g><path class="class-2 leaflet-clickable" stroke-linejoin="round" stroke-linecap="round" fill-rule="evenodd" stroke="#005540" stroke-opacity="1" stroke-width="0.5" fill="#00cc99" fill-opacity="0.5" d="M0 0"/></g><g><path class="class-1 leaflet-clickable" stroke-linejoin="round" stroke-linecap="round" fill-rule="evenodd" stroke="#005540" stroke-opacity="1" stroke-width="0.5" fill="#7fd" fill-opacity="0.5" d="M0 0"/></g><g><path class="class-1 leaflet-clickable" stroke-linejoin="round" stroke-linecap="round" fill-rule="evenodd" stroke="#005540" stroke-opacity="1" stroke-width="0.5" fill="#7fd" fill-opacity="0.5" d="M0 0"/></g><g><path class="class-1 leaflet-clickable" stroke-linejoin="round" stroke-linecap="round" fill-rule="evenodd" stroke="#005540" stroke-opacity="1" stroke-width="0.5" fill="#7fd" fill-opacity="0.5" d="M0 0"/></g><g><path class="class-1 leaflet-clickable" stroke-linejoin="round" stroke-linecap="round" fill-rule="evenodd" stroke="#005540" stroke-opacity="1" stroke-width="0.5" fill="#7fd" fill-opacity="0.5" d="M0 0"/></g><g><path class="class-1 leaflet-clickable" stroke-linejoin="round" stroke-linecap="round" fill-rule="evenodd" stroke="#005540" stroke-opacity="1" stroke-width="0.5" fill="#7fd" fill-opacity="0.5" d="M0 0"/></g><g><path class="class-1 leaflet-clickable" stroke-linejoin="round" stroke-linecap="round" fill-rule="evenodd" stroke="#005540" stroke-opacity="1" stroke-width="0.5" fill="#7fd" fill-opacity="0.5" d="M0 0"/></g><g><path class="class-1 leaflet-clickable" stroke-linejoin="round" stroke-linecap="round" fill-rule="evenodd" stroke="#005540" stroke-opacity="1" stroke-width="0.5" fill="#7fd" fill-opacity="0.5" d="M0 0"/></g><g><path class="class-1 leaflet-clickable" stroke-linejoin="round" stroke-linecap="round" fill-rule="evenodd" stroke="#005540" stroke-opacity="1" stroke-width="0.5" fill="#7fd" fill-opacity="0.5" d="M736 520L736 522L741 525L742 531L738 536L737 542L735 544L734 563L738 563L741 560L745 564L748 562L752 563L750 575L625.6 575L617 558L619 543L614 521L607 508L608 507L612 514L615 514L616 513L613 505L619 502L622 505L622 508L628 508L628 510L636 509L636 500L634 496L631 496L629 489L629 484L634 473L631 466L635 464L639 459L639 455L644 454L644 460L646 462L647 468L650 466L670 466L675 464L677 467L676 470L678 473L678 477L680 480L684 480L684 487L686 488L670 494L670 496L676 503L678 511L680 511L689 501L691 496L694 498L697 497L698 504L701 506L707 505L708 515L713 515L715 522L717 522L719 525L722 526L723 523L734 519z"/></g><g><path class="class-1 leaflet-clickable" stroke-linejoin="round" stroke-linecap="round" fill-rule="evenodd" stroke="#005540" stroke-opacity="1" stroke-width="0.5" fill="#7fd" fill-opacity="0.5" d="M0 0"/></g><g><path class="class-1 leaflet-clickable" stroke-linejoin="round" stroke-linecap="round" fill-rule="evenodd" stroke="#005540" stroke-opacity="1" stroke-width="0.5" fill="#7fd" fill-opacity="0.5" d="M0 0"/></g><g><path class="class-1 leaflet-clickable" stroke-linejoin="round" stroke-linecap="round" fill-rule="evenodd" stroke="#005540" stroke-opacity="1" stroke-width="0.5" fill="#7fd" fill-opacity="0.5" d="M0 0"/></g><g><path class="class-1 leaflet-clickable" stroke-linejoin="round" stroke-linecap="round" fill-rule="evenodd" stroke="#005540" stroke-opacity="1" stroke-width="0.5" fill="#7fd" fill-opacity="0.5" d="M0 0"/></g><g><path class="class-1 leaflet-clickable" stroke-linejoin="round" stroke-linecap="round" fill-rule="evenodd" stroke="#005540" stroke-opacity="1" stroke-width="0.5" fill="#7fd" fill-opacity="0.5" d="M0 0"/></g><g><path class="class-1 leaflet-clickable" stroke-linejoin="round" stroke-linecap="round" fill-rule="evenodd" stroke="#005540" stroke-opacity="1" stroke-width="0.5" fill="#7fd" fill-opacity="0.5" d="M0 0"/></g><g><path class="class-1 leaflet-clickable" stroke-linejoin="round" stroke-linecap="round" fill-rule="evenodd" stroke="#005540" stroke-opacity="1" stroke-width="0.5" fill="#7fd" fill-opacity="0.5" d="M0 0"/></g><g><path class="class-1 leaflet-clickable" stroke-linejoin="round" stroke-linecap="round" fill-rule="evenodd" stroke="#005540" stroke-opacity="1" stroke-width="0.5" fill="#7fd" fill-opacity="0.5" d="M0 0"/></g><g><path class="class-1 leaflet-clickable" stroke-linejoin="round" stroke-linecap="round" fill-rule="evenodd" stroke="#005540" stroke-opacity="1" stroke-width="0.5" fill="#7fd" fill-opacity="0.5" d="M0 0"/></g><g><path class="class-1 leaflet-clickable" stroke-linejoin="round" stroke-linecap="round" fill-rule="evenodd" stroke="#005540" stroke-opacity="1" stroke-width="0.5" fill="#7fd" fill-opacity="0.5" d="M0 0"/></g><g><path class="class-1 leaflet-clickable" stroke-linejoin="round" stroke-linecap="round" fill-rule="evenodd" stroke="#005540" stroke-opacity="1" stroke-width="0.5" fill="#7fd" fill-opacity="0.5" d="M946 575L961 569L964 570L965 566L961 566L959 564L962 561L962 558L969 558L970 560L972 559L979 564L982 569L989 569L989.8 575L750 575L752 563L748 562L745 564L742 562L742 560L738 563L735 563L735 544L737 542L738 536L742 531L741 527L744 526L746 520L749 519L752 522L752 517L749 516L751 515L749 512L750 510L757 511L758 508L761 508L763 515L760 522L761 523L759 523L759 525L762 525L763 523L767 524L767 520L774 514L773 511L767 508L770 507L768 505L769 502L766 502L766 495L762 491L765 487L776 487L777 489L784 488L790 490L789 499L780 505L780 514L778 516L780 520L774 528L776 532L775 534L780 544L783 532L782 528L785 523L785 517L789 506L793 504L798 507L802 505L804 506L808 519L806 520L803 527L801 527L800 529L802 533L804 533L796 548L799 550L804 551L808 547L810 549L812 548L812 550L819 549L821 539L824 540L824 538L832 536L830 535L832 531L831 530L829 530L827 533L826 524L833 520L839 520L843 523L839 533L841 533L841 531L850 532L851 535L854 537L849 542L849 545L852 547L851 549L847 550L845 553L849 554L849 559L841 560L841 563L839 564L833 561L827 569L820 571L818 575z"/></g><g><path class="class-1 leaflet-clickable" stroke-linejoin="round" stroke-linecap="round" fill-rule="evenodd" stroke="#005540" stroke-opacity="1" stroke-width="0.5" fill="#7fd" fill-opacity="0.5" d="M0 0"/></g><g><path class="class-1 leaflet-clickable" stroke-linejoin="round" stroke-linecap="round" fill-rule="evenodd" stroke="#005540" stroke-opacity="1" stroke-width="0.5" fill="#7fd" fill-opacity="0.5" d="M0 0"/></g><g><path class="class-0 leaflet-clickable" stroke-linejoin="round" stroke-linecap="round" fill-rule="evenodd" stroke="#005540" stroke-opacity="1" stroke-width="0.5" fill="#ddfff6" fill-opacity="0.5" d="M962 558L962 561L959 564L961 566L965 566L964 570L961 569L946 575L870.5 575L876 561L881 554L887 550L887 547L889 545L888 543L891 540L889 532L904 532L908 529L907 527L920 522L921 515L923 515L923 519L927 522L927 524L936 526L936 532L942 532L943 530L946 531L948 536L950 537L950 544L946 545L948 545L947 548L953 549L962 556z"/></g><g><path class="class-3 leaflet-clickable" stroke-linejoin="round" stroke-linecap="round" fill-rule="evenodd" stroke="#005540" stroke-opacity="1" stroke-width="0.5" fill="#086" fill-opacity="0.5" d="M1333 535L1333 543L1336 554L1347.8333333333333 575L1266.3333333333333 575L1264 571L1267 570L1264 568L1268 568L1267 565L1263 567L1261 563L1264 564L1266 562L1271 564L1270 562L1272 561L1274 552L1276 551L1274 549L1283 542L1282 539L1284 537L1280 537L1280 535L1277 535L1277 532L1275 533L1273 530L1269 531L1261 524L1252 524L1253 521L1256 520L1260 522L1268 518L1271 518L1272 520L1273 518L1275 518L1274 520L1277 521L1279 519L1279 522L1282 522L1285 520L1284 518L1286 515L1291 516L1291 514L1295 515L1297 519L1304 522L1307 526L1315 526L1317 528L1315 530L1320 534L1323 539L1329 540L1329 537L1331 536z"/></g><g><path class="class-3 leaflet-clickable" stroke-linejoin="round" stroke-linecap="round" fill-rule="evenodd" stroke="#005540" stroke-opacity="1" stroke-width="0.5" fill="#086" fill-opacity="0.5" d="M0 0"/></g><g><path class="class-3 leaflet-clickable" stroke-linejoin="round" stroke-linecap="round" fill-rule="evenodd" stroke="#005540" stroke-opacity="1" stroke-width="0.5" fill="#086" fill-opacity="0.5" d="M0 0"/></g><g><path class="class-3 leaflet-clickable" stroke-linejoin="round" stroke-linecap="round" fill-rule="evenodd" stroke="#005540" stroke-opacity="1" stroke-width="0.5" fill="#086" fill-opacity="0.5" d="M0 0"/></g><g><path class="class-3 leaflet-clickable" stroke-linejoin="round" stroke-linecap="round" fill-rule="evenodd" stroke="#005540" stroke-opacity="1" stroke-width="0.5" fill="#086" fill-opacity="0.5" d="M0 0"/></g><g><path class="class-3 leaflet-clickable" stroke-linejoin="round" stroke-linecap="round" fill-rule="evenodd" stroke="#005540" stroke-opacity="1" stroke-width="0.5" fill="#086" fill-opacity="0.5" d="M0 0"/></g><g><path class="class-3 leaflet-clickable" stroke-linejoin="round" stroke-linecap="round" fill-rule="evenodd" stroke="#005540" stroke-opacity="1" stroke-width="0.5" fill="#086" fill-opacity="0.5" d="M0 0"/></g><g><path class="class-3 leaflet-clickable" stroke-linejoin="round" stroke-linecap="round" fill-rule="evenodd" stroke="#005540" stroke-opacity="1" stroke-width="0.5" fill="#086" fill-opacity="0.5" d="M0 0"/></g><g><path class="class-3 leaflet-clickable" stroke-linejoin="round" stroke-linecap="round" fill-rule="evenodd" stroke="#005540" stroke-opacity="1" stroke-width="0.5" fill="#086" fill-opacity="0.5" d="M0 0"/></g><g><path class="class-3 leaflet-clickable" stroke-linejoin="round" stroke-linecap="round" fill-rule="evenodd" stroke="#005540" stroke-opacity="1" stroke-width="0.5" fill="#086" fill-opacity="0.5" d="M0 0"/></g><g><path class="class-3 leaflet-clickable" stroke-linejoin="round" stroke-linecap="round" fill-rule="evenodd" stroke="#005540" stroke-opacity="1" stroke-width="0.5" fill="#086" fill-opacity="0.5" d="M0 0"/></g><g><path class="class-2 leaflet-clickable" stroke-linejoin="round" stroke-linecap="round" fill-rule="evenodd" stroke="#005540" stroke-opacity="1" stroke-width="0.5" fill="#00cc99" fill-opacity="0.5" d="M1122 439L1121 449L1126 450L1125 452L1131 455L1126 459L1125 462L1124 461L1124 465L1122 464L1122 470L1128 470L1129 479L1123 485L1130 489L1135 487L1142 487L1146 489L1146 494L1149 496L1157 496L1161 493L1172 497L1174 500L1178 499L1173 487L1178 487L1183 495L1188 494L1189 499L1193 498L1197 506L1201 520L1217 520L1229 522L1233 526L1234 524L1239 525L1253 521L1252 524L1261 524L1261 526L1265 527L1269 531L1273 530L1275 533L1277 532L1277 534L1280 535L1280 537L1284 537L1282 539L1283 542L1274 549L1276 551L1274 552L1272 561L1270 562L1271 564L1266 562L1264 564L1261 563L1263 567L1266 565L1268 568L1264 568L1267 570L1264 571L1266.3333333333333 575L997 575L997 573L1003 569L1002 567L1008 561L1009 558L1006 558L1007 556L1009 556L1011 547L1009 543L1011 540L1006 534L1003 534L1005 533L1001 527L1001 525L1006 525L1007 517L1012 516L1015 510L1013 500L1010 496L1006 494L1009 490L1003 487L996 487L996 491L989 496L989 500L987 499L987 502L981 510L973 510L974 513L971 512L969 515L965 511L966 506L961 505L963 496L955 497L938 483L932 475L928 457L926 457L930 449L928 441L923 439L924 435L927 435L929 431L927 434L923 430L927 426L928 418L932 418L934 426L939 427L970 418L1023 371L1021 347L1035 342L1040 324L1040 329L1046 335L1067 314L1077 323L1074 340L1079 340L1078 345L1076 345L1085 349L1081 371L1082 378L1086 383L1086 389L1091 395L1087 402L1087 406L1089 406L1090 411L1087 410L1085 420L1090 426L1088 443L1102 446L1102 443L1099 443L1098 436L1104 436L1106 431L1113 431L1111 437L1119 438z"/></g><g><path class="class-1 leaflet-clickable" stroke-linejoin="round" stroke-linecap="round" fill-rule="evenodd" stroke="#005540" stroke-opacity="1" stroke-width="0.5" fill="#7fd" fill-opacity="0.5" d="M1059 307L1064 317L1054 328L1046 335L1040 329L1040 324L1035 342L1021 347L1023 371L1010 383L970 418L939 427L934 426L932 418L928 418L927 426L923 430L927 434L928 431L927 434L924 435L923 439L928 441L930 449L926 457L928 457L932 475L938 483L955 497L963 496L961 505L966 506L965 510L969 515L971 512L974 513L973 510L981 510L987 502L987 499L989 500L989 496L996 491L996 487L1003 487L1008 490L1006 494L1010 496L1014 503L1015 510L1012 516L1007 516L1006 525L1001 525L1001 527L1005 533L1003 534L1006 534L1011 540L1009 543L1011 547L1009 556L1007 556L1006 558L1009 558L1008 561L1004 564L1002 567L1003 568L997 573L997 575L989.8 575L989 569L983 569L979 564L972 559L970 560L969 558L962 558L962 556L953 549L947 548L948 545L946 545L950 544L950 537L948 536L947 532L943 530L942 532L936 532L936 526L927 524L927 522L923 519L923 515L921 515L920 522L915 525L907 526L907 530L902 532L889 532L891 540L888 543L889 545L887 547L887 550L881 553L876 561L870.5 575L818 575L822 569L827 569L833 561L839 564L841 563L841 560L849 559L849 554L845 553L847 550L851 549L852 547L849 545L849 543L854 537L851 535L850 532L841 531L841 533L839 533L843 523L839 520L833 520L826 524L827 533L829 530L831 530L832 531L830 535L832 536L828 536L824 538L824 540L821 539L819 549L813 550L812 548L810 549L808 547L804 551L799 550L796 548L804 533L802 533L800 529L801 527L803 527L805 520L808 519L806 511L802 505L798 507L791 504L789 506L785 517L785 523L782 527L782 539L780 544L779 543L774 528L778 521L780 521L778 518L780 511L779 509L781 506L780 505L789 499L790 490L788 489L765 487L762 491L766 495L766 502L769 502L768 505L770 507L767 508L773 511L774 514L768 520L767 524L763 523L762 525L759 525L759 523L761 523L760 522L763 515L761 508L758 508L755 511L750 510L749 512L751 515L749 516L752 517L753 522L749 519L746 520L743 527L741 527L741 525L736 522L736 520L739 518L741 514L738 508L743 502L743 498L741 495L743 493L742 491L744 490L743 488L748 484L751 486L759 484L757 477L758 473L752 464L752 449L756 444L757 431L760 420L765 413L778 404L781 398L785 401L786 399L787 395L781 395L782 392L780 387L784 383L783 378L781 376L784 366L781 364L782 360L785 360L795 350L799 348L801 352L802 351L808 343L807 334L812 334L815 331L817 331L821 320L834 320L836 318L838 321L844 319L850 323L851 319L852 320L855 316L860 319L862 317L868 320L869 317L874 324L878 322L881 325L889 325L895 322L901 322L902 320L906 320L905 301L898 272L888 268L888 265L891 265L892 262L889 256L909 263L908 251L923 250L963 261L970 275L978 279L981 277L986 279L985 284L982 283L984 287L999 289L1004 284L1010 281L1012 283L1021 285L1029 300L1033 304L1045 308L1050 304L1051 306L1058 308z"/></g><g><path class="class-2 leaflet-clickable" stroke-linejoin="round" stroke-linecap="round" fill-rule="evenodd" stroke="#005540" stroke-opacity="1" stroke-width="0.5" fill="#00cc99" fill-opacity="0.5" d="M1333 535L1329 537L1329 540L1323 539L1315 530L1317 528L1315 526L1307 526L1306 524L1297 519L1295 515L1291 514L1291 516L1286 515L1284 518L1285 520L1282 522L1279 522L1279 519L1277 521L1274 520L1275 518L1273 518L1272 520L1271 518L1268 518L1260 522L1256 520L1240 525L1234 524L1233 526L1229 522L1217 520L1201 520L1197 506L1193 498L1189 499L1188 494L1183 495L1178 487L1173 487L1178 499L1174 500L1172 497L1161 493L1157 496L1149 496L1146 494L1146 489L1142 487L1135 487L1130 489L1123 486L1129 479L1128 470L1122 470L1122 464L1124 465L1123 461L1125 462L1126 459L1131 455L1125 452L1126 450L1121 449L1121 442L1125 432L1119 428L1124 423L1139 424L1135 407L1144 385L1153 384L1166 387L1170 385L1178 375L1181 376L1178 367L1174 363L1173 359L1171 359L1163 351L1164 342L1169 330L1169 323L1165 312L1157 314L1156 307L1167 300L1173 302L1173 300L1178 298L1177 295L1179 292L1186 289L1190 285L1196 283L1203 286L1206 285L1204 277L1208 271L1206 262L1208 260L1208 257L1210 258L1216 255L1218 250L1221 254L1225 256L1229 255L1275 218L1275 213L1261 213L1261 160L1239 157L1232 165L1221 151L1215 155L1214 154L1208 156L1205 136L1199 136L1190 128L1186 131L1184 126L1187 101L1174 94L1163 94L1162 92L1167 88L1166 84L1170 77L1169 74L1164 71L1160 71L1160 69L1155 69L1153 71L1153 67L1156 68L1164 53L1161 50L1155 32L1154 15L1139 10L1138 4L1143.4285714285713 0L1174.6666666666667 0L1176 3L1175 9L1179 10L1177 26L1174 28L1178 29L1178 32L1183 34L1182 37L1184 42L1184 51L1182 53L1182 58L1185 58L1188 62L1188 67L1192 68L1194 70L1194 74L1198 76L1201 82L1201 86L1204 88L1208 105L1207 107L1211 108L1213 111L1213 118L1215 122L1219 120L1222 122L1225 121L1227 122L1227 124L1229 122L1233 126L1239 124L1243 129L1245 128L1249 133L1248 134L1252 135L1253 138L1261 136L1262 139L1274 139L1274 142L1279 146L1282 145L1286 151L1289 150L1291 154L1294 154L1296 156L1298 154L1300 157L1302 155L1307 155L1307 157L1310 158L1311 155L1317 157L1325 155L1331 156L1332 158L1336 159L1344 159L1350 166L1355 168L1357 173L1360 172L1360 174L1363 174L1366 178L1371 178L1371 170L1380 168L1379 166L1392 166L1389 193L1361 250L1353 271L1343 312L1339 349L1338 387L1335 424L1336 461L1333 482L1327 499L1328 520L1331 530z"/></g><g><path class="class-0 leaflet-clickable" stroke-linejoin="round" stroke-linecap="round" fill-rule="evenodd" stroke="#005540" stroke-opacity="1" stroke-width="0.5" fill="#ddfff6" fill-opacity="0.5" d="M1143.4285714285713 0L1138 4L1139 10L1154 15L1155 32L1161 50L1164 53L1156 68L1153 67L1153 71L1155 69L1160 69L1160 71L1164 71L1169 74L1170 77L1166 84L1167 88L1162 92L1163 94L1174 94L1187 101L1184 126L1186 131L1190 128L1199 136L1205 136L1208 156L1211 156L1213 154L1215 155L1221 151L1232 165L1239 157L1261 160L1261 213L1275 213L1275 218L1229 255L1221 255L1220 251L1218 250L1216 255L1210 258L1208 257L1208 260L1206 262L1208 271L1204 277L1206 285L1203 286L1196 282L1190 285L1187 289L1184 289L1179 292L1177 295L1178 298L1173 300L1173 302L1167 300L1156 307L1157 314L1165 312L1169 323L1169 330L1166 335L1163 351L1171 359L1173 359L1174 363L1178 367L1181 376L1178 375L1170 385L1166 387L1153 384L1144 385L1135 407L1139 424L1124 423L1119 428L1125 432L1122 439L1111 437L1113 431L1106 431L1104 436L1098 436L1099 443L1102 443L1102 446L1088 443L1090 426L1085 421L1087 410L1090 411L1089 406L1087 406L1087 402L1091 393L1087 389L1086 383L1082 378L1084 356L1083 351L1085 349L1076 345L1078 345L1079 340L1074 340L1077 323L1067 314L1064 317L1059 307L1059 288L1056 280L1066 271L1057 263L1059 246L1067 239L1078 237L1102 244L1102 240L1108 242L1111 241L1108 237L1110 236L1109 232L1102 228L1096 230L1089 229L1091 222L1089 220L1084 219L1083 216L1079 215L1079 213L1075 212L1077 210L1084 211L1083 209L1077 208L1074 205L1069 206L1065 199L1061 198L1059 191L1053 180L1057 170L1056 167L1049 166L1048 154L1040 146L1036 145L1031 135L1022 124L1063 87L1069 99L1076 92L1077 87L1082 80L1083 55L1072 52L1070 51L1070 49L1064 52L1064 56L1062 54L1059 55L1056 52L1056 40L1070 26L1094 20L1098 0z"/></g><g><path class="class-1 leaflet-clickable" stroke-linejoin="round" stroke-linecap="round" fill-rule="evenodd" stroke="#005540" stroke-opacity="1" stroke-width="0.5" fill="#7fd" fill-opacity="0.5" d="M1098 0L1094 20L1070 26L1056 40L1056 52L1059 55L1062 54L1064 56L1064 53L1069 49L1072 52L1083 55L1082 80L1078 85L1076 92L1069 99L1063 87L1022 124L1031 135L1036 145L1040 146L1048 154L1049 166L1056 167L1056 176L1053 180L1059 191L1061 198L1065 199L1069 206L1074 205L1077 208L1083 209L1084 211L1077 210L1075 212L1079 213L1079 215L1083 216L1084 219L1089 220L1091 222L1089 229L1096 230L1102 228L1106 230L1110 236L1108 237L1111 241L1108 242L1102 240L1102 244L1078 237L1067 239L1059 246L1057 263L1066 271L1056 280L1059 288L1058 308L1051 306L1050 304L1045 308L1033 304L1029 300L1022 286L1012 283L1010 281L1004 284L999 289L984 287L982 283L985 284L986 279L981 277L978 279L970 275L963 261L923 250L908 251L909 263L889 256L872 285L872 289L866 285L850 280L835 266L836 264L834 261L834 257L827 251L826 252L822 244L818 242L816 237L813 237L812 233L817 225L822 222L827 225L828 221L825 221L814 209L819 204L820 200L822 200L822 198L826 195L829 186L830 180L827 176L827 147L835 133L830 125L825 101L801 91L800 92L799 89L794 87L790 77L788 77L781 71L783 67L781 67L787 62L788 59L791 58L790 52L787 51L786 38L783 30L779 28L780.3333333333334 0z"/></g><g><path class="class-2 leaflet-clickable" stroke-linejoin="round" stroke-linecap="round" fill-rule="evenodd" stroke="#005540" stroke-opacity="1" stroke-width="0.5" fill="#00cc99" fill-opacity="0.5" d="M795 88L799 89L800 92L801 91L825 101L830 125L835 133L827 147L827 176L830 180L829 186L826 195L822 198L822 200L820 200L819 204L814 209L825 221L828 221L828 225L822 222L817 225L813 233L813 237L816 237L818 242L822 244L826 252L827 251L834 257L834 261L836 263L835 266L850 280L866 285L872 289L872 285L889 256L892 262L891 265L888 265L888 268L898 272L905 301L906 320L902 320L901 322L895 322L889 325L881 325L878 322L874 324L869 317L868 320L862 317L860 319L855 316L852 320L851 319L850 323L846 320L838 321L836 318L834 320L821 320L817 331L815 331L812 334L807 334L808 343L802 351L801 352L799 348L782 360L781 364L783 366L783 372L781 375L784 382L780 387L782 392L781 395L787 395L786 399L785 401L781 398L775 406L762 416L757 431L756 444L752 449L752 464L754 470L758 473L757 477L759 484L753 486L748 484L746 487L743 488L744 490L742 491L743 493L741 495L744 502L738 508L741 514L739 518L723 523L723 526L715 522L713 515L708 515L707 505L701 506L698 504L697 498L691 496L689 501L680 511L678 511L676 503L670 496L670 494L686 488L684 487L684 480L680 480L678 477L678 473L676 471L677 467L675 464L670 466L650 466L647 468L646 462L644 460L645 456L644 454L641 454L639 450L631 449L628 450L628 452L626 452L618 448L619 439L618 436L613 432L611 425L613 420L609 418L611 416L606 406L603 403L603 401L596 403L595 407L592 394L594 389L589 378L590 372L596 375L598 375L599 372L595 368L591 368L594 364L586 358L585 355L587 352L585 351L582 341L579 341L578 334L572 329L561 325L554 328L553 332L547 334L543 335L537 332L532 325L533 324L531 321L534 319L535 315L529 313L529 310L527 310L521 296L507 281L502 281L500 278L501 276L495 270L493 272L493 269L488 260L483 257L483 244L481 240L484 238L480 236L476 229L479 230L475 221L480 218L482 213L478 211L479 206L483 207L492 203L497 199L495 196L504 198L506 205L524 204L525 206L539 191L543 189L535 193L536 167L544 165L544 150L548 148L546 141L557 126L560 128L561 124L558 125L559 122L562 121L564 114L562 111L563 110L560 110L564 106L564 100L567 93L569 92L568 91L574 89L570 88L570 83L574 83L576 85L581 76L591 84L597 87L598 86L606 95L604 91L609 89L615 97L615 99L622 99L622 97L627 106L632 107L632 109L643 108L645 111L644 112L648 115L650 112L653 115L667 109L672 119L674 117L679 116L686 110L694 110L703 114L708 122L711 124L714 123L715 127L723 118L722 115L728 100L738 95L742 88L739 84L739 81L743 76L747 83L763 86L765 83L768 83L768 85L780 85z"/></g><g><path class="class-3 leaflet-clickable" stroke-linejoin="round" stroke-linecap="round" fill-rule="evenodd" stroke="#005540" stroke-opacity="1" stroke-width="0.5" fill="#086" fill-opacity="0.5" d="M780.3333333333334 0L781 15L779 28L783 30L786 38L787 51L790 52L791 58L788 59L787 62L781 67L783 67L781 70L785 75L790 77L795 88L780 85L768 85L768 83L765 83L764 86L747 83L743 76L739 81L739 84L742 88L738 95L728 100L722 115L723 118L715 127L714 123L711 124L703 114L694 110L686 110L679 116L672 118L667 109L653 115L650 112L648 115L644 112L644 108L632 109L632 107L627 106L622 97L622 99L615 99L614 95L609 89L604 91L606 95L598 86L595 86L581 76L576 85L574 83L571 83L570 88L574 89L568 91L569 92L567 93L564 100L565 103L560 110L563 110L562 111L564 114L562 121L559 122L558 125L561 124L560 128L557 126L546 141L548 148L544 150L544 165L537 167L535 171L535 193L543 188L525 206L524 204L506 205L504 198L495 196L498 195L498 192L490 192L489 186L468 169L469 163L467 154L457 147L452 148L450 151L447 151L443 145L437 146L430 144L426 148L424 148L421 143L417 142L417 139L402 117L406 114L408 110L400 99L396 97L401 94L403 84L400 84L401 81L395 73L390 74L391 71L384 72L383 70L382 64L386 62L386 57L381 56L378 59L376 56L373 60L372 58L366 59L359 56L360 58L358 60L353 60L352 55L349 56L348 44L345 42L343 36L350 28L346 21L346 16L343 12L344 5L338 0z"/></g><g><path class="class-1 leaflet-clickable" stroke-linejoin="round" stroke-linecap="round" fill-rule="evenodd" stroke="#005540" stroke-opacity="1" stroke-width="0.5" fill="#7fd" fill-opacity="0.5" d="M289 129L290 130L295 127L297 130L301 132L312 121L318 122L321 119L323 121L325 118L324 116L327 113L320 113L322 112L324 106L332 104L337 101L342 102L342 96L346 93L346 89L349 88L351 83L355 81L353 78L356 72L361 63L365 62L358 61L360 58L359 56L372 58L373 60L376 56L378 59L381 56L385 57L387 60L386 62L384 62L384 64L382 64L384 72L391 71L390 74L395 73L401 81L400 84L403 84L401 94L396 97L400 99L408 110L406 114L402 117L417 139L417 142L421 143L424 148L426 148L430 144L437 146L443 145L447 151L450 151L452 148L457 147L467 154L469 162L468 169L489 186L490 191L494 193L496 191L498 192L498 195L495 196L497 199L492 203L483 207L479 206L478 211L482 213L480 218L475 221L479 230L476 229L480 236L484 238L482 240L483 257L488 260L493 269L493 272L495 270L501 275L501 281L507 280L521 295L523 303L527 310L529 310L529 313L535 315L534 319L531 321L533 324L532 325L538 333L543 335L553 332L554 328L561 325L572 329L578 334L579 341L582 341L585 351L587 352L585 355L586 358L594 364L591 368L595 368L599 372L598 375L590 372L589 378L594 389L592 394L595 407L596 403L603 401L603 403L606 406L608 412L611 415L609 418L613 420L611 425L613 432L614 434L618 435L618 448L626 452L628 452L628 450L631 449L639 450L641 454L639 455L639 459L635 464L631 466L634 473L629 484L631 496L634 496L634 498L636 499L635 502L637 503L635 510L628 510L628 508L624 507L622 508L622 505L619 502L613 505L616 513L613 514L610 512L600 493L592 485L583 479L562 455L549 443L547 443L538 424L528 414L529 413L512 397L513 395L505 383L505 379L494 367L477 354L477 352L430 318L422 314L418 307L406 300L402 295L401 289L393 280L384 262L373 251L371 246L363 237L352 231L331 225L321 220L311 219L305 213L305 211L298 206L294 201L283 197L277 198L273 181L274 172L272 167L275 156L284 143L286 134L290 130z"/></g><g><path class="class-1 leaflet-clickable" stroke-linejoin="round" stroke-linecap="round" fill-rule="evenodd" stroke="#005540" stroke-opacity="1" stroke-width="0.5" fill="#7fd" fill-opacity="0.5" d="M0 0"/></g><g><path class="class-1 leaflet-clickable" stroke-linejoin="round" stroke-linecap="round" fill-rule="evenodd" stroke="#005540" stroke-opacity="1" stroke-width="0.5" fill="#7fd" fill-opacity="0.5" d="M0 0"/></g><g><path class="class-1 leaflet-clickable" stroke-linejoin="round" stroke-linecap="round" fill-rule="evenodd" stroke="#005540" stroke-opacity="1" stroke-width="0.5" fill="#7fd" fill-opacity="0.5" d="M0 0"/></g><g><path class="class-1 leaflet-clickable" stroke-linejoin="round" stroke-linecap="round" fill-rule="evenodd" stroke="#005540" stroke-opacity="1" stroke-width="0.5" fill="#7fd" fill-opacity="0.5" d="M338 0L339 2L344 4L343 12L346 16L346 21L350 28L343 36L349 48L348 54L349 56L352 55L353 60L365 62L361 63L356 72L353 78L355 81L351 83L349 88L346 89L346 92L342 96L342 102L337 101L332 104L324 106L322 112L320 113L326 113L323 121L321 119L318 122L312 121L301 132L297 130L295 127L293 127L290 130L289 129L290 120L288 109L275 95L268 92L267 94L256 91L250 93L238 86L231 67L227 61L226 56L223 53L217 51L216 52L213 49L198 46L191 42L183 33L176 30L173 31L168 29L166 25L168 6L165.57142857142858 0z"/></g><g><path class="class-1 leaflet-clickable" stroke-linejoin="round" stroke-linecap="round" fill-rule="evenodd" stroke="#005540" stroke-opacity="1" stroke-width="0.5" fill="#7fd" fill-opacity="0.5" d="M240 347L234 348L231 344L227 326L229 326L238 342z"/></g><g><path class="class-1 leaflet-clickable" stroke-linejoin="round" stroke-linecap="round" fill-rule="evenodd" stroke="#005540" stroke-opacity="1" stroke-width="0.5" fill="#7fd" fill-opacity="0.5" d="M189 310L191 310L195 316L192 322L190 322L190 320L187 318L189 316L186 313L187 310z"/></g><g><path class="class-1 leaflet-clickable" stroke-linejoin="round" stroke-linecap="round" fill-rule="evenodd" stroke="#005540" stroke-opacity="1" stroke-width="0.5" fill="#7fd" fill-opacity="0.5" d="M186 304L189 308L188 309L184 305z"/></g><g><path class="class-1 leaflet-clickable" stroke-linejoin="round" stroke-linecap="round" fill-rule="evenodd" stroke="#005540" stroke-opacity="1" stroke-width="0.5" fill="#7fd" fill-opacity="0.5" d="M157 252L161 257L169 261L173 274L170 275L166 271L164 271L160 261L157 260L156 257z"/></g><g><path class="class-1 leaflet-clickable" stroke-linejoin="round" stroke-linecap="round" fill-rule="evenodd" stroke="#005540" stroke-opacity="1" stroke-width="0.5" fill="#7fd" fill-opacity="0.5" d="M159 232L157 236L155 235L155 233L157 232z"/></g><g><path class="class-1 leaflet-clickable" stroke-linejoin="round" stroke-linecap="round" fill-rule="evenodd" stroke="#005540" stroke-opacity="1" stroke-width="0.5" fill="#7fd" fill-opacity="0.5" d="M151 191L153 201L152 203L148 198L149 194z"/></g><g><path class="class-1 leaflet-clickable" stroke-linejoin="round" stroke-linecap="round" fill-rule="evenodd" stroke="#005540" stroke-opacity="1" stroke-width="0.5" fill="#7fd" fill-opacity="0.5" d="M127 191L129 193L128 196L125 191z"/></g><g><path class="class-1 leaflet-clickable" stroke-linejoin="round" stroke-linecap="round" fill-rule="evenodd" stroke="#005540" stroke-opacity="1" stroke-width="0.5" fill="#7fd" fill-opacity="0.5" d="M125 155L123 159L123 164L121 162L115 170L114 175L112 177L112 181L109 177L115 164L115 158L123 156z"/></g><g><path class="class-1 leaflet-clickable" stroke-linejoin="round" stroke-linecap="round" fill-rule="evenodd" stroke="#005540" stroke-opacity="1" stroke-width="0.5" fill="#7fd" fill-opacity="0.5" d="M106 148L107 151L104 150L106 148z"/></g><g><path class="class-1 leaflet-clickable" stroke-linejoin="round" stroke-linecap="round" fill-rule="evenodd" stroke="#005540" stroke-opacity="1" stroke-width="0.5" fill="#7fd" fill-opacity="0.5" d="M32 34L36 39L33 42L30 35L31 34z"/></g><g><path class="class-1 leaflet-clickable" stroke-linejoin="round" stroke-linecap="round" fill-rule="evenodd" stroke="#005540" stroke-opacity="1" stroke-width="0.5" fill="#7fd" fill-opacity="0.5" d="M45 16L45 19L43 18L43 16z"/></g><g><path class="class-1 leaflet-clickable" stroke-linejoin="round" stroke-linecap="round" fill-rule="evenodd" stroke="#005540" stroke-opacity="1" stroke-width="0.5" fill="#7fd" fill-opacity="0.5" d="M0 0"/></g><g><path class="class-1 leaflet-clickable" stroke-linejoin="round" stroke-linecap="round" fill-rule="evenodd" stroke="#005540" stroke-opacity="1" stroke-width="0.5" fill="#7fd" fill-opacity="0.5" d="M0 0L6 2L9 7L12 21L18 27L18 30L20 31L21 34L20 38L25 44L31 47L39 48L40 50L44 50L44 53L41 54L38 60L39 64L42 66L44 71L48 75L56 71L61 74L65 80L70 83L71 86L79 91L80 106L89 109L88 120L96 131L94 135L98 149L101 152L99 159L100 163L98 165L98 169L100 171L100 179L103 179L103 185L108 188L111 192L113 201L118 208L120 210L129 211L128 218L137 235L135 236L139 248L142 251L143 255L146 256L147 259L150 259L152 261L153 266L156 269L162 282L158 293L155 296L154 307L155 311L159 316L158 322L166 338L169 339L171 342L177 344L194 345L194 339L191 336L191 330L194 329L194 327L200 328L200 331L204 333L206 337L221 347L224 359L228 360L237 357L239 361L236 368L237 371L249 383L249 396L270 407L269 411L274 417L273 420L275 423L273 425L273 439L263 452L252 456L248 459L246 463L243 463L235 472L231 472L230 474L225 475L216 467L209 446L207 431L198 415L190 405L183 400L174 397L161 388L147 371L129 353L109 340L90 330L77 326L67 328L66 332L51 318L30 307L29 302L25 298L25 295L26 296L27 294L26 288L19 284L12 284L12 282L15 279L28 234L27 232L31 213L30 186L22 163L18 158L11 154L10 147L0 136z"/></g></svg>