<svg xmlns="http://www.w3.org/2000/svg" class="leaflet-zoom-animated" width="2000" height="908" viewBox="-366 -166 2000 908" style="transform: translate3d(-366px, -166px, 0px);"><g><path class="class-3 leaflet-clickable" stroke-linejoin="round" stroke-linecap="round" fill-rule="evenodd" stroke="#005540" stroke-opacity="1" stroke-width="0.5" fill="#086" fill-opacity="0.5" d="M526 371L525 371z"/></g><g><path class="class-3 leaflet-clickable" stroke-linejoin="round" stroke-linecap="round" fill-rule="evenodd" stroke="#005540" stroke-opacity="1" stroke-width="0.5" fill="#086" fill-opacity="0.5" d="M521 368L523 369L522 370L520 368z"/></g><g><path class="class-3 leaflet-clickable" stroke-linejoin="round" stroke-linecap="round" fill-rule="evenodd" stroke="#005540" stroke-opacity="1" stroke-width="0.5" fill="#086" fill-opacity="0.5" d="M516 363L518 363L519 366L517 366L516 364z"/></g><g><path class="class-3 leaflet-clickable" stroke-linejoin="round" stroke-linecap="round" fill-rule="evenodd" stroke="#005540" stroke-opacity="1" stroke-width="0.5" fill="#086" fill-opacity="0.5" d="M516 361L515 362z"/></g><g><path class="class-3 leaflet-clickable" stroke-linejoin="round" stroke-linecap="round" fill-rule="evenodd" stroke="#005540" stroke-opacity="1" stroke-width="0.5" fill="#086" fill-opacity="0.5" d="M568 346L570 347L568 356L572 356L573 360L577 361L579 363L578 366L583 370L580 373L581 374L571 376L572 381L568 385L571 387L571 389L560 380L551 382L548 388L546 386L541 386L549 376L549 367L548 368L543 364L539 356L539 349L536 343L537 342L537 344L539 341L544 343L542 339L542 333L545 329L546 332L554 332L553 333L556 337L552 339L554 343L558 340L563 344L564 347L568 345z"/></g><g><path class="class-3 leaflet-clickable" stroke-linejoin="round" stroke-linecap="round" fill-rule="evenodd" stroke="#005540" stroke-opacity="1" stroke-width="0.5" fill="#086" fill-opacity="0.5" d="M873 457L873 470L862 470L863 467L857 465L858 462L854 459L854 455L850 455L843 460L842 459L842 461L840 463L836 463L836 465L833 468L831 466L830 467L831 466L829 464L827 464L825 459L826 456L824 456L825 455L822 453L819 454L819 460L815 464L813 469L811 467L813 463L811 463L807 458L802 456L803 452L801 448L817 442L830 442L833 440L833 438L838 437L841 442L845 442L846 449L849 450L850 452L858 456L858 450L861 448L861 450L867 453L873 453L873 455z"/></g><g><path class="class-3 leaflet-clickable" stroke-linejoin="round" stroke-linecap="round" fill-rule="evenodd" stroke="#005540" stroke-opacity="1" stroke-width="0.5" fill="#086" fill-opacity="0.5" d="M955 443L956 440L956 442z"/></g><g><path class="class-3 leaflet-clickable" stroke-linejoin="round" stroke-linecap="round" fill-rule="evenodd" stroke="#005540" stroke-opacity="1" stroke-width="0.5" fill="#086" fill-opacity="0.5" d="M957 435L957 437L957 435z"/></g><g><path class="class-3 leaflet-clickable" stroke-linejoin="round" stroke-linecap="round" fill-rule="evenodd" stroke="#005540" stroke-opacity="1" stroke-width="0.5" fill="#086" fill-opacity="0.5" d="M969 391L963 398L963 394L965 391L970 390z"/></g><g><path class="class-3 leaflet-clickable" stroke-linejoin="round" stroke-linecap="round" fill-rule="evenodd" stroke="#005540" stroke-opacity="1" stroke-width="0.5" fill="#086" fill-opacity="0.5" d="M914 454L913 450L915 449L915 425L914 418L911 415L914 413L915 414L915 412L917 412L917 410L922 407L922 405L925 404L926 401L929 401L931 398L937 397L941 394L948 386L951 380L951 368L958 370L961 369L962 366L967 373L967 370L968 371L968 379L965 385L953 399L953 409L952 410L953 406L952 409L946 412L948 416L953 413L954 414L953 418L948 420L948 424L951 421L953 421L951 423L943 449L940 449L940 443L935 443L935 441L929 441L927 447L924 449L921 455L917 452L915 454z"/></g><g><path class="class-3 leaflet-clickable" stroke-linejoin="round" stroke-linecap="round" fill-rule="evenodd" stroke="#005540" stroke-opacity="1" stroke-width="0.5" fill="#086" fill-opacity="0.5" d="M961 365L959 367L954 368L956 366L960 366z"/></g><g><path class="class-3 leaflet-clickable" stroke-linejoin="round" stroke-linecap="round" fill-rule="evenodd" stroke="#005540" stroke-opacity="1" stroke-width="0.5" fill="#086" fill-opacity="0.5" d="M886 384L886 391L890 391L891 394L894 393L899 397L898 398L904 404L907 412L914 418L914 457L873 457L873 453L863 451L860 449L861 448L858 451L858 455L846 449L846 444L842 442L839 438L842 436L850 436L853 438L870 428L879 420L879 412L885 405L884 391L886 384z"/></g><g><path class="class-2 leaflet-clickable" stroke-linejoin="round" stroke-linecap="round" fill-rule="evenodd" stroke="#005540" stroke-opacity="1" stroke-width="0.5" fill="#00cc99" fill-opacity="0.5" d="M718 349L716 351L708 344L706 344L705 346L698 345L696 347L689 345L687 346L679 337L678 341L675 339L671 339L670 337L665 337L667 335L665 332L667 330L665 328L666 323L664 323L666 321L669 322L668 317L671 312L677 312L679 309L679 307L675 303L677 296L674 294L674 292L678 291L679 288L683 286L685 287L687 283L686 281L689 278L692 279L703 270L700 269L700 255L694 255L692 257L690 253L687 255L686 249L684 250L680 247L681 241L675 239L677 234L673 233L675 229L673 219L669 218L669 216L674 213L678 216L680 230L684 234L688 246L690 245L692 247L697 248L697 250L703 250L708 255L721 255L726 260L728 259L727 258L732 257L732 263L725 276L720 294L718 336L716 339L717 348z"/></g><g><path class="class-2 leaflet-clickable" stroke-linejoin="round" stroke-linecap="round" fill-rule="evenodd" stroke="#005540" stroke-opacity="1" stroke-width="0.5" fill="#00cc99" fill-opacity="0.5" d="M691 427L687 427L682 423L687 414L691 421L691 426z"/></g><g><path class="class-2 leaflet-clickable" stroke-linejoin="round" stroke-linecap="round" fill-rule="evenodd" stroke="#005540" stroke-opacity="1" stroke-width="0.5" fill="#00cc99" fill-opacity="0.5" d="M313 197L312 197z"/></g><g><path class="class-2 leaflet-clickable" stroke-linejoin="round" stroke-linecap="round" fill-rule="evenodd" stroke="#005540" stroke-opacity="1" stroke-width="0.5" fill="#00cc99" fill-opacity="0.5" d="M321 195L323 201L322 204L318 202L321 199L321 196z"/></g><g><path class="class-2 leaflet-clickable" stroke-linejoin="round" stroke-linecap="round" fill-rule="evenodd" stroke="#005540" stroke-opacity="1" stroke-width="0.5" fill="#00cc99" fill-opacity="0.5" d="M374 187L377 189L376 190L375 188z"/></g><g><path class="class-2 leaflet-clickable" stroke-linejoin="round" stroke-linecap="round" fill-rule="evenodd" stroke="#005540" stroke-opacity="1" stroke-width="0.5" fill="#00cc99" fill-opacity="0.5" d="M360 176L360 177z"/></g><g><path class="class-2 leaflet-clickable" stroke-linejoin="round" stroke-linecap="round" fill-rule="evenodd" stroke="#005540" stroke-opacity="1" stroke-width="0.5" fill="#00cc99" fill-opacity="0.5" d="M360 165L363 167L363 170L365 172L368 171L368 179L358 168L359 165z"/></g><g><path class="class-2 leaflet-clickable" stroke-linejoin="round" stroke-linecap="round" fill-rule="evenodd" stroke="#005540" stroke-opacity="1" stroke-width="0.5" fill="#00cc99" fill-opacity="0.5" d="M250 174L252 177L251 182L249 177L250 174z"/></g><g><path class="class-2 leaflet-clickable" stroke-linejoin="round" stroke-linecap="round" fill-rule="evenodd" stroke="#005540" stroke-opacity="1" stroke-width="0.5" fill="#00cc99" fill-opacity="0.5" d="M339 153L339 154z"/></g><g><path class="class-2 leaflet-clickable" stroke-linejoin="round" stroke-linecap="round" fill-rule="evenodd" stroke="#005540" stroke-opacity="1" stroke-width="0.5" fill="#00cc99" fill-opacity="0.5" d="M332 112L332 112z"/></g><g><path class="class-2 leaflet-clickable" stroke-linejoin="round" stroke-linecap="round" fill-rule="evenodd" stroke="#005540" stroke-opacity="1" stroke-width="0.5" fill="#00cc99" fill-opacity="0.5" d="M332 105L334 107L333 108L331 108L331 105z"/></g><g><path class="class-2 leaflet-clickable" stroke-linejoin="round" stroke-linecap="round" fill-rule="evenodd" stroke="#005540" stroke-opacity="1" stroke-width="0.5" fill="#00cc99" fill-opacity="0.5" d="M330 86L327 88L325 93L327 95L327 102L330 103L331 105L331 110L329 113L329 123L333 129L333 137L335 142L334 149L340 157L340 159L343 159L357 172L360 182L362 180L364 184L367 184L369 191L375 195L374 197L376 199L376 205L344 205L347 201L346 198L348 194L346 190L341 186L341 184L338 181L336 181L335 177L332 176L332 174L310 159L311 157L308 153L308 146L302 140L303 134L297 127L296 128L295 119L288 112L289 109L287 106L288 107L289 104L283 99L283 96L278 88L278 85L332 80L330 86z"/></g><g><path class="class-2 leaflet-clickable" stroke-linejoin="round" stroke-linecap="round" fill-rule="evenodd" stroke="#005540" stroke-opacity="1" stroke-width="0.5" fill="#00cc99" fill-opacity="0.5" d="M862 470L865 473L866 472L866 474L870 476L869 477L874 481L879 483L880 488L886 491L885 498L856 498L845 518L848 522L845 527L846 531L844 535L816 507L808 501L803 500L801 496L803 495L803 492L801 489L807 473L815 466L815 464L819 460L818 458L821 453L824 455L824 457L826 457L825 459L828 465L829 464L831 466L830 467L831 466L833 468L837 463L842 462L841 461L847 458L847 456L850 454L853 455L853 459L857 460L857 466L862 467L863 470z"/></g><g><path class="class-2 leaflet-clickable" stroke-linejoin="round" stroke-linecap="round" fill-rule="evenodd" stroke="#005540" stroke-opacity="1" stroke-width="0.5" fill="#00cc99" fill-opacity="0.5" d="M698 417L697 414L703 414L706 412L705 411L711 411L716 415L716 417L718 417L721 420L720 422L717 421L715 424L712 423L709 426L702 420L701 417L699 418z"/></g><g><path class="class-2 leaflet-clickable" stroke-linejoin="round" stroke-linecap="round" fill-rule="evenodd" stroke="#005540" stroke-opacity="1" stroke-width="0.5" fill="#00cc99" fill-opacity="0.5" d="M332 444L332 444z"/></g><g><path class="class-2 leaflet-clickable" stroke-linejoin="round" stroke-linecap="round" fill-rule="evenodd" stroke="#005540" stroke-opacity="1" stroke-width="0.5" fill="#00cc99" fill-opacity="0.5" d="M417 432L419 434L418 435L416 433L417 432z"/></g><g><path class="class-2 leaflet-clickable" stroke-linejoin="round" stroke-linecap="round" fill-rule="evenodd" stroke="#005540" stroke-opacity="1" stroke-width="0.5" fill="#00cc99" fill-opacity="0.5" d="M588 429L582 436L568 426L561 424L562 425L565 422L566 423L574 421L573 420L575 416L580 419L584 416L588 420L588 429z"/></g><g><path class="class-2 leaflet-clickable" stroke-linejoin="round" stroke-linecap="round" fill-rule="evenodd" stroke="#005540" stroke-opacity="1" stroke-width="0.5" fill="#00cc99" fill-opacity="0.5" d="M421 422L421 421z"/></g><g><path class="class-2 leaflet-clickable" stroke-linejoin="round" stroke-linecap="round" fill-rule="evenodd" stroke="#005540" stroke-opacity="1" stroke-width="0.5" fill="#00cc99" fill-opacity="0.5" d="M951 368L951 380L948 386L937 398L931 398L925 404L923 404L922 407L920 407L921 408L915 414L914 413L911 415L908 413L904 407L904 404L901 400L899 400L895 393L892 394L887 391L886 384L888 379L898 374L924 370L928 367L933 367L936 365L951 368z"/></g><g><path class="class-2 leaflet-clickable" stroke-linejoin="round" stroke-linecap="round" fill-rule="evenodd" stroke="#005540" stroke-opacity="1" stroke-width="0.5" fill="#00cc99" fill-opacity="0.5" d="M901 341L904 342L905 344L903 346L900 343L901 341z"/></g><g><path class="class-2 leaflet-clickable" stroke-linejoin="round" stroke-linecap="round" fill-rule="evenodd" stroke="#005540" stroke-opacity="1" stroke-width="0.5" fill="#00cc99" fill-opacity="0.5" d="M718 349L720 357L728 366L726 372L727 378L734 392L741 398L748 407L751 419L756 424L756 426L759 427L761 432L766 435L775 435L785 440L792 449L801 447L802 456L810 460L812 463L812 470L810 470L807 473L783 472L784 470L779 467L775 462L777 460L776 459L774 459L768 464L765 464L761 459L763 454L762 449L754 449L755 448L754 449L752 447L747 438L743 437L742 444L740 440L736 439L734 441L731 437L728 436L730 431L729 428L736 422L727 419L728 418L726 416L726 414L729 411L729 407L733 401L726 398L723 402L719 400L720 397L718 395L719 393L720 394L723 392L720 391L718 384L716 384L715 390L713 391L711 388L710 391L705 395L700 396L701 395L699 392L702 390L703 387L701 388L705 383L705 385L707 385L708 380L710 378L706 376L707 375L704 376L701 373L702 370L701 371L698 365L703 361L700 356L702 357L703 353L706 350L698 346L704 346L707 344L713 347L716 351L717 349z"/></g><g><path class="class-1 leaflet-clickable" stroke-linejoin="round" stroke-linecap="round" fill-rule="evenodd" stroke="#005540" stroke-opacity="1" stroke-width="0.5" fill="#7fd" fill-opacity="0.5" d="M713 392L709 397L706 398L710 399L710 401L706 407L708 410L705 411L706 412L704 414L698 414L699 409L696 407L692 407L691 409L690 406L692 404L690 403L690 405L687 404L685 408L683 408L682 410L682 408L679 405L679 400L676 401L671 398L671 391L676 390L678 388L682 379L681 378L689 376L691 372L692 375L698 376L698 372L702 370L701 373L704 376L707 375L706 376L708 376L710 379L707 383L708 385L703 384L700 388L702 387L700 396L705 395L711 389L713 391z"/></g><g><path class="class-1 leaflet-clickable" stroke-linejoin="round" stroke-linecap="round" fill-rule="evenodd" stroke="#005540" stroke-opacity="1" stroke-width="0.5" fill="#7fd" fill-opacity="0.5" d="M691 427L694 430L698 428L696 434L697 441L696 442L694 440L689 444L683 441L679 436L684 425L691 427z"/></g><g><path class="class-1 leaflet-clickable" stroke-linejoin="round" stroke-linecap="round" fill-rule="evenodd" stroke="#005540" stroke-opacity="1" stroke-width="0.5" fill="#7fd" fill-opacity="0.5" d="M382 186L381 188L381 186z"/></g><g><path class="class-1 leaflet-clickable" stroke-linejoin="round" stroke-linecap="round" fill-rule="evenodd" stroke="#005540" stroke-opacity="1" stroke-width="0.5" fill="#7fd" fill-opacity="0.5" d="M388 173L390 179L387 186L382 182L383 175L387 173z"/></g><g><path class="class-1 leaflet-clickable" stroke-linejoin="round" stroke-linecap="round" fill-rule="evenodd" stroke="#005540" stroke-opacity="1" stroke-width="0.5" fill="#7fd" fill-opacity="0.5" d="M333 106L335 106L334 107z"/></g><g><path class="class-1 leaflet-clickable" stroke-linejoin="round" stroke-linecap="round" fill-rule="evenodd" stroke="#005540" stroke-opacity="1" stroke-width="0.5" fill="#7fd" fill-opacity="0.5" d="M330 86L410 115L415 118L468 118L467 120L465 120L466 123L469 125L468 126L470 126L467 126L467 129L464 129L464 132L466 135L465 136L472 141L471 144L473 145L471 145L471 158L473 158L473 160L470 160L471 166L469 168L469 182L472 186L474 196L462 198L461 202L465 209L464 210L468 213L470 217L472 222L470 224L473 231L476 231L470 239L470 241L468 241L465 244L465 246L457 248L457 244L455 241L450 238L445 238L441 229L433 227L429 223L426 223L427 209L425 207L424 208L420 206L420 208L418 208L418 206L412 204L406 195L402 193L396 186L397 184L390 180L390 173L388 170L387 171L385 169L386 167L382 162L380 156L377 155L377 148L369 134L370 122L364 119L357 118L357 114L352 110L344 113L335 106L328 103L326 96L327 95L325 93L327 91L327 87L330 87zM421 205L421 206z"/></g><g><path class="class-1 leaflet-clickable" stroke-linejoin="round" stroke-linecap="round" fill-rule="evenodd" stroke="#005540" stroke-opacity="1" stroke-width="0.5" fill="#7fd" fill-opacity="0.5" d="M742 443L738 447L733 449L730 448L725 452L723 452L721 446L717 446L717 453L719 451L720 452L718 452L715 455L713 453L709 453L709 455L704 456L703 453L699 454L689 446L689 444L692 441L697 442L696 434L699 428L698 417L700 417L709 426L712 423L715 425L717 422L721 421L718 417L715 416L716 415L714 413L712 413L712 411L707 412L708 411L706 408L711 401L709 398L706 398L709 397L715 390L716 384L719 385L719 389L723 392L718 395L720 397L719 400L723 402L726 398L732 401L726 416L728 418L727 419L736 422L734 424L735 425L731 424L728 437L729 436L734 441L738 439L742 443z"/></g><g><path class="class-0 leaflet-clickable" stroke-linejoin="round" stroke-linecap="round" fill-rule="evenodd" stroke="#005540" stroke-opacity="1" stroke-width="0.5" fill="#ddfff6" fill-opacity="0.5" d="M671 211L674 213L669 216L669 218L673 219L675 228L673 233L677 234L675 238L681 241L680 247L684 250L686 249L687 255L690 253L692 257L694 255L700 255L700 269L703 269L693 279L689 278L686 281L686 287L683 286L679 288L678 291L674 292L674 294L676 294L677 296L675 303L680 309L677 312L671 312L668 317L669 322L666 321L664 323L666 323L665 325L662 325L663 323L661 323L660 325L659 324L660 327L657 326L657 313L655 310L656 304L653 302L654 297L649 292L649 285L651 283L649 282L649 277L651 275L662 276L662 274L658 273L653 268L655 268L650 265L647 254L640 247L650 237L652 240L653 239L655 235L655 229L649 229L648 226L652 222L658 220L659 213L663 210L667 214L669 213z"/></g><g><path class="class-1 leaflet-clickable" stroke-linejoin="round" stroke-linecap="round" fill-rule="evenodd" stroke="#005540" stroke-opacity="1" stroke-width="0.5" fill="#7fd" fill-opacity="0.5" d="M671 211L667 215L663 210L659 213L658 220L652 222L648 226L649 229L655 229L655 235L653 239L652 240L650 237L640 247L649 258L648 261L652 267L655 268L653 268L657 271L657 273L662 273L662 276L651 275L649 277L649 281L651 283L649 285L648 292L646 293L638 286L632 288L630 286L631 285L617 278L611 278L612 281L607 279L602 288L593 282L594 281L588 275L588 273L590 271L591 272L588 268L592 262L591 252L593 249L591 241L583 238L583 236L580 233L582 230L578 210L579 209L577 209L577 206L579 206L579 203L585 192L584 191L592 179L596 180L597 177L601 173L602 174L601 172L603 170L604 164L608 159L612 159L615 156L626 159L634 158L636 162L638 162L638 164L639 163L639 165L652 176L656 188L660 193L659 194L671 210z"/></g><g><path class="class-0 leaflet-clickable" stroke-linejoin="round" stroke-linecap="round" fill-rule="evenodd" stroke="#005540" stroke-opacity="1" stroke-width="0.5" fill="#ddfff6" fill-opacity="0.5" d="M583 238L591 241L593 249L591 252L592 261L588 268L592 272L589 272L588 275L594 281L593 282L600 287L602 287L607 279L611 294L610 296L607 297L603 297L602 295L592 295L580 306L581 315L579 315L579 317L576 319L573 326L572 331L574 336L570 337L570 344L565 347L561 342L559 342L559 340L557 340L555 343L553 341L552 339L556 337L553 333L554 332L546 332L544 328L541 329L539 327L537 322L538 321L535 316L533 317L532 308L534 309L532 307L531 302L526 297L523 297L523 299L519 299L515 289L505 280L503 271L505 269L504 268L509 265L508 264L511 267L515 267L520 263L518 264L518 258L521 257L520 254L525 246L527 236L528 237L530 234L532 237L533 236L536 239L537 238L543 243L551 243L552 245L558 243L563 247L571 235L575 237L580 237z"/></g><g><path class="class-3 leaflet-clickable" stroke-linejoin="round" stroke-linecap="round" fill-rule="evenodd" stroke="#005540" stroke-opacity="1" stroke-width="0.5" fill="#086" fill-opacity="0.5" d="M807 473L801 489L803 492L802 496L804 500L798 497L788 495L776 496L771 501L767 501L757 506L756 505L753 508L744 508L735 505L732 502L718 501L708 494L701 493L705 490L704 487L709 485L708 484L711 481L711 477L713 475L708 474L707 470L706 471L706 464L702 460L703 456L707 454L708 455L710 453L714 453L717 455L719 452L718 451L717 453L716 448L721 445L723 452L730 448L735 449L742 443L743 437L749 440L754 449L762 449L763 454L761 459L765 463L768 464L774 459L776 459L777 460L775 462L779 467L784 470L783 471L802 473z"/></g><g><path class="class-1 leaflet-clickable" stroke-linejoin="round" stroke-linecap="round" fill-rule="evenodd" stroke="#005540" stroke-opacity="1" stroke-width="0.5" fill="#7fd" fill-opacity="0.5" d="M679 435L683 441L687 441L689 446L694 450L693 451L696 452L694 452L697 454L703 454L702 460L706 464L706 471L707 470L708 473L712 475L711 480L708 484L709 485L705 487L704 491L700 493L695 487L693 488L683 484L675 484L667 478L643 470L644 469L639 465L635 464L626 455L618 452L619 448L625 445L625 439L627 438L631 438L631 440L633 441L649 441L651 443L652 442L652 444L653 441L651 441L650 439L649 432L652 433L654 431L657 434L656 437L661 444L667 438L671 438L675 434L678 436z"/></g><g><path class="class-1 leaflet-clickable" stroke-linejoin="round" stroke-linecap="round" fill-rule="evenodd" stroke="#005540" stroke-opacity="1" stroke-width="0.5" fill="#7fd" fill-opacity="0.5" d="M659 397L663 399L662 401L665 404L664 405L666 408L664 408L662 412L663 419L660 420L658 426L652 433L649 432L650 439L653 441L653 444L649 441L646 442L644 440L638 439L634 441L628 438L625 439L624 441L625 446L618 449L618 455L588 445L582 436L588 429L593 428L596 430L599 427L599 425L600 426L600 424L605 422L606 423L608 421L609 417L605 417L606 415L603 410L605 408L604 406L598 405L598 402L601 401L600 400L605 401L611 396L618 395L622 395L621 396L623 396L625 400L629 400L630 397L634 396L634 398L637 399L635 399L635 402L637 404L641 404L641 402L643 402L646 406L656 406L659 405L658 402L660 398z"/></g><g><path class="class-1 leaflet-clickable" stroke-linejoin="round" stroke-linecap="round" fill-rule="evenodd" stroke="#005540" stroke-opacity="1" stroke-width="0.5" fill="#7fd" fill-opacity="0.5" d="M605 362L607 361L615 365L625 358L626 357L624 357L626 355L628 355L633 361L631 361L632 362L630 367L632 370L630 370L630 372L627 374L627 376L620 385L623 388L620 394L618 396L612 396L603 402L602 400L598 402L598 405L600 404L605 407L605 409L603 410L606 415L605 416L610 417L607 423L605 422L601 424L596 430L594 428L588 429L588 421L584 416L580 419L575 416L573 421L566 423L565 422L562 425L558 423L558 421L557 422L554 420L552 415L550 415L542 404L538 394L546 392L548 390L547 388L549 385L550 386L552 382L557 380L564 382L571 390L570 385L568 385L572 381L571 376L581 374L580 373L583 370L578 365L579 363L577 361L573 361L572 357L568 355L570 347L572 345L573 346L572 343L575 344L574 347L578 344L575 339L576 337L582 339L582 341L579 342L580 343L578 347L580 351L580 347L583 341L586 343L583 352L584 353L588 353L590 350L592 350L591 347L593 345L595 347L594 348L598 350L596 356L592 356L588 360L586 360L588 362L587 365L583 367L583 369L587 369L588 371L583 373L585 373L586 377L596 379L598 374L601 375L605 371L606 372L608 368L604 365L605 363z"/></g><g><path class="class-2 leaflet-clickable" stroke-linejoin="round" stroke-linecap="round" fill-rule="evenodd" stroke="#005540" stroke-opacity="1" stroke-width="0.5" fill="#00cc99" fill-opacity="0.5" d="M625 355L624 356L626 358L621 359L617 364L613 364L607 361L604 362L602 360L607 352L607 348L613 347L615 345L619 347L618 348L621 348L621 352L625 355z"/></g><g><path class="class-1 leaflet-clickable" stroke-linejoin="round" stroke-linecap="round" fill-rule="evenodd" stroke="#005540" stroke-opacity="1" stroke-width="0.5" fill="#7fd" fill-opacity="0.5" d="M665 325L667 329L665 331L667 335L665 337L670 337L678 341L679 337L687 346L700 346L706 350L700 357L702 357L702 361L698 365L701 368L701 370L697 372L699 372L698 376L694 376L691 372L688 373L686 364L681 370L679 370L675 366L673 366L673 368L670 369L661 363L659 363L657 367L653 368L649 366L646 362L633 360L637 355L637 351L635 348L638 344L636 339L637 338L634 337L632 341L631 340L630 343L627 344L625 342L625 339L623 340L618 335L616 330L617 328L615 325L617 323L615 323L617 320L619 322L627 320L640 308L640 302L643 301L644 296L646 299L651 295L654 296L653 301L656 303L656 326L659 327L659 324L660 325L661 323L663 323L662 325L664 325z"/></g><g><path class="class-1 leaflet-clickable" stroke-linejoin="round" stroke-linecap="round" fill-rule="evenodd" stroke="#005540" stroke-opacity="1" stroke-width="0.5" fill="#7fd" fill-opacity="0.5" d="M673 368L672 371L673 373L675 373L671 376L667 375L668 376L666 382L657 382L654 385L656 393L660 398L658 402L659 405L646 406L643 402L641 402L641 404L637 404L635 402L635 400L637 399L634 398L634 396L632 396L629 399L623 399L623 397L620 394L623 391L620 384L623 382L627 374L630 373L629 370L631 370L630 367L632 363L631 362L633 360L639 360L641 362L643 361L651 367L657 367L658 363L660 363L670 369L672 368z"/></g><g><path class="class-0 leaflet-clickable" stroke-linejoin="round" stroke-linecap="round" fill-rule="evenodd" stroke="#005540" stroke-opacity="1" stroke-width="0.5" fill="#ddfff6" fill-opacity="0.5" d="M689 373L688 376L684 378L683 376L678 386L679 388L671 391L671 398L669 397L669 402L665 404L662 401L662 398L660 398L656 394L654 385L657 382L665 382L666 379L667 380L667 375L673 375L675 373L672 372L674 366L681 370L686 364L688 373z"/></g><g><path class="class-0 leaflet-clickable" stroke-linejoin="round" stroke-linecap="round" fill-rule="evenodd" stroke="#005540" stroke-opacity="1" stroke-width="0.5" fill="#ddfff6" fill-opacity="0.5" d="M671 398L676 401L679 400L679 407L682 409L681 410L685 407L685 405L690 405L690 403L691 409L693 407L696 407L699 410L697 414L699 418L699 428L694 430L691 427L691 421L689 419L688 414L682 421L684 425L683 430L680 431L681 433L678 436L674 434L675 435L673 435L671 438L667 438L661 444L657 439L658 438L656 437L657 434L654 431L663 418L661 412L664 411L664 403L668 403L668 399L670 398z"/></g><g><path class="class-3 leaflet-clickable" stroke-linejoin="round" stroke-linecap="round" fill-rule="evenodd" stroke="#005540" stroke-opacity="1" stroke-width="0.5" fill="#086" fill-opacity="0.5" d="M649 292L651 295L646 299L644 297L643 301L641 302L640 308L635 313L627 320L622 322L619 322L617 320L615 323L617 323L615 325L619 336L623 340L625 339L625 342L627 344L630 343L634 337L637 338L636 339L638 343L636 344L635 348L637 350L637 355L634 359L633 360L632 358L625 355L621 352L621 348L620 349L615 345L613 347L607 348L607 352L602 359L605 363L605 366L608 368L607 371L605 371L601 375L598 374L598 378L596 379L592 379L585 376L583 372L587 371L587 369L583 369L583 367L587 365L588 362L586 360L596 355L598 350L596 348L595 349L593 345L591 347L592 350L590 350L589 353L583 352L586 349L586 344L585 342L583 342L581 343L580 351L578 347L580 343L579 342L582 341L582 339L579 337L575 338L578 343L575 347L575 343L573 343L571 347L569 346L570 338L574 336L572 331L575 319L580 315L581 316L580 306L584 302L586 302L586 299L588 299L590 295L602 295L605 297L610 296L611 291L607 283L607 280L612 281L611 278L620 279L625 281L627 284L631 285L630 286L632 288L638 286L641 288L642 291L646 293L649 292z"/></g><g><path class="class-3 leaflet-clickable" stroke-linejoin="round" stroke-linecap="round" fill-rule="evenodd" stroke="#005540" stroke-opacity="1" stroke-width="0.5" fill="#086" fill-opacity="0.5" d="M592 179L584 191L585 192L579 202L579 207L578 206L577 209L579 209L579 223L581 224L582 229L580 234L583 236L583 238L571 235L569 236L570 237L563 247L559 243L553 245L551 243L546 244L545 242L544 243L538 240L537 238L536 239L533 236L532 237L530 234L529 237L527 237L528 238L525 242L525 246L520 253L521 257L518 258L518 264L520 262L516 267L512 267L501 258L502 257L499 252L491 253L489 251L485 245L485 237L482 233L480 233L480 229L474 231L472 230L473 229L472 230L472 227L470 225L472 222L470 219L471 217L469 216L468 212L464 210L466 209L461 202L461 198L474 196L474 192L469 181L470 176L468 174L468 172L470 172L469 168L471 166L470 160L473 159L471 157L471 145L473 146L470 138L466 137L464 133L464 130L467 129L467 126L470 126L468 126L469 125L466 123L467 121L465 121L468 118L481 118L481 106L484 105L521 106L526 113L529 116L531 116L542 128L552 135L554 135L554 137L556 137L557 143L561 148L561 156L564 159L564 161L568 165L572 166L571 167L574 170L581 172L592 179z"/></g><g><path class="class-1 leaflet-clickable" stroke-linejoin="round" stroke-linecap="round" fill-rule="evenodd" stroke="#005540" stroke-opacity="1" stroke-width="0.5" fill="#7fd" fill-opacity="0.5" d="M457 248L461 248L466 244L467 241L471 239L475 229L481 230L480 233L482 233L485 236L485 245L491 253L500 253L502 256L501 258L507 262L507 264L509 264L506 267L504 267L505 270L503 271L505 275L505 280L507 280L510 286L515 289L518 295L517 296L520 299L523 299L523 297L529 299L531 305L534 308L532 308L533 316L536 317L538 321L537 322L539 324L539 328L545 329L542 333L542 340L543 339L544 342L543 343L539 341L538 344L520 325L519 321L513 315L508 307L490 294L474 274L461 269L458 265L454 265L452 257L457 248z"/></g><g><path class="class-2 leaflet-clickable" stroke-linejoin="round" stroke-linecap="round" fill-rule="evenodd" stroke="#005540" stroke-opacity="1" stroke-width="0.5" fill="#00cc99" fill-opacity="0.5" d="M444 302L442 302L442 297L444 301z"/></g><g><path class="class-2 leaflet-clickable" stroke-linejoin="round" stroke-linecap="round" fill-rule="evenodd" stroke="#005540" stroke-opacity="1" stroke-width="0.5" fill="#00cc99" fill-opacity="0.5" d="M432 293L432 296L431 293z"/></g><g><path class="class-2 leaflet-clickable" stroke-linejoin="round" stroke-linecap="round" fill-rule="evenodd" stroke="#005540" stroke-opacity="1" stroke-width="0.5" fill="#00cc99" fill-opacity="0.5" d="M431 291L431 292z"/></g><g><path class="class-2 leaflet-clickable" stroke-linejoin="round" stroke-linecap="round" fill-rule="evenodd" stroke="#005540" stroke-opacity="1" stroke-width="0.5" fill="#00cc99" fill-opacity="0.5" d="M424 279L427 281L428 284L424 280z"/></g><g><path class="class-2 leaflet-clickable" stroke-linejoin="round" stroke-linecap="round" fill-rule="evenodd" stroke="#005540" stroke-opacity="1" stroke-width="0.5" fill="#00cc99" fill-opacity="0.5" d="M424 273L423 275L424 273z"/></g><g><path class="class-2 leaflet-clickable" stroke-linejoin="round" stroke-linecap="round" fill-rule="evenodd" stroke="#005540" stroke-opacity="1" stroke-width="0.5" fill="#00cc99" fill-opacity="0.5" d="M422 263L423 266L422 264z"/></g><g><path class="class-2 leaflet-clickable" stroke-linejoin="round" stroke-linecap="round" fill-rule="evenodd" stroke="#005540" stroke-opacity="1" stroke-width="0.5" fill="#00cc99" fill-opacity="0.5" d="M416 263L416 265L416 263z"/></g><g><path class="class-2 leaflet-clickable" stroke-linejoin="round" stroke-linecap="round" fill-rule="evenodd" stroke="#005540" stroke-opacity="1" stroke-width="0.5" fill="#00cc99" fill-opacity="0.5" d="M416 254L416 256L414 256L412 260L413 261L412 258L413 255L415 255z"/></g><g><path class="class-2 leaflet-clickable" stroke-linejoin="round" stroke-linecap="round" fill-rule="evenodd" stroke="#005540" stroke-opacity="1" stroke-width="0.5" fill="#00cc99" fill-opacity="0.5" d="M411 252L411 252z"/></g><g><path class="class-2 leaflet-clickable" stroke-linejoin="round" stroke-linecap="round" fill-rule="evenodd" stroke="#005540" stroke-opacity="1" stroke-width="0.5" fill="#00cc99" fill-opacity="0.5" d="M393 224L393 226L392 224z"/></g><g><path class="class-2 leaflet-clickable" stroke-linejoin="round" stroke-linecap="round" fill-rule="evenodd" stroke="#005540" stroke-opacity="1" stroke-width="0.5" fill="#00cc99" fill-opacity="0.5" d="M396 219L395 219z"/></g><g><path class="class-2 leaflet-clickable" stroke-linejoin="round" stroke-linecap="round" fill-rule="evenodd" stroke="#005540" stroke-opacity="1" stroke-width="0.5" fill="#00cc99" fill-opacity="0.5" d="M322 208L322 208z"/></g><g><path class="class-2 leaflet-clickable" stroke-linejoin="round" stroke-linecap="round" fill-rule="evenodd" stroke="#005540" stroke-opacity="1" stroke-width="0.5" fill="#00cc99" fill-opacity="0.5" d="M344 205L377 205L379 212L387 218L390 224L389 225L396 229L394 230L394 232L396 234L398 233L401 235L404 241L407 243L406 244L410 254L410 262L415 268L417 268L418 274L425 285L423 293L426 300L432 302L432 298L435 298L440 302L440 305L444 306L444 308L447 311L447 314L452 317L453 324L449 329L440 334L437 330L435 320L431 316L427 314L415 302L405 297L400 298L390 290L390 287L387 286L392 274L392 261L386 250L379 248L364 236L362 235L359 238L352 231L348 231L345 227L341 227L338 224L337 220L324 209L325 208L337 211L343 208L344 206z"/></g></svg>