<svg xmlns="http://www.w3.org/2000/svg" class="leaflet-zoom-animated" width="1981" height="733" viewBox="-214 -79 1981 733" style="transform: translate3d(-214px, -79px, 0px);"><g><path class="class-3 leaflet-clickable" stroke-linejoin="round" stroke-linecap="round" fill-rule="evenodd" stroke="#005540" stroke-opacity="1" stroke-width="0.5" fill="#086" fill-opacity="0.5" d="M0 0"/></g><g><path class="class-3 leaflet-clickable" stroke-linejoin="round" stroke-linecap="round" fill-rule="evenodd" stroke="#005540" stroke-opacity="1" stroke-width="0.5" fill="#086" fill-opacity="0.5" d="M0 0"/></g><g><path class="class-3 leaflet-clickable" stroke-linejoin="round" stroke-linecap="round" fill-rule="evenodd" stroke="#005540" stroke-opacity="1" stroke-width="0.5" fill="#086" fill-opacity="0.5" d="M0 0"/></g><g><path class="class-3 leaflet-clickable" stroke-linejoin="round" stroke-linecap="round" fill-rule="evenodd" stroke="#005540" stroke-opacity="1" stroke-width="0.5" fill="#086" fill-opacity="0.5" d="M573 -79L555 -40L560 -38L558 -34L554 -35L555 -37L553 -38L554 -28L552 -26L558 -25L555 -22L560 -16L558 -16L559 -1L561 -2L562 4L560 28L564 30L567 38L568 51L571 52L572 58L569 59L568 62L562 67L564 67L562 70L566 75L571 77L576 88L561 85L549 85L549 83L546 83L545 86L528 83L524 76L520 81L520 84L523 88L519 95L509 100L503 115L504 118L496 127L495 123L492 124L484 114L475 110L467 110L460 116L453 118L448 109L434 115L431 112L429 115L425 112L425 108L413 109L413 107L408 106L403 97L403 99L396 99L395 95L390 89L385 91L387 95L379 86L376 86L362 76L357 85L355 83L352 83L351 88L355 89L349 91L350 92L348 93L345 100L346 103L341 110L344 110L343 111L345 114L343 121L340 122L339 125L342 124L341 128L338 126L327 141L329 148L325 150L325 165L318 167L316 171L316 193L324 188L306 206L305 204L287 205L285 198L276 196L279 195L279 192L271 192L270 186L249 169L250 163L248 154L238 147L233 148L231 151L228 151L224 145L218 146L211 144L207 148L205 148L202 143L198 142L198 139L183 117L187 114L189 110L181 99L177 97L182 94L184 84L181 84L182 81L176 73L171 74L172 71L165 72L164 70L163 64L167 62L167 57L162 56L159 59L157 56L154 60L153 58L147 59L140 56L141 58L139 60L134 60L133 55L130 56L129 44L126 42L124 38L128 30L131 28L127 21L127 16L124 12L125 5L117 -1L115 -12L109 -16L103 -16L101 -20L105 -26L101 -28L100 -36L97 -40L91 -44L87 -56L87 -71L92 -71L94 -69L113 -69L112 -70L120 -72L122 -74L127 -74L127 -77L130 -78L134 -75L137 -77L137 -79L139 -79z"/></g><g><path class="class-3 leaflet-clickable" stroke-linejoin="round" stroke-linecap="round" fill-rule="evenodd" stroke="#005540" stroke-opacity="1" stroke-width="0.5" fill="#086" fill-opacity="0.5" d="M0 0"/></g><g><path class="class-3 leaflet-clickable" stroke-linejoin="round" stroke-linecap="round" fill-rule="evenodd" stroke="#005540" stroke-opacity="1" stroke-width="0.5" fill="#086" fill-opacity="0.5" d="M1114 535L1114 543L1117 554L1130 577L1134 583L1156 603L1154 615L1148 625L1148 639L1154.875 654L1081 654L1081 650L1076 646L1076 644L1072 646L1071 644L1068 644L1070 641L1069 639L1064 641L1064 643L1057 643L1051 636L1052 635L1046 632L1052 623L1051 620L1047 619L1048 613L1046 610L1040 606L1037 594L1044 591L1043 588L1045 588L1046 590L1053 583L1053 581L1050 576L1048 578L1045 571L1048 570L1045 568L1049 568L1048 565L1044 567L1042 563L1045 564L1047 562L1052 564L1051 562L1053 561L1055 552L1057 551L1055 549L1064 542L1063 539L1065 537L1061 537L1061 535L1058 535L1058 532L1056 533L1054 530L1050 531L1042 524L1033 524L1034 521L1037 520L1041 522L1049 518L1052 518L1053 520L1054 518L1056 518L1055 520L1058 521L1060 519L1060 522L1063 522L1066 520L1065 518L1067 515L1072 516L1072 514L1076 515L1078 519L1085 522L1088 526L1096 526L1098 528L1096 530L1101 534L1104 539L1110 540L1110 537L1112 536z"/></g><g><path class="class-3 leaflet-clickable" stroke-linejoin="round" stroke-linecap="round" fill-rule="evenodd" stroke="#005540" stroke-opacity="1" stroke-width="0.5" fill="#086" fill-opacity="0.5" d="M0 0"/></g><g><path class="class-3 leaflet-clickable" stroke-linejoin="round" stroke-linecap="round" fill-rule="evenodd" stroke="#005540" stroke-opacity="1" stroke-width="0.5" fill="#086" fill-opacity="0.5" d="M0 0"/></g><g><path class="class-3 leaflet-clickable" stroke-linejoin="round" stroke-linecap="round" fill-rule="evenodd" stroke="#005540" stroke-opacity="1" stroke-width="0.5" fill="#086" fill-opacity="0.5" d="M0 0"/></g><g><path class="class-3 leaflet-clickable" stroke-linejoin="round" stroke-linecap="round" fill-rule="evenodd" stroke="#005540" stroke-opacity="1" stroke-width="0.5" fill="#086" fill-opacity="0.5" d="M0 0"/></g><g><path class="class-3 leaflet-clickable" stroke-linejoin="round" stroke-linecap="round" fill-rule="evenodd" stroke="#005540" stroke-opacity="1" stroke-width="0.5" fill="#086" fill-opacity="0.5" d="M0 0"/></g><g><path class="class-3 leaflet-clickable" stroke-linejoin="round" stroke-linecap="round" fill-rule="evenodd" stroke="#005540" stroke-opacity="1" stroke-width="0.5" fill="#086" fill-opacity="0.5" d="M0 0"/></g><g><path class="class-3 leaflet-clickable" stroke-linejoin="round" stroke-linecap="round" fill-rule="evenodd" stroke="#005540" stroke-opacity="1" stroke-width="0.5" fill="#086" fill-opacity="0.5" d="M0 0"/></g><g><path class="class-3 leaflet-clickable" stroke-linejoin="round" stroke-linecap="round" fill-rule="evenodd" stroke="#005540" stroke-opacity="1" stroke-width="0.5" fill="#086" fill-opacity="0.5" d="M0 0"/></g><g><path class="class-3 leaflet-clickable" stroke-linejoin="round" stroke-linecap="round" fill-rule="evenodd" stroke="#005540" stroke-opacity="1" stroke-width="0.5" fill="#086" fill-opacity="0.5" d="M0 0"/></g><g><path class="class-3 leaflet-clickable" stroke-linejoin="round" stroke-linecap="round" fill-rule="evenodd" stroke="#005540" stroke-opacity="1" stroke-width="0.5" fill="#086" fill-opacity="0.5" d="M0 0"/></g><g><path class="class-3 leaflet-clickable" stroke-linejoin="round" stroke-linecap="round" fill-rule="evenodd" stroke="#005540" stroke-opacity="1" stroke-width="0.5" fill="#086" fill-opacity="0.5" d="M0 0"/></g><g><path class="class-2 leaflet-clickable" stroke-linejoin="round" stroke-linecap="round" fill-rule="evenodd" stroke="#005540" stroke-opacity="1" stroke-width="0.5" fill="#00cc99" fill-opacity="0.5" d="M971 654L970 651L968 651L967 649L971 648L976 644L980 648L984 648L992 643L997 643L1000 641L999 637L997 636L999 634L999 631L1003 629L1009 628L1014 639L1020 643L1023 642L1022 639L1028 641L1032 641L1033 639L1039 639L1040 630L1034 627L1033 625L1036 622L1048 622L1049 620L1051 620L1052 622L1046 632L1048 634L1052 634L1051 636L1054 638L1054 641L1057 643L1064 643L1064 641L1069 639L1070 641L1068 644L1071 644L1072 646L1076 644L1076 646L1081 650L1081 654z"/></g><g><path class="class-2 leaflet-clickable" stroke-linejoin="round" stroke-linecap="round" fill-rule="evenodd" stroke="#005540" stroke-opacity="1" stroke-width="0.5" fill="#00cc99" fill-opacity="0.5" d="M0 0"/></g><g><path class="class-2 leaflet-clickable" stroke-linejoin="round" stroke-linecap="round" fill-rule="evenodd" stroke="#005540" stroke-opacity="1" stroke-width="0.5" fill="#00cc99" fill-opacity="0.5" d="M903 439L902 449L907 450L906 452L912 455L907 459L906 462L905 461L905 465L903 464L903 470L909 470L910 479L904 485L911 489L916 487L923 487L927 489L927 494L930 496L938 496L942 493L953 497L955 500L959 499L954 487L959 487L964 495L969 494L970 499L974 498L978 506L982 520L998 520L1010 522L1014 526L1015 524L1020 525L1034 521L1033 524L1042 524L1042 526L1046 527L1050 531L1054 530L1056 533L1058 532L1058 534L1061 535L1061 537L1065 537L1063 539L1064 542L1055 549L1057 551L1055 552L1053 561L1051 562L1052 564L1047 562L1045 564L1042 563L1044 567L1047 565L1049 568L1046 567L1045 568L1048 570L1045 571L1048 577L1050 576L1050 579L1053 581L1053 583L1046 590L1045 588L1043 588L1044 590L1037 594L1040 606L1046 609L1048 613L1047 619L1049 620L1048 622L1036 622L1035 624L1033 624L1034 627L1040 630L1039 639L1033 639L1032 641L1022 639L1023 642L1020 643L1014 639L1009 628L1000 631L996 629L994 630L991 626L992 623L995 623L995 618L992 613L991 606L992 601L987 594L984 593L981 599L978 599L979 603L976 606L973 606L972 604L970 605L970 609L967 616L964 614L959 617L952 614L947 609L944 603L941 602L936 602L936 607L932 612L925 612L921 614L918 613L916 609L917 607L907 607L903 601L899 598L898 599L898 596L888 591L873 592L870 599L871 604L861 606L857 609L857 606L855 605L855 607L853 607L847 604L846 602L835 598L837 593L831 592L829 590L830 588L827 588L823 585L816 583L809 585L804 582L802 578L795 579L789 576L783 578L779 577L777 579L776 577L778 576L778 573L784 569L783 567L789 561L790 558L787 558L788 556L790 556L792 547L790 543L792 540L787 534L784 534L786 533L782 527L782 525L787 525L788 517L793 516L796 510L794 500L791 496L787 494L790 490L784 487L777 487L777 491L770 496L770 500L768 499L768 502L762 510L754 510L755 513L752 512L750 515L746 511L747 506L742 505L744 496L736 497L719 483L713 475L709 457L707 457L711 449L709 441L704 439L705 435L708 435L710 431L708 434L704 430L708 426L709 418L713 418L715 426L720 427L751 418L804 371L802 347L816 342L821 324L821 329L827 335L848 314L858 323L855 340L860 340L859 345L857 345L866 349L862 371L863 378L867 383L867 389L872 395L868 402L868 406L870 406L871 411L868 410L866 420L871 426L869 443L883 446L883 443L880 443L879 436L885 436L887 431L894 431L892 437L900 438z"/></g><g><path class="class-2 leaflet-clickable" stroke-linejoin="round" stroke-linecap="round" fill-rule="evenodd" stroke="#005540" stroke-opacity="1" stroke-width="0.5" fill="#00cc99" fill-opacity="0.5" d="M0 0"/></g><g><path class="class-2 leaflet-clickable" stroke-linejoin="round" stroke-linecap="round" fill-rule="evenodd" stroke="#005540" stroke-opacity="1" stroke-width="0.5" fill="#00cc99" fill-opacity="0.5" d="M0 0"/></g><g><path class="class-2 leaflet-clickable" stroke-linejoin="round" stroke-linecap="round" fill-rule="evenodd" stroke="#005540" stroke-opacity="1" stroke-width="0.5" fill="#00cc99" fill-opacity="0.5" d="M576 88L580 89L581 92L582 91L606 101L611 125L616 133L608 147L608 176L611 180L610 186L607 195L603 198L603 200L601 200L600 204L595 209L606 221L609 221L609 225L603 222L598 225L594 233L594 237L597 237L599 242L603 244L607 252L608 251L615 257L615 261L617 263L616 266L631 280L647 285L653 289L653 285L670 256L673 262L672 265L669 265L669 268L679 272L686 301L687 320L683 320L682 322L676 322L670 325L662 325L659 322L655 324L650 317L649 320L643 317L641 319L636 316L633 320L632 319L631 323L627 320L619 321L617 318L615 320L602 320L598 331L596 331L593 334L588 334L589 343L583 351L582 352L580 348L563 360L562 364L564 366L564 372L562 375L565 382L561 387L563 392L562 395L568 395L567 399L566 401L562 398L556 406L543 416L538 431L537 444L533 449L533 464L535 470L539 473L538 477L540 484L534 486L529 484L527 487L524 488L525 490L523 491L524 493L522 495L525 502L519 508L522 514L520 518L504 523L504 526L496 522L494 515L489 515L488 505L482 506L479 504L478 498L472 496L470 501L461 511L459 511L457 503L451 496L451 494L467 488L465 487L465 480L461 480L459 477L459 473L457 471L458 467L456 464L451 466L431 466L428 468L427 462L425 460L426 456L425 454L422 454L420 450L412 449L409 450L409 452L407 452L399 448L400 439L399 436L394 432L392 425L394 420L390 418L392 416L387 406L384 403L384 401L377 403L376 407L373 394L375 389L370 378L371 372L377 375L379 375L380 372L376 368L372 368L375 364L367 358L366 355L368 352L366 351L363 341L360 341L359 334L353 329L342 325L335 328L334 332L328 334L324 335L318 332L313 325L314 324L312 321L315 319L316 315L310 313L310 310L308 310L302 296L288 281L283 281L281 278L282 276L276 270L274 272L274 269L269 260L264 257L264 244L262 240L265 238L261 236L257 229L260 230L256 221L261 218L263 213L259 211L260 206L264 207L273 203L278 199L276 196L285 198L287 205L305 204L306 206L320 191L324 189L316 193L317 167L325 165L325 150L329 148L327 141L338 126L341 128L342 124L339 125L340 122L343 121L345 114L343 111L344 110L341 110L345 106L345 100L348 93L350 92L349 91L355 89L351 88L351 83L355 83L357 85L362 76L372 84L378 87L379 86L387 95L385 91L390 89L396 97L396 99L403 99L403 97L408 106L413 107L413 109L424 108L426 111L425 112L429 115L431 112L434 115L448 109L453 119L455 117L460 116L467 110L475 110L484 114L489 122L492 124L495 123L496 127L504 118L503 115L509 100L519 95L523 88L520 84L520 81L524 76L528 83L544 86L546 83L549 83L549 85L561 85z"/></g><g><path class="class-2 leaflet-clickable" stroke-linejoin="round" stroke-linecap="round" fill-rule="evenodd" stroke="#005540" stroke-opacity="1" stroke-width="0.5" fill="#00cc99" fill-opacity="0.5" d="M1114 535L1110 537L1110 540L1104 539L1096 530L1098 528L1096 526L1088 526L1087 524L1078 519L1076 515L1072 514L1072 516L1067 515L1065 518L1066 520L1063 522L1060 522L1060 519L1058 521L1055 520L1056 518L1054 518L1053 520L1052 518L1049 518L1041 522L1037 520L1021 525L1015 524L1014 526L1010 522L998 520L982 520L978 506L974 498L970 499L969 494L964 495L959 487L954 487L959 499L955 500L953 497L942 493L938 496L930 496L927 494L927 489L923 487L916 487L911 489L904 486L910 479L909 470L903 470L903 464L905 465L904 461L906 462L907 459L912 455L906 452L907 450L902 449L902 442L906 432L900 428L905 423L920 424L916 407L925 385L934 384L947 387L951 385L959 375L962 376L959 367L955 363L954 359L952 359L944 351L945 342L950 330L950 323L946 312L938 314L937 307L948 300L954 302L954 300L959 298L958 295L960 292L967 289L971 285L977 283L984 286L987 285L985 277L989 271L987 262L989 260L989 257L991 258L997 255L999 250L1002 254L1006 256L1010 255L1056 218L1056 213L1042 213L1042 160L1020 157L1013 165L1002 151L996 155L995 154L989 156L986 136L980 136L971 128L967 131L965 126L968 101L955 94L944 94L943 92L948 88L947 84L951 77L950 74L945 71L941 71L941 69L936 69L934 71L934 67L937 68L945 53L942 50L936 32L935 15L920 10L919 4L938 -10L939 -7L943 -8L943 -5L946 -4L949 -6L951 -3L955 -2L957 3L956 9L960 10L958 26L955 28L959 29L959 32L964 34L963 37L965 42L965 51L963 53L963 58L966 58L969 62L969 67L973 68L975 70L975 74L979 76L982 82L982 86L985 88L989 105L988 107L992 108L994 111L994 118L996 122L1000 120L1003 122L1006 121L1008 122L1008 124L1010 122L1014 126L1020 124L1024 129L1026 128L1030 133L1029 134L1033 135L1034 138L1042 136L1043 139L1055 139L1055 142L1060 146L1063 145L1067 151L1070 150L1072 154L1075 154L1077 156L1079 154L1081 157L1083 155L1088 155L1088 157L1091 158L1092 155L1098 157L1106 155L1112 156L1113 158L1117 159L1125 159L1131 166L1136 168L1138 173L1141 172L1141 174L1144 174L1147 178L1152 178L1152 170L1161 168L1160 166L1173 166L1170 193L1142 250L1134 271L1124 312L1120 349L1119 387L1116 424L1117 461L1114 482L1108 499L1109 520L1112 530z"/></g><g><path class="class-2 leaflet-clickable" stroke-linejoin="round" stroke-linecap="round" fill-rule="evenodd" stroke="#005540" stroke-opacity="1" stroke-width="0.5" fill="#00cc99" fill-opacity="0.5" d="M0 0"/></g><g><path class="class-1 leaflet-clickable" stroke-linejoin="round" stroke-linecap="round" fill-rule="evenodd" stroke="#005540" stroke-opacity="1" stroke-width="0.5" fill="#7fd" fill-opacity="0.5" d="M0 0"/></g><g><path class="class-1 leaflet-clickable" stroke-linejoin="round" stroke-linecap="round" fill-rule="evenodd" stroke="#005540" stroke-opacity="1" stroke-width="0.5" fill="#7fd" fill-opacity="0.5" d="M0 0"/></g><g><path class="class-1 leaflet-clickable" stroke-linejoin="round" stroke-linecap="round" fill-rule="evenodd" stroke="#005540" stroke-opacity="1" stroke-width="0.5" fill="#7fd" fill-opacity="0.5" d="M999 631L999 634L997 635L1000 641L998 643L992 643L984 648L980 648L976 644L972 648L967 649L968 651L970 651L971 654L912 654L910 651L914 637L922 640L923 642L928 643L937 635L940 636L940 632L943 629L937 628L935 630L932 627L931 623L933 622L933 610L936 607L936 602L944 603L947 609L955 616L958 617L964 614L966 616L970 609L970 605L971 604L973 606L976 606L979 603L978 599L981 599L984 594L987 594L988 597L992 600L992 613L995 618L995 623L992 623L991 626L994 629L996 629z"/></g><g><path class="class-1 leaflet-clickable" stroke-linejoin="round" stroke-linecap="round" fill-rule="evenodd" stroke="#005540" stroke-opacity="1" stroke-width="0.5" fill="#7fd" fill-opacity="0.5" d="M927 -19L913 -3L896 -22L881 -10L875 20L851 26L837 40L837 52L840 55L843 54L845 56L845 53L850 49L853 52L864 55L863 80L859 85L857 92L850 99L844 87L803 124L812 135L817 145L821 146L829 154L830 166L837 167L837 176L834 180L840 191L842 198L846 199L850 206L855 205L858 208L864 209L865 211L858 210L856 212L860 213L860 215L864 216L865 219L870 220L872 222L870 229L877 230L883 228L887 230L891 236L889 237L892 241L889 242L883 240L883 244L859 237L848 239L840 246L838 263L847 271L837 280L840 288L839 308L832 306L831 304L826 308L814 304L810 300L803 286L793 283L791 281L785 284L780 289L765 287L763 283L766 284L767 279L762 277L759 279L751 275L744 261L704 250L689 251L690 263L670 256L653 285L653 289L647 285L631 280L616 266L617 264L615 261L615 257L608 251L607 252L603 244L599 242L597 237L594 237L593 233L598 225L603 222L608 225L609 221L606 221L595 209L600 204L601 200L603 200L603 198L607 195L610 186L611 180L608 176L608 147L616 133L611 125L606 101L582 91L581 92L580 89L575 87L571 77L569 77L562 71L564 67L562 67L568 62L569 59L572 58L571 52L568 51L567 38L564 30L560 28L562 4L561 -2L559 -1L558 -7L558 -16L560 -16L555 -22L558 -25L552 -26L554 -28L553 -38L555 -37L554 -35L558 -34L560 -38L555 -40L573 -79L884 -79L889 -67L892 -67L894 -63L898 -60L905 -58L914 -42L919 -41L918 -38L920 -34L922 -34L924 -22L926 -21z"/></g><g><path class="class-1 leaflet-clickable" stroke-linejoin="round" stroke-linecap="round" fill-rule="evenodd" stroke="#005540" stroke-opacity="1" stroke-width="0.5" fill="#7fd" fill-opacity="0.5" d="M346 623L346 626L344 627L341 624L343 622z"/></g><g><path class="class-1 leaflet-clickable" stroke-linejoin="round" stroke-linecap="round" fill-rule="evenodd" stroke="#005540" stroke-opacity="1" stroke-width="0.5" fill="#7fd" fill-opacity="0.5" d="M327 610L333 611L334 613L332 614L331 617L322 613L325 610z"/></g><g><path class="class-1 leaflet-clickable" stroke-linejoin="round" stroke-linecap="round" fill-rule="evenodd" stroke="#005540" stroke-opacity="1" stroke-width="0.5" fill="#7fd" fill-opacity="0.5" d="M307 590L317 593L320 602L318 604L309 599L310 598L307 595L308 592z"/></g><g><path class="class-1 leaflet-clickable" stroke-linejoin="round" stroke-linecap="round" fill-rule="evenodd" stroke="#005540" stroke-opacity="1" stroke-width="0.5" fill="#7fd" fill-opacity="0.5" d="M305 582L307 586L305 587L304 585z"/></g><g><path class="class-1 leaflet-clickable" stroke-linejoin="round" stroke-linecap="round" fill-rule="evenodd" stroke="#005540" stroke-opacity="1" stroke-width="0.5" fill="#7fd" fill-opacity="0.5" d="M517 520L517 522L522 525L523 531L519 536L518 542L516 544L515 563L519 563L522 560L526 564L531 562L533 563L531 575L534 579L541 582L544 581L556 583L555 586L559 590L555 596L557 597L556 601L562 605L561 607L565 610L567 611L569 609L571 612L574 617L571 617L571 625L563 635L561 634L556 636L551 633L547 636L547 638L541 640L531 639L528 643L530 646L527 653L435 654L437 651L436 645L438 638L435 625L439 616L441 615L439 611L440 610L437 607L434 608L417 597L398 558L400 543L395 521L388 508L389 507L393 514L396 514L397 513L394 505L400 502L403 505L403 508L409 508L409 510L417 509L417 500L415 496L412 496L410 489L410 484L415 473L412 466L416 464L420 459L420 455L422 454L425 454L426 456L425 460L427 462L428 468L431 466L451 466L456 464L458 467L457 470L459 473L459 477L461 480L465 480L465 487L467 488L451 494L451 496L457 503L459 511L461 511L470 501L472 496L475 498L478 497L479 504L482 506L488 505L489 515L494 515L496 522L498 522L500 525L503 526L504 523L515 519z"/></g><g><path class="class-1 leaflet-clickable" stroke-linejoin="round" stroke-linecap="round" fill-rule="evenodd" stroke="#005540" stroke-opacity="1" stroke-width="0.5" fill="#7fd" fill-opacity="0.5" d="M0 0"/></g><g><path class="class-1 leaflet-clickable" stroke-linejoin="round" stroke-linecap="round" fill-rule="evenodd" stroke="#005540" stroke-opacity="1" stroke-width="0.5" fill="#7fd" fill-opacity="0.5" d="M0 0"/></g><g><path class="class-1 leaflet-clickable" stroke-linejoin="round" stroke-linecap="round" fill-rule="evenodd" stroke="#005540" stroke-opacity="1" stroke-width="0.5" fill="#7fd" fill-opacity="0.5" d="M0 0"/></g><g><path class="class-1 leaflet-clickable" stroke-linejoin="round" stroke-linecap="round" fill-rule="evenodd" stroke="#005540" stroke-opacity="1" stroke-width="0.5" fill="#7fd" fill-opacity="0.5" d="M0 0"/></g><g><path class="class-1 leaflet-clickable" stroke-linejoin="round" stroke-linecap="round" fill-rule="evenodd" stroke="#005540" stroke-opacity="1" stroke-width="0.5" fill="#7fd" fill-opacity="0.5" d="M0 0"/></g><g><path class="class-1 leaflet-clickable" stroke-linejoin="round" stroke-linecap="round" fill-rule="evenodd" stroke="#005540" stroke-opacity="1" stroke-width="0.5" fill="#7fd" fill-opacity="0.5" d="M840 307L845 317L835 328L827 335L821 329L821 324L816 342L802 347L804 371L791 383L751 418L720 427L715 426L713 418L709 418L708 426L704 430L708 434L709 431L708 434L705 435L704 439L709 441L711 449L707 457L709 457L713 475L719 483L736 497L744 496L742 505L747 506L746 510L750 515L752 512L755 513L754 510L762 510L768 502L768 499L770 500L770 496L777 491L777 487L784 487L789 490L787 494L791 496L795 503L796 510L793 516L788 516L787 525L782 525L782 527L786 533L784 534L787 534L792 540L790 543L792 547L790 556L788 556L787 558L790 558L789 561L785 564L783 567L784 568L778 573L778 576L776 577L777 579L773 579L771 576L770 569L764 569L760 564L753 559L751 560L750 558L743 558L743 556L734 549L728 548L729 545L727 545L731 544L731 537L729 536L728 532L724 530L723 532L717 532L717 526L708 524L708 522L704 519L704 515L702 515L701 522L696 525L688 526L688 530L683 532L670 532L672 540L669 543L670 545L668 547L668 550L662 553L657 561L651 576L653 577L653 580L655 580L656 583L663 588L658 593L660 594L661 600L666 602L667 605L672 606L672 608L674 609L671 615L672 621L669 625L667 625L666 621L664 620L662 627L656 627L657 629L653 630L651 635L649 635L647 638L644 637L644 635L642 635L641 633L639 633L638 635L635 633L632 639L632 645L634 649L633 651L628 653L621 649L619 651L616 650L616 652L614 653L613 652L607 654L601 646L602 645L600 644L594 646L593 644L591 644L588 647L586 646L583 639L580 638L582 635L582 631L577 630L575 632L574 628L576 626L578 627L579 625L584 624L587 626L589 624L592 624L594 621L590 615L585 620L583 616L580 616L579 613L576 613L578 608L577 604L581 602L583 604L586 601L589 602L589 596L593 589L592 583L588 581L592 580L591 578L598 577L601 571L603 569L608 569L614 561L620 564L622 563L622 560L630 559L630 554L626 553L628 550L632 549L633 547L630 545L630 543L635 537L632 535L631 532L622 531L622 533L620 533L624 523L620 520L614 520L607 524L608 533L610 530L612 530L613 531L611 535L613 536L609 536L605 538L605 540L602 539L600 549L594 550L593 548L591 549L589 547L585 551L580 550L577 548L585 533L583 533L581 529L582 527L584 527L586 520L589 519L587 511L583 505L579 507L572 504L566 517L566 523L563 527L564 532L561 544L556 534L557 532L555 528L559 521L561 521L559 518L561 511L560 509L562 506L561 505L570 499L571 490L560 488L558 489L557 487L546 487L543 491L547 495L547 502L550 502L549 505L551 507L548 508L554 511L555 514L549 520L548 524L544 523L543 525L540 525L540 523L542 523L541 522L544 515L542 508L539 508L536 511L531 510L530 512L532 515L530 516L533 517L534 522L530 519L527 520L524 527L522 527L522 525L517 522L517 520L520 518L522 514L519 508L524 502L524 498L522 495L524 493L523 491L525 490L524 488L529 484L532 486L540 484L538 477L539 473L533 464L533 449L537 444L538 431L541 420L546 413L559 404L562 398L566 401L567 399L568 395L562 395L563 392L561 387L565 383L564 378L562 376L565 366L562 364L563 360L566 360L576 350L580 348L582 352L583 351L589 343L588 334L593 334L596 331L598 331L602 320L615 320L617 318L619 321L625 319L631 323L632 319L633 320L636 316L641 319L643 317L649 320L650 317L655 324L659 322L662 325L670 325L676 322L682 322L683 320L687 320L686 301L679 272L669 268L669 265L672 265L673 262L670 256L690 263L689 251L704 250L744 261L751 275L759 279L762 277L767 279L766 284L763 283L765 287L780 289L785 284L791 281L793 283L802 285L810 300L814 304L826 308L831 304L832 306L839 308z"/></g><g><path class="class-1 leaflet-clickable" stroke-linejoin="round" stroke-linecap="round" fill-rule="evenodd" stroke="#005540" stroke-opacity="1" stroke-width="0.5" fill="#7fd" fill-opacity="0.5" d="M933 610L933 622L931 623L935 630L939 628L943 629L940 632L940 636L937 635L928 643L914 637L910 648L912 654L740 654L742 649L746 649L746 645L749 642L750 643L752 633L763 629L763 624L760 620L769 617L768 613L763 607L767 603L766 601L769 597L768 596L771 586L769 586L769 583L773 582L779 577L783 578L789 576L795 579L802 578L802 580L809 585L816 583L823 585L830 588L829 590L831 592L837 593L835 598L846 602L847 604L853 607L855 607L855 605L857 606L857 609L864 605L871 605L870 599L873 592L888 591L898 596L897 599L899 598L903 601L907 607L917 607L916 609L918 613L929 613L932 612L932 610z"/></g><g><path class="class-1 leaflet-clickable" stroke-linejoin="round" stroke-linecap="round" fill-rule="evenodd" stroke="#005540" stroke-opacity="1" stroke-width="0.5" fill="#7fd" fill-opacity="0.5" d="M21 347L15 348L12 344L8 326L10 326L19 342z"/></g><g><path class="class-1 leaflet-clickable" stroke-linejoin="round" stroke-linecap="round" fill-rule="evenodd" stroke="#005540" stroke-opacity="1" stroke-width="0.5" fill="#7fd" fill-opacity="0.5" d="M-30 310L-28 310L-24 316L-27 322L-29 322L-29 320L-32 318L-30 316L-33 313L-32 310z"/></g><g><path class="class-1 leaflet-clickable" stroke-linejoin="round" stroke-linecap="round" fill-rule="evenodd" stroke="#005540" stroke-opacity="1" stroke-width="0.5" fill="#7fd" fill-opacity="0.5" d="M-33 304L-30 308L-31 309L-35 305z"/></g><g><path class="class-1 leaflet-clickable" stroke-linejoin="round" stroke-linecap="round" fill-rule="evenodd" stroke="#005540" stroke-opacity="1" stroke-width="0.5" fill="#7fd" fill-opacity="0.5" d="M-62 252L-58 257L-50 261L-46 274L-49 275L-53 271L-55 271L-59 261L-62 260L-63 257z"/></g><g><path class="class-1 leaflet-clickable" stroke-linejoin="round" stroke-linecap="round" fill-rule="evenodd" stroke="#005540" stroke-opacity="1" stroke-width="0.5" fill="#7fd" fill-opacity="0.5" d="M-60 232L-62 236L-64 235L-64 233L-62 232z"/></g><g><path class="class-1 leaflet-clickable" stroke-linejoin="round" stroke-linecap="round" fill-rule="evenodd" stroke="#005540" stroke-opacity="1" stroke-width="0.5" fill="#7fd" fill-opacity="0.5" d="M-68 191L-66 201L-67 203L-71 198L-70 194z"/></g><g><path class="class-1 leaflet-clickable" stroke-linejoin="round" stroke-linecap="round" fill-rule="evenodd" stroke="#005540" stroke-opacity="1" stroke-width="0.5" fill="#7fd" fill-opacity="0.5" d="M-92 191L-90 193L-91 196L-94 191z"/></g><g><path class="class-1 leaflet-clickable" stroke-linejoin="round" stroke-linecap="round" fill-rule="evenodd" stroke="#005540" stroke-opacity="1" stroke-width="0.5" fill="#7fd" fill-opacity="0.5" d="M-94 155L-96 159L-96 164L-98 162L-104 170L-105 175L-107 177L-107 181L-110 177L-104 164L-104 158L-96 156z"/></g><g><path class="class-1 leaflet-clickable" stroke-linejoin="round" stroke-linecap="round" fill-rule="evenodd" stroke="#005540" stroke-opacity="1" stroke-width="0.5" fill="#7fd" fill-opacity="0.5" d="M-113 148L-112 151L-115 150L-113 148z"/></g><g><path class="class-1 leaflet-clickable" stroke-linejoin="round" stroke-linecap="round" fill-rule="evenodd" stroke="#005540" stroke-opacity="1" stroke-width="0.5" fill="#7fd" fill-opacity="0.5" d="M-187 34L-183 39L-186 42L-189 35L-188 34z"/></g><g><path class="class-1 leaflet-clickable" stroke-linejoin="round" stroke-linecap="round" fill-rule="evenodd" stroke="#005540" stroke-opacity="1" stroke-width="0.5" fill="#7fd" fill-opacity="0.5" d="M-174 16L-174 19L-176 18L-176 16z"/></g><g><path class="class-1 leaflet-clickable" stroke-linejoin="round" stroke-linecap="round" fill-rule="evenodd" stroke="#005540" stroke-opacity="1" stroke-width="0.5" fill="#7fd" fill-opacity="0.5" d="M0 0"/></g><g><path class="class-1 leaflet-clickable" stroke-linejoin="round" stroke-linecap="round" fill-rule="evenodd" stroke="#005540" stroke-opacity="1" stroke-width="0.5" fill="#7fd" fill-opacity="0.5" d="M-214 2L-210 7L-206 23L-204 23L-203 26L-201 27L-201 30L-199 31L-199 38L-194 44L-188 47L-180 48L-179 50L-175 50L-175 53L-178 54L-181 60L-180 64L-177 66L-175 71L-171 75L-163 71L-158 74L-154 80L-149 83L-148 86L-140 91L-139 106L-130 109L-131 120L-123 131L-125 135L-121 149L-118 152L-120 159L-119 163L-121 165L-121 169L-119 171L-119 179L-116 179L-116 185L-111 188L-108 192L-106 201L-101 208L-99 210L-90 211L-91 218L-82 235L-84 236L-80 248L-77 251L-76 255L-73 256L-72 259L-69 259L-67 261L-66 266L-63 269L-57 282L-61 293L-64 296L-65 307L-64 311L-60 316L-61 322L-53 338L-50 339L-48 342L-42 344L-25 345L-25 339L-28 336L-28 330L-25 329L-25 327L-19 328L-19 331L-15 333L-13 337L2 347L5 359L9 360L18 357L20 361L17 368L18 371L30 383L30 396L51 407L50 411L55 417L54 420L56 423L54 425L54 439L44 452L33 456L29 459L27 463L24 463L16 472L12 472L11 474L6 475L-3 467L-10 446L-12 431L-21 415L-29 405L-36 400L-45 397L-58 388L-72 371L-90 353L-110 340L-129 330L-142 326L-152 328L-153 332L-168 318L-189 307L-190 302L-194 298L-194 295L-193 296L-192 294L-193 288L-200 284L-207 284L-207 282L-204 279L-191 234L-192 232L-188 213L-189 186L-197 163L-201 158L-208 154L-209 147L-214 140.25z"/></g><g><path class="class-1 leaflet-clickable" stroke-linejoin="round" stroke-linecap="round" fill-rule="evenodd" stroke="#005540" stroke-opacity="1" stroke-width="0.5" fill="#7fd" fill-opacity="0.5" d="M0 0"/></g><g><path class="class-1 leaflet-clickable" stroke-linejoin="round" stroke-linecap="round" fill-rule="evenodd" stroke="#005540" stroke-opacity="1" stroke-width="0.5" fill="#7fd" fill-opacity="0.5" d="M0 0"/></g><g><path class="class-1 leaflet-clickable" stroke-linejoin="round" stroke-linecap="round" fill-rule="evenodd" stroke="#005540" stroke-opacity="1" stroke-width="0.5" fill="#7fd" fill-opacity="0.5" d="M0 0"/></g><g><path class="class-1 leaflet-clickable" stroke-linejoin="round" stroke-linecap="round" fill-rule="evenodd" stroke="#005540" stroke-opacity="1" stroke-width="0.5" fill="#7fd" fill-opacity="0.5" d="M139 -79L137 -79L137 -77L134 -75L130 -78L127 -77L127 -74L122 -74L120 -72L112 -70L113 -69L102 -69L95 -71L94 -69L92 -71L87 -71L87 -56L91 -44L97 -40L100 -36L101 -28L105 -26L101 -20L103 -16L109 -16L115 -12L117 -1L125 4L124 12L127 16L127 21L131 28L124 36L130 48L129 54L130 56L133 55L134 60L146 62L142 63L137 72L134 78L136 81L132 83L130 88L127 89L127 92L123 96L123 102L118 101L113 104L105 106L103 112L101 113L107 113L104 121L102 119L99 122L93 121L82 132L78 130L76 127L74 127L71 130L70 129L71 120L69 109L56 95L49 92L48 94L37 91L31 93L19 86L7 56L4 53L-2 51L-3 52L-6 49L-21 46L-28 42L-36 33L-43 30L-46 31L-51 29L-53 25L-51 6L-54 -2L-54 -8L-52 -12L-54 -20L-51 -25L-45 -26L-48 -30L-55 -30L-56 -32L-59 -31L-71 -35L-72 -38L-74 -38L-76 -34L-80 -32L-76 -33L-78 -27L-80 -29L-83 -29L-85 -32L-84 -35L-88 -39L-94 -36L-97 -37L-114 -52L-120 -64L-123 -66L-124 -71L-130 -74L-130 -79zM-75 -41L-76 -40L-74 -38L-73 -39z"/></g><g><path class="class-1 leaflet-clickable" stroke-linejoin="round" stroke-linecap="round" fill-rule="evenodd" stroke="#005540" stroke-opacity="1" stroke-width="0.5" fill="#7fd" fill-opacity="0.5" d="M0 0"/></g><g><path class="class-1 leaflet-clickable" stroke-linejoin="round" stroke-linecap="round" fill-rule="evenodd" stroke="#005540" stroke-opacity="1" stroke-width="0.5" fill="#7fd" fill-opacity="0.5" d="M0 0"/></g><g><path class="class-1 leaflet-clickable" stroke-linejoin="round" stroke-linecap="round" fill-rule="evenodd" stroke="#005540" stroke-opacity="1" stroke-width="0.5" fill="#7fd" fill-opacity="0.5" d="M0 0"/></g><g><path class="class-1 leaflet-clickable" stroke-linejoin="round" stroke-linecap="round" fill-rule="evenodd" stroke="#005540" stroke-opacity="1" stroke-width="0.5" fill="#7fd" fill-opacity="0.5" d="M0 0"/></g><g><path class="class-1 leaflet-clickable" stroke-linejoin="round" stroke-linecap="round" fill-rule="evenodd" stroke="#005540" stroke-opacity="1" stroke-width="0.5" fill="#7fd" fill-opacity="0.5" d="M663 588L673 583L676 586L680 586L694 594L703 597L704 594L710 594L711 590L717 590L722 582L724 582L727 575L742 569L745 570L746 566L742 566L740 564L743 561L743 558L750 558L751 560L753 559L760 564L763 569L770 569L771 576L775 580L769 583L769 586L771 586L768 596L769 597L766 601L767 603L763 607L768 613L769 617L760 620L763 624L763 629L752 633L750 643L749 642L746 645L747 648L742 649L740 653L527 654L530 646L528 644L531 639L541 640L547 638L547 636L551 633L556 636L565 634L565 632L571 625L571 617L574 617L569 609L567 611L565 610L561 607L562 605L556 601L557 598L555 596L559 590L555 586L556 583L537 581L531 575L533 563L529 562L526 564L523 562L523 560L519 563L516 563L515 550L519 536L523 531L522 527L525 526L527 520L530 519L533 522L533 517L530 516L532 515L530 512L531 510L538 511L539 508L542 508L544 515L541 522L542 523L540 523L540 525L543 525L544 523L548 524L548 520L555 514L554 511L548 508L551 507L549 505L550 502L547 502L547 495L543 491L546 487L557 487L558 489L565 488L571 490L570 499L561 505L561 514L559 516L561 520L555 528L557 532L556 534L561 544L564 532L563 528L566 523L566 517L570 506L574 504L579 507L583 505L585 506L589 519L587 520L584 527L582 527L581 529L583 533L585 533L577 548L580 550L585 551L589 547L591 549L593 548L593 550L600 549L602 539L605 540L605 538L613 536L611 535L613 531L612 530L610 530L608 533L607 524L614 520L620 520L624 523L620 533L622 533L622 531L631 532L632 535L635 537L630 542L630 545L633 547L632 549L628 550L626 553L630 554L630 559L622 560L622 563L620 564L614 561L608 569L601 571L598 577L591 578L592 580L588 581L593 586L593 589L589 596L589 602L586 601L584 604L582 602L577 604L578 608L576 613L579 613L580 616L583 616L585 620L590 615L594 621L592 624L589 624L587 626L585 624L579 625L579 627L576 626L574 628L575 632L577 630L582 631L582 635L580 638L583 639L586 646L588 647L593 644L594 646L600 644L602 645L601 646L607 654L613 652L614 653L616 652L616 650L619 651L621 649L628 653L633 651L634 649L631 645L633 643L632 640L635 633L638 635L639 633L641 633L642 635L644 635L644 637L647 638L655 629L657 629L656 627L662 627L664 620L666 621L667 625L669 625L672 622L671 615L674 609L672 608L672 606L667 605L667 602L661 600L660 595L658 593L661 591z"/></g><g><path class="class-1 leaflet-clickable" stroke-linejoin="round" stroke-linecap="round" fill-rule="evenodd" stroke="#005540" stroke-opacity="1" stroke-width="0.5" fill="#7fd" fill-opacity="0.5" d="M0 0"/></g><g><path class="class-1 leaflet-clickable" stroke-linejoin="round" stroke-linecap="round" fill-rule="evenodd" stroke="#005540" stroke-opacity="1" stroke-width="0.5" fill="#7fd" fill-opacity="0.5" d="M0 0"/></g><g><path class="class-1 leaflet-clickable" stroke-linejoin="round" stroke-linecap="round" fill-rule="evenodd" stroke="#005540" stroke-opacity="1" stroke-width="0.5" fill="#7fd" fill-opacity="0.5" d="M70 129L71 130L76 127L78 130L82 132L93 121L99 122L102 119L104 121L106 118L105 116L108 113L101 113L103 112L105 106L113 104L118 101L123 102L123 96L127 93L127 89L130 88L132 83L136 81L134 78L137 72L142 63L146 62L139 61L141 58L140 56L153 58L154 60L157 56L159 59L162 56L166 57L168 60L167 62L165 62L165 64L163 64L165 72L172 71L171 74L176 73L182 81L181 84L184 84L182 94L177 97L181 99L189 110L187 114L183 117L198 139L198 142L202 143L205 148L207 148L211 144L218 146L224 145L228 151L231 151L233 148L238 147L248 154L250 162L249 169L270 186L271 191L275 193L277 191L279 192L279 195L276 196L278 199L273 203L264 207L260 206L259 211L263 213L261 218L256 221L260 230L257 229L261 236L265 238L263 240L264 257L269 260L274 269L274 272L276 270L282 275L282 281L288 280L302 295L304 303L308 310L310 310L310 313L316 315L315 319L312 321L314 324L313 325L319 333L324 335L334 332L335 328L342 325L353 329L359 334L360 341L363 341L366 351L368 352L366 355L367 358L375 364L372 368L376 368L380 372L379 375L371 372L370 378L375 389L373 394L376 407L377 403L384 401L384 403L387 406L389 412L392 415L390 418L394 420L392 425L394 432L395 434L399 435L399 448L407 452L409 452L409 450L412 449L420 450L422 454L420 455L420 459L416 464L412 466L415 473L410 484L412 496L415 496L415 498L417 499L416 502L418 503L416 510L409 510L409 508L405 507L403 508L403 505L400 502L394 505L397 513L394 514L391 512L381 493L373 485L364 479L343 455L330 443L328 443L319 424L309 414L310 413L293 397L294 395L286 383L286 379L275 367L258 354L258 352L211 318L203 314L199 307L187 300L183 295L182 289L174 280L165 262L154 251L152 246L144 237L133 231L112 225L102 220L92 219L86 213L86 211L79 206L75 201L64 197L58 198L54 181L55 172L53 167L56 156L65 143L67 134L71 130z"/></g><g><path class="class-0 leaflet-clickable" stroke-linejoin="round" stroke-linecap="round" fill-rule="evenodd" stroke="#005540" stroke-opacity="1" stroke-width="0.5" fill="#ddfff6" fill-opacity="0.5" d="M927 -19L930 -19L931 -16L938 -10L919 4L920 10L935 15L936 32L942 50L945 53L937 68L934 67L934 71L936 69L941 69L941 71L945 71L950 74L951 77L947 84L948 88L943 92L944 94L955 94L968 101L965 126L967 131L971 128L980 136L986 136L989 156L992 156L994 154L996 155L1002 151L1013 165L1020 157L1042 160L1042 213L1056 213L1056 218L1010 255L1002 255L1001 251L999 250L997 255L991 258L989 257L989 260L987 262L989 271L985 277L987 285L984 286L977 282L971 285L968 289L965 289L960 292L958 295L959 298L954 300L954 302L948 300L937 307L938 314L946 312L950 323L950 330L947 335L944 351L952 359L954 359L955 363L959 367L962 376L959 375L951 385L947 387L934 384L925 385L916 407L920 424L905 423L900 428L906 432L903 439L892 437L894 431L887 431L885 436L879 436L880 443L883 443L883 446L869 443L871 426L866 421L868 410L871 411L870 406L868 406L868 402L872 393L868 389L867 383L863 378L865 356L864 351L866 349L857 345L859 345L860 340L855 340L858 323L848 314L845 317L840 307L840 288L837 280L847 271L838 263L840 246L848 239L859 237L883 244L883 240L889 242L892 241L889 237L891 236L890 232L883 228L877 230L870 229L872 222L870 220L865 219L864 216L860 215L860 213L856 212L858 210L865 211L864 209L858 208L855 205L850 206L846 199L842 198L840 191L834 180L838 170L837 167L830 166L829 154L821 146L817 145L812 135L803 124L844 87L850 99L857 92L858 87L863 80L864 55L853 52L851 51L851 49L845 52L845 56L843 54L840 55L837 52L837 40L851 26L875 20L881 -10L896 -22L913 -3L919 -9z"/></g><g><path class="class-0 leaflet-clickable" stroke-linejoin="round" stroke-linecap="round" fill-rule="evenodd" stroke="#005540" stroke-opacity="1" stroke-width="0.5" fill="#ddfff6" fill-opacity="0.5" d="M743 558L743 561L740 564L742 566L746 566L745 570L742 569L727 575L727 578L724 582L722 582L717 590L711 590L710 594L704 594L703 597L694 594L680 586L676 586L673 583L663 588L656 583L655 580L653 580L654 577L651 576L657 561L662 554L668 550L668 547L670 545L669 543L672 540L670 532L685 532L689 529L688 527L701 522L702 515L704 515L704 519L708 522L708 524L717 526L717 532L723 532L724 530L727 531L729 536L731 537L731 544L727 545L729 545L728 548L734 549L743 556z"/></g></svg>