<svg xmlns="http://www.w3.org/2000/svg" class="leaflet-zoom-animated" width="1981" height="733" viewBox="-214 -79 1981 733" style="transform: translate3d(-214px, -79px, 0px);"><g><path class="class-3 leaflet-clickable" stroke-linejoin="round" stroke-linecap="round" fill-rule="evenodd" stroke="#005540" stroke-opacity="1" stroke-width="0.5" fill="#086" fill-opacity="0.5" d="M822 435L826 441L830 441L832 446L837 450L836 451L839 452L837 452L840 454L846 454L845 460L849 464L849 471L850 470L851 473L855 475L854 480L851 484L852 485L848 487L847 491L843 493L838 487L836 488L826 484L818 484L810 478L786 470L787 469L782 465L778 464L769 455L761 452L762 448L768 445L768 439L770 438L774 438L774 440L776 441L792 441L794 443L795 442L795 444L796 441L794 441L793 439L792 432L795 433L797 431L800 434L799 437L804 444L810 438L814 438L818 434L821 436z"/></g><g><path class="class-3 leaflet-clickable" stroke-linejoin="round" stroke-linecap="round" fill-rule="evenodd" stroke="#005540" stroke-opacity="1" stroke-width="0.5" fill="#086" fill-opacity="0.5" d="M950 473L944 489L946 492L945 496L947 500L941 497L931 495L919 496L914 501L910 501L900 506L899 505L896 508L887 508L878 505L875 502L861 501L851 494L844 493L848 490L847 487L852 485L851 484L854 481L854 477L856 475L851 474L850 470L849 471L849 464L845 460L846 456L850 454L851 455L853 453L857 453L860 455L862 452L861 451L860 453L859 448L864 445L866 452L873 448L878 449L885 443L886 437L892 440L897 449L905 449L906 454L904 459L908 463L911 464L917 459L919 459L920 460L918 462L922 467L927 470L926 471L945 473z"/></g><g><path class="class-3 leaflet-clickable" stroke-linejoin="round" stroke-linecap="round" fill-rule="evenodd" stroke="#005540" stroke-opacity="1" stroke-width="0.5" fill="#086" fill-opacity="0.5" d="M1005 470L1008 473L1009 472L1009 474L1013 476L1012 477L1017 481L1022 483L1023 488L1029 491L1028 498L999 498L988 518L991 522L988 527L989 531L987 535L959 507L951 501L946 500L944 496L946 495L946 492L944 489L950 473L958 466L958 464L962 460L961 458L964 453L967 455L967 457L969 457L968 459L971 465L972 464L974 466L973 467L974 466L976 468L980 463L985 462L984 461L990 458L990 456L993 454L996 455L996 459L1000 460L1000 466L1005 467L1006 470z"/></g><g><path class="class-3 leaflet-clickable" stroke-linejoin="round" stroke-linecap="round" fill-rule="evenodd" stroke="#005540" stroke-opacity="1" stroke-width="0.5" fill="#086" fill-opacity="0.5" d="M735 179L727 191L728 192L722 202L722 207L721 206L720 209L722 209L722 223L724 224L725 229L723 234L726 236L726 238L714 235L712 236L713 237L706 247L702 243L696 245L694 243L689 244L688 242L687 243L681 240L680 238L679 239L676 236L675 237L673 234L672 237L670 237L671 238L668 242L668 246L663 253L664 257L661 258L661 264L663 262L659 267L655 267L644 258L645 257L642 252L634 253L632 251L628 245L628 237L625 233L623 233L623 229L617 231L615 230L616 229L615 230L615 227L613 225L615 222L613 219L614 217L612 216L611 212L607 210L609 209L604 202L604 198L617 196L617 192L612 181L613 176L611 174L611 172L613 172L612 168L614 166L613 160L616 159L614 157L614 145L616 146L613 138L609 137L607 133L607 130L610 129L610 126L613 126L611 126L612 125L609 123L610 121L608 121L611 118L624 118L624 106L627 105L664 106L669 113L672 116L674 116L685 128L695 135L697 135L697 137L699 137L700 143L704 148L704 156L707 159L707 161L711 165L715 166L714 167L717 170L724 172L735 179z"/></g><g><path class="class-3 leaflet-clickable" stroke-linejoin="round" stroke-linecap="round" fill-rule="evenodd" stroke="#005540" stroke-opacity="1" stroke-width="0.5" fill="#086" fill-opacity="0.5" d="M885 443L881 447L876 449L873 448L868 452L866 452L864 446L860 446L860 453L862 451L863 452L861 452L858 455L856 453L852 453L852 455L847 456L846 453L842 454L832 446L832 444L835 441L840 442L839 434L842 428L841 417L843 417L852 426L855 423L858 425L860 422L864 421L861 417L858 416L859 415L857 413L855 413L855 411L850 412L851 411L849 408L854 401L852 398L849 398L852 397L858 390L859 384L862 385L862 389L866 392L861 395L863 397L862 400L866 402L869 398L875 401L869 416L871 418L870 419L879 422L877 424L878 425L874 424L871 437L872 436L877 441L881 439L885 443z"/></g><g><path class="class-3 leaflet-clickable" stroke-linejoin="round" stroke-linecap="round" fill-rule="evenodd" stroke="#005540" stroke-opacity="1" stroke-width="0.5" fill="#086" fill-opacity="0.5" d="M861 349L863 357L871 366L869 372L870 378L877 392L884 398L891 407L894 419L899 424L899 426L902 427L904 432L909 435L918 435L928 440L935 449L944 447L945 456L953 460L955 463L955 470L953 470L950 473L926 472L927 470L922 467L918 462L920 460L919 459L917 459L911 464L908 464L904 459L906 454L905 449L897 449L898 448L897 449L895 447L890 438L886 437L885 444L883 440L879 439L877 441L874 437L871 436L873 431L872 428L879 422L870 419L871 418L869 416L869 414L872 411L872 407L876 401L869 398L866 402L862 400L863 397L861 395L862 393L863 394L866 392L863 391L861 384L859 384L858 390L856 391L854 388L853 391L848 395L843 396L844 395L842 392L845 390L846 387L844 388L848 383L848 385L850 385L851 380L853 378L849 376L850 375L847 376L844 373L845 370L844 371L841 365L846 361L843 356L845 357L846 353L849 350L841 346L847 346L850 344L856 347L859 351L860 349z"/></g><g><path class="class-3 leaflet-clickable" stroke-linejoin="round" stroke-linecap="round" fill-rule="evenodd" stroke="#005540" stroke-opacity="1" stroke-width="0.5" fill="#086" fill-opacity="0.5" d="M456 197L455 197z"/></g><g><path class="class-3 leaflet-clickable" stroke-linejoin="round" stroke-linecap="round" fill-rule="evenodd" stroke="#005540" stroke-opacity="1" stroke-width="0.5" fill="#086" fill-opacity="0.5" d="M464 195L466 201L465 204L461 202L464 199L464 196z"/></g><g><path class="class-3 leaflet-clickable" stroke-linejoin="round" stroke-linecap="round" fill-rule="evenodd" stroke="#005540" stroke-opacity="1" stroke-width="0.5" fill="#086" fill-opacity="0.5" d="M517 187L520 189L519 190L518 188z"/></g><g><path class="class-3 leaflet-clickable" stroke-linejoin="round" stroke-linecap="round" fill-rule="evenodd" stroke="#005540" stroke-opacity="1" stroke-width="0.5" fill="#086" fill-opacity="0.5" d="M503 176L503 177z"/></g><g><path class="class-3 leaflet-clickable" stroke-linejoin="round" stroke-linecap="round" fill-rule="evenodd" stroke="#005540" stroke-opacity="1" stroke-width="0.5" fill="#086" fill-opacity="0.5" d="M503 165L506 167L506 170L508 172L511 171L511 179L501 168L502 165z"/></g><g><path class="class-3 leaflet-clickable" stroke-linejoin="round" stroke-linecap="round" fill-rule="evenodd" stroke="#005540" stroke-opacity="1" stroke-width="0.5" fill="#086" fill-opacity="0.5" d="M393 174L395 177L394 182L392 177L393 174z"/></g><g><path class="class-3 leaflet-clickable" stroke-linejoin="round" stroke-linecap="round" fill-rule="evenodd" stroke="#005540" stroke-opacity="1" stroke-width="0.5" fill="#086" fill-opacity="0.5" d="M482 153L482 154z"/></g><g><path class="class-3 leaflet-clickable" stroke-linejoin="round" stroke-linecap="round" fill-rule="evenodd" stroke="#005540" stroke-opacity="1" stroke-width="0.5" fill="#086" fill-opacity="0.5" d="M475 112L475 112z"/></g><g><path class="class-3 leaflet-clickable" stroke-linejoin="round" stroke-linecap="round" fill-rule="evenodd" stroke="#005540" stroke-opacity="1" stroke-width="0.5" fill="#086" fill-opacity="0.5" d="M475 105L477 107L476 108L474 108L474 105z"/></g><g><path class="class-3 leaflet-clickable" stroke-linejoin="round" stroke-linecap="round" fill-rule="evenodd" stroke="#005540" stroke-opacity="1" stroke-width="0.5" fill="#086" fill-opacity="0.5" d="M473 86L470 88L468 93L470 95L470 102L473 103L474 105L474 110L472 113L472 123L476 129L476 137L478 142L477 149L483 157L483 159L486 159L500 172L503 182L505 180L507 184L510 184L512 191L518 195L517 197L519 199L519 205L487 205L490 201L489 198L491 194L489 190L484 186L484 184L481 181L479 181L478 177L475 176L475 174L453 159L454 157L451 153L451 146L445 140L446 134L440 127L439 128L438 119L431 112L432 109L430 106L431 107L432 104L426 99L426 96L421 88L421 85L475 80L473 86z"/></g><g><path class="class-3 leaflet-clickable" stroke-linejoin="round" stroke-linecap="round" fill-rule="evenodd" stroke="#005540" stroke-opacity="1" stroke-width="0.5" fill="#086" fill-opacity="0.5" d="M814 398L819 401L822 400L822 407L825 409L824 410L828 407L828 405L833 405L833 403L834 409L836 407L839 407L842 410L840 414L842 418L842 428L837 430L834 427L834 421L832 419L831 414L825 421L827 425L826 430L823 431L824 433L821 436L817 434L818 435L816 435L814 438L810 438L804 444L800 439L801 438L799 437L800 434L797 431L806 418L804 412L807 411L807 403L811 403L811 399L813 398z"/></g><g><path class="class-2 leaflet-clickable" stroke-linejoin="round" stroke-linecap="round" fill-rule="evenodd" stroke="#005540" stroke-opacity="1" stroke-width="0.5" fill="#00cc99" fill-opacity="0.5" d="M856 392L852 397L849 398L853 399L853 401L849 407L851 410L848 411L849 412L847 414L841 414L842 409L839 407L835 407L834 409L833 406L835 404L833 403L833 405L830 404L828 408L826 408L825 410L825 408L822 405L822 400L819 401L814 398L814 391L819 390L821 388L825 379L824 378L832 376L834 372L835 375L841 376L841 372L845 370L844 373L847 376L850 375L849 376L851 376L853 379L850 383L851 385L846 384L843 388L845 387L843 396L848 395L854 389L856 391z"/></g><g><path class="class-2 leaflet-clickable" stroke-linejoin="round" stroke-linecap="round" fill-rule="evenodd" stroke="#005540" stroke-opacity="1" stroke-width="0.5" fill="#00cc99" fill-opacity="0.5" d="M1029 384L1029 391L1033 391L1034 394L1037 393L1042 397L1041 398L1047 404L1050 412L1057 418L1057 457L1016 457L1016 453L1006 451L1003 449L1004 448L1001 451L1001 455L989 449L989 444L985 442L982 438L985 436L993 436L996 438L1013 428L1022 420L1022 412L1028 405L1027 391L1029 384z"/></g><g><path class="class-2 leaflet-clickable" stroke-linejoin="round" stroke-linecap="round" fill-rule="evenodd" stroke="#005540" stroke-opacity="1" stroke-width="0.5" fill="#00cc99" fill-opacity="0.5" d="M808 325L810 329L808 331L810 335L808 337L813 337L821 341L822 337L830 346L843 346L849 350L843 357L845 357L845 361L841 365L844 368L844 370L840 372L842 372L841 376L837 376L834 372L831 373L829 364L824 370L822 370L818 366L816 366L816 368L813 369L804 363L802 363L800 367L796 368L792 366L789 362L776 360L780 355L780 351L778 348L781 344L779 339L780 338L777 337L775 341L774 340L773 343L770 344L768 342L768 339L766 340L761 335L759 330L760 328L758 325L760 323L758 323L760 320L762 322L770 320L783 308L783 302L786 301L787 296L789 299L794 295L797 296L796 301L799 303L799 326L802 327L802 324L803 325L804 323L806 323L805 325L807 325z"/></g><g><path class="class-2 leaflet-clickable" stroke-linejoin="round" stroke-linecap="round" fill-rule="evenodd" stroke="#005540" stroke-opacity="1" stroke-width="0.5" fill="#00cc99" fill-opacity="0.5" d="M1016 457L1016 470L1005 470L1006 467L1000 465L1001 462L997 459L997 455L993 455L986 460L985 459L985 461L983 463L979 463L979 465L976 468L974 466L973 467L974 466L972 464L970 464L968 459L969 456L967 456L968 455L965 453L962 454L962 460L958 464L956 469L954 467L956 463L954 463L950 458L945 456L946 452L944 448L960 442L973 442L976 440L976 438L981 437L984 442L988 442L989 449L992 450L993 452L1001 456L1001 450L1004 448L1004 450L1010 453L1016 453L1016 455z"/></g><g><path class="class-2 leaflet-clickable" stroke-linejoin="round" stroke-linecap="round" fill-rule="evenodd" stroke="#005540" stroke-opacity="1" stroke-width="0.5" fill="#00cc99" fill-opacity="0.5" d="M841 417L840 414L846 414L849 412L848 411L854 411L859 415L859 417L861 417L864 420L863 422L860 421L858 424L855 423L852 426L845 420L844 417L842 418z"/></g><g><path class="class-2 leaflet-clickable" stroke-linejoin="round" stroke-linecap="round" fill-rule="evenodd" stroke="#005540" stroke-opacity="1" stroke-width="0.5" fill="#00cc99" fill-opacity="0.5" d="M726 238L734 241L736 249L734 252L735 261L731 268L735 272L732 272L731 275L737 281L736 282L743 287L745 287L750 279L754 294L753 296L750 297L746 297L745 295L735 295L723 306L724 315L722 315L722 317L719 319L716 326L715 331L717 336L713 337L713 344L708 347L704 342L702 342L702 340L700 340L698 343L696 341L695 339L699 337L696 333L697 332L689 332L687 328L684 329L682 327L680 322L681 321L678 316L676 317L675 308L677 309L675 307L674 302L669 297L666 297L666 299L662 299L658 289L648 280L646 271L648 269L647 268L652 265L651 264L654 267L658 267L663 263L661 264L661 258L664 257L663 254L668 246L670 236L671 237L673 234L675 237L676 236L679 239L680 238L686 243L694 243L695 245L701 243L706 247L714 235L718 237L723 237z"/></g><g><path class="class-2 leaflet-clickable" stroke-linejoin="round" stroke-linecap="round" fill-rule="evenodd" stroke="#005540" stroke-opacity="1" stroke-width="0.5" fill="#00cc99" fill-opacity="0.5" d="M861 349L859 351L851 344L849 344L848 346L841 345L839 347L832 345L830 346L822 337L821 341L818 339L814 339L813 337L808 337L810 335L808 332L810 330L808 328L809 323L807 323L809 321L812 322L811 317L814 312L820 312L822 309L822 307L818 303L820 296L817 294L817 292L821 291L822 288L826 286L828 287L830 283L829 281L832 278L835 279L846 270L843 269L843 255L837 255L835 257L833 253L830 255L829 249L827 250L823 247L824 241L818 239L820 234L816 233L818 229L816 219L812 218L812 216L817 213L821 216L823 230L827 234L831 246L833 245L835 247L840 248L840 250L846 250L851 255L864 255L869 260L871 259L870 258L875 257L875 263L868 276L863 294L861 336L859 339L860 348z"/></g><g><path class="class-2 leaflet-clickable" stroke-linejoin="round" stroke-linecap="round" fill-rule="evenodd" stroke="#005540" stroke-opacity="1" stroke-width="0.5" fill="#00cc99" fill-opacity="0.5" d="M834 427L830 427L825 423L830 414L834 421L834 426z"/></g><g><path class="class-1 leaflet-clickable" stroke-linejoin="round" stroke-linecap="round" fill-rule="evenodd" stroke="#005540" stroke-opacity="1" stroke-width="0.5" fill="#7fd" fill-opacity="0.5" d="M834 427L837 430L841 428L839 434L840 441L839 442L837 440L832 444L826 441L822 436L827 425L834 427z"/></g><g><path class="class-1 leaflet-clickable" stroke-linejoin="round" stroke-linecap="round" fill-rule="evenodd" stroke="#005540" stroke-opacity="1" stroke-width="0.5" fill="#7fd" fill-opacity="0.5" d="M802 397L806 399L805 401L808 404L807 405L809 408L807 408L805 412L806 419L803 420L801 426L795 433L792 432L793 439L796 441L796 444L792 441L789 442L787 440L781 439L777 441L771 438L768 439L767 441L768 446L761 449L761 455L731 445L725 436L731 429L736 428L739 430L742 427L742 425L743 426L743 424L748 422L749 423L751 421L752 417L748 417L749 415L746 410L748 408L747 406L741 405L741 402L744 401L743 400L748 401L754 396L761 395L765 395L764 396L766 396L768 400L772 400L773 397L777 396L777 398L780 399L778 399L778 402L780 404L784 404L784 402L786 402L789 406L799 406L802 405L801 402L803 398z"/></g><g><path class="class-1 leaflet-clickable" stroke-linejoin="round" stroke-linecap="round" fill-rule="evenodd" stroke="#005540" stroke-opacity="1" stroke-width="0.5" fill="#7fd" fill-opacity="0.5" d="M832 373L831 376L827 378L826 376L821 386L822 388L814 391L814 398L812 397L812 402L808 404L805 401L805 398L803 398L799 394L797 385L800 382L808 382L809 379L810 380L810 375L816 375L818 373L815 372L817 366L824 370L829 364L831 373z"/></g><g><path class="class-1 leaflet-clickable" stroke-linejoin="round" stroke-linecap="round" fill-rule="evenodd" stroke="#005540" stroke-opacity="1" stroke-width="0.5" fill="#7fd" fill-opacity="0.5" d="M814 211L810 215L806 210L802 213L801 220L795 222L791 226L792 229L798 229L798 235L796 239L795 240L793 237L783 247L792 258L791 261L795 267L798 268L796 268L800 271L800 273L805 273L805 276L794 275L792 277L792 281L794 283L792 285L791 292L789 293L781 286L775 288L773 286L774 285L760 278L754 278L755 281L750 279L745 288L736 282L737 281L731 275L731 273L733 271L734 272L731 268L735 262L734 252L736 249L734 241L726 238L726 236L723 233L725 230L721 210L722 209L720 209L720 206L722 206L722 203L728 192L727 191L735 179L739 180L740 177L744 173L745 174L744 172L746 170L747 164L751 159L755 159L758 156L769 159L777 158L779 162L781 162L781 164L782 163L782 165L795 176L799 188L803 193L802 194L814 210z"/></g><g><path class="class-1 leaflet-clickable" stroke-linejoin="round" stroke-linecap="round" fill-rule="evenodd" stroke="#005540" stroke-opacity="1" stroke-width="0.5" fill="#7fd" fill-opacity="0.5" d="M669 371L668 371z"/></g><g><path class="class-1 leaflet-clickable" stroke-linejoin="round" stroke-linecap="round" fill-rule="evenodd" stroke="#005540" stroke-opacity="1" stroke-width="0.5" fill="#7fd" fill-opacity="0.5" d="M664 368L666 369L665 370L663 368z"/></g><g><path class="class-1 leaflet-clickable" stroke-linejoin="round" stroke-linecap="round" fill-rule="evenodd" stroke="#005540" stroke-opacity="1" stroke-width="0.5" fill="#7fd" fill-opacity="0.5" d="M659 363L661 363L662 366L660 366L659 364z"/></g><g><path class="class-1 leaflet-clickable" stroke-linejoin="round" stroke-linecap="round" fill-rule="evenodd" stroke="#005540" stroke-opacity="1" stroke-width="0.5" fill="#7fd" fill-opacity="0.5" d="M659 361L658 362z"/></g><g><path class="class-1 leaflet-clickable" stroke-linejoin="round" stroke-linecap="round" fill-rule="evenodd" stroke="#005540" stroke-opacity="1" stroke-width="0.5" fill="#7fd" fill-opacity="0.5" d="M711 346L713 347L711 356L715 356L716 360L720 361L722 363L721 366L726 370L723 373L724 374L714 376L715 381L711 385L714 387L714 389L703 380L694 382L691 388L689 386L684 386L692 376L692 367L691 368L686 364L682 356L682 349L679 343L680 342L680 344L682 341L687 343L685 339L685 333L688 329L689 332L697 332L696 333L699 337L695 339L697 343L701 340L706 344L707 347L711 345z"/></g><g><path class="class-1 leaflet-clickable" stroke-linejoin="round" stroke-linecap="round" fill-rule="evenodd" stroke="#005540" stroke-opacity="1" stroke-width="0.5" fill="#7fd" fill-opacity="0.5" d="M1098 443L1099 440L1099 442z"/></g><g><path class="class-1 leaflet-clickable" stroke-linejoin="round" stroke-linecap="round" fill-rule="evenodd" stroke="#005540" stroke-opacity="1" stroke-width="0.5" fill="#7fd" fill-opacity="0.5" d="M1100 435L1100 437L1100 435z"/></g><g><path class="class-1 leaflet-clickable" stroke-linejoin="round" stroke-linecap="round" fill-rule="evenodd" stroke="#005540" stroke-opacity="1" stroke-width="0.5" fill="#7fd" fill-opacity="0.5" d="M1112 391L1106 398L1106 394L1108 391L1113 390z"/></g><g><path class="class-1 leaflet-clickable" stroke-linejoin="round" stroke-linecap="round" fill-rule="evenodd" stroke="#005540" stroke-opacity="1" stroke-width="0.5" fill="#7fd" fill-opacity="0.5" d="M1057 454L1056 450L1058 449L1058 425L1057 418L1054 415L1057 413L1058 414L1058 412L1060 412L1060 410L1065 407L1065 405L1068 404L1069 401L1072 401L1074 398L1080 397L1084 394L1091 386L1094 380L1094 368L1101 370L1104 369L1105 366L1110 373L1110 370L1111 371L1111 379L1108 385L1096 399L1096 409L1095 410L1096 406L1095 409L1089 412L1091 416L1096 413L1097 414L1096 418L1091 420L1091 424L1094 421L1096 421L1094 423L1086 449L1083 449L1083 443L1078 443L1078 441L1072 441L1070 447L1067 449L1064 455L1060 452L1058 454z"/></g><g><path class="class-1 leaflet-clickable" stroke-linejoin="round" stroke-linecap="round" fill-rule="evenodd" stroke="#005540" stroke-opacity="1" stroke-width="0.5" fill="#7fd" fill-opacity="0.5" d="M1104 365L1102 367L1097 368L1099 366L1103 366z"/></g><g><path class="class-1 leaflet-clickable" stroke-linejoin="round" stroke-linecap="round" fill-rule="evenodd" stroke="#005540" stroke-opacity="1" stroke-width="0.5" fill="#7fd" fill-opacity="0.5" d="M792 292L794 295L789 299L787 297L786 301L784 302L783 308L778 313L770 320L765 322L762 322L760 320L758 323L760 323L758 325L762 336L766 340L768 339L768 342L770 344L773 343L777 337L780 338L779 339L781 343L779 344L778 348L780 350L780 355L777 359L776 360L775 358L768 355L764 352L764 348L763 349L758 345L756 347L750 348L750 352L745 359L748 363L748 366L751 368L750 371L748 371L744 375L741 374L741 378L739 379L735 379L728 376L726 372L730 371L730 369L726 369L726 367L730 365L731 362L729 360L739 355L741 350L739 348L738 349L736 345L734 347L735 350L733 350L732 353L726 352L729 349L729 344L728 342L726 342L724 343L723 351L721 347L723 343L722 342L725 341L725 339L722 337L718 338L721 343L718 347L718 343L716 343L714 347L712 346L713 338L717 336L715 331L718 319L723 315L724 316L723 306L727 302L729 302L729 299L731 299L733 295L745 295L748 297L753 296L754 291L750 283L750 280L755 281L754 278L763 279L768 281L770 284L774 285L773 286L775 288L781 286L784 288L785 291L789 293L792 292z"/></g><g><path class="class-1 leaflet-clickable" stroke-linejoin="round" stroke-linecap="round" fill-rule="evenodd" stroke="#005540" stroke-opacity="1" stroke-width="0.5" fill="#7fd" fill-opacity="0.5" d="M816 368L815 371L816 373L818 373L814 376L810 375L811 376L809 382L800 382L797 385L799 393L803 398L801 402L802 405L789 406L786 402L784 402L784 404L780 404L778 402L778 400L780 399L777 398L777 396L775 396L772 399L766 399L766 397L763 394L766 391L763 384L766 382L770 374L773 373L772 370L774 370L773 367L775 363L774 362L776 360L782 360L784 362L786 361L794 367L800 367L801 363L803 363L813 369L815 368z"/></g><g><path class="class-1 leaflet-clickable" stroke-linejoin="round" stroke-linecap="round" fill-rule="evenodd" stroke="#005540" stroke-opacity="1" stroke-width="0.5" fill="#7fd" fill-opacity="0.5" d="M587 302L585 302L585 297L587 301z"/></g><g><path class="class-1 leaflet-clickable" stroke-linejoin="round" stroke-linecap="round" fill-rule="evenodd" stroke="#005540" stroke-opacity="1" stroke-width="0.5" fill="#7fd" fill-opacity="0.5" d="M575 293L575 296L574 293z"/></g><g><path class="class-1 leaflet-clickable" stroke-linejoin="round" stroke-linecap="round" fill-rule="evenodd" stroke="#005540" stroke-opacity="1" stroke-width="0.5" fill="#7fd" fill-opacity="0.5" d="M574 291L574 292z"/></g><g><path class="class-1 leaflet-clickable" stroke-linejoin="round" stroke-linecap="round" fill-rule="evenodd" stroke="#005540" stroke-opacity="1" stroke-width="0.5" fill="#7fd" fill-opacity="0.5" d="M567 279L570 281L571 284L567 280z"/></g><g><path class="class-1 leaflet-clickable" stroke-linejoin="round" stroke-linecap="round" fill-rule="evenodd" stroke="#005540" stroke-opacity="1" stroke-width="0.5" fill="#7fd" fill-opacity="0.5" d="M567 273L566 275L567 273z"/></g><g><path class="class-1 leaflet-clickable" stroke-linejoin="round" stroke-linecap="round" fill-rule="evenodd" stroke="#005540" stroke-opacity="1" stroke-width="0.5" fill="#7fd" fill-opacity="0.5" d="M565 263L566 266L565 264z"/></g><g><path class="class-1 leaflet-clickable" stroke-linejoin="round" stroke-linecap="round" fill-rule="evenodd" stroke="#005540" stroke-opacity="1" stroke-width="0.5" fill="#7fd" fill-opacity="0.5" d="M559 263L559 265L559 263z"/></g><g><path class="class-1 leaflet-clickable" stroke-linejoin="round" stroke-linecap="round" fill-rule="evenodd" stroke="#005540" stroke-opacity="1" stroke-width="0.5" fill="#7fd" fill-opacity="0.5" d="M559 254L559 256L557 256L555 260L556 261L555 258L556 255L558 255z"/></g><g><path class="class-1 leaflet-clickable" stroke-linejoin="round" stroke-linecap="round" fill-rule="evenodd" stroke="#005540" stroke-opacity="1" stroke-width="0.5" fill="#7fd" fill-opacity="0.5" d="M554 252L554 252z"/></g><g><path class="class-1 leaflet-clickable" stroke-linejoin="round" stroke-linecap="round" fill-rule="evenodd" stroke="#005540" stroke-opacity="1" stroke-width="0.5" fill="#7fd" fill-opacity="0.5" d="M536 224L536 226L535 224z"/></g><g><path class="class-1 leaflet-clickable" stroke-linejoin="round" stroke-linecap="round" fill-rule="evenodd" stroke="#005540" stroke-opacity="1" stroke-width="0.5" fill="#7fd" fill-opacity="0.5" d="M539 219L538 219z"/></g><g><path class="class-1 leaflet-clickable" stroke-linejoin="round" stroke-linecap="round" fill-rule="evenodd" stroke="#005540" stroke-opacity="1" stroke-width="0.5" fill="#7fd" fill-opacity="0.5" d="M465 208L465 208z"/></g><g><path class="class-1 leaflet-clickable" stroke-linejoin="round" stroke-linecap="round" fill-rule="evenodd" stroke="#005540" stroke-opacity="1" stroke-width="0.5" fill="#7fd" fill-opacity="0.5" d="M487 205L520 205L522 212L530 218L533 224L532 225L539 229L537 230L537 232L539 234L541 233L544 235L547 241L550 243L549 244L553 254L553 262L558 268L560 268L561 274L568 285L566 293L569 300L575 302L575 298L578 298L583 302L583 305L587 306L587 308L590 311L590 314L595 317L596 324L592 329L583 334L580 330L578 320L574 316L570 314L558 302L548 297L543 298L533 290L533 287L530 286L535 274L535 261L529 250L522 248L507 236L505 235L502 238L495 231L491 231L488 227L484 227L481 224L480 220L467 209L468 208L480 211L486 208L487 206z"/></g><g><path class="class-1 leaflet-clickable" stroke-linejoin="round" stroke-linecap="round" fill-rule="evenodd" stroke="#005540" stroke-opacity="1" stroke-width="0.5" fill="#7fd" fill-opacity="0.5" d="M525 186L524 188L524 186z"/></g><g><path class="class-1 leaflet-clickable" stroke-linejoin="round" stroke-linecap="round" fill-rule="evenodd" stroke="#005540" stroke-opacity="1" stroke-width="0.5" fill="#7fd" fill-opacity="0.5" d="M531 173L533 179L530 186L525 182L526 175L530 173z"/></g><g><path class="class-1 leaflet-clickable" stroke-linejoin="round" stroke-linecap="round" fill-rule="evenodd" stroke="#005540" stroke-opacity="1" stroke-width="0.5" fill="#7fd" fill-opacity="0.5" d="M476 106L478 106L477 107z"/></g><g><path class="class-1 leaflet-clickable" stroke-linejoin="round" stroke-linecap="round" fill-rule="evenodd" stroke="#005540" stroke-opacity="1" stroke-width="0.5" fill="#7fd" fill-opacity="0.5" d="M473 86L553 115L558 118L611 118L610 120L608 120L609 123L612 125L611 126L613 126L610 126L610 129L607 129L607 132L609 135L608 136L615 141L614 144L616 145L614 145L614 158L616 158L616 160L613 160L614 166L612 168L612 182L615 186L617 196L605 198L604 202L608 209L607 210L611 213L613 217L615 222L613 224L616 231L619 231L613 239L613 241L611 241L608 244L608 246L600 248L600 244L598 241L593 238L588 238L584 229L576 227L572 223L569 223L570 209L568 207L567 208L563 206L563 208L561 208L561 206L555 204L549 195L545 193L539 186L540 184L533 180L533 173L531 170L530 171L528 169L529 167L525 162L523 156L520 155L520 148L512 134L513 122L507 119L500 118L500 114L495 110L487 113L478 106L471 103L469 96L470 95L468 93L470 91L470 87L473 87zM564 205L564 206z"/></g><g><path class="class-1 leaflet-clickable" stroke-linejoin="round" stroke-linecap="round" fill-rule="evenodd" stroke="#005540" stroke-opacity="1" stroke-width="0.5" fill="#7fd" fill-opacity="0.5" d="M475 444L475 444z"/></g><g><path class="class-1 leaflet-clickable" stroke-linejoin="round" stroke-linecap="round" fill-rule="evenodd" stroke="#005540" stroke-opacity="1" stroke-width="0.5" fill="#7fd" fill-opacity="0.5" d="M560 432L562 434L561 435L559 433L560 432z"/></g><g><path class="class-1 leaflet-clickable" stroke-linejoin="round" stroke-linecap="round" fill-rule="evenodd" stroke="#005540" stroke-opacity="1" stroke-width="0.5" fill="#7fd" fill-opacity="0.5" d="M731 429L725 436L711 426L704 424L705 425L708 422L709 423L717 421L716 420L718 416L723 419L727 416L731 420L731 429z"/></g><g><path class="class-1 leaflet-clickable" stroke-linejoin="round" stroke-linecap="round" fill-rule="evenodd" stroke="#005540" stroke-opacity="1" stroke-width="0.5" fill="#7fd" fill-opacity="0.5" d="M564 422L564 421z"/></g><g><path class="class-1 leaflet-clickable" stroke-linejoin="round" stroke-linecap="round" fill-rule="evenodd" stroke="#005540" stroke-opacity="1" stroke-width="0.5" fill="#7fd" fill-opacity="0.5" d="M748 362L750 361L758 365L768 358L769 357L767 357L769 355L771 355L776 361L774 361L775 362L773 367L775 370L773 370L773 372L770 374L770 376L763 385L766 388L763 394L761 396L755 396L746 402L745 400L741 402L741 405L743 404L748 407L748 409L746 410L749 415L748 416L753 417L750 423L748 422L744 424L739 430L737 428L731 429L731 421L727 416L723 419L718 416L716 421L709 423L708 422L705 425L701 423L701 421L700 422L697 420L695 415L693 415L685 404L681 394L689 392L691 390L690 388L692 385L693 386L695 382L700 380L707 382L714 390L713 385L711 385L715 381L714 376L724 374L723 373L726 370L721 365L722 363L720 361L716 361L715 357L711 355L713 347L715 345L716 346L715 343L718 344L717 347L721 344L718 339L719 337L725 339L725 341L722 342L723 343L721 347L723 351L723 347L726 341L729 343L726 352L727 353L731 353L733 350L735 350L734 347L736 345L738 347L737 348L741 350L739 356L735 356L731 360L729 360L731 362L730 365L726 367L726 369L730 369L731 371L726 373L728 373L729 377L739 379L741 374L744 375L748 371L749 372L751 368L747 365L748 363z"/></g><g><path class="class-1 leaflet-clickable" stroke-linejoin="round" stroke-linecap="round" fill-rule="evenodd" stroke="#005540" stroke-opacity="1" stroke-width="0.5" fill="#7fd" fill-opacity="0.5" d="M1094 368L1094 380L1091 386L1080 398L1074 398L1068 404L1066 404L1065 407L1063 407L1064 408L1058 414L1057 413L1054 415L1051 413L1047 407L1047 404L1044 400L1042 400L1038 393L1035 394L1030 391L1029 384L1031 379L1041 374L1067 370L1071 367L1076 367L1079 365L1094 368z"/></g><g><path class="class-1 leaflet-clickable" stroke-linejoin="round" stroke-linecap="round" fill-rule="evenodd" stroke="#005540" stroke-opacity="1" stroke-width="0.5" fill="#7fd" fill-opacity="0.5" d="M1044 341L1048 344L1046 346L1043 343L1044 341z"/></g><g><path class="class-1 leaflet-clickable" stroke-linejoin="round" stroke-linecap="round" fill-rule="evenodd" stroke="#005540" stroke-opacity="1" stroke-width="0.5" fill="#7fd" fill-opacity="0.5" d="M600 248L604 248L609 244L610 241L614 239L618 229L624 230L623 233L625 233L628 236L628 245L634 253L643 253L645 256L644 258L650 262L650 264L652 264L649 267L647 267L648 270L646 271L648 275L648 280L650 280L653 286L658 289L661 295L660 296L663 299L666 299L666 297L672 299L674 305L677 308L675 308L676 316L679 317L681 321L680 322L682 324L682 328L688 329L685 333L685 340L686 339L687 342L686 343L682 341L681 344L663 325L662 321L656 315L651 307L633 294L617 274L604 269L601 265L597 265L595 257L600 248z"/></g><g><path class="class-0 leaflet-clickable" stroke-linejoin="round" stroke-linecap="round" fill-rule="evenodd" stroke="#005540" stroke-opacity="1" stroke-width="0.5" fill="#ddfff6" fill-opacity="0.5" d="M814 211L817 213L812 216L812 218L816 219L818 228L816 233L820 234L818 238L824 241L823 247L827 250L829 249L830 255L833 253L835 257L837 255L843 255L843 269L846 269L836 279L832 278L829 281L829 287L826 286L822 288L821 291L817 292L817 294L819 294L820 296L818 303L823 309L820 312L814 312L811 317L812 322L809 321L807 323L809 323L808 325L805 325L806 323L804 323L803 325L802 324L803 327L800 326L800 313L798 310L799 304L796 302L797 297L792 292L792 285L794 283L792 282L792 277L794 275L805 276L805 274L801 273L796 268L798 268L793 265L790 254L783 247L793 237L795 240L796 239L798 235L798 229L792 229L791 226L795 222L801 220L802 213L806 210L810 214L812 213z"/></g><g><path class="class-0 leaflet-clickable" stroke-linejoin="round" stroke-linecap="round" fill-rule="evenodd" stroke="#005540" stroke-opacity="1" stroke-width="0.5" fill="#ddfff6" fill-opacity="0.5" d="M768 355L767 356L769 358L764 359L760 364L756 364L750 361L747 362L745 360L750 352L750 348L756 347L758 345L762 347L761 348L764 348L764 352L768 355z"/></g></svg>