<svg xmlns="http://www.w3.org/2000/svg" class="leaflet-zoom-animated" width="1962" height="872" viewBox="-334 -148 1962 872" style="transform: translate3d(-334px, -148px, 0px);"><g><path class="class-2 leaflet-clickable" stroke-linejoin="round" stroke-linecap="round" fill-rule="evenodd" stroke="#005540" stroke-opacity="1" stroke-width="0.5" fill="#00cc99" fill-opacity="0.5" d="M727 392L723 397L720 398L724 399L724 401L720 407L722 410L719 411L720 412L718 414L712 414L713 409L710 407L706 407L705 409L704 406L706 404L704 403L704 405L701 404L699 408L697 408L696 410L696 408L693 405L693 400L690 401L685 398L685 391L690 390L692 388L696 379L695 378L703 376L705 372L706 375L712 376L712 372L716 370L715 373L718 376L721 375L720 376L722 376L724 379L721 383L722 385L717 384L714 388L716 387L714 396L719 395L725 389L727 391z"/></g><g><path class="class-1 leaflet-clickable" stroke-linejoin="round" stroke-linecap="round" fill-rule="evenodd" stroke="#005540" stroke-opacity="1" stroke-width="0.5" fill="#7fd" fill-opacity="0.5" d="M712 417L711 414L717 414L720 412L719 411L725 411L730 415L730 417L732 417L735 420L734 422L731 421L729 424L726 423L723 426L716 420L715 417L713 418z"/></g><g><path class="class-1 leaflet-clickable" stroke-linejoin="round" stroke-linecap="round" fill-rule="evenodd" stroke="#005540" stroke-opacity="1" stroke-width="0.5" fill="#7fd" fill-opacity="0.5" d="M673 397L677 399L676 401L679 404L678 405L680 408L678 408L676 412L677 419L674 420L672 426L666 433L663 432L664 439L667 441L667 444L663 441L660 442L658 440L652 439L648 441L642 438L639 439L638 441L639 446L632 449L632 455L602 445L596 436L602 429L607 428L610 430L613 427L613 425L614 426L614 424L619 422L620 423L622 421L623 417L619 417L620 415L617 410L619 408L618 406L612 405L612 402L615 401L614 400L619 401L625 396L632 395L636 395L635 396L637 396L639 400L643 400L644 397L648 396L648 398L651 399L649 399L649 402L651 404L655 404L655 402L657 402L660 406L670 406L673 405L672 402L674 398z"/></g><g><path class="class-1 leaflet-clickable" stroke-linejoin="round" stroke-linecap="round" fill-rule="evenodd" stroke="#005540" stroke-opacity="1" stroke-width="0.5" fill="#7fd" fill-opacity="0.5" d="M703 373L702 376L698 378L697 376L692 386L693 388L685 391L685 398L683 397L683 402L679 404L676 401L676 398L674 398L670 394L668 385L671 382L679 382L680 379L681 380L681 375L687 375L689 373L686 372L688 366L695 370L700 364L702 373z"/></g><g><path class="class-1 leaflet-clickable" stroke-linejoin="round" stroke-linecap="round" fill-rule="evenodd" stroke="#005540" stroke-opacity="1" stroke-width="0.5" fill="#7fd" fill-opacity="0.5" d="M458 302L456 302L456 297L458 301z"/></g><g><path class="class-1 leaflet-clickable" stroke-linejoin="round" stroke-linecap="round" fill-rule="evenodd" stroke="#005540" stroke-opacity="1" stroke-width="0.5" fill="#7fd" fill-opacity="0.5" d="M446 293L446 296L445 293z"/></g><g><path class="class-1 leaflet-clickable" stroke-linejoin="round" stroke-linecap="round" fill-rule="evenodd" stroke="#005540" stroke-opacity="1" stroke-width="0.5" fill="#7fd" fill-opacity="0.5" d="M445 291L445 292z"/></g><g><path class="class-1 leaflet-clickable" stroke-linejoin="round" stroke-linecap="round" fill-rule="evenodd" stroke="#005540" stroke-opacity="1" stroke-width="0.5" fill="#7fd" fill-opacity="0.5" d="M438 279L441 281L442 284L438 280z"/></g><g><path class="class-1 leaflet-clickable" stroke-linejoin="round" stroke-linecap="round" fill-rule="evenodd" stroke="#005540" stroke-opacity="1" stroke-width="0.5" fill="#7fd" fill-opacity="0.5" d="M438 273L437 275L438 273z"/></g><g><path class="class-1 leaflet-clickable" stroke-linejoin="round" stroke-linecap="round" fill-rule="evenodd" stroke="#005540" stroke-opacity="1" stroke-width="0.5" fill="#7fd" fill-opacity="0.5" d="M436 263L437 266L436 264z"/></g><g><path class="class-1 leaflet-clickable" stroke-linejoin="round" stroke-linecap="round" fill-rule="evenodd" stroke="#005540" stroke-opacity="1" stroke-width="0.5" fill="#7fd" fill-opacity="0.5" d="M430 263L430 265L430 263z"/></g><g><path class="class-1 leaflet-clickable" stroke-linejoin="round" stroke-linecap="round" fill-rule="evenodd" stroke="#005540" stroke-opacity="1" stroke-width="0.5" fill="#7fd" fill-opacity="0.5" d="M430 254L430 256L428 256L426 260L427 261L426 258L427 255L429 255z"/></g><g><path class="class-1 leaflet-clickable" stroke-linejoin="round" stroke-linecap="round" fill-rule="evenodd" stroke="#005540" stroke-opacity="1" stroke-width="0.5" fill="#7fd" fill-opacity="0.5" d="M425 252L425 252z"/></g><g><path class="class-1 leaflet-clickable" stroke-linejoin="round" stroke-linecap="round" fill-rule="evenodd" stroke="#005540" stroke-opacity="1" stroke-width="0.5" fill="#7fd" fill-opacity="0.5" d="M407 224L407 226L406 224z"/></g><g><path class="class-1 leaflet-clickable" stroke-linejoin="round" stroke-linecap="round" fill-rule="evenodd" stroke="#005540" stroke-opacity="1" stroke-width="0.5" fill="#7fd" fill-opacity="0.5" d="M410 219L409 219z"/></g><g><path class="class-1 leaflet-clickable" stroke-linejoin="round" stroke-linecap="round" fill-rule="evenodd" stroke="#005540" stroke-opacity="1" stroke-width="0.5" fill="#7fd" fill-opacity="0.5" d="M336 208L336 208z"/></g><g><path class="class-1 leaflet-clickable" stroke-linejoin="round" stroke-linecap="round" fill-rule="evenodd" stroke="#005540" stroke-opacity="1" stroke-width="0.5" fill="#7fd" fill-opacity="0.5" d="M358 205L391 205L393 212L401 218L404 224L403 225L410 229L408 230L408 232L410 234L412 233L415 235L418 241L421 243L420 244L424 254L424 262L429 268L431 268L432 274L439 285L437 293L440 300L446 302L446 298L449 298L454 302L454 305L458 306L458 308L461 311L461 314L466 317L467 324L463 329L454 334L451 330L449 320L445 316L441 314L429 302L419 297L414 298L404 290L404 287L401 286L406 274L406 261L400 250L393 248L378 236L376 235L373 238L366 231L362 231L359 227L355 227L352 224L351 220L338 209L339 208L351 211L357 208L358 206z"/></g><g><path class="class-1 leaflet-clickable" stroke-linejoin="round" stroke-linecap="round" fill-rule="evenodd" stroke="#005540" stroke-opacity="1" stroke-width="0.5" fill="#7fd" fill-opacity="0.5" d="M346 444L346 444z"/></g><g><path class="class-1 leaflet-clickable" stroke-linejoin="round" stroke-linecap="round" fill-rule="evenodd" stroke="#005540" stroke-opacity="1" stroke-width="0.5" fill="#7fd" fill-opacity="0.5" d="M431 432L433 434L432 435L430 433L431 432z"/></g><g><path class="class-1 leaflet-clickable" stroke-linejoin="round" stroke-linecap="round" fill-rule="evenodd" stroke="#005540" stroke-opacity="1" stroke-width="0.5" fill="#7fd" fill-opacity="0.5" d="M602 429L596 436L582 426L575 424L576 425L579 422L580 423L588 421L587 420L589 416L594 419L598 416L602 420L602 429z"/></g><g><path class="class-1 leaflet-clickable" stroke-linejoin="round" stroke-linecap="round" fill-rule="evenodd" stroke="#005540" stroke-opacity="1" stroke-width="0.5" fill="#7fd" fill-opacity="0.5" d="M435 422L435 421z"/></g><g><path class="class-0 leaflet-clickable" stroke-linejoin="round" stroke-linecap="round" fill-rule="evenodd" stroke="#005540" stroke-opacity="1" stroke-width="0.5" fill="#ddfff6" fill-opacity="0.5" d="M705 427L701 427L696 423L701 414L705 421L705 426z"/></g><g><path class="class-1 leaflet-clickable" stroke-linejoin="round" stroke-linecap="round" fill-rule="evenodd" stroke="#005540" stroke-opacity="1" stroke-width="0.5" fill="#7fd" fill-opacity="0.5" d="M619 362L621 361L629 365L639 358L640 357L638 357L640 355L642 355L647 361L645 361L646 362L644 367L646 370L644 370L644 372L641 374L641 376L634 385L637 388L634 394L632 396L626 396L617 402L616 400L612 402L612 405L614 404L619 407L619 409L617 410L620 415L619 416L624 417L621 423L619 422L615 424L610 430L608 428L602 429L602 421L598 416L594 419L589 416L587 421L580 423L579 422L576 425L572 423L572 421L571 422L568 420L566 415L564 415L556 404L552 394L560 392L562 390L561 388L563 385L564 386L566 382L571 380L578 382L585 390L584 385L582 385L586 381L585 376L595 374L594 373L597 370L592 365L593 363L591 361L587 361L586 357L582 355L584 347L586 345L587 346L586 343L589 344L588 347L592 344L589 339L590 337L596 339L596 341L593 342L594 343L592 347L594 351L594 347L597 341L600 343L597 352L598 353L602 353L604 350L606 350L605 347L607 345L609 347L608 348L612 350L610 356L606 356L602 360L600 360L602 362L601 365L597 367L597 369L601 369L602 371L597 373L599 373L600 377L610 379L612 374L615 375L619 371L620 372L622 368L618 365L619 363z"/></g><g><path class="class-1 leaflet-clickable" stroke-linejoin="round" stroke-linecap="round" fill-rule="evenodd" stroke="#005540" stroke-opacity="1" stroke-width="0.5" fill="#7fd" fill-opacity="0.5" d="M732 349L734 357L742 366L740 372L741 378L748 392L755 398L762 407L765 419L770 424L770 426L773 427L775 432L780 435L789 435L799 440L806 449L815 447L816 456L824 460L826 463L826 470L824 470L821 473L797 472L798 470L793 467L789 462L791 460L790 459L788 459L782 464L779 464L775 459L777 454L776 449L768 449L769 448L768 449L766 447L761 438L757 437L756 444L754 440L750 439L748 441L745 437L742 436L744 431L743 428L750 422L741 419L742 418L740 416L740 414L743 411L743 407L747 401L740 398L737 402L733 400L734 397L732 395L733 393L734 394L737 392L734 391L732 384L730 384L729 390L727 391L725 388L724 391L719 395L714 396L715 395L713 392L716 390L717 387L715 388L719 383L719 385L721 385L722 380L724 378L720 376L721 375L718 376L715 373L716 370L715 371L712 365L717 361L714 356L716 357L717 353L720 350L712 346L718 346L721 344L727 347L730 351L731 349z"/></g><g><path class="class-1 leaflet-clickable" stroke-linejoin="round" stroke-linecap="round" fill-rule="evenodd" stroke="#005540" stroke-opacity="1" stroke-width="0.5" fill="#7fd" fill-opacity="0.5" d="M969 443L970 440L970 442z"/></g><g><path class="class-1 leaflet-clickable" stroke-linejoin="round" stroke-linecap="round" fill-rule="evenodd" stroke="#005540" stroke-opacity="1" stroke-width="0.5" fill="#7fd" fill-opacity="0.5" d="M971 435L971 437L971 435z"/></g><g><path class="class-1 leaflet-clickable" stroke-linejoin="round" stroke-linecap="round" fill-rule="evenodd" stroke="#005540" stroke-opacity="1" stroke-width="0.5" fill="#7fd" fill-opacity="0.5" d="M983 391L977 398L977 394L979 391L984 390z"/></g><g><path class="class-1 leaflet-clickable" stroke-linejoin="round" stroke-linecap="round" fill-rule="evenodd" stroke="#005540" stroke-opacity="1" stroke-width="0.5" fill="#7fd" fill-opacity="0.5" d="M928 454L927 450L929 449L929 425L928 418L925 415L928 413L929 414L929 412L931 412L931 410L936 407L936 405L939 404L940 401L943 401L945 398L951 397L955 394L962 386L965 380L965 368L972 370L975 369L976 366L981 373L981 370L982 371L982 379L979 385L967 399L967 409L966 410L967 406L966 409L960 412L962 416L967 413L968 414L967 418L962 420L962 424L965 421L967 421L965 423L957 449L954 449L954 443L949 443L949 441L943 441L941 447L938 449L935 455L931 452L929 454z"/></g><g><path class="class-1 leaflet-clickable" stroke-linejoin="round" stroke-linecap="round" fill-rule="evenodd" stroke="#005540" stroke-opacity="1" stroke-width="0.5" fill="#7fd" fill-opacity="0.5" d="M975 365L973 367L968 368L970 366L974 366z"/></g><g><path class="class-0 leaflet-clickable" stroke-linejoin="round" stroke-linecap="round" fill-rule="evenodd" stroke="#005540" stroke-opacity="1" stroke-width="0.5" fill="#ddfff6" fill-opacity="0.5" d="M965 368L965 380L962 386L951 398L945 398L939 404L937 404L936 407L934 407L935 408L929 414L928 413L925 415L922 413L918 407L918 404L915 400L913 400L909 393L906 394L901 391L900 384L902 379L912 374L938 370L942 367L947 367L950 365L965 368z"/></g><g><path class="class-0 leaflet-clickable" stroke-linejoin="round" stroke-linecap="round" fill-rule="evenodd" stroke="#005540" stroke-opacity="1" stroke-width="0.5" fill="#ddfff6" fill-opacity="0.5" d="M915 341L918 342L919 344L917 346L914 343L915 341z"/></g><g><path class="class-2 leaflet-clickable" stroke-linejoin="round" stroke-linecap="round" fill-rule="evenodd" stroke="#005540" stroke-opacity="1" stroke-width="0.5" fill="#00cc99" fill-opacity="0.5" d="M900 384L900 391L904 391L905 394L908 393L913 397L912 398L918 404L921 412L928 418L928 457L887 457L887 453L877 451L874 449L875 448L872 451L872 455L860 449L860 444L856 442L853 438L856 436L864 436L867 438L884 428L893 420L893 412L899 405L898 391L900 384z"/></g><g><path class="class-3 leaflet-clickable" stroke-linejoin="round" stroke-linecap="round" fill-rule="evenodd" stroke="#005540" stroke-opacity="1" stroke-width="0.5" fill="#086" fill-opacity="0.5" d="M876 470L879 473L880 472L880 474L884 476L883 477L888 481L893 483L894 488L900 491L899 498L870 498L859 518L862 522L859 527L860 531L858 535L830 507L822 501L817 500L815 496L817 495L817 492L815 489L821 473L829 466L829 464L833 460L832 458L835 453L838 455L838 457L840 457L839 459L842 465L843 464L845 466L844 467L845 466L847 468L851 463L856 462L855 461L861 458L861 456L864 454L867 455L867 459L871 460L871 466L876 467L877 470z"/></g><g><path class="class-3 leaflet-clickable" stroke-linejoin="round" stroke-linecap="round" fill-rule="evenodd" stroke="#005540" stroke-opacity="1" stroke-width="0.5" fill="#086" fill-opacity="0.5" d="M693 435L697 441L701 441L703 446L708 450L707 451L710 452L708 452L711 454L717 454L716 460L720 464L720 471L721 470L722 473L726 475L725 480L722 484L723 485L719 487L718 491L714 493L709 487L707 488L697 484L689 484L681 478L657 470L658 469L653 465L649 464L640 455L632 452L633 448L639 445L639 439L641 438L645 438L645 440L647 441L663 441L665 443L666 442L666 444L667 441L665 441L664 439L663 432L666 433L668 431L671 434L670 437L675 444L681 438L685 438L689 434L692 436z"/></g><g><path class="class-0 leaflet-clickable" stroke-linejoin="round" stroke-linecap="round" fill-rule="evenodd" stroke="#005540" stroke-opacity="1" stroke-width="0.5" fill="#ddfff6" fill-opacity="0.5" d="M685 211L681 215L677 210L673 213L672 220L666 222L662 226L663 229L669 229L669 235L667 239L666 240L664 237L654 247L663 258L662 261L666 267L669 268L667 268L671 271L671 273L676 273L676 276L665 275L663 277L663 281L665 283L663 285L662 292L660 293L652 286L646 288L644 286L645 285L631 278L625 278L626 281L621 279L616 288L607 282L608 281L602 275L602 273L604 271L605 272L602 268L606 262L605 252L607 249L605 241L597 238L597 236L594 233L596 230L592 210L593 209L591 209L591 206L593 206L593 203L599 192L598 191L606 179L610 180L611 177L615 173L616 174L615 172L617 170L618 164L622 159L626 159L629 156L640 159L648 158L650 162L652 162L652 164L653 163L653 165L666 176L670 188L674 193L673 194L685 210z"/></g><g><path class="class-0 leaflet-clickable" stroke-linejoin="round" stroke-linecap="round" fill-rule="evenodd" stroke="#005540" stroke-opacity="1" stroke-width="0.5" fill="#ddfff6" fill-opacity="0.5" d="M685 211L688 213L683 216L683 218L687 219L689 228L687 233L691 234L689 238L695 241L694 247L698 250L700 249L701 255L704 253L706 257L708 255L714 255L714 269L717 269L707 279L703 278L700 281L700 287L697 286L693 288L692 291L688 292L688 294L690 294L691 296L689 303L694 309L691 312L685 312L682 317L683 322L680 321L678 323L680 323L679 325L676 325L677 323L675 323L674 325L673 324L674 327L671 326L671 313L669 310L670 304L667 302L668 297L663 292L663 285L665 283L663 282L663 277L665 275L676 276L676 274L672 273L667 268L669 268L664 265L661 254L654 247L664 237L666 240L667 239L669 235L669 229L663 229L662 226L666 222L672 220L673 213L677 210L681 214L683 213z"/></g><g><path class="class-0 leaflet-clickable" stroke-linejoin="round" stroke-linecap="round" fill-rule="evenodd" stroke="#005540" stroke-opacity="1" stroke-width="0.5" fill="#ddfff6" fill-opacity="0.5" d="M732 349L730 351L722 344L720 344L719 346L712 345L710 347L703 345L701 346L693 337L692 341L689 339L685 339L684 337L679 337L681 335L679 332L681 330L679 328L680 323L678 323L680 321L683 322L682 317L685 312L691 312L693 309L693 307L689 303L691 296L688 294L688 292L692 291L693 288L697 286L699 287L701 283L700 281L703 278L706 279L717 270L714 269L714 255L708 255L706 257L704 253L701 255L700 249L698 250L694 247L695 241L689 239L691 234L687 233L689 229L687 219L683 218L683 216L688 213L692 216L694 230L698 234L702 246L704 245L706 247L711 248L711 250L717 250L722 255L735 255L740 260L742 259L741 258L746 257L746 263L739 276L734 294L732 336L730 339L731 348z"/></g><g><path class="class-2 leaflet-clickable" stroke-linejoin="round" stroke-linecap="round" fill-rule="evenodd" stroke="#005540" stroke-opacity="1" stroke-width="0.5" fill="#00cc99" fill-opacity="0.5" d="M679 325L681 329L679 331L681 335L679 337L684 337L692 341L693 337L701 346L714 346L720 350L714 357L716 357L716 361L712 365L715 368L715 370L711 372L713 372L712 376L708 376L705 372L702 373L700 364L695 370L693 370L689 366L687 366L687 368L684 369L675 363L673 363L671 367L667 368L663 366L660 362L647 360L651 355L651 351L649 348L652 344L650 339L651 338L648 337L646 341L645 340L644 343L641 344L639 342L639 339L637 340L632 335L630 330L631 328L629 325L631 323L629 323L631 320L633 322L641 320L654 308L654 302L657 301L658 296L660 299L665 295L668 296L667 301L670 303L670 326L673 327L673 324L674 325L675 323L677 323L676 325L678 325z"/></g><g><path class="class-0 leaflet-clickable" stroke-linejoin="round" stroke-linecap="round" fill-rule="evenodd" stroke="#005540" stroke-opacity="1" stroke-width="0.5" fill="#ddfff6" fill-opacity="0.5" d="M705 427L708 430L712 428L710 434L711 441L710 442L708 440L703 444L697 441L693 436L698 425L705 427z"/></g><g><path class="class-0 leaflet-clickable" stroke-linejoin="round" stroke-linecap="round" fill-rule="evenodd" stroke="#005540" stroke-opacity="1" stroke-width="0.5" fill="#ddfff6" fill-opacity="0.5" d="M685 398L690 401L693 400L693 407L696 409L695 410L699 407L699 405L704 405L704 403L705 409L707 407L710 407L713 410L711 414L713 418L713 428L708 430L705 427L705 421L703 419L702 414L696 421L698 425L697 430L694 431L695 433L692 436L688 434L689 435L687 435L685 438L681 438L675 444L671 439L672 438L670 437L671 434L668 431L677 418L675 412L678 411L678 403L682 403L682 399L684 398z"/></g><g><path class="class-3 leaflet-clickable" stroke-linejoin="round" stroke-linecap="round" fill-rule="evenodd" stroke="#005540" stroke-opacity="1" stroke-width="0.5" fill="#086" fill-opacity="0.5" d="M540 371L539 371z"/></g><g><path class="class-3 leaflet-clickable" stroke-linejoin="round" stroke-linecap="round" fill-rule="evenodd" stroke="#005540" stroke-opacity="1" stroke-width="0.5" fill="#086" fill-opacity="0.5" d="M535 368L537 369L536 370L534 368z"/></g><g><path class="class-3 leaflet-clickable" stroke-linejoin="round" stroke-linecap="round" fill-rule="evenodd" stroke="#005540" stroke-opacity="1" stroke-width="0.5" fill="#086" fill-opacity="0.5" d="M530 363L532 363L533 366L531 366L530 364z"/></g><g><path class="class-3 leaflet-clickable" stroke-linejoin="round" stroke-linecap="round" fill-rule="evenodd" stroke="#005540" stroke-opacity="1" stroke-width="0.5" fill="#086" fill-opacity="0.5" d="M530 361L529 362z"/></g><g><path class="class-3 leaflet-clickable" stroke-linejoin="round" stroke-linecap="round" fill-rule="evenodd" stroke="#005540" stroke-opacity="1" stroke-width="0.5" fill="#086" fill-opacity="0.5" d="M582 346L584 347L582 356L586 356L587 360L591 361L593 363L592 366L597 370L594 373L595 374L585 376L586 381L582 385L585 387L585 389L574 380L565 382L562 388L560 386L555 386L563 376L563 367L562 368L557 364L553 356L553 349L550 343L551 342L551 344L553 341L558 343L556 339L556 333L559 329L560 332L568 332L567 333L570 337L566 339L568 343L572 340L577 344L578 347L582 345z"/></g><g><path class="class-1 leaflet-clickable" stroke-linejoin="round" stroke-linecap="round" fill-rule="evenodd" stroke="#005540" stroke-opacity="1" stroke-width="0.5" fill="#7fd" fill-opacity="0.5" d="M606 179L598 191L599 192L593 202L593 207L592 206L591 209L593 209L593 223L595 224L596 229L594 234L597 236L597 238L585 235L583 236L584 237L577 247L573 243L567 245L565 243L560 244L559 242L558 243L552 240L551 238L550 239L547 236L546 237L544 234L543 237L541 237L542 238L539 242L539 246L534 253L535 257L532 258L532 264L534 262L530 267L526 267L515 258L516 257L513 252L505 253L503 251L499 245L499 237L496 233L494 233L494 229L488 231L486 230L487 229L486 230L486 227L484 225L486 222L484 219L485 217L483 216L482 212L478 210L480 209L475 202L475 198L488 196L488 192L483 181L484 176L482 174L482 172L484 172L483 168L485 166L484 160L487 159L485 157L485 145L487 146L484 138L480 137L478 133L478 130L481 129L481 126L484 126L482 126L483 125L480 123L481 121L479 121L482 118L495 118L495 106L498 105L535 106L540 113L543 116L545 116L556 128L566 135L568 135L568 137L570 137L571 143L575 148L575 156L578 159L578 161L582 165L586 166L585 167L588 170L595 172L606 179z"/></g><g><path class="class-2 leaflet-clickable" stroke-linejoin="round" stroke-linecap="round" fill-rule="evenodd" stroke="#005540" stroke-opacity="1" stroke-width="0.5" fill="#00cc99" fill-opacity="0.5" d="M597 238L605 241L607 249L605 252L606 261L602 268L606 272L603 272L602 275L608 281L607 282L614 287L616 287L621 279L625 294L624 296L621 297L617 297L616 295L606 295L594 306L595 315L593 315L593 317L590 319L587 326L586 331L588 336L584 337L584 344L579 347L575 342L573 342L573 340L571 340L569 343L567 341L566 339L570 337L567 333L568 332L560 332L558 328L555 329L553 327L551 322L552 321L549 316L547 317L546 308L548 309L546 307L545 302L540 297L537 297L537 299L533 299L529 289L519 280L517 271L519 269L518 268L523 265L522 264L525 267L529 267L534 263L532 264L532 258L535 257L534 254L539 246L541 236L542 237L544 234L546 237L547 236L550 239L551 238L557 243L565 243L566 245L572 243L577 247L585 235L589 237L594 237z"/></g><g><path class="class-3 leaflet-clickable" stroke-linejoin="round" stroke-linecap="round" fill-rule="evenodd" stroke="#005540" stroke-opacity="1" stroke-width="0.5" fill="#086" fill-opacity="0.5" d="M663 292L665 295L660 299L658 297L657 301L655 302L654 308L649 313L641 320L636 322L633 322L631 320L629 323L631 323L629 325L633 336L637 340L639 339L639 342L641 344L644 343L648 337L651 338L650 339L652 343L650 344L649 348L651 350L651 355L648 359L647 360L646 358L639 355L635 352L635 348L634 349L629 345L627 347L621 348L621 352L616 359L619 363L619 366L622 368L621 371L619 371L615 375L612 374L612 378L610 379L606 379L599 376L597 372L601 371L601 369L597 369L597 367L601 365L602 362L600 360L610 355L612 350L610 348L609 349L607 345L605 347L606 350L604 350L603 353L597 352L600 349L600 344L599 342L597 342L595 343L594 351L592 347L594 343L593 342L596 341L596 339L593 337L589 338L592 343L589 347L589 343L587 343L585 347L583 346L584 338L588 336L586 331L589 319L594 315L595 316L594 306L598 302L600 302L600 299L602 299L604 295L616 295L619 297L624 296L625 291L621 283L621 280L626 281L625 278L634 279L639 281L641 284L645 285L644 286L646 288L652 286L655 288L656 291L660 293L663 292z"/></g><g><path class="class-1 leaflet-clickable" stroke-linejoin="round" stroke-linecap="round" fill-rule="evenodd" stroke="#005540" stroke-opacity="1" stroke-width="0.5" fill="#7fd" fill-opacity="0.5" d="M687 368L686 371L687 373L689 373L685 376L681 375L682 376L680 382L671 382L668 385L670 393L674 398L672 402L673 405L660 406L657 402L655 402L655 404L651 404L649 402L649 400L651 399L648 398L648 396L646 396L643 399L637 399L637 397L634 394L637 391L634 384L637 382L641 374L644 373L643 370L645 370L644 367L646 363L645 362L647 360L653 360L655 362L657 361L665 367L671 367L672 363L674 363L684 369L686 368z"/></g><g><path class="class-3 leaflet-clickable" stroke-linejoin="round" stroke-linecap="round" fill-rule="evenodd" stroke="#005540" stroke-opacity="1" stroke-width="0.5" fill="#086" fill-opacity="0.5" d="M756 443L752 447L747 449L744 448L739 452L737 452L735 446L731 446L731 453L733 451L734 452L732 452L729 455L727 453L723 453L723 455L718 456L717 453L713 454L703 446L703 444L706 441L711 442L710 434L713 428L712 417L714 417L723 426L726 423L729 425L731 422L735 421L732 417L729 416L730 415L728 413L726 413L726 411L721 412L722 411L720 408L725 401L723 398L720 398L723 397L729 390L730 384L733 385L733 389L737 392L732 395L734 397L733 400L737 402L740 398L746 401L740 416L742 418L741 419L750 422L748 424L749 425L745 424L742 437L743 436L748 441L752 439L756 443z"/></g><g><path class="class-3 leaflet-clickable" stroke-linejoin="round" stroke-linecap="round" fill-rule="evenodd" stroke="#005540" stroke-opacity="1" stroke-width="0.5" fill="#086" fill-opacity="0.5" d="M821 473L815 489L817 492L816 496L818 500L812 497L802 495L790 496L785 501L781 501L771 506L770 505L767 508L758 508L749 505L746 502L732 501L722 494L715 493L719 490L718 487L723 485L722 484L725 481L725 477L727 475L722 474L721 470L720 471L720 464L716 460L717 456L721 454L722 455L724 453L728 453L731 455L733 452L732 451L731 453L730 448L735 445L737 452L744 448L749 449L756 443L757 437L763 440L768 449L776 449L777 454L775 459L779 463L782 464L788 459L790 459L791 460L789 462L793 467L798 470L797 471L816 473z"/></g><g><path class="class-2 leaflet-clickable" stroke-linejoin="round" stroke-linecap="round" fill-rule="evenodd" stroke="#005540" stroke-opacity="1" stroke-width="0.5" fill="#00cc99" fill-opacity="0.5" d="M887 457L887 470L876 470L877 467L871 465L872 462L868 459L868 455L864 455L857 460L856 459L856 461L854 463L850 463L850 465L847 468L845 466L844 467L845 466L843 464L841 464L839 459L840 456L838 456L839 455L836 453L833 454L833 460L829 464L827 469L825 467L827 463L825 463L821 458L816 456L817 452L815 448L831 442L844 442L847 440L847 438L852 437L855 442L859 442L860 449L863 450L864 452L872 456L872 450L875 448L875 450L881 453L887 453L887 455z"/></g><g><path class="class-1 leaflet-clickable" stroke-linejoin="round" stroke-linecap="round" fill-rule="evenodd" stroke="#005540" stroke-opacity="1" stroke-width="0.5" fill="#7fd" fill-opacity="0.5" d="M639 355L638 356L640 358L635 359L631 364L627 364L621 361L618 362L616 360L621 352L621 348L627 347L629 345L633 347L632 348L635 348L635 352L639 355z"/></g><g><path class="class-0 leaflet-clickable" stroke-linejoin="round" stroke-linecap="round" fill-rule="evenodd" stroke="#005540" stroke-opacity="1" stroke-width="0.5" fill="#ddfff6" fill-opacity="0.5" d="M471 248L475 248L480 244L481 241L485 239L489 229L495 230L494 233L496 233L499 236L499 245L505 253L514 253L516 256L515 258L521 262L521 264L523 264L520 267L518 267L519 270L517 271L519 275L519 280L521 280L524 286L529 289L532 295L531 296L534 299L537 299L537 297L543 299L545 305L548 308L546 308L547 316L550 317L552 321L551 322L553 324L553 328L559 329L556 333L556 340L557 339L558 342L557 343L553 341L552 344L534 325L533 321L527 315L522 307L504 294L488 274L475 269L472 265L468 265L466 257L471 248z"/></g><g><path class="class-0 leaflet-clickable" stroke-linejoin="round" stroke-linecap="round" fill-rule="evenodd" stroke="#005540" stroke-opacity="1" stroke-width="0.5" fill="#ddfff6" fill-opacity="0.5" d="M396 186L395 188L395 186z"/></g><g><path class="class-0 leaflet-clickable" stroke-linejoin="round" stroke-linecap="round" fill-rule="evenodd" stroke="#005540" stroke-opacity="1" stroke-width="0.5" fill="#ddfff6" fill-opacity="0.5" d="M402 173L404 179L401 186L396 182L397 175L401 173z"/></g><g><path class="class-0 leaflet-clickable" stroke-linejoin="round" stroke-linecap="round" fill-rule="evenodd" stroke="#005540" stroke-opacity="1" stroke-width="0.5" fill="#ddfff6" fill-opacity="0.5" d="M347 106L349 106L348 107z"/></g><g><path class="class-0 leaflet-clickable" stroke-linejoin="round" stroke-linecap="round" fill-rule="evenodd" stroke="#005540" stroke-opacity="1" stroke-width="0.5" fill="#ddfff6" fill-opacity="0.5" d="M344 86L424 115L429 118L482 118L481 120L479 120L480 123L483 125L482 126L484 126L481 126L481 129L478 129L478 132L480 135L479 136L486 141L485 144L487 145L485 145L485 158L487 158L487 160L484 160L485 166L483 168L483 182L486 186L488 196L476 198L475 202L479 209L478 210L482 213L484 217L486 222L484 224L487 231L490 231L484 239L484 241L482 241L479 244L479 246L471 248L471 244L469 241L464 238L459 238L455 229L447 227L443 223L440 223L441 209L439 207L438 208L434 206L434 208L432 208L432 206L426 204L420 195L416 193L410 186L411 184L404 180L404 173L402 170L401 171L399 169L400 167L396 162L394 156L391 155L391 148L383 134L384 122L378 119L371 118L371 114L366 110L358 113L349 106L342 103L340 96L341 95L339 93L341 91L341 87L344 87zM435 205L435 206z"/></g><g><path class="class-0 leaflet-clickable" stroke-linejoin="round" stroke-linecap="round" fill-rule="evenodd" stroke="#005540" stroke-opacity="1" stroke-width="0.5" fill="#ddfff6" fill-opacity="0.5" d="M327 197L326 197z"/></g><g><path class="class-0 leaflet-clickable" stroke-linejoin="round" stroke-linecap="round" fill-rule="evenodd" stroke="#005540" stroke-opacity="1" stroke-width="0.5" fill="#ddfff6" fill-opacity="0.5" d="M335 195L337 201L336 204L332 202L335 199L335 196z"/></g><g><path class="class-0 leaflet-clickable" stroke-linejoin="round" stroke-linecap="round" fill-rule="evenodd" stroke="#005540" stroke-opacity="1" stroke-width="0.5" fill="#ddfff6" fill-opacity="0.5" d="M388 187L391 189L390 190L389 188z"/></g><g><path class="class-0 leaflet-clickable" stroke-linejoin="round" stroke-linecap="round" fill-rule="evenodd" stroke="#005540" stroke-opacity="1" stroke-width="0.5" fill="#ddfff6" fill-opacity="0.5" d="M374 176L374 177z"/></g><g><path class="class-0 leaflet-clickable" stroke-linejoin="round" stroke-linecap="round" fill-rule="evenodd" stroke="#005540" stroke-opacity="1" stroke-width="0.5" fill="#ddfff6" fill-opacity="0.5" d="M374 165L377 167L377 170L379 172L382 171L382 179L372 168L373 165z"/></g><g><path class="class-0 leaflet-clickable" stroke-linejoin="round" stroke-linecap="round" fill-rule="evenodd" stroke="#005540" stroke-opacity="1" stroke-width="0.5" fill="#ddfff6" fill-opacity="0.5" d="M264 174L266 177L265 182L263 177L264 174z"/></g><g><path class="class-0 leaflet-clickable" stroke-linejoin="round" stroke-linecap="round" fill-rule="evenodd" stroke="#005540" stroke-opacity="1" stroke-width="0.5" fill="#ddfff6" fill-opacity="0.5" d="M353 153L353 154z"/></g><g><path class="class-0 leaflet-clickable" stroke-linejoin="round" stroke-linecap="round" fill-rule="evenodd" stroke="#005540" stroke-opacity="1" stroke-width="0.5" fill="#ddfff6" fill-opacity="0.5" d="M346 112L346 112z"/></g><g><path class="class-0 leaflet-clickable" stroke-linejoin="round" stroke-linecap="round" fill-rule="evenodd" stroke="#005540" stroke-opacity="1" stroke-width="0.5" fill="#ddfff6" fill-opacity="0.5" d="M346 105L348 107L347 108L345 108L345 105z"/></g><g><path class="class-0 leaflet-clickable" stroke-linejoin="round" stroke-linecap="round" fill-rule="evenodd" stroke="#005540" stroke-opacity="1" stroke-width="0.5" fill="#ddfff6" fill-opacity="0.5" d="M344 86L341 88L339 93L341 95L341 102L344 103L345 105L345 110L343 113L343 123L347 129L347 137L349 142L348 149L354 157L354 159L357 159L371 172L374 182L376 180L378 184L381 184L383 191L389 195L388 197L390 199L390 205L358 205L361 201L360 198L362 194L360 190L355 186L355 184L352 181L350 181L349 177L346 176L346 174L324 159L325 157L322 153L322 146L316 140L317 134L311 127L310 128L309 119L302 112L303 109L301 106L302 107L303 104L297 99L297 96L292 88L292 85L346 80L344 86z"/></g></svg>