<svg xmlns="http://www.w3.org/2000/svg" class="leaflet-zoom-animated" width="1389" height="686" viewBox="-111 -55 1389 686" style="transform: translate3d(-111px, -55px, 0px);"><g><path class="class-2 leaflet-clickable" stroke-linejoin="round" stroke-linecap="round" fill-rule="evenodd" stroke="#005540" stroke-opacity="1" stroke-width="0.5" fill="#00cc99" fill-opacity="0.5" d="M648 418L647 415L653 415L656 413L655 412L661 412L666 416L666 418L668 418L671 421L670 423L667 422L665 425L662 424L659 427L652 421L651 418L649 419z"/></g><g><path class="class-1 leaflet-clickable" stroke-linejoin="round" stroke-linecap="round" fill-rule="evenodd" stroke="#005540" stroke-opacity="1" stroke-width="0.5" fill="#7fd" fill-opacity="0.5" d="M639 374L638 377L634 379L633 377L628 387L629 389L621 392L621 399L619 398L619 403L615 405L612 402L612 399L610 399L606 395L604 386L607 383L615 383L616 380L617 381L617 376L623 376L625 374L622 373L624 367L631 371L636 365L638 374z"/></g><g><path class="class-0 leaflet-clickable" stroke-linejoin="round" stroke-linecap="round" fill-rule="evenodd" stroke="#005540" stroke-opacity="1" stroke-width="0.5" fill="#ddfff6" fill-opacity="0.5" d="M575 356L574 357L576 359L571 360L567 365L563 365L557 362L554 363L552 361L557 353L557 349L563 348L565 346L569 348L568 349L571 349L571 353L575 356z"/></g><g><path class="class-1 leaflet-clickable" stroke-linejoin="round" stroke-linecap="round" fill-rule="evenodd" stroke="#005540" stroke-opacity="1" stroke-width="0.5" fill="#7fd" fill-opacity="0.5" d="M407 249L411 249L416 245L417 242L421 240L425 230L431 231L430 234L432 234L435 237L435 246L441 254L450 254L452 257L451 259L457 263L457 265L459 265L456 268L454 268L455 271L453 272L455 276L455 281L457 281L460 287L465 290L468 296L467 297L470 300L473 300L473 298L479 300L481 306L484 309L482 309L483 317L486 318L488 322L487 323L489 325L489 329L495 330L492 334L492 341L493 340L494 343L493 344L489 342L488 345L470 326L469 322L463 316L458 308L440 295L424 275L411 270L408 266L404 266L402 258L407 249z"/></g><g><path class="class-1 leaflet-clickable" stroke-linejoin="round" stroke-linecap="round" fill-rule="evenodd" stroke="#005540" stroke-opacity="1" stroke-width="0.5" fill="#7fd" fill-opacity="0.5" d="M394 303L392 303L392 298L394 302z"/></g><g><path class="class-1 leaflet-clickable" stroke-linejoin="round" stroke-linecap="round" fill-rule="evenodd" stroke="#005540" stroke-opacity="1" stroke-width="0.5" fill="#7fd" fill-opacity="0.5" d="M382 294L382 297L381 294z"/></g><g><path class="class-1 leaflet-clickable" stroke-linejoin="round" stroke-linecap="round" fill-rule="evenodd" stroke="#005540" stroke-opacity="1" stroke-width="0.5" fill="#7fd" fill-opacity="0.5" d="M381 292L381 293z"/></g><g><path class="class-1 leaflet-clickable" stroke-linejoin="round" stroke-linecap="round" fill-rule="evenodd" stroke="#005540" stroke-opacity="1" stroke-width="0.5" fill="#7fd" fill-opacity="0.5" d="M374 280L377 282L378 285L374 281z"/></g><g><path class="class-1 leaflet-clickable" stroke-linejoin="round" stroke-linecap="round" fill-rule="evenodd" stroke="#005540" stroke-opacity="1" stroke-width="0.5" fill="#7fd" fill-opacity="0.5" d="M374 274L373 276L374 274z"/></g><g><path class="class-1 leaflet-clickable" stroke-linejoin="round" stroke-linecap="round" fill-rule="evenodd" stroke="#005540" stroke-opacity="1" stroke-width="0.5" fill="#7fd" fill-opacity="0.5" d="M372 264L373 267L372 265z"/></g><g><path class="class-1 leaflet-clickable" stroke-linejoin="round" stroke-linecap="round" fill-rule="evenodd" stroke="#005540" stroke-opacity="1" stroke-width="0.5" fill="#7fd" fill-opacity="0.5" d="M366 264L366 266L366 264z"/></g><g><path class="class-1 leaflet-clickable" stroke-linejoin="round" stroke-linecap="round" fill-rule="evenodd" stroke="#005540" stroke-opacity="1" stroke-width="0.5" fill="#7fd" fill-opacity="0.5" d="M366 255L366 257L364 257L362 261L363 262L362 259L363 256L365 256z"/></g><g><path class="class-1 leaflet-clickable" stroke-linejoin="round" stroke-linecap="round" fill-rule="evenodd" stroke="#005540" stroke-opacity="1" stroke-width="0.5" fill="#7fd" fill-opacity="0.5" d="M361 253L361 253z"/></g><g><path class="class-1 leaflet-clickable" stroke-linejoin="round" stroke-linecap="round" fill-rule="evenodd" stroke="#005540" stroke-opacity="1" stroke-width="0.5" fill="#7fd" fill-opacity="0.5" d="M343 225L343 227L342 225z"/></g><g><path class="class-1 leaflet-clickable" stroke-linejoin="round" stroke-linecap="round" fill-rule="evenodd" stroke="#005540" stroke-opacity="1" stroke-width="0.5" fill="#7fd" fill-opacity="0.5" d="M346 220L345 220z"/></g><g><path class="class-1 leaflet-clickable" stroke-linejoin="round" stroke-linecap="round" fill-rule="evenodd" stroke="#005540" stroke-opacity="1" stroke-width="0.5" fill="#7fd" fill-opacity="0.5" d="M272 209L272 209z"/></g><g><path class="class-1 leaflet-clickable" stroke-linejoin="round" stroke-linecap="round" fill-rule="evenodd" stroke="#005540" stroke-opacity="1" stroke-width="0.5" fill="#7fd" fill-opacity="0.5" d="M294 206L327 206L329 213L337 219L340 225L339 226L346 230L344 231L344 233L346 235L348 234L351 236L354 242L357 244L356 245L360 255L360 263L365 269L367 269L368 275L375 286L373 294L376 301L382 303L382 299L385 299L390 303L390 306L394 307L394 309L397 312L397 315L402 318L403 325L399 330L390 335L387 331L385 321L381 317L377 315L365 303L355 298L350 299L340 291L340 288L337 287L342 275L342 262L336 251L329 249L314 237L312 236L309 239L302 232L298 232L295 228L291 228L288 225L287 221L274 210L275 209L287 212L293 209L294 207z"/></g><g><path class="class-1 leaflet-clickable" stroke-linejoin="round" stroke-linecap="round" fill-rule="evenodd" stroke="#005540" stroke-opacity="1" stroke-width="0.5" fill="#7fd" fill-opacity="0.5" d="M901 369L901 381L898 387L887 399L881 399L875 405L873 405L872 408L870 408L871 409L865 415L864 414L861 416L858 414L854 408L854 405L851 401L849 401L845 394L842 395L837 392L836 385L838 380L848 375L874 371L878 368L883 368L886 366L901 369z"/></g><g><path class="class-1 leaflet-clickable" stroke-linejoin="round" stroke-linecap="round" fill-rule="evenodd" stroke="#005540" stroke-opacity="1" stroke-width="0.5" fill="#7fd" fill-opacity="0.5" d="M851 342L854 343L855 345L853 347L850 344L851 342z"/></g><g><path class="class-1 leaflet-clickable" stroke-linejoin="round" stroke-linecap="round" fill-rule="evenodd" stroke="#005540" stroke-opacity="1" stroke-width="0.5" fill="#7fd" fill-opacity="0.5" d="M905 444L906 441L906 443z"/></g><g><path class="class-1 leaflet-clickable" stroke-linejoin="round" stroke-linecap="round" fill-rule="evenodd" stroke="#005540" stroke-opacity="1" stroke-width="0.5" fill="#7fd" fill-opacity="0.5" d="M907 436L907 438L907 436z"/></g><g><path class="class-1 leaflet-clickable" stroke-linejoin="round" stroke-linecap="round" fill-rule="evenodd" stroke="#005540" stroke-opacity="1" stroke-width="0.5" fill="#7fd" fill-opacity="0.5" d="M919 392L913 399L913 395L915 392L920 391z"/></g><g><path class="class-1 leaflet-clickable" stroke-linejoin="round" stroke-linecap="round" fill-rule="evenodd" stroke="#005540" stroke-opacity="1" stroke-width="0.5" fill="#7fd" fill-opacity="0.5" d="M864 455L863 451L865 450L865 426L864 419L861 416L864 414L865 415L865 413L867 413L867 411L872 408L872 406L875 405L876 402L879 402L881 399L887 398L891 395L898 387L901 381L901 369L908 371L911 370L912 367L917 374L917 371L918 372L918 380L915 386L903 400L903 410L902 411L903 407L902 410L896 413L898 417L903 414L904 415L903 419L898 421L898 425L901 422L903 422L901 424L893 450L890 450L890 444L885 444L885 442L879 442L877 448L874 450L871 456L867 453L865 455z"/></g><g><path class="class-1 leaflet-clickable" stroke-linejoin="round" stroke-linecap="round" fill-rule="evenodd" stroke="#005540" stroke-opacity="1" stroke-width="0.5" fill="#7fd" fill-opacity="0.5" d="M911 366L909 368L904 369L906 367L910 367z"/></g><g><path class="class-2 leaflet-clickable" stroke-linejoin="round" stroke-linecap="round" fill-rule="evenodd" stroke="#005540" stroke-opacity="1" stroke-width="0.5" fill="#00cc99" fill-opacity="0.5" d="M836 385L836 392L840 392L841 395L844 394L849 398L848 399L854 405L857 413L864 419L864 458L823 458L823 454L813 452L810 450L811 449L808 452L808 456L796 450L796 445L792 443L789 439L792 437L800 437L803 439L820 429L829 421L829 413L835 406L834 392L836 385z"/></g><g><path class="class-2 leaflet-clickable" stroke-linejoin="round" stroke-linecap="round" fill-rule="evenodd" stroke="#005540" stroke-opacity="1" stroke-width="0.5" fill="#00cc99" fill-opacity="0.5" d="M823 458L823 471L812 471L813 468L807 466L808 463L804 460L804 456L800 456L793 461L792 460L792 462L790 464L786 464L786 466L783 469L781 467L780 468L781 467L779 465L777 465L775 460L776 457L774 457L775 456L772 454L769 455L769 461L765 465L763 470L761 468L763 464L761 464L757 459L752 457L753 453L751 449L767 443L780 443L783 441L783 439L788 438L791 443L795 443L796 450L799 451L800 453L808 457L808 451L811 449L811 451L817 454L823 454L823 456z"/></g><g><path class="class-3 leaflet-clickable" stroke-linejoin="round" stroke-linecap="round" fill-rule="evenodd" stroke="#005540" stroke-opacity="1" stroke-width="0.5" fill="#086" fill-opacity="0.5" d="M812 471L815 474L816 473L816 475L820 477L819 478L824 482L829 484L830 489L836 492L835 499L806 499L795 519L798 523L795 528L796 532L794 536L766 508L758 502L753 501L751 497L753 496L753 493L751 490L757 474L765 467L765 465L769 461L768 459L771 454L774 456L774 458L776 458L775 460L778 466L779 465L781 467L780 468L781 467L783 469L787 464L792 463L791 462L797 459L797 457L800 455L803 456L803 460L807 461L807 467L812 468L813 471z"/></g><g><path class="class-3 leaflet-clickable" stroke-linejoin="round" stroke-linecap="round" fill-rule="evenodd" stroke="#005540" stroke-opacity="1" stroke-width="0.5" fill="#086" fill-opacity="0.5" d="M692 444L688 448L683 450L680 449L675 453L673 453L671 447L667 447L667 454L669 452L670 453L668 453L665 456L663 454L659 454L659 456L654 457L653 454L649 455L639 447L639 445L642 442L647 443L646 435L649 429L648 418L650 418L659 427L662 424L665 426L667 423L671 422L668 418L665 417L666 416L664 414L662 414L662 412L657 413L658 412L656 409L661 402L659 399L656 399L659 398L665 391L666 385L669 386L669 390L673 393L668 396L670 398L669 401L673 403L676 399L682 402L676 417L678 419L677 420L686 423L684 425L685 426L681 425L678 438L679 437L684 442L688 440L692 444z"/></g><g><path class="class-1 leaflet-clickable" stroke-linejoin="round" stroke-linecap="round" fill-rule="evenodd" stroke="#005540" stroke-opacity="1" stroke-width="0.5" fill="#7fd" fill-opacity="0.5" d="M641 428L644 431L648 429L646 435L647 442L646 443L644 441L639 445L633 442L629 437L634 426L641 428z"/></g><g><path class="class-2 leaflet-clickable" stroke-linejoin="round" stroke-linecap="round" fill-rule="evenodd" stroke="#005540" stroke-opacity="1" stroke-width="0.5" fill="#00cc99" fill-opacity="0.5" d="M641 428L637 428L632 424L637 415L641 422L641 427z"/></g><g><path class="class-3 leaflet-clickable" stroke-linejoin="round" stroke-linecap="round" fill-rule="evenodd" stroke="#005540" stroke-opacity="1" stroke-width="0.5" fill="#086" fill-opacity="0.5" d="M621 399L626 402L629 401L629 408L632 410L631 411L635 408L635 406L640 406L640 404L641 410L643 408L646 408L649 411L647 415L649 419L649 429L644 431L641 428L641 422L639 420L638 415L632 422L634 426L633 431L630 432L631 434L628 437L624 435L625 436L623 436L621 439L617 439L611 445L607 440L608 439L606 438L607 435L604 432L613 419L611 413L614 412L614 404L618 404L618 400L620 399z"/></g><g><path class="class-1 leaflet-clickable" stroke-linejoin="round" stroke-linecap="round" fill-rule="evenodd" stroke="#005540" stroke-opacity="1" stroke-width="0.5" fill="#7fd" fill-opacity="0.5" d="M476 372L475 372z"/></g><g><path class="class-1 leaflet-clickable" stroke-linejoin="round" stroke-linecap="round" fill-rule="evenodd" stroke="#005540" stroke-opacity="1" stroke-width="0.5" fill="#7fd" fill-opacity="0.5" d="M471 369L473 370L472 371L470 369z"/></g><g><path class="class-1 leaflet-clickable" stroke-linejoin="round" stroke-linecap="round" fill-rule="evenodd" stroke="#005540" stroke-opacity="1" stroke-width="0.5" fill="#7fd" fill-opacity="0.5" d="M466 364L468 364L469 367L467 367L466 365z"/></g><g><path class="class-1 leaflet-clickable" stroke-linejoin="round" stroke-linecap="round" fill-rule="evenodd" stroke="#005540" stroke-opacity="1" stroke-width="0.5" fill="#7fd" fill-opacity="0.5" d="M466 362L465 363z"/></g><g><path class="class-1 leaflet-clickable" stroke-linejoin="round" stroke-linecap="round" fill-rule="evenodd" stroke="#005540" stroke-opacity="1" stroke-width="0.5" fill="#7fd" fill-opacity="0.5" d="M518 347L520 348L518 357L522 357L523 361L527 362L529 364L528 367L533 371L530 374L531 375L521 377L522 382L518 386L521 388L521 390L510 381L501 383L498 389L496 387L491 387L499 377L499 368L498 369L493 365L489 357L489 350L486 344L487 343L487 345L489 342L494 344L492 340L492 334L495 330L496 333L504 333L503 334L506 338L502 340L504 344L508 341L513 345L514 348L518 346z"/></g><g><path class="class-1 leaflet-clickable" stroke-linejoin="round" stroke-linecap="round" fill-rule="evenodd" stroke="#005540" stroke-opacity="1" stroke-width="0.5" fill="#7fd" fill-opacity="0.5" d="M282 445L282 445z"/></g><g><path class="class-1 leaflet-clickable" stroke-linejoin="round" stroke-linecap="round" fill-rule="evenodd" stroke="#005540" stroke-opacity="1" stroke-width="0.5" fill="#7fd" fill-opacity="0.5" d="M367 433L369 435L368 436L366 434L367 433z"/></g><g><path class="class-1 leaflet-clickable" stroke-linejoin="round" stroke-linecap="round" fill-rule="evenodd" stroke="#005540" stroke-opacity="1" stroke-width="0.5" fill="#7fd" fill-opacity="0.5" d="M538 430L532 437L518 427L511 425L512 426L515 423L516 424L524 422L523 421L525 417L530 420L534 417L538 421L538 430z"/></g><g><path class="class-1 leaflet-clickable" stroke-linejoin="round" stroke-linecap="round" fill-rule="evenodd" stroke="#005540" stroke-opacity="1" stroke-width="0.5" fill="#7fd" fill-opacity="0.5" d="M371 423L371 422z"/></g><g><path class="class-1 leaflet-clickable" stroke-linejoin="round" stroke-linecap="round" fill-rule="evenodd" stroke="#005540" stroke-opacity="1" stroke-width="0.5" fill="#7fd" fill-opacity="0.5" d="M555 363L557 362L565 366L575 359L576 358L574 358L576 356L578 356L583 362L581 362L582 363L580 368L582 371L580 371L580 373L577 375L577 377L570 386L573 389L570 395L568 397L562 397L553 403L552 401L548 403L548 406L550 405L555 408L555 410L553 411L556 416L555 417L560 418L557 424L555 423L551 425L546 431L544 429L538 430L538 422L534 417L530 420L525 417L523 422L516 424L515 423L512 426L508 424L508 422L507 423L504 421L502 416L500 416L492 405L488 395L496 393L498 391L497 389L499 386L500 387L502 383L507 381L514 383L521 391L520 386L518 386L522 382L521 377L531 375L530 374L533 371L528 366L529 364L527 362L523 362L522 358L518 356L520 348L522 346L523 347L522 344L525 345L524 348L528 345L525 340L526 338L532 340L532 342L529 343L530 344L528 348L530 352L530 348L533 342L536 344L533 353L534 354L538 354L540 351L542 351L541 348L543 346L545 348L544 349L548 351L546 357L542 357L538 361L536 361L538 363L537 366L533 368L533 370L537 370L538 372L533 374L535 374L536 378L546 380L548 375L551 376L555 372L556 373L558 369L554 366L555 364z"/></g><g><path class="class-1 leaflet-clickable" stroke-linejoin="round" stroke-linecap="round" fill-rule="evenodd" stroke="#005540" stroke-opacity="1" stroke-width="0.5" fill="#7fd" fill-opacity="0.5" d="M623 369L622 372L623 374L625 374L621 377L617 376L618 377L616 383L607 383L604 386L606 394L610 399L608 403L609 406L596 407L593 403L591 403L591 405L587 405L585 403L585 401L587 400L584 399L584 397L582 397L579 400L573 400L573 398L570 395L573 392L570 385L573 383L577 375L580 374L579 371L581 371L580 368L582 364L581 363L583 361L589 361L591 363L593 362L601 368L607 368L608 364L610 364L620 370L622 369z"/></g><g><path class="class-1 leaflet-clickable" stroke-linejoin="round" stroke-linecap="round" fill-rule="evenodd" stroke="#005540" stroke-opacity="1" stroke-width="0.5" fill="#7fd" fill-opacity="0.5" d="M609 398L613 400L612 402L615 405L614 406L616 409L614 409L612 413L613 420L610 421L608 427L602 434L599 433L600 440L603 442L603 445L599 442L596 443L594 441L588 440L584 442L578 439L575 440L574 442L575 447L568 450L568 456L538 446L532 437L538 430L543 429L546 431L549 428L549 426L550 427L550 425L555 423L556 424L558 422L559 418L555 418L556 416L553 411L555 409L554 407L548 406L548 403L551 402L550 401L555 402L561 397L568 396L572 396L571 397L573 397L575 401L579 401L580 398L584 397L584 399L587 400L585 400L585 403L587 405L591 405L591 403L593 403L596 407L606 407L609 406L608 403L610 399z"/></g><g><path class="class-2 leaflet-clickable" stroke-linejoin="round" stroke-linecap="round" fill-rule="evenodd" stroke="#005540" stroke-opacity="1" stroke-width="0.5" fill="#00cc99" fill-opacity="0.5" d="M663 393L659 398L656 399L660 400L660 402L656 408L658 411L655 412L656 413L654 415L648 415L649 410L646 408L642 408L641 410L640 407L642 405L640 404L640 406L637 405L635 409L633 409L632 411L632 409L629 406L629 401L626 402L621 399L621 392L626 391L628 389L632 380L631 379L639 377L641 373L642 376L648 377L648 373L652 371L651 374L654 377L657 376L656 377L658 377L660 380L657 384L658 386L653 385L650 389L652 388L650 397L655 396L661 390L663 392z"/></g><g><path class="class-3 leaflet-clickable" stroke-linejoin="round" stroke-linecap="round" fill-rule="evenodd" stroke="#005540" stroke-opacity="1" stroke-width="0.5" fill="#086" fill-opacity="0.5" d="M668 350L670 358L678 367L676 373L677 379L684 393L691 399L698 408L701 420L706 425L706 427L709 428L711 433L716 436L725 436L735 441L742 450L751 448L752 457L760 461L762 464L762 471L760 471L757 474L733 473L734 471L729 468L725 463L727 461L726 460L724 460L718 465L715 465L711 460L713 455L712 450L704 450L705 449L704 450L702 448L697 439L693 438L692 445L690 441L686 440L684 442L681 438L678 437L680 432L679 429L686 423L677 420L678 419L676 417L676 415L679 412L679 408L683 402L676 399L673 403L669 401L670 398L668 396L669 394L670 395L673 393L670 392L668 385L666 385L665 391L663 392L661 389L660 392L655 396L650 397L651 396L649 393L652 391L653 388L651 389L655 384L655 386L657 386L658 381L660 379L656 377L657 376L654 377L651 374L652 371L651 372L648 366L653 362L650 357L652 358L653 354L656 351L648 347L654 347L657 345L663 348L666 352L667 350z"/></g><g><path class="class-2 leaflet-clickable" stroke-linejoin="round" stroke-linecap="round" fill-rule="evenodd" stroke="#005540" stroke-opacity="1" stroke-width="0.5" fill="#00cc99" fill-opacity="0.5" d="M668 350L666 352L658 345L656 345L655 347L648 346L646 348L639 346L637 347L629 338L628 342L625 340L621 340L620 338L615 338L617 336L615 333L617 331L615 329L616 324L614 324L616 322L619 323L618 318L621 313L627 313L629 310L629 308L625 304L627 297L624 295L624 293L628 292L629 289L633 287L635 288L637 284L636 282L639 279L642 280L653 271L650 270L650 256L644 256L642 258L640 254L637 256L636 250L634 251L630 248L631 242L625 240L627 235L623 234L625 230L623 220L619 219L619 217L624 214L628 217L630 231L634 235L638 247L640 246L642 248L647 249L647 251L653 251L658 256L671 256L676 261L678 260L677 259L682 258L682 264L675 277L670 295L668 337L666 340L667 349z"/></g><g><path class="class-0 leaflet-clickable" stroke-linejoin="round" stroke-linecap="round" fill-rule="evenodd" stroke="#005540" stroke-opacity="1" stroke-width="0.5" fill="#ddfff6" fill-opacity="0.5" d="M621 212L624 214L619 217L619 219L623 220L625 229L623 234L627 235L625 239L631 242L630 248L634 251L636 250L637 256L640 254L642 258L644 256L650 256L650 270L653 270L643 280L639 279L636 282L636 288L633 287L629 289L628 292L624 293L624 295L626 295L627 297L625 304L630 310L627 313L621 313L618 318L619 323L616 322L614 324L616 324L615 326L612 326L613 324L611 324L610 326L609 325L610 328L607 327L607 314L605 311L606 305L603 303L604 298L599 293L599 286L601 284L599 283L599 278L601 276L612 277L612 275L608 274L603 269L605 269L600 266L597 255L590 248L600 238L602 241L603 240L605 236L605 230L599 230L598 227L602 223L608 221L609 214L613 211L617 215L619 214z"/></g><g><path class="class-2 leaflet-clickable" stroke-linejoin="round" stroke-linecap="round" fill-rule="evenodd" stroke="#005540" stroke-opacity="1" stroke-width="0.5" fill="#00cc99" fill-opacity="0.5" d="M615 326L617 330L615 332L617 336L615 338L620 338L628 342L629 338L637 347L650 347L656 351L650 358L652 358L652 362L648 366L651 369L651 371L647 373L649 373L648 377L644 377L641 373L638 374L636 365L631 371L629 371L625 367L623 367L623 369L620 370L611 364L609 364L607 368L603 369L599 367L596 363L583 361L587 356L587 352L585 349L588 345L586 340L587 339L584 338L582 342L581 341L580 344L577 345L575 343L575 340L573 341L568 336L566 331L567 329L565 326L567 324L565 324L567 321L569 323L577 321L590 309L590 303L593 302L594 297L596 300L601 296L604 297L603 302L606 304L606 327L609 328L609 325L610 326L611 324L613 324L612 326L614 326z"/></g><g><path class="class-1 leaflet-clickable" stroke-linejoin="round" stroke-linecap="round" fill-rule="evenodd" stroke="#005540" stroke-opacity="1" stroke-width="0.5" fill="#7fd" fill-opacity="0.5" d="M599 293L601 296L596 300L594 298L593 302L591 303L590 309L585 314L577 321L572 323L569 323L567 321L565 324L567 324L565 326L569 337L573 341L575 340L575 343L577 345L580 344L584 338L587 339L586 340L588 344L586 345L585 349L587 351L587 356L584 360L583 361L582 359L575 356L571 353L571 349L570 350L565 346L563 348L557 349L557 353L552 360L555 364L555 367L558 369L557 372L555 372L551 376L548 375L548 379L546 380L542 380L535 377L533 373L537 372L537 370L533 370L533 368L537 366L538 363L536 361L546 356L548 351L546 349L545 350L543 346L541 348L542 351L540 351L539 354L533 353L536 350L536 345L535 343L533 343L531 344L530 352L528 348L530 344L529 343L532 342L532 340L529 338L525 339L528 344L525 348L525 344L523 344L521 348L519 347L520 339L524 337L522 332L525 320L530 316L531 317L530 307L534 303L536 303L536 300L538 300L540 296L552 296L555 298L560 297L561 292L557 284L557 281L562 282L561 279L570 280L575 282L577 285L581 286L580 287L582 289L588 287L591 289L592 292L596 294L599 293z"/></g><g><path class="class-1 leaflet-clickable" stroke-linejoin="round" stroke-linecap="round" fill-rule="evenodd" stroke="#005540" stroke-opacity="1" stroke-width="0.5" fill="#7fd" fill-opacity="0.5" d="M621 212L617 216L613 211L609 214L608 221L602 223L598 227L599 230L605 230L605 236L603 240L602 241L600 238L590 248L599 259L598 262L602 268L605 269L603 269L607 272L607 274L612 274L612 277L601 276L599 278L599 282L601 284L599 286L598 293L596 294L588 287L582 289L580 287L581 286L567 279L561 279L562 282L557 280L552 289L543 283L544 282L538 276L538 274L540 272L541 273L538 269L542 263L541 253L543 250L541 242L533 239L533 237L530 234L532 231L528 211L529 210L527 210L527 207L529 207L529 204L535 193L534 192L542 180L546 181L547 178L551 174L552 175L551 173L553 171L554 165L558 160L562 160L565 157L576 160L584 159L586 163L588 163L588 165L589 164L589 166L602 177L606 189L610 194L609 195L621 211z"/></g><g><path class="class-2 leaflet-clickable" stroke-linejoin="round" stroke-linecap="round" fill-rule="evenodd" stroke="#005540" stroke-opacity="1" stroke-width="0.5" fill="#00cc99" fill-opacity="0.5" d="M533 239L541 242L543 250L541 253L542 262L538 269L542 273L539 273L538 276L544 282L543 283L550 288L552 288L557 280L561 295L560 297L557 298L553 298L552 296L542 296L530 307L531 316L529 316L529 318L526 320L523 327L522 332L524 337L520 338L520 345L515 348L511 343L509 343L509 341L507 341L505 344L503 342L502 340L506 338L503 334L504 333L496 333L494 329L491 330L489 328L487 323L488 322L485 317L483 318L482 309L484 310L482 308L481 303L476 298L473 298L473 300L469 300L465 290L455 281L453 272L455 270L454 269L459 266L458 265L461 268L465 268L470 264L468 265L468 259L471 258L470 255L475 247L477 237L478 238L480 235L482 238L483 237L486 240L487 239L493 244L501 244L502 246L508 244L513 248L521 236L525 238L530 238z"/></g><g><path class="class-3 leaflet-clickable" stroke-linejoin="round" stroke-linecap="round" fill-rule="evenodd" stroke="#005540" stroke-opacity="1" stroke-width="0.5" fill="#086" fill-opacity="0.5" d="M542 180L534 192L535 193L529 203L529 208L528 207L527 210L529 210L529 224L531 225L532 230L530 235L533 237L533 239L521 236L519 237L520 238L513 248L509 244L503 246L501 244L496 245L495 243L494 244L488 241L487 239L486 240L483 237L482 238L480 235L479 238L477 238L478 239L475 243L475 247L470 254L471 258L468 259L468 265L470 263L466 268L462 268L451 259L452 258L449 253L441 254L439 252L435 246L435 238L432 234L430 234L430 230L424 232L422 231L423 230L422 231L422 228L420 226L422 223L420 220L421 218L419 217L418 213L414 211L416 210L411 203L411 199L424 197L424 193L419 182L420 177L418 175L418 173L420 173L419 169L421 167L420 161L423 160L421 158L421 146L423 147L420 139L416 138L414 134L414 131L417 130L417 127L420 127L418 127L419 126L416 124L417 122L415 122L418 119L431 119L431 107L434 106L471 107L476 114L479 117L481 117L492 129L502 136L504 136L504 138L506 138L507 144L511 149L511 157L514 160L514 162L518 166L522 167L521 168L524 171L531 173L542 180z"/></g><g><path class="class-1 leaflet-clickable" stroke-linejoin="round" stroke-linecap="round" fill-rule="evenodd" stroke="#005540" stroke-opacity="1" stroke-width="0.5" fill="#7fd" fill-opacity="0.5" d="M332 187L331 189L331 187z"/></g><g><path class="class-1 leaflet-clickable" stroke-linejoin="round" stroke-linecap="round" fill-rule="evenodd" stroke="#005540" stroke-opacity="1" stroke-width="0.5" fill="#7fd" fill-opacity="0.5" d="M338 174L340 180L337 187L332 183L333 176L337 174z"/></g><g><path class="class-1 leaflet-clickable" stroke-linejoin="round" stroke-linecap="round" fill-rule="evenodd" stroke="#005540" stroke-opacity="1" stroke-width="0.5" fill="#7fd" fill-opacity="0.5" d="M283 107L285 107L284 108z"/></g><g><path class="class-1 leaflet-clickable" stroke-linejoin="round" stroke-linecap="round" fill-rule="evenodd" stroke="#005540" stroke-opacity="1" stroke-width="0.5" fill="#7fd" fill-opacity="0.5" d="M280 87L360 116L365 119L418 119L417 121L415 121L416 124L419 126L418 127L420 127L417 127L417 130L414 130L414 133L416 136L415 137L422 142L421 145L423 146L421 146L421 159L423 159L423 161L420 161L421 167L419 169L419 183L422 187L424 197L412 199L411 203L415 210L414 211L418 214L420 218L422 223L420 225L423 232L426 232L420 240L420 242L418 242L415 245L415 247L407 249L407 245L405 242L400 239L395 239L391 230L383 228L379 224L376 224L377 210L375 208L374 209L370 207L370 209L368 209L368 207L362 205L356 196L352 194L346 187L347 185L340 181L340 174L338 171L337 172L335 170L336 168L332 163L330 157L327 156L327 149L319 135L320 123L314 120L307 119L307 115L302 111L294 114L285 107L278 104L276 97L277 96L275 94L277 92L277 88L280 88zM371 206L371 207z"/></g><g><path class="class-3 leaflet-clickable" stroke-linejoin="round" stroke-linecap="round" fill-rule="evenodd" stroke="#005540" stroke-opacity="1" stroke-width="0.5" fill="#086" fill-opacity="0.5" d="M263 198L262 198z"/></g><g><path class="class-3 leaflet-clickable" stroke-linejoin="round" stroke-linecap="round" fill-rule="evenodd" stroke="#005540" stroke-opacity="1" stroke-width="0.5" fill="#086" fill-opacity="0.5" d="M271 196L273 202L272 205L268 203L271 200L271 197z"/></g><g><path class="class-3 leaflet-clickable" stroke-linejoin="round" stroke-linecap="round" fill-rule="evenodd" stroke="#005540" stroke-opacity="1" stroke-width="0.5" fill="#086" fill-opacity="0.5" d="M324 188L327 190L326 191L325 189z"/></g><g><path class="class-3 leaflet-clickable" stroke-linejoin="round" stroke-linecap="round" fill-rule="evenodd" stroke="#005540" stroke-opacity="1" stroke-width="0.5" fill="#086" fill-opacity="0.5" d="M310 177L310 178z"/></g><g><path class="class-3 leaflet-clickable" stroke-linejoin="round" stroke-linecap="round" fill-rule="evenodd" stroke="#005540" stroke-opacity="1" stroke-width="0.5" fill="#086" fill-opacity="0.5" d="M310 166L313 168L313 171L315 173L318 172L318 180L308 169L309 166z"/></g><g><path class="class-3 leaflet-clickable" stroke-linejoin="round" stroke-linecap="round" fill-rule="evenodd" stroke="#005540" stroke-opacity="1" stroke-width="0.5" fill="#086" fill-opacity="0.5" d="M200 175L202 178L201 183L199 178L200 175z"/></g><g><path class="class-3 leaflet-clickable" stroke-linejoin="round" stroke-linecap="round" fill-rule="evenodd" stroke="#005540" stroke-opacity="1" stroke-width="0.5" fill="#086" fill-opacity="0.5" d="M289 154L289 155z"/></g><g><path class="class-3 leaflet-clickable" stroke-linejoin="round" stroke-linecap="round" fill-rule="evenodd" stroke="#005540" stroke-opacity="1" stroke-width="0.5" fill="#086" fill-opacity="0.5" d="M282 113L282 113z"/></g><g><path class="class-3 leaflet-clickable" stroke-linejoin="round" stroke-linecap="round" fill-rule="evenodd" stroke="#005540" stroke-opacity="1" stroke-width="0.5" fill="#086" fill-opacity="0.5" d="M282 106L284 108L283 109L281 109L281 106z"/></g><g><path class="class-3 leaflet-clickable" stroke-linejoin="round" stroke-linecap="round" fill-rule="evenodd" stroke="#005540" stroke-opacity="1" stroke-width="0.5" fill="#086" fill-opacity="0.5" d="M280 87L277 89L275 94L277 96L277 103L280 104L281 106L281 111L279 114L279 124L283 130L283 138L285 143L284 150L290 158L290 160L293 160L307 173L310 183L312 181L314 185L317 185L319 192L325 196L324 198L326 200L326 206L294 206L297 202L296 199L298 195L296 191L291 187L291 185L288 182L286 182L285 178L282 177L282 175L260 160L261 158L258 154L258 147L252 141L253 135L247 128L246 129L245 120L238 113L239 110L237 107L238 108L239 105L233 100L233 97L228 89L228 86L282 81L280 87z"/></g><g><path class="class-3 leaflet-clickable" stroke-linejoin="round" stroke-linecap="round" fill-rule="evenodd" stroke="#005540" stroke-opacity="1" stroke-width="0.5" fill="#086" fill-opacity="0.5" d="M757 474L751 490L753 493L752 497L754 501L748 498L738 496L726 497L721 502L717 502L707 507L706 506L703 509L694 509L685 506L682 503L668 502L658 495L651 494L655 491L654 488L659 486L658 485L661 482L661 478L663 476L658 475L657 471L656 472L656 465L652 461L653 457L657 455L658 456L660 454L664 454L667 456L669 453L668 452L667 454L666 449L671 446L673 453L680 449L685 450L692 444L693 438L699 441L704 450L712 450L713 455L711 460L715 464L718 465L724 460L726 460L727 461L725 463L729 468L734 471L733 472L752 474z"/></g><g><path class="class-3 leaflet-clickable" stroke-linejoin="round" stroke-linecap="round" fill-rule="evenodd" stroke="#005540" stroke-opacity="1" stroke-width="0.5" fill="#086" fill-opacity="0.5" d="M629 436L633 442L637 442L639 447L644 451L643 452L646 453L644 453L647 455L653 455L652 461L656 465L656 472L657 471L658 474L662 476L661 481L658 485L659 486L655 488L654 492L650 494L645 488L643 489L633 485L625 485L617 479L593 471L594 470L589 466L585 465L576 456L568 453L569 449L575 446L575 440L577 439L581 439L581 441L583 442L599 442L601 444L602 443L602 445L603 442L601 442L600 440L599 433L602 434L604 432L607 435L606 438L611 445L617 439L621 439L625 435L628 437z"/></g></svg>