<svg xmlns="http://www.w3.org/2000/svg" class="leaflet-zoom-animated" style="transform: translate(-305px, -129px);" viewBox="-305 -129 1977 832" width="1977" height="832"><g><path class="class-0 leaflet-clickable" fill="#00cc99" fill-opacity="0.5" fill-rule="evenodd" stroke="#005540" stroke-linecap="round" stroke-linejoin="round" stroke-opacity="1" stroke-width="0.5" d="M 382 444 L 382 444 Z" /></g><g><path class="class-0 leaflet-clickable" fill="#00cc99" fill-opacity="0.5" fill-rule="evenodd" stroke="#005540" stroke-linecap="round" stroke-linejoin="round" stroke-opacity="1" stroke-width="0.5" d="M 1005 443 L 1006 440 L 1005 443 Z" /></g><g><path class="class-0 leaflet-clickable" fill="#00cc99" fill-opacity="0.5" fill-rule="evenodd" stroke="#005540" stroke-linecap="round" stroke-linejoin="round" stroke-opacity="1" stroke-width="0.5" d="M 1007 435 L 1007 437 L 1007 435 Z" /></g><g><path class="class-0 leaflet-clickable" fill="#00cc99" fill-opacity="0.5" fill-rule="evenodd" stroke="#005540" stroke-linecap="round" stroke-linejoin="round" stroke-opacity="1" stroke-width="0.5" d="M 467 432 L 469 434 L 468 435 L 466 433 L 467 432 Z" /></g><g><path class="class-0 leaflet-clickable" fill="#00cc99" fill-opacity="0.5" fill-rule="evenodd" stroke="#005540" stroke-linecap="round" stroke-linejoin="round" stroke-opacity="1" stroke-width="0.5" d="M 471 422 L 471 421 Z" /></g><g><path class="class-0 leaflet-clickable" fill="#00cc99" fill-opacity="0.5" fill-rule="evenodd" stroke="#005540" stroke-linecap="round" stroke-linejoin="round" stroke-opacity="1" stroke-width="0.5" d="M 1019 390 L 1019 392 L 1013 398 L 1013 394 L 1015 391 L 1020 390 Z" /></g><g><path class="class-0 leaflet-clickable" fill="#00cc99" fill-opacity="0.5" fill-rule="evenodd" stroke="#005540" stroke-linecap="round" stroke-linejoin="round" stroke-opacity="1" stroke-width="0.5" d="M 935 388 L 934 388 Z" /></g><g><path class="class-0 leaflet-clickable" fill="#00cc99" fill-opacity="0.5" fill-rule="evenodd" stroke="#005540" stroke-linecap="round" stroke-linejoin="round" stroke-opacity="1" stroke-width="0.5" d="M 893 380 L 892 380 Z" /></g><g><path class="class-0 leaflet-clickable" fill="#00cc99" fill-opacity="0.5" fill-rule="evenodd" stroke="#005540" stroke-linecap="round" stroke-linejoin="round" stroke-opacity="1" stroke-width="0.5" d="M 1019 374 L 1020 375 L 1019 374 Z" /></g><g><path class="class-0 leaflet-clickable" fill="#00cc99" fill-opacity="0.5" fill-rule="evenodd" stroke="#005540" stroke-linecap="round" stroke-linejoin="round" stroke-opacity="1" stroke-width="0.5" d="M 576 371 L 575 371 Z" /></g><g><path class="class-0 leaflet-clickable" fill="#00cc99" fill-opacity="0.5" fill-rule="evenodd" stroke="#005540" stroke-linecap="round" stroke-linejoin="round" stroke-opacity="1" stroke-width="0.5" d="M 571 368 L 573 369 L 572 370 L 570 368 Z" /></g><g><path class="class-0 leaflet-clickable" fill="#00cc99" fill-opacity="0.5" fill-rule="evenodd" stroke="#005540" stroke-linecap="round" stroke-linejoin="round" stroke-opacity="1" stroke-width="0.5" d="M 1011 365 L 1009 367 L 1004 368 L 1006 366 L 1009 367 L 1011 365 Z" /></g><g><path class="class-0 leaflet-clickable" fill="#00cc99" fill-opacity="0.5" fill-rule="evenodd" stroke="#005540" stroke-linecap="round" stroke-linejoin="round" stroke-opacity="1" stroke-width="0.5" d="M 566 363 L 568 363 L 569 366 L 567 366 L 566 364 Z" /></g><g><path class="class-0 leaflet-clickable" fill="#00cc99" fill-opacity="0.5" fill-rule="evenodd" stroke="#005540" stroke-linecap="round" stroke-linejoin="round" stroke-opacity="1" stroke-width="0.5" d="M 566 361 L 565 361 Z" /></g><g><path class="class-0 leaflet-clickable" fill="#00cc99" fill-opacity="0.5" fill-rule="evenodd" stroke="#005540" stroke-linecap="round" stroke-linejoin="round" stroke-opacity="1" stroke-width="0.5" d="M 950 344 L 950 343 Z" /></g><g><path class="class-0 leaflet-clickable" fill="#00cc99" fill-opacity="0.5" fill-rule="evenodd" stroke="#005540" stroke-linecap="round" stroke-linejoin="round" stroke-opacity="1" stroke-width="0.5" d="M 951 341 L 954 342 L 955 344 L 953 346 L 950 343 L 951 341 Z" /></g><g><path class="class-0 leaflet-clickable" fill="#00cc99" fill-opacity="0.5" fill-rule="evenodd" stroke="#005540" stroke-linecap="round" stroke-linejoin="round" stroke-opacity="1" stroke-width="0.5" d="M 494 302 L 492 302 L 492 297 L 494 302 Z" /></g><g><path class="class-0 leaflet-clickable" fill="#00cc99" fill-opacity="0.5" fill-rule="evenodd" stroke="#005540" stroke-linecap="round" stroke-linejoin="round" stroke-opacity="1" stroke-width="0.5" d="M 482 293 L 483 296 L 481 294 L 482 293 Z" /></g><g><path class="class-0 leaflet-clickable" fill="#00cc99" fill-opacity="0.5" fill-rule="evenodd" stroke="#005540" stroke-linecap="round" stroke-linejoin="round" stroke-opacity="1" stroke-width="0.5" d="M 481 291 L 481 292 Z" /></g><g><path class="class-0 leaflet-clickable" fill="#00cc99" fill-opacity="0.5" fill-rule="evenodd" stroke="#005540" stroke-linecap="round" stroke-linejoin="round" stroke-opacity="1" stroke-width="0.5" d="M 477 285 L 477 285 Z" /></g><g><path class="class-0 leaflet-clickable" fill="#00cc99" fill-opacity="0.5" fill-rule="evenodd" stroke="#005540" stroke-linecap="round" stroke-linejoin="round" stroke-opacity="1" stroke-width="0.5" d="M 474 279 L 478 284 L 474 281 L 474 279 Z" /></g><g><path class="class-0 leaflet-clickable" fill="#00cc99" fill-opacity="0.5" fill-rule="evenodd" stroke="#005540" stroke-linecap="round" stroke-linejoin="round" stroke-opacity="1" stroke-width="0.5" d="M 474 273 L 473 275 L 474 273 Z" /></g><g><path class="class-0 leaflet-clickable" fill="#00cc99" fill-opacity="0.5" fill-rule="evenodd" stroke="#005540" stroke-linecap="round" stroke-linejoin="round" stroke-opacity="1" stroke-width="0.5" d="M 472 263 L 473 266 L 472 264 Z" /></g><g><path class="class-0 leaflet-clickable" fill="#00cc99" fill-opacity="0.5" fill-rule="evenodd" stroke="#005540" stroke-linecap="round" stroke-linejoin="round" stroke-opacity="1" stroke-width="0.5" d="M 466 263 L 466 265 L 466 263 Z" /></g><g><path class="class-0 leaflet-clickable" fill="#00cc99" fill-opacity="0.5" fill-rule="evenodd" stroke="#005540" stroke-linecap="round" stroke-linejoin="round" stroke-opacity="1" stroke-width="0.5" d="M 461 261 L 461 261 Z" /></g><g><path class="class-0 leaflet-clickable" fill="#00cc99" fill-opacity="0.5" fill-rule="evenodd" stroke="#005540" stroke-linecap="round" stroke-linejoin="round" stroke-opacity="1" stroke-width="0.5" d="M 466 254 L 466 256 L 464 256 L 462 260 L 463 261 L 462 258 L 463 255 L 465 255 Z" /></g><g><path class="class-0 leaflet-clickable" fill="#00cc99" fill-opacity="0.5" fill-rule="evenodd" stroke="#005540" stroke-linecap="round" stroke-linejoin="round" stroke-opacity="1" stroke-width="0.5" d="M 461 252 L 461 252 Z" /></g><g><path class="class-0 leaflet-clickable" fill="#00cc99" fill-opacity="0.5" fill-rule="evenodd" stroke="#005540" stroke-linecap="round" stroke-linejoin="round" stroke-opacity="1" stroke-width="0.5" d="M 443 224 L 443 226 L 442 224 Z" /></g><g><path class="class-0 leaflet-clickable" fill="#00cc99" fill-opacity="0.5" fill-rule="evenodd" stroke="#005540" stroke-linecap="round" stroke-linejoin="round" stroke-opacity="1" stroke-width="0.5" d="M 446 219 L 445 219 Z" /></g><g><path class="class-0 leaflet-clickable" fill="#00cc99" fill-opacity="0.5" fill-rule="evenodd" stroke="#005540" stroke-linecap="round" stroke-linejoin="round" stroke-opacity="1" stroke-width="0.5" d="M 372 208 L 371 208 Z" /></g><g><path class="class-0 leaflet-clickable" fill="#00cc99" fill-opacity="0.5" fill-rule="evenodd" stroke="#005540" stroke-linecap="round" stroke-linejoin="round" stroke-opacity="1" stroke-width="0.5" d="M 363 197 L 363 197 Z" /></g><g><path class="class-0 leaflet-clickable" fill="#00cc99" fill-opacity="0.5" fill-rule="evenodd" stroke="#005540" stroke-linecap="round" stroke-linejoin="round" stroke-opacity="1" stroke-width="0.5" d="M 371 195 L 373 201 L 372 204 L 368 202 L 371 199 L 371 195 Z" /></g><g><path class="class-0 leaflet-clickable" fill="#00cc99" fill-opacity="0.5" fill-rule="evenodd" stroke="#005540" stroke-linecap="round" stroke-linejoin="round" stroke-opacity="1" stroke-width="0.5" d="M 424 187 L 427 189 L 426 190 L 425 188 Z" /></g><g><path class="class-0 leaflet-clickable" fill="#00cc99" fill-opacity="0.5" fill-rule="evenodd" stroke="#005540" stroke-linecap="round" stroke-linejoin="round" stroke-opacity="1" stroke-width="0.5" d="M 423 187 L 423 187 Z" /></g><g><path class="class-0 leaflet-clickable" fill="#00cc99" fill-opacity="0.5" fill-rule="evenodd" stroke="#005540" stroke-linecap="round" stroke-linejoin="round" stroke-opacity="1" stroke-width="0.5" d="M 432 186 L 431 188 L 431 186 Z" /></g><g><path class="class-0 leaflet-clickable" fill="#00cc99" fill-opacity="0.5" fill-rule="evenodd" stroke="#005540" stroke-linecap="round" stroke-linejoin="round" stroke-opacity="1" stroke-width="0.5" d="M 410 176 L 410 176 Z" /></g><g><path class="class-0 leaflet-clickable" fill="#00cc99" fill-opacity="0.5" fill-rule="evenodd" stroke="#005540" stroke-linecap="round" stroke-linejoin="round" stroke-opacity="1" stroke-width="0.5" d="M 300 175 L 302 177 L 301 182 L 299 178 L 301 174 Z" /></g><g><path class="class-0 leaflet-clickable" fill="#00cc99" fill-opacity="0.5" fill-rule="evenodd" stroke="#005540" stroke-linecap="round" stroke-linejoin="round" stroke-opacity="1" stroke-width="0.5" d="M 438 173 L 440 179 L 438 184 L 439 185 L 437 186 L 432 182 L 433 175 L 437 173 Z" /></g><g><path class="class-0 leaflet-clickable" fill="#00cc99" fill-opacity="0.5" fill-rule="evenodd" stroke="#005540" stroke-linecap="round" stroke-linejoin="round" stroke-opacity="1" stroke-width="0.5" d="M 410 165 L 413 167 L 413 170 L 415 172 L 418 171 L 418 179 L 408 168 L 410 165 Z" /></g><g><path class="class-0 leaflet-clickable" fill="#00cc99" fill-opacity="0.5" fill-rule="evenodd" stroke="#005540" stroke-linecap="round" stroke-linejoin="round" stroke-opacity="1" stroke-width="0.5" d="M 389 153 L 390 154 L 389 153 Z" /></g><g><path class="class-0 leaflet-clickable" fill="#00cc99" fill-opacity="0.5" fill-rule="evenodd" stroke="#005540" stroke-linecap="round" stroke-linejoin="round" stroke-opacity="1" stroke-width="0.5" d="M 382 112 L 382 112 Z" /></g><g><path class="class-0 leaflet-clickable" fill="#00cc99" fill-opacity="0.5" fill-rule="evenodd" stroke="#005540" stroke-linecap="round" stroke-linejoin="round" stroke-opacity="1" stroke-width="0.5" d="M 384 106 L 385 107 L 384 106 Z" /></g><g><path class="class-0 leaflet-clickable" fill="#00cc99" fill-opacity="0.5" fill-rule="evenodd" stroke="#005540" stroke-linecap="round" stroke-linejoin="round" stroke-opacity="1" stroke-width="0.5" d="M 382 105 L 384 107 L 383 108 L 381 108 L 381 105 Z" /></g><g><path class="class-0 leaflet-clickable" fill="#00cc99" fill-opacity="0.5" fill-rule="evenodd" stroke="#005540" stroke-linecap="round" stroke-linejoin="round" stroke-opacity="1" stroke-width="0.5" d="M 381 83 L 381 87 L 460 115 L 465 118 L 531 118 L 531 106 L 534 105 L 571 106 L 576 113 L 579 116 L 581 116 L 592 128 L 602 135 L 604 135 L 604 137 L 606 137 L 607 142 L 611 148 L 611 156 L 618 165 L 622 166 L 621 167 L 624 170 L 631 172 L 639 178 L 646 180 L 647 177 L 651 173 L 652 174 L 651 172 L 653 170 L 654 164 L 658 159 L 662 159 L 665 156 L 674 159 L 684 158 L 686 162 L 688 162 L 688 164 L 689 163 L 689 165 L 702 176 L 706 188 L 710 193 L 709 194 L 712 199 L 717 203 L 720 209 L 728 216 L 730 230 L 734 234 L 738 246 L 740 245 L 742 247 L 747 248 L 747 250 L 753 250 L 758 255 L 771 255 L 776 260 L 778 259 L 777 258 L 782 257 L 782 263 L 775 276 L 770 294 L 768 336 L 766 339 L 766 346 L 772 360 L 778 366 L 776 374 L 784 392 L 791 398 L 799 409 L 801 419 L 806 424 L 806 426 L 809 427 L 812 433 L 816 435 L 825 435 L 831 439 L 835 439 L 840 448 L 842 449 L 850 448 L 867 442 L 880 442 L 883 440 L 883 438 L 892 436 L 900 436 L 903 438 L 920 428 L 929 420 L 929 412 L 935 405 L 935 387 L 937 381 L 943 376 L 956 372 L 974 370 L 978 367 L 986 365 L 992 365 L 1006 370 L 1011 369 L 1012 366 L 1017 373 L 1018 370 L 1017 373 L 1019 377 L 1015 385 L 1003 399 L 1003 409 L 1002 410 L 1003 406 L 1003 408 L 1000 409 L 998 413 L 996 413 L 999 416 L 1003 414 L 1004 415 L 1003 418 L 998 420 L 998 424 L 1001 421 L 1003 421 L 1001 423 L 1001 427 L 999 429 L 993 449 L 990 449 L 990 443 L 985 443 L 985 441 L 979 441 L 977 447 L 974 449 L 971 455 L 967 452 L 964 457 L 923 457 L 923 470 L 912 470 L 915 473 L 916 472 L 916 474 L 920 476 L 919 477 L 921 479 L 929 483 L 930 488 L 936 491 L 935 498 L 906 498 L 895 518 L 898 522 L 895 527 L 896 531 L 894 535 L 866 507 L 858 501 L 848 497 L 838 495 L 826 496 L 821 501 L 817 501 L 807 506 L 806 505 L 803 508 L 794 508 L 785 505 L 782 502 L 768 501 L 758 494 L 751 493 L 745 487 L 743 488 L 733 484 L 725 484 L 717 478 L 693 470 L 694 469 L 689 465 L 685 464 L 673 453 L 666 454 L 640 446 L 628 432 L 604 420 L 602 415 L 600 415 L 592 404 L 588 394 L 596 392 L 598 390 L 596 386 L 591 386 L 599 376 L 599 367 L 598 368 L 594 365 L 589 357 L 589 349 L 586 341 L 570 325 L 569 321 L 563 315 L 558 307 L 540 294 L 524 274 L 512 270 L 508 265 L 504 265 L 502 257 L 507 248 L 507 244 L 503 239 L 497 239 L 494 237 L 491 229 L 483 227 L 479 223 L 477 223 L 477 209 L 475 207 L 474 208 L 470 206 L 470 208 L 468 208 L 468 206 L 462 204 L 456 195 L 452 193 L 446 186 L 447 184 L 440 180 L 440 173 L 438 170 L 437 171 L 435 169 L 436 167 L 432 162 L 430 156 L 427 155 L 427 148 L 419 134 L 420 122 L 414 119 L 407 118 L 407 114 L 402 110 L 395 113 L 381 104 L 381 110 L 379 113 L 379 123 L 383 129 L 383 137 L 385 142 L 384 149 L 386 153 L 390 157 L 390 159 L 393 159 L 407 172 L 410 182 L 412 180 L 414 184 L 417 184 L 419 191 L 421 193 L 425 193 L 424 197 L 426 199 L 428 211 L 437 218 L 440 224 L 439 225 L 446 229 L 444 230 L 444 232 L 446 234 L 448 233 L 451 235 L 454 238 L 454 242 L 457 243 L 456 244 L 460 254 L 460 262 L 465 268 L 467 268 L 469 277 L 475 285 L 473 289 L 474 297 L 477 301 L 480 302 L 483 301 L 483 297 L 490 303 L 490 305 L 494 306 L 494 308 L 497 311 L 497 315 L 500 316 L 503 320 L 503 324 L 501 327 L 492 334 L 490 334 L 488 332 L 485 320 L 481 316 L 459 299 L 455 297 L 450 298 L 449 296 L 442 292 L 440 290 L 440 287 L 437 286 L 442 272 L 442 261 L 437 251 L 429 248 L 414 236 L 412 235 L 409 238 L 402 231 L 398 231 L 395 227 L 391 227 L 388 224 L 387 220 L 375 211 L 375 209 L 387 211 L 393 208 L 397 201 L 396 198 L 398 194 L 396 190 L 391 186 L 391 184 L 388 181 L 386 181 L 385 177 L 382 176 L 382 174 L 377 169 L 372 168 L 370 165 L 364 163 L 360 159 L 361 157 L 358 153 L 358 146 L 352 140 L 353 134 L 347 127 L 346 128 L 345 119 L 338 112 L 339 109 L 336 106 L 338 107 L 339 104 L 333 99 L 333 96 L 328 88 L 328 85 L 382 80 L 382 82 Z M 471 205 L 471 206 Z" /></g></svg>