<svg xmlns="http://www.w3.org/2000/svg" class="leaflet-zoom-animated" width="2000" style="-webkit-transform: translate3d(-379px, -175px, 0);" height="926" viewBox="-379 -175 2000 926"><g><path class="class-3 leaflet-clickable" stroke-linejoin="round" stroke-linecap="round" fill-rule="evenodd" stroke="#005540" stroke-opacity="1" stroke-width="0.5" fill="#086" fill-opacity="0.5" d="M679 427L675 427L670 423L675 414L679 421L679 426z"/></g><g><path class="class-2 leaflet-clickable" stroke-linejoin="round" stroke-linecap="round" fill-rule="evenodd" stroke="#005540" stroke-opacity="1" stroke-width="0.5" fill="#00cc99" fill-opacity="0.5" d="M613 355L612 356L614 358L609 359L605 364L601 364L595 361L592 362L590 360L595 352L595 348L601 347L603 345L607 347L606 348L609 348L609 352L613 355z"/></g><g><path class="class-1 leaflet-clickable" stroke-linejoin="round" stroke-linecap="round" fill-rule="evenodd" stroke="#005540" stroke-opacity="1" stroke-width="0.5" fill="#7fd" fill-opacity="0.5" d="M679 427L682 430L686 428L684 434L685 441L684 442L682 440L677 444L671 441L667 436L672 425L679 427z"/></g><g><path class="class-1 leaflet-clickable" stroke-linejoin="round" stroke-linecap="round" fill-rule="evenodd" stroke="#005540" stroke-opacity="1" stroke-width="0.5" fill="#7fd" fill-opacity="0.5" d="M320 444L320 444z"/></g><g><path class="class-1 leaflet-clickable" stroke-linejoin="round" stroke-linecap="round" fill-rule="evenodd" stroke="#005540" stroke-opacity="1" stroke-width="0.5" fill="#7fd" fill-opacity="0.5" d="M405 432L407 434L406 435L404 433L405 432z"/></g><g><path class="class-1 leaflet-clickable" stroke-linejoin="round" stroke-linecap="round" fill-rule="evenodd" stroke="#005540" stroke-opacity="1" stroke-width="0.5" fill="#7fd" fill-opacity="0.5" d="M576 429L570 436L556 426L549 424L550 425L553 422L554 423L562 421L561 420L563 416L568 419L572 416L576 420L576 429z"/></g><g><path class="class-1 leaflet-clickable" stroke-linejoin="round" stroke-linecap="round" fill-rule="evenodd" stroke="#005540" stroke-opacity="1" stroke-width="0.5" fill="#7fd" fill-opacity="0.5" d="M409 422L409 421z"/></g><g><path class="class-3 leaflet-clickable" stroke-linejoin="round" stroke-linecap="round" fill-rule="evenodd" stroke="#005540" stroke-opacity="1" stroke-width="0.5" fill="#086" fill-opacity="0.5" d="M659 398L664 401L667 400L667 407L670 409L669 410L673 407L673 405L678 405L678 403L679 409L681 407L684 407L687 410L685 414L687 418L687 428L682 430L679 427L679 421L677 419L676 414L670 421L672 425L671 430L668 431L669 433L666 436L662 434L663 435L661 435L659 438L655 438L649 444L645 439L646 438L644 437L645 434L642 431L651 418L649 412L652 411L652 403L656 403L656 399L658 398z"/></g><g><path class="class-2 leaflet-clickable" stroke-linejoin="round" stroke-linecap="round" fill-rule="evenodd" stroke="#005540" stroke-opacity="1" stroke-width="0.5" fill="#00cc99" fill-opacity="0.5" d="M432 302L430 302L430 297L432 301z"/></g><g><path class="class-2 leaflet-clickable" stroke-linejoin="round" stroke-linecap="round" fill-rule="evenodd" stroke="#005540" stroke-opacity="1" stroke-width="0.5" fill="#00cc99" fill-opacity="0.5" d="M420 293L420 296L419 293z"/></g><g><path class="class-2 leaflet-clickable" stroke-linejoin="round" stroke-linecap="round" fill-rule="evenodd" stroke="#005540" stroke-opacity="1" stroke-width="0.5" fill="#00cc99" fill-opacity="0.5" d="M419 291L419 292z"/></g><g><path class="class-2 leaflet-clickable" stroke-linejoin="round" stroke-linecap="round" fill-rule="evenodd" stroke="#005540" stroke-opacity="1" stroke-width="0.5" fill="#00cc99" fill-opacity="0.5" d="M412 279L415 281L416 284L412 280z"/></g><g><path class="class-2 leaflet-clickable" stroke-linejoin="round" stroke-linecap="round" fill-rule="evenodd" stroke="#005540" stroke-opacity="1" stroke-width="0.5" fill="#00cc99" fill-opacity="0.5" d="M412 273L411 275L412 273z"/></g><g><path class="class-2 leaflet-clickable" stroke-linejoin="round" stroke-linecap="round" fill-rule="evenodd" stroke="#005540" stroke-opacity="1" stroke-width="0.5" fill="#00cc99" fill-opacity="0.5" d="M410 263L411 266L410 264z"/></g><g><path class="class-2 leaflet-clickable" stroke-linejoin="round" stroke-linecap="round" fill-rule="evenodd" stroke="#005540" stroke-opacity="1" stroke-width="0.5" fill="#00cc99" fill-opacity="0.5" d="M404 263L404 265L404 263z"/></g><g><path class="class-2 leaflet-clickable" stroke-linejoin="round" stroke-linecap="round" fill-rule="evenodd" stroke="#005540" stroke-opacity="1" stroke-width="0.5" fill="#00cc99" fill-opacity="0.5" d="M404 254L404 256L402 256L400 260L401 261L400 258L401 255L403 255z"/></g><g><path class="class-2 leaflet-clickable" stroke-linejoin="round" stroke-linecap="round" fill-rule="evenodd" stroke="#005540" stroke-opacity="1" stroke-width="0.5" fill="#00cc99" fill-opacity="0.5" d="M399 252L399 252z"/></g><g><path class="class-2 leaflet-clickable" stroke-linejoin="round" stroke-linecap="round" fill-rule="evenodd" stroke="#005540" stroke-opacity="1" stroke-width="0.5" fill="#00cc99" fill-opacity="0.5" d="M381 224L381 226L380 224z"/></g><g><path class="class-2 leaflet-clickable" stroke-linejoin="round" stroke-linecap="round" fill-rule="evenodd" stroke="#005540" stroke-opacity="1" stroke-width="0.5" fill="#00cc99" fill-opacity="0.5" d="M384 219L383 219z"/></g><g><path class="class-2 leaflet-clickable" stroke-linejoin="round" stroke-linecap="round" fill-rule="evenodd" stroke="#005540" stroke-opacity="1" stroke-width="0.5" fill="#00cc99" fill-opacity="0.5" d="M310 208L310 208z"/></g><g><path class="class-2 leaflet-clickable" stroke-linejoin="round" stroke-linecap="round" fill-rule="evenodd" stroke="#005540" stroke-opacity="1" stroke-width="0.5" fill="#00cc99" fill-opacity="0.5" d="M332 205L365 205L367 212L375 218L378 224L377 225L384 229L382 230L382 232L384 234L386 233L389 235L392 241L395 243L394 244L398 254L398 262L403 268L405 268L406 274L413 285L411 293L414 300L420 302L420 298L423 298L428 302L428 305L432 306L432 308L435 311L435 314L440 317L441 324L437 329L428 334L425 330L423 320L419 316L415 314L403 302L393 297L388 298L378 290L378 287L375 286L380 274L380 261L374 250L367 248L352 236L350 235L347 238L340 231L336 231L333 227L329 227L326 224L325 220L312 209L313 208L325 211L331 208L332 206z"/></g><g><path class="class-3 leaflet-clickable" stroke-linejoin="round" stroke-linecap="round" fill-rule="evenodd" stroke="#005540" stroke-opacity="1" stroke-width="0.5" fill="#086" fill-opacity="0.5" d="M301 197L300 197z"/></g><g><path class="class-3 leaflet-clickable" stroke-linejoin="round" stroke-linecap="round" fill-rule="evenodd" stroke="#005540" stroke-opacity="1" stroke-width="0.5" fill="#086" fill-opacity="0.5" d="M309 195L311 201L310 204L306 202L309 199L309 196z"/></g><g><path class="class-3 leaflet-clickable" stroke-linejoin="round" stroke-linecap="round" fill-rule="evenodd" stroke="#005540" stroke-opacity="1" stroke-width="0.5" fill="#086" fill-opacity="0.5" d="M362 187L365 189L364 190L363 188z"/></g><g><path class="class-3 leaflet-clickable" stroke-linejoin="round" stroke-linecap="round" fill-rule="evenodd" stroke="#005540" stroke-opacity="1" stroke-width="0.5" fill="#086" fill-opacity="0.5" d="M348 176L348 177z"/></g><g><path class="class-3 leaflet-clickable" stroke-linejoin="round" stroke-linecap="round" fill-rule="evenodd" stroke="#005540" stroke-opacity="1" stroke-width="0.5" fill="#086" fill-opacity="0.5" d="M348 165L351 167L351 170L353 172L356 171L356 179L346 168L347 165z"/></g><g><path class="class-3 leaflet-clickable" stroke-linejoin="round" stroke-linecap="round" fill-rule="evenodd" stroke="#005540" stroke-opacity="1" stroke-width="0.5" fill="#086" fill-opacity="0.5" d="M238 174L240 177L239 182L237 177L238 174z"/></g><g><path class="class-3 leaflet-clickable" stroke-linejoin="round" stroke-linecap="round" fill-rule="evenodd" stroke="#005540" stroke-opacity="1" stroke-width="0.5" fill="#086" fill-opacity="0.5" d="M327 153L327 154z"/></g><g><path class="class-3 leaflet-clickable" stroke-linejoin="round" stroke-linecap="round" fill-rule="evenodd" stroke="#005540" stroke-opacity="1" stroke-width="0.5" fill="#086" fill-opacity="0.5" d="M320 112L320 112z"/></g><g><path class="class-3 leaflet-clickable" stroke-linejoin="round" stroke-linecap="round" fill-rule="evenodd" stroke="#005540" stroke-opacity="1" stroke-width="0.5" fill="#086" fill-opacity="0.5" d="M320 105L322 107L321 108L319 108L319 105z"/></g><g><path class="class-3 leaflet-clickable" stroke-linejoin="round" stroke-linecap="round" fill-rule="evenodd" stroke="#005540" stroke-opacity="1" stroke-width="0.5" fill="#086" fill-opacity="0.5" d="M318 86L315 88L313 93L315 95L315 102L318 103L319 105L319 110L317 113L317 123L321 129L321 137L323 142L322 149L328 157L328 159L331 159L345 172L348 182L350 180L352 184L355 184L357 191L363 195L362 197L364 199L364 205L332 205L335 201L334 198L336 194L334 190L329 186L329 184L326 181L324 181L323 177L320 176L320 174L298 159L299 157L296 153L296 146L290 140L291 134L285 127L284 128L283 119L276 112L277 109L275 106L276 107L277 104L271 99L271 96L266 88L266 85L320 80L318 86z"/></g><g><path class="class-2 leaflet-clickable" stroke-linejoin="round" stroke-linecap="round" fill-rule="evenodd" stroke="#005540" stroke-opacity="1" stroke-width="0.5" fill="#00cc99" fill-opacity="0.5" d="M850 470L853 473L854 472L854 474L858 476L857 477L862 481L867 483L868 488L874 491L873 498L844 498L833 518L836 522L833 527L834 531L832 535L804 507L796 501L791 500L789 496L791 495L791 492L789 489L795 473L803 466L803 464L807 460L806 458L809 453L812 455L812 457L814 457L813 459L816 465L817 464L819 466L818 467L819 466L821 468L825 463L830 462L829 461L835 458L835 456L838 454L841 455L841 459L845 460L845 466L850 467L851 470z"/></g><g><path class="class-2 leaflet-clickable" stroke-linejoin="round" stroke-linecap="round" fill-rule="evenodd" stroke="#005540" stroke-opacity="1" stroke-width="0.5" fill="#00cc99" fill-opacity="0.5" d="M706 349L708 357L716 366L714 372L715 378L722 392L729 398L736 407L739 419L744 424L744 426L747 427L749 432L754 435L763 435L773 440L780 449L789 447L790 456L798 460L800 463L800 470L798 470L795 473L771 472L772 470L767 467L763 462L765 460L764 459L762 459L756 464L753 464L749 459L751 454L750 449L742 449L743 448L742 449L740 447L735 438L731 437L730 444L728 440L724 439L722 441L719 437L716 436L718 431L717 428L724 422L715 419L716 418L714 416L714 414L717 411L717 407L721 401L714 398L711 402L707 400L708 397L706 395L707 393L708 394L711 392L708 391L706 384L704 384L703 390L701 391L699 388L698 391L693 395L688 396L689 395L687 392L690 390L691 387L689 388L693 383L693 385L695 385L696 380L698 378L694 376L695 375L692 376L689 373L690 370L689 371L686 365L691 361L688 356L690 357L691 353L694 350L686 346L692 346L695 344L701 347L704 351L705 349z"/></g><g><path class="class-1 leaflet-clickable" stroke-linejoin="round" stroke-linecap="round" fill-rule="evenodd" stroke="#005540" stroke-opacity="1" stroke-width="0.5" fill="#7fd" fill-opacity="0.5" d="M795 473L789 489L791 492L790 496L792 500L786 497L776 495L764 496L759 501L755 501L745 506L744 505L741 508L732 508L723 505L720 502L706 501L696 494L689 493L693 490L692 487L697 485L696 484L699 481L699 477L701 475L696 474L695 470L694 471L694 464L690 460L691 456L695 454L696 455L698 453L702 453L705 455L707 452L706 451L705 453L704 448L709 445L711 452L718 448L723 449L730 443L731 437L737 440L742 449L750 449L751 454L749 459L753 463L756 464L762 459L764 459L765 460L763 462L767 467L772 470L771 471L790 473z"/></g><g><path class="class-2 leaflet-clickable" stroke-linejoin="round" stroke-linecap="round" fill-rule="evenodd" stroke="#005540" stroke-opacity="1" stroke-width="0.5" fill="#00cc99" fill-opacity="0.5" d="M730 443L726 447L721 449L718 448L713 452L711 452L709 446L705 446L705 453L707 451L708 452L706 452L703 455L701 453L697 453L697 455L692 456L691 453L687 454L677 446L677 444L680 441L685 442L684 434L687 428L686 417L688 417L697 426L700 423L703 425L705 422L709 421L706 417L703 416L704 415L702 413L700 413L700 411L695 412L696 411L694 408L699 401L697 398L694 398L697 397L703 390L704 384L707 385L707 389L711 392L706 395L708 397L707 400L711 402L714 398L720 401L714 416L716 418L715 419L724 422L722 424L723 425L719 424L716 437L717 436L722 441L726 439L730 443z"/></g><g><path class="class-1 leaflet-clickable" stroke-linejoin="round" stroke-linecap="round" fill-rule="evenodd" stroke="#005540" stroke-opacity="1" stroke-width="0.5" fill="#7fd" fill-opacity="0.5" d="M686 417L685 414L691 414L694 412L693 411L699 411L704 415L704 417L706 417L709 420L708 422L705 421L703 424L700 423L697 426L690 420L689 417L687 418z"/></g><g><path class="class-1 leaflet-clickable" stroke-linejoin="round" stroke-linecap="round" fill-rule="evenodd" stroke="#005540" stroke-opacity="1" stroke-width="0.5" fill="#7fd" fill-opacity="0.5" d="M701 392L697 397L694 398L698 399L698 401L694 407L696 410L693 411L694 412L692 414L686 414L687 409L684 407L680 407L679 409L678 406L680 404L678 403L678 405L675 404L673 408L671 408L670 410L670 408L667 405L667 400L664 401L659 398L659 391L664 390L666 388L670 379L669 378L677 376L679 372L680 375L686 376L686 372L690 370L689 373L692 376L695 375L694 376L696 376L698 379L695 383L696 385L691 384L688 388L690 387L688 396L693 395L699 389L701 391z"/></g><g><path class="class-2 leaflet-clickable" stroke-linejoin="round" stroke-linecap="round" fill-rule="evenodd" stroke="#005540" stroke-opacity="1" stroke-width="0.5" fill="#00cc99" fill-opacity="0.5" d="M677 373L676 376L672 378L671 376L666 386L667 388L659 391L659 398L657 397L657 402L653 404L650 401L650 398L648 398L644 394L642 385L645 382L653 382L654 379L655 380L655 375L661 375L663 373L660 372L662 366L669 370L674 364L676 373z"/></g><g><path class="class-3 leaflet-clickable" stroke-linejoin="round" stroke-linecap="round" fill-rule="evenodd" stroke="#005540" stroke-opacity="1" stroke-width="0.5" fill="#086" fill-opacity="0.5" d="M661 368L660 371L661 373L663 373L659 376L655 375L656 376L654 382L645 382L642 385L644 393L648 398L646 402L647 405L634 406L631 402L629 402L629 404L625 404L623 402L623 400L625 399L622 398L622 396L620 396L617 399L611 399L611 397L608 394L611 391L608 384L611 382L615 374L618 373L617 370L619 370L618 367L620 363L619 362L621 360L627 360L629 362L631 361L639 367L645 367L646 363L648 363L658 369L660 368z"/></g><g><path class="class-1 leaflet-clickable" stroke-linejoin="round" stroke-linecap="round" fill-rule="evenodd" stroke="#005540" stroke-opacity="1" stroke-width="0.5" fill="#7fd" fill-opacity="0.5" d="M653 325L655 329L653 331L655 335L653 337L658 337L666 341L667 337L675 346L688 346L694 350L688 357L690 357L690 361L686 365L689 368L689 370L685 372L687 372L686 376L682 376L679 372L676 373L674 364L669 370L667 370L663 366L661 366L661 368L658 369L649 363L647 363L645 367L641 368L637 366L634 362L621 360L625 355L625 351L623 348L626 344L624 339L625 338L622 337L620 341L619 340L618 343L615 344L613 342L613 339L611 340L606 335L604 330L605 328L603 325L605 323L603 323L605 320L607 322L615 320L628 308L628 302L631 301L632 296L634 299L639 295L642 296L641 301L644 303L644 326L647 327L647 324L648 325L649 323L651 323L650 325L652 325z"/></g><g><path class="class-2 leaflet-clickable" stroke-linejoin="round" stroke-linecap="round" fill-rule="evenodd" stroke="#005540" stroke-opacity="1" stroke-width="0.5" fill="#00cc99" fill-opacity="0.5" d="M637 292L639 295L634 299L632 297L631 301L629 302L628 308L623 313L615 320L610 322L607 322L605 320L603 323L605 323L603 325L607 336L611 340L613 339L613 342L615 344L618 343L622 337L625 338L624 339L626 343L624 344L623 348L625 350L625 355L622 359L621 360L620 358L613 355L609 352L609 348L608 349L603 345L601 347L595 348L595 352L590 359L593 363L593 366L596 368L595 371L593 371L589 375L586 374L586 378L584 379L580 379L573 376L571 372L575 371L575 369L571 369L571 367L575 365L576 362L574 360L584 355L586 350L584 348L583 349L581 345L579 347L580 350L578 350L577 353L571 352L574 349L574 344L573 342L571 342L569 343L568 351L566 347L568 343L567 342L570 341L570 339L567 337L563 338L566 343L563 347L563 343L561 343L559 347L557 346L558 338L562 336L560 331L563 319L568 315L569 316L568 306L572 302L574 302L574 299L576 299L578 295L590 295L593 297L598 296L599 291L595 283L595 280L600 281L599 278L608 279L613 281L615 284L619 285L618 286L620 288L626 286L629 288L630 291L634 293L637 292z"/></g><g><path class="class-2 leaflet-clickable" stroke-linejoin="round" stroke-linecap="round" fill-rule="evenodd" stroke="#005540" stroke-opacity="1" stroke-width="0.5" fill="#00cc99" fill-opacity="0.5" d="M706 349L704 351L696 344L694 344L693 346L686 345L684 347L677 345L675 346L667 337L666 341L663 339L659 339L658 337L653 337L655 335L653 332L655 330L653 328L654 323L652 323L654 321L657 322L656 317L659 312L665 312L667 309L667 307L663 303L665 296L662 294L662 292L666 291L667 288L671 286L673 287L675 283L674 281L677 278L680 279L691 270L688 269L688 255L682 255L680 257L678 253L675 255L674 249L672 250L668 247L669 241L663 239L665 234L661 233L663 229L661 219L657 218L657 216L662 213L666 216L668 230L672 234L676 246L678 245L680 247L685 248L685 250L691 250L696 255L709 255L714 260L716 259L715 258L720 257L720 263L713 276L708 294L706 336L704 339L705 348z"/></g><g><path class="class-1 leaflet-clickable" stroke-linejoin="round" stroke-linecap="round" fill-rule="evenodd" stroke="#005540" stroke-opacity="1" stroke-width="0.5" fill="#7fd" fill-opacity="0.5" d="M659 211L662 213L657 216L657 218L661 219L663 228L661 233L665 234L663 238L669 241L668 247L672 250L674 249L675 255L678 253L680 257L682 255L688 255L688 269L691 269L681 279L677 278L674 281L674 287L671 286L667 288L666 291L662 292L662 294L664 294L665 296L663 303L668 309L665 312L659 312L656 317L657 322L654 321L652 323L654 323L653 325L650 325L651 323L649 323L648 325L647 324L648 327L645 326L645 313L643 310L644 304L641 302L642 297L637 292L637 285L639 283L637 282L637 277L639 275L650 276L650 274L646 273L641 268L643 268L638 265L635 254L628 247L638 237L640 240L641 239L643 235L643 229L637 229L636 226L640 222L646 220L647 213L651 210L655 214L657 213z"/></g><g><path class="class-0 leaflet-clickable" stroke-linejoin="round" stroke-linecap="round" fill-rule="evenodd" stroke="#005540" stroke-opacity="1" stroke-width="0.5" fill="#ddfff6" fill-opacity="0.5" d="M659 211L655 215L651 210L647 213L646 220L640 222L636 226L637 229L643 229L643 235L641 239L640 240L638 237L628 247L637 258L636 261L640 267L643 268L641 268L645 271L645 273L650 273L650 276L639 275L637 277L637 281L639 283L637 285L636 292L634 293L626 286L620 288L618 286L619 285L605 278L599 278L600 281L595 279L590 288L581 282L582 281L576 275L576 273L578 271L579 272L576 268L580 262L579 252L581 249L579 241L571 238L571 236L568 233L570 230L566 210L567 209L565 209L565 206L567 206L567 203L573 192L572 191L580 179L584 180L585 177L589 173L590 174L589 172L591 170L592 164L596 159L600 159L603 156L614 159L622 158L624 162L626 162L626 164L627 163L627 165L640 176L644 188L648 193L647 194L659 210z"/></g><g><path class="class-1 leaflet-clickable" stroke-linejoin="round" stroke-linecap="round" fill-rule="evenodd" stroke="#005540" stroke-opacity="1" stroke-width="0.5" fill="#7fd" fill-opacity="0.5" d="M571 238L579 241L581 249L579 252L580 261L576 268L580 272L577 272L576 275L582 281L581 282L588 287L590 287L595 279L599 294L598 296L595 297L591 297L590 295L580 295L568 306L569 315L567 315L567 317L564 319L561 326L560 331L562 336L558 337L558 344L553 347L549 342L547 342L547 340L545 340L543 343L541 341L540 339L544 337L541 333L542 332L534 332L532 328L529 329L527 327L525 322L526 321L523 316L521 317L520 308L522 309L520 307L519 302L514 297L511 297L511 299L507 299L503 289L493 280L491 271L493 269L492 268L497 265L496 264L499 267L503 267L508 263L506 264L506 258L509 257L508 254L513 246L515 236L516 237L518 234L520 237L521 236L524 239L525 238L531 243L539 243L540 245L546 243L551 247L559 235L563 237L568 237z"/></g><g><path class="class-0 leaflet-clickable" stroke-linejoin="round" stroke-linecap="round" fill-rule="evenodd" stroke="#005540" stroke-opacity="1" stroke-width="0.5" fill="#ddfff6" fill-opacity="0.5" d="M445 248L449 248L454 244L455 241L459 239L463 229L469 230L468 233L470 233L473 236L473 245L479 253L488 253L490 256L489 258L495 262L495 264L497 264L494 267L492 267L493 270L491 271L493 275L493 280L495 280L498 286L503 289L506 295L505 296L508 299L511 299L511 297L517 299L519 305L522 308L520 308L521 316L524 317L526 321L525 322L527 324L527 328L533 329L530 333L530 340L531 339L532 342L531 343L527 341L526 344L508 325L507 321L501 315L496 307L478 294L462 274L449 269L446 265L442 265L440 257L445 248z"/></g><g><path class="class-0 leaflet-clickable" stroke-linejoin="round" stroke-linecap="round" fill-rule="evenodd" stroke="#005540" stroke-opacity="1" stroke-width="0.5" fill="#ddfff6" fill-opacity="0.5" d="M647 397L651 399L650 401L653 404L652 405L654 408L652 408L650 412L651 419L648 420L646 426L640 433L637 432L638 439L641 441L641 444L637 441L634 442L632 440L626 439L622 441L616 438L613 439L612 441L613 446L606 449L606 455L576 445L570 436L576 429L581 428L584 430L587 427L587 425L588 426L588 424L593 422L594 423L596 421L597 417L593 417L594 415L591 410L593 408L592 406L586 405L586 402L589 401L588 400L593 401L599 396L606 395L610 395L609 396L611 396L613 400L617 400L618 397L622 396L622 398L625 399L623 399L623 402L625 404L629 404L629 402L631 402L634 406L644 406L647 405L646 402L648 398z"/></g><g><path class="class-1 leaflet-clickable" stroke-linejoin="round" stroke-linecap="round" fill-rule="evenodd" stroke="#005540" stroke-opacity="1" stroke-width="0.5" fill="#7fd" fill-opacity="0.5" d="M874 384L874 391L878 391L879 394L882 393L887 397L886 398L892 404L895 412L902 418L902 457L861 457L861 453L851 451L848 449L849 448L846 451L846 455L834 449L834 444L830 442L827 438L830 436L838 436L841 438L858 428L867 420L867 412L873 405L872 391L874 384z"/></g><g><path class="class-3 leaflet-clickable" stroke-linejoin="round" stroke-linecap="round" fill-rule="evenodd" stroke="#005540" stroke-opacity="1" stroke-width="0.5" fill="#086" fill-opacity="0.5" d="M861 457L861 470L850 470L851 467L845 465L846 462L842 459L842 455L838 455L831 460L830 459L830 461L828 463L824 463L824 465L821 468L819 466L818 467L819 466L817 464L815 464L813 459L814 456L812 456L813 455L810 453L807 454L807 460L803 464L801 469L799 467L801 463L799 463L795 458L790 456L791 452L789 448L805 442L818 442L821 440L821 438L826 437L829 442L833 442L834 449L837 450L838 452L846 456L846 450L849 448L849 450L855 453L861 453L861 455z"/></g><g><path class="class-0 leaflet-clickable" stroke-linejoin="round" stroke-linecap="round" fill-rule="evenodd" stroke="#005540" stroke-opacity="1" stroke-width="0.5" fill="#ddfff6" fill-opacity="0.5" d="M667 435L671 441L675 441L677 446L682 450L681 451L684 452L682 452L685 454L691 454L690 460L694 464L694 471L695 470L696 473L700 475L699 480L696 484L697 485L693 487L692 491L688 493L683 487L681 488L671 484L663 484L655 478L631 470L632 469L627 465L623 464L614 455L606 452L607 448L613 445L613 439L615 438L619 438L619 440L621 441L637 441L639 443L640 442L640 444L641 441L639 441L638 439L637 432L640 433L642 431L645 434L644 437L649 444L655 438L659 438L663 434L666 436z"/></g><g><path class="class-1 leaflet-clickable" stroke-linejoin="round" stroke-linecap="round" fill-rule="evenodd" stroke="#005540" stroke-opacity="1" stroke-width="0.5" fill="#7fd" fill-opacity="0.5" d="M593 362L595 361L603 365L613 358L614 357L612 357L614 355L616 355L621 361L619 361L620 362L618 367L620 370L618 370L618 372L615 374L615 376L608 385L611 388L608 394L606 396L600 396L591 402L590 400L586 402L586 405L588 404L593 407L593 409L591 410L594 415L593 416L598 417L595 423L593 422L589 424L584 430L582 428L576 429L576 421L572 416L568 419L563 416L561 421L554 423L553 422L550 425L546 423L546 421L545 422L542 420L540 415L538 415L530 404L526 394L534 392L536 390L535 388L537 385L538 386L540 382L545 380L552 382L559 390L558 385L556 385L560 381L559 376L569 374L568 373L571 370L566 365L567 363L565 361L561 361L560 357L556 355L558 347L560 345L561 346L560 343L563 344L562 347L566 344L563 339L564 337L570 339L570 341L567 342L568 343L566 347L568 351L568 347L571 341L574 343L571 352L572 353L576 353L578 350L580 350L579 347L581 345L583 347L582 348L586 350L584 356L580 356L576 360L574 360L576 362L575 365L571 367L571 369L575 369L576 371L571 373L573 373L574 377L584 379L586 374L589 375L593 371L594 372L596 368L592 365L593 363z"/></g><g><path class="class-0 leaflet-clickable" stroke-linejoin="round" stroke-linecap="round" fill-rule="evenodd" stroke="#005540" stroke-opacity="1" stroke-width="0.5" fill="#ddfff6" fill-opacity="0.5" d="M514 371L513 371z"/></g><g><path class="class-0 leaflet-clickable" stroke-linejoin="round" stroke-linecap="round" fill-rule="evenodd" stroke="#005540" stroke-opacity="1" stroke-width="0.5" fill="#ddfff6" fill-opacity="0.5" d="M509 368L511 369L510 370L508 368z"/></g><g><path class="class-0 leaflet-clickable" stroke-linejoin="round" stroke-linecap="round" fill-rule="evenodd" stroke="#005540" stroke-opacity="1" stroke-width="0.5" fill="#ddfff6" fill-opacity="0.5" d="M504 363L506 363L507 366L505 366L504 364z"/></g><g><path class="class-0 leaflet-clickable" stroke-linejoin="round" stroke-linecap="round" fill-rule="evenodd" stroke="#005540" stroke-opacity="1" stroke-width="0.5" fill="#ddfff6" fill-opacity="0.5" d="M504 361L503 362z"/></g><g><path class="class-0 leaflet-clickable" stroke-linejoin="round" stroke-linecap="round" fill-rule="evenodd" stroke="#005540" stroke-opacity="1" stroke-width="0.5" fill="#ddfff6" fill-opacity="0.5" d="M556 346L558 347L556 356L560 356L561 360L565 361L567 363L566 366L571 370L568 373L569 374L559 376L560 381L556 385L559 387L559 389L548 380L539 382L536 388L534 386L529 386L537 376L537 367L536 368L531 364L527 356L527 349L524 343L525 342L525 344L527 341L532 343L530 339L530 333L533 329L534 332L542 332L541 333L544 337L540 339L542 343L546 340L551 344L552 347L556 345z"/></g><g><path class="class-3 leaflet-clickable" stroke-linejoin="round" stroke-linecap="round" fill-rule="evenodd" stroke="#005540" stroke-opacity="1" stroke-width="0.5" fill="#086" fill-opacity="0.5" d="M580 179L572 191L573 192L567 202L567 207L566 206L565 209L567 209L567 223L569 224L570 229L568 234L571 236L571 238L559 235L557 236L558 237L551 247L547 243L541 245L539 243L534 244L533 242L532 243L526 240L525 238L524 239L521 236L520 237L518 234L517 237L515 237L516 238L513 242L513 246L508 253L509 257L506 258L506 264L508 262L504 267L500 267L489 258L490 257L487 252L479 253L477 251L473 245L473 237L470 233L468 233L468 229L462 231L460 230L461 229L460 230L460 227L458 225L460 222L458 219L459 217L457 216L456 212L452 210L454 209L449 202L449 198L462 196L462 192L457 181L458 176L456 174L456 172L458 172L457 168L459 166L458 160L461 159L459 157L459 145L461 146L458 138L454 137L452 133L452 130L455 129L455 126L458 126L456 126L457 125L454 123L455 121L453 121L456 118L469 118L469 106L472 105L509 106L514 113L517 116L519 116L530 128L540 135L542 135L542 137L544 137L545 143L549 148L549 156L552 159L552 161L556 165L560 166L559 167L562 170L569 172L580 179z"/></g><g><path class="class-0 leaflet-clickable" stroke-linejoin="round" stroke-linecap="round" fill-rule="evenodd" stroke="#005540" stroke-opacity="1" stroke-width="0.5" fill="#ddfff6" fill-opacity="0.5" d="M370 186L369 188L369 186z"/></g><g><path class="class-0 leaflet-clickable" stroke-linejoin="round" stroke-linecap="round" fill-rule="evenodd" stroke="#005540" stroke-opacity="1" stroke-width="0.5" fill="#ddfff6" fill-opacity="0.5" d="M376 173L378 179L375 186L370 182L371 175L375 173z"/></g><g><path class="class-0 leaflet-clickable" stroke-linejoin="round" stroke-linecap="round" fill-rule="evenodd" stroke="#005540" stroke-opacity="1" stroke-width="0.5" fill="#ddfff6" fill-opacity="0.5" d="M321 106L323 106L322 107z"/></g><g><path class="class-0 leaflet-clickable" stroke-linejoin="round" stroke-linecap="round" fill-rule="evenodd" stroke="#005540" stroke-opacity="1" stroke-width="0.5" fill="#ddfff6" fill-opacity="0.5" d="M318 86L398 115L403 118L456 118L455 120L453 120L454 123L457 125L456 126L458 126L455 126L455 129L452 129L452 132L454 135L453 136L460 141L459 144L461 145L459 145L459 158L461 158L461 160L458 160L459 166L457 168L457 182L460 186L462 196L450 198L449 202L453 209L452 210L456 213L458 217L460 222L458 224L461 231L464 231L458 239L458 241L456 241L453 244L453 246L445 248L445 244L443 241L438 238L433 238L429 229L421 227L417 223L414 223L415 209L413 207L412 208L408 206L408 208L406 208L406 206L400 204L394 195L390 193L384 186L385 184L378 180L378 173L376 170L375 171L373 169L374 167L370 162L368 156L365 155L365 148L357 134L358 122L352 119L345 118L345 114L340 110L332 113L323 106L316 103L314 96L315 95L313 93L315 91L315 87L318 87zM409 205L409 206z"/></g><g><path class="class-2 leaflet-clickable" stroke-linejoin="round" stroke-linecap="round" fill-rule="evenodd" stroke="#005540" stroke-opacity="1" stroke-width="0.5" fill="#00cc99" fill-opacity="0.5" d="M939 368L939 380L936 386L925 398L919 398L913 404L911 404L910 407L908 407L909 408L903 414L902 413L899 415L896 413L892 407L892 404L889 400L887 400L883 393L880 394L875 391L874 384L876 379L886 374L912 370L916 367L921 367L924 365L939 368z"/></g><g><path class="class-2 leaflet-clickable" stroke-linejoin="round" stroke-linecap="round" fill-rule="evenodd" stroke="#005540" stroke-opacity="1" stroke-width="0.5" fill="#00cc99" fill-opacity="0.5" d="M889 341L892 342L893 344L891 346L888 343L889 341z"/></g><g><path class="class-2 leaflet-clickable" stroke-linejoin="round" stroke-linecap="round" fill-rule="evenodd" stroke="#005540" stroke-opacity="1" stroke-width="0.5" fill="#00cc99" fill-opacity="0.5" d="M943 443L944 440L944 442z"/></g><g><path class="class-2 leaflet-clickable" stroke-linejoin="round" stroke-linecap="round" fill-rule="evenodd" stroke="#005540" stroke-opacity="1" stroke-width="0.5" fill="#00cc99" fill-opacity="0.5" d="M945 435L945 437L945 435z"/></g><g><path class="class-2 leaflet-clickable" stroke-linejoin="round" stroke-linecap="round" fill-rule="evenodd" stroke="#005540" stroke-opacity="1" stroke-width="0.5" fill="#00cc99" fill-opacity="0.5" d="M957 391L951 398L951 394L953 391L958 390z"/></g><g><path class="class-2 leaflet-clickable" stroke-linejoin="round" stroke-linecap="round" fill-rule="evenodd" stroke="#005540" stroke-opacity="1" stroke-width="0.5" fill="#00cc99" fill-opacity="0.5" d="M902 454L901 450L903 449L903 425L902 418L899 415L902 413L903 414L903 412L905 412L905 410L910 407L910 405L913 404L914 401L917 401L919 398L925 397L929 394L936 386L939 380L939 368L946 370L949 369L950 366L955 373L955 370L956 371L956 379L953 385L941 399L941 409L940 410L941 406L940 409L934 412L936 416L941 413L942 414L941 418L936 420L936 424L939 421L941 421L939 423L931 449L928 449L928 443L923 443L923 441L917 441L915 447L912 449L909 455L905 452L903 454z"/></g><g><path class="class-2 leaflet-clickable" stroke-linejoin="round" stroke-linecap="round" fill-rule="evenodd" stroke="#005540" stroke-opacity="1" stroke-width="0.5" fill="#00cc99" fill-opacity="0.5" d="M949 365L947 367L942 368L944 366L948 366z"/></g></svg>