<svg xmlns="http://www.w3.org/2000/svg" class="leaflet-zoom-animated" width="2164" style="-webkit-transform: translate3d(-368px, -115px, 0);" height="806" viewBox="-368 -115 2164 806"><g><path class="class-3 leaflet-clickable" stroke-linejoin="round" stroke-linecap="round" fill-rule="evenodd" stroke="#005540" stroke-opacity="1" stroke-width="0.5" fill="#086" fill-opacity="0.5" d="M759 435L763 441L767 441L769 446L774 450L773 451L776 452L774 452L777 454L783 454L782 460L786 464L786 471L787 470L788 473L792 475L791 480L788 484L789 485L785 487L784 491L780 493L775 487L773 488L763 484L755 484L747 478L723 470L724 469L719 465L715 464L706 455L698 452L699 448L705 445L705 439L707 438L711 438L711 440L713 441L729 441L731 443L732 442L732 444L733 441L731 441L730 439L729 432L732 433L734 431L737 434L736 437L741 444L747 438L751 438L755 434L758 436z"/></g><g><path class="class-3 leaflet-clickable" stroke-linejoin="round" stroke-linecap="round" fill-rule="evenodd" stroke="#005540" stroke-opacity="1" stroke-width="0.5" fill="#086" fill-opacity="0.5" d="M887 473L881 489L883 492L882 496L884 500L878 497L868 495L856 496L851 501L847 501L837 506L836 505L833 508L824 508L815 505L812 502L798 501L788 494L781 493L785 490L784 487L789 485L788 484L791 481L791 477L793 475L788 474L787 470L786 471L786 464L782 460L783 456L787 454L788 455L790 453L794 453L797 455L799 452L798 451L797 453L796 448L801 445L803 452L810 448L815 449L822 443L823 437L829 440L834 449L842 449L843 454L841 459L845 463L848 464L854 459L856 459L857 460L855 462L859 467L864 470L863 471L882 473z"/></g><g><path class="class-3 leaflet-clickable" stroke-linejoin="round" stroke-linecap="round" fill-rule="evenodd" stroke="#005540" stroke-opacity="1" stroke-width="0.5" fill="#086" fill-opacity="0.5" d="M942 470L945 473L946 472L946 474L950 476L949 477L954 481L959 483L960 488L966 491L965 498L936 498L925 518L928 522L925 527L926 531L924 535L896 507L888 501L883 500L881 496L883 495L883 492L881 489L887 473L895 466L895 464L899 460L898 458L901 453L904 455L904 457L906 457L905 459L908 465L909 464L911 466L910 467L911 466L913 468L917 463L922 462L921 461L927 458L927 456L930 454L933 455L933 459L937 460L937 466L942 467L943 470z"/></g><g><path class="class-3 leaflet-clickable" stroke-linejoin="round" stroke-linecap="round" fill-rule="evenodd" stroke="#005540" stroke-opacity="1" stroke-width="0.5" fill="#086" fill-opacity="0.5" d="M771 427L774 430L778 428L776 434L777 441L776 442L774 440L769 444L763 441L759 436L764 425L771 427z"/></g><g><path class="class-2 leaflet-clickable" stroke-linejoin="round" stroke-linecap="round" fill-rule="evenodd" stroke="#005540" stroke-opacity="1" stroke-width="0.5" fill="#00cc99" fill-opacity="0.5" d="M798 349L800 357L808 366L806 372L807 378L814 392L821 398L828 407L831 419L836 424L836 426L839 427L841 432L846 435L855 435L865 440L872 449L881 447L882 456L890 460L892 463L892 470L890 470L887 473L863 472L864 470L859 467L855 462L857 460L856 459L854 459L848 464L845 464L841 459L843 454L842 449L834 449L835 448L834 449L832 447L827 438L823 437L822 444L820 440L816 439L814 441L811 437L808 436L810 431L809 428L816 422L807 419L808 418L806 416L806 414L809 411L809 407L813 401L806 398L803 402L799 400L800 397L798 395L799 393L800 394L803 392L800 391L798 384L796 384L795 390L793 391L791 388L790 391L785 395L780 396L781 395L779 392L782 390L783 387L781 388L785 383L785 385L787 385L788 380L790 378L786 376L787 375L784 376L781 373L782 370L781 371L778 365L783 361L780 356L782 357L783 353L786 350L778 346L784 346L787 344L793 347L796 351L797 349z"/></g><g><path class="class-2 leaflet-clickable" stroke-linejoin="round" stroke-linecap="round" fill-rule="evenodd" stroke="#005540" stroke-opacity="1" stroke-width="0.5" fill="#00cc99" fill-opacity="0.5" d="M1035 443L1036 440L1036 442z"/></g><g><path class="class-2 leaflet-clickable" stroke-linejoin="round" stroke-linecap="round" fill-rule="evenodd" stroke="#005540" stroke-opacity="1" stroke-width="0.5" fill="#00cc99" fill-opacity="0.5" d="M1037 435L1037 437L1037 435z"/></g><g><path class="class-2 leaflet-clickable" stroke-linejoin="round" stroke-linecap="round" fill-rule="evenodd" stroke="#005540" stroke-opacity="1" stroke-width="0.5" fill="#00cc99" fill-opacity="0.5" d="M1049 391L1043 398L1043 394L1045 391L1050 390z"/></g><g><path class="class-2 leaflet-clickable" stroke-linejoin="round" stroke-linecap="round" fill-rule="evenodd" stroke="#005540" stroke-opacity="1" stroke-width="0.5" fill="#00cc99" fill-opacity="0.5" d="M994 454L993 450L995 449L995 425L994 418L991 415L994 413L995 414L995 412L997 412L997 410L1002 407L1002 405L1005 404L1006 401L1009 401L1011 398L1017 397L1021 394L1028 386L1031 380L1031 368L1038 370L1041 369L1042 366L1047 373L1047 370L1048 371L1048 379L1045 385L1033 399L1033 409L1032 410L1033 406L1032 409L1026 412L1028 416L1033 413L1034 414L1033 418L1028 420L1028 424L1031 421L1033 421L1031 423L1023 449L1020 449L1020 443L1015 443L1015 441L1009 441L1007 447L1004 449L1001 455L997 452L995 454z"/></g><g><path class="class-2 leaflet-clickable" stroke-linejoin="round" stroke-linecap="round" fill-rule="evenodd" stroke="#005540" stroke-opacity="1" stroke-width="0.5" fill="#00cc99" fill-opacity="0.5" d="M1041 365L1039 367L1034 368L1036 366L1040 366z"/></g><g><path class="class-2 leaflet-clickable" stroke-linejoin="round" stroke-linecap="round" fill-rule="evenodd" stroke="#005540" stroke-opacity="1" stroke-width="0.5" fill="#00cc99" fill-opacity="0.5" d="M822 443L818 447L813 449L810 448L805 452L803 452L801 446L797 446L797 453L799 451L800 452L798 452L795 455L793 453L789 453L789 455L784 456L783 453L779 454L769 446L769 444L772 441L777 442L776 434L779 428L778 417L780 417L789 426L792 423L795 425L797 422L801 421L798 417L795 416L796 415L794 413L792 413L792 411L787 412L788 411L786 408L791 401L789 398L786 398L789 397L795 390L796 384L799 385L799 389L803 392L798 395L800 397L799 400L803 402L806 398L812 401L806 416L808 418L807 419L816 422L814 424L815 425L811 424L808 437L809 436L814 441L818 439L822 443z"/></g><g><path class="class-2 leaflet-clickable" stroke-linejoin="round" stroke-linecap="round" fill-rule="evenodd" stroke="#005540" stroke-opacity="1" stroke-width="0.5" fill="#00cc99" fill-opacity="0.5" d="M524 302L522 302L522 297L524 301z"/></g><g><path class="class-2 leaflet-clickable" stroke-linejoin="round" stroke-linecap="round" fill-rule="evenodd" stroke="#005540" stroke-opacity="1" stroke-width="0.5" fill="#00cc99" fill-opacity="0.5" d="M512 293L512 296L511 293z"/></g><g><path class="class-2 leaflet-clickable" stroke-linejoin="round" stroke-linecap="round" fill-rule="evenodd" stroke="#005540" stroke-opacity="1" stroke-width="0.5" fill="#00cc99" fill-opacity="0.5" d="M511 291L511 292z"/></g><g><path class="class-2 leaflet-clickable" stroke-linejoin="round" stroke-linecap="round" fill-rule="evenodd" stroke="#005540" stroke-opacity="1" stroke-width="0.5" fill="#00cc99" fill-opacity="0.5" d="M504 279L507 281L508 284L504 280z"/></g><g><path class="class-2 leaflet-clickable" stroke-linejoin="round" stroke-linecap="round" fill-rule="evenodd" stroke="#005540" stroke-opacity="1" stroke-width="0.5" fill="#00cc99" fill-opacity="0.5" d="M504 273L503 275L504 273z"/></g><g><path class="class-2 leaflet-clickable" stroke-linejoin="round" stroke-linecap="round" fill-rule="evenodd" stroke="#005540" stroke-opacity="1" stroke-width="0.5" fill="#00cc99" fill-opacity="0.5" d="M502 263L503 266L502 264z"/></g><g><path class="class-2 leaflet-clickable" stroke-linejoin="round" stroke-linecap="round" fill-rule="evenodd" stroke="#005540" stroke-opacity="1" stroke-width="0.5" fill="#00cc99" fill-opacity="0.5" d="M496 263L496 265L496 263z"/></g><g><path class="class-2 leaflet-clickable" stroke-linejoin="round" stroke-linecap="round" fill-rule="evenodd" stroke="#005540" stroke-opacity="1" stroke-width="0.5" fill="#00cc99" fill-opacity="0.5" d="M496 254L496 256L494 256L492 260L493 261L492 258L493 255L495 255z"/></g><g><path class="class-2 leaflet-clickable" stroke-linejoin="round" stroke-linecap="round" fill-rule="evenodd" stroke="#005540" stroke-opacity="1" stroke-width="0.5" fill="#00cc99" fill-opacity="0.5" d="M491 252L491 252z"/></g><g><path class="class-2 leaflet-clickable" stroke-linejoin="round" stroke-linecap="round" fill-rule="evenodd" stroke="#005540" stroke-opacity="1" stroke-width="0.5" fill="#00cc99" fill-opacity="0.5" d="M473 224L473 226L472 224z"/></g><g><path class="class-2 leaflet-clickable" stroke-linejoin="round" stroke-linecap="round" fill-rule="evenodd" stroke="#005540" stroke-opacity="1" stroke-width="0.5" fill="#00cc99" fill-opacity="0.5" d="M476 219L475 219z"/></g><g><path class="class-2 leaflet-clickable" stroke-linejoin="round" stroke-linecap="round" fill-rule="evenodd" stroke="#005540" stroke-opacity="1" stroke-width="0.5" fill="#00cc99" fill-opacity="0.5" d="M402 208L402 208z"/></g><g><path class="class-2 leaflet-clickable" stroke-linejoin="round" stroke-linecap="round" fill-rule="evenodd" stroke="#005540" stroke-opacity="1" stroke-width="0.5" fill="#00cc99" fill-opacity="0.5" d="M424 205L457 205L459 212L467 218L470 224L469 225L476 229L474 230L474 232L476 234L478 233L481 235L484 241L487 243L486 244L490 254L490 262L495 268L497 268L498 274L505 285L503 293L506 300L512 302L512 298L515 298L520 302L520 305L524 306L524 308L527 311L527 314L532 317L533 324L529 329L520 334L517 330L515 320L511 316L507 314L495 302L485 297L480 298L470 290L470 287L467 286L472 274L472 261L466 250L459 248L444 236L442 235L439 238L432 231L428 231L425 227L421 227L418 224L417 220L404 209L405 208L417 211L423 208L424 206z"/></g><g><path class="class-2 leaflet-clickable" stroke-linejoin="round" stroke-linecap="round" fill-rule="evenodd" stroke="#005540" stroke-opacity="1" stroke-width="0.5" fill="#00cc99" fill-opacity="0.5" d="M739 397L743 399L742 401L745 404L744 405L746 408L744 408L742 412L743 419L740 420L738 426L732 433L729 432L730 439L733 441L733 444L729 441L726 442L724 440L718 439L714 441L708 438L705 439L704 441L705 446L698 449L698 455L668 445L662 436L668 429L673 428L676 430L679 427L679 425L680 426L680 424L685 422L686 423L688 421L689 417L685 417L686 415L683 410L685 408L684 406L678 405L678 402L681 401L680 400L685 401L691 396L698 395L702 395L701 396L703 396L705 400L709 400L710 397L714 396L714 398L717 399L715 399L715 402L717 404L721 404L721 402L723 402L726 406L736 406L739 405L738 402L740 398z"/></g><g><path class="class-2 leaflet-clickable" stroke-linejoin="round" stroke-linecap="round" fill-rule="evenodd" stroke="#005540" stroke-opacity="1" stroke-width="0.5" fill="#00cc99" fill-opacity="0.5" d="M778 417L777 414L783 414L786 412L785 411L791 411L796 415L796 417L798 417L801 420L800 422L797 421L795 424L792 423L789 426L782 420L781 417L779 418z"/></g><g><path class="class-2 leaflet-clickable" stroke-linejoin="round" stroke-linecap="round" fill-rule="evenodd" stroke="#005540" stroke-opacity="1" stroke-width="0.5" fill="#00cc99" fill-opacity="0.5" d="M753 368L752 371L753 373L755 373L751 376L747 375L748 376L746 382L737 382L734 385L736 393L740 398L738 402L739 405L726 406L723 402L721 402L721 404L717 404L715 402L715 400L717 399L714 398L714 396L712 396L709 399L703 399L703 397L700 394L703 391L700 384L703 382L707 374L710 373L709 370L711 370L710 367L712 363L711 362L713 360L719 360L721 362L723 361L731 367L737 367L738 363L740 363L750 369L752 368z"/></g><g><path class="class-2 leaflet-clickable" stroke-linejoin="round" stroke-linecap="round" fill-rule="evenodd" stroke="#005540" stroke-opacity="1" stroke-width="0.5" fill="#00cc99" fill-opacity="0.5" d="M751 398L756 401L759 400L759 407L762 409L761 410L765 407L765 405L770 405L770 403L771 409L773 407L776 407L779 410L777 414L779 418L779 428L774 430L771 427L771 421L769 419L768 414L762 421L764 425L763 430L760 431L761 433L758 436L754 434L755 435L753 435L751 438L747 438L741 444L737 439L738 438L736 437L737 434L734 431L743 418L741 412L744 411L744 403L748 403L748 399L750 398z"/></g><g><path class="class-2 leaflet-clickable" stroke-linejoin="round" stroke-linecap="round" fill-rule="evenodd" stroke="#005540" stroke-opacity="1" stroke-width="0.5" fill="#00cc99" fill-opacity="0.5" d="M1031 368L1031 380L1028 386L1017 398L1011 398L1005 404L1003 404L1002 407L1000 407L1001 408L995 414L994 413L991 415L988 413L984 407L984 404L981 400L979 400L975 393L972 394L967 391L966 384L968 379L978 374L1004 370L1008 367L1013 367L1016 365L1031 368z"/></g><g><path class="class-2 leaflet-clickable" stroke-linejoin="round" stroke-linecap="round" fill-rule="evenodd" stroke="#005540" stroke-opacity="1" stroke-width="0.5" fill="#00cc99" fill-opacity="0.5" d="M981 341L984 342L985 344L983 346L980 343L981 341z"/></g><g><path class="class-2 leaflet-clickable" stroke-linejoin="round" stroke-linecap="round" fill-rule="evenodd" stroke="#005540" stroke-opacity="1" stroke-width="0.5" fill="#00cc99" fill-opacity="0.5" d="M953 457L953 470L942 470L943 467L937 465L938 462L934 459L934 455L930 455L923 460L922 459L922 461L920 463L916 463L916 465L913 468L911 466L910 467L911 466L909 464L907 464L905 459L906 456L904 456L905 455L902 453L899 454L899 460L895 464L893 469L891 467L893 463L891 463L887 458L882 456L883 452L881 448L897 442L910 442L913 440L913 438L918 437L921 442L925 442L926 449L929 450L930 452L938 456L938 450L941 448L941 450L947 453L953 453L953 455z"/></g><g><path class="class-2 leaflet-clickable" stroke-linejoin="round" stroke-linecap="round" fill-rule="evenodd" stroke="#005540" stroke-opacity="1" stroke-width="0.5" fill="#00cc99" fill-opacity="0.5" d="M412 444L412 444z"/></g><g><path class="class-2 leaflet-clickable" stroke-linejoin="round" stroke-linecap="round" fill-rule="evenodd" stroke="#005540" stroke-opacity="1" stroke-width="0.5" fill="#00cc99" fill-opacity="0.5" d="M497 432L499 434L498 435L496 433L497 432z"/></g><g><path class="class-2 leaflet-clickable" stroke-linejoin="round" stroke-linecap="round" fill-rule="evenodd" stroke="#005540" stroke-opacity="1" stroke-width="0.5" fill="#00cc99" fill-opacity="0.5" d="M668 429L662 436L648 426L641 424L642 425L645 422L646 423L654 421L653 420L655 416L660 419L664 416L668 420L668 429z"/></g><g><path class="class-2 leaflet-clickable" stroke-linejoin="round" stroke-linecap="round" fill-rule="evenodd" stroke="#005540" stroke-opacity="1" stroke-width="0.5" fill="#00cc99" fill-opacity="0.5" d="M501 422L501 421z"/></g><g><path class="class-2 leaflet-clickable" stroke-linejoin="round" stroke-linecap="round" fill-rule="evenodd" stroke="#005540" stroke-opacity="1" stroke-width="0.5" fill="#00cc99" fill-opacity="0.5" d="M793 392L789 397L786 398L790 399L790 401L786 407L788 410L785 411L786 412L784 414L778 414L779 409L776 407L772 407L771 409L770 406L772 404L770 403L770 405L767 404L765 408L763 408L762 410L762 408L759 405L759 400L756 401L751 398L751 391L756 390L758 388L762 379L761 378L769 376L771 372L772 375L778 376L778 372L782 370L781 373L784 376L787 375L786 376L788 376L790 379L787 383L788 385L783 384L780 388L782 387L780 396L785 395L791 389L793 391z"/></g><g><path class="class-1 leaflet-clickable" stroke-linejoin="round" stroke-linecap="round" fill-rule="evenodd" stroke="#005540" stroke-opacity="1" stroke-width="0.5" fill="#7fd" fill-opacity="0.5" d="M393 197L392 197z"/></g><g><path class="class-1 leaflet-clickable" stroke-linejoin="round" stroke-linecap="round" fill-rule="evenodd" stroke="#005540" stroke-opacity="1" stroke-width="0.5" fill="#7fd" fill-opacity="0.5" d="M401 195L403 201L402 204L398 202L401 199L401 196z"/></g><g><path class="class-1 leaflet-clickable" stroke-linejoin="round" stroke-linecap="round" fill-rule="evenodd" stroke="#005540" stroke-opacity="1" stroke-width="0.5" fill="#7fd" fill-opacity="0.5" d="M454 187L457 189L456 190L455 188z"/></g><g><path class="class-1 leaflet-clickable" stroke-linejoin="round" stroke-linecap="round" fill-rule="evenodd" stroke="#005540" stroke-opacity="1" stroke-width="0.5" fill="#7fd" fill-opacity="0.5" d="M440 176L440 177z"/></g><g><path class="class-1 leaflet-clickable" stroke-linejoin="round" stroke-linecap="round" fill-rule="evenodd" stroke="#005540" stroke-opacity="1" stroke-width="0.5" fill="#7fd" fill-opacity="0.5" d="M440 165L443 167L443 170L445 172L448 171L448 179L438 168L439 165z"/></g><g><path class="class-1 leaflet-clickable" stroke-linejoin="round" stroke-linecap="round" fill-rule="evenodd" stroke="#005540" stroke-opacity="1" stroke-width="0.5" fill="#7fd" fill-opacity="0.5" d="M330 174L332 177L331 182L329 177L330 174z"/></g><g><path class="class-1 leaflet-clickable" stroke-linejoin="round" stroke-linecap="round" fill-rule="evenodd" stroke="#005540" stroke-opacity="1" stroke-width="0.5" fill="#7fd" fill-opacity="0.5" d="M419 153L419 154z"/></g><g><path class="class-1 leaflet-clickable" stroke-linejoin="round" stroke-linecap="round" fill-rule="evenodd" stroke="#005540" stroke-opacity="1" stroke-width="0.5" fill="#7fd" fill-opacity="0.5" d="M412 112L412 112z"/></g><g><path class="class-1 leaflet-clickable" stroke-linejoin="round" stroke-linecap="round" fill-rule="evenodd" stroke="#005540" stroke-opacity="1" stroke-width="0.5" fill="#7fd" fill-opacity="0.5" d="M412 105L414 107L413 108L411 108L411 105z"/></g><g><path class="class-1 leaflet-clickable" stroke-linejoin="round" stroke-linecap="round" fill-rule="evenodd" stroke="#005540" stroke-opacity="1" stroke-width="0.5" fill="#7fd" fill-opacity="0.5" d="M410 86L407 88L405 93L407 95L407 102L410 103L411 105L411 110L409 113L409 123L413 129L413 137L415 142L414 149L420 157L420 159L423 159L437 172L440 182L442 180L444 184L447 184L449 191L455 195L454 197L456 199L456 205L424 205L427 201L426 198L428 194L426 190L421 186L421 184L418 181L416 181L415 177L412 176L412 174L390 159L391 157L388 153L388 146L382 140L383 134L377 127L376 128L375 119L368 112L369 109L367 106L368 107L369 104L363 99L363 96L358 88L358 85L412 80L410 86z"/></g><g><path class="class-1 leaflet-clickable" stroke-linejoin="round" stroke-linecap="round" fill-rule="evenodd" stroke="#005540" stroke-opacity="1" stroke-width="0.5" fill="#7fd" fill-opacity="0.5" d="M685 362L687 361L695 365L705 358L706 357L704 357L706 355L708 355L713 361L711 361L712 362L710 367L712 370L710 370L710 372L707 374L707 376L700 385L703 388L700 394L698 396L692 396L683 402L682 400L678 402L678 405L680 404L685 407L685 409L683 410L686 415L685 416L690 417L687 423L685 422L681 424L676 430L674 428L668 429L668 421L664 416L660 419L655 416L653 421L646 423L645 422L642 425L638 423L638 421L637 422L634 420L632 415L630 415L622 404L618 394L626 392L628 390L627 388L629 385L630 386L632 382L637 380L644 382L651 390L650 385L648 385L652 381L651 376L661 374L660 373L663 370L658 365L659 363L657 361L653 361L652 357L648 355L650 347L652 345L653 346L652 343L655 344L654 347L658 344L655 339L656 337L662 339L662 341L659 342L660 343L658 347L660 351L660 347L663 341L666 343L663 352L664 353L668 353L670 350L672 350L671 347L673 345L675 347L674 348L678 350L676 356L672 356L668 360L666 360L668 362L667 365L663 367L663 369L667 369L668 371L663 373L665 373L666 377L676 379L678 374L681 375L685 371L686 372L688 368L684 365L685 363z"/></g><g><path class="class-1 leaflet-clickable" stroke-linejoin="round" stroke-linecap="round" fill-rule="evenodd" stroke="#005540" stroke-opacity="1" stroke-width="0.5" fill="#7fd" fill-opacity="0.5" d="M771 427L767 427L762 423L767 414L771 421L771 426z"/></g><g><path class="class-1 leaflet-clickable" stroke-linejoin="round" stroke-linecap="round" fill-rule="evenodd" stroke="#005540" stroke-opacity="1" stroke-width="0.5" fill="#7fd" fill-opacity="0.5" d="M462 186L461 188L461 186z"/></g><g><path class="class-1 leaflet-clickable" stroke-linejoin="round" stroke-linecap="round" fill-rule="evenodd" stroke="#005540" stroke-opacity="1" stroke-width="0.5" fill="#7fd" fill-opacity="0.5" d="M468 173L470 179L467 186L462 182L463 175L467 173z"/></g><g><path class="class-1 leaflet-clickable" stroke-linejoin="round" stroke-linecap="round" fill-rule="evenodd" stroke="#005540" stroke-opacity="1" stroke-width="0.5" fill="#7fd" fill-opacity="0.5" d="M413 106L415 106L414 107z"/></g><g><path class="class-1 leaflet-clickable" stroke-linejoin="round" stroke-linecap="round" fill-rule="evenodd" stroke="#005540" stroke-opacity="1" stroke-width="0.5" fill="#7fd" fill-opacity="0.5" d="M410 86L490 115L495 118L548 118L547 120L545 120L546 123L549 125L548 126L550 126L547 126L547 129L544 129L544 132L546 135L545 136L552 141L551 144L553 145L551 145L551 158L553 158L553 160L550 160L551 166L549 168L549 182L552 186L554 196L542 198L541 202L545 209L544 210L548 213L550 217L552 222L550 224L553 231L556 231L550 239L550 241L548 241L545 244L545 246L537 248L537 244L535 241L530 238L525 238L521 229L513 227L509 223L506 223L507 209L505 207L504 208L500 206L500 208L498 208L498 206L492 204L486 195L482 193L476 186L477 184L470 180L470 173L468 170L467 171L465 169L466 167L462 162L460 156L457 155L457 148L449 134L450 122L444 119L437 118L437 114L432 110L424 113L415 106L408 103L406 96L407 95L405 93L407 91L407 87L410 87zM501 205L501 206z"/></g><g><path class="class-0 leaflet-clickable" stroke-linejoin="round" stroke-linecap="round" fill-rule="evenodd" stroke="#005540" stroke-opacity="1" stroke-width="0.5" fill="#ddfff6" fill-opacity="0.5" d="M769 373L768 376L764 378L763 376L758 386L759 388L751 391L751 398L749 397L749 402L745 404L742 401L742 398L740 398L736 394L734 385L737 382L745 382L746 379L747 380L747 375L753 375L755 373L752 372L754 366L761 370L766 364L768 373z"/></g><g><path class="class-0 leaflet-clickable" stroke-linejoin="round" stroke-linecap="round" fill-rule="evenodd" stroke="#005540" stroke-opacity="1" stroke-width="0.5" fill="#ddfff6" fill-opacity="0.5" d="M537 248L541 248L546 244L547 241L551 239L555 229L561 230L560 233L562 233L565 236L565 245L571 253L580 253L582 256L581 258L587 262L587 264L589 264L586 267L584 267L585 270L583 271L585 275L585 280L587 280L590 286L595 289L598 295L597 296L600 299L603 299L603 297L609 299L611 305L614 308L612 308L613 316L616 317L618 321L617 322L619 324L619 328L625 329L622 333L622 340L623 339L624 342L623 343L619 341L618 344L600 325L599 321L593 315L588 307L570 294L554 274L541 269L538 265L534 265L532 257L537 248z"/></g><g><path class="class-0 leaflet-clickable" stroke-linejoin="round" stroke-linecap="round" fill-rule="evenodd" stroke="#005540" stroke-opacity="1" stroke-width="0.5" fill="#ddfff6" fill-opacity="0.5" d="M705 355L704 356L706 358L701 359L697 364L693 364L687 361L684 362L682 360L687 352L687 348L693 347L695 345L699 347L698 348L701 348L701 352L705 355z"/></g><g><path class="class-0 leaflet-clickable" stroke-linejoin="round" stroke-linecap="round" fill-rule="evenodd" stroke="#005540" stroke-opacity="1" stroke-width="0.5" fill="#ddfff6" fill-opacity="0.5" d="M606 371L605 371z"/></g><g><path class="class-0 leaflet-clickable" stroke-linejoin="round" stroke-linecap="round" fill-rule="evenodd" stroke="#005540" stroke-opacity="1" stroke-width="0.5" fill="#ddfff6" fill-opacity="0.5" d="M601 368L603 369L602 370L600 368z"/></g><g><path class="class-0 leaflet-clickable" stroke-linejoin="round" stroke-linecap="round" fill-rule="evenodd" stroke="#005540" stroke-opacity="1" stroke-width="0.5" fill="#ddfff6" fill-opacity="0.5" d="M596 363L598 363L599 366L597 366L596 364z"/></g><g><path class="class-0 leaflet-clickable" stroke-linejoin="round" stroke-linecap="round" fill-rule="evenodd" stroke="#005540" stroke-opacity="1" stroke-width="0.5" fill="#ddfff6" fill-opacity="0.5" d="M596 361L595 362z"/></g><g><path class="class-0 leaflet-clickable" stroke-linejoin="round" stroke-linecap="round" fill-rule="evenodd" stroke="#005540" stroke-opacity="1" stroke-width="0.5" fill="#ddfff6" fill-opacity="0.5" d="M648 346L650 347L648 356L652 356L653 360L657 361L659 363L658 366L663 370L660 373L661 374L651 376L652 381L648 385L651 387L651 389L640 380L631 382L628 388L626 386L621 386L629 376L629 367L628 368L623 364L619 356L619 349L616 343L617 342L617 344L619 341L624 343L622 339L622 333L625 329L626 332L634 332L633 333L636 337L632 339L634 343L638 340L643 344L644 347L648 345z"/></g><g><path class="class-0 leaflet-clickable" stroke-linejoin="round" stroke-linecap="round" fill-rule="evenodd" stroke="#005540" stroke-opacity="1" stroke-width="0.5" fill="#ddfff6" fill-opacity="0.5" d="M751 211L747 215L743 210L739 213L738 220L732 222L728 226L729 229L735 229L735 235L733 239L732 240L730 237L720 247L729 258L728 261L732 267L735 268L733 268L737 271L737 273L742 273L742 276L731 275L729 277L729 281L731 283L729 285L728 292L726 293L718 286L712 288L710 286L711 285L697 278L691 278L692 281L687 279L682 288L673 282L674 281L668 275L668 273L670 271L671 272L668 268L672 262L671 252L673 249L671 241L663 238L663 236L660 233L662 230L658 210L659 209L657 209L657 206L659 206L659 203L665 192L664 191L672 179L676 180L677 177L681 173L682 174L681 172L683 170L684 164L688 159L692 159L695 156L706 159L714 158L716 162L718 162L718 164L719 163L719 165L732 176L736 188L740 193L739 194L751 210z"/></g><g><path class="class-2 leaflet-clickable" stroke-linejoin="round" stroke-linecap="round" fill-rule="evenodd" stroke="#005540" stroke-opacity="1" stroke-width="0.5" fill="#00cc99" fill-opacity="0.5" d="M966 384L966 391L970 391L971 394L974 393L979 397L978 398L984 404L987 412L994 418L994 457L953 457L953 453L943 451L940 449L941 448L938 451L938 455L926 449L926 444L922 442L919 438L922 436L930 436L933 438L950 428L959 420L959 412L965 405L964 391L966 384z"/></g><g><path class="class-1 leaflet-clickable" stroke-linejoin="round" stroke-linecap="round" fill-rule="evenodd" stroke="#005540" stroke-opacity="1" stroke-width="0.5" fill="#7fd" fill-opacity="0.5" d="M798 349L796 351L788 344L786 344L785 346L778 345L776 347L769 345L767 346L759 337L758 341L755 339L751 339L750 337L745 337L747 335L745 332L747 330L745 328L746 323L744 323L746 321L749 322L748 317L751 312L757 312L759 309L759 307L755 303L757 296L754 294L754 292L758 291L759 288L763 286L765 287L767 283L766 281L769 278L772 279L783 270L780 269L780 255L774 255L772 257L770 253L767 255L766 249L764 250L760 247L761 241L755 239L757 234L753 233L755 229L753 219L749 218L749 216L754 213L758 216L760 230L764 234L768 246L770 245L772 247L777 248L777 250L783 250L788 255L801 255L806 260L808 259L807 258L812 257L812 263L805 276L800 294L798 336L796 339L797 348z"/></g><g><path class="class-0 leaflet-clickable" stroke-linejoin="round" stroke-linecap="round" fill-rule="evenodd" stroke="#005540" stroke-opacity="1" stroke-width="0.5" fill="#ddfff6" fill-opacity="0.5" d="M751 211L754 213L749 216L749 218L753 219L755 228L753 233L757 234L755 238L761 241L760 247L764 250L766 249L767 255L770 253L772 257L774 255L780 255L780 269L783 269L773 279L769 278L766 281L766 287L763 286L759 288L758 291L754 292L754 294L756 294L757 296L755 303L760 309L757 312L751 312L748 317L749 322L746 321L744 323L746 323L745 325L742 325L743 323L741 323L740 325L739 324L740 327L737 326L737 313L735 310L736 304L733 302L734 297L729 292L729 285L731 283L729 282L729 277L731 275L742 276L742 274L738 273L733 268L735 268L730 265L727 254L720 247L730 237L732 240L733 239L735 235L735 229L729 229L728 226L732 222L738 220L739 213L743 210L747 214L749 213z"/></g><g><path class="class-1 leaflet-clickable" stroke-linejoin="round" stroke-linecap="round" fill-rule="evenodd" stroke="#005540" stroke-opacity="1" stroke-width="0.5" fill="#7fd" fill-opacity="0.5" d="M745 325L747 329L745 331L747 335L745 337L750 337L758 341L759 337L767 346L780 346L786 350L780 357L782 357L782 361L778 365L781 368L781 370L777 372L779 372L778 376L774 376L771 372L768 373L766 364L761 370L759 370L755 366L753 366L753 368L750 369L741 363L739 363L737 367L733 368L729 366L726 362L713 360L717 355L717 351L715 348L718 344L716 339L717 338L714 337L712 341L711 340L710 343L707 344L705 342L705 339L703 340L698 335L696 330L697 328L695 325L697 323L695 323L697 320L699 322L707 320L720 308L720 302L723 301L724 296L726 299L731 295L734 296L733 301L736 303L736 326L739 327L739 324L740 325L741 323L743 323L742 325L744 325z"/></g><g><path class="class-0 leaflet-clickable" stroke-linejoin="round" stroke-linecap="round" fill-rule="evenodd" stroke="#005540" stroke-opacity="1" stroke-width="0.5" fill="#ddfff6" fill-opacity="0.5" d="M729 292L731 295L726 299L724 297L723 301L721 302L720 308L715 313L707 320L702 322L699 322L697 320L695 323L697 323L695 325L699 336L703 340L705 339L705 342L707 344L710 343L714 337L717 338L716 339L718 343L716 344L715 348L717 350L717 355L714 359L713 360L712 358L705 355L701 352L701 348L700 349L695 345L693 347L687 348L687 352L682 359L685 363L685 366L688 368L687 371L685 371L681 375L678 374L678 378L676 379L672 379L665 376L663 372L667 371L667 369L663 369L663 367L667 365L668 362L666 360L676 355L678 350L676 348L675 349L673 345L671 347L672 350L670 350L669 353L663 352L666 349L666 344L665 342L663 342L661 343L660 351L658 347L660 343L659 342L662 341L662 339L659 337L655 338L658 343L655 347L655 343L653 343L651 347L649 346L650 338L654 336L652 331L655 319L660 315L661 316L660 306L664 302L666 302L666 299L668 299L670 295L682 295L685 297L690 296L691 291L687 283L687 280L692 281L691 278L700 279L705 281L707 284L711 285L710 286L712 288L718 286L721 288L722 291L726 293L729 292z"/></g><g><path class="class-0 leaflet-clickable" stroke-linejoin="round" stroke-linecap="round" fill-rule="evenodd" stroke="#005540" stroke-opacity="1" stroke-width="0.5" fill="#ddfff6" fill-opacity="0.5" d="M663 238L671 241L673 249L671 252L672 261L668 268L672 272L669 272L668 275L674 281L673 282L680 287L682 287L687 279L691 294L690 296L687 297L683 297L682 295L672 295L660 306L661 315L659 315L659 317L656 319L653 326L652 331L654 336L650 337L650 344L645 347L641 342L639 342L639 340L637 340L635 343L633 341L632 339L636 337L633 333L634 332L626 332L624 328L621 329L619 327L617 322L618 321L615 316L613 317L612 308L614 309L612 307L611 302L606 297L603 297L603 299L599 299L595 289L585 280L583 271L585 269L584 268L589 265L588 264L591 267L595 267L600 263L598 264L598 258L601 257L600 254L605 246L607 236L608 237L610 234L612 237L613 236L616 239L617 238L623 243L631 243L632 245L638 243L643 247L651 235L655 237L660 237z"/></g><g><path class="class-0 leaflet-clickable" stroke-linejoin="round" stroke-linecap="round" fill-rule="evenodd" stroke="#005540" stroke-opacity="1" stroke-width="0.5" fill="#ddfff6" fill-opacity="0.5" d="M672 179L664 191L665 192L659 202L659 207L658 206L657 209L659 209L659 223L661 224L662 229L660 234L663 236L663 238L651 235L649 236L650 237L643 247L639 243L633 245L631 243L626 244L625 242L624 243L618 240L617 238L616 239L613 236L612 237L610 234L609 237L607 237L608 238L605 242L605 246L600 253L601 257L598 258L598 264L600 262L596 267L592 267L581 258L582 257L579 252L571 253L569 251L565 245L565 237L562 233L560 233L560 229L554 231L552 230L553 229L552 230L552 227L550 225L552 222L550 219L551 217L549 216L548 212L544 210L546 209L541 202L541 198L554 196L554 192L549 181L550 176L548 174L548 172L550 172L549 168L551 166L550 160L553 159L551 157L551 145L553 146L550 138L546 137L544 133L544 130L547 129L547 126L550 126L548 126L549 125L546 123L547 121L545 121L548 118L561 118L561 106L564 105L601 106L606 113L609 116L611 116L622 128L632 135L634 135L634 137L636 137L637 143L641 148L641 156L644 159L644 161L648 165L652 166L651 167L654 170L661 172L672 179z"/></g></svg>