<svg xmlns="http://www.w3.org/2000/svg" class="leaflet-zoom-animated" width="1984" height="599" viewBox="-2 -7 1984 599" style="transform: translate3d(-2px, -7px, 0px);"><g><path class="class-12 leaflet-clickable" stroke-linejoin="round" stroke-linecap="round" fill-rule="evenodd" stroke="#888" stroke-opacity="1" stroke-width="0.5" fill="#c0976b" fill-opacity="0.5" d="M944 355L943 356L945 358L940 359L936 364L932 364L926 361L923 362L921 360L926 352L926 348L932 347L934 345L938 347L937 348L940 348L940 352L944 355z"/></g><g><path class="class-02 leaflet-clickable" stroke-linejoin="round" stroke-linecap="round" fill-rule="evenodd" stroke="#888" stroke-opacity="1" stroke-width="0.5" fill="#e6a583" fill-opacity="0.5" d="M990 211L986 215L982 210L978 213L977 220L971 222L967 226L968 229L974 229L974 235L972 239L971 240L969 237L959 247L968 258L967 261L971 267L974 268L972 268L976 271L976 273L981 273L981 276L970 275L968 277L968 281L970 283L968 285L967 292L965 293L957 286L951 288L949 286L950 285L936 278L930 278L931 281L926 279L921 288L912 282L913 281L907 275L907 273L909 271L910 272L907 268L911 262L910 252L912 249L910 241L902 238L902 236L899 233L901 230L897 210L898 209L896 209L896 206L898 206L898 203L904 192L903 191L911 179L915 180L916 177L920 173L921 174L920 172L922 170L923 164L927 159L931 159L934 156L945 159L953 158L955 162L957 162L957 164L958 163L958 165L971 176L975 188L979 193L978 194L990 210z"/></g><g><path class="class-12 leaflet-clickable" stroke-linejoin="round" stroke-linecap="round" fill-rule="evenodd" stroke="#888" stroke-opacity="1" stroke-width="0.5" fill="#c0976b" fill-opacity="0.5" d="M1017 417L1016 414L1022 414L1025 412L1024 411L1030 411L1035 415L1035 417L1037 417L1040 420L1039 422L1036 421L1034 424L1031 423L1028 426L1021 420L1020 417L1018 418z"/></g><g><path class="class-02 leaflet-clickable" stroke-linejoin="round" stroke-linecap="round" fill-rule="evenodd" stroke="#888" stroke-opacity="1" stroke-width="0.5" fill="#e6a583" fill-opacity="0.5" d="M1010 427L1006 427L1001 423L1006 414L1010 421L1010 426z"/></g><g><path class="class-12 leaflet-clickable" stroke-linejoin="round" stroke-linecap="round" fill-rule="evenodd" stroke="#888" stroke-opacity="1" stroke-width="0.5" fill="#c0976b" fill-opacity="0.5" d="M1274 443L1275 440L1275 442z"/></g><g><path class="class-12 leaflet-clickable" stroke-linejoin="round" stroke-linecap="round" fill-rule="evenodd" stroke="#888" stroke-opacity="1" stroke-width="0.5" fill="#c0976b" fill-opacity="0.5" d="M1276 435L1276 437L1276 435z"/></g><g><path class="class-12 leaflet-clickable" stroke-linejoin="round" stroke-linecap="round" fill-rule="evenodd" stroke="#888" stroke-opacity="1" stroke-width="0.5" fill="#c0976b" fill-opacity="0.5" d="M1288 391L1282 398L1282 394L1284 391L1289 390z"/></g><g><path class="class-12 leaflet-clickable" stroke-linejoin="round" stroke-linecap="round" fill-rule="evenodd" stroke="#888" stroke-opacity="1" stroke-width="0.5" fill="#c0976b" fill-opacity="0.5" d="M1233 454L1232 450L1234 449L1234 425L1233 418L1230 415L1233 413L1234 414L1234 412L1236 412L1236 410L1241 407L1241 405L1244 404L1245 401L1248 401L1250 398L1256 397L1260 394L1267 386L1270 380L1270 368L1277 370L1280 369L1281 366L1286 373L1286 370L1287 371L1287 379L1284 385L1272 399L1272 409L1271 410L1272 406L1271 409L1265 412L1267 416L1272 413L1273 414L1272 418L1267 420L1267 424L1270 421L1272 421L1270 423L1262 449L1259 449L1259 443L1254 443L1254 441L1248 441L1246 447L1243 449L1240 455L1236 452L1234 454z"/></g><g><path class="class-12 leaflet-clickable" stroke-linejoin="round" stroke-linecap="round" fill-rule="evenodd" stroke="#888" stroke-opacity="1" stroke-width="0.5" fill="#c0976b" fill-opacity="0.5" d="M1280 365L1278 367L1273 368L1275 366L1279 366z"/></g><g><path class="class-02 leaflet-clickable" stroke-linejoin="round" stroke-linecap="round" fill-rule="evenodd" stroke="#888" stroke-opacity="1" stroke-width="0.5" fill="#e6a583" fill-opacity="0.5" d="M924 362L926 361L934 365L944 358L945 357L943 357L945 355L947 355L952 361L950 361L951 362L949 367L951 370L949 370L949 372L946 374L946 376L939 385L942 388L939 394L937 396L931 396L922 402L921 400L917 402L917 405L919 404L924 407L924 409L922 410L925 415L924 416L929 417L926 423L924 422L920 424L915 430L913 428L907 429L907 421L903 416L899 419L894 416L892 421L885 423L884 422L881 425L877 423L877 421L876 422L873 420L871 415L869 415L861 404L857 394L865 392L867 390L866 388L868 385L869 386L871 382L876 380L883 382L890 390L889 385L887 385L891 381L890 376L900 374L899 373L902 370L897 365L898 363L896 361L892 361L891 357L887 355L889 347L891 345L892 346L891 343L894 344L893 347L897 344L894 339L895 337L901 339L901 341L898 342L899 343L897 347L899 351L899 347L902 341L905 343L902 352L903 353L907 353L909 350L911 350L910 347L912 345L914 347L913 348L917 350L915 356L911 356L907 360L905 360L907 362L906 365L902 367L902 369L906 369L907 371L902 373L904 373L905 377L915 379L917 374L920 375L924 371L925 372L927 368L923 365L924 363z"/></g><g><path class="class-02 leaflet-clickable" stroke-linejoin="round" stroke-linecap="round" fill-rule="evenodd" stroke="#888" stroke-opacity="1" stroke-width="0.5" fill="#e6a583" fill-opacity="0.5" d="M632 197L631 197z"/></g><g><path class="class-02 leaflet-clickable" stroke-linejoin="round" stroke-linecap="round" fill-rule="evenodd" stroke="#888" stroke-opacity="1" stroke-width="0.5" fill="#e6a583" fill-opacity="0.5" d="M640 195L642 201L641 204L637 202L640 199L640 196z"/></g><g><path class="class-02 leaflet-clickable" stroke-linejoin="round" stroke-linecap="round" fill-rule="evenodd" stroke="#888" stroke-opacity="1" stroke-width="0.5" fill="#e6a583" fill-opacity="0.5" d="M693 187L696 189L695 190L694 188z"/></g><g><path class="class-02 leaflet-clickable" stroke-linejoin="round" stroke-linecap="round" fill-rule="evenodd" stroke="#888" stroke-opacity="1" stroke-width="0.5" fill="#e6a583" fill-opacity="0.5" d="M679 176L679 177z"/></g><g><path class="class-02 leaflet-clickable" stroke-linejoin="round" stroke-linecap="round" fill-rule="evenodd" stroke="#888" stroke-opacity="1" stroke-width="0.5" fill="#e6a583" fill-opacity="0.5" d="M679 165L682 167L682 170L684 172L687 171L687 179L677 168L678 165z"/></g><g><path class="class-02 leaflet-clickable" stroke-linejoin="round" stroke-linecap="round" fill-rule="evenodd" stroke="#888" stroke-opacity="1" stroke-width="0.5" fill="#e6a583" fill-opacity="0.5" d="M569 174L571 177L570 182L568 177L569 174z"/></g><g><path class="class-02 leaflet-clickable" stroke-linejoin="round" stroke-linecap="round" fill-rule="evenodd" stroke="#888" stroke-opacity="1" stroke-width="0.5" fill="#e6a583" fill-opacity="0.5" d="M658 153L658 154z"/></g><g><path class="class-02 leaflet-clickable" stroke-linejoin="round" stroke-linecap="round" fill-rule="evenodd" stroke="#888" stroke-opacity="1" stroke-width="0.5" fill="#e6a583" fill-opacity="0.5" d="M651 112L651 112z"/></g><g><path class="class-02 leaflet-clickable" stroke-linejoin="round" stroke-linecap="round" fill-rule="evenodd" stroke="#888" stroke-opacity="1" stroke-width="0.5" fill="#e6a583" fill-opacity="0.5" d="M651 105L653 107L652 108L650 108L650 105z"/></g><g><path class="class-02 leaflet-clickable" stroke-linejoin="round" stroke-linecap="round" fill-rule="evenodd" stroke="#888" stroke-opacity="1" stroke-width="0.5" fill="#e6a583" fill-opacity="0.5" d="M649 86L646 88L644 93L646 95L646 102L649 103L650 105L650 110L648 113L648 123L652 129L652 137L654 142L653 149L659 157L659 159L662 159L676 172L679 182L681 180L683 184L686 184L688 191L694 195L693 197L695 199L695 205L663 205L666 201L665 198L667 194L665 190L660 186L660 184L657 181L655 181L654 177L651 176L651 174L629 159L630 157L627 153L627 146L621 140L622 134L616 127L615 128L614 119L607 112L608 109L606 106L607 107L608 104L602 99L602 96L597 88L597 85L651 80L649 86z"/></g><g><path class="class-22 leaflet-clickable" stroke-linejoin="round" stroke-linecap="round" fill-rule="evenodd" stroke="#888" stroke-opacity="1" stroke-width="0.5" fill="#897c36" fill-opacity="0.5" d="M1061 443L1057 447L1052 449L1049 448L1044 452L1042 452L1040 446L1036 446L1036 453L1038 451L1039 452L1037 452L1034 455L1032 453L1028 453L1028 455L1023 456L1022 453L1018 454L1008 446L1008 444L1011 441L1016 442L1015 434L1018 428L1017 417L1019 417L1028 426L1031 423L1034 425L1036 422L1040 421L1037 417L1034 416L1035 415L1033 413L1031 413L1031 411L1026 412L1027 411L1025 408L1030 401L1028 398L1025 398L1028 397L1034 390L1035 384L1038 385L1038 389L1042 392L1037 395L1039 397L1038 400L1042 402L1045 398L1051 401L1045 416L1047 418L1046 419L1055 422L1053 424L1054 425L1050 424L1047 437L1048 436L1053 441L1057 439L1061 443z"/></g><g><path class="class-02 leaflet-clickable" stroke-linejoin="round" stroke-linecap="round" fill-rule="evenodd" stroke="#888" stroke-opacity="1" stroke-width="0.5" fill="#e6a583" fill-opacity="0.5" d="M651 444L651 444z"/></g><g><path class="class-02 leaflet-clickable" stroke-linejoin="round" stroke-linecap="round" fill-rule="evenodd" stroke="#888" stroke-opacity="1" stroke-width="0.5" fill="#e6a583" fill-opacity="0.5" d="M736 432L738 434L737 435L735 433L736 432z"/></g><g><path class="class-02 leaflet-clickable" stroke-linejoin="round" stroke-linecap="round" fill-rule="evenodd" stroke="#888" stroke-opacity="1" stroke-width="0.5" fill="#e6a583" fill-opacity="0.5" d="M907 429L901 436L887 426L880 424L881 425L884 422L885 423L893 421L892 420L894 416L899 419L903 416L907 420L907 429z"/></g><g><path class="class-02 leaflet-clickable" stroke-linejoin="round" stroke-linecap="round" fill-rule="evenodd" stroke="#888" stroke-opacity="1" stroke-width="0.5" fill="#e6a583" fill-opacity="0.5" d="M740 422L740 421z"/></g><g><path class="class-02 leaflet-clickable" stroke-linejoin="round" stroke-linecap="round" fill-rule="evenodd" stroke="#888" stroke-opacity="1" stroke-width="0.5" fill="#e6a583" fill-opacity="0.5" d="M1270 368L1270 380L1267 386L1256 398L1250 398L1244 404L1242 404L1241 407L1239 407L1240 408L1234 414L1233 413L1230 415L1227 413L1223 407L1223 404L1220 400L1218 400L1214 393L1211 394L1206 391L1205 384L1207 379L1217 374L1243 370L1247 367L1252 367L1255 365L1270 368z"/></g><g><path class="class-02 leaflet-clickable" stroke-linejoin="round" stroke-linecap="round" fill-rule="evenodd" stroke="#888" stroke-opacity="1" stroke-width="0.5" fill="#e6a583" fill-opacity="0.5" d="M1220 341L1224 344L1222 346L1219 343L1220 341z"/></g><g><path class="class-02 leaflet-clickable" stroke-linejoin="round" stroke-linecap="round" fill-rule="evenodd" stroke="#888" stroke-opacity="1" stroke-width="0.5" fill="#e6a583" fill-opacity="0.5" d="M992 368L991 371L992 373L994 373L990 376L986 375L987 376L985 382L976 382L973 385L975 393L979 398L977 402L978 405L965 406L962 402L960 402L960 404L956 404L954 402L954 400L956 399L953 398L953 396L951 396L948 399L942 399L942 397L939 394L942 391L939 384L942 382L946 374L949 373L948 370L950 370L949 367L951 363L950 362L952 360L958 360L960 362L962 361L970 367L976 367L977 363L979 363L989 369L991 368z"/></g><g><path class="class-02 leaflet-clickable" stroke-linejoin="round" stroke-linecap="round" fill-rule="evenodd" stroke="#888" stroke-opacity="1" stroke-width="0.5" fill="#e6a583" fill-opacity="0.5" d="M990 398L995 401L998 400L998 407L1001 409L1000 410L1004 407L1004 405L1009 405L1009 403L1010 409L1012 407L1015 407L1018 410L1016 414L1018 418L1018 428L1013 430L1010 427L1010 421L1008 419L1007 414L1001 421L1003 425L1002 430L999 431L1000 433L997 436L993 434L994 435L992 435L990 438L986 438L980 444L976 439L977 438L975 437L976 434L973 431L982 418L980 412L983 411L983 403L987 403L987 399L989 398z"/></g><g><path class="class-02 leaflet-clickable" stroke-linejoin="round" stroke-linecap="round" fill-rule="evenodd" stroke="#888" stroke-opacity="1" stroke-width="0.5" fill="#e6a583" fill-opacity="0.5" d="M776 248L780 248L785 244L786 241L790 239L794 229L800 230L799 233L801 233L804 236L804 245L810 253L819 253L821 256L820 258L826 262L826 264L828 264L825 267L823 267L824 270L822 271L824 275L824 280L826 280L829 286L834 289L837 295L836 296L839 299L842 299L842 297L848 299L850 305L853 308L851 308L852 316L855 317L857 321L856 322L858 324L858 328L864 329L861 333L861 340L862 339L863 342L862 343L858 341L857 344L839 325L838 321L832 315L827 307L809 294L793 274L780 269L777 265L773 265L771 257L776 248z"/></g><g><path class="class-12 leaflet-clickable" stroke-linejoin="round" stroke-linecap="round" fill-rule="evenodd" stroke="#888" stroke-opacity="1" stroke-width="0.5" fill="#c0976b" fill-opacity="0.5" d="M1032 392L1028 397L1025 398L1029 399L1029 401L1025 407L1027 410L1024 411L1025 412L1023 414L1017 414L1018 409L1015 407L1011 407L1010 409L1009 406L1011 404L1009 403L1009 405L1006 404L1004 408L1002 408L1001 410L1001 408L998 405L998 400L995 401L990 398L990 391L995 390L997 388L1001 379L1000 378L1008 376L1010 372L1011 375L1017 376L1017 372L1021 370L1020 373L1023 376L1026 375L1025 376L1027 376L1029 379L1026 383L1027 385L1022 384L1019 388L1021 387L1019 396L1024 395L1030 389L1032 391z"/></g><g><path class="class-02 leaflet-clickable" stroke-linejoin="round" stroke-linecap="round" fill-rule="evenodd" stroke="#888" stroke-opacity="1" stroke-width="0.5" fill="#e6a583" fill-opacity="0.5" d="M990 211L993 213L988 216L988 218L992 219L994 228L992 233L996 234L994 238L1000 241L999 247L1003 250L1005 249L1006 255L1009 253L1011 257L1013 255L1019 255L1019 269L1022 269L1012 279L1008 278L1005 281L1005 287L1002 286L998 288L997 291L993 292L993 294L995 294L996 296L994 303L999 309L996 312L990 312L987 317L988 322L985 321L983 323L985 323L984 325L981 325L982 323L980 323L979 325L978 324L979 327L976 326L976 313L974 310L975 304L972 302L973 297L968 292L968 285L970 283L968 282L968 277L970 275L981 276L981 274L977 273L972 268L974 268L969 265L966 254L959 247L969 237L971 240L972 239L974 235L974 229L968 229L967 226L971 222L977 220L978 213L982 210L986 214L988 213z"/></g><g><path class="class-02 leaflet-clickable" stroke-linejoin="round" stroke-linecap="round" fill-rule="evenodd" stroke="#888" stroke-opacity="1" stroke-width="0.5" fill="#e6a583" fill-opacity="0.5" d="M1010 427L1013 430L1017 428L1015 434L1016 441L1015 442L1013 440L1008 444L1002 441L998 436L1003 425L1010 427z"/></g><g><path class="class-02 leaflet-clickable" stroke-linejoin="round" stroke-linecap="round" fill-rule="evenodd" stroke="#888" stroke-opacity="1" stroke-width="0.5" fill="#e6a583" fill-opacity="0.5" d="M701 186L700 188L700 186z"/></g><g><path class="class-02 leaflet-clickable" stroke-linejoin="round" stroke-linecap="round" fill-rule="evenodd" stroke="#888" stroke-opacity="1" stroke-width="0.5" fill="#e6a583" fill-opacity="0.5" d="M707 173L709 179L706 186L701 182L702 175L706 173z"/></g><g><path class="class-02 leaflet-clickable" stroke-linejoin="round" stroke-linecap="round" fill-rule="evenodd" stroke="#888" stroke-opacity="1" stroke-width="0.5" fill="#e6a583" fill-opacity="0.5" d="M652 106L654 106L653 107z"/></g><g><path class="class-02 leaflet-clickable" stroke-linejoin="round" stroke-linecap="round" fill-rule="evenodd" stroke="#888" stroke-opacity="1" stroke-width="0.5" fill="#e6a583" fill-opacity="0.5" d="M649 86L729 115L734 118L787 118L786 120L784 120L785 123L788 125L787 126L789 126L786 126L786 129L783 129L783 132L785 135L784 136L791 141L790 144L792 145L790 145L790 158L792 158L792 160L789 160L790 166L788 168L788 182L791 186L793 196L781 198L780 202L784 209L783 210L787 213L789 217L791 222L789 224L792 231L795 231L789 239L789 241L787 241L784 244L784 246L776 248L776 244L774 241L769 238L764 238L760 229L752 227L748 223L745 223L746 209L744 207L743 208L739 206L739 208L737 208L737 206L731 204L725 195L721 193L715 186L716 184L709 180L709 173L707 170L706 171L704 169L705 167L701 162L699 156L696 155L696 148L688 134L689 122L683 119L676 118L676 114L671 110L663 113L654 106L647 103L645 96L646 95L644 93L646 91L646 87L649 87zM740 205L740 206z"/></g><g><path class="class-02 leaflet-clickable" stroke-linejoin="round" stroke-linecap="round" fill-rule="evenodd" stroke="#888" stroke-opacity="1" stroke-width="0.5" fill="#e6a583" fill-opacity="0.5" d="M763 302L761 302L761 297L763 301z"/></g><g><path class="class-02 leaflet-clickable" stroke-linejoin="round" stroke-linecap="round" fill-rule="evenodd" stroke="#888" stroke-opacity="1" stroke-width="0.5" fill="#e6a583" fill-opacity="0.5" d="M751 293L751 296L750 293z"/></g><g><path class="class-02 leaflet-clickable" stroke-linejoin="round" stroke-linecap="round" fill-rule="evenodd" stroke="#888" stroke-opacity="1" stroke-width="0.5" fill="#e6a583" fill-opacity="0.5" d="M750 291L750 292z"/></g><g><path class="class-02 leaflet-clickable" stroke-linejoin="round" stroke-linecap="round" fill-rule="evenodd" stroke="#888" stroke-opacity="1" stroke-width="0.5" fill="#e6a583" fill-opacity="0.5" d="M743 279L746 281L747 284L743 280z"/></g><g><path class="class-02 leaflet-clickable" stroke-linejoin="round" stroke-linecap="round" fill-rule="evenodd" stroke="#888" stroke-opacity="1" stroke-width="0.5" fill="#e6a583" fill-opacity="0.5" d="M743 273L742 275L743 273z"/></g><g><path class="class-02 leaflet-clickable" stroke-linejoin="round" stroke-linecap="round" fill-rule="evenodd" stroke="#888" stroke-opacity="1" stroke-width="0.5" fill="#e6a583" fill-opacity="0.5" d="M741 263L742 266L741 264z"/></g><g><path class="class-02 leaflet-clickable" stroke-linejoin="round" stroke-linecap="round" fill-rule="evenodd" stroke="#888" stroke-opacity="1" stroke-width="0.5" fill="#e6a583" fill-opacity="0.5" d="M735 263L735 265L735 263z"/></g><g><path class="class-02 leaflet-clickable" stroke-linejoin="round" stroke-linecap="round" fill-rule="evenodd" stroke="#888" stroke-opacity="1" stroke-width="0.5" fill="#e6a583" fill-opacity="0.5" d="M735 254L735 256L733 256L731 260L732 261L731 258L732 255L734 255z"/></g><g><path class="class-02 leaflet-clickable" stroke-linejoin="round" stroke-linecap="round" fill-rule="evenodd" stroke="#888" stroke-opacity="1" stroke-width="0.5" fill="#e6a583" fill-opacity="0.5" d="M730 252L730 252z"/></g><g><path class="class-02 leaflet-clickable" stroke-linejoin="round" stroke-linecap="round" fill-rule="evenodd" stroke="#888" stroke-opacity="1" stroke-width="0.5" fill="#e6a583" fill-opacity="0.5" d="M712 224L712 226L711 224z"/></g><g><path class="class-02 leaflet-clickable" stroke-linejoin="round" stroke-linecap="round" fill-rule="evenodd" stroke="#888" stroke-opacity="1" stroke-width="0.5" fill="#e6a583" fill-opacity="0.5" d="M715 219L714 219z"/></g><g><path class="class-02 leaflet-clickable" stroke-linejoin="round" stroke-linecap="round" fill-rule="evenodd" stroke="#888" stroke-opacity="1" stroke-width="0.5" fill="#e6a583" fill-opacity="0.5" d="M641 208L641 208z"/></g><g><path class="class-02 leaflet-clickable" stroke-linejoin="round" stroke-linecap="round" fill-rule="evenodd" stroke="#888" stroke-opacity="1" stroke-width="0.5" fill="#e6a583" fill-opacity="0.5" d="M663 205L696 205L698 212L706 218L709 224L708 225L715 229L713 230L713 232L715 234L717 233L720 235L723 241L726 243L725 244L729 254L729 262L734 268L736 268L737 274L744 285L742 293L745 300L751 302L751 298L754 298L759 302L759 305L763 306L763 308L766 311L766 314L771 317L772 324L768 329L759 334L756 330L754 320L750 316L746 314L734 302L724 297L719 298L709 290L709 287L706 286L711 274L711 261L705 250L698 248L683 236L681 235L678 238L671 231L667 231L664 227L660 227L657 224L656 220L643 209L644 208L656 211L662 208L663 206z"/></g><g><path class="class-22 leaflet-clickable" stroke-linejoin="round" stroke-linecap="round" fill-rule="evenodd" stroke="#888" stroke-opacity="1" stroke-width="0.5" fill="#897c36" fill-opacity="0.5" d="M968 292L970 295L965 299L963 297L962 301L960 302L959 308L954 313L946 320L941 322L938 322L936 320L934 323L936 323L934 325L938 336L942 340L944 339L944 342L946 344L949 343L953 337L956 338L955 339L957 343L955 344L954 348L956 350L956 355L953 359L952 360L951 358L944 355L940 352L940 348L939 349L934 345L932 347L926 348L926 352L921 359L924 363L924 366L927 368L926 371L924 371L920 375L917 374L917 378L915 379L911 379L904 376L902 372L906 371L906 369L902 369L902 367L906 365L907 362L905 360L915 355L917 350L915 348L914 349L912 345L910 347L911 350L909 350L908 353L902 352L905 349L905 344L904 342L902 342L900 343L899 351L897 347L899 343L898 342L901 341L901 339L898 337L894 338L897 343L894 347L894 343L892 343L890 347L888 346L889 338L893 336L891 331L894 319L899 315L900 316L899 306L903 302L905 302L905 299L907 299L909 295L921 295L924 297L929 296L930 291L926 283L926 280L931 281L930 278L939 279L944 281L946 284L950 285L949 286L951 288L957 286L960 288L961 291L965 293L968 292z"/></g><g><path class="class-12 leaflet-clickable" stroke-linejoin="round" stroke-linecap="round" fill-rule="evenodd" stroke="#888" stroke-opacity="1" stroke-width="0.5" fill="#c0976b" fill-opacity="0.5" d="M978 397L982 399L981 401L984 404L983 405L985 408L983 408L981 412L982 419L979 420L977 426L971 433L968 432L969 439L972 441L972 444L968 441L965 442L963 440L957 439L953 441L947 438L944 439L943 441L944 446L937 449L937 455L907 445L901 436L907 429L912 428L915 430L918 427L918 425L919 426L919 424L924 422L925 423L927 421L928 417L924 417L925 415L922 410L924 408L923 406L917 405L917 402L920 401L919 400L924 401L930 396L937 395L941 395L940 396L942 396L944 400L948 400L949 397L953 396L953 398L956 399L954 399L954 402L956 404L960 404L960 402L962 402L965 406L975 406L978 405L977 402L979 398z"/></g><g><path class="class-12 leaflet-clickable" stroke-linejoin="round" stroke-linecap="round" fill-rule="evenodd" stroke="#888" stroke-opacity="1" stroke-width="0.5" fill="#c0976b" fill-opacity="0.5" d="M1192 457L1192 470L1181 470L1182 467L1176 465L1177 462L1173 459L1173 455L1169 455L1162 460L1161 459L1161 461L1159 463L1155 463L1155 465L1152 468L1150 466L1149 467L1150 466L1148 464L1146 464L1144 459L1145 456L1143 456L1144 455L1141 453L1138 454L1138 460L1134 464L1132 469L1130 467L1132 463L1130 463L1126 458L1121 456L1122 452L1120 448L1136 442L1149 442L1152 440L1152 438L1157 437L1160 442L1164 442L1165 449L1169 452L1177 456L1177 450L1180 448L1180 450L1186 453L1192 453L1192 455z"/></g><g><path class="class-12 leaflet-clickable" stroke-linejoin="round" stroke-linecap="round" fill-rule="evenodd" stroke="#888" stroke-opacity="1" stroke-width="0.5" fill="#c0976b" fill-opacity="0.5" d="M1205 384L1205 391L1209 391L1210 394L1213 393L1218 397L1217 398L1223 404L1226 412L1233 418L1233 457L1192 457L1192 453L1182 451L1179 449L1180 448L1177 451L1177 455L1165 449L1165 444L1161 442L1158 438L1161 436L1169 436L1172 438L1189 428L1198 420L1198 412L1204 405L1203 391L1205 384z"/></g><g><path class="class-02 leaflet-clickable" stroke-linejoin="round" stroke-linecap="round" fill-rule="evenodd" stroke="#888" stroke-opacity="1" stroke-width="0.5" fill="#e6a583" fill-opacity="0.5" d="M1008 373L1007 376L1003 378L1002 376L997 386L998 388L990 391L990 398L988 397L988 402L984 404L981 401L981 398L979 398L975 394L973 385L976 382L984 382L985 379L986 380L986 375L992 375L994 373L991 372L993 366L1000 370L1005 364L1007 373z"/></g><g><path class="class-12 leaflet-clickable" stroke-linejoin="round" stroke-linecap="round" fill-rule="evenodd" stroke="#888" stroke-opacity="1" stroke-width="0.5" fill="#c0976b" fill-opacity="0.5" d="M1037 349L1039 357L1047 366L1045 372L1046 378L1053 392L1060 398L1067 407L1070 419L1075 424L1075 426L1078 427L1080 432L1085 435L1094 435L1104 440L1111 449L1120 447L1121 456L1129 460L1131 463L1131 470L1129 470L1126 473L1102 472L1103 470L1098 467L1094 462L1096 460L1095 459L1093 459L1087 464L1084 464L1080 459L1082 454L1081 449L1073 449L1074 448L1073 449L1071 447L1066 438L1062 437L1061 444L1059 440L1055 439L1053 441L1050 437L1047 436L1049 431L1048 428L1055 422L1046 419L1047 418L1045 416L1045 414L1048 411L1048 407L1052 401L1045 398L1042 402L1038 400L1039 397L1037 395L1038 393L1039 394L1042 392L1039 391L1037 384L1035 384L1034 390L1032 391L1030 388L1029 391L1024 395L1019 396L1020 395L1018 392L1021 390L1022 387L1020 388L1024 383L1024 385L1026 385L1027 380L1029 378L1025 376L1026 375L1023 376L1020 373L1021 370L1020 371L1017 365L1022 361L1019 356L1021 357L1022 353L1025 350L1017 346L1023 346L1026 344L1032 347L1035 351L1036 349z"/></g><g><path class="class-21 leaflet-clickable" stroke-linejoin="round" stroke-linecap="round" fill-rule="evenodd" stroke="#888" stroke-opacity="1" stroke-width="0.5" fill="#95a865" fill-opacity="0.5" d="M845 371L844 371z"/></g><g><path class="class-21 leaflet-clickable" stroke-linejoin="round" stroke-linecap="round" fill-rule="evenodd" stroke="#888" stroke-opacity="1" stroke-width="0.5" fill="#95a865" fill-opacity="0.5" d="M840 368L842 369L841 370L839 368z"/></g><g><path class="class-21 leaflet-clickable" stroke-linejoin="round" stroke-linecap="round" fill-rule="evenodd" stroke="#888" stroke-opacity="1" stroke-width="0.5" fill="#95a865" fill-opacity="0.5" d="M835 363L837 363L838 366L836 366L835 364z"/></g><g><path class="class-21 leaflet-clickable" stroke-linejoin="round" stroke-linecap="round" fill-rule="evenodd" stroke="#888" stroke-opacity="1" stroke-width="0.5" fill="#95a865" fill-opacity="0.5" d="M835 361L834 362z"/></g><g><path class="class-21 leaflet-clickable" stroke-linejoin="round" stroke-linecap="round" fill-rule="evenodd" stroke="#888" stroke-opacity="1" stroke-width="0.5" fill="#95a865" fill-opacity="0.5" d="M887 346L889 347L887 356L891 356L892 360L896 361L898 363L897 366L902 370L899 373L900 374L890 376L891 381L887 385L890 387L890 389L879 380L870 382L867 388L865 386L860 386L868 376L868 367L867 368L862 364L858 356L858 349L855 343L856 342L856 344L858 341L863 343L861 339L861 333L864 329L865 332L873 332L872 333L875 337L871 339L873 343L877 340L882 344L883 347L887 345z"/></g><g><path class="class-01 leaflet-clickable" stroke-linejoin="round" stroke-linecap="round" fill-rule="evenodd" stroke="#888" stroke-opacity="1" stroke-width="0.5" fill="#f1d2b2" fill-opacity="0.5" d="M1037 349L1035 351L1027 344L1025 344L1024 346L1017 345L1015 347L1008 345L1006 346L998 337L997 341L994 339L990 339L989 337L984 337L986 335L984 332L986 330L984 328L985 323L983 323L985 321L988 322L987 317L990 312L996 312L998 309L998 307L994 303L996 296L993 294L993 292L997 291L998 288L1002 286L1004 287L1006 283L1005 281L1008 278L1011 279L1022 270L1019 269L1019 255L1013 255L1011 257L1009 253L1006 255L1005 249L1003 250L999 247L1000 241L994 239L996 234L992 233L994 229L992 219L988 218L988 216L993 213L997 216L999 230L1003 234L1007 246L1009 245L1011 247L1016 248L1016 250L1022 250L1027 255L1040 255L1045 260L1047 259L1046 258L1051 257L1051 263L1044 276L1039 294L1037 336L1035 339L1036 348z"/></g><g><path class="class-11 leaflet-clickable" stroke-linejoin="round" stroke-linecap="round" fill-rule="evenodd" stroke="#888" stroke-opacity="1" stroke-width="0.5" fill="#cbc39a" fill-opacity="0.5" d="M911 179L903 191L904 192L898 202L898 207L897 206L896 209L898 209L898 223L900 224L901 229L899 234L902 236L902 238L890 235L888 236L889 237L882 247L878 243L872 245L870 243L865 244L864 242L863 243L857 240L856 238L855 239L852 236L851 237L849 234L848 237L846 237L847 238L844 242L844 246L839 253L840 257L837 258L837 264L839 262L835 267L831 267L820 258L821 257L818 252L810 253L808 251L804 245L804 237L801 233L799 233L799 229L793 231L791 230L792 229L791 230L791 227L789 225L791 222L789 219L790 217L788 216L787 212L783 210L785 209L780 202L780 198L793 196L793 192L788 181L789 176L787 174L787 172L789 172L788 168L790 166L789 160L792 159L790 157L790 145L792 146L789 138L785 137L783 133L783 130L786 129L786 126L789 126L787 126L788 125L785 123L786 121L784 121L787 118L800 118L800 106L803 105L840 106L845 113L848 116L850 116L861 128L871 135L873 135L873 137L875 137L876 143L880 148L880 156L883 159L883 161L887 165L891 166L890 167L893 170L900 172L911 179z"/></g><g><path class="class-11 leaflet-clickable" stroke-linejoin="round" stroke-linecap="round" fill-rule="evenodd" stroke="#888" stroke-opacity="1" stroke-width="0.5" fill="#cbc39a" fill-opacity="0.5" d="M902 238L910 241L912 249L910 252L911 261L907 268L911 272L908 272L907 275L913 281L912 282L919 287L921 287L926 279L930 294L929 296L926 297L922 297L921 295L911 295L899 306L900 315L898 315L898 317L895 319L892 326L891 331L893 336L889 337L889 344L884 347L880 342L878 342L878 340L876 340L874 343L872 341L871 339L875 337L872 333L873 332L865 332L863 328L860 329L858 327L856 322L857 321L854 316L852 317L851 308L853 309L851 307L850 302L845 297L842 297L842 299L838 299L834 289L824 280L822 271L824 269L823 268L828 265L827 264L830 267L834 267L839 263L837 264L837 258L840 257L839 254L844 246L846 236L847 237L849 234L851 237L852 236L855 239L856 238L862 243L870 243L871 245L877 243L882 247L890 235L894 237L899 237z"/></g><g><path class="class-11 leaflet-clickable" stroke-linejoin="round" stroke-linecap="round" fill-rule="evenodd" stroke="#888" stroke-opacity="1" stroke-width="0.5" fill="#cbc39a" fill-opacity="0.5" d="M984 325L986 329L984 331L986 335L984 337L989 337L997 341L998 337L1006 346L1019 346L1025 350L1019 357L1021 357L1021 361L1017 365L1020 368L1020 370L1016 372L1018 372L1017 376L1013 376L1010 372L1007 373L1005 364L1000 370L998 370L994 366L992 366L992 368L989 369L980 363L978 363L976 367L972 368L968 366L965 362L952 360L956 355L956 351L954 348L957 344L955 339L956 338L953 337L951 341L950 340L949 343L946 344L944 342L944 339L942 340L937 335L935 330L936 328L934 325L936 323L934 323L936 320L938 322L946 320L959 308L959 302L962 301L963 296L965 299L970 295L973 296L972 301L975 303L975 326L978 327L978 324L979 325L980 323L982 323L981 325L983 325z"/></g><g><path class="class-20 leaflet-clickable" stroke-linejoin="round" stroke-linecap="round" fill-rule="evenodd" stroke="#888" stroke-opacity="1" stroke-width="0.5" fill="#95c497" fill-opacity="0.5" d="M1181 470L1184 473L1185 472L1185 474L1189 476L1188 477L1193 481L1198 483L1199 488L1205 491L1204 498L1175 498L1164 518L1167 522L1164 527L1165 531L1163 535L1135 507L1127 501L1122 500L1120 496L1122 495L1122 492L1120 489L1126 473L1134 466L1134 464L1138 460L1137 458L1140 453L1143 455L1143 457L1145 457L1144 459L1147 465L1148 464L1150 466L1149 467L1150 466L1152 468L1156 463L1161 462L1160 461L1166 458L1166 456L1169 454L1172 455L1172 459L1176 460L1176 466L1181 467L1182 470z"/></g><g><path class="class-20 leaflet-clickable" stroke-linejoin="round" stroke-linecap="round" fill-rule="evenodd" stroke="#888" stroke-opacity="1" stroke-width="0.5" fill="#95c497" fill-opacity="0.5" d="M998 435L1002 441L1006 441L1008 446L1013 450L1012 451L1015 452L1013 452L1016 454L1022 454L1021 460L1025 464L1025 471L1026 470L1027 473L1031 475L1030 480L1027 484L1028 485L1024 487L1023 491L1019 493L1014 487L1012 488L1002 484L994 484L986 478L962 470L963 469L958 465L954 464L945 455L937 452L938 448L944 445L944 439L946 438L950 438L950 440L952 441L968 441L970 443L971 442L971 444L972 441L970 441L969 439L968 432L971 433L973 431L976 434L975 437L980 444L986 438L990 438L994 434L997 436z"/></g><g><path class="class-20 leaflet-clickable" stroke-linejoin="round" stroke-linecap="round" fill-rule="evenodd" stroke="#888" stroke-opacity="1" stroke-width="0.5" fill="#95c497" fill-opacity="0.5" d="M1126 473L1120 489L1122 492L1121 496L1123 500L1117 497L1107 495L1095 496L1090 501L1086 501L1076 506L1075 505L1072 508L1063 508L1054 505L1051 502L1037 501L1027 494L1020 493L1024 490L1023 487L1028 485L1027 484L1030 481L1030 477L1032 475L1027 474L1026 470L1025 471L1025 464L1021 460L1022 456L1026 454L1027 455L1029 453L1033 453L1036 455L1038 452L1037 451L1036 453L1035 448L1040 445L1042 452L1049 448L1054 449L1061 443L1062 437L1068 440L1073 449L1081 449L1082 454L1080 459L1084 463L1087 464L1093 459L1095 459L1096 460L1094 462L1098 467L1103 470L1102 471L1121 473z"/></g></svg>