<svg xmlns="http://www.w3.org/2000/svg" class="leaflet-zoom-animated" width="2000" height="612" viewBox="-61 -19 2000 612" style="transform: translate3d(-61px, -19px, 0px);"><g><path class="class-3 leaflet-clickable" stroke-linejoin="round" stroke-linecap="round" fill-rule="evenodd" stroke="#005540" stroke-opacity="1" stroke-width="0.5" fill="#086" fill-opacity="0.5" d="M985 435L989 441L993 441L995 446L1000 450L999 451L1002 452L1000 452L1003 454L1009 454L1008 460L1012 464L1012 471L1013 470L1014 473L1018 475L1017 480L1014 484L1015 485L1011 487L1010 491L1006 493L1001 487L999 488L989 484L981 484L973 478L949 470L950 469L945 465L941 464L932 455L924 452L925 448L931 445L931 439L933 438L937 438L937 440L939 441L955 441L957 443L958 442L958 444L959 441L957 441L956 439L955 432L958 433L960 431L963 434L962 437L967 444L973 438L977 438L981 434L984 436z"/></g><g><path class="class-3 leaflet-clickable" stroke-linejoin="round" stroke-linecap="round" fill-rule="evenodd" stroke="#005540" stroke-opacity="1" stroke-width="0.5" fill="#086" fill-opacity="0.5" d="M1113 473L1107 489L1109 492L1108 496L1110 500L1104 497L1094 495L1082 496L1077 501L1073 501L1063 506L1062 505L1059 508L1050 508L1041 505L1038 502L1024 501L1014 494L1007 493L1011 490L1010 487L1015 485L1014 484L1017 481L1017 477L1019 475L1014 474L1013 470L1012 471L1012 464L1008 460L1009 456L1013 454L1014 455L1016 453L1020 453L1023 455L1025 452L1024 451L1023 453L1022 448L1027 445L1029 452L1036 448L1041 449L1048 443L1049 437L1055 440L1060 449L1068 449L1069 454L1067 459L1071 463L1074 464L1080 459L1082 459L1083 460L1081 462L1085 467L1090 470L1089 471L1108 473z"/></g><g><path class="class-3 leaflet-clickable" stroke-linejoin="round" stroke-linecap="round" fill-rule="evenodd" stroke="#005540" stroke-opacity="1" stroke-width="0.5" fill="#086" fill-opacity="0.5" d="M1168 470L1171 473L1172 472L1172 474L1176 476L1175 477L1180 481L1185 483L1186 488L1192 491L1191 498L1162 498L1151 518L1154 522L1151 527L1152 531L1150 535L1122 507L1114 501L1109 500L1107 496L1109 495L1109 492L1107 489L1113 473L1121 466L1121 464L1125 460L1124 458L1127 453L1130 455L1130 457L1132 457L1131 459L1134 465L1135 464L1137 466L1136 467L1137 466L1139 468L1143 463L1148 462L1147 461L1153 458L1153 456L1156 454L1159 455L1159 459L1163 460L1163 466L1168 467L1169 470z"/></g><g><path class="class-3 leaflet-clickable" stroke-linejoin="round" stroke-linecap="round" fill-rule="evenodd" stroke="#005540" stroke-opacity="1" stroke-width="0.5" fill="#086" fill-opacity="0.5" d="M1048 443L1044 447L1039 449L1036 448L1031 452L1029 452L1027 446L1023 446L1023 453L1025 451L1026 452L1024 452L1021 455L1019 453L1015 453L1015 455L1010 456L1009 453L1005 454L995 446L995 444L998 441L1003 442L1002 434L1005 428L1004 417L1006 417L1015 426L1018 423L1021 425L1023 422L1027 421L1024 417L1021 416L1022 415L1020 413L1018 413L1018 411L1013 412L1014 411L1012 408L1017 401L1015 398L1012 398L1015 397L1021 390L1022 384L1025 385L1025 389L1029 392L1024 395L1026 397L1025 400L1029 402L1032 398L1038 401L1032 416L1034 418L1033 419L1042 422L1040 424L1041 425L1037 424L1034 437L1035 436L1040 441L1044 439L1048 443z"/></g><g><path class="class-3 leaflet-clickable" stroke-linejoin="round" stroke-linecap="round" fill-rule="evenodd" stroke="#005540" stroke-opacity="1" stroke-width="0.5" fill="#086" fill-opacity="0.5" d="M1024 349L1026 357L1034 366L1032 372L1033 378L1040 392L1047 398L1054 407L1057 419L1062 424L1062 426L1065 427L1067 432L1072 435L1081 435L1091 440L1098 449L1107 447L1108 456L1116 460L1118 463L1118 470L1116 470L1113 473L1089 472L1090 470L1085 467L1081 462L1083 460L1082 459L1080 459L1074 464L1071 464L1067 459L1069 454L1068 449L1060 449L1061 448L1060 449L1058 447L1053 438L1049 437L1048 444L1046 440L1042 439L1040 441L1037 437L1034 436L1036 431L1035 428L1042 422L1033 419L1034 418L1032 416L1032 414L1035 411L1035 407L1039 401L1032 398L1029 402L1025 400L1026 397L1024 395L1025 393L1026 394L1029 392L1026 391L1024 384L1022 384L1021 390L1019 391L1017 388L1016 391L1011 395L1006 396L1007 395L1005 392L1008 390L1009 387L1007 388L1011 383L1011 385L1013 385L1014 380L1016 378L1012 376L1013 375L1010 376L1007 373L1008 370L1007 371L1004 365L1009 361L1006 356L1008 357L1009 353L1012 350L1004 346L1010 346L1013 344L1019 347L1022 351L1023 349z"/></g><g><path class="class-2 leaflet-clickable" stroke-linejoin="round" stroke-linecap="round" fill-rule="evenodd" stroke="#005540" stroke-opacity="1" stroke-width="0.5" fill="#00cc99" fill-opacity="0.5" d="M1019 392L1015 397L1012 398L1016 399L1016 401L1012 407L1014 410L1011 411L1012 412L1010 414L1004 414L1005 409L1002 407L998 407L997 409L996 406L998 404L996 403L996 405L993 404L991 408L989 408L988 410L988 408L985 405L985 400L982 401L977 398L977 391L982 390L984 388L988 379L987 378L995 376L997 372L998 375L1004 376L1004 372L1008 370L1007 373L1010 376L1013 375L1012 376L1014 376L1016 379L1013 383L1014 385L1009 384L1006 388L1008 387L1006 396L1011 395L1017 389L1019 391z"/></g><g><path class="class-2 leaflet-clickable" stroke-linejoin="round" stroke-linecap="round" fill-rule="evenodd" stroke="#005540" stroke-opacity="1" stroke-width="0.5" fill="#00cc99" fill-opacity="0.5" d="M1192 384L1192 391L1196 391L1197 394L1200 393L1205 397L1204 398L1210 404L1213 412L1220 418L1220 457L1179 457L1179 453L1169 451L1166 449L1167 448L1164 451L1164 455L1152 449L1152 444L1148 442L1145 438L1148 436L1156 436L1159 438L1176 428L1185 420L1185 412L1191 405L1190 391L1192 384z"/></g><g><path class="class-2 leaflet-clickable" stroke-linejoin="round" stroke-linecap="round" fill-rule="evenodd" stroke="#005540" stroke-opacity="1" stroke-width="0.5" fill="#00cc99" fill-opacity="0.5" d="M1179 457L1179 470L1168 470L1169 467L1163 465L1164 462L1160 459L1160 455L1156 455L1149 460L1148 459L1148 461L1146 463L1142 463L1142 465L1139 468L1137 466L1136 467L1137 466L1135 464L1133 464L1131 459L1132 456L1130 456L1131 455L1128 453L1125 454L1125 460L1121 464L1119 469L1117 467L1119 463L1117 463L1113 458L1108 456L1109 452L1107 448L1123 442L1136 442L1139 440L1139 438L1144 437L1147 442L1151 442L1152 449L1156 452L1164 456L1164 450L1167 448L1167 450L1173 453L1179 453L1179 455z"/></g><g><path class="class-2 leaflet-clickable" stroke-linejoin="round" stroke-linecap="round" fill-rule="evenodd" stroke="#005540" stroke-opacity="1" stroke-width="0.5" fill="#00cc99" fill-opacity="0.5" d="M1004 417L1003 414L1009 414L1012 412L1011 411L1017 411L1022 415L1022 417L1024 417L1027 420L1026 422L1023 421L1021 424L1018 423L1015 426L1008 420L1007 417L1005 418z"/></g><g><path class="class-2 leaflet-clickable" stroke-linejoin="round" stroke-linecap="round" fill-rule="evenodd" stroke="#005540" stroke-opacity="1" stroke-width="0.5" fill="#00cc99" fill-opacity="0.5" d="M1024 349L1022 351L1014 344L1012 344L1011 346L1004 345L1002 347L995 345L993 346L985 337L984 341L981 339L977 339L976 337L971 337L973 335L971 332L973 330L971 328L972 323L970 323L972 321L975 322L974 317L977 312L983 312L985 309L985 307L981 303L983 296L980 294L980 292L984 291L985 288L989 286L991 287L993 283L992 281L995 278L998 279L1009 270L1006 269L1006 255L1000 255L998 257L996 253L993 255L992 249L990 250L986 247L987 241L981 239L983 234L979 233L981 229L979 219L975 218L975 216L980 213L984 216L986 230L990 234L994 246L996 245L998 247L1003 248L1003 250L1009 250L1014 255L1027 255L1032 260L1034 259L1033 258L1038 257L1038 263L1031 276L1026 294L1024 336L1022 339L1023 348z"/></g><g><path class="class-1 leaflet-clickable" stroke-linejoin="round" stroke-linecap="round" fill-rule="evenodd" stroke="#005540" stroke-opacity="1" stroke-width="0.5" fill="#7fd" fill-opacity="0.5" d="M997 427L1000 430L1004 428L1002 434L1003 441L1002 442L1000 440L995 444L989 441L985 436L990 425L997 427z"/></g><g><path class="class-1 leaflet-clickable" stroke-linejoin="round" stroke-linecap="round" fill-rule="evenodd" stroke="#005540" stroke-opacity="1" stroke-width="0.5" fill="#7fd" fill-opacity="0.5" d="M965 397L969 399L968 401L971 404L970 405L972 408L970 408L968 412L969 419L966 420L964 426L958 433L955 432L956 439L959 441L959 444L955 441L952 442L950 440L944 439L940 441L934 438L931 439L930 441L931 446L924 449L924 455L894 445L888 436L894 429L899 428L902 430L905 427L905 425L906 426L906 424L911 422L912 423L914 421L915 417L911 417L912 415L909 410L911 408L910 406L904 405L904 402L907 401L906 400L911 401L917 396L924 395L928 395L927 396L929 396L931 400L935 400L936 397L940 396L940 398L943 399L941 399L941 402L943 404L947 404L947 402L949 402L952 406L962 406L965 405L964 402L966 398z"/></g><g><path class="class-1 leaflet-clickable" stroke-linejoin="round" stroke-linecap="round" fill-rule="evenodd" stroke="#005540" stroke-opacity="1" stroke-width="0.5" fill="#7fd" fill-opacity="0.5" d="M995 373L994 376L990 378L989 376L984 386L985 388L977 391L977 398L975 397L975 402L971 404L968 401L968 398L966 398L962 394L960 385L963 382L971 382L972 379L973 380L973 375L979 375L981 373L978 372L980 366L987 370L992 364L994 373z"/></g><g><path class="class-1 leaflet-clickable" stroke-linejoin="round" stroke-linecap="round" fill-rule="evenodd" stroke="#005540" stroke-opacity="1" stroke-width="0.5" fill="#7fd" fill-opacity="0.5" d="M1261 443L1262 440L1262 442z"/></g><g><path class="class-1 leaflet-clickable" stroke-linejoin="round" stroke-linecap="round" fill-rule="evenodd" stroke="#005540" stroke-opacity="1" stroke-width="0.5" fill="#7fd" fill-opacity="0.5" d="M1263 435L1263 437L1263 435z"/></g><g><path class="class-1 leaflet-clickable" stroke-linejoin="round" stroke-linecap="round" fill-rule="evenodd" stroke="#005540" stroke-opacity="1" stroke-width="0.5" fill="#7fd" fill-opacity="0.5" d="M1275 391L1269 398L1269 394L1271 391L1276 390z"/></g><g><path class="class-1 leaflet-clickable" stroke-linejoin="round" stroke-linecap="round" fill-rule="evenodd" stroke="#005540" stroke-opacity="1" stroke-width="0.5" fill="#7fd" fill-opacity="0.5" d="M1220 454L1219 450L1221 449L1221 425L1220 418L1217 415L1220 413L1221 414L1221 412L1223 412L1223 410L1228 407L1228 405L1231 404L1232 401L1235 401L1237 398L1243 397L1247 394L1254 386L1257 380L1257 368L1264 370L1267 369L1268 366L1273 373L1273 370L1274 371L1274 379L1271 385L1259 399L1259 409L1258 410L1259 406L1258 409L1252 412L1254 416L1259 413L1260 414L1259 418L1254 420L1254 424L1257 421L1259 421L1257 423L1249 449L1246 449L1246 443L1241 443L1241 441L1235 441L1233 447L1230 449L1227 455L1223 452L1221 454z"/></g><g><path class="class-1 leaflet-clickable" stroke-linejoin="round" stroke-linecap="round" fill-rule="evenodd" stroke="#005540" stroke-opacity="1" stroke-width="0.5" fill="#7fd" fill-opacity="0.5" d="M1267 365L1265 367L1260 368L1262 366L1266 366z"/></g><g><path class="class-1 leaflet-clickable" stroke-linejoin="round" stroke-linecap="round" fill-rule="evenodd" stroke="#005540" stroke-opacity="1" stroke-width="0.5" fill="#7fd" fill-opacity="0.5" d="M638 444L638 444z"/></g><g><path class="class-1 leaflet-clickable" stroke-linejoin="round" stroke-linecap="round" fill-rule="evenodd" stroke="#005540" stroke-opacity="1" stroke-width="0.5" fill="#7fd" fill-opacity="0.5" d="M723 432L725 434L724 435L722 433L723 432z"/></g><g><path class="class-1 leaflet-clickable" stroke-linejoin="round" stroke-linecap="round" fill-rule="evenodd" stroke="#005540" stroke-opacity="1" stroke-width="0.5" fill="#7fd" fill-opacity="0.5" d="M894 429L888 436L874 426L867 424L868 425L871 422L872 423L880 421L879 420L881 416L886 419L890 416L894 420L894 429z"/></g><g><path class="class-1 leaflet-clickable" stroke-linejoin="round" stroke-linecap="round" fill-rule="evenodd" stroke="#005540" stroke-opacity="1" stroke-width="0.5" fill="#7fd" fill-opacity="0.5" d="M727 422L727 421z"/></g><g><path class="class-1 leaflet-clickable" stroke-linejoin="round" stroke-linecap="round" fill-rule="evenodd" stroke="#005540" stroke-opacity="1" stroke-width="0.5" fill="#7fd" fill-opacity="0.5" d="M911 362L913 361L921 365L931 358L932 357L930 357L932 355L934 355L939 361L937 361L938 362L936 367L938 370L936 370L936 372L933 374L933 376L926 385L929 388L926 394L924 396L918 396L909 402L908 400L904 402L904 405L906 404L911 407L911 409L909 410L912 415L911 416L916 417L913 423L911 422L907 424L902 430L900 428L894 429L894 421L890 416L886 419L881 416L879 421L872 423L871 422L868 425L864 423L864 421L863 422L860 420L858 415L856 415L848 404L844 394L852 392L854 390L853 388L855 385L856 386L858 382L863 380L870 382L877 390L876 385L874 385L878 381L877 376L887 374L886 373L889 370L884 365L885 363L883 361L879 361L878 357L874 355L876 347L878 345L879 346L878 343L881 344L880 347L884 344L881 339L882 337L888 339L888 341L885 342L886 343L884 347L886 351L886 347L889 341L892 343L889 352L890 353L894 353L896 350L898 350L897 347L899 345L901 347L900 348L904 350L902 356L898 356L894 360L892 360L894 362L893 365L889 367L889 369L893 369L894 371L889 373L891 373L892 377L902 379L904 374L907 375L911 371L912 372L914 368L910 365L911 363z"/></g><g><path class="class-1 leaflet-clickable" stroke-linejoin="round" stroke-linecap="round" fill-rule="evenodd" stroke="#005540" stroke-opacity="1" stroke-width="0.5" fill="#7fd" fill-opacity="0.5" d="M1257 368L1257 380L1254 386L1243 398L1237 398L1231 404L1229 404L1228 407L1226 407L1227 408L1221 414L1220 413L1217 415L1214 413L1210 407L1210 404L1207 400L1205 400L1201 393L1198 394L1193 391L1192 384L1194 379L1204 374L1230 370L1234 367L1239 367L1242 365L1257 368z"/></g><g><path class="class-1 leaflet-clickable" stroke-linejoin="round" stroke-linecap="round" fill-rule="evenodd" stroke="#005540" stroke-opacity="1" stroke-width="0.5" fill="#7fd" fill-opacity="0.5" d="M1207 341L1211 344L1209 346L1206 343L1207 341z"/></g><g><path class="class-0 leaflet-clickable" stroke-linejoin="round" stroke-linecap="round" fill-rule="evenodd" stroke="#005540" stroke-opacity="1" stroke-width="0.5" fill="#ddfff6" fill-opacity="0.5" d="M931 355L930 356L932 358L927 359L923 364L919 364L913 361L910 362L908 360L913 352L913 348L919 347L921 345L925 347L924 348L927 348L927 352L931 355z"/></g><g><path class="class-1 leaflet-clickable" stroke-linejoin="round" stroke-linecap="round" fill-rule="evenodd" stroke="#005540" stroke-opacity="1" stroke-width="0.5" fill="#7fd" fill-opacity="0.5" d="M832 371L831 371z"/></g><g><path class="class-1 leaflet-clickable" stroke-linejoin="round" stroke-linecap="round" fill-rule="evenodd" stroke="#005540" stroke-opacity="1" stroke-width="0.5" fill="#7fd" fill-opacity="0.5" d="M827 368L829 369L828 370L826 368z"/></g><g><path class="class-1 leaflet-clickable" stroke-linejoin="round" stroke-linecap="round" fill-rule="evenodd" stroke="#005540" stroke-opacity="1" stroke-width="0.5" fill="#7fd" fill-opacity="0.5" d="M822 363L824 363L825 366L823 366L822 364z"/></g><g><path class="class-1 leaflet-clickable" stroke-linejoin="round" stroke-linecap="round" fill-rule="evenodd" stroke="#005540" stroke-opacity="1" stroke-width="0.5" fill="#7fd" fill-opacity="0.5" d="M822 361L821 362z"/></g><g><path class="class-1 leaflet-clickable" stroke-linejoin="round" stroke-linecap="round" fill-rule="evenodd" stroke="#005540" stroke-opacity="1" stroke-width="0.5" fill="#7fd" fill-opacity="0.5" d="M874 346L876 347L874 356L878 356L879 360L883 361L885 363L884 366L889 370L886 373L887 374L877 376L878 381L874 385L877 387L877 389L866 380L857 382L854 388L852 386L847 386L855 376L855 367L854 368L849 364L845 356L845 349L842 343L843 342L843 344L845 341L850 343L848 339L848 333L851 329L852 332L860 332L859 333L862 337L858 339L860 343L864 340L869 344L870 347L874 345z"/></g><g><path class="class-2 leaflet-clickable" stroke-linejoin="round" stroke-linecap="round" fill-rule="evenodd" stroke="#005540" stroke-opacity="1" stroke-width="0.5" fill="#00cc99" fill-opacity="0.5" d="M889 238L897 241L899 249L897 252L898 261L894 268L898 272L895 272L894 275L900 281L899 282L906 287L908 287L913 279L917 294L916 296L913 297L909 297L908 295L898 295L886 306L887 315L885 315L885 317L882 319L879 326L878 331L880 336L876 337L876 344L871 347L867 342L865 342L865 340L863 340L861 343L859 341L858 339L862 337L859 333L860 332L852 332L850 328L847 329L845 327L843 322L844 321L841 316L839 317L838 308L840 309L838 307L837 302L832 297L829 297L829 299L825 299L821 289L811 280L809 271L811 269L810 268L815 265L814 264L817 267L821 267L826 263L824 264L824 258L827 257L826 254L831 246L833 236L834 237L836 234L838 237L839 236L842 239L843 238L849 243L857 243L858 245L864 243L869 247L877 235L881 237L886 237z"/></g><g><path class="class-1 leaflet-clickable" stroke-linejoin="round" stroke-linecap="round" fill-rule="evenodd" stroke="#005540" stroke-opacity="1" stroke-width="0.5" fill="#7fd" fill-opacity="0.5" d="M763 248L767 248L772 244L773 241L777 239L781 229L787 230L786 233L788 233L791 236L791 245L797 253L806 253L808 256L807 258L813 262L813 264L815 264L812 267L810 267L811 270L809 271L811 275L811 280L813 280L816 286L821 289L824 295L823 296L826 299L829 299L829 297L835 299L837 305L840 308L838 308L839 316L842 317L844 321L843 322L845 324L845 328L851 329L848 333L848 340L849 339L850 342L849 343L845 341L844 344L826 325L825 321L819 315L814 307L796 294L780 274L767 269L764 265L760 265L758 257L763 248z"/></g><g><path class="class-1 leaflet-clickable" stroke-linejoin="round" stroke-linecap="round" fill-rule="evenodd" stroke="#005540" stroke-opacity="1" stroke-width="0.5" fill="#7fd" fill-opacity="0.5" d="M750 302L748 302L748 297L750 301z"/></g><g><path class="class-1 leaflet-clickable" stroke-linejoin="round" stroke-linecap="round" fill-rule="evenodd" stroke="#005540" stroke-opacity="1" stroke-width="0.5" fill="#7fd" fill-opacity="0.5" d="M738 293L738 296L737 293z"/></g><g><path class="class-1 leaflet-clickable" stroke-linejoin="round" stroke-linecap="round" fill-rule="evenodd" stroke="#005540" stroke-opacity="1" stroke-width="0.5" fill="#7fd" fill-opacity="0.5" d="M737 291L737 292z"/></g><g><path class="class-1 leaflet-clickable" stroke-linejoin="round" stroke-linecap="round" fill-rule="evenodd" stroke="#005540" stroke-opacity="1" stroke-width="0.5" fill="#7fd" fill-opacity="0.5" d="M730 279L733 281L734 284L730 280z"/></g><g><path class="class-1 leaflet-clickable" stroke-linejoin="round" stroke-linecap="round" fill-rule="evenodd" stroke="#005540" stroke-opacity="1" stroke-width="0.5" fill="#7fd" fill-opacity="0.5" d="M730 273L729 275L730 273z"/></g><g><path class="class-1 leaflet-clickable" stroke-linejoin="round" stroke-linecap="round" fill-rule="evenodd" stroke="#005540" stroke-opacity="1" stroke-width="0.5" fill="#7fd" fill-opacity="0.5" d="M728 263L729 266L728 264z"/></g><g><path class="class-1 leaflet-clickable" stroke-linejoin="round" stroke-linecap="round" fill-rule="evenodd" stroke="#005540" stroke-opacity="1" stroke-width="0.5" fill="#7fd" fill-opacity="0.5" d="M722 263L722 265L722 263z"/></g><g><path class="class-1 leaflet-clickable" stroke-linejoin="round" stroke-linecap="round" fill-rule="evenodd" stroke="#005540" stroke-opacity="1" stroke-width="0.5" fill="#7fd" fill-opacity="0.5" d="M722 254L722 256L720 256L718 260L719 261L718 258L719 255L721 255z"/></g><g><path class="class-1 leaflet-clickable" stroke-linejoin="round" stroke-linecap="round" fill-rule="evenodd" stroke="#005540" stroke-opacity="1" stroke-width="0.5" fill="#7fd" fill-opacity="0.5" d="M717 252L717 252z"/></g><g><path class="class-1 leaflet-clickable" stroke-linejoin="round" stroke-linecap="round" fill-rule="evenodd" stroke="#005540" stroke-opacity="1" stroke-width="0.5" fill="#7fd" fill-opacity="0.5" d="M699 224L699 226L698 224z"/></g><g><path class="class-1 leaflet-clickable" stroke-linejoin="round" stroke-linecap="round" fill-rule="evenodd" stroke="#005540" stroke-opacity="1" stroke-width="0.5" fill="#7fd" fill-opacity="0.5" d="M702 219L701 219z"/></g><g><path class="class-1 leaflet-clickable" stroke-linejoin="round" stroke-linecap="round" fill-rule="evenodd" stroke="#005540" stroke-opacity="1" stroke-width="0.5" fill="#7fd" fill-opacity="0.5" d="M628 208L628 208z"/></g><g><path class="class-1 leaflet-clickable" stroke-linejoin="round" stroke-linecap="round" fill-rule="evenodd" stroke="#005540" stroke-opacity="1" stroke-width="0.5" fill="#7fd" fill-opacity="0.5" d="M650 205L683 205L685 212L693 218L696 224L695 225L702 229L700 230L700 232L702 234L704 233L707 235L710 241L713 243L712 244L716 254L716 262L721 268L723 268L724 274L731 285L729 293L732 300L738 302L738 298L741 298L746 302L746 305L750 306L750 308L753 311L753 314L758 317L759 324L755 329L746 334L743 330L741 320L737 316L733 314L721 302L711 297L706 298L696 290L696 287L693 286L698 274L698 261L692 250L685 248L670 236L668 235L665 238L658 231L654 231L651 227L647 227L644 224L643 220L630 209L631 208L643 211L649 208L650 206z"/></g><g><path class="class-3 leaflet-clickable" stroke-linejoin="round" stroke-linecap="round" fill-rule="evenodd" stroke="#005540" stroke-opacity="1" stroke-width="0.5" fill="#086" fill-opacity="0.5" d="M619 197L618 197z"/></g><g><path class="class-3 leaflet-clickable" stroke-linejoin="round" stroke-linecap="round" fill-rule="evenodd" stroke="#005540" stroke-opacity="1" stroke-width="0.5" fill="#086" fill-opacity="0.5" d="M627 195L629 201L628 204L624 202L627 199L627 196z"/></g><g><path class="class-3 leaflet-clickable" stroke-linejoin="round" stroke-linecap="round" fill-rule="evenodd" stroke="#005540" stroke-opacity="1" stroke-width="0.5" fill="#086" fill-opacity="0.5" d="M680 187L683 189L682 190L681 188z"/></g><g><path class="class-3 leaflet-clickable" stroke-linejoin="round" stroke-linecap="round" fill-rule="evenodd" stroke="#005540" stroke-opacity="1" stroke-width="0.5" fill="#086" fill-opacity="0.5" d="M666 176L666 177z"/></g><g><path class="class-3 leaflet-clickable" stroke-linejoin="round" stroke-linecap="round" fill-rule="evenodd" stroke="#005540" stroke-opacity="1" stroke-width="0.5" fill="#086" fill-opacity="0.5" d="M666 165L669 167L669 170L671 172L674 171L674 179L664 168L665 165z"/></g><g><path class="class-3 leaflet-clickable" stroke-linejoin="round" stroke-linecap="round" fill-rule="evenodd" stroke="#005540" stroke-opacity="1" stroke-width="0.5" fill="#086" fill-opacity="0.5" d="M556 174L558 177L557 182L555 177L556 174z"/></g><g><path class="class-3 leaflet-clickable" stroke-linejoin="round" stroke-linecap="round" fill-rule="evenodd" stroke="#005540" stroke-opacity="1" stroke-width="0.5" fill="#086" fill-opacity="0.5" d="M645 153L645 154z"/></g><g><path class="class-3 leaflet-clickable" stroke-linejoin="round" stroke-linecap="round" fill-rule="evenodd" stroke="#005540" stroke-opacity="1" stroke-width="0.5" fill="#086" fill-opacity="0.5" d="M638 112L638 112z"/></g><g><path class="class-3 leaflet-clickable" stroke-linejoin="round" stroke-linecap="round" fill-rule="evenodd" stroke="#005540" stroke-opacity="1" stroke-width="0.5" fill="#086" fill-opacity="0.5" d="M638 105L640 107L639 108L637 108L637 105z"/></g><g><path class="class-3 leaflet-clickable" stroke-linejoin="round" stroke-linecap="round" fill-rule="evenodd" stroke="#005540" stroke-opacity="1" stroke-width="0.5" fill="#086" fill-opacity="0.5" d="M636 86L633 88L631 93L633 95L633 102L636 103L637 105L637 110L635 113L635 123L639 129L639 137L641 142L640 149L646 157L646 159L649 159L663 172L666 182L668 180L670 184L673 184L675 191L681 195L680 197L682 199L682 205L650 205L653 201L652 198L654 194L652 190L647 186L647 184L644 181L642 181L641 177L638 176L638 174L616 159L617 157L614 153L614 146L608 140L609 134L603 127L602 128L601 119L594 112L595 109L593 106L594 107L595 104L589 99L589 96L584 88L584 85L638 80L636 86z"/></g><g><path class="class-0 leaflet-clickable" stroke-linejoin="round" stroke-linecap="round" fill-rule="evenodd" stroke="#005540" stroke-opacity="1" stroke-width="0.5" fill="#ddfff6" fill-opacity="0.5" d="M977 211L980 213L975 216L975 218L979 219L981 228L979 233L983 234L981 238L987 241L986 247L990 250L992 249L993 255L996 253L998 257L1000 255L1006 255L1006 269L1009 269L999 279L995 278L992 281L992 287L989 286L985 288L984 291L980 292L980 294L982 294L983 296L981 303L986 309L983 312L977 312L974 317L975 322L972 321L970 323L972 323L971 325L968 325L969 323L967 323L966 325L965 324L966 327L963 326L963 313L961 310L962 304L959 302L960 297L955 292L955 285L957 283L955 282L955 277L957 275L968 276L968 274L964 273L959 268L961 268L956 265L953 254L946 247L956 237L958 240L959 239L961 235L961 229L955 229L954 226L958 222L964 220L965 213L969 210L973 214L975 213z"/></g><g><path class="class-1 leaflet-clickable" stroke-linejoin="round" stroke-linecap="round" fill-rule="evenodd" stroke="#005540" stroke-opacity="1" stroke-width="0.5" fill="#7fd" fill-opacity="0.5" d="M955 292L957 295L952 299L950 297L949 301L947 302L946 308L941 313L933 320L928 322L925 322L923 320L921 323L923 323L921 325L925 336L929 340L931 339L931 342L933 344L936 343L940 337L943 338L942 339L944 343L942 344L941 348L943 350L943 355L940 359L939 360L938 358L931 355L927 352L927 348L926 349L921 345L919 347L913 348L913 352L908 359L911 363L911 366L914 368L913 371L911 371L907 375L904 374L904 378L902 379L898 379L891 376L889 372L893 371L893 369L889 369L889 367L893 365L894 362L892 360L902 355L904 350L902 348L901 349L899 345L897 347L898 350L896 350L895 353L889 352L892 349L892 344L891 342L889 342L887 343L886 351L884 347L886 343L885 342L888 341L888 339L885 337L881 338L884 343L881 347L881 343L879 343L877 347L875 346L876 338L880 336L878 331L881 319L886 315L887 316L886 306L890 302L892 302L892 299L894 299L896 295L908 295L911 297L916 296L917 291L913 283L913 280L918 281L917 278L926 279L931 281L933 284L937 285L936 286L938 288L944 286L947 288L948 291L952 293L955 292z"/></g><g><path class="class-1 leaflet-clickable" stroke-linejoin="round" stroke-linecap="round" fill-rule="evenodd" stroke="#005540" stroke-opacity="1" stroke-width="0.5" fill="#7fd" fill-opacity="0.5" d="M977 211L973 215L969 210L965 213L964 220L958 222L954 226L955 229L961 229L961 235L959 239L958 240L956 237L946 247L955 258L954 261L958 267L961 268L959 268L963 271L963 273L968 273L968 276L957 275L955 277L955 281L957 283L955 285L954 292L952 293L944 286L938 288L936 286L937 285L923 278L917 278L918 281L913 279L908 288L899 282L900 281L894 275L894 273L896 271L897 272L894 268L898 262L897 252L899 249L897 241L889 238L889 236L886 233L888 230L884 210L885 209L883 209L883 206L885 206L885 203L891 192L890 191L898 179L902 180L903 177L907 173L908 174L907 172L909 170L910 164L914 159L918 159L921 156L932 159L940 158L942 162L944 162L944 164L945 163L945 165L958 176L962 188L966 193L965 194L977 210z"/></g><g><path class="class-2 leaflet-clickable" stroke-linejoin="round" stroke-linecap="round" fill-rule="evenodd" stroke="#005540" stroke-opacity="1" stroke-width="0.5" fill="#00cc99" fill-opacity="0.5" d="M971 325L973 329L971 331L973 335L971 337L976 337L984 341L985 337L993 346L1006 346L1012 350L1006 357L1008 357L1008 361L1004 365L1007 368L1007 370L1003 372L1005 372L1004 376L1000 376L997 372L994 373L992 364L987 370L985 370L981 366L979 366L979 368L976 369L967 363L965 363L963 367L959 368L955 366L952 362L939 360L943 355L943 351L941 348L944 344L942 339L943 338L940 337L938 341L937 340L936 343L933 344L931 342L931 339L929 340L924 335L922 330L923 328L921 325L923 323L921 323L923 320L925 322L933 320L946 308L946 302L949 301L950 296L952 299L957 295L960 296L959 301L962 303L962 326L965 327L965 324L966 325L967 323L969 323L968 325L970 325z"/></g><g><path class="class-1 leaflet-clickable" stroke-linejoin="round" stroke-linecap="round" fill-rule="evenodd" stroke="#005540" stroke-opacity="1" stroke-width="0.5" fill="#7fd" fill-opacity="0.5" d="M979 368L978 371L979 373L981 373L977 376L973 375L974 376L972 382L963 382L960 385L962 393L966 398L964 402L965 405L952 406L949 402L947 402L947 404L943 404L941 402L941 400L943 399L940 398L940 396L938 396L935 399L929 399L929 397L926 394L929 391L926 384L929 382L933 374L936 373L935 370L937 370L936 367L938 363L937 362L939 360L945 360L947 362L949 361L957 367L963 367L964 363L966 363L976 369L978 368z"/></g><g><path class="class-3 leaflet-clickable" stroke-linejoin="round" stroke-linecap="round" fill-rule="evenodd" stroke="#005540" stroke-opacity="1" stroke-width="0.5" fill="#086" fill-opacity="0.5" d="M977 398L982 401L985 400L985 407L988 409L987 410L991 407L991 405L996 405L996 403L997 409L999 407L1002 407L1005 410L1003 414L1005 418L1005 428L1000 430L997 427L997 421L995 419L994 414L988 421L990 425L989 430L986 431L987 433L984 436L980 434L981 435L979 435L977 438L973 438L967 444L963 439L964 438L962 437L963 434L960 431L969 418L967 412L970 411L970 403L974 403L974 399L976 398z"/></g><g><path class="class-2 leaflet-clickable" stroke-linejoin="round" stroke-linecap="round" fill-rule="evenodd" stroke="#005540" stroke-opacity="1" stroke-width="0.5" fill="#00cc99" fill-opacity="0.5" d="M997 427L993 427L988 423L993 414L997 421L997 426z"/></g><g><path class="class-3 leaflet-clickable" stroke-linejoin="round" stroke-linecap="round" fill-rule="evenodd" stroke="#005540" stroke-opacity="1" stroke-width="0.5" fill="#086" fill-opacity="0.5" d="M898 179L890 191L891 192L885 202L885 207L884 206L883 209L885 209L885 223L887 224L888 229L886 234L889 236L889 238L877 235L875 236L876 237L869 247L865 243L859 245L857 243L852 244L851 242L850 243L844 240L843 238L842 239L839 236L838 237L836 234L835 237L833 237L834 238L831 242L831 246L826 253L827 257L824 258L824 264L826 262L822 267L818 267L807 258L808 257L805 252L797 253L795 251L791 245L791 237L788 233L786 233L786 229L780 231L778 230L779 229L778 230L778 227L776 225L778 222L776 219L777 217L775 216L774 212L770 210L772 209L767 202L767 198L780 196L780 192L775 181L776 176L774 174L774 172L776 172L775 168L777 166L776 160L779 159L777 157L777 145L779 146L776 138L772 137L770 133L770 130L773 129L773 126L776 126L774 126L775 125L772 123L773 121L771 121L774 118L787 118L787 106L790 105L827 106L832 113L835 116L837 116L848 128L858 135L860 135L860 137L862 137L863 143L867 148L867 156L870 159L870 161L874 165L878 166L877 167L880 170L887 172L898 179z"/></g><g><path class="class-1 leaflet-clickable" stroke-linejoin="round" stroke-linecap="round" fill-rule="evenodd" stroke="#005540" stroke-opacity="1" stroke-width="0.5" fill="#7fd" fill-opacity="0.5" d="M688 186L687 188L687 186z"/></g><g><path class="class-1 leaflet-clickable" stroke-linejoin="round" stroke-linecap="round" fill-rule="evenodd" stroke="#005540" stroke-opacity="1" stroke-width="0.5" fill="#7fd" fill-opacity="0.5" d="M694 173L696 179L693 186L688 182L689 175L693 173z"/></g><g><path class="class-1 leaflet-clickable" stroke-linejoin="round" stroke-linecap="round" fill-rule="evenodd" stroke="#005540" stroke-opacity="1" stroke-width="0.5" fill="#7fd" fill-opacity="0.5" d="M639 106L641 106L640 107z"/></g><g><path class="class-1 leaflet-clickable" stroke-linejoin="round" stroke-linecap="round" fill-rule="evenodd" stroke="#005540" stroke-opacity="1" stroke-width="0.5" fill="#7fd" fill-opacity="0.5" d="M636 86L716 115L721 118L774 118L773 120L771 120L772 123L775 125L774 126L776 126L773 126L773 129L770 129L770 132L772 135L771 136L778 141L777 144L779 145L777 145L777 158L779 158L779 160L776 160L777 166L775 168L775 182L778 186L780 196L768 198L767 202L771 209L770 210L774 213L776 217L778 222L776 224L779 231L782 231L776 239L776 241L774 241L771 244L771 246L763 248L763 244L761 241L756 238L751 238L747 229L739 227L735 223L732 223L733 209L731 207L730 208L726 206L726 208L724 208L724 206L718 204L712 195L708 193L702 186L703 184L696 180L696 173L694 170L693 171L691 169L692 167L688 162L686 156L683 155L683 148L675 134L676 122L670 119L663 118L663 114L658 110L650 113L641 106L634 103L632 96L633 95L631 93L633 91L633 87L636 87zM727 205L727 206z"/></g></svg>