<svg xmlns="http://www.w3.org/2000/svg" class="leaflet-zoom-animated" width="1975" height="842" viewBox="60 -261 1975 842" style="transform: translate3d(60px, -261px, 0px);"><g><path class="class-3 leaflet-clickable" stroke-linejoin="round" stroke-linecap="round" fill-rule="evenodd" stroke="#005540" stroke-opacity="1" stroke-width="0.5" fill="#086" fill-opacity="0.5" d="M1257 -112L1250 -104L1241 -114L1234 -108L1231 -93L1219 -90L1212 -83L1212 -77L1214 -75L1216 -75L1216 -77L1218 -78L1225 -75L1225 -63L1218 -53L1216 -59L1195 -41L1201 -32L1208 -26L1209 -20L1212 -19L1211 -13L1214 -4L1217 -4L1218 0L1225 2L1222 3L1224 3L1223 5L1229 7L1228 11L1235 11L1239 15L1239 17L1235 17L1235 19L1223 15L1218 16L1213 20L1213 28L1217 32L1212 37L1214 41L1213 51L1209 49L1206 51L1201 49L1194 39L1186 39L1183 42L1176 40L1175 38L1177 39L1177 37L1175 35L1169 35L1166 27L1155 25L1148 22L1138 22L1139 28L1128 25L1119 41L1117 39L1109 37L1102 30L1102 28L1090 14L1092 12L1092 9L1095 8L1097 10L1098 8L1091 1L1094 -1L1099 -10L1097 -29L1101 -37L1099 -40L1096 -53L1081 -59L1075 -68L1075 -70L1079 -74L1079 -77L1077 -79L1077 -86L1076 -85L1076 -87L1073 -89L1074 -104L1071 -114L1072 -115L1070 -115L1070 -122L1073 -120L1073 -122L1071 -123L1078 -140L1086 -157L1088 -156L1099 -176L1108 -175L1109 -179L1114 -184L1113 -185L1116 -185L1117 -188L1119 -188L1119 -195L1120 -194L1120 -196L1122 -197L1122 -203L1128 -215L1134 -215L1137 -217L1140 -216L1144 -222L1156 -217L1160 -219L1171 -216L1178 -216L1179 -218L1180 -216L1183 -217L1188 -211L1191 -210L1191 -206L1192 -209L1193 -208L1194 -203L1202 -200L1204 -195L1214 -189L1215 -185L1220 -180L1220 -173L1226 -166L1225 -165L1227 -163L1227 -158L1232 -155L1231 -153L1235 -150L1234 -145L1237 -141L1236 -139L1240 -136L1240 -134L1246 -132L1255 -119L1255 -114L1257 -114z"/></g><g><path class="class-3 leaflet-clickable" stroke-linejoin="round" stroke-linecap="round" fill-rule="evenodd" stroke="#005540" stroke-opacity="1" stroke-width="0.5" fill="#086" fill-opacity="0.5" d="M1257 -112L1258 -113L1262 -108L1253 -101L1254 -98L1261 -95L1261 -87L1266 -76L1262 -69L1260 -69L1261 -67L1266 -68L1269 -66L1267 -59L1265 -57L1271 -56L1277 -52L1276 -40L1277 -38L1279 -39L1286 -35L1288 -25L1294 -27L1300 -21L1303 -25L1314 -23L1314 4L1322 4L1322 6L1298 25L1294 25L1295 24L1293 22L1291 25L1288 25L1288 33L1286 35L1287 40L1282 38L1277 42L1273 43L1272 47L1269 47L1262 51L1263 54L1266 53L1269 59L1265 72L1271 77L1275 85L1273 84L1268 90L1256 90L1252 100L1253 109L1246 108L1243 111L1246 113L1245 116L1240 116L1240 113L1233 115L1233 119L1235 118L1235 120L1228 118L1229 110L1226 107L1227 103L1229 103L1228 98L1230 94L1228 93L1227 88L1225 86L1226 71L1222 70L1223 67L1221 67L1223 61L1222 58L1218 54L1216 55L1213 51L1214 41L1212 37L1217 32L1213 28L1213 20L1218 16L1223 15L1235 19L1235 17L1238 18L1239 15L1235 11L1228 11L1229 8L1224 5L1224 3L1222 3L1226 2L1218 0L1217 -4L1214 -4L1211 -13L1212 -18L1209 -20L1208 -26L1201 -32L1195 -41L1216 -59L1218 -53L1225 -63L1225 -74L1218 -79L1216 -76L1214 -76L1212 -83L1219 -90L1231 -93L1234 -108L1241 -114L1250 -104L1253 -108z"/></g><g><path class="class-3 leaflet-clickable" stroke-linejoin="round" stroke-linecap="round" fill-rule="evenodd" stroke="#005540" stroke-opacity="1" stroke-width="0.5" fill="#086" fill-opacity="0.5" d="M541 -141L540 -140z"/></g><g><path class="class-3 leaflet-clickable" stroke-linejoin="round" stroke-linecap="round" fill-rule="evenodd" stroke="#005540" stroke-opacity="1" stroke-width="0.5" fill="#086" fill-opacity="0.5" d="M557 -144L560 -138L559 -127L557 -126L551 -130L556 -135L556 -143z"/></g><g><path class="class-3 leaflet-clickable" stroke-linejoin="round" stroke-linecap="round" fill-rule="evenodd" stroke="#005540" stroke-opacity="1" stroke-width="0.5" fill="#086" fill-opacity="0.5" d="M663 -159L665 -159L669 -155L668 -154L664 -158z"/></g><g><path class="class-3 leaflet-clickable" stroke-linejoin="round" stroke-linecap="round" fill-rule="evenodd" stroke="#005540" stroke-opacity="1" stroke-width="0.5" fill="#086" fill-opacity="0.5" d="M634 -181L635 -179z"/></g><g><path class="class-3 leaflet-clickable" stroke-linejoin="round" stroke-linecap="round" fill-rule="evenodd" stroke="#005540" stroke-opacity="1" stroke-width="0.5" fill="#086" fill-opacity="0.5" d="M635 -205L642 -198L642 -192L650 -191L650 -183L654 -179L653 -175L634 -194L631 -200L633 -204z"/></g><g><path class="class-3 leaflet-clickable" stroke-linejoin="round" stroke-linecap="round" fill-rule="evenodd" stroke="#005540" stroke-opacity="1" stroke-width="0.5" fill="#086" fill-opacity="0.5" d="M416 -185L416 -182L419 -180L419 -170L417 -170L412 -184L416 -186z"/></g><g><path class="class-3 leaflet-clickable" stroke-linejoin="round" stroke-linecap="round" fill-rule="evenodd" stroke="#005540" stroke-opacity="1" stroke-width="0.5" fill="#086" fill-opacity="0.5" d="M594 -228L595 -227L593 -227z"/></g><g><path class="class-3 leaflet-clickable" stroke-linejoin="round" stroke-linecap="round" fill-rule="evenodd" stroke="#005540" stroke-opacity="1" stroke-width="0.5" fill="#086" fill-opacity="0.5" d="M0 0"/></g><g><path class="class-3 leaflet-clickable" stroke-linejoin="round" stroke-linecap="round" fill-rule="evenodd" stroke="#005540" stroke-opacity="1" stroke-width="0.5" fill="#086" fill-opacity="0.5" d="M0 0"/></g><g><path class="class-3 leaflet-clickable" stroke-linejoin="round" stroke-linecap="round" fill-rule="evenodd" stroke="#005540" stroke-opacity="1" stroke-width="0.5" fill="#086" fill-opacity="0.5" d="M581.3333333333334 -261L584 -255L584 -242L582 -239L588 -227L594 -223L595 -217L599 -215L602 -216L629 -191L630 -189L628 -187L634 -178L634 -170L637 -172L636 -173L641 -173L640 -172L642 -166L647 -168L649 -166L653 -150L658 -148L663 -149L665 -147L664 -138L668 -134L667 -127L669 -124L603 -124L610 -135L607 -138L611 -149L608 -153L605 -154L606 -155L604 -158L601 -158L591 -173L585 -175L585 -179L582 -182L580 -182L579 -185L568 -196L559 -199L553 -205L550 -205L546 -209L544 -208L540 -213L539 -212L535 -216L535 -223L533 -226L531 -226L531 -242L528 -248L525 -250L522 -248L521 -249L520 -261z"/></g><g><path class="class-3 leaflet-clickable" stroke-linejoin="round" stroke-linecap="round" fill-rule="evenodd" stroke="#005540" stroke-opacity="1" stroke-width="0.5" fill="#086" fill-opacity="0.5" d="M679 -162L679 -159L676 -159L677 -162z"/></g><g><path class="class-3 leaflet-clickable" stroke-linejoin="round" stroke-linecap="round" fill-rule="evenodd" stroke="#005540" stroke-opacity="1" stroke-width="0.5" fill="#086" fill-opacity="0.5" d="M690 -188L691 -183L695 -177L690 -163L678 -170L682 -174L682 -185L686 -186L687 -188L689 -187z"/></g><g><path class="class-3 leaflet-clickable" stroke-linejoin="round" stroke-linecap="round" fill-rule="evenodd" stroke="#005540" stroke-opacity="1" stroke-width="0.5" fill="#086" fill-opacity="0.5" d="M0 0"/></g><g><path class="class-3 leaflet-clickable" stroke-linejoin="round" stroke-linecap="round" fill-rule="evenodd" stroke="#005540" stroke-opacity="1" stroke-width="0.5" fill="#086" fill-opacity="0.5" d="M846 -261L851 -259L853 -260L855 -258L856 -253L858 -253L858 -251L856 -250L858 -248L857 -246L859 -246L861 -243L858 -244L857 -226L857 -218L861 -218L861 -215L856 -213L858 -211L856 -210L857 -202L853 -200L855 -190L853 -190L851 -186L854 -184L854 -171L858 -163L859 -157L862 -153L862 -150L863 -151L862 -146L864 -144L861 -141L858 -142L857 -140L852 -138L841 -139L840 -137L839 -139L837 -137L837 -132L839 -125L844 -121L844 -117L846 -116L844 -114L845 -111L851 -109L852 -104L856 -101L859 -89L856 -86L856 -82L859 -77L858 -76L861 -73L866 -72L855 -55L855 -52L850 -52L846 -50L844 -46L847 -47L847 -44L840 -42L834 -37L831 -40L829 -38L828 -39L829 -45L827 -50L821 -56L809 -56L802 -61L801 -67L797 -72L797 -75L790 -79L783 -80L776 -86L768 -89L768 -100L766 -106L768 -116L771 -116L769 -118L758 -120L757 -122L754 -119L756 -119L755 -116L751 -119L752 -120L750 -122L746 -121L736 -129L734 -135L727 -144L717 -148L714 -155L706 -163L708 -165L707 -167L702 -169L702 -171L696 -175L696 -182L693 -185L693 -192L685 -194L687 -201L684 -203L684 -205L677 -213L674 -222L670 -224L670 -237L665 -243L663 -253L655.75 -261zM756 -123L757 -123z"/></g><g><path class="class-3 leaflet-clickable" stroke-linejoin="round" stroke-linecap="round" fill-rule="evenodd" stroke="#005540" stroke-opacity="1" stroke-width="0.5" fill="#086" fill-opacity="0.5" d="M1165 176L1164 179L1166 182L1158 184L1152 192L1149 192L1149 194L1145 194L1145 196L1134 190L1128 189L1127 191L1125 191L1120 185L1122 177L1127 172L1130 166L1128 165L1128 163L1135 163L1145 156L1151 159L1152 163L1157 163L1159 166L1159 169L1157 170L1165 175z"/></g><g><path class="class-3 leaflet-clickable" stroke-linejoin="round" stroke-linecap="round" fill-rule="evenodd" stroke="#005540" stroke-opacity="1" stroke-width="0.5" fill="#086" fill-opacity="0.5" d="M1351 164L1348 167L1341 160L1338 160L1331 154L1326 156L1326 158L1319 156L1316 158L1310 157L1307 159L1300 160L1298 158L1285 157L1281 147L1278 146L1278 144L1276 145L1273 140L1271 141L1273 147L1264 144L1259 145L1255 140L1246 140L1249 137L1248 132L1245 132L1245 129L1248 125L1245 122L1246 113L1243 111L1246 108L1253 109L1252 100L1256 90L1267 90L1273 84L1275 85L1273 80L1265 72L1269 59L1266 53L1263 54L1262 51L1268 47L1270 48L1273 46L1275 42L1282 38L1286 40L1286 35L1288 33L1288 25L1291 25L1292 22L1294 22L1294 25L1298 25L1322 6L1322 4L1314 4L1314 -23L1303 -25L1300 -21L1294 -27L1288 -25L1286 -35L1279 -39L1277 -38L1276 -40L1277 -52L1271 -56L1265 -56L1269 -66L1266 -68L1261 -67L1260 -69L1262 -69L1266 -76L1261 -87L1261 -95L1254 -98L1253 -101L1262 -108L1266 -105L1268 -106L1272 -102L1271 -99L1274 -98L1271 -89L1273 -89L1276 -82L1275 -74L1281 -68L1280 -67L1283 -66L1288 -49L1291 -48L1290 -44L1292 -42L1293 -43L1303 -40L1304 -41L1310 -35L1314 -35L1317 -33L1320 -34L1323 -30L1332 -25L1350 -25L1356 -23L1367 -14L1369 -14L1370 -18L1380 -20L1379 -8L1364 22L1356 50L1353 71L1353 95L1351 109L1352 133L1347 149L1349 162z"/></g><g><path class="class-3 leaflet-clickable" stroke-linejoin="round" stroke-linecap="round" fill-rule="evenodd" stroke="#005540" stroke-opacity="1" stroke-width="0.5" fill="#086" fill-opacity="0.5" d="M1296 319L1294 319L1293 321L1283 317L1279 310L1279 308L1285 303L1286 298L1288 299L1289 295L1289 297L1292 299L1293 304L1297 307L1297 319z"/></g><g><path class="class-3 leaflet-clickable" stroke-linejoin="round" stroke-linecap="round" fill-rule="evenodd" stroke="#005540" stroke-opacity="1" stroke-width="0.5" fill="#086" fill-opacity="0.5" d="M829 -38L831 -40L834 -37L840 -43L846 -43L846 -45L848 -46L844 -46L846 -50L850 -52L855 -52L857 -59L861 -63L860 -64L866 -72L863 -72L865 -75L871 -73L871 -75L875 -75L878 -73L875 -68L882 -66L885 -63L884 -61L886 -61L883 -55L888 -48L885 -44L892 -34L892 -32L895 -31L896 -29L899 -31L904 -31L908 -27L910 -29L916 -28L919 -22L918 -18L929 -10L929 -7L933 -7L933 -3L923 1L925 4L922 7L924 12L922 12L926 16L925 26L928 27L930 32L935 35L935 38L938 37L946 48L947 52L951 55L951 57L949 58L953 63L957 64L960 63L962 60L969 62L970 61L977 71L976 75L981 79L979 81L983 83L983 85L979 83L982 101L983 98L985 98L988 101L990 107L989 110L994 116L993 121L995 123L1002 122L1004 124L1004 126L1000 130L1001 134L999 139L999 143L1003 150L1001 152L998 152L992 148L990 150L992 154L989 153L983 142L974 135L962 121L957 119L958 117L954 113L955 112L944 98L942 98L936 86L925 75L887 47L883 39L880 37L876 28L865 15L860 12L849 10L839 6L831 -3L823 -4L820 -20L829 -38z"/></g><g><path class="class-3 leaflet-clickable" stroke-linejoin="round" stroke-linecap="round" fill-rule="evenodd" stroke="#005540" stroke-opacity="1" stroke-width="0.5" fill="#086" fill-opacity="0.5" d="M1125 191L1127 191L1127 189L1134 190L1144 196L1145 194L1149 194L1149 192L1153 191L1157 184L1166 182L1166 180L1164 180L1165 176L1171 177L1175 182L1178 181L1181 187L1178 188L1178 196L1176 200L1178 206L1173 207L1175 208L1175 212L1169 214L1167 221L1164 222L1165 223L1163 225L1162 230L1161 229L1157 234L1155 234L1155 237L1161 244L1160 248L1158 248L1157 253L1154 256L1151 256L1150 258L1139 258L1131 262L1130 264L1129 263L1128 266L1122 268L1122 270L1116 266L1115 267L1117 268L1113 268L1111 270L1111 274L1113 277L1114 275L1116 275L1123 277L1126 280L1126 282L1122 285L1123 293L1125 293L1127 297L1125 299L1127 298L1129 300L1132 298L1134 300L1129 312L1123 311L1115 315L1112 317L1114 320L1112 320L1112 322L1111 321L1111 323L1106 327L1103 322L1091 325L1089 319L1091 314L1091 307L1085 300L1085 298L1082 299L1080 302L1076 303L1065 299L1062 308L1054 308L1054 310L1052 309L1046 312L1044 310L1041 316L1034 311L1031 312L1031 308L1029 309L1024 307L1021 304L1019 297L1010 290L999 274L997 270L998 266L991 256L996 251L1008 250L1011 248L1012 245L1010 242L1011 239L1015 236L1015 233L1020 229L1021 231L1024 231L1030 225L1035 226L1037 229L1042 229L1047 236L1048 235L1054 241L1055 245L1057 240L1055 237L1051 237L1057 231L1058 218L1067 216L1069 214L1076 214L1080 208L1079 207L1081 205L1071 197L1071 193L1073 192L1071 190L1072 189L1065 187L1064 188L1059 185L1059 178L1051 178L1051 170L1053 168L1052 167L1055 160L1058 156L1060 158L1059 153L1064 151L1065 152L1063 160L1067 159L1071 154L1068 151L1069 150L1065 142L1067 140L1079 142L1078 146L1074 149L1074 157L1071 160L1072 166L1074 168L1078 150L1080 149L1085 149L1087 151L1086 161L1084 160L1086 164L1082 171L1083 172L1092 172L1097 165L1099 166L1100 163L1098 163L1097 161L1099 157L1105 158L1106 160L1103 163L1104 164L1109 163L1111 165L1111 167L1108 170L1110 171L1106 174L1108 174L1108 176L1104 177L1105 179L1099 179L1087 188L1089 188L1090 190L1088 197L1086 197L1086 199L1083 199L1081 203L1083 203L1086 207L1087 205L1089 205L1090 208L1087 210L1081 210L1080 212L1084 212L1084 216L1087 220L1094 219L1097 224L1102 222L1108 223L1110 222L1109 220L1111 213L1117 216L1121 211L1124 211L1126 207L1128 209L1130 208L1130 200L1124 196L1124 192z"/></g><g><path class="class-3 leaflet-clickable" stroke-linejoin="round" stroke-linecap="round" fill-rule="evenodd" stroke="#005540" stroke-opacity="1" stroke-width="0.5" fill="#086" fill-opacity="0.5" d="M1825 353L1827 348L1826 346L1827 350z"/></g><g><path class="class-3 leaflet-clickable" stroke-linejoin="round" stroke-linecap="round" fill-rule="evenodd" stroke="#005540" stroke-opacity="1" stroke-width="0.5" fill="#086" fill-opacity="0.5" d="M1829 336L1830 340L1829 336z"/></g><g><path class="class-3 leaflet-clickable" stroke-linejoin="round" stroke-linecap="round" fill-rule="evenodd" stroke="#005540" stroke-opacity="1" stroke-width="0.5" fill="#086" fill-opacity="0.5" d="M1854 247L1842 262L1840 257L1843 250L1846 247L1848 249L1854 246z"/></g><g><path class="class-3 leaflet-clickable" stroke-linejoin="round" stroke-linecap="round" fill-rule="evenodd" stroke="#005540" stroke-opacity="1" stroke-width="0.5" fill="#086" fill-opacity="0.5" d="M1744 374L1741 373L1741 370L1743 370L1744 367L1741 367L1741 364L1744 364L1745 352L1743 335L1744 303L1737 296L1741 294L1740 292L1744 292L1744 295L1746 295L1746 293L1744 293L1745 289L1751 289L1748 288L1749 286L1751 284L1754 285L1755 281L1759 280L1758 279L1760 277L1760 274L1764 274L1768 268L1773 268L1773 265L1777 262L1790 261L1808 243L1817 226L1817 202L1819 202L1820 204L1822 203L1826 205L1833 205L1836 204L1838 197L1839 199L1844 201L1848 210L1848 214L1851 210L1850 206L1851 207L1850 217L1851 219L1853 219L1852 225L1850 225L1847 234L1840 243L1829 253L1822 264L1820 270L1820 276L1822 279L1821 283L1819 285L1822 279L1817 285L1815 285L1812 290L1808 291L1807 294L1811 296L1812 299L1814 296L1817 297L1822 293L1823 296L1818 304L1816 302L1813 305L1810 312L1811 314L1813 314L1817 308L1821 308L1817 313L1815 323L1813 325L1809 337L1807 351L1804 355L1803 362L1800 364L1795 363L1795 351L1785 351L1785 348L1774 347L1772 349L1770 356L1768 357L1769 359L1765 362L1763 369L1756 376L1749 371L1744 373z"/></g><g><path class="class-3 leaflet-clickable" stroke-linejoin="round" stroke-linecap="round" fill-rule="evenodd" stroke="#005540" stroke-opacity="1" stroke-width="0.5" fill="#086" fill-opacity="0.5" d="M1837 197L1835 199L1825 201L1826 199L1829 200L1836 197z"/></g><g><path class="class-2 leaflet-clickable" stroke-linejoin="round" stroke-linecap="round" fill-rule="evenodd" stroke="#005540" stroke-opacity="1" stroke-width="0.5" fill="#00cc99" fill-opacity="0.5" d="M1293 212L1293 219L1287 219L1284 221L1281 219L1277 222L1279 224L1277 227L1277 231L1273 234L1271 239L1273 243L1258 248L1256 262L1254 261L1254 264L1252 264L1252 262L1251 263L1251 265L1253 266L1252 272L1243 272L1241 268L1239 268L1242 265L1232 259L1231 256L1228 256L1228 247L1223 241L1223 239L1225 239L1224 235L1229 230L1231 232L1238 230L1238 228L1245 230L1247 228L1246 227L1250 224L1249 221L1251 215L1255 218L1264 215L1265 211L1261 212L1259 209L1261 198L1265 198L1273 206L1274 204L1277 205L1278 199L1281 200L1283 196L1286 194L1290 198L1289 200L1291 208L1289 210L1292 212z"/></g><g><path class="class-2 leaflet-clickable" stroke-linejoin="round" stroke-linecap="round" fill-rule="evenodd" stroke="#005540" stroke-opacity="1" stroke-width="0.5" fill="#00cc99" fill-opacity="0.5" d="M1817 202L1817 226L1808 243L1798 253L1796 253L1790 261L1777 262L1772 265L1773 268L1768 268L1765 270L1764 274L1760 274L1758 279L1759 280L1756 281L1754 285L1751 284L1748 288L1751 288L1747 290L1745 289L1744 293L1746 293L1746 295L1744 295L1744 292L1740 292L1741 294L1737 296L1732 292L1728 287L1729 286L1727 286L1724 282L1723 275L1716 266L1714 268L1714 265L1712 265L1712 261L1705 251L1702 254L1697 254L1697 252L1694 252L1694 249L1687 248L1688 228L1698 220L1711 214L1758 207L1768 201L1779 198L1784 199L1788 196L1798 196L1810 201L1817 202z"/></g><g><path class="class-2 leaflet-clickable" stroke-linejoin="round" stroke-linecap="round" fill-rule="evenodd" stroke="#005540" stroke-opacity="1" stroke-width="0.5" fill="#00cc99" fill-opacity="0.5" d="M1717 147L1719 147L1724 152L1722 159L1715 153L1717 153L1718 151L1717 148L1715 149L1716 147L1717 148z"/></g><g><path class="class-2 leaflet-clickable" stroke-linejoin="round" stroke-linecap="round" fill-rule="evenodd" stroke="#005540" stroke-opacity="1" stroke-width="0.5" fill="#00cc99" fill-opacity="0.5" d="M1687 234L1687 248L1694 248L1694 252L1697 252L1697 254L1702 254L1705 251L1712 261L1712 265L1714 265L1714 267L1716 266L1723 275L1726 285L1729 286L1729 289L1744 303L1745 352L1743 360L1744 364L1741 364L1741 367L1744 367L1743 370L1741 370L1741 373L1744 373L1744 380L1660 380L1660 373L1648 371L1645 368L1637 365L1636 363L1632 365L1630 377L1625 373L1624 374L1623 372L1615 370L1612 366L1610 367L1607 364L1606 349L1598 350L1593 342L1593 340L1596 339L1614 337L1621 342L1621 340L1637 333L1641 328L1656 320L1669 310L1673 301L1673 290L1675 286L1680 283L1684 278L1682 267L1682 251L1685 244L1686 235z"/></g><g><path class="class-2 leaflet-clickable" stroke-linejoin="round" stroke-linecap="round" fill-rule="evenodd" stroke="#005540" stroke-opacity="1" stroke-width="0.5" fill="#00cc99" fill-opacity="0.5" d="M1245 116L1244 120L1249 125L1247 126L1247 128L1245 128L1245 132L1248 132L1249 137L1245 140L1255 140L1259 145L1264 144L1271 147L1273 147L1271 143L1271 141L1273 140L1276 145L1278 144L1278 146L1281 147L1285 157L1293 157L1298 158L1300 160L1304 160L1309 157L1310 159L1314 159L1317 162L1321 162L1323 164L1322 165L1326 165L1326 167L1321 172L1320 178L1317 178L1315 180L1318 181L1317 180L1316 181L1318 182L1316 183L1320 188L1317 192L1316 191L1312 194L1313 198L1317 202L1318 207L1313 209L1312 208L1310 210L1314 212L1314 215L1312 217L1310 216L1302 218L1298 212L1291 212L1289 210L1291 206L1289 200L1290 198L1287 194L1281 200L1278 199L1277 205L1271 205L1265 198L1261 198L1259 202L1260 203L1254 204L1252 203L1252 200L1247 201L1245 197L1242 197L1242 195L1234 192L1229 194L1229 199L1223 201L1211 196L1212 194L1205 189L1198 189L1190 185L1182 187L1181 186L1183 183L1186 182L1185 181L1189 176L1187 176L1189 171L1188 169L1190 167L1187 164L1185 164L1185 159L1187 160L1187 156L1190 155L1191 148L1187 144L1188 142L1186 140L1182 141L1182 143L1179 145L1175 152L1170 152L1171 154L1166 153L1166 145L1162 145L1153 139L1150 135L1147 124L1149 122L1146 116L1148 112L1147 114L1145 112L1147 111L1148 106L1150 106L1151 110L1169 106L1196 82L1195 70L1201 68L1204 59L1204 61L1207 64L1218 54L1223 61L1221 67L1223 67L1222 70L1226 72L1224 82L1228 93L1230 93L1228 97L1229 103L1227 102L1226 107L1229 110L1228 117L1234 120L1235 118L1233 119L1233 115L1237 113L1240 113L1240 116L1244 116z"/></g><g><path class="class-2 leaflet-clickable" stroke-linejoin="round" stroke-linecap="round" fill-rule="evenodd" stroke="#005540" stroke-opacity="1" stroke-width="0.5" fill="#00cc99" fill-opacity="0.5" d="M1260 202L1259 209L1261 212L1265 211L1264 215L1258 218L1251 215L1249 217L1250 224L1247 225L1245 230L1239 228L1238 230L1236 229L1235 231L1231 232L1228 230L1229 231L1224 234L1225 238L1223 239L1223 241L1228 247L1228 256L1230 256L1235 262L1232 269L1232 271L1234 272L1233 274L1226 278L1226 276L1225 277L1223 275L1216 279L1214 279L1214 277L1212 276L1212 278L1206 278L1204 276L1206 274L1202 270L1198 272L1197 271L1197 273L1194 274L1187 273L1185 265L1188 265L1188 263L1186 263L1185 261L1184 262L1184 259L1178 259L1172 265L1164 265L1162 264L1160 257L1158 258L1158 256L1154 256L1161 246L1161 244L1156 239L1155 235L1161 229L1162 230L1164 223L1165 221L1167 221L1166 219L1169 217L1169 215L1175 212L1175 208L1173 207L1177 206L1178 204L1175 200L1178 196L1178 188L1190 185L1197 189L1205 189L1212 194L1211 196L1223 201L1229 200L1229 194L1234 192L1241 195L1242 194L1242 196L1247 201L1252 200L1251 201L1253 204L1258 204L1260 203L1259 202z"/></g><g><path class="class-2 leaflet-clickable" stroke-linejoin="round" stroke-linecap="round" fill-rule="evenodd" stroke="#005540" stroke-opacity="1" stroke-width="0.5" fill="#00cc99" fill-opacity="0.5" d="M966 208L966 210L964 209L965 208z"/></g><g><path class="class-2 leaflet-clickable" stroke-linejoin="round" stroke-linecap="round" fill-rule="evenodd" stroke="#005540" stroke-opacity="1" stroke-width="0.5" fill="#00cc99" fill-opacity="0.5" d="M957 202L960 204L959 205L954 203L956 202z"/></g><g><path class="class-2 leaflet-clickable" stroke-linejoin="round" stroke-linecap="round" fill-rule="evenodd" stroke="#005540" stroke-opacity="1" stroke-width="0.5" fill="#00cc99" fill-opacity="0.5" d="M947 192L951 193L954 197L952 199L948 197L947 193z"/></g><g><path class="class-2 leaflet-clickable" stroke-linejoin="round" stroke-linecap="round" fill-rule="evenodd" stroke="#005540" stroke-opacity="1" stroke-width="0.5" fill="#00cc99" fill-opacity="0.5" d="M946 188L946 190z"/></g><g><path class="class-2 leaflet-clickable" stroke-linejoin="round" stroke-linecap="round" fill-rule="evenodd" stroke="#005540" stroke-opacity="1" stroke-width="0.5" fill="#00cc99" fill-opacity="0.5" d="M1052 157L1055 159L1055 162L1051 170L1051 178L1052 179L1054 177L1060 179L1059 185L1061 187L1072 189L1071 190L1073 192L1071 197L1080 205L1079 210L1075 214L1069 214L1064 217L1063 216L1058 218L1058 228L1056 232L1051 235L1051 237L1053 236L1057 240L1056 245L1055 241L1048 235L1047 236L1042 230L1039 230L1032 225L1030 225L1024 230L1018 230L1010 241L1007 238L1004 239L998 237L1008 226L1008 224L1009 225L1012 222L1011 209L1014 204L1011 200L1010 201L1002 196L993 178L992 160L988 151L990 154L992 154L990 150L992 148L994 148L996 151L1001 152L1003 150L1002 146L999 143L999 137L1001 134L1000 131L1004 124L1006 124L1008 131L1022 129L1023 136L1027 138L1027 141L1019 144L1022 148L1023 153L1029 147L1029 145L1031 145L1034 150L1038 151L1038 153L1043 159L1045 160L1051 156z"/></g><g><path class="class-2 leaflet-clickable" stroke-linejoin="round" stroke-linecap="round" fill-rule="evenodd" stroke="#005540" stroke-opacity="1" stroke-width="0.5" fill="#00cc99" fill-opacity="0.5" d="M1213 51L1216 55L1211 61L1207 64L1204 62L1204 60L1201 68L1196 70L1196 82L1194 84L1169 106L1153 110L1151 110L1151 108L1148 106L1145 112L1147 114L1148 112L1146 116L1149 121L1147 126L1150 135L1153 139L1162 145L1166 145L1166 153L1171 154L1170 152L1175 152L1178 148L1177 147L1182 143L1182 141L1186 140L1188 142L1187 144L1191 148L1191 152L1187 155L1187 160L1185 159L1185 164L1187 164L1190 167L1188 169L1189 170L1187 176L1189 176L1186 179L1186 182L1182 184L1182 187L1179 185L1177 181L1175 182L1170 176L1165 176L1157 170L1159 166L1158 163L1152 163L1152 160L1147 159L1145 155L1142 159L1138 160L1135 163L1128 163L1128 165L1130 166L1120 181L1119 185L1125 191L1122 194L1124 194L1124 196L1130 200L1130 207L1128 209L1126 207L1126 209L1120 212L1117 216L1111 213L1109 220L1110 222L1108 223L1103 222L1098 224L1092 219L1087 220L1084 216L1084 212L1080 212L1085 209L1090 209L1089 205L1087 205L1086 207L1081 203L1082 199L1085 199L1086 197L1088 198L1090 191L1089 188L1087 188L1090 185L1091 186L1099 179L1105 179L1104 177L1108 176L1108 174L1106 174L1110 172L1108 170L1111 167L1111 165L1109 163L1104 164L1103 163L1106 160L1106 158L1100 157L1097 159L1097 163L1100 163L1100 165L1096 166L1094 171L1083 172L1082 171L1086 164L1084 160L1086 161L1086 157L1088 156L1086 152L1087 151L1085 149L1081 149L1079 150L1075 160L1076 163L1074 169L1071 161L1074 154L1074 150L1079 146L1078 141L1067 140L1065 142L1069 150L1068 151L1071 154L1067 159L1063 160L1065 157L1064 151L1059 153L1060 158L1058 156L1056 160L1052 157L1054 155L1053 152L1056 148L1056 140L1064 139L1063 133L1060 129L1060 122L1062 119L1063 109L1065 105L1072 100L1073 97L1075 96L1076 98L1078 94L1075 94L1074 92L1076 88L1075 77L1083 71L1084 73L1088 68L1087 65L1090 64L1095 57L1102 56L1109 58L1111 55L1114 57L1115 55L1118 57L1118 55L1121 59L1123 58L1125 60L1137 57L1136 43L1133 33L1128 31L1128 29L1130 29L1128 25L1139 28L1138 22L1148 22L1155 25L1166 27L1169 35L1175 35L1177 37L1177 39L1175 38L1176 40L1183 42L1189 38L1194 39L1201 49L1206 51L1209 49L1213 51z"/></g><g><path class="class-2 leaflet-clickable" stroke-linejoin="round" stroke-linecap="round" fill-rule="evenodd" stroke="#005540" stroke-opacity="1" stroke-width="0.5" fill="#00cc99" fill-opacity="0.5" d="M1296 319L1299 320L1305 326L1308 326L1312 322L1309 328L1311 328L1307 334L1309 341L1309 349L1308 350L1304 346L1292 355L1289 349L1280 349L1275 342L1273 336L1275 334L1276 329L1279 328L1281 325L1282 317L1293 321L1293 319L1296 319z"/></g><g><path class="class-2 leaflet-clickable" stroke-linejoin="round" stroke-linecap="round" fill-rule="evenodd" stroke="#005540" stroke-opacity="1" stroke-width="0.5" fill="#00cc99" fill-opacity="0.5" d="M1256 262L1257 261L1263 267L1273 267L1272 268L1276 275L1273 279L1277 282L1278 281L1278 285L1280 285L1286 280L1286 275L1290 273L1293 275L1294 274L1294 276L1295 272L1298 273L1298 275L1295 278L1297 278L1298 280L1294 281L1295 283L1298 284L1300 281L1299 280L1301 279L1305 282L1305 280L1310 284L1311 283L1314 286L1309 296L1312 302L1311 314L1313 321L1308 326L1306 326L1296 319L1298 312L1297 308L1293 304L1292 299L1289 297L1289 295L1288 299L1286 298L1285 302L1279 308L1283 317L1281 319L1281 325L1279 328L1276 329L1275 334L1271 338L1267 335L1266 336L1264 333L1263 334L1265 337L1262 336L1259 341L1255 341L1252 344L1250 344L1249 342L1247 343L1246 346L1244 346L1239 351L1238 350L1237 353L1232 351L1233 347L1232 345L1230 345L1230 342L1228 340L1230 335L1227 331L1223 330L1222 328L1233 316L1236 309L1236 305L1241 302L1241 298L1238 293L1239 292L1237 291L1238 289L1243 288L1243 283L1246 281L1244 279L1245 274L1243 274L1243 272L1252 272L1253 267L1251 263L1252 262L1252 264L1254 264L1254 261L1255 262z"/></g><g><path class="class-2 leaflet-clickable" stroke-linejoin="round" stroke-linecap="round" fill-rule="evenodd" stroke="#005540" stroke-opacity="1" stroke-width="0.5" fill="#00cc99" fill-opacity="0.5" d="M1351 164L1351 171L1358 185L1368 196L1371 197L1367 215L1378 239L1378 243L1412 282L1415 296L1418 300L1418 307L1425 313L1426 312L1429 320L1433 320L1435 329L1448 336L1468 337L1476 344L1486 345L1490 353L1495 357L1495 361L1497 363L1502 364L1517 361L1517 363L1519 363L1518 365L1520 368L1519 376L1523 379L1524 378L1527 383L1534 386L1535 389L1540 393L1539 399L1537 400L1540 403L1539 404L1541 404L1537 407L1533 407L1529 411L1520 412L1481 409L1482 404L1474 401L1465 389L1469 387L1467 383L1456 391L1455 390L1450 393L1445 393L1444 391L1442 391L1438 384L1436 384L1439 380L1441 373L1440 365L1435 363L1431 365L1429 365L1428 363L1425 365L1423 363L1424 362L1421 362L1417 353L1409 343L1406 343L1402 340L1399 344L1399 346L1401 346L1401 353L1399 353L1399 351L1396 350L1396 346L1394 347L1389 344L1383 349L1380 342L1376 340L1375 341L1370 337L1370 334L1375 327L1375 318L1378 315L1383 315L1384 317L1384 313L1387 309L1378 307L1373 304L1370 305L1368 303L1371 301L1370 299L1368 299L1367 293L1372 290L1372 283L1379 267L1367 263L1360 271L1360 269L1357 266L1355 267L1353 265L1353 262L1355 260L1352 256L1353 253L1357 255L1357 253L1361 251L1359 247L1356 248L1352 243L1352 239L1354 237L1352 235L1347 234L1344 240L1346 241L1346 244L1342 248L1342 250L1338 242L1333 249L1331 249L1325 255L1323 255L1320 259L1316 257L1314 251L1317 249L1317 246L1319 246L1318 244L1322 239L1317 242L1316 241L1320 238L1321 234L1325 233L1326 237L1331 235L1329 235L1329 232L1331 231L1330 230L1334 222L1331 219L1327 219L1327 217L1322 219L1319 215L1320 214L1316 213L1320 208L1317 206L1317 202L1314 200L1312 194L1320 189L1316 183L1316 181L1318 181L1315 180L1317 178L1320 179L1319 178L1321 176L1322 170L1326 167L1326 165L1324 166L1321 162L1320 163L1314 159L1310 159L1310 157L1316 158L1321 156L1325 158L1328 154L1330 154L1338 160L1342 161L1346 166L1348 167L1349 165z"/></g><g><path class="class-1 leaflet-clickable" stroke-linejoin="round" stroke-linecap="round" fill-rule="evenodd" stroke="#005540" stroke-opacity="1" stroke-width="0.5" fill="#7fd" fill-opacity="0.5" d="M1311 301L1309 297L1311 294L1315 292L1317 292L1317 294L1324 294L1326 288L1329 288L1329 290L1334 291L1338 288L1339 291L1347 296L1346 298L1348 300L1350 299L1358 306L1355 309L1348 308L1348 312L1344 315L1339 312L1333 318L1330 315L1325 314L1326 313L1317 301L1313 301z"/></g><g><path class="class-1 leaflet-clickable" stroke-linejoin="round" stroke-linecap="round" fill-rule="evenodd" stroke="#005540" stroke-opacity="1" stroke-width="0.5" fill="#7fd" fill-opacity="0.5" d="M1660 380L1660 407L1639 407L1642 403L1639 400L1634 400L1628 396L1631 393L1630 388L1623 384L1624 379L1622 376L1617 377L1616 375L1614 375L1611 377L1612 378L1609 379L1608 382L1606 381L1601 386L1599 385L1598 389L1594 392L1590 391L1583 399L1583 401L1579 402L1579 400L1576 399L1577 398L1574 394L1571 395L1567 390L1567 379L1562 378L1564 376L1556 372L1553 375L1553 380L1551 382L1552 387L1548 391L1548 393L1547 392L1541 404L1539 404L1540 403L1537 401L1540 397L1540 393L1535 389L1535 386L1527 383L1524 378L1523 379L1519 377L1520 368L1518 365L1519 363L1517 363L1517 361L1549 350L1574 350L1579 347L1583 341L1585 342L1593 340L1595 348L1598 350L1606 349L1606 362L1610 367L1611 366L1615 370L1623 372L1624 374L1625 373L1630 377L1632 369L1631 368L1633 364L1636 363L1636 365L1645 368L1650 372L1660 373L1660 377z"/></g><g><path class="class-1 leaflet-clickable" stroke-linejoin="round" stroke-linecap="round" fill-rule="evenodd" stroke="#005540" stroke-opacity="1" stroke-width="0.5" fill="#7fd" fill-opacity="0.5" d="M1342 250L1336 256L1336 258L1332 261L1330 260L1328 263L1329 264L1332 262L1336 268L1333 272L1334 276L1331 276L1327 282L1329 282L1329 284L1332 286L1330 288L1327 288L1324 294L1318 294L1317 292L1311 294L1310 293L1313 291L1312 288L1314 286L1311 283L1310 284L1310 282L1305 280L1305 282L1301 279L1299 280L1300 281L1298 284L1295 283L1294 281L1297 280L1297 278L1295 278L1298 275L1298 273L1296 272L1295 276L1291 273L1288 273L1285 281L1278 286L1278 281L1277 282L1273 279L1276 275L1272 268L1273 267L1268 266L1267 268L1265 266L1261 266L1257 261L1256 262L1258 248L1262 248L1267 245L1268 246L1270 243L1273 243L1271 238L1273 237L1278 228L1278 221L1280 221L1281 219L1284 221L1292 218L1293 219L1293 212L1298 211L1299 215L1302 218L1310 216L1311 217L1314 215L1314 212L1310 210L1316 207L1320 208L1316 213L1320 214L1319 215L1322 219L1327 217L1327 219L1331 219L1334 222L1334 224L1331 227L1331 231L1329 231L1329 234L1331 235L1329 237L1326 237L1325 236L1327 235L1324 233L1321 234L1320 238L1316 241L1317 243L1321 239L1318 243L1319 246L1317 246L1316 250L1314 250L1317 258L1320 259L1329 250L1333 249L1338 242L1341 249z"/></g><g><path class="class-1 leaflet-clickable" stroke-linejoin="round" stroke-linecap="round" fill-rule="evenodd" stroke="#005540" stroke-opacity="1" stroke-width="0.5" fill="#7fd" fill-opacity="0.5" d="M1234 261L1242 265L1239 268L1241 268L1241 271L1244 273L1243 272L1243 274L1245 274L1244 279L1245 281L1247 281L1243 283L1243 288L1237 291L1239 292L1239 296L1241 297L1241 302L1236 305L1236 309L1233 316L1218 333L1216 329L1214 331L1216 346L1223 351L1221 354L1219 353L1219 351L1217 352L1214 348L1208 348L1208 350L1203 346L1200 347L1195 345L1181 348L1177 345L1176 342L1169 342L1164 345L1165 357L1162 360L1152 362L1150 370L1153 372L1153 374L1149 375L1145 372L1129 369L1112 362L1108 362L1097 358L1091 355L1087 347L1081 342L1082 341L1080 339L1085 331L1085 328L1087 329L1092 324L1095 325L1102 322L1106 327L1111 323L1111 321L1112 322L1112 320L1114 320L1112 318L1113 316L1114 317L1115 315L1123 311L1129 312L1133 303L1134 300L1132 298L1129 300L1127 298L1126 299L1127 297L1122 290L1122 285L1125 284L1126 280L1123 277L1111 275L1111 270L1113 268L1114 269L1118 267L1122 270L1122 268L1128 266L1129 263L1130 264L1131 262L1139 258L1142 259L1145 257L1149 258L1153 256L1158 256L1158 258L1161 258L1161 262L1164 265L1172 265L1178 259L1184 259L1183 262L1185 261L1186 263L1188 263L1188 265L1186 265L1185 267L1187 269L1186 273L1194 274L1197 273L1197 270L1198 272L1201 270L1205 272L1204 273L1206 274L1204 276L1206 278L1212 278L1212 276L1214 279L1216 279L1220 276L1222 277L1223 275L1225 277L1226 276L1226 278L1233 275L1234 273L1232 269L1234 266L1234 261z"/></g><g><path class="class-1 leaflet-clickable" stroke-linejoin="round" stroke-linecap="round" fill-rule="evenodd" stroke="#005540" stroke-opacity="1" stroke-width="0.5" fill="#7fd" fill-opacity="0.5" d="M1529 412L1517 444L1521 451L1521 455L1518 458L1521 465L1523 466L1504 458L1491 456L1471 457L1462 462L1460 464L1461 465L1458 467L1437 473L1421 481L1407 482L1398 479L1393 479L1382 472L1374 469L1351 467L1331 455L1322 454L1316 451L1317 449L1323 448L1325 445L1323 441L1332 438L1330 432L1335 432L1338 425L1336 421L1337 418L1341 417L1332 413L1331 407L1326 406L1327 396L1326 393L1319 386L1318 382L1322 379L1322 377L1326 377L1328 374L1330 377L1335 372L1341 372L1344 373L1344 375L1349 375L1353 370L1355 370L1351 368L1350 371L1348 371L1349 368L1347 362L1350 357L1357 357L1357 362L1363 370L1365 370L1368 366L1374 363L1378 363L1379 361L1382 364L1385 363L1387 360L1393 359L1398 352L1401 353L1401 346L1400 347L1399 344L1402 340L1406 343L1411 344L1421 362L1424 362L1423 363L1425 365L1427 363L1429 365L1434 363L1440 365L1441 373L1439 380L1436 384L1438 384L1438 386L1445 393L1450 393L1455 390L1456 391L1467 383L1469 386L1465 390L1474 401L1482 404L1481 409L1520 412z"/></g><g><path class="class-1 leaflet-clickable" stroke-linejoin="round" stroke-linecap="round" fill-rule="evenodd" stroke="#005540" stroke-opacity="1" stroke-width="0.5" fill="#7fd" fill-opacity="0.5" d="M1399 352L1393 359L1387 360L1385 363L1382 364L1379 362L1374 363L1365 370L1363 370L1357 363L1357 358L1351 357L1347 362L1349 368L1348 371L1349 372L1351 368L1355 370L1353 370L1349 375L1345 375L1342 372L1335 372L1331 377L1328 374L1326 377L1325 376L1323 378L1321 372L1319 371L1311 374L1307 371L1304 371L1307 369L1301 368L1301 363L1295 362L1295 358L1292 358L1292 355L1304 346L1308 350L1309 349L1309 341L1307 335L1311 328L1309 328L1310 325L1313 321L1311 314L1311 301L1315 300L1318 302L1326 315L1327 314L1333 318L1339 313L1344 315L1348 312L1347 310L1349 308L1356 309L1358 307L1350 299L1347 299L1345 294L1343 295L1339 292L1338 288L1336 291L1330 290L1329 288L1332 286L1328 282L1330 277L1334 276L1333 272L1336 269L1333 262L1330 264L1328 263L1329 260L1332 261L1333 258L1335 258L1342 250L1342 248L1345 246L1346 244L1344 240L1346 234L1352 235L1354 237L1352 241L1353 243L1356 248L1359 247L1362 251L1357 253L1357 255L1354 253L1352 255L1355 260L1352 262L1353 265L1359 268L1360 271L1364 268L1366 263L1379 267L1380 269L1372 282L1372 290L1367 295L1367 297L1371 300L1368 303L1371 305L1373 304L1380 308L1387 309L1385 317L1383 315L1377 315L1374 320L1375 327L1370 333L1370 337L1374 341L1376 340L1380 342L1383 349L1389 344L1394 347L1395 346L1396 350L1399 351z"/></g><g><path class="class-1 leaflet-clickable" stroke-linejoin="round" stroke-linecap="round" fill-rule="evenodd" stroke="#005540" stroke-opacity="1" stroke-width="0.5" fill="#7fd" fill-opacity="0.5" d="M1273 336L1275 342L1280 348L1290 350L1292 353L1292 358L1296 360L1295 362L1301 363L1301 368L1306 369L1304 371L1311 374L1318 371L1321 371L1322 373L1322 379L1318 382L1320 389L1324 390L1327 396L1326 397L1328 403L1326 404L1326 406L1331 407L1331 412L1341 417L1338 418L1336 421L1338 425L1336 430L1332 433L1330 432L1332 437L1328 440L1323 440L1323 442L1325 443L1323 448L1317 449L1315 451L1306 440L1300 441L1285 436L1270 433L1268 434L1258 429L1256 427L1257 426L1254 426L1246 421L1205 407L1195 398L1185 394L1184 391L1181 389L1178 389L1170 381L1169 377L1157 372L1154 372L1153 374L1153 372L1150 370L1152 363L1160 361L1165 357L1164 345L1169 342L1176 342L1179 347L1195 345L1198 347L1203 346L1207 350L1208 348L1214 348L1217 352L1218 351L1221 354L1223 351L1215 344L1215 329L1218 331L1218 333L1222 328L1230 335L1228 340L1230 342L1230 346L1232 345L1233 347L1232 351L1236 353L1238 353L1238 350L1239 351L1244 346L1246 346L1248 342L1252 344L1255 341L1258 341L1262 336L1265 337L1263 334L1264 333L1267 336L1271 338L1272 337z"/></g><g><path class="class-1 leaflet-clickable" stroke-linejoin="round" stroke-linecap="round" fill-rule="evenodd" stroke="#005540" stroke-opacity="1" stroke-width="0.5" fill="#7fd" fill-opacity="0.5" d="M1639 407L1641 409L1647 410L1650 417L1654 418L1654 420L1657 422L1656 423L1660 425L1660 423L1663 427L1668 428L1673 432L1675 438L1677 439L1676 442L1677 441L1678 444L1680 443L1683 444L1683 446L1687 447L1685 452L1686 454L1684 455L1686 455L1684 456L1686 458L1684 460L1685 463L1626 463L1604 501L1611 510L1607 515L1607 528L1604 534L1595 528L1568 498L1558 489L1533 470L1521 465L1518 459L1521 456L1521 451L1517 444L1529 412L1533 407L1537 407L1541 404L1547 392L1548 393L1548 391L1552 387L1551 383L1553 381L1551 381L1553 381L1553 376L1556 372L1562 374L1564 376L1562 378L1563 379L1567 379L1568 381L1566 384L1566 388L1569 394L1571 396L1574 394L1577 398L1576 399L1579 400L1579 402L1581 402L1588 393L1593 391L1594 392L1598 389L1598 385L1601 385L1606 381L1607 382L1614 375L1616 375L1616 377L1622 376L1624 379L1622 384L1630 387L1629 390L1631 393L1628 396L1634 400L1635 399L1639 401L1642 404L1640 405z"/></g><g><path class="class-#ccc leaflet-clickable" stroke-linejoin="round" stroke-linecap="round" fill-rule="evenodd" stroke="#005540" stroke-opacity="1" stroke-width="0.5" fill="#ccc" fill-opacity="0.5" d="M804 71L801 71L798 65L798 60L803 68z"/></g><g><path class="class-#ccc leaflet-clickable" stroke-linejoin="round" stroke-linecap="round" fill-rule="evenodd" stroke="#005540" stroke-opacity="1" stroke-width="0.5" fill="#ccc" fill-opacity="0.5" d="M779 52L782 55L780 58L777 55L777 52z"/></g><g><path class="class-#ccc leaflet-clickable" stroke-linejoin="round" stroke-linecap="round" fill-rule="evenodd" stroke="#005540" stroke-opacity="1" stroke-width="0.5" fill="#ccc" fill-opacity="0.5" d="M777 49L778 51L776 50z"/></g><g><path class="class-#ccc leaflet-clickable" stroke-linejoin="round" stroke-linecap="round" fill-rule="evenodd" stroke="#005540" stroke-opacity="1" stroke-width="0.5" fill="#ccc" fill-opacity="0.5" d="M763 23L764 26L767 26L769 28L771 34L769 35L762 26z"/></g><g><path class="class-#ccc leaflet-clickable" stroke-linejoin="round" stroke-linecap="round" fill-rule="evenodd" stroke="#005540" stroke-opacity="1" stroke-width="0.5" fill="#ccc" fill-opacity="0.5" d="M763 13L763 15L763 13z"/></g><g><path class="class-#ccc leaflet-clickable" stroke-linejoin="round" stroke-linecap="round" fill-rule="evenodd" stroke="#005540" stroke-opacity="1" stroke-width="0.5" fill="#ccc" fill-opacity="0.5" d="M760 -8L760 -2L758 -6z"/></g><g><path class="class-#ccc leaflet-clickable" stroke-linejoin="round" stroke-linecap="round" fill-rule="evenodd" stroke="#005540" stroke-opacity="1" stroke-width="0.5" fill="#ccc" fill-opacity="0.5" d="M748 -8L749 -5L747 -5L747 -7z"/></g><g><path class="class-#ccc leaflet-clickable" stroke-linejoin="round" stroke-linecap="round" fill-rule="evenodd" stroke="#005540" stroke-opacity="1" stroke-width="0.5" fill="#ccc" fill-opacity="0.5" d="M747 -26L746 -22L744 -22L739 -13L740 -19L742 -21L741 -24L745 -25z"/></g><g><path class="class-#ccc leaflet-clickable" stroke-linejoin="round" stroke-linecap="round" fill-rule="evenodd" stroke="#005540" stroke-opacity="1" stroke-width="0.5" fill="#ccc" fill-opacity="0.5" d="M737 -29L736 -28L737 -29z"/></g><g><path class="class-#ccc leaflet-clickable" stroke-linejoin="round" stroke-linecap="round" fill-rule="evenodd" stroke="#005540" stroke-opacity="1" stroke-width="0.5" fill="#ccc" fill-opacity="0.5" d="M700 -86L702 -84L701 -82L700 -86z"/></g><g><path class="class-#ccc leaflet-clickable" stroke-linejoin="round" stroke-linecap="round" fill-rule="evenodd" stroke="#005540" stroke-opacity="1" stroke-width="0.5" fill="#ccc" fill-opacity="0.5" d="M706 -95L705 -95z"/></g><g><path class="class-#ccc leaflet-clickable" stroke-linejoin="round" stroke-linecap="round" fill-rule="evenodd" stroke="#005540" stroke-opacity="1" stroke-width="0.5" fill="#ccc" fill-opacity="0.5" d="M558 -118L560 -118L558 -118z"/></g><g><path class="class-#ccc leaflet-clickable" stroke-linejoin="round" stroke-linecap="round" fill-rule="evenodd" stroke="#005540" stroke-opacity="1" stroke-width="0.5" fill="#ccc" fill-opacity="0.5" d="M603 -124L669 -124L669 -117L673 -110L677 -106L680 -106L688 -101L689 -95L695 -86L694 -84L697 -81L706 -78L703 -75L703 -71L706 -69L706 -67L708 -67L708 -65L712 -68L724 -57L723 -51L729 -49L728 -43L732 -38L731 -35L735 -27L733 -21L735 -11L740 -7L740 -3L744 2L749 2L748 5L752 13L753 21L758 27L759 26L765 38L761 46L761 51L764 55L764 61L767 66L773 69L780 70L781 67L779 63L781 61L784 61L787 66L794 70L795 76L798 77L802 75L804 77L802 81L808 88L809 96L819 100L818 102L821 106L821 113L818 120L814 124L808 126L799 134L794 133L790 127L786 110L779 99L767 93L750 75L738 67L725 60L720 60L717 63L699 50L696 46L698 44L697 42L694 39L690 39L698 15L699 -12L696 -17L696 -20L690 -26L686 -34L682 -34L674 -39L673 -38L652 -56L646 -58L642 -63L636 -63L632 -58L630 -58L624 -64L624 -67L621 -71L616 -73L613 -72L605 -80L601 -81L599 -79L598 -81L593 -82L593 -84L591 -84L590 -93L580 -100L576 -105L567 -110L564 -116L565 -117L568 -115L572 -116L575 -114L577 -115L581 -113L590 -113L598 -118L599 -117L602 -123z"/></g><g><path class="class-2 leaflet-clickable" stroke-linejoin="round" stroke-linecap="round" fill-rule="evenodd" stroke="#005540" stroke-opacity="1" stroke-width="0.5" fill="#00cc99" fill-opacity="0.5" d="M1082 -59L1084 -57L1096 -53L1099 -40L1101 -37L1097 -29L1099 -10L1092 1L1098 8L1098 10L1095 8L1092 9L1092 12L1090 14L1109 37L1117 39L1119 41L1128 25L1130 28L1128 29L1128 31L1133 33L1136 43L1137 56L1127 60L1120 58L1118 55L1118 57L1115 55L1114 57L1111 55L1109 58L1103 58L1102 56L1096 57L1090 64L1087 65L1088 68L1084 73L1083 71L1075 77L1076 89L1074 91L1078 94L1076 98L1075 96L1073 97L1073 99L1065 105L1063 109L1062 119L1060 122L1060 131L1063 133L1064 138L1062 140L1059 139L1056 141L1056 148L1053 151L1054 155L1052 157L1051 156L1045 159L1046 160L1042 158L1038 154L1037 149L1034 150L1032 148L1033 146L1031 145L1029 145L1029 147L1023 153L1022 148L1019 145L1020 143L1027 141L1027 138L1023 136L1022 130L1008 131L1006 125L1003 122L995 123L993 121L994 116L990 112L988 101L985 98L983 98L982 101L981 99L979 83L983 85L983 83L979 81L981 79L976 75L977 71L970 61L969 62L962 60L961 63L953 64L949 58L951 57L951 55L947 52L945 45L938 37L935 38L933 33L930 33L929 28L925 26L926 16L922 12L924 12L922 7L925 3L923 2L924 0L926 1L933 -3L932 -5L935 -4L937 0L947 0L949 -4L956 -8L952 -7L951 -18L952 -20L953 -19L957 -22L955 -22L955 -25L958 -29L957 -32L961 -38L963 -40L964 -39L963 -42L966 -46L964 -48L966 -50L967 -57L971 -58L969 -60L971 -62L972 -61L975 -65L985 -57L987 -56L986 -58L988 -58L990 -55L995 -53L995 -55L997 -50L1000 -50L1000 -48L1006 -49L1007 -46L1010 -46L1018 -49L1020 -43L1027 -48L1031 -48L1042 -39L1045 -43L1048 -53L1053 -55L1055 -59L1053 -63L1055 -63L1055 -65L1059 -61L1065 -60L1068 -62L1068 -60L1074 -60z"/></g><g><path class="class-3 leaflet-clickable" stroke-linejoin="round" stroke-linecap="round" fill-rule="evenodd" stroke="#005540" stroke-opacity="1" stroke-width="0.5" fill="#086" fill-opacity="0.5" d="M1099 -176L1090 -159L1088 -156L1087 -157L1085 -155L1086 -154L1071 -123L1073 -122L1073 -120L1070 -121L1070 -115L1072 -115L1071 -114L1073 -111L1074 -101L1073 -89L1076 -87L1076 -85L1077 -86L1077 -79L1079 -77L1079 -74L1075 -70L1075 -68L1079 -64L1081 -59L1068 -60L1068 -62L1065 -60L1059 -61L1055 -65L1055 -63L1053 -63L1055 -59L1053 -55L1048 -53L1042 -39L1032 -48L1025 -47L1020 -43L1018 -49L1010 -46L1006 -47L1006 -49L1000 -48L1000 -50L997 -50L995 -55L995 -53L992 -53L989 -58L987 -58L987 -56L975 -65L972 -61L971 -62L969 -60L971 -58L968 -57L964 -48L966 -46L963 -42L964 -39L963 -40L957 -32L958 -29L955 -25L955 -22L957 -22L954 -21L953 -19L952 -20L951 -18L952 -7L956 -9L947 -1L937 0L936 -4L932 -5L932 -8L929 -7L929 -10L918 -18L916 -27L912 -29L908 -27L907 -30L904 -31L899 -31L896 -29L895 -31L892 -32L892 -34L885 -44L888 -47L882 -55L885 -57L885 -63L882 -66L879 -66L879 -68L875 -68L875 -71L878 -73L876 -75L872 -75L871 -73L864 -75L863 -73L861 -73L858 -75L859 -77L858 -81L856 -82L856 -86L859 -89L856 -100L853 -102L851 -106L852 -107L849 -111L845 -111L844 -113L846 -116L844 -117L844 -121L837 -131L837 -137L839 -139L840 -137L850 -137L857 -140L857 -142L861 -141L864 -144L862 -146L863 -150L859 -157L859 -163L856 -165L857 -166L854 -170L854 -183L851 -186L852 -189L855 -190L853 -200L856 -202L857 -205L856 -209L858 -211L856 -212L861 -215L861 -218L858 -218L857 -220L858 -244L861 -242L860 -245L857 -246L858 -248L856 -250L858 -251L858 -253L856 -253L855 -258L847 -261L1024 -261L1028 -255L1030 -248L1035 -241L1037 -225L1043 -213L1050 -206L1050 -204L1056 -203L1061 -196L1066 -193L1075 -191L1084 -184L1088 -184L1096 -177L1098 -179L1099 -177z"/></g><g><path class="class-3 leaflet-clickable" stroke-linejoin="round" stroke-linecap="round" fill-rule="evenodd" stroke="#005540" stroke-opacity="1" stroke-width="0.5" fill="#086" fill-opacity="0.5" d="M580 354L582 354L579 355L579 353z"/></g><g><path class="class-3 leaflet-clickable" stroke-linejoin="round" stroke-linecap="round" fill-rule="evenodd" stroke="#005540" stroke-opacity="1" stroke-width="0.5" fill="#086" fill-opacity="0.5" d="M750 330L753 333L752 336L750 336L747 333L749 331z"/></g><g><path class="class-3 leaflet-clickable" stroke-linejoin="round" stroke-linecap="round" fill-rule="evenodd" stroke="#005540" stroke-opacity="1" stroke-width="0.5" fill="#086" fill-opacity="0.5" d="M1091 325L1087 329L1084 329L1085 333L1082 334L1080 338L1069 329L1053 322L1053 318L1051 317L1048 319L1046 317L1036 314L1040 314L1041 316L1044 310L1046 312L1051 309L1054 310L1054 308L1061 308L1065 302L1065 299L1072 302L1080 302L1082 299L1085 298L1085 300L1091 307L1091 314L1089 319L1091 323z"/></g><g><path class="class-3 leaflet-clickable" stroke-linejoin="round" stroke-linecap="round" fill-rule="evenodd" stroke="#005540" stroke-opacity="1" stroke-width="0.5" fill="#086" fill-opacity="0.5" d="M758 309L758 308z"/></g></svg>