<svg xmlns="http://www.w3.org/2000/svg" class="leaflet-zoom-animated" style="transform: translate(-279px, -166px);" width="1952" height="832" viewBox="-279 -166 1952 832"><g><path class="class-2 leaflet-clickable" stroke-linejoin="round" stroke-linecap="round" fill-rule="evenodd" stroke="#005540" stroke-opacity="1" stroke-width="0.5" fill="#00cc99" fill-opacity="0.5" d="M739 417L738 414L744 414L747 412L746 411L752 411L757 415L757 417L759 417L762 420L761 422L758 421L756 424L753 423L750 426L743 420L742 417L740 418z"/></g><g><path class="class-1 leaflet-clickable" stroke-linejoin="round" stroke-linecap="round" fill-rule="evenodd" stroke="#005540" stroke-opacity="1" stroke-width="0.5" fill="#7fd" fill-opacity="0.5" d="M754 392L750 397L747 398L751 399L751 401L747 407L749 410L746 411L747 412L745 414L739 414L740 409L737 407L733 407L732 409L731 406L733 404L731 403L731 405L728 404L726 408L724 408L723 410L723 408L720 405L720 400L717 401L712 398L712 391L717 390L719 388L723 379L722 378L730 376L732 372L733 375L739 376L739 372L743 370L742 373L745 376L748 375L747 376L749 376L751 379L748 383L749 385L744 384L741 388L743 387L741 396L746 395L752 389L754 391z"/></g><g><path class="class-1 leaflet-clickable" stroke-linejoin="round" stroke-linecap="round" fill-rule="evenodd" stroke="#005540" stroke-opacity="1" stroke-width="0.5" fill="#7fd" fill-opacity="0.5" d="M373 444L373 444z"/></g><g><path class="class-1 leaflet-clickable" stroke-linejoin="round" stroke-linecap="round" fill-rule="evenodd" stroke="#005540" stroke-opacity="1" stroke-width="0.5" fill="#7fd" fill-opacity="0.5" d="M458 432L460 434L459 435L457 433L458 432z"/></g><g><path class="class-1 leaflet-clickable" stroke-linejoin="round" stroke-linecap="round" fill-rule="evenodd" stroke="#005540" stroke-opacity="1" stroke-width="0.5" fill="#7fd" fill-opacity="0.5" d="M629 429L623 436L609 426L602 424L603 425L606 422L607 423L615 421L614 420L616 416L621 419L625 416L629 420L629 429z"/></g><g><path class="class-1 leaflet-clickable" stroke-linejoin="round" stroke-linecap="round" fill-rule="evenodd" stroke="#005540" stroke-opacity="1" stroke-width="0.5" fill="#7fd" fill-opacity="0.5" d="M462 422L462 421z"/></g><g><path class="class-0 leaflet-clickable" stroke-linejoin="round" stroke-linecap="round" fill-rule="evenodd" stroke="#005540" stroke-opacity="1" stroke-width="0.5" fill="#ddfff6" fill-opacity="0.5" d="M903 470L906 473L907 472L907 474L911 476L910 477L915 481L920 483L921 488L927 491L926 498L897 498L886 518L889 522L886 527L887 531L885 535L857 507L849 501L844 500L842 496L844 495L844 492L842 489L848 473L856 466L856 464L860 460L859 458L862 453L865 455L865 457L867 457L866 459L869 465L870 464L872 466L871 467L872 466L874 468L878 463L883 462L882 461L888 458L888 456L891 454L894 455L894 459L898 460L898 466L903 467L904 470z"/></g><g><path class="class-0 leaflet-clickable" stroke-linejoin="round" stroke-linecap="round" fill-rule="evenodd" stroke="#005540" stroke-opacity="1" stroke-width="0.5" fill="#ddfff6" fill-opacity="0.5" d="M354 197L353 197z"/></g><g><path class="class-0 leaflet-clickable" stroke-linejoin="round" stroke-linecap="round" fill-rule="evenodd" stroke="#005540" stroke-opacity="1" stroke-width="0.5" fill="#ddfff6" fill-opacity="0.5" d="M362 195L364 201L363 204L359 202L362 199L362 196z"/></g><g><path class="class-0 leaflet-clickable" stroke-linejoin="round" stroke-linecap="round" fill-rule="evenodd" stroke="#005540" stroke-opacity="1" stroke-width="0.5" fill="#ddfff6" fill-opacity="0.5" d="M415 187L418 189L417 190L416 188z"/></g><g><path class="class-0 leaflet-clickable" stroke-linejoin="round" stroke-linecap="round" fill-rule="evenodd" stroke="#005540" stroke-opacity="1" stroke-width="0.5" fill="#ddfff6" fill-opacity="0.5" d="M401 176L401 177z"/></g><g><path class="class-0 leaflet-clickable" stroke-linejoin="round" stroke-linecap="round" fill-rule="evenodd" stroke="#005540" stroke-opacity="1" stroke-width="0.5" fill="#ddfff6" fill-opacity="0.5" d="M401 165L404 167L404 170L406 172L409 171L409 179L399 168L400 165z"/></g><g><path class="class-0 leaflet-clickable" stroke-linejoin="round" stroke-linecap="round" fill-rule="evenodd" stroke="#005540" stroke-opacity="1" stroke-width="0.5" fill="#ddfff6" fill-opacity="0.5" d="M291 174L293 177L292 182L290 177L291 174z"/></g><g><path class="class-0 leaflet-clickable" stroke-linejoin="round" stroke-linecap="round" fill-rule="evenodd" stroke="#005540" stroke-opacity="1" stroke-width="0.5" fill="#ddfff6" fill-opacity="0.5" d="M380 153L380 154z"/></g><g><path class="class-0 leaflet-clickable" stroke-linejoin="round" stroke-linecap="round" fill-rule="evenodd" stroke="#005540" stroke-opacity="1" stroke-width="0.5" fill="#ddfff6" fill-opacity="0.5" d="M373 112L373 112z"/></g><g><path class="class-0 leaflet-clickable" stroke-linejoin="round" stroke-linecap="round" fill-rule="evenodd" stroke="#005540" stroke-opacity="1" stroke-width="0.5" fill="#ddfff6" fill-opacity="0.5" d="M373 105L375 107L374 108L372 108L372 105z"/></g><g><path class="class-0 leaflet-clickable" stroke-linejoin="round" stroke-linecap="round" fill-rule="evenodd" stroke="#005540" stroke-opacity="1" stroke-width="0.5" fill="#ddfff6" fill-opacity="0.5" d="M371 86L368 88L366 93L368 95L368 102L371 103L372 105L372 110L370 113L370 123L374 129L374 137L376 142L375 149L381 157L381 159L384 159L398 172L401 182L403 180L405 184L408 184L410 191L416 195L415 197L417 199L417 205L385 205L388 201L387 198L389 194L387 190L382 186L382 184L379 181L377 181L376 177L373 176L373 174L351 159L352 157L349 153L349 146L343 140L344 134L338 127L337 128L336 119L329 112L330 109L328 106L329 107L330 104L324 99L324 96L319 88L319 85L373 80L371 86z"/></g><g><path class="class-0 leaflet-clickable" stroke-linejoin="round" stroke-linecap="round" fill-rule="evenodd" stroke="#005540" stroke-opacity="1" stroke-width="0.5" fill="#ddfff6" fill-opacity="0.5" d="M996 443L997 440L997 442z"/></g><g><path class="class-0 leaflet-clickable" stroke-linejoin="round" stroke-linecap="round" fill-rule="evenodd" stroke="#005540" stroke-opacity="1" stroke-width="0.5" fill="#ddfff6" fill-opacity="0.5" d="M998 435L998 437L998 435z"/></g><g><path class="class-0 leaflet-clickable" stroke-linejoin="round" stroke-linecap="round" fill-rule="evenodd" stroke="#005540" stroke-opacity="1" stroke-width="0.5" fill="#ddfff6" fill-opacity="0.5" d="M1010 391L1004 398L1004 394L1006 391L1011 390z"/></g><g><path class="class-0 leaflet-clickable" stroke-linejoin="round" stroke-linecap="round" fill-rule="evenodd" stroke="#005540" stroke-opacity="1" stroke-width="0.5" fill="#ddfff6" fill-opacity="0.5" d="M955 454L954 450L956 449L956 425L955 418L952 415L955 413L956 414L956 412L958 412L958 410L963 407L963 405L966 404L967 401L970 401L972 398L978 397L982 394L989 386L992 380L992 368L999 370L1002 369L1003 366L1008 373L1008 370L1009 371L1009 379L1006 385L994 399L994 409L993 410L994 406L993 409L987 412L989 416L994 413L995 414L994 418L989 420L989 424L992 421L994 421L992 423L984 449L981 449L981 443L976 443L976 441L970 441L968 447L965 449L962 455L958 452L956 454z"/></g><g><path class="class-0 leaflet-clickable" stroke-linejoin="round" stroke-linecap="round" fill-rule="evenodd" stroke="#005540" stroke-opacity="1" stroke-width="0.5" fill="#ddfff6" fill-opacity="0.5" d="M1002 365L1000 367L995 368L997 366L1001 366z"/></g><g><path class="class-0 leaflet-clickable" stroke-linejoin="round" stroke-linecap="round" fill-rule="evenodd" stroke="#005540" stroke-opacity="1" stroke-width="0.5" fill="#ddfff6" fill-opacity="0.5" d="M624 238L632 241L634 249L632 252L633 261L629 268L633 272L630 272L629 275L635 281L634 282L641 287L643 287L648 279L652 294L651 296L648 297L644 297L643 295L633 295L621 306L622 315L620 315L620 317L617 319L614 326L613 331L615 336L611 337L611 344L606 347L602 342L600 342L600 340L598 340L596 343L594 341L593 339L597 337L594 333L595 332L587 332L585 328L582 329L580 327L578 322L579 321L576 316L574 317L573 308L575 309L573 307L572 302L567 297L564 297L564 299L560 299L556 289L546 280L544 271L546 269L545 268L550 265L549 264L552 267L556 267L561 263L559 264L559 258L562 257L561 254L566 246L568 236L569 237L571 234L573 237L574 236L577 239L578 238L584 243L592 243L593 245L599 243L604 247L612 235L616 237L621 237z"/></g><g><path class="class-0 leaflet-clickable" stroke-linejoin="round" stroke-linecap="round" fill-rule="evenodd" stroke="#005540" stroke-opacity="1" stroke-width="0.5" fill="#ddfff6" fill-opacity="0.5" d="M927 384L927 391L931 391L932 394L935 393L940 397L939 398L945 404L948 412L955 418L955 457L914 457L914 453L904 451L901 449L902 448L899 451L899 455L887 449L887 444L883 442L880 438L883 436L891 436L894 438L911 428L920 420L920 412L926 405L925 391L927 384z"/></g><g><path class="class-0 leaflet-clickable" stroke-linejoin="round" stroke-linecap="round" fill-rule="evenodd" stroke="#005540" stroke-opacity="1" stroke-width="0.5" fill="#ddfff6" fill-opacity="0.5" d="M423 186L422 188L422 186z"/></g><g><path class="class-0 leaflet-clickable" stroke-linejoin="round" stroke-linecap="round" fill-rule="evenodd" stroke="#005540" stroke-opacity="1" stroke-width="0.5" fill="#ddfff6" fill-opacity="0.5" d="M429 173L431 179L428 186L423 182L424 175L428 173z"/></g><g><path class="class-0 leaflet-clickable" stroke-linejoin="round" stroke-linecap="round" fill-rule="evenodd" stroke="#005540" stroke-opacity="1" stroke-width="0.5" fill="#ddfff6" fill-opacity="0.5" d="M374 106L376 106L375 107z"/></g><g><path class="class-0 leaflet-clickable" stroke-linejoin="round" stroke-linecap="round" fill-rule="evenodd" stroke="#005540" stroke-opacity="1" stroke-width="0.5" fill="#ddfff6" fill-opacity="0.5" d="M371 86L451 115L456 118L509 118L508 120L506 120L507 123L510 125L509 126L511 126L508 126L508 129L505 129L505 132L507 135L506 136L513 141L512 144L514 145L512 145L512 158L514 158L514 160L511 160L512 166L510 168L510 182L513 186L515 196L503 198L502 202L506 209L505 210L509 213L511 217L513 222L511 224L514 231L517 231L511 239L511 241L509 241L506 244L506 246L498 248L498 244L496 241L491 238L486 238L482 229L474 227L470 223L467 223L468 209L466 207L465 208L461 206L461 208L459 208L459 206L453 204L447 195L443 193L437 186L438 184L431 180L431 173L429 170L428 171L426 169L427 167L423 162L421 156L418 155L418 148L410 134L411 122L405 119L398 118L398 114L393 110L385 113L376 106L369 103L367 96L368 95L366 93L368 91L368 87L371 87zM462 205L462 206z"/></g><g><path class="class-0 leaflet-clickable" stroke-linejoin="round" stroke-linecap="round" fill-rule="evenodd" stroke="#005540" stroke-opacity="1" stroke-width="0.5" fill="#ddfff6" fill-opacity="0.5" d="M712 211L715 213L710 216L710 218L714 219L716 228L714 233L718 234L716 238L722 241L721 247L725 250L727 249L728 255L731 253L733 257L735 255L741 255L741 269L744 269L734 279L730 278L727 281L727 287L724 286L720 288L719 291L715 292L715 294L717 294L718 296L716 303L721 309L718 312L712 312L709 317L710 322L707 321L705 323L707 323L706 325L703 325L704 323L702 323L701 325L700 324L701 327L698 326L698 313L696 310L697 304L694 302L695 297L690 292L690 285L692 283L690 282L690 277L692 275L703 276L703 274L699 273L694 268L696 268L691 265L688 254L681 247L691 237L693 240L694 239L696 235L696 229L690 229L689 226L693 222L699 220L700 213L704 210L708 214L710 213z"/></g><g><path class="class-1 leaflet-clickable" stroke-linejoin="round" stroke-linecap="round" fill-rule="evenodd" stroke="#005540" stroke-opacity="1" stroke-width="0.5" fill="#7fd" fill-opacity="0.5" d="M730 373L729 376L725 378L724 376L719 386L720 388L712 391L712 398L710 397L710 402L706 404L703 401L703 398L701 398L697 394L695 385L698 382L706 382L707 379L708 380L708 375L714 375L716 373L713 372L715 366L722 370L727 364L729 373z"/></g><g><path class="class-0 leaflet-clickable" stroke-linejoin="round" stroke-linecap="round" fill-rule="evenodd" stroke="#005540" stroke-opacity="1" stroke-width="0.5" fill="#ddfff6" fill-opacity="0.5" d="M914 457L914 470L903 470L904 467L898 465L899 462L895 459L895 455L891 455L884 460L883 459L883 461L881 463L877 463L877 465L874 468L872 466L871 467L872 466L870 464L868 464L866 459L867 456L865 456L866 455L863 453L860 454L860 460L856 464L854 469L852 467L854 463L852 463L848 458L843 456L844 452L842 448L858 442L871 442L874 440L874 438L879 437L882 442L886 442L887 449L890 450L891 452L899 456L899 450L902 448L902 450L908 453L914 453L914 455z"/></g><g><path class="class-0 leaflet-clickable" stroke-linejoin="round" stroke-linecap="round" fill-rule="evenodd" stroke="#005540" stroke-opacity="1" stroke-width="0.5" fill="#ddfff6" fill-opacity="0.5" d="M706 325L708 329L706 331L708 335L706 337L711 337L719 341L720 337L728 346L741 346L747 350L741 357L743 357L743 361L739 365L742 368L742 370L738 372L740 372L739 376L735 376L732 372L729 373L727 364L722 370L720 370L716 366L714 366L714 368L711 369L702 363L700 363L698 367L694 368L690 366L687 362L674 360L678 355L678 351L676 348L679 344L677 339L678 338L675 337L673 341L672 340L671 343L668 344L666 342L666 339L664 340L659 335L657 330L658 328L656 325L658 323L656 323L658 320L660 322L668 320L681 308L681 302L684 301L685 296L687 299L692 295L695 296L694 301L697 303L697 326L700 327L700 324L701 325L702 323L704 323L703 325L705 325z"/></g><g><path class="class-2 leaflet-clickable" stroke-linejoin="round" stroke-linecap="round" fill-rule="evenodd" stroke="#005540" stroke-opacity="1" stroke-width="0.5" fill="#00cc99" fill-opacity="0.5" d="M666 355L665 356L667 358L662 359L658 364L654 364L648 361L645 362L643 360L648 352L648 348L654 347L656 345L660 347L659 348L662 348L662 352L666 355z"/></g><g><path class="class-1 leaflet-clickable" stroke-linejoin="round" stroke-linecap="round" fill-rule="evenodd" stroke="#005540" stroke-opacity="1" stroke-width="0.5" fill="#7fd" fill-opacity="0.5" d="M646 362L648 361L656 365L666 358L667 357L665 357L667 355L669 355L674 361L672 361L673 362L671 367L673 370L671 370L671 372L668 374L668 376L661 385L664 388L661 394L659 396L653 396L644 402L643 400L639 402L639 405L641 404L646 407L646 409L644 410L647 415L646 416L651 417L648 423L646 422L642 424L637 430L635 428L629 429L629 421L625 416L621 419L616 416L614 421L607 423L606 422L603 425L599 423L599 421L598 422L595 420L593 415L591 415L583 404L579 394L587 392L589 390L588 388L590 385L591 386L593 382L598 380L605 382L612 390L611 385L609 385L613 381L612 376L622 374L621 373L624 370L619 365L620 363L618 361L614 361L613 357L609 355L611 347L613 345L614 346L613 343L616 344L615 347L619 344L616 339L617 337L623 339L623 341L620 342L621 343L619 347L621 351L621 347L624 341L627 343L624 352L625 353L629 353L631 350L633 350L632 347L634 345L636 347L635 348L639 350L637 356L633 356L629 360L627 360L629 362L628 365L624 367L624 369L628 369L629 371L624 373L626 373L627 377L637 379L639 374L642 375L646 371L647 372L649 368L645 365L646 363z"/></g><g><path class="class-1 leaflet-clickable" stroke-linejoin="round" stroke-linecap="round" fill-rule="evenodd" stroke="#005540" stroke-opacity="1" stroke-width="0.5" fill="#7fd" fill-opacity="0.5" d="M714 368L713 371L714 373L716 373L712 376L708 375L709 376L707 382L698 382L695 385L697 393L701 398L699 402L700 405L687 406L684 402L682 402L682 404L678 404L676 402L676 400L678 399L675 398L675 396L673 396L670 399L664 399L664 397L661 394L664 391L661 384L664 382L668 374L671 373L670 370L672 370L671 367L673 363L672 362L674 360L680 360L682 362L684 361L692 367L698 367L699 363L701 363L711 369L713 368z"/></g><g><path class="class-0 leaflet-clickable" stroke-linejoin="round" stroke-linecap="round" fill-rule="evenodd" stroke="#005540" stroke-opacity="1" stroke-width="0.5" fill="#ddfff6" fill-opacity="0.5" d="M700 397L704 399L703 401L706 404L705 405L707 408L705 408L703 412L704 419L701 420L699 426L693 433L690 432L691 439L694 441L694 444L690 441L687 442L685 440L679 439L675 441L669 438L666 439L665 441L666 446L659 449L659 455L629 445L623 436L629 429L634 428L637 430L640 427L640 425L641 426L641 424L646 422L647 423L649 421L650 417L646 417L647 415L644 410L646 408L645 406L639 405L639 402L642 401L641 400L646 401L652 396L659 395L663 395L662 396L664 396L666 400L670 400L671 397L675 396L675 398L678 399L676 399L676 402L678 404L682 404L682 402L684 402L687 406L697 406L700 405L699 402L701 398z"/></g><g><path class="class-0 leaflet-clickable" stroke-linejoin="round" stroke-linecap="round" fill-rule="evenodd" stroke="#005540" stroke-opacity="1" stroke-width="0.5" fill="#ddfff6" fill-opacity="0.5" d="M690 292L692 295L687 299L685 297L684 301L682 302L681 308L676 313L668 320L663 322L660 322L658 320L656 323L658 323L656 325L660 336L664 340L666 339L666 342L668 344L671 343L675 337L678 338L677 339L679 343L677 344L676 348L678 350L678 355L675 359L674 360L673 358L666 355L662 352L662 348L661 349L656 345L654 347L648 348L648 352L643 359L646 363L646 366L649 368L648 371L646 371L642 375L639 374L639 378L637 379L633 379L626 376L624 372L628 371L628 369L624 369L624 367L628 365L629 362L627 360L637 355L639 350L637 348L636 349L634 345L632 347L633 350L631 350L630 353L624 352L627 349L627 344L626 342L624 342L622 343L621 351L619 347L621 343L620 342L623 341L623 339L620 337L616 338L619 343L616 347L616 343L614 343L612 347L610 346L611 338L615 336L613 331L616 319L621 315L622 316L621 306L625 302L627 302L627 299L629 299L631 295L643 295L646 297L651 296L652 291L648 283L648 280L653 281L652 278L661 279L666 281L668 284L672 285L671 286L673 288L679 286L682 288L683 291L687 293L690 292z"/></g><g><path class="class-0 leaflet-clickable" stroke-linejoin="round" stroke-linecap="round" fill-rule="evenodd" stroke="#005540" stroke-opacity="1" stroke-width="0.5" fill="#ddfff6" fill-opacity="0.5" d="M992 368L992 380L989 386L978 398L972 398L966 404L964 404L963 407L961 407L962 408L956 414L955 413L952 415L949 413L945 407L945 404L942 400L940 400L936 393L933 394L928 391L927 384L929 379L939 374L965 370L969 367L974 367L977 365L992 368z"/></g><g><path class="class-0 leaflet-clickable" stroke-linejoin="round" stroke-linecap="round" fill-rule="evenodd" stroke="#005540" stroke-opacity="1" stroke-width="0.5" fill="#ddfff6" fill-opacity="0.5" d="M942 341L945 342L946 344L944 346L941 343L942 341z"/></g><g><path class="class-1 leaflet-clickable" stroke-linejoin="round" stroke-linecap="round" fill-rule="evenodd" stroke="#005540" stroke-opacity="1" stroke-width="0.5" fill="#7fd" fill-opacity="0.5" d="M759 349L761 357L769 366L767 372L768 378L775 392L782 398L789 407L792 419L797 424L797 426L800 427L802 432L807 435L816 435L826 440L833 449L842 447L843 456L851 460L853 463L853 470L851 470L848 473L824 472L825 470L820 467L816 462L818 460L817 459L815 459L809 464L806 464L802 459L804 454L803 449L795 449L796 448L795 449L793 447L788 438L784 437L783 444L781 440L777 439L775 441L772 437L769 436L771 431L770 428L777 422L768 419L769 418L767 416L767 414L770 411L770 407L774 401L767 398L764 402L760 400L761 397L759 395L760 393L761 394L764 392L761 391L759 384L757 384L756 390L754 391L752 388L751 391L746 395L741 396L742 395L740 392L743 390L744 387L742 388L746 383L746 385L748 385L749 380L751 378L747 376L748 375L745 376L742 373L743 370L742 371L739 365L744 361L741 356L743 357L744 353L747 350L739 346L745 346L748 344L754 347L757 351L758 349z"/></g><g><path class="class-0 leaflet-clickable" stroke-linejoin="round" stroke-linecap="round" fill-rule="evenodd" stroke="#005540" stroke-opacity="1" stroke-width="0.5" fill="#ddfff6" fill-opacity="0.5" d="M759 349L757 351L749 344L747 344L746 346L739 345L737 347L730 345L728 346L720 337L719 341L716 339L712 339L711 337L706 337L708 335L706 332L708 330L706 328L707 323L705 323L707 321L710 322L709 317L712 312L718 312L720 309L720 307L716 303L718 296L715 294L715 292L719 291L720 288L724 286L726 287L728 283L727 281L730 278L733 279L744 270L741 269L741 255L735 255L733 257L731 253L728 255L727 249L725 250L721 247L722 241L716 239L718 234L714 233L716 229L714 219L710 218L710 216L715 213L719 216L721 230L725 234L729 246L731 245L733 247L738 248L738 250L744 250L749 255L762 255L767 260L769 259L768 258L773 257L773 263L766 276L761 294L759 336L757 339L758 348z"/></g><g><path class="class-0 leaflet-clickable" stroke-linejoin="round" stroke-linecap="round" fill-rule="evenodd" stroke="#005540" stroke-opacity="1" stroke-width="0.5" fill="#ddfff6" fill-opacity="0.5" d="M712 211L708 215L704 210L700 213L699 220L693 222L689 226L690 229L696 229L696 235L694 239L693 240L691 237L681 247L690 258L689 261L693 267L696 268L694 268L698 271L698 273L703 273L703 276L692 275L690 277L690 281L692 283L690 285L689 292L687 293L679 286L673 288L671 286L672 285L658 278L652 278L653 281L648 279L643 288L634 282L635 281L629 275L629 273L631 271L632 272L629 268L633 262L632 252L634 249L632 241L624 238L624 236L621 233L623 230L619 210L620 209L618 209L618 206L620 206L620 203L626 192L625 191L633 179L637 180L638 177L642 173L643 174L642 172L644 170L645 164L649 159L653 159L656 156L667 159L675 158L677 162L679 162L679 164L680 163L680 165L693 176L697 188L701 193L700 194L712 210z"/></g><g><path class="class-0 leaflet-clickable" stroke-linejoin="round" stroke-linecap="round" fill-rule="evenodd" stroke="#005540" stroke-opacity="1" stroke-width="0.5" fill="#ddfff6" fill-opacity="0.5" d="M633 179L625 191L626 192L620 202L620 207L619 206L618 209L620 209L620 223L622 224L623 229L621 234L624 236L624 238L612 235L610 236L611 237L604 247L600 243L594 245L592 243L587 244L586 242L585 243L579 240L578 238L577 239L574 236L573 237L571 234L570 237L568 237L569 238L566 242L566 246L561 253L562 257L559 258L559 264L561 262L557 267L553 267L542 258L543 257L540 252L532 253L530 251L526 245L526 237L523 233L521 233L521 229L515 231L513 230L514 229L513 230L513 227L511 225L513 222L511 219L512 217L510 216L509 212L505 210L507 209L502 202L502 198L515 196L515 192L510 181L511 176L509 174L509 172L511 172L510 168L512 166L511 160L514 159L512 157L512 145L514 146L511 138L507 137L505 133L505 130L508 129L508 126L511 126L509 126L510 125L507 123L508 121L506 121L509 118L522 118L522 106L525 105L562 106L567 113L570 116L572 116L583 128L593 135L595 135L595 137L597 137L598 143L602 148L602 156L605 159L605 161L609 165L613 166L612 167L615 170L622 172L633 179z"/></g><g><path class="class-3 leaflet-clickable" stroke-linejoin="round" stroke-linecap="round" fill-rule="evenodd" stroke="#005540" stroke-opacity="1" stroke-width="0.5" fill="#086" fill-opacity="0.5" d="M732 427L735 430L739 428L737 434L738 441L737 442L735 440L730 444L724 441L720 436L725 425L732 427z"/></g><g><path class="class-3 leaflet-clickable" stroke-linejoin="round" stroke-linecap="round" fill-rule="evenodd" stroke="#005540" stroke-opacity="1" stroke-width="0.5" fill="#086" fill-opacity="0.5" d="M712 398L717 401L720 400L720 407L723 409L722 410L726 407L726 405L731 405L731 403L732 409L734 407L737 407L740 410L738 414L740 418L740 428L735 430L732 427L732 421L730 419L729 414L723 421L725 425L724 430L721 431L722 433L719 436L715 434L716 435L714 435L712 438L708 438L702 444L698 439L699 438L697 437L698 434L695 431L704 418L702 412L705 411L705 403L709 403L709 399L711 398z"/></g><g><path class="class-3 leaflet-clickable" stroke-linejoin="round" stroke-linecap="round" fill-rule="evenodd" stroke="#005540" stroke-opacity="1" stroke-width="0.5" fill="#086" fill-opacity="0.5" d="M732 427L728 427L723 423L728 414L732 421L732 426z"/></g><g><path class="class-1 leaflet-clickable" stroke-linejoin="round" stroke-linecap="round" fill-rule="evenodd" stroke="#005540" stroke-opacity="1" stroke-width="0.5" fill="#7fd" fill-opacity="0.5" d="M783 443L779 447L774 449L771 448L766 452L764 452L762 446L758 446L758 453L760 451L761 452L759 452L756 455L754 453L750 453L750 455L745 456L744 453L740 454L730 446L730 444L733 441L738 442L737 434L740 428L739 417L741 417L750 426L753 423L756 425L758 422L762 421L759 417L756 416L757 415L755 413L753 413L753 411L748 412L749 411L747 408L752 401L750 398L747 398L750 397L756 390L757 384L760 385L760 389L764 392L759 395L761 397L760 400L764 402L767 398L773 401L767 416L769 418L768 419L777 422L775 424L776 425L772 424L769 437L770 436L775 441L779 439L783 443z"/></g><g><path class="class-0 leaflet-clickable" stroke-linejoin="round" stroke-linecap="round" fill-rule="evenodd" stroke="#005540" stroke-opacity="1" stroke-width="0.5" fill="#ddfff6" fill-opacity="0.5" d="M848 473L842 489L844 492L843 496L845 500L839 497L829 495L817 496L812 501L808 501L798 506L797 505L794 508L785 508L776 505L773 502L759 501L749 494L742 493L746 490L745 487L750 485L749 484L752 481L752 477L754 475L749 474L748 470L747 471L747 464L743 460L744 456L748 454L749 455L751 453L755 453L758 455L760 452L759 451L758 453L757 448L762 445L764 452L771 448L776 449L783 443L784 437L790 440L795 449L803 449L804 454L802 459L806 463L809 464L815 459L817 459L818 460L816 462L820 467L825 470L824 471L843 473z"/></g><g><path class="class-0 leaflet-clickable" stroke-linejoin="round" stroke-linecap="round" fill-rule="evenodd" stroke="#005540" stroke-opacity="1" stroke-width="0.5" fill="#ddfff6" fill-opacity="0.5" d="M720 435L724 441L728 441L730 446L735 450L734 451L737 452L735 452L738 454L744 454L743 460L747 464L747 471L748 470L749 473L753 475L752 480L749 484L750 485L746 487L745 491L741 493L736 487L734 488L724 484L716 484L708 478L684 470L685 469L680 465L676 464L667 455L659 452L660 448L666 445L666 439L668 438L672 438L672 440L674 441L690 441L692 443L693 442L693 444L694 441L692 441L691 439L690 432L693 433L695 431L698 434L697 437L702 444L708 438L712 438L716 434L719 436z"/></g><g><path class="class-0 leaflet-clickable" stroke-linejoin="round" stroke-linecap="round" fill-rule="evenodd" stroke="#005540" stroke-opacity="1" stroke-width="0.5" fill="#ddfff6" fill-opacity="0.5" d="M567 371L566 371z"/></g><g><path class="class-0 leaflet-clickable" stroke-linejoin="round" stroke-linecap="round" fill-rule="evenodd" stroke="#005540" stroke-opacity="1" stroke-width="0.5" fill="#ddfff6" fill-opacity="0.5" d="M562 368L564 369L563 370L561 368z"/></g><g><path class="class-0 leaflet-clickable" stroke-linejoin="round" stroke-linecap="round" fill-rule="evenodd" stroke="#005540" stroke-opacity="1" stroke-width="0.5" fill="#ddfff6" fill-opacity="0.5" d="M557 363L559 363L560 366L558 366L557 364z"/></g><g><path class="class-0 leaflet-clickable" stroke-linejoin="round" stroke-linecap="round" fill-rule="evenodd" stroke="#005540" stroke-opacity="1" stroke-width="0.5" fill="#ddfff6" fill-opacity="0.5" d="M557 361L556 362z"/></g><g><path class="class-0 leaflet-clickable" stroke-linejoin="round" stroke-linecap="round" fill-rule="evenodd" stroke="#005540" stroke-opacity="1" stroke-width="0.5" fill="#ddfff6" fill-opacity="0.5" d="M609 346L611 347L609 356L613 356L614 360L618 361L620 363L619 366L624 370L621 373L622 374L612 376L613 381L609 385L612 387L612 389L601 380L592 382L589 388L587 386L582 386L590 376L590 367L589 368L584 364L580 356L580 349L577 343L578 342L578 344L580 341L585 343L583 339L583 333L586 329L587 332L595 332L594 333L597 337L593 339L595 343L599 340L604 344L605 347L609 345z"/></g><g><path class="class-0 leaflet-clickable" stroke-linejoin="round" stroke-linecap="round" fill-rule="evenodd" stroke="#005540" stroke-opacity="1" stroke-width="0.5" fill="#ddfff6" fill-opacity="0.5" d="M498 248L502 248L507 244L508 241L512 239L516 229L522 230L521 233L523 233L526 236L526 245L532 253L541 253L543 256L542 258L548 262L548 264L550 264L547 267L545 267L546 270L544 271L546 275L546 280L548 280L551 286L556 289L559 295L558 296L561 299L564 299L564 297L570 299L572 305L575 308L573 308L574 316L577 317L579 321L578 322L580 324L580 328L586 329L583 333L583 340L584 339L585 342L584 343L580 341L579 344L561 325L560 321L554 315L549 307L531 294L515 274L502 269L499 265L495 265L493 257L498 248z"/></g><g><path class="class-0 leaflet-clickable" stroke-linejoin="round" stroke-linecap="round" fill-rule="evenodd" stroke="#005540" stroke-opacity="1" stroke-width="0.5" fill="#ddfff6" fill-opacity="0.5" d="M485 302L483 302L483 297L485 301z"/></g><g><path class="class-0 leaflet-clickable" stroke-linejoin="round" stroke-linecap="round" fill-rule="evenodd" stroke="#005540" stroke-opacity="1" stroke-width="0.5" fill="#ddfff6" fill-opacity="0.5" d="M473 293L473 296L472 293z"/></g><g><path class="class-0 leaflet-clickable" stroke-linejoin="round" stroke-linecap="round" fill-rule="evenodd" stroke="#005540" stroke-opacity="1" stroke-width="0.5" fill="#ddfff6" fill-opacity="0.5" d="M472 291L472 292z"/></g><g><path class="class-0 leaflet-clickable" stroke-linejoin="round" stroke-linecap="round" fill-rule="evenodd" stroke="#005540" stroke-opacity="1" stroke-width="0.5" fill="#ddfff6" fill-opacity="0.5" d="M465 279L468 281L469 284L465 280z"/></g><g><path class="class-0 leaflet-clickable" stroke-linejoin="round" stroke-linecap="round" fill-rule="evenodd" stroke="#005540" stroke-opacity="1" stroke-width="0.5" fill="#ddfff6" fill-opacity="0.5" d="M465 273L464 275L465 273z"/></g><g><path class="class-0 leaflet-clickable" stroke-linejoin="round" stroke-linecap="round" fill-rule="evenodd" stroke="#005540" stroke-opacity="1" stroke-width="0.5" fill="#ddfff6" fill-opacity="0.5" d="M463 263L464 266L463 264z"/></g><g><path class="class-0 leaflet-clickable" stroke-linejoin="round" stroke-linecap="round" fill-rule="evenodd" stroke="#005540" stroke-opacity="1" stroke-width="0.5" fill="#ddfff6" fill-opacity="0.5" d="M457 263L457 265L457 263z"/></g><g><path class="class-0 leaflet-clickable" stroke-linejoin="round" stroke-linecap="round" fill-rule="evenodd" stroke="#005540" stroke-opacity="1" stroke-width="0.5" fill="#ddfff6" fill-opacity="0.5" d="M457 254L457 256L455 256L453 260L454 261L453 258L454 255L456 255z"/></g><g><path class="class-0 leaflet-clickable" stroke-linejoin="round" stroke-linecap="round" fill-rule="evenodd" stroke="#005540" stroke-opacity="1" stroke-width="0.5" fill="#ddfff6" fill-opacity="0.5" d="M452 252L452 252z"/></g><g><path class="class-0 leaflet-clickable" stroke-linejoin="round" stroke-linecap="round" fill-rule="evenodd" stroke="#005540" stroke-opacity="1" stroke-width="0.5" fill="#ddfff6" fill-opacity="0.5" d="M434 224L434 226L433 224z"/></g><g><path class="class-0 leaflet-clickable" stroke-linejoin="round" stroke-linecap="round" fill-rule="evenodd" stroke="#005540" stroke-opacity="1" stroke-width="0.5" fill="#ddfff6" fill-opacity="0.5" d="M437 219L436 219z"/></g><g><path class="class-0 leaflet-clickable" stroke-linejoin="round" stroke-linecap="round" fill-rule="evenodd" stroke="#005540" stroke-opacity="1" stroke-width="0.5" fill="#ddfff6" fill-opacity="0.5" d="M363 208L363 208z"/></g><g><path class="class-0 leaflet-clickable" stroke-linejoin="round" stroke-linecap="round" fill-rule="evenodd" stroke="#005540" stroke-opacity="1" stroke-width="0.5" fill="#ddfff6" fill-opacity="0.5" d="M385 205L418 205L420 212L428 218L431 224L430 225L437 229L435 230L435 232L437 234L439 233L442 235L445 241L448 243L447 244L451 254L451 262L456 268L458 268L459 274L466 285L464 293L467 300L473 302L473 298L476 298L481 302L481 305L485 306L485 308L488 311L488 314L493 317L494 324L490 329L481 334L478 330L476 320L472 316L468 314L456 302L446 297L441 298L431 290L431 287L428 286L433 274L433 261L427 250L420 248L405 236L403 235L400 238L393 231L389 231L386 227L382 227L379 224L378 220L365 209L366 208L378 211L384 208L385 206z"/></g></svg>