<svg xmlns="http://www.w3.org/2000/svg" style="overflow: hidden;" width="700" height="320"><defs><clipPath id="c3-1443580817042-clip"><rect width="629" height="286"/></clipPath><clipPath id="c3-1443580817042-clip-xaxis"><rect x="-41" y="-20" width="702" height="50"/></clipPath><clipPath id="c3-1443580817042-clip-yaxis"><rect x="-39" y="-4" width="60" height="310"/></clipPath><clipPath id="c3-1443580817042-clip-grid"><rect width="629" height="286"/></clipPath><clipPath id="c3-1443580817042-clip-subchart"><rect width="629"/></clipPath></defs><g transform="translate(40.5,4.5)"><text class="c3-text c3-empty" text-anchor="middle" dominant-baseline="middle" x="314.5" y="143" style="opacity: 0;"/><rect class="c3-zoom-rect" width="629" height="286" style="opacity: 0;"/><g clip-path="url(http://pnud.carto.mx/explora?o=2&amp;i=i88#c3-1443580817042-clip)" class="c3-regions" style="visibility: visible;"/><g clip-path="url(http://pnud.carto.mx/explora?o=2&amp;i=i88#c3-1443580817042-clip-grid)" class="c3-grid" style="visibility: visible;"><g class="c3-ygrids"><line class="c3-ygrid" x1="0" x2="629" y1="267" y2="267"/><line class="c3-ygrid" x1="0" x2="629" y1="247" y2="247"/><line class="c3-ygrid" x1="0" x2="629" y1="227" y2="227"/><line class="c3-ygrid" x1="0" x2="629" y1="207" y2="207"/><line class="c3-ygrid" x1="0" x2="629" y1="187" y2="187"/><line class="c3-ygrid" x1="0" x2="629" y1="167" y2="167"/><line class="c3-ygrid" x1="0" x2="629" y1="147" y2="147"/><line class="c3-ygrid" x1="0" x2="629" y1="126" y2="126"/><line class="c3-ygrid" x1="0" x2="629" y1="106" y2="106"/><line class="c3-ygrid" x1="0" x2="629" y1="86" y2="86"/><line class="c3-ygrid" x1="0" x2="629" y1="66" y2="66"/><line class="c3-ygrid" x1="0" x2="629" y1="46" y2="46"/><line class="c3-ygrid" x1="0" x2="629" y1="26" y2="26"/><line class="c3-ygrid" x1="0" x2="629" y1="6" y2="6"/></g><g class="c3-xgrid-focus"><line class="c3-xgrid-focus" x1="-10" x2="-10" y1="0" y2="286" style="visibility: hidden;"/></g></g><g clip-path="url(http://pnud.carto.mx/explora?o=2&amp;i=i88#c3-1443580817042-clip)" class="c3-chart"><g class="c3-event-rects c3-event-rects-single" style="fill-opacity: 0;"><rect class=" c3-event-rect c3-event-rect-0" x="3.5" y="0" width="65" height="286"/><rect class=" c3-event-rect c3-event-rect-1" x="68.5" y="0" width="92.5" height="286"/><rect class=" c3-event-rect c3-event-rect-2" x="161" y="0" width="61.5" height="286"/><rect class=" c3-event-rect c3-event-rect-3" x="222.5" y="0" width="92.5" height="286"/><rect class=" c3-event-rect c3-event-rect-4" x="315" y="0" width="123.5" height="286"/><rect class=" c3-event-rect c3-event-rect-5" x="438.5" y="0" width="123" height="286"/><rect class=" c3-event-rect c3-event-rect-6" x="561.5" y="0" width="64.5" height="286"/></g><g class="c3-chart-bars"><g class="c3-chart-bar c3-target c3-target-México" style="opacity: 1; pointer-events: none;"><g class=" c3-shapes c3-shapes-México c3-bars c3-bars-México" style="cursor: pointer;"/></g><g class="c3-chart-bar c3-target c3-target-Promedio-nacional" style="opacity: 1; pointer-events: none;"><g class=" c3-shapes c3-shapes-Promedio-nacional c3-bars c3-bars-Promedio-nacional" style="cursor: pointer;"/></g></g><g class="c3-chart-lines"><g class="c3-chart-line c3-target c3-target-México" style="opacity: 1; pointer-events: none;"><g class=" c3-shapes c3-shapes-México c3-lines c3-lines-México"><path class=" c3-shape c3-shape c3-line c3-line-México" style="stroke: rgb(204, 204, 204); opacity: 1; fill-opacity: 0; stroke-opacity: 1;" d="M7,117.94620253164555L130,178.07278481012662L192,76.85970464135026L253,24.75000000000001L377,186.08966244725744L500,262.24999999999994L623,206.1318565400844"/></g><g class=" c3-shapes c3-shapes-México c3-areas c3-areas-México"><path class=" c3-shape c3-shape c3-area c3-area-México" style="fill: rgb(204, 204, 204); opacity: 0.2;" d="M 7 117.94620253164555"/></g><g class=" c3-selected-circles c3-selected-circles-México"/><g class=" c3-shapes c3-shapes-México c3-circles c3-circles-México" style="cursor: pointer;"><circle class=" c3-shape c3-shape-0 c3-circle c3-circle-0" r="2.5" style="fill: rgb(204, 204, 204); opacity: 1;" cx="7" cy="117.94620253164555"/><circle class=" c3-shape c3-shape-1 c3-circle c3-circle-1" r="2.5" style="fill: rgb(204, 204, 204); opacity: 1;" cx="130" cy="178.07278481012662"/><circle class=" c3-shape c3-shape-2 c3-circle c3-circle-2" r="2.5" style="fill: rgb(204, 204, 204); opacity: 1;" cx="192" cy="76.85970464135026"/><circle class=" c3-shape c3-shape-3 c3-circle c3-circle-3" r="2.5" style="fill: rgb(204, 204, 204); opacity: 1;" cx="253" cy="24.75000000000001"/><circle class=" c3-shape c3-shape-4 c3-circle c3-circle-4" r="2.5" style="fill: rgb(204, 204, 204); opacity: 1;" cx="377" cy="186.08966244725744"/><circle class=" c3-shape c3-shape-5 c3-circle c3-circle-5" r="2.5" style="fill: rgb(204, 204, 204); opacity: 1;" cx="500" cy="262.24999999999994"/><circle class=" c3-shape c3-shape-6 c3-circle c3-circle-6" r="2.5" style="fill: rgb(204, 204, 204); opacity: 1;" cx="623" cy="206.1318565400844"/></g></g><g class="c3-chart-line c3-target c3-target-Promedio-nacional" style="opacity: 1; pointer-events: none;"><g class=" c3-shapes c3-shapes-Promedio-nacional c3-lines c3-lines-Promedio-nacional"><path class=" c3-shape c3-shape c3-line c3-line-Promedio-nacional" style="stroke: rgb(255, 0, 0); opacity: 1; fill-opacity: 0; stroke-opacity: 1;" d="M7,117.94620253164555L130,178.07278481012662L192,76.85970464135026L253,24.75000000000001L377,186.08966244725744L500,262.24999999999994L623,206.1318565400844"/></g><g class=" c3-shapes c3-shapes-Promedio-nacional c3-areas c3-areas-Promedio-nacional"><path class=" c3-shape c3-shape c3-area c3-area-Promedio-nacional" style="fill: rgb(255, 0, 0); opacity: 0.2;" d="M 7 117.94620253164555"/></g><g class=" c3-selected-circles c3-selected-circles-Promedio-nacional"/><g class=" c3-shapes c3-shapes-Promedio-nacional c3-circles c3-circles-Promedio-nacional" style="cursor: pointer;"><circle class=" c3-shape c3-shape-0 c3-circle c3-circle-0" r="2.5" style="fill: rgb(255, 0, 0); opacity: 1;" cx="7" cy="117.94620253164555"/><circle class=" c3-shape c3-shape-1 c3-circle c3-circle-1" r="2.5" style="fill: rgb(255, 0, 0); opacity: 1;" cx="130" cy="178.07278481012662"/><circle class=" c3-shape c3-shape-2 c3-circle c3-circle-2" r="2.5" style="fill: rgb(255, 0, 0); opacity: 1;" cx="192" cy="76.85970464135026"/><circle class=" c3-shape c3-shape-3 c3-circle c3-circle-3" r="2.5" style="fill: rgb(255, 0, 0); opacity: 1;" cx="253" cy="24.75000000000001"/><circle class=" c3-shape c3-shape-4 c3-circle c3-circle-4" r="2.5" style="fill: rgb(255, 0, 0); opacity: 1;" cx="377" cy="186.08966244725744"/><circle class=" c3-shape c3-shape-5 c3-circle c3-circle-5" r="2.5" style="fill: rgb(255, 0, 0); opacity: 1;" cx="500" cy="262.24999999999994"/><circle class=" c3-shape c3-shape-6 c3-circle c3-circle-6" r="2.5" style="fill: rgb(255, 0, 0); opacity: 1;" cx="623" cy="206.1318565400844"/></g></g></g><g class="c3-chart-arcs" transform="translate(314.5,138)"><text class="c3-chart-arcs-title" style="text-anchor: middle; opacity: 0;"/></g><g class="c3-chart-texts"><g class="c3-chart-text c3-target c3-target-México" style="opacity: 1; pointer-events: none;"><g class=" c3-texts c3-texts-México"/></g><g class="c3-chart-text c3-target c3-target-Promedio-nacional" style="opacity: 1; pointer-events: none;"><g class=" c3-texts c3-texts-Promedio-nacional"/></g></g></g><g clip-path="url(http://pnud.carto.mx/explora?o=2&amp;i=i88#c3-1443580817042-clip-grid)" class="c3-grid c3-grid-lines"><g class="c3-xgrid-lines"/><g class="c3-ygrid-lines"/></g><g class="c3-axis c3-axis-x" clip-path="url(http://pnud.carto.mx/explora?o=2&amp;i=i88#c3-1443580817042-clip-xaxis)" transform="translate(0,286)" style="visibility: visible; opacity: 1;"><text class="c3-axis-x-label" transform="" style="text-anchor: end; font-family: Open Sans,Arial,sans-serif;" x="629" dx="-0.5em" dy="-0.5em"/><g class="tick" style="opacity: 1;" transform="translate(7, 0)"><line y2="6" x1="0" x2="0" style="stroke: rgb(239, 239, 239);"/><text y="9" x="0" style="text-anchor: middle; display: block; font-family: Open Sans,Arial,sans-serif;" transform=""><tspan x="0" dy=".71em" dx="0">2002</tspan></text></g><g class="tick" style="opacity: 1;" transform="translate(130, 0)"><line y2="6" x1="0" x2="0" style="stroke: rgb(239, 239, 239);"/><text y="9" x="0" style="text-anchor: middle; display: block; font-family: Open Sans,Arial,sans-serif;" transform=""><tspan x="0" dy=".71em" dx="0">2004</tspan></text></g><g class="tick" style="opacity: 1;" transform="translate(192, 0)"><line y2="6" x1="0" x2="0" style="stroke: rgb(239, 239, 239);"/><text y="9" x="0" style="text-anchor: middle; display: block; font-family: Open Sans,Arial,sans-serif;" transform=""><tspan x="0" dy=".71em" dx="0">2005</tspan></text></g><g class="tick" style="opacity: 1;" transform="translate(253, 0)"><line y2="6" x1="0" x2="0" style="stroke: rgb(239, 239, 239);"/><text y="9" x="0" style="text-anchor: middle; display: block; font-family: Open Sans,Arial,sans-serif;" transform=""><tspan x="0" dy=".71em" dx="0">2006</tspan></text></g><g class="tick" style="opacity: 1;" transform="translate(377, 0)"><line y2="6" x1="0" x2="0" style="stroke: rgb(239, 239, 239);"/><text y="9" x="0" style="text-anchor: middle; display: block; font-family: Open Sans,Arial,sans-serif;" transform=""><tspan x="0" dy=".71em" dx="0">2008</tspan></text></g><g class="tick" style="opacity: 1;" transform="translate(500, 0)"><line y2="6" x1="0" x2="0" style="stroke: rgb(239, 239, 239);"/><text y="9" x="0" style="text-anchor: middle; display: block; font-family: Open Sans,Arial,sans-serif;" transform=""><tspan x="0" dy=".71em" dx="0">2010</tspan></text></g><g class="tick" style="opacity: 1;" transform="translate(623, 0)"><line y2="6" x1="0" x2="0" style="stroke: rgb(239, 239, 239);"/><text y="9" x="0" style="text-anchor: middle; display: block; font-family: Open Sans,Arial,sans-serif;" transform=""><tspan x="0" dy=".71em" dx="0">2012</tspan></text></g><path class="domain" d="M0,6V0H629V6" style="fill-opacity: 0; stroke: rgb(204, 204, 204);"/></g><g class="c3-axis c3-axis-y" clip-path="url(http://pnud.carto.mx/explora?o=2&amp;i=i88#c3-1443580817042-clip-yaxis)" transform="translate(0,0)" style="visibility: visible; opacity: 1;"><text class="c3-axis-y-label" transform="rotate(-90)" style="text-anchor: end; font-family: Open Sans,Arial,sans-serif;" x="0" dx="-0.5em" dy="1.2em"/><g class="tick" style="opacity: 1;" transform="translate(0,267)"><line x2="-6" style="stroke: rgb(239, 239, 239);"/><text x="-9" y="0" style="text-anchor: end; font-family: Open Sans,Arial,sans-serif;"><tspan x="-9" dy="3">4.0</tspan></text></g><g class="tick" style="opacity: 1;" transform="translate(0,247)"><line x2="-6" style="stroke: rgb(239, 239, 239);"/><text x="-9" y="0" style="text-anchor: end; font-family: Open Sans,Arial,sans-serif;"><tspan x="-9" dy="3">4.2</tspan></text></g><g class="tick" style="opacity: 1;" transform="translate(0,227)"><line x2="-6" style="stroke: rgb(239, 239, 239);"/><text x="-9" y="0" style="text-anchor: end; font-family: Open Sans,Arial,sans-serif;"><tspan x="-9" dy="3">4.4</tspan></text></g><g class="tick" style="opacity: 1;" transform="translate(0,207)"><line x2="-6" style="stroke: rgb(239, 239, 239);"/><text x="-9" y="0" style="text-anchor: end; font-family: Open Sans,Arial,sans-serif;"><tspan x="-9" dy="3">4.6</tspan></text></g><g class="tick" style="opacity: 1;" transform="translate(0,187)"><line x2="-6" style="stroke: rgb(239, 239, 239);"/><text x="-9" y="0" style="text-anchor: end; font-family: Open Sans,Arial,sans-serif;"><tspan x="-9" dy="3">4.8</tspan></text></g><g class="tick" style="opacity: 1;" transform="translate(0,167)"><line x2="-6" style="stroke: rgb(239, 239, 239);"/><text x="-9" y="0" style="text-anchor: end; font-family: Open Sans,Arial,sans-serif;"><tspan x="-9" dy="3">5.0</tspan></text></g><g class="tick" style="opacity: 1;" transform="translate(0,147)"><line x2="-6" style="stroke: rgb(239, 239, 239);"/><text x="-9" y="0" style="text-anchor: end; font-family: Open Sans,Arial,sans-serif;"><tspan x="-9" dy="3">5.2</tspan></text></g><g class="tick" style="opacity: 1;" transform="translate(0,126)"><line x2="-6" style="stroke: rgb(239, 239, 239);"/><text x="-9" y="0" style="text-anchor: end; font-family: Open Sans,Arial,sans-serif;"><tspan x="-9" dy="3">5.4</tspan></text></g><g class="tick" style="opacity: 1;" transform="translate(0,106)"><line x2="-6" style="stroke: rgb(239, 239, 239);"/><text x="-9" y="0" style="text-anchor: end; font-family: Open Sans,Arial,sans-serif;"><tspan x="-9" dy="3">5.6</tspan></text></g><g class="tick" style="opacity: 1;" transform="translate(0,86)"><line x2="-6" style="stroke: rgb(239, 239, 239);"/><text x="-9" y="0" style="text-anchor: end; font-family: Open Sans,Arial,sans-serif;"><tspan x="-9" dy="3">5.8</tspan></text></g><g class="tick" style="opacity: 1;" transform="translate(0,66)"><line x2="-6" style="stroke: rgb(239, 239, 239);"/><text x="-9" y="0" style="text-anchor: end; font-family: Open Sans,Arial,sans-serif;"><tspan x="-9" dy="3">6.0</tspan></text></g><g class="tick" style="opacity: 1;" transform="translate(0,46)"><line x2="-6" style="stroke: rgb(239, 239, 239);"/><text x="-9" y="0" style="text-anchor: end; font-family: Open Sans,Arial,sans-serif;"><tspan x="-9" dy="3">6.2</tspan></text></g><g class="tick" style="opacity: 1;" transform="translate(0,26)"><line x2="-6" style="stroke: rgb(239, 239, 239);"/><text x="-9" y="0" style="text-anchor: end; font-family: Open Sans,Arial,sans-serif;"><tspan x="-9" dy="3">6.4</tspan></text></g><g class="tick" style="opacity: 1;" transform="translate(0,6)"><line x2="-6" style="stroke: rgb(239, 239, 239);"/><text x="-9" y="0" style="text-anchor: end; font-family: Open Sans,Arial,sans-serif;"><tspan x="-9" dy="3">6.6</tspan></text></g><path class="domain" d="M-6,1H0V286H-6" style="fill-opacity: 0; stroke: rgb(204, 204, 204);"/></g><g class="c3-axis c3-axis-y2" transform="translate(629,0)" style="visibility: hidden; opacity: 1;"><text class="c3-axis-y2-label" transform="rotate(-90)" style="text-anchor: end; font-family: Open Sans,Arial,sans-serif;" x="0" dx="-0.5em" dy="-0.5em"/><g class="tick" style="opacity: 1;" transform="translate(0,286)"><line x2="6" y2="0" style="stroke: rgb(239, 239, 239);"/><text x="9" y="0" style="text-anchor: start; font-family: Open Sans,Arial,sans-serif;"><tspan x="9" dy="3">0</tspan></text></g><g class="tick" style="opacity: 1;" transform="translate(0,258)"><line x2="6" y2="0" style="stroke: rgb(239, 239, 239);"/><text x="9" y="0" style="text-anchor: start; font-family: Open Sans,Arial,sans-serif;"><tspan x="9" dy="3">0.1</tspan></text></g><g class="tick" style="opacity: 1;" transform="translate(0,229)"><line x2="6" y2="0" style="stroke: rgb(239, 239, 239);"/><text x="9" y="0" style="text-anchor: start; font-family: Open Sans,Arial,sans-serif;"><tspan x="9" dy="3">0.2</tspan></text></g><g class="tick" style="opacity: 1;" transform="translate(0,201)"><line x2="6" y2="0" style="stroke: rgb(239, 239, 239);"/><text x="9" y="0" style="text-anchor: start; font-family: Open Sans,Arial,sans-serif;"><tspan x="9" dy="3">0.3</tspan></text></g><g class="tick" style="opacity: 1;" transform="translate(0,172)"><line x2="6" y2="0" style="stroke: rgb(239, 239, 239);"/><text x="9" y="0" style="text-anchor: start; font-family: Open Sans,Arial,sans-serif;"><tspan x="9" dy="3">0.4</tspan></text></g><g class="tick" style="opacity: 1;" transform="translate(0,144)"><line x2="6" y2="0" style="stroke: rgb(239, 239, 239);"/><text x="9" y="0" style="text-anchor: start; font-family: Open Sans,Arial,sans-serif;"><tspan x="9" dy="3">0.5</tspan></text></g><g class="tick" style="opacity: 1;" transform="translate(0,115)"><line x2="6" y2="0" style="stroke: rgb(239, 239, 239);"/><text x="9" y="0" style="text-anchor: start; font-family: Open Sans,Arial,sans-serif;"><tspan x="9" dy="3">0.6</tspan></text></g><g class="tick" style="opacity: 1;" transform="translate(0,87)"><line x2="6" y2="0" style="stroke: rgb(239, 239, 239);"/><text x="9" y="0" style="text-anchor: start; font-family: Open Sans,Arial,sans-serif;"><tspan x="9" dy="3">0.7</tspan></text></g><g class="tick" style="opacity: 1;" transform="translate(0,58)"><line x2="6" y2="0" style="stroke: rgb(239, 239, 239);"/><text x="9" y="0" style="text-anchor: start; font-family: Open Sans,Arial,sans-serif;"><tspan x="9" dy="3">0.8</tspan></text></g><g class="tick" style="opacity: 1;" transform="translate(0,30)"><line x2="6" y2="0" style="stroke: rgb(239, 239, 239);"/><text x="9" y="0" style="text-anchor: start; font-family: Open Sans,Arial,sans-serif;"><tspan x="9" dy="3">0.9</tspan></text></g><g class="tick" style="opacity: 1;" transform="translate(0,1)"><line x2="6" y2="0" style="stroke: rgb(239, 239, 239);"/><text x="9" y="0" style="text-anchor: start; font-family: Open Sans,Arial,sans-serif;"><tspan x="9" dy="3">1</tspan></text></g><path class="domain" d="M6,1H0V286H6" style="fill-opacity: 0; stroke: rgb(204, 204, 204);"/></g></g><g transform="translate(40.5,320.5)" style="visibility: hidden;"><g clip-path="url(http://pnud.carto.mx/explora?o=2&amp;i=i88#c3-1443580817042-clip-subchart)" class="c3-chart"><g class="c3-chart-bars"/><g class="c3-chart-lines"/></g><g clip-path="url(http://pnud.carto.mx/explora?o=2&amp;i=i88#c3-1443580817042-clip)" class="c3-brush" style="pointer-events: all;"><rect class="background" style="visibility: hidden; cursor: crosshair;" x="0" width="629"/><rect class="extent" style="cursor: move;" x="0" width="0"/><g class="resize e" style="cursor: ew-resize; display: none;" transform="translate(0,0)"><rect x="-3" width="6" height="6" style="visibility: hidden;"/></g><g class="resize w" style="cursor: ew-resize; display: none;" transform="translate(0,0)"><rect x="-3" width="6" height="6" style="visibility: hidden;"/></g></g><g class="c3-axis-x" transform="translate(0,0)" clip-path="url(http://pnud.carto.mx/explora?o=2&amp;i=i88#c3-1443580817042-clip-xaxis)" style="opacity: 1;"><g class="tick" style="opacity: 1;" transform="translate(7, 0)"><line y2="6" x1="0" x2="0" style="stroke: rgb(239, 239, 239);"/><text y="9" x="0" style="text-anchor: middle; display: block;" transform=""><tspan x="0" dy=".71em" dx="0">2002</tspan></text></g><g class="tick" style="opacity: 1;" transform="translate(130, 0)"><line y2="6" x1="0" x2="0" style="stroke: rgb(239, 239, 239);"/><text y="9" x="0" style="text-anchor: middle; display: block;" transform=""><tspan x="0" dy=".71em" dx="0">2004</tspan></text></g><g class="tick" style="opacity: 1;" transform="translate(192, 0)"><line y2="6" x1="0" x2="0" style="stroke: rgb(239, 239, 239);"/><text y="9" x="0" style="text-anchor: middle; display: block;" transform=""><tspan x="0" dy=".71em" dx="0">2005</tspan></text></g><g class="tick" style="opacity: 1;" transform="translate(253, 0)"><line y2="6" x1="0" x2="0" style="stroke: rgb(239, 239, 239);"/><text y="9" x="0" style="text-anchor: middle; display: block;" transform=""><tspan x="0" dy=".71em" dx="0">2006</tspan></text></g><g class="tick" style="opacity: 1;" transform="translate(377, 0)"><line y2="6" x1="0" x2="0" style="stroke: rgb(239, 239, 239);"/><text y="9" x="0" style="text-anchor: middle; display: block;" transform=""><tspan x="0" dy=".71em" dx="0">2008</tspan></text></g><g class="tick" style="opacity: 1;" transform="translate(500, 0)"><line y2="6" x1="0" x2="0" style="stroke: rgb(239, 239, 239);"/><text y="9" x="0" style="text-anchor: middle; display: block;" transform=""><tspan x="0" dy=".71em" dx="0">2010</tspan></text></g><g class="tick" style="opacity: 1;" transform="translate(623, 0)"><line y2="6" x1="0" x2="0" style="stroke: rgb(239, 239, 239);"/><text y="9" x="0" style="text-anchor: middle; display: block;" transform=""><tspan x="0" dy=".71em" dx="0">2012</tspan></text></g><path class="domain" d="M0,6V0H629V6"/></g></g><g transform="translate(0,320)" style="visibility: hidden;"/></svg>