<svg xmlns="http://www.w3.org/2000/svg" class="leaflet-zoom-animated" width="2000" style="-webkit-transform: translate3d(-476px, -261px, 0);" height="1097" viewBox="-476 -261 2000 1097"><g><path class="class-3 leaflet-clickable" stroke-linejoin="round" stroke-linecap="round" fill-rule="evenodd" stroke="#005540" stroke-opacity="1" stroke-width="0.5" fill="#086" fill-opacity="0.5" d="M0 0"/></g><g><path class="class-3 leaflet-clickable" stroke-linejoin="round" stroke-linecap="round" fill-rule="evenodd" stroke="#005540" stroke-opacity="1" stroke-width="0.5" fill="#086" fill-opacity="0.5" d="M0 0"/></g><g><path class="class-2 leaflet-clickable" stroke-linejoin="round" stroke-linecap="round" fill-rule="evenodd" stroke="#005540" stroke-opacity="1" stroke-width="0.5" fill="#00cc99" fill-opacity="0.5" d="M0 0"/></g><g><path class="class-2 leaflet-clickable" stroke-linejoin="round" stroke-linecap="round" fill-rule="evenodd" stroke="#005540" stroke-opacity="1" stroke-width="0.5" fill="#00cc99" fill-opacity="0.5" d="M0 0"/></g><g><path class="class-2 leaflet-clickable" stroke-linejoin="round" stroke-linecap="round" fill-rule="evenodd" stroke="#005540" stroke-opacity="1" stroke-width="0.5" fill="#00cc99" fill-opacity="0.5" d="M0 0"/></g><g><path class="class-2 leaflet-clickable" stroke-linejoin="round" stroke-linecap="round" fill-rule="evenodd" stroke="#005540" stroke-opacity="1" stroke-width="0.5" fill="#00cc99" fill-opacity="0.5" d="M0 0"/></g><g><path class="class-2 leaflet-clickable" stroke-linejoin="round" stroke-linecap="round" fill-rule="evenodd" stroke="#005540" stroke-opacity="1" stroke-width="0.5" fill="#00cc99" fill-opacity="0.5" d="M0 0"/></g><g><path class="class-2 leaflet-clickable" stroke-linejoin="round" stroke-linecap="round" fill-rule="evenodd" stroke="#005540" stroke-opacity="1" stroke-width="0.5" fill="#00cc99" fill-opacity="0.5" d="M-231 347L-237 348L-240 344L-244 326L-242 326L-233 342z"/></g><g><path class="class-2 leaflet-clickable" stroke-linejoin="round" stroke-linecap="round" fill-rule="evenodd" stroke="#005540" stroke-opacity="1" stroke-width="0.5" fill="#00cc99" fill-opacity="0.5" d="M-282 310L-280 310L-276 316L-279 322L-281 322L-281 320L-284 318L-282 316L-285 313L-284 310z"/></g><g><path class="class-2 leaflet-clickable" stroke-linejoin="round" stroke-linecap="round" fill-rule="evenodd" stroke="#005540" stroke-opacity="1" stroke-width="0.5" fill="#00cc99" fill-opacity="0.5" d="M-285 304L-282 308L-283 309L-287 305z"/></g><g><path class="class-2 leaflet-clickable" stroke-linejoin="round" stroke-linecap="round" fill-rule="evenodd" stroke="#005540" stroke-opacity="1" stroke-width="0.5" fill="#00cc99" fill-opacity="0.5" d="M-314 252L-310 257L-302 261L-298 274L-301 275L-305 271L-307 271L-311 261L-314 260L-315 257z"/></g><g><path class="class-2 leaflet-clickable" stroke-linejoin="round" stroke-linecap="round" fill-rule="evenodd" stroke="#005540" stroke-opacity="1" stroke-width="0.5" fill="#00cc99" fill-opacity="0.5" d="M-312 232L-314 236L-316 235L-316 233L-314 232z"/></g><g><path class="class-2 leaflet-clickable" stroke-linejoin="round" stroke-linecap="round" fill-rule="evenodd" stroke="#005540" stroke-opacity="1" stroke-width="0.5" fill="#00cc99" fill-opacity="0.5" d="M-320 191L-318 201L-319 203L-323 198L-322 194z"/></g><g><path class="class-2 leaflet-clickable" stroke-linejoin="round" stroke-linecap="round" fill-rule="evenodd" stroke="#005540" stroke-opacity="1" stroke-width="0.5" fill="#00cc99" fill-opacity="0.5" d="M-344 191L-342 193L-343 196L-346 191z"/></g><g><path class="class-2 leaflet-clickable" stroke-linejoin="round" stroke-linecap="round" fill-rule="evenodd" stroke="#005540" stroke-opacity="1" stroke-width="0.5" fill="#00cc99" fill-opacity="0.5" d="M-346 155L-348 159L-348 164L-350 162L-356 170L-357 175L-359 177L-359 181L-361 180L-362 177L-356 164L-356 158L-348 156z"/></g><g><path class="class-2 leaflet-clickable" stroke-linejoin="round" stroke-linecap="round" fill-rule="evenodd" stroke="#005540" stroke-opacity="1" stroke-width="0.5" fill="#00cc99" fill-opacity="0.5" d="M-365 148L-364 151L-367 150L-365 148z"/></g><g><path class="class-2 leaflet-clickable" stroke-linejoin="round" stroke-linecap="round" fill-rule="evenodd" stroke="#005540" stroke-opacity="1" stroke-width="0.5" fill="#00cc99" fill-opacity="0.5" d="M-439 34L-435 39L-438 42L-441 35L-440 34z"/></g><g><path class="class-2 leaflet-clickable" stroke-linejoin="round" stroke-linecap="round" fill-rule="evenodd" stroke="#005540" stroke-opacity="1" stroke-width="0.5" fill="#00cc99" fill-opacity="0.5" d="M-426 16L-426 19L-428 18L-428 16z"/></g><g><path class="class-2 leaflet-clickable" stroke-linejoin="round" stroke-linecap="round" fill-rule="evenodd" stroke="#005540" stroke-opacity="1" stroke-width="0.5" fill="#00cc99" fill-opacity="0.5" d="M0 0"/></g><g><path class="class-2 leaflet-clickable" stroke-linejoin="round" stroke-linecap="round" fill-rule="evenodd" stroke="#005540" stroke-opacity="1" stroke-width="0.5" fill="#00cc99" fill-opacity="0.5" d="M-476 -4L-474 -1L-470 -1L-467 2L-465 2L-461 10L-459 21L-453 27L-453 30L-451 31L-450 34L-451 38L-446 44L-440 47L-432 48L-431 50L-427 50L-427 53L-430 54L-433 60L-432 64L-429 66L-427 71L-423 75L-415 71L-410 74L-406 80L-401 83L-400 86L-392 91L-391 106L-382 109L-383 120L-375 131L-377 135L-373 149L-370 152L-372 159L-371 163L-373 165L-373 169L-371 171L-371 179L-368 179L-368 185L-363 188L-360 192L-358 201L-353 208L-351 210L-342 211L-343 218L-334 235L-336 236L-332 248L-329 251L-328 255L-325 256L-324 259L-321 259L-319 261L-318 266L-315 269L-309 282L-313 293L-316 296L-317 307L-316 311L-312 316L-313 322L-305 338L-302 339L-300 342L-294 344L-277 345L-277 339L-280 336L-280 330L-277 329L-277 327L-271 328L-271 331L-267 333L-265 337L-250 347L-247 359L-243 360L-234 357L-232 361L-235 368L-234 371L-222 383L-222 396L-201 407L-202 411L-197 417L-198 420L-196 423L-198 425L-198 439L-208 452L-219 456L-223 459L-225 463L-228 463L-236 472L-240 472L-241 474L-246 475L-255 467L-262 446L-264 431L-273 415L-281 405L-288 400L-297 397L-310 388L-324 371L-342 353L-362 340L-381 330L-394 326L-404 328L-405 332L-420 318L-441 307L-442 302L-446 298L-446 295L-445 296L-444 294L-445 288L-452 284L-459 284L-459 282L-456 279L-443 234L-444 232L-440 213L-441 186L-449 163L-453 158L-460 154L-461 147L-469 137L-473 135L-476 138z"/></g><g><path class="class-2 leaflet-clickable" stroke-linejoin="round" stroke-linecap="round" fill-rule="evenodd" stroke="#005540" stroke-opacity="1" stroke-width="0.5" fill="#00cc99" fill-opacity="0.5" d="M0 0"/></g><g><path class="class-2 leaflet-clickable" stroke-linejoin="round" stroke-linecap="round" fill-rule="evenodd" stroke="#005540" stroke-opacity="1" stroke-width="0.5" fill="#00cc99" fill-opacity="0.5" d="M784.6666666666666 836L784 829L786 827L782 821L782 813L785 810L783 808L795 808L803 821L804 820L806 822L805 824L813 833L813 836L814 834L818 836L834 836L840 830L849 836L853 834L855 831L856 824L873 824L877 820L868 812L868 810L863 808L861 804L857 806L853 803L855 801L854 797L848 796L845 792L839 790L840 788L838 782L837 784L835 784L834 787L821 787L820 783L823 780L825 780L823 777L821 777L819 772L815 770L818 764L823 759L828 758L828 753L826 751L828 750L828 746L832 743L833 744L833 742L830 741L831 737L827 731L818 735L817 730L819 726L827 727L826 723L831 723L836 714L842 711L845 703L851 698L852 695L850 690L852 687L850 686L854 674L856 674L856 676L858 677L864 675L867 678L869 678L868 683L865 687L867 689L866 691L868 694L870 694L870 700L872 702L880 701L885 708L881 708L875 716L869 711L864 717L869 724L872 724L872 726L869 726L869 728L865 730L867 731L866 737L871 739L878 739L880 748L889 742L888 740L892 737L893 732L897 733L900 731L899 733L922 743L915 750L915 753L910 758L909 761L911 762L907 766L904 783L906 786L903 787L897 793L896 791L894 795L898 805L902 805L902 809L898 811L898 813L900 813L901 816L903 814L908 814L913 816L914 818L915 817L915 820L917 821L919 820L925 823L930 821L931 823L934 823L935 825L933 830L929 833L930 835L917 836z"/></g><g><path class="class-1 leaflet-clickable" stroke-linejoin="round" stroke-linecap="round" fill-rule="evenodd" stroke="#005540" stroke-opacity="1" stroke-width="0.5" fill="#7fd" fill-opacity="0.5" d="M1524 836L1487 836L1504 820L1507 807L1506 798L1509 792L1507 787L1511 779L1524 768.6666666666666z"/></g><g><path class="class-1 leaflet-clickable" stroke-linejoin="round" stroke-linecap="round" fill-rule="evenodd" stroke="#005540" stroke-opacity="1" stroke-width="0.5" fill="#7fd" fill-opacity="0.5" d="M681 610L681 622L679 623L683 630L687 628L691 629L688 632L688 636L685 635L676 643L662 637L658 648L660 654L659 657L655 655L655 662L653 663L655 664L650 666L648 664L642 664L637 661L637 665L634 665L630 669L619 668L620 666L618 665L615 673L608 676L610 677L609 680L611 683L607 686L608 690L610 690L611 694L613 693L617 699L617 702L615 702L614 706L617 718L623 719L625 721L625 725L629 727L629 729L631 730L628 734L630 737L628 738L625 744L625 748L628 749L628 756L619 757L613 761L613 759L610 760L610 756L607 756L604 760L601 759L595 761L593 764L590 764L589 760L586 758L585 762L583 762L582 760L580 761L579 759L575 759L574 762L570 759L573 754L568 751L570 749L568 747L559 748L558 750L556 747L553 750L555 752L551 753L551 755L548 752L534 752L534 747L533 748L533 743L531 740L532 736L537 736L538 733L537 731L528 729L528 725L526 723L525 725L520 723L518 725L513 725L513 730L511 730L509 734L507 734L507 737L498 734L496 736L488 736L485 733L483 726L484 722L477 722L477 719L470 718L478 704L482 701L483 694L477 691L477 686L475 685L476 684L473 684L473 681L470 679L472 677L471 675L483 665L490 649L495 648L494 645L497 642L498 643L500 633L511 629L511 624L508 620L517 617L516 613L511 607L515 603L514 601L517 597L516 596L519 586L517 586L517 583L521 582L527 577L531 578L537 576L543 579L550 578L550 580L557 585L564 583L571 585L578 588L577 590L579 592L585 593L583 598L594 602L595 604L601 607L603 607L603 605L605 606L605 609L612 605L619 605L618 599L621 592L636 591L646 596L645 599L647 598L651 601L655 607L665 607L664 609L666 613L677 613L680 612L680 610z"/></g><g><path class="class-1 leaflet-clickable" stroke-linejoin="round" stroke-linecap="round" fill-rule="evenodd" stroke="#005540" stroke-opacity="1" stroke-width="0.5" fill="#7fd" fill-opacity="0.5" d="M0 0"/></g><g><path class="class-1 leaflet-clickable" stroke-linejoin="round" stroke-linecap="round" fill-rule="evenodd" stroke="#005540" stroke-opacity="1" stroke-width="0.5" fill="#7fd" fill-opacity="0.5" d="M-458 -170L-456 -167L-456 -160L-450 -148L-452 -136L-454 -135L-453 -133L-457 -126L-457 -122L-460 -120L-461 -122L-464 -121L-465 -123L-476 -128L-475 -164L-473 -167L-468 -166L-462 -169z"/></g><g><path class="class-1 leaflet-clickable" stroke-linejoin="round" stroke-linecap="round" fill-rule="evenodd" stroke="#005540" stroke-opacity="1" stroke-width="0.5" fill="#7fd" fill-opacity="0.5" d="M0 0"/></g><g><path class="class-1 leaflet-clickable" stroke-linejoin="round" stroke-linecap="round" fill-rule="evenodd" stroke="#005540" stroke-opacity="1" stroke-width="0.5" fill="#7fd" fill-opacity="0.5" d="M-476 -261L-123 -261L-123 -235L-125 -233L-125 -230L-117 -229L-116 -225L-117 -223L-127 -221L-124 -215L-127 -214L-126 -204L-128 -203L-127 -199L-124 -198L-133 -195L-128 -178L-129 -174L-136 -173L-134 -169L-135 -164L-132 -162L-131 -159L-134 -156L-132 -155L-132 -134L-130 -133L-127 -126L-125 -127L-124 -125L-126 -125L-126 -122L-121 -119L-121 -111L-119 -104L-116 -100L-115 -95L-113 -94L-115 -90L-113 -90L-114 -87L-112 -81L-113 -79L-115 -80L-115 -77L-118 -75L-122 -78L-125 -77L-125 -74L-130 -74L-132 -72L-140 -70L-139 -69L-150 -69L-157 -71L-158 -69L-160 -71L-165 -71L-165 -56L-161 -44L-155 -40L-152 -36L-151 -28L-147 -26L-151 -20L-149 -16L-143 -16L-137 -12L-135 -1L-127 4L-128 12L-125 16L-125 21L-121 28L-128 36L-122 48L-123 54L-122 56L-119 55L-118 60L-106 62L-110 63L-115 72L-118 78L-116 81L-120 83L-122 88L-125 89L-125 92L-129 96L-129 102L-134 101L-139 104L-147 106L-149 112L-151 113L-145 113L-148 121L-150 119L-153 122L-159 121L-170 132L-174 130L-176 127L-178 127L-181 130L-183 109L-196 95L-203 92L-204 94L-215 91L-221 93L-228 90L-233 86L-240 67L-244 61L-245 56L-248 53L-254 51L-255 52L-258 49L-273 46L-280 42L-288 33L-295 30L-298 31L-303 29L-305 25L-303 6L-306 -2L-306 -8L-304 -12L-306 -20L-303 -25L-297 -26L-300 -30L-307 -30L-308 -32L-311 -31L-323 -35L-324 -38L-326 -38L-328 -34L-332 -32L-328 -33L-330 -27L-332 -29L-335 -29L-337 -32L-336 -35L-340 -39L-346 -36L-349 -37L-366 -52L-372 -64L-375 -66L-376 -71L-382 -74L-382 -80L-385 -83L-405 -90L-411 -106L-425 -117L-427 -121L-425 -121L-422 -124L-424 -124L-426 -127L-434 -132L-441 -142L-447 -143L-445 -145L-448 -155L-447 -158L-448 -162L-450 -162L-449 -164L-452 -165L-451 -173L-453 -178L-457 -181L-463 -179L-468 -181L-470 -185L-467 -190L-466 -196L-467 -199L-471 -200L-471 -205L-476 -209.5zM-327 -41L-328 -40L-326 -38L-325 -39z"/></g><g><path class="class-1 leaflet-clickable" stroke-linejoin="round" stroke-linecap="round" fill-rule="evenodd" stroke="#005540" stroke-opacity="1" stroke-width="0.5" fill="#7fd" fill-opacity="0.5" d="M94 623L94 626L92 627L89 624L91 622z"/></g><g><path class="class-1 leaflet-clickable" stroke-linejoin="round" stroke-linecap="round" fill-rule="evenodd" stroke="#005540" stroke-opacity="1" stroke-width="0.5" fill="#7fd" fill-opacity="0.5" d="M75 610L81 611L82 613L80 614L79 617L70 613L73 610z"/></g><g><path class="class-1 leaflet-clickable" stroke-linejoin="round" stroke-linecap="round" fill-rule="evenodd" stroke="#005540" stroke-opacity="1" stroke-width="0.5" fill="#7fd" fill-opacity="0.5" d="M55 590L65 593L68 602L66 604L57 599L58 598L55 595L56 592z"/></g><g><path class="class-1 leaflet-clickable" stroke-linejoin="round" stroke-linecap="round" fill-rule="evenodd" stroke="#005540" stroke-opacity="1" stroke-width="0.5" fill="#7fd" fill-opacity="0.5" d="M53 582L55 586L53 587L52 585z"/></g><g><path class="class-1 leaflet-clickable" stroke-linejoin="round" stroke-linecap="round" fill-rule="evenodd" stroke="#005540" stroke-opacity="1" stroke-width="0.5" fill="#7fd" fill-opacity="0.5" d="M265 520L265 522L270 525L271 531L267 536L266 542L264 544L263 563L267 563L270 560L274 564L279 562L281 563L279 575L282 579L289 582L292 581L304 583L303 586L307 590L303 596L305 597L304 601L310 605L309 607L313 610L315 611L317 609L322 617L319 617L319 625L315 629L313 634L304 636L299 633L295 636L295 638L289 640L279 639L276 643L278 646L275 653L275 661L278 663L272 669L270 669L270 673L264 674L265 677L262 679L267 678L270 681L271 679L275 686L275 691L273 692L274 696L272 696L271 694L271 689L262 683L261 680L257 677L253 676L246 666L239 666L235 664L235 662L230 660L231 658L221 656L209 667L203 667L201 665L196 667L190 676L190 681L188 680L184 683L182 689L180 689L173 681L169 684L157 681L158 678L161 678L164 671L177 657L177 655L181 656L185 651L184 645L186 634L183 625L187 616L189 615L187 611L188 610L185 607L182 608L165 597L151 569L146 558L148 543L143 521L136 508L137 507L141 514L144 514L145 513L142 505L148 502L151 505L151 508L157 508L157 510L165 509L165 500L163 496L160 496L158 489L158 484L163 473L160 466L164 464L168 459L168 455L170 454L173 454L174 456L173 460L175 462L176 468L179 466L199 466L204 464L206 467L205 470L207 473L207 477L209 480L213 480L213 487L215 488L199 494L199 496L205 503L207 511L209 511L218 501L220 496L223 498L226 497L227 504L230 506L236 505L237 515L242 515L244 522L246 522L248 525L251 526L252 523L263 519z"/></g><g><path class="class-1 leaflet-clickable" stroke-linejoin="round" stroke-linecap="round" fill-rule="evenodd" stroke="#005540" stroke-opacity="1" stroke-width="0.5" fill="#7fd" fill-opacity="0.5" d="M0 0"/></g><g><path class="class-1 leaflet-clickable" stroke-linejoin="round" stroke-linecap="round" fill-rule="evenodd" stroke="#005540" stroke-opacity="1" stroke-width="0.5" fill="#7fd" fill-opacity="0.5" d="M0 0"/></g><g><path class="class-1 leaflet-clickable" stroke-linejoin="round" stroke-linecap="round" fill-rule="evenodd" stroke="#005540" stroke-opacity="1" stroke-width="0.5" fill="#7fd" fill-opacity="0.5" d="M747 631L747 634L745 635L748 641L746 643L740 643L732 648L728 648L724 644L720 648L715 649L716 651L718 651L719 654L714 668L712 668L711 672L708 674L706 679L707 680L702 683L706 691L696 697L692 697L685 701L676 703L674 729L669 728L667 730L668 735L665 734L665 732L662 730L667 739L666 744L668 748L664 750L663 748L661 748L657 752L652 753L645 748L642 748L643 743L639 742L643 738L643 734L625 725L625 721L623 719L617 718L614 706L615 702L617 702L617 699L616 696L613 693L611 694L610 690L608 690L607 686L611 684L609 680L610 677L608 677L615 673L618 665L620 666L619 668L630 669L637 665L637 661L642 664L648 664L650 666L655 664L653 663L655 662L655 655L659 657L660 655L658 648L662 637L670 640L671 642L676 643L685 635L688 636L688 632L691 629L685 628L683 630L680 627L679 623L681 622L681 610L684 607L684 602L692 603L695 609L703 616L706 617L712 614L714 616L718 609L718 605L719 604L721 606L724 606L727 603L726 599L729 599L732 594L735 594L736 597L740 600L740 613L743 618L743 623L740 623L739 626L742 629L744 629z"/></g><g><path class="class-1 leaflet-clickable" stroke-linejoin="round" stroke-linecap="round" fill-rule="evenodd" stroke="#005540" stroke-opacity="1" stroke-width="0.5" fill="#7fd" fill-opacity="0.5" d="M844 705L842 711L836 714L833 721L828 724L826 723L827 727L819 726L817 730L818 735L827 731L831 737L830 741L833 742L833 744L832 743L828 746L828 750L826 751L828 753L828 758L823 759L814 770L819 771L821 777L823 777L825 780L823 780L820 783L813 782L813 786L808 793L799 792L797 794L791 790L787 794L782 794L782 790L786 788L785 782L788 781L788 778L783 771L781 772L781 774L779 772L779 769L772 767L770 769L765 765L762 765L756 775L751 772L750 768L755 766L756 762L752 761L755 758L757 758L757 753L752 749L751 759L749 759L749 754L746 757L746 754L744 752L737 753L732 760L733 764L731 765L731 768L730 767L729 769L727 769L723 775L721 775L721 777L717 778L716 776L718 770L714 770L708 765L712 755L705 741L705 738L704 740L697 739L695 741L692 738L685 739L680 734L680 732L675 728L674 729L676 703L685 701L692 697L696 698L701 693L706 691L702 683L707 680L706 679L708 674L711 672L712 668L714 668L719 654L718 651L716 651L716 648L717 649L724 644L728 648L732 648L740 643L745 643L748 641L747 637L745 636L747 634L747 631L757 628L762 639L768 643L771 642L770 639L776 641L780 641L781 639L787 639L788 630L782 627L781 625L784 622L796 622L797 620L799 620L800 622L794 632L796 634L800 634L799 636L802 638L802 641L805 643L812 643L812 641L817 639L818 641L816 644L819 644L820 646L824 644L824 646L829 650L829 654L824 657L824 661L822 662L821 666L822 668L820 668L819 671L820 676L822 676L819 679L813 679L813 675L810 672L807 672L802 674L800 684L796 684L794 686L794 691L798 687L804 685L801 688L801 691L798 693L799 698L795 699L795 703L789 708L793 713L794 722L801 723L808 716L814 715L814 712L824 704L827 704L829 702L837 690L841 695L840 698L842 704z"/></g><g><path class="class-1 leaflet-clickable" stroke-linejoin="round" stroke-linecap="round" fill-rule="evenodd" stroke="#005540" stroke-opacity="1" stroke-width="0.5" fill="#7fd" fill-opacity="0.5" d="M411 588L421 583L424 586L428 586L442 594L451 597L452 594L458 594L459 590L465 590L470 582L472 582L475 575L490 569L493 570L494 566L490 566L488 564L491 561L491 558L498 558L499 560L501 559L508 564L511 569L518 569L519 576L523 580L517 583L517 586L519 586L516 596L517 597L514 601L515 603L511 607L517 615L517 617L508 620L511 624L511 629L500 633L498 643L497 642L494 645L494 649L490 649L484 665L471 675L472 677L470 679L473 681L473 684L476 684L475 685L477 686L477 691L483 694L482 701L478 703L470 718L464 719L463 721L456 723L452 721L445 724L439 722L436 723L427 730L423 729L421 734L417 733L417 739L412 739L408 742L405 742L406 743L404 745L400 740L393 739L393 741L395 742L393 743L385 742L385 752L383 757L384 758L386 759L391 756L397 759L398 758L407 760L412 765L412 770L410 774L406 774L404 777L408 784L406 787L407 789L411 793L413 793L414 800L411 804L416 802L418 805L425 802L429 805L427 807L427 812L421 824L421 827L417 831L415 828L414 829L410 827L404 832L398 832L395 835L390.5 836L341.5 836L343 819L335 812L331 803L313 812L307 807L305 808L306 810L300 808L299 806L291 804L289 809L290 810L285 818L286 821L279 823L274 822L268 825L266 824L264 826L258 825L254 829L249 827L246 829L244 835L243 834L242.33333333333334 836L236 834L234 835L234 833L230 829L224 830L223 829L225 825L223 823L213 823L203 815L204 811L199 807L200 804L198 803L198 798L195 795L193 796L192 794L187 792L161 756L156 746L155 733L146 725L142 716L144 716L152 709L169 706L172 707L179 704L184 696L183 692L180 690L182 689L184 683L188 680L190 681L190 676L194 669L201 665L203 667L209 667L210 665L215 663L221 656L231 658L230 660L237 665L246 666L251 672L251 674L261 680L262 683L271 689L272 696L274 696L273 692L275 691L275 686L271 679L270 681L267 678L262 679L265 677L264 674L270 673L270 669L272 669L278 663L275 661L275 654L278 646L276 644L278 640L289 640L295 638L295 636L299 633L304 636L313 634L313 632L319 625L319 617L322 617L317 609L315 611L313 610L309 607L310 605L304 601L305 598L303 596L307 590L303 586L304 583L285 581L279 575L281 563L277 562L274 564L271 562L271 560L267 563L264 563L263 550L267 536L271 531L270 527L273 526L275 520L278 519L281 522L281 517L278 516L280 515L278 512L279 510L286 511L287 508L290 508L292 515L289 522L290 523L288 523L288 525L291 525L292 523L296 524L296 520L303 514L302 511L296 508L299 507L297 505L298 502L295 502L295 495L291 491L294 487L305 487L306 489L313 488L319 490L318 499L309 505L309 514L307 516L309 520L307 521L303 528L305 532L304 534L309 544L312 532L311 528L314 523L314 517L318 506L322 504L327 507L331 505L333 506L337 519L335 520L332 527L330 527L329 529L331 533L333 533L325 548L328 550L333 551L337 547L339 549L341 548L341 550L348 549L350 539L353 540L353 538L361 536L359 535L361 531L360 530L358 530L356 533L355 524L362 520L368 520L372 523L368 533L370 533L370 531L379 532L380 535L383 537L378 542L378 545L381 547L380 549L376 550L374 553L378 554L378 559L370 560L370 563L368 564L362 561L357 566L356 569L349 571L346 577L339 578L340 580L336 581L341 586L341 589L337 596L337 602L334 601L332 604L330 602L325 604L326 608L324 613L327 613L328 616L331 616L333 620L338 615L342 621L340 624L337 624L335 626L333 624L327 625L327 627L324 626L322 628L323 632L325 630L330 631L330 635L328 638L331 639L334 646L336 647L341 644L342 646L348 644L350 645L349 646L355 654L361 652L362 653L364 652L364 650L367 651L369 649L376 653L381 651L382 649L379 645L381 643L380 640L383 633L386 635L387 633L389 633L390 635L392 635L392 637L395 638L403 629L405 629L404 627L410 627L412 620L414 621L415 625L417 625L420 622L419 615L422 609L420 608L420 606L415 605L415 602L409 600L408 595L406 593L409 591z"/></g><g><path class="class-1 leaflet-clickable" stroke-linejoin="round" stroke-linecap="round" fill-rule="evenodd" stroke="#005540" stroke-opacity="1" stroke-width="0.5" fill="#7fd" fill-opacity="0.5" d="M0 0"/></g><g><path class="class-0 leaflet-clickable" stroke-linejoin="round" stroke-linecap="round" fill-rule="evenodd" stroke="#005540" stroke-opacity="1" stroke-width="0.5" fill="#ddfff6" fill-opacity="0.5" d="M491 558L491 561L488 564L490 566L494 566L493 570L490 569L475 575L475 578L472 582L470 582L465 590L459 590L458 594L452 594L451 597L442 594L428 586L424 586L421 583L411 588L404 583L403 580L401 580L402 577L399 576L405 561L410 554L416 550L416 547L418 545L417 543L420 540L418 532L433 532L437 529L436 527L449 522L450 515L452 515L452 519L456 522L456 524L465 526L465 532L471 532L472 530L475 531L477 536L479 537L479 544L475 545L477 545L476 548L482 549L491 556z"/></g><g><path class="class-0 leaflet-clickable" stroke-linejoin="round" stroke-linecap="round" fill-rule="evenodd" stroke="#005540" stroke-opacity="1" stroke-width="0.5" fill="#ddfff6" fill-opacity="0.5" d="M629 727L643 734L644 736L639 742L643 743L642 748L645 748L648 751L647 750L646 754L650 755L649 764L654 769L649 769L647 775L647 782L637 785L636 787L639 798L643 801L642 808L644 810L634 814L632 817L632 827L626 836L390.5 836L395 835L398 832L404 832L410 827L414 829L415 828L417 831L427 812L427 807L429 806L426 804L426 802L419 805L416 802L411 804L414 800L413 793L408 791L406 787L408 784L404 777L406 774L411 773L412 765L407 760L398 758L397 759L391 756L386 759L384 758L383 757L385 752L385 742L393 743L395 742L392 739L399 740L404 745L406 743L405 742L408 742L412 739L416 739L416 734L421 734L423 729L427 730L439 722L442 724L451 721L456 723L463 721L464 719L477 718L476 722L484 722L484 731L488 736L494 734L496 736L498 734L507 737L507 734L509 734L509 732L513 730L513 725L518 725L520 723L525 725L526 723L528 724L528 729L532 729L534 731L537 731L538 733L537 736L533 736L531 740L534 743L533 752L547 752L551 755L551 753L555 752L553 750L555 747L558 750L559 748L568 747L570 749L568 751L573 754L570 759L573 762L575 759L579 759L580 761L582 760L583 762L585 762L585 758L589 760L590 764L593 764L595 761L601 759L604 760L607 756L610 756L610 760L613 759L613 761L619 757L628 756L627 753L629 753L628 750L625 748L625 744L628 738L630 737L628 734L631 731L629 729z"/></g><g><path class="class-0 leaflet-clickable" stroke-linejoin="round" stroke-linecap="round" fill-rule="evenodd" stroke="#005540" stroke-opacity="1" stroke-width="0.5" fill="#ddfff6" fill-opacity="0.5" d="M725 836L724 831L721 829L721 826L719 825L719 822L724 816L731 811L733 803L737 803L737 800L740 795L742 798L740 802L746 804L748 809L747 813L756 821L754 828L755 830L757 830L755 832L755 836z"/></g><g><path class="class-0 leaflet-clickable" stroke-linejoin="round" stroke-linecap="round" fill-rule="evenodd" stroke="#005540" stroke-opacity="1" stroke-width="0.5" fill="#ddfff6" fill-opacity="0.5" d="M360 -147L351 -133L352 -130L350 -130L348 -127L341 -111L340 -112L337 -106L336 -109L333 -109L332 -104L334 -104L333 -102L331 -103L329 -96L303 -40L308 -38L306 -34L302 -35L303 -37L301 -38L302 -28L300 -26L306 -25L303 -22L308 -16L306 -16L307 -1L309 -2L310 4L308 28L312 30L315 38L316 51L319 52L320 58L317 59L316 62L310 67L312 67L310 70L314 75L319 77L324 88L309 85L297 85L297 83L294 83L293 86L276 83L272 76L268 81L268 84L271 88L267 95L257 100L251 115L252 118L244 127L243 123L240 124L232 114L223 110L215 110L208 116L201 118L196 109L182 115L179 112L177 115L173 112L173 108L161 109L161 107L156 106L151 97L151 99L144 99L143 95L138 89L133 91L135 95L127 86L124 86L110 76L105 85L103 83L100 83L99 88L103 89L97 91L98 92L96 93L93 100L94 103L89 110L92 110L91 111L93 114L91 121L88 122L87 125L90 124L89 128L86 126L75 141L77 148L73 150L73 165L66 167L64 171L64 193L72 188L54 206L53 204L35 205L33 198L24 196L27 195L27 192L19 192L18 186L-3 169L-2 163L-4 154L-14 147L-19 148L-21 151L-24 151L-28 145L-34 146L-41 144L-45 148L-47 148L-50 143L-54 142L-54 139L-69 117L-65 114L-63 110L-71 99L-75 97L-70 94L-68 84L-71 84L-70 81L-76 73L-81 74L-80 71L-87 72L-88 70L-89 64L-85 62L-85 57L-90 56L-93 59L-95 56L-98 60L-99 58L-105 59L-112 56L-111 58L-113 60L-118 60L-119 55L-122 56L-123 44L-126 42L-128 38L-124 30L-121 28L-125 21L-125 16L-128 12L-127 5L-135 -1L-137 -12L-143 -16L-149 -16L-151 -20L-147 -26L-151 -28L-152 -36L-155 -40L-161 -44L-165 -56L-165 -71L-160 -71L-158 -69L-139 -69L-140 -70L-132 -72L-130 -74L-125 -74L-125 -77L-122 -78L-118 -75L-115 -77L-115 -80L-113 -79L-112 -81L-114 -87L-113 -90L-115 -90L-113 -94L-119 -104L-121 -119L-126 -122L-126 -125L-124 -125L-125 -127L-127 -126L-130 -133L-132 -134L-132 -155L-134 -156L-131 -159L-136 -167L-134 -169L-136 -173L-129 -174L-128 -178L-133 -195L-124 -198L-127 -199L-128 -203L-126 -204L-127 -214L-124 -215L-127 -221L-121 -221L-116 -225L-117 -229L-125 -230L-125 -233L-123 -235L-123 -261L233 -261L234 -259L232 -256L234 -253L235 -242L245 -227L247 -217L254 -210L266 -200L273 -200L276 -196L278 -196L277 -194L280 -191L280 -189L293 -179L307 -175L314 -175L315 -173L317 -173L317 -170L320 -169L322 -165L337 -162L348 -152L355 -148L356 -151L358 -151L358 -148z"/></g><g><path class="class-0 leaflet-clickable" stroke-linejoin="round" stroke-linecap="round" fill-rule="evenodd" stroke="#005540" stroke-opacity="1" stroke-width="0.5" fill="#ddfff6" fill-opacity="0.5" d="M324 88L328 89L329 92L330 91L354 101L359 125L364 133L356 147L356 176L359 180L358 186L355 195L351 198L351 200L349 200L348 204L343 209L354 221L357 221L357 225L351 222L346 225L342 233L342 237L345 237L347 242L351 244L355 252L356 251L363 257L363 261L365 263L364 266L379 280L395 285L401 289L401 285L418 256L421 262L420 265L417 265L417 268L427 272L434 301L435 320L431 320L430 322L424 322L418 325L410 325L407 322L403 324L398 317L397 320L391 317L389 319L384 316L381 320L380 319L379 323L375 320L367 321L365 318L363 320L350 320L346 331L344 331L341 334L336 334L337 343L331 351L330 352L328 348L311 360L310 364L312 366L312 372L310 375L313 382L309 387L311 392L310 395L316 395L315 399L314 401L310 398L304 406L291 416L286 431L285 444L281 449L281 464L283 470L287 473L286 477L288 484L282 486L277 484L275 487L272 488L273 490L271 491L272 493L270 495L273 502L267 508L270 514L268 518L252 523L252 526L244 522L242 515L237 515L236 505L230 506L227 504L226 498L220 496L218 501L209 511L207 511L205 503L199 496L199 494L215 488L213 487L213 480L209 480L207 477L207 473L205 471L206 467L204 464L199 466L179 466L176 468L175 462L173 460L174 456L173 454L170 454L168 450L160 449L157 450L157 452L155 452L147 448L148 439L147 436L142 432L140 425L142 420L138 418L140 416L135 406L132 403L132 401L125 403L124 407L121 394L123 389L118 378L119 372L125 375L127 375L128 372L124 368L120 368L123 364L115 358L114 355L116 352L114 351L111 341L108 341L107 334L101 329L90 325L83 328L82 332L76 334L72 335L66 332L61 325L62 324L60 321L63 319L64 315L58 313L58 310L56 310L50 296L36 281L31 281L29 278L30 276L24 270L22 272L22 269L17 260L12 257L12 244L10 240L13 238L9 236L5 229L8 230L4 221L9 218L11 213L7 211L8 206L12 207L21 203L26 199L24 196L33 198L35 205L53 204L54 206L68 191L72 189L64 193L65 167L73 165L73 150L77 148L75 141L86 126L89 128L90 124L87 125L88 122L91 121L93 114L91 111L92 110L89 110L93 106L93 100L96 93L98 92L97 91L103 89L99 88L99 83L103 83L105 85L110 76L120 84L126 87L127 86L135 95L133 91L138 89L144 97L144 99L151 99L151 97L156 106L161 107L161 109L172 108L174 111L173 112L177 115L179 112L182 115L196 109L201 119L203 117L208 116L215 110L223 110L232 114L237 122L240 124L243 123L244 127L252 118L251 115L257 100L267 95L271 88L268 84L268 81L272 76L276 83L292 86L294 83L297 83L297 85L309 85z"/></g><g><path class="class-0 leaflet-clickable" stroke-linejoin="round" stroke-linecap="round" fill-rule="evenodd" stroke="#005540" stroke-opacity="1" stroke-width="0.5" fill="#ddfff6" fill-opacity="0.5" d="M674 729L675 728L680 732L680 734L685 739L692 738L692 740L695 741L697 739L704 740L705 738L712 755L708 765L714 770L718 770L716 776L717 778L721 777L721 775L723 775L727 769L729 769L730 767L731 768L731 765L733 764L731 760L740 752L744 752L746 757L749 754L749 758L751 759L752 749L757 753L757 758L752 760L756 762L756 766L750 768L752 772L756 775L762 765L765 765L770 769L772 767L779 769L779 772L781 774L781 772L783 771L788 778L788 781L785 782L786 788L782 790L782 794L779 798L779 801L781 802L785 810L782 813L784 818L782 821L786 827L784 829L784.6666666666666 836L755 836L755 832L757 830L755 830L756 821L747 813L748 809L746 805L740 802L742 798L741 795L737 799L737 802L733 802L731 811L719 822L719 825L721 826L721 829L724 831L725 836L626 836L632 827L632 817L644 810L642 808L643 801L639 798L636 787L639 784L647 782L647 775L649 770L654 769L651 767L650 764L650 755L646 754L647 750L652 753L657 752L661 748L663 748L663 750L667 749L667 739L662 730L665 732L665 734L668 735L667 731L669 728L672 729z"/></g><g><path class="class-0 leaflet-clickable" stroke-linejoin="round" stroke-linecap="round" fill-rule="evenodd" stroke="#005540" stroke-opacity="1" stroke-width="0.5" fill="#ddfff6" fill-opacity="0.5" d="M0 0"/></g><g><path class="class-0 leaflet-clickable" stroke-linejoin="round" stroke-linecap="round" fill-rule="evenodd" stroke="#005540" stroke-opacity="1" stroke-width="0.5" fill="#ddfff6" fill-opacity="0.5" d="M0 0"/></g><g><path class="class-0 leaflet-clickable" stroke-linejoin="round" stroke-linecap="round" fill-rule="evenodd" stroke="#005540" stroke-opacity="1" stroke-width="0.5" fill="#ddfff6" fill-opacity="0.5" d="M238.5 836L234 835L236 834L242.33333333333334 836L243 834L244 835L246 829L249 827L254 829L257 827L257 825L264 826L266 824L268 825L274 822L279 823L286 821L285 818L290 810L289 809L291 804L299 806L300 808L306 810L305 808L307 807L313 812L331 803L335 812L343 819L341.5 836z"/></g><g><path class="class-0 leaflet-clickable" stroke-linejoin="round" stroke-linecap="round" fill-rule="evenodd" stroke="#005540" stroke-opacity="1" stroke-width="0.5" fill="#ddfff6" fill-opacity="0.5" d="M-323 824L-325 824L-323 821z"/></g><g><path class="class-0 leaflet-clickable" stroke-linejoin="round" stroke-linecap="round" fill-rule="evenodd" stroke="#005540" stroke-opacity="1" stroke-width="0.5" fill="#ddfff6" fill-opacity="0.5" d="M0 0"/></g><g><path class="class-0 leaflet-clickable" stroke-linejoin="round" stroke-linecap="round" fill-rule="evenodd" stroke="#005540" stroke-opacity="1" stroke-width="0.5" fill="#ddfff6" fill-opacity="0.5" d="M0 0"/></g><g><path class="class-0 leaflet-clickable" stroke-linejoin="round" stroke-linecap="round" fill-rule="evenodd" stroke="#005540" stroke-opacity="1" stroke-width="0.5" fill="#ddfff6" fill-opacity="0.5" d="M0 0"/></g><g><path class="class-0 leaflet-clickable" stroke-linejoin="round" stroke-linecap="round" fill-rule="evenodd" stroke="#005540" stroke-opacity="1" stroke-width="0.5" fill="#ddfff6" fill-opacity="0.5" d="M0 0"/></g><g><path class="class-0 leaflet-clickable" stroke-linejoin="round" stroke-linecap="round" fill-rule="evenodd" stroke="#005540" stroke-opacity="1" stroke-width="0.5" fill="#ddfff6" fill-opacity="0.5" d="M0 0"/></g><g><path class="class-0 leaflet-clickable" stroke-linejoin="round" stroke-linecap="round" fill-rule="evenodd" stroke="#005540" stroke-opacity="1" stroke-width="0.5" fill="#ddfff6" fill-opacity="0.5" d="M0 0"/></g><g><path class="class-0 leaflet-clickable" stroke-linejoin="round" stroke-linecap="round" fill-rule="evenodd" stroke="#005540" stroke-opacity="1" stroke-width="0.5" fill="#ddfff6" fill-opacity="0.5" d="M0 0"/></g><g><path class="class-0 leaflet-clickable" stroke-linejoin="round" stroke-linecap="round" fill-rule="evenodd" stroke="#005540" stroke-opacity="1" stroke-width="0.5" fill="#ddfff6" fill-opacity="0.5" d="M0 0"/></g><g><path class="class-0 leaflet-clickable" stroke-linejoin="round" stroke-linecap="round" fill-rule="evenodd" stroke="#005540" stroke-opacity="1" stroke-width="0.5" fill="#ddfff6" fill-opacity="0.5" d="M0 0"/></g><g><path class="class-0 leaflet-clickable" stroke-linejoin="round" stroke-linecap="round" fill-rule="evenodd" stroke="#005540" stroke-opacity="1" stroke-width="0.5" fill="#ddfff6" fill-opacity="0.5" d="M0 0"/></g><g><path class="class-0 leaflet-clickable" stroke-linejoin="round" stroke-linecap="round" fill-rule="evenodd" stroke="#005540" stroke-opacity="1" stroke-width="0.5" fill="#ddfff6" fill-opacity="0.5" d="M783 807L783 805L779 801L779 798L782 794L787 794L790 790L793 792L794 791L796 794L799 792L808 793L813 786L813 782L820 783L821 787L834 787L835 784L837 784L837 782L839 784L839 790L845 792L848 796L851 795L854 797L855 801L853 802L857 806L861 804L861 806L868 810L868 812L877 820L873 824L857 824L855 826L856 831L849 836L840 830L834 836L818 836L814 834L813 836L813 833L805 824L806 822L804 820L803 821L795 808L791 807L787 809z"/></g><g><path class="class-0 leaflet-clickable" stroke-linejoin="round" stroke-linecap="round" fill-rule="evenodd" stroke="#005540" stroke-opacity="1" stroke-width="0.5" fill="#ddfff6" fill-opacity="0.5" d="M-182 129L-181 130L-176 127L-174 130L-170 132L-159 121L-153 122L-150 119L-148 121L-146 118L-147 116L-144 113L-151 113L-149 112L-147 106L-139 104L-134 101L-129 102L-129 96L-125 93L-125 89L-122 88L-120 83L-116 81L-118 78L-115 72L-110 63L-106 62L-113 61L-111 58L-112 56L-99 58L-98 60L-95 56L-93 59L-90 56L-86 57L-84 60L-85 62L-87 62L-87 64L-89 64L-87 72L-80 71L-81 74L-76 73L-70 81L-71 84L-68 84L-70 94L-75 97L-71 99L-63 110L-65 114L-69 117L-54 139L-54 142L-50 143L-47 148L-45 148L-41 144L-34 146L-28 145L-24 151L-21 151L-19 148L-14 147L-4 154L-2 162L-3 169L18 186L19 191L23 193L25 191L27 192L27 195L24 196L26 199L21 203L12 207L8 206L7 211L11 213L9 218L4 221L8 230L5 229L9 236L13 238L11 240L12 257L17 260L22 269L22 272L24 270L30 275L30 281L36 280L50 295L52 303L56 310L58 310L58 313L64 315L63 319L60 321L62 324L61 325L67 333L72 335L82 332L83 328L90 325L101 329L107 334L108 341L111 341L114 351L116 352L114 355L115 358L123 364L120 368L124 368L128 372L127 375L119 372L118 378L123 389L121 394L124 407L125 403L132 401L132 403L135 406L137 412L140 415L138 418L142 420L140 425L142 432L143 434L147 435L147 448L155 452L157 452L157 450L160 449L168 450L170 454L168 455L168 459L164 464L160 466L163 473L158 484L160 496L163 496L163 498L165 499L164 502L166 503L164 510L157 510L157 508L153 507L151 508L151 505L148 502L142 505L145 513L142 514L139 512L129 493L121 485L112 479L91 455L78 443L76 443L67 424L57 414L58 413L41 397L42 395L34 383L34 379L23 367L6 354L6 352L-41 318L-49 314L-53 307L-65 300L-69 295L-70 289L-78 280L-87 262L-98 251L-100 246L-108 237L-119 231L-140 225L-150 220L-160 219L-166 213L-166 211L-173 206L-177 201L-188 197L-194 198L-198 181L-197 172L-199 167L-196 156L-187 143L-185 134L-181 130z"/></g><g><path class="class-3 leaflet-clickable" stroke-linejoin="round" stroke-linecap="round" fill-rule="evenodd" stroke="#005540" stroke-opacity="1" stroke-width="0.5" fill="#086" fill-opacity="0.5" d="M0 0"/></g><g><path class="class-2 leaflet-clickable" stroke-linejoin="round" stroke-linecap="round" fill-rule="evenodd" stroke="#005540" stroke-opacity="1" stroke-width="0.5" fill="#00cc99" fill-opacity="0.5" d="M675 -19L661 -3L644 -22L629 -10L623 20L599 26L585 40L585 52L588 55L591 54L593 56L593 53L598 49L601 52L612 55L611 80L607 85L605 92L598 99L592 87L551 124L560 135L565 145L569 146L577 154L578 166L585 167L585 176L582 180L588 191L590 198L594 199L598 206L603 205L606 208L612 209L613 211L606 210L604 212L608 213L608 215L612 216L613 219L618 220L620 222L618 229L625 230L631 228L635 230L639 236L637 237L640 241L637 242L631 240L631 244L607 237L596 239L588 246L586 263L595 271L585 280L588 288L587 308L580 306L579 304L574 308L562 304L558 300L551 286L541 283L539 281L533 284L528 289L513 287L511 283L514 284L515 279L510 277L507 279L499 275L492 261L452 250L437 251L438 263L418 256L401 285L401 289L395 285L379 280L364 266L365 264L363 261L363 257L356 251L355 252L351 244L347 242L345 237L342 237L341 233L346 225L351 222L356 225L357 221L354 221L343 209L348 204L349 200L351 200L351 198L355 195L358 186L359 180L356 176L356 147L364 133L359 125L354 101L330 91L329 92L328 89L323 87L319 77L317 77L310 71L312 67L310 67L316 62L317 59L320 58L319 52L316 51L315 38L312 30L308 28L310 4L309 -2L307 -1L306 -7L306 -16L308 -16L303 -22L306 -25L300 -26L302 -28L301 -38L303 -37L302 -35L306 -34L308 -38L303 -40L329 -96L331 -103L333 -102L334 -104L332 -104L333 -109L336 -109L337 -106L340 -112L341 -111L348 -127L350 -130L352 -130L351 -133L360 -147L365 -144L369 -145L374 -143L377 -145L379 -149L378 -150L381 -154L380 -155L385 -157L390 -166L392 -165L396 -169L400 -169L396 -173L396 -175L398 -176L399 -183L402 -184L404 -188L403 -191L405 -195L405 -201L408 -203L408 -206L411 -209L411 -213L413 -213L415 -216L417 -224L422 -223L427 -226L429 -224L432 -226L432 -228L442 -226L444 -227L443 -228L446 -235L448 -237L449 -236L449 -238L459 -234L462 -235L464 -231L472 -228L480 -231L487 -229L490 -229L492 -231L497 -228L505 -226L510 -227L510 -225L512 -225L513 -227L517 -227L518 -230L521 -231L521 -226L528 -228L529 -225L532 -225L536 -217L542 -214L541 -207L543 -206L544 -211L547 -212L548 -206L546 -201L553 -200L556 -196L564 -195L569 -184L577 -180L585 -173L586 -174L590 -168L590 -164L599 -157L602 -145L601 -141L603 -139L603 -136L604 -137L607 -134L609 -130L608 -129L611 -128L612 -126L612 -123L615 -119L615 -111L619 -109L621 -104L625 -102L623 -100L625 -96L630 -94L627 -91L630 -89L629 -84L635 -74L634 -72L637 -67L640 -67L642 -63L646 -60L653 -58L662 -42L667 -41L666 -38L668 -34L670 -34L672 -22L674 -21z"/></g><g><path class="class-1 leaflet-clickable" stroke-linejoin="round" stroke-linecap="round" fill-rule="evenodd" stroke="#005540" stroke-opacity="1" stroke-width="0.5" fill="#7fd" fill-opacity="0.5" d="M588 307L593 317L583 328L575 335L569 329L569 324L564 342L550 347L552 371L539 383L499 418L468 427L463 426L461 418L457 418L456 426L452 430L456 434L457 431L456 434L453 435L452 439L457 441L459 449L455 457L457 457L461 475L467 483L484 497L492 496L490 505L495 506L494 510L498 515L500 512L503 513L502 510L510 510L516 502L516 499L518 500L518 496L525 491L525 487L532 487L537 490L535 494L539 496L543 503L544 510L541 516L536 516L535 525L530 525L530 527L534 533L532 534L535 534L540 540L538 543L540 547L538 556L536 556L535 558L538 558L537 561L533 564L531 567L532 568L526 573L526 576L524 577L525 579L521 579L519 576L518 569L512 569L508 564L501 559L499 560L498 558L491 558L491 556L482 549L476 548L477 545L475 545L479 544L479 537L477 536L476 532L472 530L471 532L465 532L465 526L456 524L456 522L452 519L452 515L450 515L449 522L444 525L436 526L436 530L431 532L418 532L420 540L417 543L418 545L416 547L416 550L410 553L405 561L399 576L401 577L401 580L403 580L404 583L411 588L406 593L408 594L409 600L414 602L415 605L420 606L420 608L422 609L419 615L420 621L417 625L415 625L414 621L412 620L410 627L404 627L405 629L401 630L399 635L397 635L395 638L392 637L392 635L390 635L389 633L387 633L386 635L383 633L380 639L380 645L382 649L381 651L376 653L369 649L367 651L364 650L364 652L362 653L361 652L355 654L349 646L350 645L348 644L342 646L341 644L339 644L336 647L334 646L331 639L328 638L330 635L330 631L325 630L323 632L322 628L324 626L326 627L327 625L332 624L335 626L337 624L340 624L342 621L338 615L333 620L331 616L328 616L327 613L324 613L326 608L325 604L329 602L331 604L334 601L337 602L337 596L341 589L340 583L336 581L340 580L339 578L346 577L349 571L351 569L356 569L357 566L362 561L368 564L370 563L370 560L378 559L378 554L374 553L376 550L380 549L381 547L378 545L378 543L383 537L380 535L379 532L370 531L370 533L368 533L372 523L368 520L362 520L355 524L356 533L358 530L360 530L361 531L359 535L361 536L357 536L353 538L353 540L350 539L348 549L342 550L341 548L339 549L337 547L333 551L328 550L325 548L333 533L331 533L329 529L330 527L332 527L334 520L337 519L335 511L331 505L327 507L320 504L314 517L314 523L311 527L312 532L309 544L304 534L305 532L303 528L307 521L309 521L307 518L309 511L308 509L310 506L309 505L318 499L319 490L308 488L306 489L305 487L294 487L291 491L295 495L295 502L298 502L297 505L299 507L296 508L302 511L303 514L297 520L296 524L292 523L291 525L288 525L288 523L290 523L289 522L292 515L290 508L287 508L284 511L279 510L278 512L280 515L278 516L281 517L282 522L278 519L275 520L272 527L270 527L270 525L265 522L265 520L268 518L270 514L267 508L272 502L272 498L270 495L272 493L271 491L273 490L272 488L277 484L280 486L288 484L286 477L287 473L281 464L281 449L285 444L286 431L289 420L294 413L307 404L310 398L314 401L315 399L316 395L310 395L311 392L309 387L313 383L312 378L310 376L313 366L310 364L311 360L314 360L324 350L328 348L330 352L331 351L337 343L336 334L341 334L344 331L346 331L350 320L363 320L365 318L367 321L373 319L379 323L380 319L381 320L384 316L389 319L391 317L397 320L398 317L403 324L407 322L410 325L418 325L424 322L430 322L431 320L435 320L434 301L427 272L417 268L417 265L420 265L421 262L418 256L438 263L437 251L452 250L492 261L499 275L507 279L510 277L515 279L514 284L511 283L513 287L528 289L533 284L539 281L541 283L550 285L558 300L562 304L574 308L579 304L580 306L587 308z"/></g><g><path class="class-0 leaflet-clickable" stroke-linejoin="round" stroke-linecap="round" fill-rule="evenodd" stroke="#005540" stroke-opacity="1" stroke-width="0.5" fill="#ddfff6" fill-opacity="0.5" d="M675 -19L678 -19L679 -16L686 -10L667 4L668 10L683 15L684 32L690 50L693 53L685 68L682 67L682 71L684 69L689 69L689 71L693 71L698 74L699 77L695 84L696 88L691 92L692 94L703 94L716 101L713 126L715 131L719 128L728 136L734 136L737 156L740 156L742 154L744 155L750 151L761 165L768 157L790 160L790 213L804 213L804 218L758 255L750 255L749 251L747 250L745 255L739 258L737 257L737 260L735 262L737 271L733 277L735 285L732 286L725 282L719 285L716 289L713 289L708 292L706 295L707 298L702 300L702 302L696 300L685 307L686 314L694 312L698 323L698 330L695 335L692 351L700 359L702 359L703 363L707 367L710 376L707 375L699 385L695 387L682 384L673 385L664 407L668 424L653 423L648 428L654 432L651 439L640 437L642 431L635 431L633 436L627 436L628 443L631 443L631 446L617 443L619 426L614 421L616 410L619 411L618 406L616 406L616 402L620 393L616 389L615 383L611 378L613 356L612 351L614 349L605 345L607 345L608 340L603 340L606 323L596 314L593 317L588 307L588 288L585 280L595 271L586 263L588 246L596 239L607 237L631 244L631 240L637 242L640 241L637 237L639 236L638 232L631 228L625 230L618 229L620 222L618 220L613 219L612 216L608 215L608 213L604 212L606 210L613 211L612 209L606 208L603 205L598 206L594 199L590 198L588 191L582 180L586 170L585 167L578 166L577 154L569 146L565 145L560 135L551 124L592 87L598 99L605 92L606 87L611 80L612 55L601 52L599 51L599 49L593 52L593 56L591 54L588 55L585 52L585 40L599 26L623 20L629 -10L644 -22L661 -3L667 -9z"/></g><g><path class="class-2 leaflet-clickable" stroke-linejoin="round" stroke-linecap="round" fill-rule="evenodd" stroke="#005540" stroke-opacity="1" stroke-width="0.5" fill="#00cc99" fill-opacity="0.5" d="M862 535L862 543L865 554L878 577L882 583L904 603L902 615L896 625L896 639L913 675L918 691L929 705L935 710L938 716L960 739L974 759L984 770L991 798L997 807L997 820L1000 824L1008 828L1009 831L1013 831L1015 836L917 836L930 836L929 833L933 830L935 825L934 823L931 823L930 821L925 823L919 820L917 821L915 820L915 817L914 818L913 816L908 814L903 814L902 816L900 813L898 813L898 811L902 809L902 805L898 805L894 795L896 791L897 793L903 787L906 786L904 783L907 766L911 762L909 761L910 758L915 754L915 751L922 743L899 733L900 731L897 733L893 732L892 737L888 740L889 742L880 748L878 739L871 739L866 737L867 731L865 730L869 728L869 726L872 726L872 724L869 724L864 718L868 711L875 716L881 708L885 708L880 701L872 702L869 696L870 694L866 692L867 689L865 687L868 683L869 678L867 678L866 676L864 675L858 677L856 676L856 674L854 674L850 686L852 687L850 690L852 695L851 698L844 705L842 704L840 698L841 695L837 690L827 704L822 705L818 710L814 712L814 715L808 716L801 723L794 722L793 713L789 708L795 703L795 699L799 698L798 694L804 685L798 687L794 691L793 688L796 684L800 684L802 674L804 673L810 672L814 677L812 678L813 679L819 679L822 676L820 676L819 671L820 668L822 668L821 666L822 662L824 661L824 657L829 655L829 650L824 646L824 644L820 646L819 644L816 644L818 641L817 639L812 641L812 643L805 643L799 636L800 635L794 632L800 623L799 620L795 619L796 613L794 610L788 606L785 594L792 591L791 588L793 588L794 590L801 583L801 581L798 576L796 578L793 571L796 570L793 568L797 568L796 565L792 567L790 563L793 564L795 562L800 564L799 562L801 561L803 552L805 551L803 549L812 542L811 539L813 537L809 537L809 535L806 535L806 532L804 533L802 530L798 531L790 524L781 524L782 521L785 520L789 522L797 518L800 518L801 520L802 518L804 518L803 520L806 521L808 519L808 522L811 522L814 520L813 518L815 515L820 516L820 514L824 515L826 519L833 522L836 526L844 526L846 528L844 530L849 534L852 539L858 540L858 537L860 536z"/></g><g><path class="class-0 leaflet-clickable" stroke-linejoin="round" stroke-linecap="round" fill-rule="evenodd" stroke="#005540" stroke-opacity="1" stroke-width="0.5" fill="#ddfff6" fill-opacity="0.5" d="M862 535L858 537L858 540L852 539L844 530L846 528L844 526L836 526L835 524L826 519L824 515L820 514L820 516L815 515L813 518L814 520L811 522L808 522L808 519L806 521L803 520L804 518L802 518L801 520L800 518L797 518L789 522L785 520L769 525L763 524L762 526L758 522L746 520L730 520L726 506L722 498L718 499L717 494L712 495L707 487L702 487L707 499L703 500L701 497L690 493L686 496L678 496L675 494L675 489L671 487L664 487L659 489L652 486L658 479L657 470L651 470L651 464L653 465L652 461L654 462L655 459L660 455L654 452L655 450L650 449L650 442L654 432L648 428L653 423L668 424L664 407L673 385L682 384L695 387L699 385L707 375L710 376L707 367L703 363L702 359L700 359L692 351L693 342L698 330L698 323L694 312L686 314L685 307L696 300L702 302L702 300L707 298L706 295L708 292L715 289L719 285L725 283L732 286L735 285L733 277L737 271L735 262L737 260L737 257L739 258L745 255L747 250L750 254L754 256L758 255L804 218L804 213L790 213L790 160L768 157L761 165L750 151L744 155L743 154L737 156L734 136L728 136L719 128L715 131L713 126L716 101L703 94L692 94L691 92L696 88L695 84L699 77L698 74L693 71L689 71L689 69L684 69L682 71L682 67L685 68L693 53L690 50L684 32L683 15L668 10L667 4L686 -10L687 -7L691 -8L691 -5L694 -4L697 -6L699 -3L703 -2L705 3L704 9L708 10L706 26L703 28L707 29L707 32L712 34L711 37L713 42L713 51L711 53L711 58L714 58L717 62L717 67L721 68L723 70L723 74L727 76L730 82L730 86L733 88L737 105L736 107L740 108L742 111L742 118L744 122L748 120L751 122L754 121L756 122L756 124L758 122L762 126L768 124L772 129L774 128L778 133L777 134L781 135L782 138L790 136L791 139L803 139L803 142L808 146L811 145L815 151L818 150L820 154L823 154L825 156L827 154L829 157L831 155L836 155L836 157L839 158L840 155L846 157L854 155L860 156L861 158L865 159L873 159L879 166L884 168L886 173L889 172L889 174L892 174L895 178L900 178L900 170L909 168L908 166L921 166L918 193L890 250L882 271L872 312L868 349L867 387L864 424L865 461L862 482L856 499L857 520L860 530z"/></g><g><path class="class-0 leaflet-clickable" stroke-linejoin="round" stroke-linecap="round" fill-rule="evenodd" stroke="#005540" stroke-opacity="1" stroke-width="0.5" fill="#ddfff6" fill-opacity="0.5" d="M651 439L650 449L655 450L654 452L660 455L655 459L654 462L653 461L653 465L651 464L651 470L657 470L658 479L652 485L659 489L664 487L671 487L675 489L675 494L678 496L686 496L690 493L701 497L703 500L707 499L702 487L707 487L712 495L717 494L718 499L722 498L726 506L730 520L746 520L758 522L762 526L763 524L768 525L782 521L781 524L790 524L790 526L794 527L798 531L802 530L804 533L806 532L806 534L809 535L809 537L813 537L811 539L812 542L803 549L805 551L803 552L801 561L799 562L800 564L795 562L793 564L790 563L792 567L795 565L797 568L794 567L793 568L796 570L793 571L796 577L798 576L798 579L801 581L801 583L794 590L793 588L791 588L792 590L785 594L788 606L794 609L796 613L795 619L797 620L796 622L784 622L783 624L781 624L782 627L788 630L787 639L781 639L780 641L770 639L771 642L768 643L762 639L757 628L748 631L744 629L742 630L739 626L740 623L743 623L743 618L740 613L739 606L740 601L735 594L732 593L729 599L726 599L727 603L724 606L721 606L720 604L718 605L718 609L715 616L712 614L707 617L700 614L695 609L692 603L689 602L684 602L684 607L680 612L673 612L669 614L666 613L664 609L665 607L655 607L651 601L647 598L646 599L646 596L636 591L621 592L618 599L619 604L609 606L605 609L605 606L603 605L603 607L601 607L595 604L594 602L583 598L585 593L579 592L577 590L578 588L575 588L571 585L564 583L557 585L552 582L550 578L543 579L537 576L531 578L527 577L525 579L524 577L526 576L526 573L532 569L531 567L537 561L538 558L535 558L536 556L538 556L540 547L538 543L540 540L535 534L532 534L534 533L530 527L530 525L535 525L536 517L541 516L544 510L542 500L539 496L535 494L538 490L532 487L525 487L525 491L518 496L518 500L516 499L516 502L510 510L502 510L503 513L500 512L498 515L494 511L495 506L490 505L492 496L484 497L467 483L461 475L457 457L455 457L459 449L457 441L452 439L453 435L456 435L458 431L456 434L452 430L456 426L457 418L461 418L463 426L468 427L499 418L552 371L550 347L564 342L569 324L569 329L575 335L596 314L606 323L603 340L608 340L607 345L605 345L614 349L610 371L611 378L615 383L615 389L620 395L616 402L616 406L618 406L619 411L616 410L614 420L619 426L617 443L631 446L631 443L628 443L627 436L633 436L635 431L642 431L640 437L648 438z"/></g></svg>