<svg xmlns="http://www.w3.org/2000/svg" class="leaflet-zoom-animated" width="1979" height="719" viewBox="-198 -72 1979 719" style="transform: translate3d(-198px, -72px, 0px);"><g><path class="class-3 leaflet-clickable" stroke-linejoin="round" stroke-linecap="round" fill-rule="evenodd" stroke="#005540" stroke-opacity="1" stroke-width="0.5" fill="#086" fill-opacity="0.5" d="M1020 470L1023 473L1024 472L1024 474L1028 476L1027 477L1032 481L1037 483L1038 488L1044 491L1043 498L1014 498L1003 518L1006 522L1003 527L1004 531L1002 535L974 507L966 501L961 500L959 496L961 495L961 492L959 489L965 473L973 466L973 464L977 460L976 458L979 453L982 455L982 457L984 457L983 459L986 465L987 464L989 466L988 467L989 466L991 468L995 463L1000 462L999 461L1005 458L1005 456L1008 454L1011 455L1011 459L1015 460L1015 466L1020 467L1021 470z"/></g><g><path class="class-3 leaflet-clickable" stroke-linejoin="round" stroke-linecap="round" fill-rule="evenodd" stroke="#005540" stroke-opacity="1" stroke-width="0.5" fill="#086" fill-opacity="0.5" d="M837 435L841 441L845 441L847 446L852 450L851 451L854 452L852 452L855 454L861 454L860 460L864 464L864 471L865 470L866 473L870 475L869 480L866 484L867 485L863 487L862 491L858 493L853 487L851 488L841 484L833 484L825 478L801 470L802 469L797 465L793 464L784 455L776 452L777 448L783 445L783 439L785 438L789 438L789 440L791 441L807 441L809 443L810 442L810 444L811 441L809 441L808 439L807 432L810 433L812 431L815 434L814 437L819 444L825 438L829 438L833 434L836 436z"/></g><g><path class="class-3 leaflet-clickable" stroke-linejoin="round" stroke-linecap="round" fill-rule="evenodd" stroke="#005540" stroke-opacity="1" stroke-width="0.5" fill="#086" fill-opacity="0.5" d="M965 473L959 489L961 492L960 496L962 500L956 497L946 495L934 496L929 501L925 501L915 506L914 505L911 508L902 508L893 505L890 502L876 501L866 494L859 493L863 490L862 487L867 485L866 484L869 481L869 477L871 475L866 474L865 470L864 471L864 464L860 460L861 456L865 454L866 455L868 453L872 453L875 455L877 452L876 451L875 453L874 448L879 445L881 452L888 448L893 449L900 443L901 437L907 440L912 449L920 449L921 454L919 459L923 463L926 464L932 459L934 459L935 460L933 462L937 467L942 470L941 471L960 473z"/></g><g><path class="class-3 leaflet-clickable" stroke-linejoin="round" stroke-linecap="round" fill-rule="evenodd" stroke="#005540" stroke-opacity="1" stroke-width="0.5" fill="#086" fill-opacity="0.5" d="M684 371L683 371z"/></g><g><path class="class-3 leaflet-clickable" stroke-linejoin="round" stroke-linecap="round" fill-rule="evenodd" stroke="#005540" stroke-opacity="1" stroke-width="0.5" fill="#086" fill-opacity="0.5" d="M679 368L681 369L680 370L678 368z"/></g><g><path class="class-3 leaflet-clickable" stroke-linejoin="round" stroke-linecap="round" fill-rule="evenodd" stroke="#005540" stroke-opacity="1" stroke-width="0.5" fill="#086" fill-opacity="0.5" d="M674 363L676 363L677 366L675 366L674 364z"/></g><g><path class="class-3 leaflet-clickable" stroke-linejoin="round" stroke-linecap="round" fill-rule="evenodd" stroke="#005540" stroke-opacity="1" stroke-width="0.5" fill="#086" fill-opacity="0.5" d="M674 361L673 362z"/></g><g><path class="class-3 leaflet-clickable" stroke-linejoin="round" stroke-linecap="round" fill-rule="evenodd" stroke="#005540" stroke-opacity="1" stroke-width="0.5" fill="#086" fill-opacity="0.5" d="M726 346L728 347L726 356L730 356L731 360L735 361L737 363L736 366L741 370L738 373L739 374L729 376L730 381L726 385L729 387L729 389L718 380L709 382L706 388L704 386L699 386L707 376L707 367L706 368L701 364L697 356L697 349L694 343L695 342L695 344L697 341L702 343L700 339L700 333L703 329L704 332L712 332L711 333L714 337L710 339L712 343L716 340L721 344L722 347L726 345z"/></g><g><path class="class-3 leaflet-clickable" stroke-linejoin="round" stroke-linecap="round" fill-rule="evenodd" stroke="#005540" stroke-opacity="1" stroke-width="0.5" fill="#086" fill-opacity="0.5" d="M807 292L809 295L804 299L802 297L801 301L799 302L798 308L793 313L785 320L780 322L777 322L775 320L773 323L775 323L773 325L777 336L781 340L783 339L783 342L785 344L788 343L792 337L795 338L794 339L796 343L794 344L793 348L795 350L795 355L792 359L791 360L790 358L783 355L779 352L779 348L778 349L773 345L771 347L765 348L765 352L760 359L763 363L763 366L766 368L765 371L763 371L759 375L756 374L756 378L754 379L750 379L743 376L741 372L745 371L745 369L741 369L741 367L745 365L746 362L744 360L754 355L756 350L754 348L753 349L751 345L749 347L750 350L748 350L747 353L741 352L744 349L744 344L743 342L741 342L739 343L738 351L736 347L738 343L737 342L740 341L740 339L737 337L733 338L736 343L733 347L733 343L731 343L729 347L727 346L728 338L732 336L730 331L733 319L738 315L739 316L738 306L742 302L744 302L744 299L746 299L748 295L760 295L763 297L768 296L769 291L765 283L765 280L770 281L769 278L778 279L783 281L785 284L789 285L788 286L790 288L796 286L799 288L800 291L804 293L807 292z"/></g><g><path class="class-3 leaflet-clickable" stroke-linejoin="round" stroke-linecap="round" fill-rule="evenodd" stroke="#005540" stroke-opacity="1" stroke-width="0.5" fill="#086" fill-opacity="0.5" d="M900 443L896 447L891 449L888 448L883 452L881 452L879 446L875 446L875 453L877 451L878 452L876 452L873 455L871 453L867 453L867 455L862 456L861 453L857 454L847 446L847 444L850 441L855 442L854 434L857 428L856 417L858 417L867 426L870 423L873 425L875 422L879 421L876 417L873 416L874 415L872 413L870 413L870 411L865 412L866 411L864 408L869 401L867 398L864 398L867 397L873 390L874 384L877 385L877 389L881 392L876 395L878 397L877 400L881 402L884 398L890 401L884 416L886 418L885 419L894 422L892 424L893 425L889 424L886 437L887 436L892 441L896 439L900 443z"/></g><g><path class="class-2 leaflet-clickable" stroke-linejoin="round" stroke-linecap="round" fill-rule="evenodd" stroke="#005540" stroke-opacity="1" stroke-width="0.5" fill="#00cc99" fill-opacity="0.5" d="M741 238L749 241L751 249L749 252L750 261L746 268L750 272L747 272L746 275L752 281L751 282L758 287L760 287L765 279L769 294L768 296L765 297L761 297L760 295L750 295L738 306L739 315L737 315L737 317L734 319L731 326L730 331L732 336L728 337L728 344L723 347L719 342L717 342L717 340L715 340L713 343L711 341L710 339L714 337L711 333L712 332L704 332L702 328L699 329L697 327L695 322L696 321L693 316L691 317L690 308L692 309L690 307L689 302L684 297L681 297L681 299L677 299L673 289L663 280L661 271L663 269L662 268L667 265L666 264L669 267L673 267L678 263L676 264L676 258L679 257L678 254L683 246L685 236L686 237L688 234L690 237L691 236L694 239L695 238L701 243L709 243L710 245L716 243L721 247L729 235L733 237L738 237z"/></g><g><path class="class-2 leaflet-clickable" stroke-linejoin="round" stroke-linecap="round" fill-rule="evenodd" stroke="#005540" stroke-opacity="1" stroke-width="0.5" fill="#00cc99" fill-opacity="0.5" d="M823 325L825 329L823 331L825 335L823 337L828 337L836 341L837 337L845 346L858 346L864 350L858 357L860 357L860 361L856 365L859 368L859 370L855 372L857 372L856 376L852 376L849 372L846 373L844 364L839 370L837 370L833 366L831 366L831 368L828 369L819 363L817 363L815 367L811 368L807 366L804 362L791 360L795 355L795 351L793 348L796 344L794 339L795 338L792 337L790 341L789 340L788 343L785 344L783 342L783 339L781 340L776 335L774 330L775 328L773 325L775 323L773 323L775 320L777 322L785 320L798 308L798 302L801 301L802 296L804 299L809 295L812 296L811 301L814 303L814 326L817 327L817 324L818 325L819 323L821 323L820 325L822 325z"/></g><g><path class="class-2 leaflet-clickable" stroke-linejoin="round" stroke-linecap="round" fill-rule="evenodd" stroke="#005540" stroke-opacity="1" stroke-width="0.5" fill="#00cc99" fill-opacity="0.5" d="M871 392L867 397L864 398L868 399L868 401L864 407L866 410L863 411L864 412L862 414L856 414L857 409L854 407L850 407L849 409L848 406L850 404L848 403L848 405L845 404L843 408L841 408L840 410L840 408L837 405L837 400L834 401L829 398L829 391L834 390L836 388L840 379L839 378L847 376L849 372L850 375L856 376L856 372L860 370L859 373L862 376L865 375L864 376L866 376L868 379L865 383L866 385L861 384L858 388L860 387L858 396L863 395L869 389L871 391z"/></g><g><path class="class-2 leaflet-clickable" stroke-linejoin="round" stroke-linecap="round" fill-rule="evenodd" stroke="#005540" stroke-opacity="1" stroke-width="0.5" fill="#00cc99" fill-opacity="0.5" d="M1031 457L1031 470L1020 470L1021 467L1015 465L1016 462L1012 459L1012 455L1008 455L1001 460L1000 459L1000 461L998 463L994 463L994 465L991 468L989 466L988 467L989 466L987 464L985 464L983 459L984 456L982 456L983 455L980 453L977 454L977 460L973 464L971 469L969 467L971 463L969 463L965 458L960 456L961 452L959 448L975 442L988 442L991 440L991 438L996 437L999 442L1003 442L1004 449L1007 450L1008 452L1016 456L1016 450L1019 448L1019 450L1025 453L1031 453L1031 455z"/></g><g><path class="class-2 leaflet-clickable" stroke-linejoin="round" stroke-linecap="round" fill-rule="evenodd" stroke="#005540" stroke-opacity="1" stroke-width="0.5" fill="#00cc99" fill-opacity="0.5" d="M1044 384L1044 391L1048 391L1049 394L1052 393L1057 397L1056 398L1062 404L1065 412L1072 418L1072 457L1031 457L1031 453L1021 451L1018 449L1019 448L1016 451L1016 455L1004 449L1004 444L1000 442L997 438L1000 436L1008 436L1011 438L1028 428L1037 420L1037 412L1043 405L1042 391L1044 384z"/></g><g><path class="class-1 leaflet-clickable" stroke-linejoin="round" stroke-linecap="round" fill-rule="evenodd" stroke="#005540" stroke-opacity="1" stroke-width="0.5" fill="#7fd" fill-opacity="0.5" d="M876 349L878 357L886 366L884 372L885 378L892 392L899 398L906 407L909 419L914 424L914 426L917 427L919 432L924 435L933 435L943 440L950 449L959 447L960 456L968 460L970 463L970 470L968 470L965 473L941 472L942 470L937 467L933 462L935 460L934 459L932 459L926 464L923 464L919 459L921 454L920 449L912 449L913 448L912 449L910 447L905 438L901 437L900 444L898 440L894 439L892 441L889 437L886 436L888 431L887 428L894 422L885 419L886 418L884 416L884 414L887 411L887 407L891 401L884 398L881 402L877 400L878 397L876 395L877 393L878 394L881 392L878 391L876 384L874 384L873 390L871 391L869 388L868 391L863 395L858 396L859 395L857 392L860 390L861 387L859 388L863 383L863 385L865 385L866 380L868 378L864 376L865 375L862 376L859 373L860 370L859 371L856 365L861 361L858 356L860 357L861 353L864 350L856 346L862 346L865 344L871 347L874 351L875 349z"/></g><g><path class="class-1 leaflet-clickable" stroke-linejoin="round" stroke-linecap="round" fill-rule="evenodd" stroke="#005540" stroke-opacity="1" stroke-width="0.5" fill="#7fd" fill-opacity="0.5" d="M1113 443L1114 440L1114 442z"/></g><g><path class="class-1 leaflet-clickable" stroke-linejoin="round" stroke-linecap="round" fill-rule="evenodd" stroke="#005540" stroke-opacity="1" stroke-width="0.5" fill="#7fd" fill-opacity="0.5" d="M1115 435L1115 437L1115 435z"/></g><g><path class="class-1 leaflet-clickable" stroke-linejoin="round" stroke-linecap="round" fill-rule="evenodd" stroke="#005540" stroke-opacity="1" stroke-width="0.5" fill="#7fd" fill-opacity="0.5" d="M1127 391L1121 398L1121 394L1123 391L1128 390z"/></g><g><path class="class-1 leaflet-clickable" stroke-linejoin="round" stroke-linecap="round" fill-rule="evenodd" stroke="#005540" stroke-opacity="1" stroke-width="0.5" fill="#7fd" fill-opacity="0.5" d="M1072 454L1071 450L1073 449L1073 425L1072 418L1069 415L1072 413L1073 414L1073 412L1075 412L1075 410L1080 407L1080 405L1083 404L1084 401L1087 401L1089 398L1095 397L1099 394L1106 386L1109 380L1109 368L1116 370L1119 369L1120 366L1125 373L1125 370L1126 371L1126 379L1123 385L1111 399L1111 409L1110 410L1111 406L1110 409L1104 412L1106 416L1111 413L1112 414L1111 418L1106 420L1106 424L1109 421L1111 421L1109 423L1101 449L1098 449L1098 443L1093 443L1093 441L1087 441L1085 447L1082 449L1079 455L1075 452L1073 454z"/></g><g><path class="class-1 leaflet-clickable" stroke-linejoin="round" stroke-linecap="round" fill-rule="evenodd" stroke="#005540" stroke-opacity="1" stroke-width="0.5" fill="#7fd" fill-opacity="0.5" d="M1119 365L1117 367L1112 368L1114 366L1118 366z"/></g><g><path class="class-1 leaflet-clickable" stroke-linejoin="round" stroke-linecap="round" fill-rule="evenodd" stroke="#005540" stroke-opacity="1" stroke-width="0.5" fill="#7fd" fill-opacity="0.5" d="M856 417L855 414L861 414L864 412L863 411L869 411L874 415L874 417L876 417L879 420L878 422L875 421L873 424L870 423L867 426L860 420L859 417L857 418z"/></g><g><path class="class-1 leaflet-clickable" stroke-linejoin="round" stroke-linecap="round" fill-rule="evenodd" stroke="#005540" stroke-opacity="1" stroke-width="0.5" fill="#7fd" fill-opacity="0.5" d="M817 397L821 399L820 401L823 404L822 405L824 408L822 408L820 412L821 419L818 420L816 426L810 433L807 432L808 439L811 441L811 444L807 441L804 442L802 440L796 439L792 441L786 438L783 439L782 441L783 446L776 449L776 455L746 445L740 436L746 429L751 428L754 430L757 427L757 425L758 426L758 424L763 422L764 423L766 421L767 417L763 417L764 415L761 410L763 408L762 406L756 405L756 402L759 401L758 400L763 401L769 396L776 395L780 395L779 396L781 396L783 400L787 400L788 397L792 396L792 398L795 399L793 399L793 402L795 404L799 404L799 402L801 402L804 406L814 406L817 405L816 402L818 398z"/></g><g><path class="class-1 leaflet-clickable" stroke-linejoin="round" stroke-linecap="round" fill-rule="evenodd" stroke="#005540" stroke-opacity="1" stroke-width="0.5" fill="#7fd" fill-opacity="0.5" d="M750 179L742 191L743 192L737 202L737 207L736 206L735 209L737 209L737 223L739 224L740 229L738 234L741 236L741 238L729 235L727 236L728 237L721 247L717 243L711 245L709 243L704 244L703 242L702 243L696 240L695 238L694 239L691 236L690 237L688 234L687 237L685 237L686 238L683 242L683 246L678 253L679 257L676 258L676 264L678 262L674 267L670 267L659 258L660 257L657 252L649 253L647 251L643 245L643 237L640 233L638 233L638 229L632 231L630 230L631 229L630 230L630 227L628 225L630 222L628 219L629 217L627 216L626 212L622 210L624 209L619 202L619 198L632 196L632 192L627 181L628 176L626 174L626 172L628 172L627 168L629 166L628 160L631 159L629 157L629 145L631 146L628 138L624 137L622 133L622 130L625 129L625 126L628 126L626 126L627 125L624 123L625 121L623 121L626 118L639 118L639 106L642 105L679 106L684 113L687 116L689 116L700 128L710 135L712 135L712 137L714 137L715 143L719 148L719 156L722 159L722 161L726 165L730 166L729 167L732 170L739 172L750 179z"/></g><g><path class="class-1 leaflet-clickable" stroke-linejoin="round" stroke-linecap="round" fill-rule="evenodd" stroke="#005540" stroke-opacity="1" stroke-width="0.5" fill="#7fd" fill-opacity="0.5" d="M783 355L782 356L784 358L779 359L775 364L771 364L765 361L762 362L760 360L765 352L765 348L771 347L773 345L777 347L776 348L779 348L779 352L783 355z"/></g><g><path class="class-1 leaflet-clickable" stroke-linejoin="round" stroke-linecap="round" fill-rule="evenodd" stroke="#005540" stroke-opacity="1" stroke-width="0.5" fill="#7fd" fill-opacity="0.5" d="M847 373L846 376L842 378L841 376L836 386L837 388L829 391L829 398L827 397L827 402L823 404L820 401L820 398L818 398L814 394L812 385L815 382L823 382L824 379L825 380L825 375L831 375L833 373L830 372L832 366L839 370L844 364L846 373z"/></g><g><path class="class-1 leaflet-clickable" stroke-linejoin="round" stroke-linecap="round" fill-rule="evenodd" stroke="#005540" stroke-opacity="1" stroke-width="0.5" fill="#7fd" fill-opacity="0.5" d="M602 302L600 302L600 297L602 301z"/></g><g><path class="class-1 leaflet-clickable" stroke-linejoin="round" stroke-linecap="round" fill-rule="evenodd" stroke="#005540" stroke-opacity="1" stroke-width="0.5" fill="#7fd" fill-opacity="0.5" d="M590 293L590 296L589 293z"/></g><g><path class="class-1 leaflet-clickable" stroke-linejoin="round" stroke-linecap="round" fill-rule="evenodd" stroke="#005540" stroke-opacity="1" stroke-width="0.5" fill="#7fd" fill-opacity="0.5" d="M589 291L589 292z"/></g><g><path class="class-1 leaflet-clickable" stroke-linejoin="round" stroke-linecap="round" fill-rule="evenodd" stroke="#005540" stroke-opacity="1" stroke-width="0.5" fill="#7fd" fill-opacity="0.5" d="M582 279L585 281L586 284L582 280z"/></g><g><path class="class-1 leaflet-clickable" stroke-linejoin="round" stroke-linecap="round" fill-rule="evenodd" stroke="#005540" stroke-opacity="1" stroke-width="0.5" fill="#7fd" fill-opacity="0.5" d="M582 273L581 275L582 273z"/></g><g><path class="class-1 leaflet-clickable" stroke-linejoin="round" stroke-linecap="round" fill-rule="evenodd" stroke="#005540" stroke-opacity="1" stroke-width="0.5" fill="#7fd" fill-opacity="0.5" d="M580 263L581 266L580 264z"/></g><g><path class="class-1 leaflet-clickable" stroke-linejoin="round" stroke-linecap="round" fill-rule="evenodd" stroke="#005540" stroke-opacity="1" stroke-width="0.5" fill="#7fd" fill-opacity="0.5" d="M574 263L574 265L574 263z"/></g><g><path class="class-1 leaflet-clickable" stroke-linejoin="round" stroke-linecap="round" fill-rule="evenodd" stroke="#005540" stroke-opacity="1" stroke-width="0.5" fill="#7fd" fill-opacity="0.5" d="M574 254L574 256L572 256L570 260L571 261L570 258L571 255L573 255z"/></g><g><path class="class-1 leaflet-clickable" stroke-linejoin="round" stroke-linecap="round" fill-rule="evenodd" stroke="#005540" stroke-opacity="1" stroke-width="0.5" fill="#7fd" fill-opacity="0.5" d="M569 252L569 252z"/></g><g><path class="class-1 leaflet-clickable" stroke-linejoin="round" stroke-linecap="round" fill-rule="evenodd" stroke="#005540" stroke-opacity="1" stroke-width="0.5" fill="#7fd" fill-opacity="0.5" d="M551 224L551 226L550 224z"/></g><g><path class="class-1 leaflet-clickable" stroke-linejoin="round" stroke-linecap="round" fill-rule="evenodd" stroke="#005540" stroke-opacity="1" stroke-width="0.5" fill="#7fd" fill-opacity="0.5" d="M554 219L553 219z"/></g><g><path class="class-1 leaflet-clickable" stroke-linejoin="round" stroke-linecap="round" fill-rule="evenodd" stroke="#005540" stroke-opacity="1" stroke-width="0.5" fill="#7fd" fill-opacity="0.5" d="M480 208L480 208z"/></g><g><path class="class-1 leaflet-clickable" stroke-linejoin="round" stroke-linecap="round" fill-rule="evenodd" stroke="#005540" stroke-opacity="1" stroke-width="0.5" fill="#7fd" fill-opacity="0.5" d="M502 205L535 205L537 212L545 218L548 224L547 225L554 229L552 230L552 232L554 234L556 233L559 235L562 241L565 243L564 244L568 254L568 262L573 268L575 268L576 274L583 285L581 293L584 300L590 302L590 298L593 298L598 302L598 305L602 306L602 308L605 311L605 314L610 317L611 324L607 329L598 334L595 330L593 320L589 316L585 314L573 302L563 297L558 298L548 290L548 287L545 286L550 274L550 261L544 250L537 248L522 236L520 235L517 238L510 231L506 231L503 227L499 227L496 224L495 220L482 209L483 208L495 211L501 208L502 206z"/></g><g><path class="class-1 leaflet-clickable" stroke-linejoin="round" stroke-linecap="round" fill-rule="evenodd" stroke="#005540" stroke-opacity="1" stroke-width="0.5" fill="#7fd" fill-opacity="0.5" d="M763 362L765 361L773 365L783 358L784 357L782 357L784 355L786 355L791 361L789 361L790 362L788 367L790 370L788 370L788 372L785 374L785 376L778 385L781 388L778 394L776 396L770 396L761 402L760 400L756 402L756 405L758 404L763 407L763 409L761 410L764 415L763 416L768 417L765 423L763 422L759 424L754 430L752 428L746 429L746 421L742 416L738 419L733 416L731 421L724 423L723 422L720 425L716 423L716 421L715 422L712 420L710 415L708 415L700 404L696 394L704 392L706 390L705 388L707 385L708 386L710 382L715 380L722 382L729 390L728 385L726 385L730 381L729 376L739 374L738 373L741 370L736 365L737 363L735 361L731 361L730 357L726 355L728 347L730 345L731 346L730 343L733 344L732 347L736 344L733 339L734 337L740 339L740 341L737 342L738 343L736 347L738 351L738 347L741 341L744 343L741 352L742 353L746 353L748 350L750 350L749 347L751 345L753 347L752 348L756 350L754 356L750 356L746 360L744 360L746 362L745 365L741 367L741 369L745 369L746 371L741 373L743 373L744 377L754 379L756 374L759 375L763 371L764 372L766 368L762 365L763 363z"/></g><g><path class="class-1 leaflet-clickable" stroke-linejoin="round" stroke-linecap="round" fill-rule="evenodd" stroke="#005540" stroke-opacity="1" stroke-width="0.5" fill="#7fd" fill-opacity="0.5" d="M831 368L830 371L831 373L833 373L829 376L825 375L826 376L824 382L815 382L812 385L814 393L818 398L816 402L817 405L804 406L801 402L799 402L799 404L795 404L793 402L793 400L795 399L792 398L792 396L790 396L787 399L781 399L781 397L778 394L781 391L778 384L781 382L785 374L788 373L787 370L789 370L788 367L790 363L789 362L791 360L797 360L799 362L801 361L809 367L815 367L816 363L818 363L828 369L830 368z"/></g><g><path class="class-1 leaflet-clickable" stroke-linejoin="round" stroke-linecap="round" fill-rule="evenodd" stroke="#005540" stroke-opacity="1" stroke-width="0.5" fill="#7fd" fill-opacity="0.5" d="M490 444L490 444z"/></g><g><path class="class-1 leaflet-clickable" stroke-linejoin="round" stroke-linecap="round" fill-rule="evenodd" stroke="#005540" stroke-opacity="1" stroke-width="0.5" fill="#7fd" fill-opacity="0.5" d="M575 432L577 434L576 435L574 433L575 432z"/></g><g><path class="class-1 leaflet-clickable" stroke-linejoin="round" stroke-linecap="round" fill-rule="evenodd" stroke="#005540" stroke-opacity="1" stroke-width="0.5" fill="#7fd" fill-opacity="0.5" d="M746 429L740 436L726 426L719 424L720 425L723 422L724 423L732 421L731 420L733 416L738 419L742 416L746 420L746 429z"/></g><g><path class="class-1 leaflet-clickable" stroke-linejoin="round" stroke-linecap="round" fill-rule="evenodd" stroke="#005540" stroke-opacity="1" stroke-width="0.5" fill="#7fd" fill-opacity="0.5" d="M579 422L579 421z"/></g><g><path class="class-0 leaflet-clickable" stroke-linejoin="round" stroke-linecap="round" fill-rule="evenodd" stroke="#005540" stroke-opacity="1" stroke-width="0.5" fill="#ddfff6" fill-opacity="0.5" d="M540 186L539 188L539 186z"/></g><g><path class="class-0 leaflet-clickable" stroke-linejoin="round" stroke-linecap="round" fill-rule="evenodd" stroke="#005540" stroke-opacity="1" stroke-width="0.5" fill="#ddfff6" fill-opacity="0.5" d="M546 173L548 179L545 186L540 182L541 175L545 173z"/></g><g><path class="class-0 leaflet-clickable" stroke-linejoin="round" stroke-linecap="round" fill-rule="evenodd" stroke="#005540" stroke-opacity="1" stroke-width="0.5" fill="#ddfff6" fill-opacity="0.5" d="M491 106L493 106L492 107z"/></g><g><path class="class-0 leaflet-clickable" stroke-linejoin="round" stroke-linecap="round" fill-rule="evenodd" stroke="#005540" stroke-opacity="1" stroke-width="0.5" fill="#ddfff6" fill-opacity="0.5" d="M488 86L568 115L573 118L626 118L625 120L623 120L624 123L627 125L626 126L628 126L625 126L625 129L622 129L622 132L624 135L623 136L630 141L629 144L631 145L629 145L629 158L631 158L631 160L628 160L629 166L627 168L627 182L630 186L632 196L620 198L619 202L623 209L622 210L626 213L628 217L630 222L628 224L631 231L634 231L628 239L628 241L626 241L623 244L623 246L615 248L615 244L613 241L608 238L603 238L599 229L591 227L587 223L584 223L585 209L583 207L582 208L578 206L578 208L576 208L576 206L570 204L564 195L560 193L554 186L555 184L548 180L548 173L546 170L545 171L543 169L544 167L540 162L538 156L535 155L535 148L527 134L528 122L522 119L515 118L515 114L510 110L502 113L493 106L486 103L484 96L485 95L483 93L485 91L485 87L488 87zM579 205L579 206z"/></g><g><path class="class-0 leaflet-clickable" stroke-linejoin="round" stroke-linecap="round" fill-rule="evenodd" stroke="#005540" stroke-opacity="1" stroke-width="0.5" fill="#ddfff6" fill-opacity="0.5" d="M471 197L470 197z"/></g><g><path class="class-0 leaflet-clickable" stroke-linejoin="round" stroke-linecap="round" fill-rule="evenodd" stroke="#005540" stroke-opacity="1" stroke-width="0.5" fill="#ddfff6" fill-opacity="0.5" d="M479 195L481 201L480 204L476 202L479 199L479 196z"/></g><g><path class="class-0 leaflet-clickable" stroke-linejoin="round" stroke-linecap="round" fill-rule="evenodd" stroke="#005540" stroke-opacity="1" stroke-width="0.5" fill="#ddfff6" fill-opacity="0.5" d="M532 187L535 189L534 190L533 188z"/></g><g><path class="class-0 leaflet-clickable" stroke-linejoin="round" stroke-linecap="round" fill-rule="evenodd" stroke="#005540" stroke-opacity="1" stroke-width="0.5" fill="#ddfff6" fill-opacity="0.5" d="M518 176L518 177z"/></g><g><path class="class-0 leaflet-clickable" stroke-linejoin="round" stroke-linecap="round" fill-rule="evenodd" stroke="#005540" stroke-opacity="1" stroke-width="0.5" fill="#ddfff6" fill-opacity="0.5" d="M518 165L521 167L521 170L523 172L526 171L526 179L516 168L517 165z"/></g><g><path class="class-0 leaflet-clickable" stroke-linejoin="round" stroke-linecap="round" fill-rule="evenodd" stroke="#005540" stroke-opacity="1" stroke-width="0.5" fill="#ddfff6" fill-opacity="0.5" d="M408 174L410 177L409 182L407 177L408 174z"/></g><g><path class="class-0 leaflet-clickable" stroke-linejoin="round" stroke-linecap="round" fill-rule="evenodd" stroke="#005540" stroke-opacity="1" stroke-width="0.5" fill="#ddfff6" fill-opacity="0.5" d="M497 153L497 154z"/></g><g><path class="class-0 leaflet-clickable" stroke-linejoin="round" stroke-linecap="round" fill-rule="evenodd" stroke="#005540" stroke-opacity="1" stroke-width="0.5" fill="#ddfff6" fill-opacity="0.5" d="M490 112L490 112z"/></g><g><path class="class-0 leaflet-clickable" stroke-linejoin="round" stroke-linecap="round" fill-rule="evenodd" stroke="#005540" stroke-opacity="1" stroke-width="0.5" fill="#ddfff6" fill-opacity="0.5" d="M490 105L492 107L491 108L489 108L489 105z"/></g><g><path class="class-0 leaflet-clickable" stroke-linejoin="round" stroke-linecap="round" fill-rule="evenodd" stroke="#005540" stroke-opacity="1" stroke-width="0.5" fill="#ddfff6" fill-opacity="0.5" d="M488 86L485 88L483 93L485 95L485 102L488 103L489 105L489 110L487 113L487 123L491 129L491 137L493 142L492 149L498 157L498 159L501 159L515 172L518 182L520 180L522 184L525 184L527 191L533 195L532 197L534 199L534 205L502 205L505 201L504 198L506 194L504 190L499 186L499 184L496 181L494 181L493 177L490 176L490 174L468 159L469 157L466 153L466 146L460 140L461 134L455 127L454 128L453 119L446 112L447 109L445 106L446 107L447 104L441 99L441 96L436 88L436 85L490 80L488 86z"/></g><g><path class="class-0 leaflet-clickable" stroke-linejoin="round" stroke-linecap="round" fill-rule="evenodd" stroke="#005540" stroke-opacity="1" stroke-width="0.5" fill="#ddfff6" fill-opacity="0.5" d="M829 398L834 401L837 400L837 407L840 409L839 410L843 407L843 405L848 405L848 403L849 409L851 407L854 407L857 410L855 414L857 418L857 428L852 430L849 427L849 421L847 419L846 414L840 421L842 425L841 430L838 431L839 433L836 436L832 434L833 435L831 435L829 438L825 438L819 444L815 439L816 438L814 437L815 434L812 431L821 418L819 412L822 411L822 403L826 403L826 399L828 398z"/></g><g><path class="class-0 leaflet-clickable" stroke-linejoin="round" stroke-linecap="round" fill-rule="evenodd" stroke="#005540" stroke-opacity="1" stroke-width="0.5" fill="#ddfff6" fill-opacity="0.5" d="M849 427L852 430L856 428L854 434L855 441L854 442L852 440L847 444L841 441L837 436L842 425L849 427z"/></g><g><path class="class-0 leaflet-clickable" stroke-linejoin="round" stroke-linecap="round" fill-rule="evenodd" stroke="#005540" stroke-opacity="1" stroke-width="0.5" fill="#ddfff6" fill-opacity="0.5" d="M615 248L619 248L624 244L625 241L629 239L633 229L639 230L638 233L640 233L643 236L643 245L649 253L658 253L660 256L659 258L665 262L665 264L667 264L664 267L662 267L663 270L661 271L663 275L663 280L665 280L668 286L673 289L676 295L675 296L678 299L681 299L681 297L687 299L689 305L692 308L690 308L691 316L694 317L696 321L695 322L697 324L697 328L703 329L700 333L700 340L701 339L702 342L701 343L697 341L696 344L678 325L677 321L671 315L666 307L648 294L632 274L619 269L616 265L612 265L610 257L615 248z"/></g><g><path class="class-0 leaflet-clickable" stroke-linejoin="round" stroke-linecap="round" fill-rule="evenodd" stroke="#005540" stroke-opacity="1" stroke-width="0.5" fill="#ddfff6" fill-opacity="0.5" d="M829 211L832 213L827 216L827 218L831 219L833 228L831 233L835 234L833 238L839 241L838 247L842 250L844 249L845 255L848 253L850 257L852 255L858 255L858 269L861 269L851 279L847 278L844 281L844 287L841 286L837 288L836 291L832 292L832 294L834 294L835 296L833 303L838 309L835 312L829 312L826 317L827 322L824 321L822 323L824 323L823 325L820 325L821 323L819 323L818 325L817 324L818 327L815 326L815 313L813 310L814 304L811 302L812 297L807 292L807 285L809 283L807 282L807 277L809 275L820 276L820 274L816 273L811 268L813 268L808 265L805 254L798 247L808 237L810 240L811 239L813 235L813 229L807 229L806 226L810 222L816 220L817 213L821 210L825 214L827 213z"/></g><g><path class="class-0 leaflet-clickable" stroke-linejoin="round" stroke-linecap="round" fill-rule="evenodd" stroke="#005540" stroke-opacity="1" stroke-width="0.5" fill="#ddfff6" fill-opacity="0.5" d="M1109 368L1109 380L1106 386L1095 398L1089 398L1083 404L1081 404L1080 407L1078 407L1079 408L1073 414L1072 413L1069 415L1066 413L1062 407L1062 404L1059 400L1057 400L1053 393L1050 394L1045 391L1044 384L1046 379L1056 374L1082 370L1086 367L1091 367L1094 365L1109 368z"/></g><g><path class="class-0 leaflet-clickable" stroke-linejoin="round" stroke-linecap="round" fill-rule="evenodd" stroke="#005540" stroke-opacity="1" stroke-width="0.5" fill="#ddfff6" fill-opacity="0.5" d="M1059 341L1063 344L1061 346L1058 343L1059 341z"/></g><g><path class="class-0 leaflet-clickable" stroke-linejoin="round" stroke-linecap="round" fill-rule="evenodd" stroke="#005540" stroke-opacity="1" stroke-width="0.5" fill="#ddfff6" fill-opacity="0.5" d="M829 211L825 215L821 210L817 213L816 220L810 222L806 226L807 229L813 229L813 235L811 239L810 240L808 237L798 247L807 258L806 261L810 267L813 268L811 268L815 271L815 273L820 273L820 276L809 275L807 277L807 281L809 283L807 285L806 292L804 293L796 286L790 288L788 286L789 285L775 278L769 278L770 281L765 279L760 288L751 282L752 281L746 275L746 273L748 271L749 272L746 268L750 262L749 252L751 249L749 241L741 238L741 236L738 233L740 230L736 210L737 209L735 209L735 206L737 206L737 203L743 192L742 191L750 179L754 180L755 177L759 173L760 174L759 172L761 170L762 164L766 159L770 159L773 156L784 159L792 158L794 162L796 162L796 164L797 163L797 165L810 176L814 188L818 193L817 194L829 210z"/></g><g><path class="class-0 leaflet-clickable" stroke-linejoin="round" stroke-linecap="round" fill-rule="evenodd" stroke="#005540" stroke-opacity="1" stroke-width="0.5" fill="#ddfff6" fill-opacity="0.5" d="M876 349L874 351L866 344L864 344L863 346L856 345L854 347L847 345L845 346L837 337L836 341L833 339L829 339L828 337L823 337L825 335L823 332L825 330L823 328L824 323L822 323L824 321L827 322L826 317L829 312L835 312L837 309L837 307L833 303L835 296L832 294L832 292L836 291L837 288L841 286L843 287L845 283L844 281L847 278L850 279L861 270L858 269L858 255L852 255L850 257L848 253L845 255L844 249L842 250L838 247L839 241L833 239L835 234L831 233L833 229L831 219L827 218L827 216L832 213L836 216L838 230L842 234L846 246L848 245L850 247L855 248L855 250L861 250L866 255L879 255L884 260L886 259L885 258L890 257L890 263L883 276L878 294L876 336L874 339L875 348z"/></g><g><path class="class-0 leaflet-clickable" stroke-linejoin="round" stroke-linecap="round" fill-rule="evenodd" stroke="#005540" stroke-opacity="1" stroke-width="0.5" fill="#ddfff6" fill-opacity="0.5" d="M849 427L845 427L840 423L845 414L849 421L849 426z"/></g></svg>