<svg xmlns="http://www.w3.org/2000/svg" class="leaflet-zoom-animated" style="transform: translate(-314px, -133px);" width="1981" height="842" viewBox="-314 -133 1981 842"><g><path class="class-3 leaflet-clickable" stroke-linejoin="round" stroke-linecap="round" fill-rule="evenodd" stroke="#005540" stroke-opacity="1" stroke-width="0.5" fill="#086" fill-opacity="0.5" d="M722 435L726 441L730 441L732 446L737 450L736 451L739 452L737 452L740 454L746 454L745 460L749 464L749 471L750 470L751 473L755 475L754 480L751 484L752 485L748 487L747 491L743 493L738 487L736 488L726 484L718 484L710 478L686 470L687 469L682 465L678 464L669 455L661 452L662 448L668 445L668 439L670 438L674 438L674 440L676 441L692 441L694 443L695 442L695 444L696 441L694 441L693 439L692 432L695 433L697 431L700 434L699 437L704 444L710 438L714 438L718 434L721 436z"/></g><g><path class="class-3 leaflet-clickable" stroke-linejoin="round" stroke-linecap="round" fill-rule="evenodd" stroke="#005540" stroke-opacity="1" stroke-width="0.5" fill="#086" fill-opacity="0.5" d="M905 470L908 473L909 472L909 474L913 476L912 477L917 481L922 483L923 488L929 491L928 498L899 498L888 518L891 522L888 527L889 531L887 535L859 507L851 501L846 500L844 496L846 495L846 492L844 489L850 473L858 466L858 464L862 460L861 458L864 453L867 455L867 457L869 457L868 459L871 465L872 464L874 466L873 467L874 466L876 468L880 463L885 462L884 461L890 458L890 456L893 454L896 455L896 459L900 460L900 466L905 467L906 470z"/></g><g><path class="class-3 leaflet-clickable" stroke-linejoin="round" stroke-linecap="round" fill-rule="evenodd" stroke="#005540" stroke-opacity="1" stroke-width="0.5" fill="#086" fill-opacity="0.5" d="M785 443L781 447L776 449L773 448L768 452L766 452L764 446L760 446L760 453L762 451L763 452L761 452L758 455L756 453L752 453L752 455L747 456L746 453L742 454L732 446L732 444L735 441L740 442L739 434L742 428L741 417L743 417L752 426L755 423L758 425L760 422L764 421L761 417L758 416L759 415L757 413L755 413L755 411L750 412L751 411L749 408L754 401L752 398L749 398L752 397L758 390L759 384L762 385L762 389L766 392L761 395L763 397L762 400L766 402L769 398L775 401L769 416L771 418L770 419L779 422L777 424L778 425L774 424L771 437L772 436L777 441L781 439L785 443z"/></g><g><path class="class-3 leaflet-clickable" stroke-linejoin="round" stroke-linecap="round" fill-rule="evenodd" stroke="#005540" stroke-opacity="1" stroke-width="0.5" fill="#086" fill-opacity="0.5" d="M761 349L763 357L771 366L769 372L770 378L777 392L784 398L791 407L794 419L799 424L799 426L802 427L804 432L809 435L818 435L828 440L835 449L844 447L845 456L853 460L855 463L855 470L853 470L850 473L826 472L827 470L822 467L818 462L820 460L819 459L817 459L811 464L808 464L804 459L806 454L805 449L797 449L798 448L797 449L795 447L790 438L786 437L785 444L783 440L779 439L777 441L774 437L771 436L773 431L772 428L779 422L770 419L771 418L769 416L769 414L772 411L772 407L776 401L769 398L766 402L762 400L763 397L761 395L762 393L763 394L766 392L763 391L761 384L759 384L758 390L756 391L754 388L753 391L748 395L743 396L744 395L742 392L745 390L746 387L744 388L748 383L748 385L750 385L751 380L753 378L749 376L750 375L747 376L744 373L745 370L744 371L741 365L746 361L743 356L745 357L746 353L749 350L741 346L747 346L750 344L756 347L759 351L760 349z"/></g><g><path class="class-3 leaflet-clickable" stroke-linejoin="round" stroke-linecap="round" fill-rule="evenodd" stroke="#005540" stroke-opacity="1" stroke-width="0.5" fill="#086" fill-opacity="0.5" d="M356 197L355 197z"/></g><g><path class="class-3 leaflet-clickable" stroke-linejoin="round" stroke-linecap="round" fill-rule="evenodd" stroke="#005540" stroke-opacity="1" stroke-width="0.5" fill="#086" fill-opacity="0.5" d="M364 195L366 201L365 204L361 202L364 199L364 196z"/></g><g><path class="class-3 leaflet-clickable" stroke-linejoin="round" stroke-linecap="round" fill-rule="evenodd" stroke="#005540" stroke-opacity="1" stroke-width="0.5" fill="#086" fill-opacity="0.5" d="M417 187L420 189L419 190L418 188z"/></g><g><path class="class-3 leaflet-clickable" stroke-linejoin="round" stroke-linecap="round" fill-rule="evenodd" stroke="#005540" stroke-opacity="1" stroke-width="0.5" fill="#086" fill-opacity="0.5" d="M403 176L403 177z"/></g><g><path class="class-3 leaflet-clickable" stroke-linejoin="round" stroke-linecap="round" fill-rule="evenodd" stroke="#005540" stroke-opacity="1" stroke-width="0.5" fill="#086" fill-opacity="0.5" d="M403 165L406 167L406 170L408 172L411 171L411 179L401 168L402 165z"/></g><g><path class="class-3 leaflet-clickable" stroke-linejoin="round" stroke-linecap="round" fill-rule="evenodd" stroke="#005540" stroke-opacity="1" stroke-width="0.5" fill="#086" fill-opacity="0.5" d="M293 174L295 177L294 182L292 177L293 174z"/></g><g><path class="class-3 leaflet-clickable" stroke-linejoin="round" stroke-linecap="round" fill-rule="evenodd" stroke="#005540" stroke-opacity="1" stroke-width="0.5" fill="#086" fill-opacity="0.5" d="M382 153L382 154z"/></g><g><path class="class-3 leaflet-clickable" stroke-linejoin="round" stroke-linecap="round" fill-rule="evenodd" stroke="#005540" stroke-opacity="1" stroke-width="0.5" fill="#086" fill-opacity="0.5" d="M375 112L375 112z"/></g><g><path class="class-3 leaflet-clickable" stroke-linejoin="round" stroke-linecap="round" fill-rule="evenodd" stroke="#005540" stroke-opacity="1" stroke-width="0.5" fill="#086" fill-opacity="0.5" d="M375 105L377 107L376 108L374 108L374 105z"/></g><g><path class="class-3 leaflet-clickable" stroke-linejoin="round" stroke-linecap="round" fill-rule="evenodd" stroke="#005540" stroke-opacity="1" stroke-width="0.5" fill="#086" fill-opacity="0.5" d="M373 86L370 88L368 93L370 95L370 102L373 103L374 105L374 110L372 113L372 123L376 129L376 137L378 142L377 149L383 157L383 159L386 159L400 172L403 182L405 180L407 184L410 184L412 191L418 195L417 197L419 199L419 205L387 205L390 201L389 198L391 194L389 190L384 186L384 184L381 181L379 181L378 177L375 176L375 174L353 159L354 157L351 153L351 146L345 140L346 134L340 127L339 128L338 119L331 112L332 109L330 106L331 107L332 104L326 99L326 96L321 88L321 85L375 80L373 86z"/></g><g><path class="class-3 leaflet-clickable" stroke-linejoin="round" stroke-linecap="round" fill-rule="evenodd" stroke="#005540" stroke-opacity="1" stroke-width="0.5" fill="#086" fill-opacity="0.5" d="M714 398L719 401L722 400L722 407L725 409L724 410L728 407L728 405L733 405L733 403L734 409L736 407L739 407L742 410L740 414L742 418L742 428L737 430L734 427L734 421L732 419L731 414L725 421L727 425L726 430L723 431L724 433L721 436L717 434L718 435L716 435L714 438L710 438L704 444L700 439L701 438L699 437L700 434L697 431L706 418L704 412L707 411L707 403L711 403L711 399L713 398z"/></g><g><path class="class-2 leaflet-clickable" stroke-linejoin="round" stroke-linecap="round" fill-rule="evenodd" stroke="#005540" stroke-opacity="1" stroke-width="0.5" fill="#00cc99" fill-opacity="0.5" d="M756 392L752 397L749 398L753 399L753 401L749 407L751 410L748 411L749 412L747 414L741 414L742 409L739 407L735 407L734 409L733 406L735 404L733 403L733 405L730 404L728 408L726 408L725 410L725 408L722 405L722 400L719 401L714 398L714 391L719 390L721 388L725 379L724 378L732 376L734 372L735 375L741 376L741 372L745 370L744 373L747 376L750 375L749 376L751 376L753 379L750 383L751 385L746 384L743 388L745 387L743 396L748 395L754 389L756 391z"/></g><g><path class="class-2 leaflet-clickable" stroke-linejoin="round" stroke-linecap="round" fill-rule="evenodd" stroke="#005540" stroke-opacity="1" stroke-width="0.5" fill="#00cc99" fill-opacity="0.5" d="M929 384L929 391L933 391L934 394L937 393L942 397L941 398L947 404L950 412L957 418L957 457L916 457L916 453L906 451L903 449L904 448L901 451L901 455L889 449L889 444L885 442L882 438L885 436L893 436L896 438L913 428L922 420L922 412L928 405L927 391L929 384z"/></g><g><path class="class-2 leaflet-clickable" stroke-linejoin="round" stroke-linecap="round" fill-rule="evenodd" stroke="#005540" stroke-opacity="1" stroke-width="0.5" fill="#00cc99" fill-opacity="0.5" d="M708 325L710 329L708 331L710 335L708 337L713 337L721 341L722 337L730 346L743 346L749 350L743 357L745 357L745 361L741 365L744 368L744 370L740 372L742 372L741 376L737 376L734 372L731 373L729 364L724 370L722 370L718 366L716 366L716 368L713 369L704 363L702 363L700 367L696 368L692 366L689 362L676 360L680 355L680 351L678 348L681 344L679 339L680 338L677 337L675 341L674 340L673 343L670 344L668 342L668 339L666 340L661 335L659 330L660 328L658 325L660 323L658 323L660 320L662 322L670 320L683 308L683 302L686 301L687 296L689 299L694 295L697 296L696 301L699 303L699 326L702 327L702 324L703 325L704 323L706 323L705 325L707 325z"/></g><g><path class="class-2 leaflet-clickable" stroke-linejoin="round" stroke-linecap="round" fill-rule="evenodd" stroke="#005540" stroke-opacity="1" stroke-width="0.5" fill="#00cc99" fill-opacity="0.5" d="M916 457L916 470L905 470L906 467L900 465L901 462L897 459L897 455L893 455L886 460L885 459L885 461L883 463L879 463L879 465L876 468L874 466L873 467L874 466L872 464L870 464L868 459L869 456L867 456L868 455L865 453L862 454L862 460L858 464L856 469L854 467L856 463L854 463L850 458L845 456L846 452L844 448L860 442L873 442L876 440L876 438L881 437L884 442L888 442L889 449L892 450L893 452L901 456L901 450L904 448L904 450L910 453L916 453L916 455z"/></g><g><path class="class-2 leaflet-clickable" stroke-linejoin="round" stroke-linecap="round" fill-rule="evenodd" stroke="#005540" stroke-opacity="1" stroke-width="0.5" fill="#00cc99" fill-opacity="0.5" d="M741 417L740 414L746 414L749 412L748 411L754 411L759 415L759 417L761 417L764 420L763 422L760 421L758 424L755 423L752 426L745 420L744 417L742 418z"/></g><g><path class="class-2 leaflet-clickable" stroke-linejoin="round" stroke-linecap="round" fill-rule="evenodd" stroke="#005540" stroke-opacity="1" stroke-width="0.5" fill="#00cc99" fill-opacity="0.5" d="M734 427L730 427L725 423L730 414L734 421L734 426z"/></g><g><path class="class-1 leaflet-clickable" stroke-linejoin="round" stroke-linecap="round" fill-rule="evenodd" stroke="#005540" stroke-opacity="1" stroke-width="0.5" fill="#7fd" fill-opacity="0.5" d="M734 427L737 430L741 428L739 434L740 441L739 442L737 440L732 444L726 441L722 436L727 425L734 427z"/></g><g><path class="class-1 leaflet-clickable" stroke-linejoin="round" stroke-linecap="round" fill-rule="evenodd" stroke="#005540" stroke-opacity="1" stroke-width="0.5" fill="#7fd" fill-opacity="0.5" d="M702 397L706 399L705 401L708 404L707 405L709 408L707 408L705 412L706 419L703 420L701 426L695 433L692 432L693 439L696 441L696 444L692 441L689 442L687 440L681 439L677 441L671 438L668 439L667 441L668 446L661 449L661 455L631 445L625 436L631 429L636 428L639 430L642 427L642 425L643 426L643 424L648 422L649 423L651 421L652 417L648 417L649 415L646 410L648 408L647 406L641 405L641 402L644 401L643 400L648 401L654 396L661 395L665 395L664 396L666 396L668 400L672 400L673 397L677 396L677 398L680 399L678 399L678 402L680 404L684 404L684 402L686 402L689 406L699 406L702 405L701 402L703 398z"/></g><g><path class="class-1 leaflet-clickable" stroke-linejoin="round" stroke-linecap="round" fill-rule="evenodd" stroke="#005540" stroke-opacity="1" stroke-width="0.5" fill="#7fd" fill-opacity="0.5" d="M732 373L731 376L727 378L726 376L721 386L722 388L714 391L714 398L712 397L712 402L708 404L705 401L705 398L703 398L699 394L697 385L700 382L708 382L709 379L710 380L710 375L716 375L718 373L715 372L717 366L724 370L729 364L731 373z"/></g><g><path class="class-1 leaflet-clickable" stroke-linejoin="round" stroke-linecap="round" fill-rule="evenodd" stroke="#005540" stroke-opacity="1" stroke-width="0.5" fill="#7fd" fill-opacity="0.5" d="M569 371L568 371z"/></g><g><path class="class-1 leaflet-clickable" stroke-linejoin="round" stroke-linecap="round" fill-rule="evenodd" stroke="#005540" stroke-opacity="1" stroke-width="0.5" fill="#7fd" fill-opacity="0.5" d="M564 368L566 369L565 370L563 368z"/></g><g><path class="class-1 leaflet-clickable" stroke-linejoin="round" stroke-linecap="round" fill-rule="evenodd" stroke="#005540" stroke-opacity="1" stroke-width="0.5" fill="#7fd" fill-opacity="0.5" d="M559 363L561 363L562 366L560 366L559 364z"/></g><g><path class="class-1 leaflet-clickable" stroke-linejoin="round" stroke-linecap="round" fill-rule="evenodd" stroke="#005540" stroke-opacity="1" stroke-width="0.5" fill="#7fd" fill-opacity="0.5" d="M559 361L558 362z"/></g><g><path class="class-1 leaflet-clickable" stroke-linejoin="round" stroke-linecap="round" fill-rule="evenodd" stroke="#005540" stroke-opacity="1" stroke-width="0.5" fill="#7fd" fill-opacity="0.5" d="M611 346L613 347L611 356L615 356L616 360L620 361L622 363L621 366L626 370L623 373L624 374L614 376L615 381L611 385L614 387L614 389L603 380L594 382L591 388L589 386L584 386L592 376L592 367L591 368L586 364L582 356L582 349L579 343L580 342L580 344L582 341L587 343L585 339L585 333L588 329L589 332L597 332L596 333L599 337L595 339L597 343L601 340L606 344L607 347L611 345z"/></g><g><path class="class-1 leaflet-clickable" stroke-linejoin="round" stroke-linecap="round" fill-rule="evenodd" stroke="#005540" stroke-opacity="1" stroke-width="0.5" fill="#7fd" fill-opacity="0.5" d="M998 443L999 440L999 442z"/></g><g><path class="class-1 leaflet-clickable" stroke-linejoin="round" stroke-linecap="round" fill-rule="evenodd" stroke="#005540" stroke-opacity="1" stroke-width="0.5" fill="#7fd" fill-opacity="0.5" d="M1000 435L1000 437L1000 435z"/></g><g><path class="class-1 leaflet-clickable" stroke-linejoin="round" stroke-linecap="round" fill-rule="evenodd" stroke="#005540" stroke-opacity="1" stroke-width="0.5" fill="#7fd" fill-opacity="0.5" d="M1012 391L1006 398L1006 394L1008 391L1013 390z"/></g><g><path class="class-1 leaflet-clickable" stroke-linejoin="round" stroke-linecap="round" fill-rule="evenodd" stroke="#005540" stroke-opacity="1" stroke-width="0.5" fill="#7fd" fill-opacity="0.5" d="M957 454L956 450L958 449L958 425L957 418L954 415L957 413L958 414L958 412L960 412L960 410L965 407L965 405L968 404L969 401L972 401L974 398L980 397L984 394L991 386L994 380L994 368L1001 370L1004 369L1005 366L1010 373L1010 370L1011 371L1011 379L1008 385L996 399L996 409L995 410L996 406L995 409L989 412L991 416L996 413L997 414L996 418L991 420L991 424L994 421L996 421L994 423L986 449L983 449L983 443L978 443L978 441L972 441L970 447L967 449L964 455L960 452L958 454z"/></g><g><path class="class-1 leaflet-clickable" stroke-linejoin="round" stroke-linecap="round" fill-rule="evenodd" stroke="#005540" stroke-opacity="1" stroke-width="0.5" fill="#7fd" fill-opacity="0.5" d="M1004 365L1002 367L997 368L999 366L1003 366z"/></g><g><path class="class-1 leaflet-clickable" stroke-linejoin="round" stroke-linecap="round" fill-rule="evenodd" stroke="#005540" stroke-opacity="1" stroke-width="0.5" fill="#7fd" fill-opacity="0.5" d="M692 292L694 295L689 299L687 297L686 301L684 302L683 308L678 313L670 320L665 322L662 322L660 320L658 323L660 323L658 325L662 336L666 340L668 339L668 342L670 344L673 343L677 337L680 338L679 339L681 343L679 344L678 348L680 350L680 355L677 359L676 360L675 358L668 355L664 352L664 348L663 349L658 345L656 347L650 348L650 352L645 359L648 363L648 366L651 368L650 371L648 371L644 375L641 374L641 378L639 379L635 379L628 376L626 372L630 371L630 369L626 369L626 367L630 365L631 362L629 360L639 355L641 350L639 348L638 349L636 345L634 347L635 350L633 350L632 353L626 352L629 349L629 344L628 342L626 342L624 343L623 351L621 347L623 343L622 342L625 341L625 339L622 337L618 338L621 343L618 347L618 343L616 343L614 347L612 346L613 338L617 336L615 331L618 319L623 315L624 316L623 306L627 302L629 302L629 299L631 299L633 295L645 295L648 297L653 296L654 291L650 283L650 280L655 281L654 278L663 279L668 281L670 284L674 285L673 286L675 288L681 286L684 288L685 291L689 293L692 292z"/></g><g><path class="class-1 leaflet-clickable" stroke-linejoin="round" stroke-linecap="round" fill-rule="evenodd" stroke="#005540" stroke-opacity="1" stroke-width="0.5" fill="#7fd" fill-opacity="0.5" d="M716 368L715 371L716 373L718 373L714 376L710 375L711 376L709 382L700 382L697 385L699 393L703 398L701 402L702 405L689 406L686 402L684 402L684 404L680 404L678 402L678 400L680 399L677 398L677 396L675 396L672 399L666 399L666 397L663 394L666 391L663 384L666 382L670 374L673 373L672 370L674 370L673 367L675 363L674 362L676 360L682 360L684 362L686 361L694 367L700 367L701 363L703 363L713 369L715 368z"/></g><g><path class="class-1 leaflet-clickable" stroke-linejoin="round" stroke-linecap="round" fill-rule="evenodd" stroke="#005540" stroke-opacity="1" stroke-width="0.5" fill="#7fd" fill-opacity="0.5" d="M487 302L485 302L485 297L487 301z"/></g><g><path class="class-1 leaflet-clickable" stroke-linejoin="round" stroke-linecap="round" fill-rule="evenodd" stroke="#005540" stroke-opacity="1" stroke-width="0.5" fill="#7fd" fill-opacity="0.5" d="M475 293L475 296L474 293z"/></g><g><path class="class-1 leaflet-clickable" stroke-linejoin="round" stroke-linecap="round" fill-rule="evenodd" stroke="#005540" stroke-opacity="1" stroke-width="0.5" fill="#7fd" fill-opacity="0.5" d="M474 291L474 292z"/></g><g><path class="class-1 leaflet-clickable" stroke-linejoin="round" stroke-linecap="round" fill-rule="evenodd" stroke="#005540" stroke-opacity="1" stroke-width="0.5" fill="#7fd" fill-opacity="0.5" d="M467 279L470 281L471 284L467 280z"/></g><g><path class="class-1 leaflet-clickable" stroke-linejoin="round" stroke-linecap="round" fill-rule="evenodd" stroke="#005540" stroke-opacity="1" stroke-width="0.5" fill="#7fd" fill-opacity="0.5" d="M467 273L466 275L467 273z"/></g><g><path class="class-1 leaflet-clickable" stroke-linejoin="round" stroke-linecap="round" fill-rule="evenodd" stroke="#005540" stroke-opacity="1" stroke-width="0.5" fill="#7fd" fill-opacity="0.5" d="M465 263L466 266L465 264z"/></g><g><path class="class-1 leaflet-clickable" stroke-linejoin="round" stroke-linecap="round" fill-rule="evenodd" stroke="#005540" stroke-opacity="1" stroke-width="0.5" fill="#7fd" fill-opacity="0.5" d="M459 263L459 265L459 263z"/></g><g><path class="class-1 leaflet-clickable" stroke-linejoin="round" stroke-linecap="round" fill-rule="evenodd" stroke="#005540" stroke-opacity="1" stroke-width="0.5" fill="#7fd" fill-opacity="0.5" d="M459 254L459 256L457 256L455 260L456 261L455 258L456 255L458 255z"/></g><g><path class="class-1 leaflet-clickable" stroke-linejoin="round" stroke-linecap="round" fill-rule="evenodd" stroke="#005540" stroke-opacity="1" stroke-width="0.5" fill="#7fd" fill-opacity="0.5" d="M454 252L454 252z"/></g><g><path class="class-1 leaflet-clickable" stroke-linejoin="round" stroke-linecap="round" fill-rule="evenodd" stroke="#005540" stroke-opacity="1" stroke-width="0.5" fill="#7fd" fill-opacity="0.5" d="M436 224L436 226L435 224z"/></g><g><path class="class-1 leaflet-clickable" stroke-linejoin="round" stroke-linecap="round" fill-rule="evenodd" stroke="#005540" stroke-opacity="1" stroke-width="0.5" fill="#7fd" fill-opacity="0.5" d="M439 219L438 219z"/></g><g><path class="class-1 leaflet-clickable" stroke-linejoin="round" stroke-linecap="round" fill-rule="evenodd" stroke="#005540" stroke-opacity="1" stroke-width="0.5" fill="#7fd" fill-opacity="0.5" d="M365 208L365 208z"/></g><g><path class="class-1 leaflet-clickable" stroke-linejoin="round" stroke-linecap="round" fill-rule="evenodd" stroke="#005540" stroke-opacity="1" stroke-width="0.5" fill="#7fd" fill-opacity="0.5" d="M387 205L420 205L422 212L430 218L433 224L432 225L439 229L437 230L437 232L439 234L441 233L444 235L447 241L450 243L449 244L453 254L453 262L458 268L460 268L461 274L468 285L466 293L469 300L475 302L475 298L478 298L483 302L483 305L487 306L487 308L490 311L490 314L495 317L496 324L492 329L483 334L480 330L478 320L474 316L470 314L458 302L448 297L443 298L433 290L433 287L430 286L435 274L435 261L429 250L422 248L407 236L405 235L402 238L395 231L391 231L388 227L384 227L381 224L380 220L367 209L368 208L380 211L386 208L387 206z"/></g><g><path class="class-1 leaflet-clickable" stroke-linejoin="round" stroke-linecap="round" fill-rule="evenodd" stroke="#005540" stroke-opacity="1" stroke-width="0.5" fill="#7fd" fill-opacity="0.5" d="M425 186L424 188L424 186z"/></g><g><path class="class-1 leaflet-clickable" stroke-linejoin="round" stroke-linecap="round" fill-rule="evenodd" stroke="#005540" stroke-opacity="1" stroke-width="0.5" fill="#7fd" fill-opacity="0.5" d="M431 173L433 179L430 186L425 182L426 175L430 173z"/></g><g><path class="class-1 leaflet-clickable" stroke-linejoin="round" stroke-linecap="round" fill-rule="evenodd" stroke="#005540" stroke-opacity="1" stroke-width="0.5" fill="#7fd" fill-opacity="0.5" d="M376 106L378 106L377 107z"/></g><g><path class="class-1 leaflet-clickable" stroke-linejoin="round" stroke-linecap="round" fill-rule="evenodd" stroke="#005540" stroke-opacity="1" stroke-width="0.5" fill="#7fd" fill-opacity="0.5" d="M373 86L453 115L458 118L511 118L510 120L508 120L509 123L512 125L511 126L513 126L510 126L510 129L507 129L507 132L509 135L508 136L515 141L514 144L516 145L514 145L514 158L516 158L516 160L513 160L514 166L512 168L512 182L515 186L517 196L505 198L504 202L508 209L507 210L511 213L513 217L515 222L513 224L516 231L519 231L513 239L513 241L511 241L508 244L508 246L500 248L500 244L498 241L493 238L488 238L484 229L476 227L472 223L469 223L470 209L468 207L467 208L463 206L463 208L461 208L461 206L455 204L449 195L445 193L439 186L440 184L433 180L433 173L431 170L430 171L428 169L429 167L425 162L423 156L420 155L420 148L412 134L413 122L407 119L400 118L400 114L395 110L387 113L378 106L371 103L369 96L370 95L368 93L370 91L370 87L373 87zM464 205L464 206z"/></g><g><path class="class-1 leaflet-clickable" stroke-linejoin="round" stroke-linecap="round" fill-rule="evenodd" stroke="#005540" stroke-opacity="1" stroke-width="0.5" fill="#7fd" fill-opacity="0.5" d="M375 444L375 444z"/></g><g><path class="class-1 leaflet-clickable" stroke-linejoin="round" stroke-linecap="round" fill-rule="evenodd" stroke="#005540" stroke-opacity="1" stroke-width="0.5" fill="#7fd" fill-opacity="0.5" d="M460 432L462 434L461 435L459 433L460 432z"/></g><g><path class="class-1 leaflet-clickable" stroke-linejoin="round" stroke-linecap="round" fill-rule="evenodd" stroke="#005540" stroke-opacity="1" stroke-width="0.5" fill="#7fd" fill-opacity="0.5" d="M631 429L625 436L611 426L604 424L605 425L608 422L609 423L617 421L616 420L618 416L623 419L627 416L631 420L631 429z"/></g><g><path class="class-1 leaflet-clickable" stroke-linejoin="round" stroke-linecap="round" fill-rule="evenodd" stroke="#005540" stroke-opacity="1" stroke-width="0.5" fill="#7fd" fill-opacity="0.5" d="M464 422L464 421z"/></g><g><path class="class-1 leaflet-clickable" stroke-linejoin="round" stroke-linecap="round" fill-rule="evenodd" stroke="#005540" stroke-opacity="1" stroke-width="0.5" fill="#7fd" fill-opacity="0.5" d="M648 362L650 361L658 365L668 358L669 357L667 357L669 355L671 355L676 361L674 361L675 362L673 367L675 370L673 370L673 372L670 374L670 376L663 385L666 388L663 394L661 396L655 396L646 402L645 400L641 402L641 405L643 404L648 407L648 409L646 410L649 415L648 416L653 417L650 423L648 422L644 424L639 430L637 428L631 429L631 421L627 416L623 419L618 416L616 421L609 423L608 422L605 425L601 423L601 421L600 422L597 420L595 415L593 415L585 404L581 394L589 392L591 390L590 388L592 385L593 386L595 382L600 380L607 382L614 390L613 385L611 385L615 381L614 376L624 374L623 373L626 370L621 365L622 363L620 361L616 361L615 357L611 355L613 347L615 345L616 346L615 343L618 344L617 347L621 344L618 339L619 337L625 339L625 341L622 342L623 343L621 347L623 351L623 347L626 341L629 343L626 352L627 353L631 353L633 350L635 350L634 347L636 345L638 347L637 348L641 350L639 356L635 356L631 360L629 360L631 362L630 365L626 367L626 369L630 369L631 371L626 373L628 373L629 377L639 379L641 374L644 375L648 371L649 372L651 368L647 365L648 363z"/></g><g><path class="class-1 leaflet-clickable" stroke-linejoin="round" stroke-linecap="round" fill-rule="evenodd" stroke="#005540" stroke-opacity="1" stroke-width="0.5" fill="#7fd" fill-opacity="0.5" d="M994 368L994 380L991 386L980 398L974 398L968 404L966 404L965 407L963 407L964 408L958 414L957 413L954 415L951 413L947 407L947 404L944 400L942 400L938 393L935 394L930 391L929 384L931 379L941 374L967 370L971 367L976 367L979 365L994 368z"/></g><g><path class="class-1 leaflet-clickable" stroke-linejoin="round" stroke-linecap="round" fill-rule="evenodd" stroke="#005540" stroke-opacity="1" stroke-width="0.5" fill="#7fd" fill-opacity="0.5" d="M944 341L947 342L948 344L946 346L943 343L944 341z"/></g><g><path class="class-1 leaflet-clickable" stroke-linejoin="round" stroke-linecap="round" fill-rule="evenodd" stroke="#005540" stroke-opacity="1" stroke-width="0.5" fill="#7fd" fill-opacity="0.5" d="M500 248L504 248L509 244L510 241L514 239L518 229L524 230L523 233L525 233L528 236L528 245L534 253L543 253L545 256L544 258L550 262L550 264L552 264L549 267L547 267L548 270L546 271L548 275L548 280L550 280L553 286L558 289L561 295L560 296L563 299L566 299L566 297L572 299L574 305L577 308L575 308L576 316L579 317L581 321L580 322L582 324L582 328L588 329L585 333L585 340L586 339L587 342L586 343L582 341L581 344L563 325L562 321L556 315L551 307L533 294L517 274L504 269L501 265L497 265L495 257L500 248z"/></g><g><path class="class-0 leaflet-clickable" stroke-linejoin="round" stroke-linecap="round" fill-rule="evenodd" stroke="#005540" stroke-opacity="1" stroke-width="0.5" fill="#ddfff6" fill-opacity="0.5" d="M714 211L717 213L712 216L712 218L716 219L718 228L716 233L720 234L718 238L724 241L723 247L727 250L729 249L730 255L733 253L735 257L737 255L743 255L743 269L746 269L736 279L732 278L729 281L729 287L726 286L722 288L721 291L717 292L717 294L719 294L720 296L718 303L723 309L720 312L714 312L711 317L712 322L709 321L707 323L709 323L708 325L705 325L706 323L704 323L703 325L702 324L703 327L700 326L700 313L698 310L699 304L696 302L697 297L692 292L692 285L694 283L692 282L692 277L694 275L705 276L705 274L701 273L696 268L698 268L693 265L690 254L683 247L693 237L695 240L696 239L698 235L698 229L692 229L691 226L695 222L701 220L702 213L706 210L710 214L712 213z"/></g><g><path class="class-0 leaflet-clickable" stroke-linejoin="round" stroke-linecap="round" fill-rule="evenodd" stroke="#005540" stroke-opacity="1" stroke-width="0.5" fill="#ddfff6" fill-opacity="0.5" d="M668 355L667 356L669 358L664 359L660 364L656 364L650 361L647 362L645 360L650 352L650 348L656 347L658 345L662 347L661 348L664 348L664 352L668 355z"/></g><g><path class="class-3 leaflet-clickable" stroke-linejoin="round" stroke-linecap="round" fill-rule="evenodd" stroke="#005540" stroke-opacity="1" stroke-width="0.5" fill="#086" fill-opacity="0.5" d="M850 473L844 489L846 492L845 496L847 500L841 497L831 495L819 496L814 501L810 501L800 506L799 505L796 508L787 508L778 505L775 502L761 501L751 494L744 493L748 490L747 487L752 485L751 484L754 481L754 477L756 475L751 474L750 470L749 471L749 464L745 460L746 456L750 454L751 455L753 453L757 453L760 455L762 452L761 451L760 453L759 448L764 445L766 452L773 448L778 449L785 443L786 437L792 440L797 449L805 449L806 454L804 459L808 463L811 464L817 459L819 459L820 460L818 462L822 467L827 470L826 471L845 473z"/></g><g><path class="class-2 leaflet-clickable" stroke-linejoin="round" stroke-linecap="round" fill-rule="evenodd" stroke="#005540" stroke-opacity="1" stroke-width="0.5" fill="#00cc99" fill-opacity="0.5" d="M761 349L759 351L751 344L749 344L748 346L741 345L739 347L732 345L730 346L722 337L721 341L718 339L714 339L713 337L708 337L710 335L708 332L710 330L708 328L709 323L707 323L709 321L712 322L711 317L714 312L720 312L722 309L722 307L718 303L720 296L717 294L717 292L721 291L722 288L726 286L728 287L730 283L729 281L732 278L735 279L746 270L743 269L743 255L737 255L735 257L733 253L730 255L729 249L727 250L723 247L724 241L718 239L720 234L716 233L718 229L716 219L712 218L712 216L717 213L721 216L723 230L727 234L731 246L733 245L735 247L740 248L740 250L746 250L751 255L764 255L769 260L771 259L770 258L775 257L775 263L768 276L763 294L761 336L759 339L760 348z"/></g><g><path class="class-1 leaflet-clickable" stroke-linejoin="round" stroke-linecap="round" fill-rule="evenodd" stroke="#005540" stroke-opacity="1" stroke-width="0.5" fill="#7fd" fill-opacity="0.5" d="M714 211L710 215L706 210L702 213L701 220L695 222L691 226L692 229L698 229L698 235L696 239L695 240L693 237L683 247L692 258L691 261L695 267L698 268L696 268L700 271L700 273L705 273L705 276L694 275L692 277L692 281L694 283L692 285L691 292L689 293L681 286L675 288L673 286L674 285L660 278L654 278L655 281L650 279L645 288L636 282L637 281L631 275L631 273L633 271L634 272L631 268L635 262L634 252L636 249L634 241L626 238L626 236L623 233L625 230L621 210L622 209L620 209L620 206L622 206L622 203L628 192L627 191L635 179L639 180L640 177L644 173L645 174L644 172L646 170L647 164L651 159L655 159L658 156L669 159L677 158L679 162L681 162L681 164L682 163L682 165L695 176L699 188L703 193L702 194L714 210z"/></g><g><path class="class-3 leaflet-clickable" stroke-linejoin="round" stroke-linecap="round" fill-rule="evenodd" stroke="#005540" stroke-opacity="1" stroke-width="0.5" fill="#086" fill-opacity="0.5" d="M635 179L627 191L628 192L622 202L622 207L621 206L620 209L622 209L622 223L624 224L625 229L623 234L626 236L626 238L614 235L612 236L613 237L606 247L602 243L596 245L594 243L589 244L588 242L587 243L581 240L580 238L579 239L576 236L575 237L573 234L572 237L570 237L571 238L568 242L568 246L563 253L564 257L561 258L561 264L563 262L559 267L555 267L544 258L545 257L542 252L534 253L532 251L528 245L528 237L525 233L523 233L523 229L517 231L515 230L516 229L515 230L515 227L513 225L515 222L513 219L514 217L512 216L511 212L507 210L509 209L504 202L504 198L517 196L517 192L512 181L513 176L511 174L511 172L513 172L512 168L514 166L513 160L516 159L514 157L514 145L516 146L513 138L509 137L507 133L507 130L510 129L510 126L513 126L511 126L512 125L509 123L510 121L508 121L511 118L524 118L524 106L527 105L564 106L569 113L572 116L574 116L585 128L595 135L597 135L597 137L599 137L600 143L604 148L604 156L607 159L607 161L611 165L615 166L614 167L617 170L624 172L635 179z"/></g><g><path class="class-2 leaflet-clickable" stroke-linejoin="round" stroke-linecap="round" fill-rule="evenodd" stroke="#005540" stroke-opacity="1" stroke-width="0.5" fill="#00cc99" fill-opacity="0.5" d="M626 238L634 241L636 249L634 252L635 261L631 268L635 272L632 272L631 275L637 281L636 282L643 287L645 287L650 279L654 294L653 296L650 297L646 297L645 295L635 295L623 306L624 315L622 315L622 317L619 319L616 326L615 331L617 336L613 337L613 344L608 347L604 342L602 342L602 340L600 340L598 343L596 341L595 339L599 337L596 333L597 332L589 332L587 328L584 329L582 327L580 322L581 321L578 316L576 317L575 308L577 309L575 307L574 302L569 297L566 297L566 299L562 299L558 289L548 280L546 271L548 269L547 268L552 265L551 264L554 267L558 267L563 263L561 264L561 258L564 257L563 254L568 246L570 236L571 237L573 234L575 237L576 236L579 239L580 238L586 243L594 243L595 245L601 243L606 247L614 235L618 237L623 237z"/></g></svg>