<svg xmlns="http://www.w3.org/2000/svg" class="leaflet-zoom-animated" width="1974" height="719" viewBox="-197 -72 1974 719" style="transform: translate3d(-197px, -72px, 0px);" data-OVI-hasAddedVoiceInputFunction="true" x-webkit-speech="" speech="" lang="es-ES"><g><path class="class-0 leaflet-clickable" stroke-linejoin="round" stroke-linecap="round" fill-rule="evenodd" stroke="#005540" stroke-opacity="1" stroke-width="0.5" fill="#00cc99" fill-opacity="0.5" d="M488 444L488 444z"/></g><g><path class="class-0 leaflet-clickable" stroke-linejoin="round" stroke-linecap="round" fill-rule="evenodd" stroke="#005540" stroke-opacity="1" stroke-width="0.5" fill="#00cc99" fill-opacity="0.5" d="M1111 443L1112 440L1111 443z"/></g><g><path class="class-0 leaflet-clickable" stroke-linejoin="round" stroke-linecap="round" fill-rule="evenodd" stroke="#005540" stroke-opacity="1" stroke-width="0.5" fill="#00cc99" fill-opacity="0.5" d="M1113 435L1113 437L1113 435z"/></g><g><path class="class-0 leaflet-clickable" stroke-linejoin="round" stroke-linecap="round" fill-rule="evenodd" stroke="#005540" stroke-opacity="1" stroke-width="0.5" fill="#00cc99" fill-opacity="0.5" d="M573 432L575 434L574 435L572 433L573 432z"/></g><g><path class="class-0 leaflet-clickable" stroke-linejoin="round" stroke-linecap="round" fill-rule="evenodd" stroke="#005540" stroke-opacity="1" stroke-width="0.5" fill="#00cc99" fill-opacity="0.5" d="M577 422L577 421z"/></g><g><path class="class-0 leaflet-clickable" stroke-linejoin="round" stroke-linecap="round" fill-rule="evenodd" stroke="#005540" stroke-opacity="1" stroke-width="0.5" fill="#00cc99" fill-opacity="0.5" d="M1125 390L1125 392L1119 398L1119 394L1121 391L1126 390z"/></g><g><path class="class-0 leaflet-clickable" stroke-linejoin="round" stroke-linecap="round" fill-rule="evenodd" stroke="#005540" stroke-opacity="1" stroke-width="0.5" fill="#00cc99" fill-opacity="0.5" d="M1041 388L1040 388z"/></g><g><path class="class-0 leaflet-clickable" stroke-linejoin="round" stroke-linecap="round" fill-rule="evenodd" stroke="#005540" stroke-opacity="1" stroke-width="0.5" fill="#00cc99" fill-opacity="0.5" d="M999 380L998 380z"/></g><g><path class="class-0 leaflet-clickable" stroke-linejoin="round" stroke-linecap="round" fill-rule="evenodd" stroke="#005540" stroke-opacity="1" stroke-width="0.5" fill="#00cc99" fill-opacity="0.5" d="M1125 374L1126 375L1125 374z"/></g><g><path class="class-0 leaflet-clickable" stroke-linejoin="round" stroke-linecap="round" fill-rule="evenodd" stroke="#005540" stroke-opacity="1" stroke-width="0.5" fill="#00cc99" fill-opacity="0.5" d="M682 371L681 371z"/></g><g><path class="class-0 leaflet-clickable" stroke-linejoin="round" stroke-linecap="round" fill-rule="evenodd" stroke="#005540" stroke-opacity="1" stroke-width="0.5" fill="#00cc99" fill-opacity="0.5" d="M677 368L679 369L678 370L676 368z"/></g><g><path class="class-0 leaflet-clickable" stroke-linejoin="round" stroke-linecap="round" fill-rule="evenodd" stroke="#005540" stroke-opacity="1" stroke-width="0.5" fill="#00cc99" fill-opacity="0.5" d="M1117 365L1115 367L1110 368L1112 366L1115 367L1117 365z"/></g><g><path class="class-0 leaflet-clickable" stroke-linejoin="round" stroke-linecap="round" fill-rule="evenodd" stroke="#005540" stroke-opacity="1" stroke-width="0.5" fill="#00cc99" fill-opacity="0.5" d="M672 363L674 363L675 366L673 366L672 364z"/></g><g><path class="class-0 leaflet-clickable" stroke-linejoin="round" stroke-linecap="round" fill-rule="evenodd" stroke="#005540" stroke-opacity="1" stroke-width="0.5" fill="#00cc99" fill-opacity="0.5" d="M672 361L671 361z"/></g><g><path class="class-0 leaflet-clickable" stroke-linejoin="round" stroke-linecap="round" fill-rule="evenodd" stroke="#005540" stroke-opacity="1" stroke-width="0.5" fill="#00cc99" fill-opacity="0.5" d="M1056 344L1056 343z"/></g><g><path class="class-0 leaflet-clickable" stroke-linejoin="round" stroke-linecap="round" fill-rule="evenodd" stroke="#005540" stroke-opacity="1" stroke-width="0.5" fill="#00cc99" fill-opacity="0.5" d="M1057 341L1061 344L1059 346L1056 343L1057 341z"/></g><g><path class="class-0 leaflet-clickable" stroke-linejoin="round" stroke-linecap="round" fill-rule="evenodd" stroke="#005540" stroke-opacity="1" stroke-width="0.5" fill="#00cc99" fill-opacity="0.5" d="M600 302L598 302L598 297L600 302z"/></g><g><path class="class-0 leaflet-clickable" stroke-linejoin="round" stroke-linecap="round" fill-rule="evenodd" stroke="#005540" stroke-opacity="1" stroke-width="0.5" fill="#00cc99" fill-opacity="0.5" d="M588 293L589 296L587 294L588 293z"/></g><g><path class="class-0 leaflet-clickable" stroke-linejoin="round" stroke-linecap="round" fill-rule="evenodd" stroke="#005540" stroke-opacity="1" stroke-width="0.5" fill="#00cc99" fill-opacity="0.5" d="M587 291L587 292z"/></g><g><path class="class-0 leaflet-clickable" stroke-linejoin="round" stroke-linecap="round" fill-rule="evenodd" stroke="#005540" stroke-opacity="1" stroke-width="0.5" fill="#00cc99" fill-opacity="0.5" d="M583 285L583 285z"/></g><g><path class="class-0 leaflet-clickable" stroke-linejoin="round" stroke-linecap="round" fill-rule="evenodd" stroke="#005540" stroke-opacity="1" stroke-width="0.5" fill="#00cc99" fill-opacity="0.5" d="M580 279L584 284L580 281L580 279z"/></g><g><path class="class-0 leaflet-clickable" stroke-linejoin="round" stroke-linecap="round" fill-rule="evenodd" stroke="#005540" stroke-opacity="1" stroke-width="0.5" fill="#00cc99" fill-opacity="0.5" d="M580 273L579 275L580 273z"/></g><g><path class="class-0 leaflet-clickable" stroke-linejoin="round" stroke-linecap="round" fill-rule="evenodd" stroke="#005540" stroke-opacity="1" stroke-width="0.5" fill="#00cc99" fill-opacity="0.5" d="M578 263L579 266L578 264z"/></g><g><path class="class-0 leaflet-clickable" stroke-linejoin="round" stroke-linecap="round" fill-rule="evenodd" stroke="#005540" stroke-opacity="1" stroke-width="0.5" fill="#00cc99" fill-opacity="0.5" d="M572 263L572 265L572 263z"/></g><g><path class="class-0 leaflet-clickable" stroke-linejoin="round" stroke-linecap="round" fill-rule="evenodd" stroke="#005540" stroke-opacity="1" stroke-width="0.5" fill="#00cc99" fill-opacity="0.5" d="M567 261L567 261z"/></g><g><path class="class-0 leaflet-clickable" stroke-linejoin="round" stroke-linecap="round" fill-rule="evenodd" stroke="#005540" stroke-opacity="1" stroke-width="0.5" fill="#00cc99" fill-opacity="0.5" d="M572 254L572 256L570 256L568 260L569 261L568 258L569 255L571 255z"/></g><g><path class="class-0 leaflet-clickable" stroke-linejoin="round" stroke-linecap="round" fill-rule="evenodd" stroke="#005540" stroke-opacity="1" stroke-width="0.5" fill="#00cc99" fill-opacity="0.5" d="M567 252L567 252z"/></g><g><path class="class-0 leaflet-clickable" stroke-linejoin="round" stroke-linecap="round" fill-rule="evenodd" stroke="#005540" stroke-opacity="1" stroke-width="0.5" fill="#00cc99" fill-opacity="0.5" d="M549 224L549 226L548 224z"/></g><g><path class="class-0 leaflet-clickable" stroke-linejoin="round" stroke-linecap="round" fill-rule="evenodd" stroke="#005540" stroke-opacity="1" stroke-width="0.5" fill="#00cc99" fill-opacity="0.5" d="M552 219L551 219z"/></g><g><path class="class-0 leaflet-clickable" stroke-linejoin="round" stroke-linecap="round" fill-rule="evenodd" stroke="#005540" stroke-opacity="1" stroke-width="0.5" fill="#00cc99" fill-opacity="0.5" d="M478 208L477 208z"/></g><g><path class="class-0 leaflet-clickable" stroke-linejoin="round" stroke-linecap="round" fill-rule="evenodd" stroke="#005540" stroke-opacity="1" stroke-width="0.5" fill="#00cc99" fill-opacity="0.5" d="M469 197L469 197z"/></g><g><path class="class-0 leaflet-clickable" stroke-linejoin="round" stroke-linecap="round" fill-rule="evenodd" stroke="#005540" stroke-opacity="1" stroke-width="0.5" fill="#00cc99" fill-opacity="0.5" d="M477 195L479 201L478 204L474 202L477 199L477 195z"/></g><g><path class="class-0 leaflet-clickable" stroke-linejoin="round" stroke-linecap="round" fill-rule="evenodd" stroke="#005540" stroke-opacity="1" stroke-width="0.5" fill="#00cc99" fill-opacity="0.5" d="M530 187L533 189L532 190L531 188z"/></g><g><path class="class-0 leaflet-clickable" stroke-linejoin="round" stroke-linecap="round" fill-rule="evenodd" stroke="#005540" stroke-opacity="1" stroke-width="0.5" fill="#00cc99" fill-opacity="0.5" d="M529 187L529 187z"/></g><g><path class="class-0 leaflet-clickable" stroke-linejoin="round" stroke-linecap="round" fill-rule="evenodd" stroke="#005540" stroke-opacity="1" stroke-width="0.5" fill="#00cc99" fill-opacity="0.5" d="M538 186L537 188L537 186z"/></g><g><path class="class-0 leaflet-clickable" stroke-linejoin="round" stroke-linecap="round" fill-rule="evenodd" stroke="#005540" stroke-opacity="1" stroke-width="0.5" fill="#00cc99" fill-opacity="0.5" d="M516 176L516 176z"/></g><g><path class="class-0 leaflet-clickable" stroke-linejoin="round" stroke-linecap="round" fill-rule="evenodd" stroke="#005540" stroke-opacity="1" stroke-width="0.5" fill="#00cc99" fill-opacity="0.5" d="M406 175L408 177L407 182L405 178L407 174z"/></g><g><path class="class-0 leaflet-clickable" stroke-linejoin="round" stroke-linecap="round" fill-rule="evenodd" stroke="#005540" stroke-opacity="1" stroke-width="0.5" fill="#00cc99" fill-opacity="0.5" d="M544 173L546 179L544 184L545 185L543 186L538 182L539 175L543 173z"/></g><g><path class="class-0 leaflet-clickable" stroke-linejoin="round" stroke-linecap="round" fill-rule="evenodd" stroke="#005540" stroke-opacity="1" stroke-width="0.5" fill="#00cc99" fill-opacity="0.5" d="M516 165L519 167L519 170L521 172L524 171L524 179L514 168L516 165z"/></g><g><path class="class-0 leaflet-clickable" stroke-linejoin="round" stroke-linecap="round" fill-rule="evenodd" stroke="#005540" stroke-opacity="1" stroke-width="0.5" fill="#00cc99" fill-opacity="0.5" d="M495 153L496 154L495 153z"/></g><g><path class="class-0 leaflet-clickable" stroke-linejoin="round" stroke-linecap="round" fill-rule="evenodd" stroke="#005540" stroke-opacity="1" stroke-width="0.5" fill="#00cc99" fill-opacity="0.5" d="M488 112L488 112z"/></g><g><path class="class-0 leaflet-clickable" stroke-linejoin="round" stroke-linecap="round" fill-rule="evenodd" stroke="#005540" stroke-opacity="1" stroke-width="0.5" fill="#00cc99" fill-opacity="0.5" d="M490 106L491 107L490 106z"/></g><g><path class="class-0 leaflet-clickable" stroke-linejoin="round" stroke-linecap="round" fill-rule="evenodd" stroke="#005540" stroke-opacity="1" stroke-width="0.5" fill="#00cc99" fill-opacity="0.5" d="M488 105L490 107L489 108L487 108L487 105z"/></g><g><path class="class-0 leaflet-clickable" stroke-linejoin="round" stroke-linecap="round" fill-rule="evenodd" stroke="#005540" stroke-opacity="1" stroke-width="0.5" fill="#00cc99" fill-opacity="0.5" d="M487 83L487 87L566 115L571 118L637 118L637 106L640 105L677 106L682 113L685 116L687 116L698 128L708 135L710 135L710 137L712 137L713 142L717 148L717 156L724 165L728 166L727 167L730 170L737 172L745 178L752 180L753 177L757 173L758 174L757 172L759 170L760 164L764 159L768 159L771 156L780 159L790 158L792 162L794 162L794 164L795 163L795 165L808 176L812 188L816 193L815 194L818 199L823 203L826 209L834 216L836 230L840 234L844 246L846 245L848 247L853 248L853 250L859 250L864 255L877 255L882 260L884 259L883 258L888 257L888 263L881 276L876 294L874 336L872 339L872 346L878 360L884 366L882 374L890 392L897 398L905 409L907 419L912 424L912 426L915 427L918 433L922 435L931 435L937 439L941 439L946 448L948 449L956 448L973 442L986 442L989 440L989 438L998 436L1006 436L1009 438L1026 428L1035 420L1035 412L1041 405L1041 387L1043 381L1049 376L1062 372L1080 370L1084 367L1092 365L1098 365L1112 370L1117 369L1118 366L1123 373L1124 370L1123 373L1125 377L1121 385L1109 399L1109 409L1108 410L1109 406L1109 408L1106 409L1104 413L1102 413L1105 416L1109 414L1110 415L1109 418L1104 420L1104 424L1107 421L1109 421L1107 423L1107 427L1105 429L1099 449L1096 449L1096 443L1091 443L1091 441L1085 441L1083 447L1080 449L1077 455L1073 452L1070 457L1029 457L1029 470L1018 470L1021 473L1022 472L1022 474L1026 476L1025 477L1027 479L1035 483L1036 488L1042 491L1041 498L1012 498L1001 518L1004 522L1001 527L1002 531L1000 535L972 507L964 501L954 497L944 495L932 496L927 501L923 501L913 506L912 505L909 508L900 508L891 505L888 502L874 501L864 494L857 493L851 487L849 488L839 484L831 484L823 478L799 470L800 469L795 465L791 464L779 453L772 454L746 446L734 432L710 420L708 415L706 415L698 404L694 394L702 392L704 390L702 386L697 386L705 376L705 367L704 368L700 365L695 357L695 349L692 341L676 325L675 321L669 315L664 307L646 294L630 274L618 270L614 265L610 265L608 257L613 248L613 244L609 239L603 239L600 237L597 229L589 227L585 223L583 223L583 209L581 207L580 208L576 206L576 208L574 208L574 206L568 204L562 195L558 193L552 186L553 184L546 180L546 173L544 170L543 171L541 169L542 167L538 162L536 156L533 155L533 148L525 134L526 122L520 119L513 118L513 114L508 110L501 113L487 104L487 110L485 113L485 123L489 129L489 137L491 142L490 149L492 153L496 157L496 159L499 159L513 172L516 182L518 180L520 184L523 184L525 191L527 193L531 193L530 197L532 199L534 211L543 218L546 224L545 225L552 229L550 230L550 232L552 234L554 233L557 235L560 238L560 242L563 243L562 244L566 254L566 262L571 268L573 268L575 277L581 285L579 289L580 297L583 301L586 302L589 301L589 297L596 303L596 305L600 306L600 308L603 311L603 315L606 316L609 320L609 324L607 327L598 334L596 334L594 332L591 320L587 316L565 299L561 297L556 298L555 296L548 292L546 290L546 287L543 286L548 272L548 261L543 251L535 248L520 236L518 235L515 238L508 231L504 231L501 227L497 227L494 224L493 220L481 211L481 209L493 211L499 208L503 201L502 198L504 194L502 190L497 186L497 184L494 181L492 181L491 177L488 176L488 174L483 169L478 168L476 165L470 163L466 159L467 157L464 153L464 146L458 140L459 134L453 127L452 128L451 119L444 112L445 109L442 106L444 107L445 104L439 99L439 96L434 88L434 85L488 80L488 82zM577 205L577 206z"/></g></svg>