<svg xmlns="http://www.w3.org/2000/svg" class="leaflet-zoom-animated" width="1976" height="799" viewBox="-271 -30 1976 799" style="transform: translate3d(-271px, -30px, 0px);"><g><path class="class-3 leaflet-clickable" stroke-linejoin="round" stroke-linecap="round" fill-rule="evenodd" stroke="#005540" stroke-opacity="1" stroke-width="0.5" fill="#086" fill-opacity="0.5" d="M281 623L281 626L279 627L276 624L278 622z"/></g><g><path class="class-3 leaflet-clickable" stroke-linejoin="round" stroke-linecap="round" fill-rule="evenodd" stroke="#005540" stroke-opacity="1" stroke-width="0.5" fill="#086" fill-opacity="0.5" d="M262 610L268 611L269 613L267 614L266 617L257 613L260 610z"/></g><g><path class="class-3 leaflet-clickable" stroke-linejoin="round" stroke-linecap="round" fill-rule="evenodd" stroke="#005540" stroke-opacity="1" stroke-width="0.5" fill="#086" fill-opacity="0.5" d="M242 590L252 593L255 602L253 604L244 599L245 598L242 595L243 592z"/></g><g><path class="class-3 leaflet-clickable" stroke-linejoin="round" stroke-linecap="round" fill-rule="evenodd" stroke="#005540" stroke-opacity="1" stroke-width="0.5" fill="#086" fill-opacity="0.5" d="M240 582L242 586L240 587L239 585z"/></g><g><path class="class-3 leaflet-clickable" stroke-linejoin="round" stroke-linecap="round" fill-rule="evenodd" stroke="#005540" stroke-opacity="1" stroke-width="0.5" fill="#086" fill-opacity="0.5" d="M452 520L452 522L457 525L458 531L454 536L453 542L451 544L450 563L454 563L457 560L461 564L466 562L468 563L466 575L469 579L476 582L479 581L491 583L490 586L494 590L490 596L492 597L491 601L497 605L496 607L500 610L502 611L504 609L509 617L506 617L506 625L502 629L500 634L491 636L486 633L482 636L482 638L476 640L466 639L463 643L465 646L462 653L462 661L465 663L459 669L457 669L457 673L451 674L452 677L449 679L454 678L457 681L458 679L462 686L462 691L460 692L461 696L459 696L458 694L458 689L449 683L448 680L444 677L440 676L433 666L426 666L422 664L422 662L417 660L418 658L408 656L396 667L390 667L388 665L383 667L377 676L377 681L375 680L371 683L369 689L367 689L360 681L356 684L344 681L345 678L348 678L351 671L364 657L364 655L368 656L372 651L371 645L373 634L370 625L374 616L376 615L374 611L375 610L372 607L369 608L352 597L338 569L333 558L335 543L330 521L323 508L324 507L328 514L331 514L332 513L329 505L335 502L338 505L338 508L344 508L344 510L352 509L352 500L350 496L347 496L345 489L345 484L350 473L347 466L351 464L355 459L355 455L357 454L360 454L361 456L360 460L362 462L363 468L366 466L386 466L391 464L393 467L392 470L394 473L394 477L396 480L400 480L400 487L402 488L386 494L386 496L392 503L394 511L396 511L405 501L407 496L410 498L413 497L414 504L417 506L423 505L424 515L429 515L431 522L433 522L435 525L438 526L439 523L450 519z"/></g><g><path class="class-2 leaflet-clickable" stroke-linejoin="round" stroke-linecap="round" fill-rule="evenodd" stroke="#005540" stroke-opacity="1" stroke-width="0.5" fill="#00cc99" fill-opacity="0.5" d="M816 727L830 734L831 736L826 742L830 743L829 748L832 748L835 751L834 750L833 754L837 755L836 764L841 769L598.6666666666666 769L599 765L594 760L585 758L584 759L578 756L573 759L570 757L572 752L572 742L582 742L579 739L586 740L591 745L593 743L592 742L595 742L599 739L603 739L604 733L608 734L610 729L614 730L623 723L626 722L632 724L638 721L643 723L650 721L651 719L664 718L663 722L671 722L671 731L675 736L681 734L683 736L685 734L694 737L694 734L696 734L696 732L700 730L700 725L705 725L707 723L712 725L713 723L715 724L715 729L719 729L721 731L724 731L725 733L724 736L720 736L718 740L721 743L720 752L734 752L738 755L738 753L742 752L740 750L742 747L745 750L746 748L755 747L757 749L755 751L760 754L757 759L760 762L762 759L766 759L767 761L769 760L770 762L772 762L772 758L776 760L777 764L780 764L782 761L788 759L791 760L794 756L797 756L797 760L800 759L800 761L806 757L815 756L814 753L816 753L815 750L812 748L812 744L815 738L817 737L815 734L818 731L816 729z"/></g><g><path class="class-2 leaflet-clickable" stroke-linejoin="round" stroke-linecap="round" fill-rule="evenodd" stroke="#005540" stroke-opacity="1" stroke-width="0.5" fill="#00cc99" fill-opacity="0.5" d="M-44 347L-50 348L-53 344L-57 326L-55 326L-46 342z"/></g><g><path class="class-2 leaflet-clickable" stroke-linejoin="round" stroke-linecap="round" fill-rule="evenodd" stroke="#005540" stroke-opacity="1" stroke-width="0.5" fill="#00cc99" fill-opacity="0.5" d="M-95 310L-93 310L-89 316L-92 322L-94 322L-94 320L-97 318L-95 316L-98 313L-97 310z"/></g><g><path class="class-2 leaflet-clickable" stroke-linejoin="round" stroke-linecap="round" fill-rule="evenodd" stroke="#005540" stroke-opacity="1" stroke-width="0.5" fill="#00cc99" fill-opacity="0.5" d="M-98 304L-95 308L-96 309L-100 305z"/></g><g><path class="class-2 leaflet-clickable" stroke-linejoin="round" stroke-linecap="round" fill-rule="evenodd" stroke="#005540" stroke-opacity="1" stroke-width="0.5" fill="#00cc99" fill-opacity="0.5" d="M-127 252L-123 257L-115 261L-111 274L-114 275L-118 271L-120 271L-124 261L-127 260L-128 257z"/></g><g><path class="class-2 leaflet-clickable" stroke-linejoin="round" stroke-linecap="round" fill-rule="evenodd" stroke="#005540" stroke-opacity="1" stroke-width="0.5" fill="#00cc99" fill-opacity="0.5" d="M-125 232L-127 236L-129 235L-129 233L-127 232z"/></g><g><path class="class-2 leaflet-clickable" stroke-linejoin="round" stroke-linecap="round" fill-rule="evenodd" stroke="#005540" stroke-opacity="1" stroke-width="0.5" fill="#00cc99" fill-opacity="0.5" d="M-133 191L-131 201L-132 203L-136 198L-135 194z"/></g><g><path class="class-2 leaflet-clickable" stroke-linejoin="round" stroke-linecap="round" fill-rule="evenodd" stroke="#005540" stroke-opacity="1" stroke-width="0.5" fill="#00cc99" fill-opacity="0.5" d="M-157 191L-155 193L-156 196L-159 191z"/></g><g><path class="class-2 leaflet-clickable" stroke-linejoin="round" stroke-linecap="round" fill-rule="evenodd" stroke="#005540" stroke-opacity="1" stroke-width="0.5" fill="#00cc99" fill-opacity="0.5" d="M-159 155L-161 159L-161 164L-163 162L-169 170L-170 175L-172 177L-172 181L-174 180L-175 177L-169 164L-169 158L-161 156z"/></g><g><path class="class-2 leaflet-clickable" stroke-linejoin="round" stroke-linecap="round" fill-rule="evenodd" stroke="#005540" stroke-opacity="1" stroke-width="0.5" fill="#00cc99" fill-opacity="0.5" d="M-178 148L-177 151L-180 150L-178 148z"/></g><g><path class="class-2 leaflet-clickable" stroke-linejoin="round" stroke-linecap="round" fill-rule="evenodd" stroke="#005540" stroke-opacity="1" stroke-width="0.5" fill="#00cc99" fill-opacity="0.5" d="M-252 34L-248 39L-251 42L-254 35L-253 34z"/></g><g><path class="class-2 leaflet-clickable" stroke-linejoin="round" stroke-linecap="round" fill-rule="evenodd" stroke="#005540" stroke-opacity="1" stroke-width="0.5" fill="#00cc99" fill-opacity="0.5" d="M-239 16L-239 19L-241 18L-241 16z"/></g><g><path class="class-2 leaflet-clickable" stroke-linejoin="round" stroke-linecap="round" fill-rule="evenodd" stroke="#005540" stroke-opacity="1" stroke-width="0.5" fill="#00cc99" fill-opacity="0.5" d="M0 0"/></g><g><path class="class-2 leaflet-clickable" stroke-linejoin="round" stroke-linecap="round" fill-rule="evenodd" stroke="#005540" stroke-opacity="1" stroke-width="0.5" fill="#00cc99" fill-opacity="0.5" d="M-271 23L-269 23L-268 26L-266 27L-266 30L-264 31L-263 34L-264 38L-259 44L-253 47L-245 48L-244 50L-240 50L-240 53L-243 54L-246 60L-245 64L-242 66L-240 71L-236 75L-228 71L-223 74L-219 80L-214 83L-213 86L-205 91L-204 106L-195 109L-196 120L-188 131L-190 135L-186 149L-183 152L-185 159L-184 163L-186 165L-186 169L-184 171L-184 179L-181 179L-181 185L-176 188L-173 192L-171 201L-166 208L-164 210L-155 211L-156 218L-147 235L-149 236L-145 248L-142 251L-141 255L-138 256L-137 259L-134 259L-132 261L-131 266L-128 269L-122 282L-126 293L-129 296L-130 307L-129 311L-125 316L-126 322L-118 338L-115 339L-113 342L-107 344L-90 345L-90 339L-93 336L-93 330L-90 329L-90 327L-84 328L-84 331L-80 333L-78 337L-63 347L-60 359L-56 360L-47 357L-45 361L-48 368L-47 371L-35 383L-35 396L-14 407L-15 411L-10 417L-11 420L-9 423L-11 425L-11 439L-21 452L-32 456L-36 459L-38 463L-41 463L-49 472L-53 472L-54 474L-59 475L-68 467L-75 446L-77 431L-86 415L-94 405L-101 400L-110 397L-123 388L-137 371L-155 353L-175 340L-194 330L-207 326L-217 328L-218 332L-233 318L-254 307L-255 302L-259 298L-259 295L-258 296L-257 294L-258 288L-265 284L-271 284.3333333333333L-271 281L-269 279L-258 244L-253 213L-255 182L-262 163L-266 158L-270 155L-271 156z"/></g><g><path class="class-1 leaflet-clickable" stroke-linejoin="round" stroke-linecap="round" fill-rule="evenodd" stroke="#005540" stroke-opacity="1" stroke-width="0.5" fill="#7fd" fill-opacity="0.5" d="M0 0"/></g><g><path class="class-0 leaflet-clickable" stroke-linejoin="round" stroke-linecap="round" fill-rule="evenodd" stroke="#005540" stroke-opacity="1" stroke-width="0.5" fill="#ddfff6" fill-opacity="0.5" d="M862 -19L865 -19L866 -16L873 -10L854 4L855 10L870 15L871 32L877 50L880 53L872 68L869 67L869 71L871 69L876 69L876 71L880 71L885 74L886 77L882 84L883 88L878 92L879 94L890 94L903 101L900 126L902 131L906 128L915 136L921 136L924 156L927 156L929 154L931 155L937 151L948 165L955 157L977 160L977 213L991 213L991 218L945 255L937 255L936 251L934 250L932 255L926 258L924 257L924 260L922 262L924 271L920 277L922 285L919 286L912 282L906 285L903 289L900 289L895 292L893 295L894 298L889 300L889 302L883 300L872 307L873 314L881 312L885 323L885 330L882 335L879 351L887 359L889 359L890 363L894 367L897 376L894 375L886 385L882 387L869 384L860 385L851 407L855 424L840 423L835 428L841 432L838 439L827 437L829 431L822 431L820 436L814 436L815 443L818 443L818 446L804 443L806 426L801 421L803 410L806 411L805 406L803 406L803 402L807 393L803 389L802 383L798 378L800 356L799 351L801 349L792 345L794 345L795 340L790 340L793 323L783 314L780 317L775 307L775 288L772 280L782 271L773 263L775 246L783 239L794 237L818 244L818 240L824 242L827 241L824 237L826 236L825 232L818 228L812 230L805 229L807 222L805 220L800 219L799 216L795 215L795 213L791 212L793 210L800 211L799 209L793 208L790 205L785 206L781 199L777 198L775 191L769 180L773 170L772 167L765 166L764 154L756 146L752 145L747 135L738 124L779 87L785 99L792 92L793 87L798 80L799 55L788 52L786 51L786 49L780 52L780 56L778 54L775 55L772 52L772 40L786 26L810 20L816 -10L831 -22L848 -3L854 -9z"/></g><g><path class="class-0 leaflet-clickable" stroke-linejoin="round" stroke-linecap="round" fill-rule="evenodd" stroke="#005540" stroke-opacity="1" stroke-width="0.5" fill="#ddfff6" fill-opacity="0.5" d="M0 0"/></g><g><path class="class-0 leaflet-clickable" stroke-linejoin="round" stroke-linecap="round" fill-rule="evenodd" stroke="#005540" stroke-opacity="1" stroke-width="0.5" fill="#ddfff6" fill-opacity="0.5" d="M0 0"/></g><g><path class="class-0 leaflet-clickable" stroke-linejoin="round" stroke-linecap="round" fill-rule="evenodd" stroke="#005540" stroke-opacity="1" stroke-width="0.5" fill="#ddfff6" fill-opacity="0.5" d="M0 0"/></g><g><path class="class-0 leaflet-clickable" stroke-linejoin="round" stroke-linecap="round" fill-rule="evenodd" stroke="#005540" stroke-opacity="1" stroke-width="0.5" fill="#ddfff6" fill-opacity="0.5" d="M0 0"/></g><g><path class="class-0 leaflet-clickable" stroke-linejoin="round" stroke-linecap="round" fill-rule="evenodd" stroke="#005540" stroke-opacity="1" stroke-width="0.5" fill="#ddfff6" fill-opacity="0.5" d="M0 0"/></g><g><path class="class-3 leaflet-clickable" stroke-linejoin="round" stroke-linecap="round" fill-rule="evenodd" stroke="#005540" stroke-opacity="1" stroke-width="0.5" fill="#086" fill-opacity="0.5" d="M862 -19L848 -3L831 -22L816 -10L810 20L786 26L772 40L772 52L775 55L778 54L780 56L780 53L785 49L788 52L799 55L798 80L794 85L792 92L785 99L779 87L738 124L747 135L752 145L756 146L764 154L765 166L772 167L772 176L769 180L775 191L777 198L781 199L785 206L790 205L793 208L799 209L800 211L793 210L791 212L795 213L795 215L799 216L800 219L805 220L807 222L805 229L812 230L818 228L822 230L826 236L824 237L827 241L824 242L818 240L818 244L794 237L783 239L775 246L773 263L782 271L772 280L775 288L774 308L767 306L766 304L761 308L749 304L745 300L738 286L728 283L726 281L720 284L715 289L700 287L698 283L701 284L702 279L697 277L694 279L686 275L679 261L639 250L624 251L625 263L605 256L588 285L588 289L582 285L566 280L551 266L552 264L550 261L550 257L543 251L542 252L538 244L534 242L532 237L529 237L528 233L533 225L538 222L543 225L544 221L541 221L530 209L535 204L536 200L538 200L538 198L542 195L545 186L546 180L543 176L543 147L551 133L546 125L541 101L517 91L516 92L515 89L510 87L506 77L504 77L497 71L499 67L497 67L503 62L504 59L507 58L506 52L503 51L502 38L499 30L495 28L497 4L496 -2L494 -1L493 -7L493 -16L495 -16L490 -22L493 -25L487 -26L489 -30L857 -30L859 -27L859 -22L861 -21z"/></g><g><path class="class-0 leaflet-clickable" stroke-linejoin="round" stroke-linecap="round" fill-rule="evenodd" stroke="#005540" stroke-opacity="1" stroke-width="0.5" fill="#ddfff6" fill-opacity="0.5" d="M934 631L934 634L932 635L935 641L933 643L927 643L919 648L915 648L911 644L907 648L902 649L903 651L905 651L906 654L901 668L899 668L898 672L895 674L893 679L894 680L889 683L893 691L883 697L879 697L872 701L863 703L861 729L856 728L854 730L855 735L852 734L852 732L849 730L854 739L853 744L855 748L851 750L850 748L848 748L844 752L839 753L832 748L829 748L830 743L826 742L830 738L830 734L812 725L812 721L810 719L804 718L801 706L802 702L804 702L804 699L803 696L800 693L798 694L797 690L795 690L794 686L798 684L796 680L797 677L795 677L802 673L805 665L807 666L806 668L817 669L824 665L824 661L829 664L835 664L837 666L842 664L840 663L842 662L842 655L846 657L847 655L845 648L849 637L857 640L858 642L863 643L872 635L875 636L875 632L878 629L872 628L870 630L867 627L866 623L868 622L868 610L871 607L871 602L879 603L882 609L890 616L893 617L899 614L901 616L905 609L905 605L906 604L908 606L911 606L914 603L913 599L916 599L919 594L922 594L923 597L927 600L927 613L930 618L930 623L927 623L926 626L929 629L931 629z"/></g><g><path class="class-1 leaflet-clickable" stroke-linejoin="round" stroke-linecap="round" fill-rule="evenodd" stroke="#005540" stroke-opacity="1" stroke-width="0.5" fill="#7fd" fill-opacity="0.5" d="M1031 705L1029 711L1023 714L1020 721L1015 724L1013 723L1014 727L1006 726L1004 730L1005 735L1014 731L1018 737L1017 741L1020 742L1020 744L1019 743L1015 746L1015 750L1013 751L1015 753L1015 758L1010 759L1001.75 769L966 769L959 767L957 769L952 765L949 765L947 769L937.5 769L937 768L942 766L943 762L939 761L942 758L944 758L944 753L939 749L938 759L936 759L936 754L933 757L933 754L931 752L927 752L924 753L919 760L920 764L918 765L918 768L917 767L916 769L900.5 769L895 765L899 755L892 741L892 738L891 740L884 739L882 741L879 738L872 739L867 734L867 732L862 728L861 729L863 703L872 701L879 697L883 698L888 693L893 691L889 683L894 680L893 679L895 674L898 672L899 668L901 668L906 654L905 651L903 651L903 648L904 649L911 644L915 648L919 648L927 643L932 643L935 641L934 637L932 636L934 634L934 631L944 628L949 639L955 643L958 642L957 639L963 641L967 641L968 639L974 639L975 630L969 627L968 625L971 622L983 622L984 620L986 620L987 622L981 632L983 634L987 634L986 636L989 638L989 641L992 643L999 643L999 641L1004 639L1005 641L1003 644L1006 644L1007 646L1011 644L1011 646L1016 650L1016 654L1011 657L1011 661L1009 662L1008 666L1009 668L1007 668L1006 671L1007 676L1009 676L1006 679L1000 679L1000 675L997 672L994 672L989 674L987 684L983 684L981 686L981 691L985 687L991 685L988 688L988 691L985 693L986 698L982 699L982 703L976 708L980 713L981 722L988 723L995 716L1001 715L1001 712L1011 704L1014 704L1016 702L1024 690L1028 695L1027 698L1029 704z"/></g><g><path class="class-0 leaflet-clickable" stroke-linejoin="round" stroke-linecap="round" fill-rule="evenodd" stroke="#005540" stroke-opacity="1" stroke-width="0.5" fill="#ddfff6" fill-opacity="0.5" d="M861 729L862 728L867 732L867 734L872 739L879 738L879 740L882 741L884 739L891 740L892 738L899 755L895 765L900.5 769L916 769L917 767L918 768L918 765L920 764L918 760L927 752L931 752L933 757L936 754L936 758L938 759L939 749L944 753L944 758L939 760L943 762L943 766L937 768L937.5 769L947 769L949 765L952 765L957 769L959 767L966 769L836 769L841 769L838 767L837 764L837 755L833 754L834 750L839 753L844 752L848 748L850 748L850 750L854 749L854 739L849 730L852 732L852 734L855 735L854 731L856 728L859 729z"/></g><g><path class="class-2 leaflet-clickable" stroke-linejoin="round" stroke-linecap="round" fill-rule="evenodd" stroke="#005540" stroke-opacity="1" stroke-width="0.5" fill="#00cc99" fill-opacity="0.5" d="M0 0"/></g><g><path class="class-0 leaflet-clickable" stroke-linejoin="round" stroke-linecap="round" fill-rule="evenodd" stroke="#005540" stroke-opacity="1" stroke-width="0.5" fill="#ddfff6" fill-opacity="0.5" d="M1001.75 769L1010 759L1015 758L1015 753L1013 751L1015 750L1015 746L1019 743L1020 744L1020 742L1017 741L1018 737L1014 731L1005 735L1004 730L1006 726L1014 727L1013 723L1018 723L1023 714L1029 711L1032 703L1038 698L1039 695L1037 690L1039 687L1037 686L1041 674L1043 674L1043 676L1045 677L1051 675L1054 678L1056 678L1055 683L1052 687L1054 689L1053 691L1055 694L1057 694L1057 700L1059 702L1067 701L1072 708L1068 708L1062 716L1056 711L1051 717L1056 724L1059 724L1059 726L1056 726L1056 728L1052 730L1054 731L1053 737L1058 739L1065 739L1067 748L1076 742L1075 740L1079 737L1080 732L1084 733L1087 731L1086 733L1109 743L1102 750L1102 753L1097 758L1096 761L1098 762L1095 764L1093 769z"/></g><g><path class="class-2 leaflet-clickable" stroke-linejoin="round" stroke-linecap="round" fill-rule="evenodd" stroke="#005540" stroke-opacity="1" stroke-width="0.5" fill="#00cc99" fill-opacity="0.5" d="M0 0"/></g><g><path class="class-1 leaflet-clickable" stroke-linejoin="round" stroke-linecap="round" fill-rule="evenodd" stroke="#005540" stroke-opacity="1" stroke-width="0.5" fill="#7fd" fill-opacity="0.5" d="M0 0"/></g><g><path class="class-2 leaflet-clickable" stroke-linejoin="round" stroke-linecap="round" fill-rule="evenodd" stroke="#005540" stroke-opacity="1" stroke-width="0.5" fill="#00cc99" fill-opacity="0.5" d="M0 0"/></g><g><path class="class-0 leaflet-clickable" stroke-linejoin="round" stroke-linecap="round" fill-rule="evenodd" stroke="#005540" stroke-opacity="1" stroke-width="0.5" fill="#ddfff6" fill-opacity="0.5" d="M0 0"/></g><g><path class="class-0 leaflet-clickable" stroke-linejoin="round" stroke-linecap="round" fill-rule="evenodd" stroke="#005540" stroke-opacity="1" stroke-width="0.5" fill="#ddfff6" fill-opacity="0.5" d="M0 0"/></g><g><path class="class-0 leaflet-clickable" stroke-linejoin="round" stroke-linecap="round" fill-rule="evenodd" stroke="#005540" stroke-opacity="1" stroke-width="0.5" fill="#ddfff6" fill-opacity="0.5" d="M0 0"/></g><g><path class="class-0 leaflet-clickable" stroke-linejoin="round" stroke-linecap="round" fill-rule="evenodd" stroke="#005540" stroke-opacity="1" stroke-width="0.5" fill="#ddfff6" fill-opacity="0.5" d="M0 0"/></g><g><path class="class-0 leaflet-clickable" stroke-linejoin="round" stroke-linecap="round" fill-rule="evenodd" stroke="#005540" stroke-opacity="1" stroke-width="0.5" fill="#ddfff6" fill-opacity="0.5" d="M0 0"/></g><g><path class="class-0 leaflet-clickable" stroke-linejoin="round" stroke-linecap="round" fill-rule="evenodd" stroke="#005540" stroke-opacity="1" stroke-width="0.5" fill="#ddfff6" fill-opacity="0.5" d="M0 0"/></g><g><path class="class-0 leaflet-clickable" stroke-linejoin="round" stroke-linecap="round" fill-rule="evenodd" stroke="#005540" stroke-opacity="1" stroke-width="0.5" fill="#ddfff6" fill-opacity="0.5" d="M0 0"/></g><g><path class="class-0 leaflet-clickable" stroke-linejoin="round" stroke-linecap="round" fill-rule="evenodd" stroke="#005540" stroke-opacity="1" stroke-width="0.5" fill="#ddfff6" fill-opacity="0.5" d="M0 0"/></g><g><path class="class-1 leaflet-clickable" stroke-linejoin="round" stroke-linecap="round" fill-rule="evenodd" stroke="#005540" stroke-opacity="1" stroke-width="0.5" fill="#7fd" fill-opacity="0.5" d="M0 0"/></g><g><path class="class-0 leaflet-clickable" stroke-linejoin="round" stroke-linecap="round" fill-rule="evenodd" stroke="#005540" stroke-opacity="1" stroke-width="0.5" fill="#ddfff6" fill-opacity="0.5" d="M1049 535L1049 543L1052 554L1065 577L1069 583L1091 603L1089 615L1083 625L1083 639L1100 675L1105 691L1116 705L1122 710L1125 716L1147 739L1161 759L1170 769L1093 769L1095 764L1098 762L1096 761L1097 758L1102 754L1102 751L1109 743L1086 733L1087 731L1084 733L1080 732L1079 737L1075 740L1076 742L1067 748L1065 739L1058 739L1053 737L1054 731L1052 730L1056 728L1056 726L1059 726L1059 724L1056 724L1051 718L1055 711L1062 716L1068 708L1072 708L1067 701L1059 702L1056 696L1057 694L1053 692L1054 689L1052 687L1055 683L1056 678L1054 678L1051 675L1045 677L1043 676L1043 674L1041 674L1037 686L1039 687L1037 690L1039 695L1038 698L1031 705L1029 704L1027 698L1028 695L1024 690L1014 704L1009 705L1005 710L1001 712L1001 715L995 716L988 723L981 722L980 713L976 708L982 703L982 699L986 698L985 694L991 685L985 687L981 691L980 688L983 684L987 684L989 674L991 673L997 672L1001 677L999 678L1000 679L1006 679L1009 676L1007 676L1006 671L1007 668L1009 668L1008 666L1009 662L1011 661L1011 657L1016 655L1016 650L1011 646L1011 644L1007 646L1006 644L1003 644L1005 641L1004 639L999 641L999 643L992 643L986 636L987 635L981 632L987 623L986 620L982 619L983 613L981 610L975 606L972 594L979 591L978 588L980 588L981 590L988 583L988 581L985 576L983 578L980 571L983 570L980 568L984 568L983 565L979 567L977 563L980 564L982 562L987 564L986 562L988 561L990 552L992 551L990 549L999 542L998 539L1000 537L996 537L996 535L993 535L993 532L991 533L989 530L985 531L977 524L968 524L969 521L972 520L976 522L984 518L987 518L988 520L989 518L991 518L990 520L993 521L995 519L995 522L998 522L1001 520L1000 518L1002 515L1007 516L1007 514L1011 515L1013 519L1020 522L1023 526L1031 526L1033 528L1031 530L1036 534L1039 539L1045 540L1045 537L1047 536z"/></g><g><path class="class-0 leaflet-clickable" stroke-linejoin="round" stroke-linecap="round" fill-rule="evenodd" stroke="#005540" stroke-opacity="1" stroke-width="0.5" fill="#ddfff6" fill-opacity="0.5" d="M0 0"/></g><g><path class="class-0 leaflet-clickable" stroke-linejoin="round" stroke-linecap="round" fill-rule="evenodd" stroke="#005540" stroke-opacity="1" stroke-width="0.5" fill="#ddfff6" fill-opacity="0.5" d="M0 0"/></g><g><path class="class-0 leaflet-clickable" stroke-linejoin="round" stroke-linecap="round" fill-rule="evenodd" stroke="#005540" stroke-opacity="1" stroke-width="0.5" fill="#ddfff6" fill-opacity="0.5" d="M0 0"/></g><g><path class="class-0 leaflet-clickable" stroke-linejoin="round" stroke-linecap="round" fill-rule="evenodd" stroke="#005540" stroke-opacity="1" stroke-width="0.5" fill="#ddfff6" fill-opacity="0.5" d="M0 0"/></g><g><path class="class-0 leaflet-clickable" stroke-linejoin="round" stroke-linecap="round" fill-rule="evenodd" stroke="#005540" stroke-opacity="1" stroke-width="0.5" fill="#ddfff6" fill-opacity="0.5" d="M0 0"/></g><g><path class="class-0 leaflet-clickable" stroke-linejoin="round" stroke-linecap="round" fill-rule="evenodd" stroke="#005540" stroke-opacity="1" stroke-width="0.5" fill="#ddfff6" fill-opacity="0.5" d="M0 0"/></g><g><path class="class-0 leaflet-clickable" stroke-linejoin="round" stroke-linecap="round" fill-rule="evenodd" stroke="#005540" stroke-opacity="1" stroke-width="0.5" fill="#ddfff6" fill-opacity="0.5" d="M0 0"/></g><g><path class="class-0 leaflet-clickable" stroke-linejoin="round" stroke-linecap="round" fill-rule="evenodd" stroke="#005540" stroke-opacity="1" stroke-width="0.5" fill="#ddfff6" fill-opacity="0.5" d="M0 0"/></g><g><path class="class-0 leaflet-clickable" stroke-linejoin="round" stroke-linecap="round" fill-rule="evenodd" stroke="#005540" stroke-opacity="1" stroke-width="0.5" fill="#ddfff6" fill-opacity="0.5" d="M0 0"/></g><g><path class="class-0 leaflet-clickable" stroke-linejoin="round" stroke-linecap="round" fill-rule="evenodd" stroke="#005540" stroke-opacity="1" stroke-width="0.5" fill="#ddfff6" fill-opacity="0.5" d="M0 0"/></g><g><path class="class-1 leaflet-clickable" stroke-linejoin="round" stroke-linecap="round" fill-rule="evenodd" stroke="#005540" stroke-opacity="1" stroke-width="0.5" fill="#7fd" fill-opacity="0.5" d="M489 -30L487 -26L493 -25L490 -22L495 -16L493 -16L494 -1L496 -2L497 4L495 28L499 30L502 38L503 51L506 52L507 58L504 59L503 62L497 67L499 67L497 70L501 75L506 77L511 88L496 85L484 85L484 83L481 83L480 86L463 83L459 76L455 81L455 84L458 88L454 95L444 100L438 115L439 118L431 127L430 123L427 124L419 114L410 110L402 110L395 116L388 118L383 109L369 115L366 112L364 115L360 112L360 108L348 109L348 107L343 106L338 97L338 99L331 99L330 95L325 89L320 91L322 95L314 86L311 86L297 76L292 85L290 83L287 83L286 88L290 89L284 91L285 92L283 93L280 100L281 103L276 110L279 110L278 111L280 114L278 121L275 122L274 125L277 124L276 128L273 126L262 141L264 148L260 150L260 165L253 167L251 171L251 193L259 188L241 206L240 204L222 205L220 198L211 196L214 195L214 192L206 192L205 186L184 169L185 163L183 154L173 147L168 148L166 151L163 151L159 145L153 146L146 144L142 148L140 148L137 143L133 142L133 139L118 117L122 114L124 110L116 99L112 97L117 94L119 84L116 84L117 81L111 73L106 74L107 71L100 72L99 70L98 64L102 62L102 57L97 56L94 59L92 56L89 60L88 58L82 59L75 56L76 58L74 60L69 60L68 55L65 56L64 44L61 42L59 38L63 30L66 28L62 21L62 16L59 12L60 5L52 -1L50 -12L44 -16L38 -16L36 -20L40 -26L36 -28L35.5 -30z"/></g><g><path class="class-1 leaflet-clickable" stroke-linejoin="round" stroke-linecap="round" fill-rule="evenodd" stroke="#005540" stroke-opacity="1" stroke-width="0.5" fill="#7fd" fill-opacity="0.5" d="M0 0"/></g><g><path class="class-1 leaflet-clickable" stroke-linejoin="round" stroke-linecap="round" fill-rule="evenodd" stroke="#005540" stroke-opacity="1" stroke-width="0.5" fill="#7fd" fill-opacity="0.5" d="M0 0"/></g><g><path class="class-1 leaflet-clickable" stroke-linejoin="round" stroke-linecap="round" fill-rule="evenodd" stroke="#005540" stroke-opacity="1" stroke-width="0.5" fill="#7fd" fill-opacity="0.5" d="M0 0"/></g><g><path class="class-1 leaflet-clickable" stroke-linejoin="round" stroke-linecap="round" fill-rule="evenodd" stroke="#005540" stroke-opacity="1" stroke-width="0.5" fill="#7fd" fill-opacity="0.5" d="M35.5 -30L36 -28L40 -26L36 -20L38 -16L44 -16L50 -12L52 -1L60 4L59 12L62 16L62 21L66 28L59 36L65 48L64 54L65 56L68 55L69 60L81 62L77 63L72 72L69 78L71 81L67 83L65 88L62 89L62 92L58 96L58 102L53 101L48 104L40 106L38 112L36 113L42 113L39 121L37 119L34 122L28 121L17 132L13 130L11 127L9 127L6 130L5 129L6 120L4 109L-9 95L-16 92L-17 94L-28 91L-34 93L-46 86L-58 56L-61 53L-67 51L-68 52L-71 49L-86 46L-93 42L-101 33L-108 30L-111 31L-116 29L-118 25L-116 6L-119 -2L-119 -8L-117 -12L-119 -20L-116 -25L-110 -26L-113 -30L-141.8 -30L-143 -27L-148.66666666666666 -30z"/></g><g><path class="class-3 leaflet-clickable" stroke-linejoin="round" stroke-linecap="round" fill-rule="evenodd" stroke="#005540" stroke-opacity="1" stroke-width="0.5" fill="#086" fill-opacity="0.5" d="M511 88L515 89L516 92L517 91L541 101L546 125L551 133L543 147L543 176L546 180L545 186L542 195L538 198L538 200L536 200L535 204L530 209L541 221L544 221L544 225L538 222L533 225L529 233L529 237L532 237L534 242L538 244L542 252L543 251L550 257L550 261L552 263L551 266L566 280L582 285L588 289L588 285L605 256L608 262L607 265L604 265L604 268L614 272L621 301L622 320L618 320L617 322L611 322L605 325L597 325L594 322L590 324L585 317L584 320L578 317L576 319L571 316L568 320L567 319L566 323L562 320L554 321L552 318L550 320L537 320L533 331L531 331L528 334L523 334L524 343L518 351L517 352L515 348L498 360L497 364L499 366L499 372L497 375L500 382L496 387L498 392L497 395L503 395L502 399L501 401L497 398L491 406L478 416L473 431L472 444L468 449L468 464L470 470L474 473L473 477L475 484L469 486L464 484L462 487L459 488L460 490L458 491L459 493L457 495L460 502L454 508L457 514L455 518L439 523L439 526L431 522L429 515L424 515L423 505L417 506L414 504L413 498L407 496L405 501L396 511L394 511L392 503L386 496L386 494L402 488L400 487L400 480L396 480L394 477L394 473L392 471L393 467L391 464L386 466L366 466L363 468L362 462L360 460L361 456L360 454L357 454L355 450L347 449L344 450L344 452L342 452L334 448L335 439L334 436L329 432L327 425L329 420L325 418L327 416L322 406L319 403L319 401L312 403L311 407L308 394L310 389L305 378L306 372L312 375L314 375L315 372L311 368L307 368L310 364L302 358L301 355L303 352L301 351L298 341L295 341L294 334L288 329L277 325L270 328L269 332L263 334L259 335L253 332L248 325L249 324L247 321L250 319L251 315L245 313L245 310L243 310L237 296L223 281L218 281L216 278L217 276L211 270L209 272L209 269L204 260L199 257L199 244L197 240L200 238L196 236L192 229L195 230L191 221L196 218L198 213L194 211L195 206L199 207L208 203L213 199L211 196L220 198L222 205L240 204L241 206L255 191L259 189L251 193L252 167L260 165L260 150L264 148L262 141L273 126L276 128L277 124L274 125L275 122L278 121L280 114L278 111L279 110L276 110L280 106L280 100L283 93L285 92L284 91L290 89L286 88L286 83L290 83L292 85L297 76L307 84L313 87L314 86L322 95L320 91L325 89L331 97L331 99L338 99L338 97L343 106L348 107L348 109L359 108L361 111L360 112L364 115L366 112L369 115L383 109L388 119L390 117L395 116L402 110L410 110L419 114L424 122L427 124L430 123L431 127L439 118L438 115L444 100L454 95L458 88L455 84L455 81L459 76L463 83L479 86L481 83L484 83L484 85L496 85z"/></g><g><path class="class-0 leaflet-clickable" stroke-linejoin="round" stroke-linecap="round" fill-rule="evenodd" stroke="#005540" stroke-opacity="1" stroke-width="0.5" fill="#ddfff6" fill-opacity="0.5" d="M678 558L678 561L675 564L677 566L681 566L680 570L677 569L662 575L662 578L659 582L657 582L652 590L646 590L645 594L639 594L638 597L629 594L615 586L611 586L608 583L598 588L591 583L590 580L588 580L589 577L586 576L592 561L597 554L603 550L603 547L605 545L604 543L607 540L605 532L620 532L624 529L623 527L636 522L637 515L639 515L639 519L643 522L643 524L652 526L652 532L658 532L659 530L662 531L664 536L666 537L666 544L662 545L664 545L663 548L669 549L678 556z"/></g><g><path class="class-1 leaflet-clickable" stroke-linejoin="round" stroke-linecap="round" fill-rule="evenodd" stroke="#005540" stroke-opacity="1" stroke-width="0.5" fill="#7fd" fill-opacity="0.5" d="M1049 535L1045 537L1045 540L1039 539L1031 530L1033 528L1031 526L1023 526L1022 524L1013 519L1011 515L1007 514L1007 516L1002 515L1000 518L1001 520L998 522L995 522L995 519L993 521L990 520L991 518L989 518L988 520L987 518L984 518L976 522L972 520L956 525L950 524L949 526L945 522L933 520L917 520L913 506L909 498L905 499L904 494L899 495L894 487L889 487L894 499L890 500L888 497L877 493L873 496L865 496L862 494L862 489L858 487L851 487L846 489L839 486L845 479L844 470L838 470L838 464L840 465L839 461L841 462L842 459L847 455L841 452L842 450L837 449L837 442L841 432L835 428L840 423L855 424L851 407L860 385L869 384L882 387L886 385L894 375L897 376L894 367L890 363L889 359L887 359L879 351L880 342L885 330L885 323L881 312L873 314L872 307L883 300L889 302L889 300L894 298L893 295L895 292L902 289L906 285L912 283L919 286L922 285L920 277L924 271L922 262L924 260L924 257L926 258L932 255L934 250L937 254L941 256L945 255L991 218L991 213L977 213L977 160L955 157L948 165L937 151L931 155L930 154L924 156L921 136L915 136L906 128L902 131L900 126L903 101L890 94L879 94L878 92L883 88L882 84L886 77L885 74L880 71L876 71L876 69L871 69L869 71L869 67L872 68L880 53L877 50L871 32L870 15L855 10L854 4L873 -10L874 -7L878 -8L878 -5L881 -4L884 -6L886 -3L890 -2L892 3L891 9L895 10L893 26L890 28L894 29L894 32L899 34L898 37L900 42L900 51L898 53L898 58L901 58L904 62L904 67L908 68L910 70L910 74L914 76L917 82L917 86L920 88L924 105L923 107L927 108L929 111L929 118L931 122L935 120L938 122L941 121L943 122L943 124L945 122L949 126L955 124L959 129L961 128L965 133L964 134L968 135L969 138L977 136L978 139L990 139L990 142L995 146L998 145L1002 151L1005 150L1007 154L1010 154L1012 156L1014 154L1016 157L1018 155L1023 155L1023 157L1026 158L1027 155L1033 157L1041 155L1047 156L1048 158L1052 159L1060 159L1066 166L1071 168L1073 173L1076 172L1076 174L1079 174L1082 178L1087 178L1087 170L1096 168L1095 166L1108 166L1105 193L1077 250L1069 271L1059 312L1055 349L1054 387L1051 424L1052 461L1049 482L1043 499L1044 520L1047 530z"/></g><g><path class="class-1 leaflet-clickable" stroke-linejoin="round" stroke-linecap="round" fill-rule="evenodd" stroke="#005540" stroke-opacity="1" stroke-width="0.5" fill="#7fd" fill-opacity="0.5" d="M5 129L6 130L11 127L13 130L17 132L28 121L34 122L37 119L39 121L41 118L40 116L43 113L36 113L38 112L40 106L48 104L53 101L58 102L58 96L62 93L62 89L65 88L67 83L71 81L69 78L72 72L77 63L81 62L74 61L76 58L75 56L88 58L89 60L92 56L94 59L97 56L101 57L103 60L102 62L100 62L100 64L98 64L100 72L107 71L106 74L111 73L117 81L116 84L119 84L117 94L112 97L116 99L124 110L122 114L118 117L133 139L133 142L137 143L140 148L142 148L146 144L153 146L159 145L163 151L166 151L168 148L173 147L183 154L185 162L184 169L205 186L206 191L210 193L212 191L214 192L214 195L211 196L213 199L208 203L199 207L195 206L194 211L198 213L196 218L191 221L195 230L192 229L196 236L200 238L198 240L199 257L204 260L209 269L209 272L211 270L217 275L217 281L223 280L237 295L239 303L243 310L245 310L245 313L251 315L250 319L247 321L249 324L248 325L254 333L259 335L269 332L270 328L277 325L288 329L294 334L295 341L298 341L301 351L303 352L301 355L302 358L310 364L307 368L311 368L315 372L314 375L306 372L305 378L310 389L308 394L311 407L312 403L319 401L319 403L322 406L324 412L327 415L325 418L329 420L327 425L329 432L330 434L334 435L334 448L342 452L344 452L344 450L347 449L355 450L357 454L355 455L355 459L351 464L347 466L350 473L345 484L347 496L350 496L350 498L352 499L351 502L353 503L351 510L344 510L344 508L340 507L338 508L338 505L335 502L329 505L332 513L329 514L326 512L316 493L308 485L299 479L278 455L265 443L263 443L254 424L244 414L245 413L228 397L229 395L221 383L221 379L210 367L193 354L193 352L146 318L138 314L134 307L122 300L118 295L117 289L109 280L100 262L89 251L87 246L79 237L68 231L47 225L37 220L27 219L21 213L21 211L14 206L10 201L-1 197L-7 198L-11 181L-10 172L-12 167L-9 156L0 143L2 134L6 130z"/></g><g><path class="class-2 leaflet-clickable" stroke-linejoin="round" stroke-linecap="round" fill-rule="evenodd" stroke="#005540" stroke-opacity="1" stroke-width="0.5" fill="#00cc99" fill-opacity="0.5" d="M868 610L868 622L866 623L870 630L874 628L878 629L875 632L875 636L872 635L863 643L849 637L845 648L847 654L846 657L842 655L842 662L840 663L842 664L837 666L835 664L829 664L824 661L824 665L821 665L817 669L806 668L807 666L805 665L802 673L795 676L797 677L796 680L798 683L794 686L795 690L797 690L798 694L800 693L804 699L804 702L802 702L801 706L804 718L810 719L812 721L812 725L816 727L816 729L818 730L815 734L817 737L815 738L812 744L812 748L815 749L815 756L806 757L800 761L800 759L797 760L797 756L794 756L791 760L788 759L782 761L780 764L777 764L776 760L773 758L772 762L770 762L769 760L767 761L766 759L762 759L761 762L757 759L760 754L755 751L757 749L755 747L746 748L745 750L743 747L740 750L742 752L738 753L738 755L735 752L721 752L721 747L720 748L720 743L718 740L719 736L724 736L725 733L724 731L715 729L715 725L713 723L712 725L707 723L705 725L700 725L700 730L698 730L696 734L694 734L694 737L685 734L683 736L675 736L672 733L670 726L671 722L664 722L664 719L657 718L665 704L669 701L670 694L664 691L664 686L662 685L663 684L660 684L660 681L657 679L659 677L658 675L670 665L677 649L682 648L681 645L684 642L685 643L687 633L698 629L698 624L695 620L704 617L703 613L698 607L702 603L701 601L704 597L703 596L706 586L704 586L704 583L708 582L714 577L718 578L724 576L730 579L737 578L737 580L744 585L751 583L758 585L765 588L764 590L766 592L772 593L770 598L781 602L782 604L788 607L790 607L790 605L792 606L792 609L799 605L806 605L805 599L808 592L823 591L833 596L832 599L834 598L838 601L842 607L852 607L851 609L853 613L864 613L867 612L867 610z"/></g><g><path class="class-0 leaflet-clickable" stroke-linejoin="round" stroke-linecap="round" fill-rule="evenodd" stroke="#005540" stroke-opacity="1" stroke-width="0.5" fill="#ddfff6" fill-opacity="0.5" d="M838 439L837 449L842 450L841 452L847 455L842 459L841 462L840 461L840 465L838 464L838 470L844 470L845 479L839 485L846 489L851 487L858 487L862 489L862 494L865 496L873 496L877 493L888 497L890 500L894 499L889 487L894 487L899 495L904 494L905 499L909 498L913 506L917 520L933 520L945 522L949 526L950 524L955 525L969 521L968 524L977 524L977 526L981 527L985 531L989 530L991 533L993 532L993 534L996 535L996 537L1000 537L998 539L999 542L990 549L992 551L990 552L988 561L986 562L987 564L982 562L980 564L977 563L979 567L982 565L984 568L981 567L980 568L983 570L980 571L983 577L985 576L985 579L988 581L988 583L981 590L980 588L978 588L979 590L972 594L975 606L981 609L983 613L982 619L984 620L983 622L971 622L970 624L968 624L969 627L975 630L974 639L968 639L967 641L957 639L958 642L955 643L949 639L944 628L935 631L931 629L929 630L926 626L927 623L930 623L930 618L927 613L926 606L927 601L922 594L919 593L916 599L913 599L914 603L911 606L908 606L907 604L905 605L905 609L902 616L899 614L894 617L887 614L882 609L879 603L876 602L871 602L871 607L867 612L860 612L856 614L853 613L851 609L852 607L842 607L838 601L834 598L833 599L833 596L823 591L808 592L805 599L806 604L796 606L792 609L792 606L790 605L790 607L788 607L782 604L781 602L770 598L772 593L766 592L764 590L765 588L762 588L758 585L751 583L744 585L739 582L737 578L730 579L724 576L718 578L714 577L712 579L711 577L713 576L713 573L719 569L718 567L724 561L725 558L722 558L723 556L725 556L727 547L725 543L727 540L722 534L719 534L721 533L717 527L717 525L722 525L723 517L728 516L731 510L729 500L726 496L722 494L725 490L719 487L712 487L712 491L705 496L705 500L703 499L703 502L697 510L689 510L690 513L687 512L685 515L681 511L682 506L677 505L679 496L671 497L654 483L648 475L644 457L642 457L646 449L644 441L639 439L640 435L643 435L645 431L643 434L639 430L643 426L644 418L648 418L650 426L655 427L686 418L739 371L737 347L751 342L756 324L756 329L762 335L783 314L793 323L790 340L795 340L794 345L792 345L801 349L797 371L798 378L802 383L802 389L807 395L803 402L803 406L805 406L806 411L803 410L801 420L806 426L804 443L818 446L818 443L815 443L814 436L820 436L822 431L829 431L827 437L835 438z"/></g><g><path class="class-1 leaflet-clickable" stroke-linejoin="round" stroke-linecap="round" fill-rule="evenodd" stroke="#005540" stroke-opacity="1" stroke-width="0.5" fill="#7fd" fill-opacity="0.5" d="M775 307L780 317L770 328L762 335L756 329L756 324L751 342L737 347L739 371L726 383L686 418L655 427L650 426L648 418L644 418L643 426L639 430L643 434L644 431L643 434L640 435L639 439L644 441L646 449L642 457L644 457L648 475L654 483L671 497L679 496L677 505L682 506L681 510L685 515L687 512L690 513L689 510L697 510L703 502L703 499L705 500L705 496L712 491L712 487L719 487L724 490L722 494L726 496L730 503L731 510L728 516L723 516L722 525L717 525L717 527L721 533L719 534L722 534L727 540L725 543L727 547L725 556L723 556L722 558L725 558L724 561L720 564L718 567L719 568L713 573L713 576L711 577L712 579L708 579L706 576L705 569L699 569L695 564L688 559L686 560L685 558L678 558L678 556L669 549L663 548L664 545L662 545L666 544L666 537L664 536L663 532L659 530L658 532L652 532L652 526L643 524L643 522L639 519L639 515L637 515L636 522L631 525L623 526L623 530L618 532L605 532L607 540L604 543L605 545L603 547L603 550L597 553L592 561L586 576L588 577L588 580L590 580L591 583L598 588L593 593L595 594L596 600L601 602L602 605L607 606L607 608L609 609L606 615L607 621L604 625L602 625L601 621L599 620L597 627L591 627L592 629L588 630L586 635L584 635L582 638L579 637L579 635L577 635L576 633L574 633L573 635L570 633L567 639L567 645L569 649L568 651L563 653L556 649L554 651L551 650L551 652L549 653L548 652L542 654L536 646L537 645L535 644L529 646L528 644L526 644L523 647L521 646L518 639L515 638L517 635L517 631L512 630L510 632L509 628L511 626L513 627L514 625L519 624L522 626L524 624L527 624L529 621L525 615L520 620L518 616L515 616L514 613L511 613L513 608L512 604L516 602L518 604L521 601L524 602L524 596L528 589L527 583L523 581L527 580L526 578L533 577L536 571L538 569L543 569L549 561L555 564L557 563L557 560L565 559L565 554L561 553L563 550L567 549L568 547L565 545L565 543L570 537L567 535L566 532L557 531L557 533L555 533L559 523L555 520L549 520L542 524L543 533L545 530L547 530L548 531L546 535L548 536L544 536L540 538L540 540L537 539L535 549L529 550L528 548L526 549L524 547L520 551L515 550L512 548L520 533L518 533L516 529L517 527L519 527L521 520L524 519L522 511L518 505L514 507L507 504L501 517L501 523L498 527L499 532L496 544L491 534L492 532L490 528L494 521L496 521L494 518L496 511L495 509L497 506L496 505L505 499L506 490L495 488L493 489L492 487L481 487L478 491L482 495L482 502L485 502L484 505L486 507L483 508L489 511L490 514L484 520L483 524L479 523L478 525L475 525L475 523L477 523L476 522L479 515L477 508L474 508L471 511L466 510L465 512L467 515L465 516L468 517L469 522L465 519L462 520L459 527L457 527L457 525L452 522L452 520L455 518L457 514L454 508L459 502L459 498L457 495L459 493L458 491L460 490L459 488L464 484L467 486L475 484L473 477L474 473L468 464L468 449L472 444L473 431L476 420L481 413L494 404L497 398L501 401L502 399L503 395L497 395L498 392L496 387L500 383L499 378L497 376L500 366L497 364L498 360L501 360L511 350L515 348L517 352L518 351L524 343L523 334L528 334L531 331L533 331L537 320L550 320L552 318L554 321L560 319L566 323L567 319L568 320L571 316L576 319L578 317L584 320L585 317L590 324L594 322L597 325L605 325L611 322L617 322L618 320L622 320L621 301L614 272L604 268L604 265L607 265L608 262L605 256L625 263L624 251L639 250L679 261L686 275L694 279L697 277L702 279L701 284L698 283L700 287L715 289L720 284L726 281L728 283L737 285L745 300L749 304L761 308L766 304L767 306L774 308z"/></g><g><path class="class-0 leaflet-clickable" stroke-linejoin="round" stroke-linecap="round" fill-rule="evenodd" stroke="#005540" stroke-opacity="1" stroke-width="0.5" fill="#ddfff6" fill-opacity="0.5" d="M598 588L608 583L611 586L615 586L629 594L638 597L639 594L645 594L646 590L652 590L657 582L659 582L662 575L677 569L680 570L681 566L677 566L675 564L678 561L678 558L685 558L686 560L688 559L695 564L698 569L705 569L706 576L710 580L704 583L704 586L706 586L703 596L704 597L701 601L702 603L698 607L704 615L704 617L695 620L698 624L698 629L687 633L685 643L684 642L681 645L681 649L677 649L671 665L658 675L659 677L657 679L660 681L660 684L663 684L662 685L664 686L664 691L670 694L669 701L665 703L657 718L651 719L650 721L643 723L639 721L632 724L626 722L623 723L614 730L610 729L608 734L604 733L604 739L599 739L595 742L592 742L593 743L591 745L587 740L580 739L580 741L582 742L580 743L572 742L572 752L570 757L573 759L578 756L584 759L585 758L594 760L599 765L598.6666666666666 769L356.6666666666667 769L355 767L343 746L342 733L333 725L329 716L331 716L339 709L356 706L359 707L366 704L371 696L370 692L367 690L369 689L371 683L375 680L377 681L377 676L381 669L388 665L390 667L396 667L397 665L402 663L408 656L418 658L417 660L424 665L433 666L438 672L438 674L448 680L449 683L458 689L459 696L461 696L460 692L462 691L462 686L458 679L457 681L454 678L449 679L452 677L451 674L457 673L457 669L459 669L465 663L462 661L462 654L465 646L463 644L465 640L476 640L482 638L482 636L486 633L491 636L496 634L498 635L506 625L506 617L509 617L504 609L502 611L500 610L496 607L497 605L491 601L492 598L490 596L494 590L490 586L491 583L472 581L466 575L468 563L464 562L461 564L458 562L458 560L454 563L451 563L450 558L451 544L453 542L454 536L458 531L457 527L460 526L462 520L465 519L468 522L468 517L465 516L467 515L465 512L466 510L473 511L474 508L477 508L479 515L476 522L477 523L475 523L475 525L478 525L479 523L483 524L483 520L490 514L489 511L483 508L486 507L484 505L485 502L482 502L482 495L478 491L481 487L492 487L493 489L500 488L506 490L505 499L496 505L496 514L494 516L496 520L494 521L490 528L492 532L491 534L496 544L499 532L498 528L501 523L501 517L505 506L509 504L514 507L518 505L520 506L524 519L522 520L519 527L517 527L516 529L518 533L520 533L512 548L515 550L520 551L524 547L526 549L528 548L528 550L535 549L537 539L540 540L540 538L548 536L546 535L548 531L547 530L545 530L543 533L542 524L549 520L555 520L559 523L555 533L557 533L557 531L566 532L567 535L570 537L565 542L565 545L568 547L567 549L563 550L561 553L565 554L565 559L557 560L557 563L555 564L549 561L543 569L536 571L533 577L526 578L527 580L523 581L528 586L528 589L524 596L524 602L521 601L519 604L517 602L512 604L513 608L511 613L514 613L515 616L518 616L520 620L525 615L529 621L527 624L524 624L522 626L520 624L514 625L514 627L511 626L509 628L510 632L512 630L517 631L517 635L515 638L518 639L521 646L523 647L528 644L529 646L535 644L537 645L536 646L542 654L548 652L549 653L551 652L551 650L554 651L556 649L563 653L568 651L569 649L566 645L568 643L567 640L570 633L573 635L574 633L576 633L577 635L579 635L579 637L582 638L590 629L592 629L591 627L597 627L599 620L601 621L602 625L604 625L607 622L606 615L609 609L607 608L607 606L602 605L602 602L596 600L595 595L593 593L596 591z"/></g></svg>