<svg xmlns="http://www.w3.org/2000/svg" class="leaflet-zoom-animated" width="2000" height="854" viewBox="-327 -140 2000 854" style="transform: translate3d(-327px, -140px, 0px);"><g><path class="class-3 leaflet-clickable" stroke-linejoin="round" stroke-linecap="round" fill-rule="evenodd" stroke="#005540" stroke-opacity="1" stroke-width="0.5" fill="#086" fill-opacity="0.5" d="M902 470L905 473L906 472L906 474L910 476L909 477L914 481L919 483L920 488L926 491L925 498L896 498L885 518L888 522L885 527L886 531L884 535L856 507L848 501L843 500L841 496L843 495L843 492L841 489L847 473L855 466L855 464L859 460L858 458L861 453L864 455L864 457L866 457L865 459L868 465L869 464L871 466L870 467L871 466L873 468L877 463L882 462L881 461L887 458L887 456L890 454L893 455L893 459L897 460L897 466L902 467L903 470z"/></g><g><path class="class-3 leaflet-clickable" stroke-linejoin="round" stroke-linecap="round" fill-rule="evenodd" stroke="#005540" stroke-opacity="1" stroke-width="0.5" fill="#086" fill-opacity="0.5" d="M719 435L723 441L727 441L729 446L734 450L733 451L736 452L734 452L737 454L743 454L742 460L746 464L746 471L747 470L748 473L752 475L751 480L748 484L749 485L745 487L744 491L740 493L735 487L733 488L723 484L715 484L707 478L683 470L684 469L679 465L675 464L666 455L658 452L659 448L665 445L665 439L667 438L671 438L671 440L673 441L689 441L691 443L692 442L692 444L693 441L691 441L690 439L689 432L692 433L694 431L697 434L696 437L701 444L707 438L711 438L715 434L718 436z"/></g><g><path class="class-3 leaflet-clickable" stroke-linejoin="round" stroke-linecap="round" fill-rule="evenodd" stroke="#005540" stroke-opacity="1" stroke-width="0.5" fill="#086" fill-opacity="0.5" d="M847 473L841 489L843 492L842 496L844 500L838 497L828 495L816 496L811 501L807 501L797 506L796 505L793 508L784 508L775 505L772 502L758 501L748 494L741 493L745 490L744 487L749 485L748 484L751 481L751 477L753 475L748 474L747 470L746 471L746 464L742 460L743 456L747 454L748 455L750 453L754 453L757 455L759 452L758 451L757 453L756 448L761 445L763 452L770 448L775 449L782 443L783 437L789 440L794 449L802 449L803 454L801 459L805 463L808 464L814 459L816 459L817 460L815 462L819 467L824 470L823 471L842 473z"/></g><g><path class="class-3 leaflet-clickable" stroke-linejoin="round" stroke-linecap="round" fill-rule="evenodd" stroke="#005540" stroke-opacity="1" stroke-width="0.5" fill="#086" fill-opacity="0.5" d="M566 371L565 371z"/></g><g><path class="class-3 leaflet-clickable" stroke-linejoin="round" stroke-linecap="round" fill-rule="evenodd" stroke="#005540" stroke-opacity="1" stroke-width="0.5" fill="#086" fill-opacity="0.5" d="M561 368L563 369L562 370L560 368z"/></g><g><path class="class-3 leaflet-clickable" stroke-linejoin="round" stroke-linecap="round" fill-rule="evenodd" stroke="#005540" stroke-opacity="1" stroke-width="0.5" fill="#086" fill-opacity="0.5" d="M556 363L558 363L559 366L557 366L556 364z"/></g><g><path class="class-3 leaflet-clickable" stroke-linejoin="round" stroke-linecap="round" fill-rule="evenodd" stroke="#005540" stroke-opacity="1" stroke-width="0.5" fill="#086" fill-opacity="0.5" d="M556 361L555 362z"/></g><g><path class="class-3 leaflet-clickable" stroke-linejoin="round" stroke-linecap="round" fill-rule="evenodd" stroke="#005540" stroke-opacity="1" stroke-width="0.5" fill="#086" fill-opacity="0.5" d="M608 346L610 347L608 356L612 356L613 360L617 361L619 363L618 366L623 370L620 373L621 374L611 376L612 381L608 385L611 387L611 389L600 380L591 382L588 388L586 386L581 386L589 376L589 367L588 368L583 364L579 356L579 349L576 343L577 342L577 344L579 341L584 343L582 339L582 333L585 329L586 332L594 332L593 333L596 337L592 339L594 343L598 340L603 344L604 347L608 345z"/></g><g><path class="class-3 leaflet-clickable" stroke-linejoin="round" stroke-linecap="round" fill-rule="evenodd" stroke="#005540" stroke-opacity="1" stroke-width="0.5" fill="#086" fill-opacity="0.5" d="M689 292L691 295L686 299L684 297L683 301L681 302L680 308L675 313L667 320L662 322L659 322L657 320L655 323L657 323L655 325L659 336L663 340L665 339L665 342L667 344L670 343L674 337L677 338L676 339L678 343L676 344L675 348L677 350L677 355L674 359L673 360L672 358L665 355L661 352L661 348L660 349L655 345L653 347L647 348L647 352L642 359L645 363L645 366L648 368L647 371L645 371L641 375L638 374L638 378L636 379L632 379L625 376L623 372L627 371L627 369L623 369L623 367L627 365L628 362L626 360L636 355L638 350L636 348L635 349L633 345L631 347L632 350L630 350L629 353L623 352L626 349L626 344L625 342L623 342L621 343L620 351L618 347L620 343L619 342L622 341L622 339L619 337L615 338L618 343L615 347L615 343L613 343L611 347L609 346L610 338L614 336L612 331L615 319L620 315L621 316L620 306L624 302L626 302L626 299L628 299L630 295L642 295L645 297L650 296L651 291L647 283L647 280L652 281L651 278L660 279L665 281L667 284L671 285L670 286L672 288L678 286L681 288L682 291L686 293L689 292z"/></g><g><path class="class-3 leaflet-clickable" stroke-linejoin="round" stroke-linecap="round" fill-rule="evenodd" stroke="#005540" stroke-opacity="1" stroke-width="0.5" fill="#086" fill-opacity="0.5" d="M782 443L778 447L773 449L770 448L765 452L763 452L761 446L757 446L757 453L759 451L760 452L758 452L755 455L753 453L749 453L749 455L744 456L743 453L739 454L729 446L729 444L732 441L737 442L736 434L739 428L738 417L740 417L749 426L752 423L755 425L757 422L761 421L758 417L755 416L756 415L754 413L752 413L752 411L747 412L748 411L746 408L751 401L749 398L746 398L749 397L755 390L756 384L759 385L759 389L763 392L758 395L760 397L759 400L763 402L766 398L772 401L766 416L768 418L767 419L776 422L774 424L775 425L771 424L768 437L769 436L774 441L778 439L782 443z"/></g><g><path class="class-2 leaflet-clickable" stroke-linejoin="round" stroke-linecap="round" fill-rule="evenodd" stroke="#005540" stroke-opacity="1" stroke-width="0.5" fill="#00cc99" fill-opacity="0.5" d="M623 238L631 241L633 249L631 252L632 261L628 268L632 272L629 272L628 275L634 281L633 282L640 287L642 287L647 279L651 294L650 296L647 297L643 297L642 295L632 295L620 306L621 315L619 315L619 317L616 319L613 326L612 331L614 336L610 337L610 344L605 347L601 342L599 342L599 340L597 340L595 343L593 341L592 339L596 337L593 333L594 332L586 332L584 328L581 329L579 327L577 322L578 321L575 316L573 317L572 308L574 309L572 307L571 302L566 297L563 297L563 299L559 299L555 289L545 280L543 271L545 269L544 268L549 265L548 264L551 267L555 267L560 263L558 264L558 258L561 257L560 254L565 246L567 236L568 237L570 234L572 237L573 236L576 239L577 238L583 243L591 243L592 245L598 243L603 247L611 235L615 237L620 237z"/></g><g><path class="class-2 leaflet-clickable" stroke-linejoin="round" stroke-linecap="round" fill-rule="evenodd" stroke="#005540" stroke-opacity="1" stroke-width="0.5" fill="#00cc99" fill-opacity="0.5" d="M705 325L707 329L705 331L707 335L705 337L710 337L718 341L719 337L727 346L740 346L746 350L740 357L742 357L742 361L738 365L741 368L741 370L737 372L739 372L738 376L734 376L731 372L728 373L726 364L721 370L719 370L715 366L713 366L713 368L710 369L701 363L699 363L697 367L693 368L689 366L686 362L673 360L677 355L677 351L675 348L678 344L676 339L677 338L674 337L672 341L671 340L670 343L667 344L665 342L665 339L663 340L658 335L656 330L657 328L655 325L657 323L655 323L657 320L659 322L667 320L680 308L680 302L683 301L684 296L686 299L691 295L694 296L693 301L696 303L696 326L699 327L699 324L700 325L701 323L703 323L702 325L704 325z"/></g><g><path class="class-2 leaflet-clickable" stroke-linejoin="round" stroke-linecap="round" fill-rule="evenodd" stroke="#005540" stroke-opacity="1" stroke-width="0.5" fill="#00cc99" fill-opacity="0.5" d="M753 392L749 397L746 398L750 399L750 401L746 407L748 410L745 411L746 412L744 414L738 414L739 409L736 407L732 407L731 409L730 406L732 404L730 403L730 405L727 404L725 408L723 408L722 410L722 408L719 405L719 400L716 401L711 398L711 391L716 390L718 388L722 379L721 378L729 376L731 372L732 375L738 376L738 372L742 370L741 373L744 376L747 375L746 376L748 376L750 379L747 383L748 385L743 384L740 388L742 387L740 396L745 395L751 389L753 391z"/></g><g><path class="class-2 leaflet-clickable" stroke-linejoin="round" stroke-linecap="round" fill-rule="evenodd" stroke="#005540" stroke-opacity="1" stroke-width="0.5" fill="#00cc99" fill-opacity="0.5" d="M913 457L913 470L902 470L903 467L897 465L898 462L894 459L894 455L890 455L883 460L882 459L882 461L880 463L876 463L876 465L873 468L871 466L870 467L871 466L869 464L867 464L865 459L866 456L864 456L865 455L862 453L859 454L859 460L855 464L853 469L851 467L853 463L851 463L847 458L842 456L843 452L841 448L857 442L870 442L873 440L873 438L878 437L881 442L885 442L886 449L889 450L890 452L898 456L898 450L901 448L901 450L907 453L913 453L913 455z"/></g><g><path class="class-2 leaflet-clickable" stroke-linejoin="round" stroke-linecap="round" fill-rule="evenodd" stroke="#005540" stroke-opacity="1" stroke-width="0.5" fill="#00cc99" fill-opacity="0.5" d="M926 384L926 391L930 391L931 394L934 393L939 397L938 398L944 404L947 412L954 418L954 457L913 457L913 453L903 451L900 449L901 448L898 451L898 455L886 449L886 444L882 442L879 438L882 436L890 436L893 438L910 428L919 420L919 412L925 405L924 391L926 384z"/></g><g><path class="class-1 leaflet-clickable" stroke-linejoin="round" stroke-linecap="round" fill-rule="evenodd" stroke="#005540" stroke-opacity="1" stroke-width="0.5" fill="#7fd" fill-opacity="0.5" d="M758 349L760 357L768 366L766 372L767 378L774 392L781 398L788 407L791 419L796 424L796 426L799 427L801 432L806 435L815 435L825 440L832 449L841 447L842 456L850 460L852 463L852 470L850 470L847 473L823 472L824 470L819 467L815 462L817 460L816 459L814 459L808 464L805 464L801 459L803 454L802 449L794 449L795 448L794 449L792 447L787 438L783 437L782 444L780 440L776 439L774 441L771 437L768 436L770 431L769 428L776 422L767 419L768 418L766 416L766 414L769 411L769 407L773 401L766 398L763 402L759 400L760 397L758 395L759 393L760 394L763 392L760 391L758 384L756 384L755 390L753 391L751 388L750 391L745 395L740 396L741 395L739 392L742 390L743 387L741 388L745 383L745 385L747 385L748 380L750 378L746 376L747 375L744 376L741 373L742 370L741 371L738 365L743 361L740 356L742 357L743 353L746 350L738 346L744 346L747 344L753 347L756 351L757 349z"/></g><g><path class="class-1 leaflet-clickable" stroke-linejoin="round" stroke-linecap="round" fill-rule="evenodd" stroke="#005540" stroke-opacity="1" stroke-width="0.5" fill="#7fd" fill-opacity="0.5" d="M995 443L996 440L996 442z"/></g><g><path class="class-1 leaflet-clickable" stroke-linejoin="round" stroke-linecap="round" fill-rule="evenodd" stroke="#005540" stroke-opacity="1" stroke-width="0.5" fill="#7fd" fill-opacity="0.5" d="M997 435L997 437L997 435z"/></g><g><path class="class-1 leaflet-clickable" stroke-linejoin="round" stroke-linecap="round" fill-rule="evenodd" stroke="#005540" stroke-opacity="1" stroke-width="0.5" fill="#7fd" fill-opacity="0.5" d="M1009 391L1003 398L1003 394L1005 391L1010 390z"/></g><g><path class="class-1 leaflet-clickable" stroke-linejoin="round" stroke-linecap="round" fill-rule="evenodd" stroke="#005540" stroke-opacity="1" stroke-width="0.5" fill="#7fd" fill-opacity="0.5" d="M954 454L953 450L955 449L955 425L954 418L951 415L954 413L955 414L955 412L957 412L957 410L962 407L962 405L965 404L966 401L969 401L971 398L977 397L981 394L988 386L991 380L991 368L998 370L1001 369L1002 366L1007 373L1007 370L1008 371L1008 379L1005 385L993 399L993 409L992 410L993 406L992 409L986 412L988 416L993 413L994 414L993 418L988 420L988 424L991 421L993 421L991 423L983 449L980 449L980 443L975 443L975 441L969 441L967 447L964 449L961 455L957 452L955 454z"/></g><g><path class="class-1 leaflet-clickable" stroke-linejoin="round" stroke-linecap="round" fill-rule="evenodd" stroke="#005540" stroke-opacity="1" stroke-width="0.5" fill="#7fd" fill-opacity="0.5" d="M1001 365L999 367L994 368L996 366L1000 366z"/></g><g><path class="class-1 leaflet-clickable" stroke-linejoin="round" stroke-linecap="round" fill-rule="evenodd" stroke="#005540" stroke-opacity="1" stroke-width="0.5" fill="#7fd" fill-opacity="0.5" d="M738 417L737 414L743 414L746 412L745 411L751 411L756 415L756 417L758 417L761 420L760 422L757 421L755 424L752 423L749 426L742 420L741 417L739 418z"/></g><g><path class="class-1 leaflet-clickable" stroke-linejoin="round" stroke-linecap="round" fill-rule="evenodd" stroke="#005540" stroke-opacity="1" stroke-width="0.5" fill="#7fd" fill-opacity="0.5" d="M699 397L703 399L702 401L705 404L704 405L706 408L704 408L702 412L703 419L700 420L698 426L692 433L689 432L690 439L693 441L693 444L689 441L686 442L684 440L678 439L674 441L668 438L665 439L664 441L665 446L658 449L658 455L628 445L622 436L628 429L633 428L636 430L639 427L639 425L640 426L640 424L645 422L646 423L648 421L649 417L645 417L646 415L643 410L645 408L644 406L638 405L638 402L641 401L640 400L645 401L651 396L658 395L662 395L661 396L663 396L665 400L669 400L670 397L674 396L674 398L677 399L675 399L675 402L677 404L681 404L681 402L683 402L686 406L696 406L699 405L698 402L700 398z"/></g><g><path class="class-1 leaflet-clickable" stroke-linejoin="round" stroke-linecap="round" fill-rule="evenodd" stroke="#005540" stroke-opacity="1" stroke-width="0.5" fill="#7fd" fill-opacity="0.5" d="M665 355L664 356L666 358L661 359L657 364L653 364L647 361L644 362L642 360L647 352L647 348L653 347L655 345L659 347L658 348L661 348L661 352L665 355z"/></g><g><path class="class-1 leaflet-clickable" stroke-linejoin="round" stroke-linecap="round" fill-rule="evenodd" stroke="#005540" stroke-opacity="1" stroke-width="0.5" fill="#7fd" fill-opacity="0.5" d="M729 373L728 376L724 378L723 376L718 386L719 388L711 391L711 398L709 397L709 402L705 404L702 401L702 398L700 398L696 394L694 385L697 382L705 382L706 379L707 380L707 375L713 375L715 373L712 372L714 366L721 370L726 364L728 373z"/></g><g><path class="class-1 leaflet-clickable" stroke-linejoin="round" stroke-linecap="round" fill-rule="evenodd" stroke="#005540" stroke-opacity="1" stroke-width="0.5" fill="#7fd" fill-opacity="0.5" d="M645 362L647 361L655 365L665 358L666 357L664 357L666 355L668 355L673 361L671 361L672 362L670 367L672 370L670 370L670 372L667 374L667 376L660 385L663 388L660 394L658 396L652 396L643 402L642 400L638 402L638 405L640 404L645 407L645 409L643 410L646 415L645 416L650 417L647 423L645 422L641 424L636 430L634 428L628 429L628 421L624 416L620 419L615 416L613 421L606 423L605 422L602 425L598 423L598 421L597 422L594 420L592 415L590 415L582 404L578 394L586 392L588 390L587 388L589 385L590 386L592 382L597 380L604 382L611 390L610 385L608 385L612 381L611 376L621 374L620 373L623 370L618 365L619 363L617 361L613 361L612 357L608 355L610 347L612 345L613 346L612 343L615 344L614 347L618 344L615 339L616 337L622 339L622 341L619 342L620 343L618 347L620 351L620 347L623 341L626 343L623 352L624 353L628 353L630 350L632 350L631 347L633 345L635 347L634 348L638 350L636 356L632 356L628 360L626 360L628 362L627 365L623 367L623 369L627 369L628 371L623 373L625 373L626 377L636 379L638 374L641 375L645 371L646 372L648 368L644 365L645 363z"/></g><g><path class="class-1 leaflet-clickable" stroke-linejoin="round" stroke-linecap="round" fill-rule="evenodd" stroke="#005540" stroke-opacity="1" stroke-width="0.5" fill="#7fd" fill-opacity="0.5" d="M713 368L712 371L713 373L715 373L711 376L707 375L708 376L706 382L697 382L694 385L696 393L700 398L698 402L699 405L686 406L683 402L681 402L681 404L677 404L675 402L675 400L677 399L674 398L674 396L672 396L669 399L663 399L663 397L660 394L663 391L660 384L663 382L667 374L670 373L669 370L671 370L670 367L672 363L671 362L673 360L679 360L681 362L683 361L691 367L697 367L698 363L700 363L710 369L712 368z"/></g><g><path class="class-1 leaflet-clickable" stroke-linejoin="round" stroke-linecap="round" fill-rule="evenodd" stroke="#005540" stroke-opacity="1" stroke-width="0.5" fill="#7fd" fill-opacity="0.5" d="M372 444L372 444z"/></g><g><path class="class-1 leaflet-clickable" stroke-linejoin="round" stroke-linecap="round" fill-rule="evenodd" stroke="#005540" stroke-opacity="1" stroke-width="0.5" fill="#7fd" fill-opacity="0.5" d="M457 432L459 434L458 435L456 433L457 432z"/></g><g><path class="class-1 leaflet-clickable" stroke-linejoin="round" stroke-linecap="round" fill-rule="evenodd" stroke="#005540" stroke-opacity="1" stroke-width="0.5" fill="#7fd" fill-opacity="0.5" d="M628 429L622 436L608 426L601 424L602 425L605 422L606 423L614 421L613 420L615 416L620 419L624 416L628 420L628 429z"/></g><g><path class="class-1 leaflet-clickable" stroke-linejoin="round" stroke-linecap="round" fill-rule="evenodd" stroke="#005540" stroke-opacity="1" stroke-width="0.5" fill="#7fd" fill-opacity="0.5" d="M461 422L461 421z"/></g><g><path class="class-0 leaflet-clickable" stroke-linejoin="round" stroke-linecap="round" fill-rule="evenodd" stroke="#005540" stroke-opacity="1" stroke-width="0.5" fill="#ddfff6" fill-opacity="0.5" d="M353 197L352 197z"/></g><g><path class="class-0 leaflet-clickable" stroke-linejoin="round" stroke-linecap="round" fill-rule="evenodd" stroke="#005540" stroke-opacity="1" stroke-width="0.5" fill="#ddfff6" fill-opacity="0.5" d="M361 195L363 201L362 204L358 202L361 199L361 196z"/></g><g><path class="class-0 leaflet-clickable" stroke-linejoin="round" stroke-linecap="round" fill-rule="evenodd" stroke="#005540" stroke-opacity="1" stroke-width="0.5" fill="#ddfff6" fill-opacity="0.5" d="M414 187L417 189L416 190L415 188z"/></g><g><path class="class-0 leaflet-clickable" stroke-linejoin="round" stroke-linecap="round" fill-rule="evenodd" stroke="#005540" stroke-opacity="1" stroke-width="0.5" fill="#ddfff6" fill-opacity="0.5" d="M400 176L400 177z"/></g><g><path class="class-0 leaflet-clickable" stroke-linejoin="round" stroke-linecap="round" fill-rule="evenodd" stroke="#005540" stroke-opacity="1" stroke-width="0.5" fill="#ddfff6" fill-opacity="0.5" d="M400 165L403 167L403 170L405 172L408 171L408 179L398 168L399 165z"/></g><g><path class="class-0 leaflet-clickable" stroke-linejoin="round" stroke-linecap="round" fill-rule="evenodd" stroke="#005540" stroke-opacity="1" stroke-width="0.5" fill="#ddfff6" fill-opacity="0.5" d="M290 174L292 177L291 182L289 177L290 174z"/></g><g><path class="class-0 leaflet-clickable" stroke-linejoin="round" stroke-linecap="round" fill-rule="evenodd" stroke="#005540" stroke-opacity="1" stroke-width="0.5" fill="#ddfff6" fill-opacity="0.5" d="M379 153L379 154z"/></g><g><path class="class-0 leaflet-clickable" stroke-linejoin="round" stroke-linecap="round" fill-rule="evenodd" stroke="#005540" stroke-opacity="1" stroke-width="0.5" fill="#ddfff6" fill-opacity="0.5" d="M372 112L372 112z"/></g><g><path class="class-0 leaflet-clickable" stroke-linejoin="round" stroke-linecap="round" fill-rule="evenodd" stroke="#005540" stroke-opacity="1" stroke-width="0.5" fill="#ddfff6" fill-opacity="0.5" d="M372 105L374 107L373 108L371 108L371 105z"/></g><g><path class="class-0 leaflet-clickable" stroke-linejoin="round" stroke-linecap="round" fill-rule="evenodd" stroke="#005540" stroke-opacity="1" stroke-width="0.5" fill="#ddfff6" fill-opacity="0.5" d="M370 86L367 88L365 93L367 95L367 102L370 103L371 105L371 110L369 113L369 123L373 129L373 137L375 142L374 149L380 157L380 159L383 159L397 172L400 182L402 180L404 184L407 184L409 191L415 195L414 197L416 199L416 205L384 205L387 201L386 198L388 194L386 190L381 186L381 184L378 181L376 181L375 177L372 176L372 174L350 159L351 157L348 153L348 146L342 140L343 134L337 127L336 128L335 119L328 112L329 109L327 106L328 107L329 104L323 99L323 96L318 88L318 85L372 80L370 86z"/></g><g><path class="class-0 leaflet-clickable" stroke-linejoin="round" stroke-linecap="round" fill-rule="evenodd" stroke="#005540" stroke-opacity="1" stroke-width="0.5" fill="#ddfff6" fill-opacity="0.5" d="M711 398L716 401L719 400L719 407L722 409L721 410L725 407L725 405L730 405L730 403L731 409L733 407L736 407L739 410L737 414L739 418L739 428L734 430L731 427L731 421L729 419L728 414L722 421L724 425L723 430L720 431L721 433L718 436L714 434L715 435L713 435L711 438L707 438L701 444L697 439L698 438L696 437L697 434L694 431L703 418L701 412L704 411L704 403L708 403L708 399L710 398z"/></g><g><path class="class-0 leaflet-clickable" stroke-linejoin="round" stroke-linecap="round" fill-rule="evenodd" stroke="#005540" stroke-opacity="1" stroke-width="0.5" fill="#ddfff6" fill-opacity="0.5" d="M731 427L734 430L738 428L736 434L737 441L736 442L734 440L729 444L723 441L719 436L724 425L731 427z"/></g><g><path class="class-0 leaflet-clickable" stroke-linejoin="round" stroke-linecap="round" fill-rule="evenodd" stroke="#005540" stroke-opacity="1" stroke-width="0.5" fill="#ddfff6" fill-opacity="0.5" d="M497 248L501 248L506 244L507 241L511 239L515 229L521 230L520 233L522 233L525 236L525 245L531 253L540 253L542 256L541 258L547 262L547 264L549 264L546 267L544 267L545 270L543 271L545 275L545 280L547 280L550 286L555 289L558 295L557 296L560 299L563 299L563 297L569 299L571 305L574 308L572 308L573 316L576 317L578 321L577 322L579 324L579 328L585 329L582 333L582 340L583 339L584 342L583 343L579 341L578 344L560 325L559 321L553 315L548 307L530 294L514 274L501 269L498 265L494 265L492 257L497 248z"/></g><g><path class="class-0 leaflet-clickable" stroke-linejoin="round" stroke-linecap="round" fill-rule="evenodd" stroke="#005540" stroke-opacity="1" stroke-width="0.5" fill="#ddfff6" fill-opacity="0.5" d="M711 211L714 213L709 216L709 218L713 219L715 228L713 233L717 234L715 238L721 241L720 247L724 250L726 249L727 255L730 253L732 257L734 255L740 255L740 269L743 269L733 279L729 278L726 281L726 287L723 286L719 288L718 291L714 292L714 294L716 294L717 296L715 303L720 309L717 312L711 312L708 317L709 322L706 321L704 323L706 323L705 325L702 325L703 323L701 323L700 325L699 324L700 327L697 326L697 313L695 310L696 304L693 302L694 297L689 292L689 285L691 283L689 282L689 277L691 275L702 276L702 274L698 273L693 268L695 268L690 265L687 254L680 247L690 237L692 240L693 239L695 235L695 229L689 229L688 226L692 222L698 220L699 213L703 210L707 214L709 213z"/></g><g><path class="class-0 leaflet-clickable" stroke-linejoin="round" stroke-linecap="round" fill-rule="evenodd" stroke="#005540" stroke-opacity="1" stroke-width="0.5" fill="#ddfff6" fill-opacity="0.5" d="M991 368L991 380L988 386L977 398L971 398L965 404L963 404L962 407L960 407L961 408L955 414L954 413L951 415L948 413L944 407L944 404L941 400L939 400L935 393L932 394L927 391L926 384L928 379L938 374L964 370L968 367L973 367L976 365L991 368z"/></g><g><path class="class-0 leaflet-clickable" stroke-linejoin="round" stroke-linecap="round" fill-rule="evenodd" stroke="#005540" stroke-opacity="1" stroke-width="0.5" fill="#ddfff6" fill-opacity="0.5" d="M941 341L944 342L945 344L943 346L940 343L941 341z"/></g><g><path class="class-0 leaflet-clickable" stroke-linejoin="round" stroke-linecap="round" fill-rule="evenodd" stroke="#005540" stroke-opacity="1" stroke-width="0.5" fill="#ddfff6" fill-opacity="0.5" d="M711 211L707 215L703 210L699 213L698 220L692 222L688 226L689 229L695 229L695 235L693 239L692 240L690 237L680 247L689 258L688 261L692 267L695 268L693 268L697 271L697 273L702 273L702 276L691 275L689 277L689 281L691 283L689 285L688 292L686 293L678 286L672 288L670 286L671 285L657 278L651 278L652 281L647 279L642 288L633 282L634 281L628 275L628 273L630 271L631 272L628 268L632 262L631 252L633 249L631 241L623 238L623 236L620 233L622 230L618 210L619 209L617 209L617 206L619 206L619 203L625 192L624 191L632 179L636 180L637 177L641 173L642 174L641 172L643 170L644 164L648 159L652 159L655 156L666 159L674 158L676 162L678 162L678 164L679 163L679 165L692 176L696 188L700 193L699 194L711 210z"/></g><g><path class="class-0 leaflet-clickable" stroke-linejoin="round" stroke-linecap="round" fill-rule="evenodd" stroke="#005540" stroke-opacity="1" stroke-width="0.5" fill="#ddfff6" fill-opacity="0.5" d="M758 349L756 351L748 344L746 344L745 346L738 345L736 347L729 345L727 346L719 337L718 341L715 339L711 339L710 337L705 337L707 335L705 332L707 330L705 328L706 323L704 323L706 321L709 322L708 317L711 312L717 312L719 309L719 307L715 303L717 296L714 294L714 292L718 291L719 288L723 286L725 287L727 283L726 281L729 278L732 279L743 270L740 269L740 255L734 255L732 257L730 253L727 255L726 249L724 250L720 247L721 241L715 239L717 234L713 233L715 229L713 219L709 218L709 216L714 213L718 216L720 230L724 234L728 246L730 245L732 247L737 248L737 250L743 250L748 255L761 255L766 260L768 259L767 258L772 257L772 263L765 276L760 294L758 336L756 339L757 348z"/></g><g><path class="class-0 leaflet-clickable" stroke-linejoin="round" stroke-linecap="round" fill-rule="evenodd" stroke="#005540" stroke-opacity="1" stroke-width="0.5" fill="#ddfff6" fill-opacity="0.5" d="M731 427L727 427L722 423L727 414L731 421L731 426z"/></g><g><path class="class-1 leaflet-clickable" stroke-linejoin="round" stroke-linecap="round" fill-rule="evenodd" stroke="#005540" stroke-opacity="1" stroke-width="0.5" fill="#7fd" fill-opacity="0.5" d="M484 302L482 302L482 297L484 301z"/></g><g><path class="class-1 leaflet-clickable" stroke-linejoin="round" stroke-linecap="round" fill-rule="evenodd" stroke="#005540" stroke-opacity="1" stroke-width="0.5" fill="#7fd" fill-opacity="0.5" d="M472 293L472 296L471 293z"/></g><g><path class="class-1 leaflet-clickable" stroke-linejoin="round" stroke-linecap="round" fill-rule="evenodd" stroke="#005540" stroke-opacity="1" stroke-width="0.5" fill="#7fd" fill-opacity="0.5" d="M471 291L471 292z"/></g><g><path class="class-1 leaflet-clickable" stroke-linejoin="round" stroke-linecap="round" fill-rule="evenodd" stroke="#005540" stroke-opacity="1" stroke-width="0.5" fill="#7fd" fill-opacity="0.5" d="M464 279L467 281L468 284L464 280z"/></g><g><path class="class-1 leaflet-clickable" stroke-linejoin="round" stroke-linecap="round" fill-rule="evenodd" stroke="#005540" stroke-opacity="1" stroke-width="0.5" fill="#7fd" fill-opacity="0.5" d="M464 273L463 275L464 273z"/></g><g><path class="class-1 leaflet-clickable" stroke-linejoin="round" stroke-linecap="round" fill-rule="evenodd" stroke="#005540" stroke-opacity="1" stroke-width="0.5" fill="#7fd" fill-opacity="0.5" d="M462 263L463 266L462 264z"/></g><g><path class="class-1 leaflet-clickable" stroke-linejoin="round" stroke-linecap="round" fill-rule="evenodd" stroke="#005540" stroke-opacity="1" stroke-width="0.5" fill="#7fd" fill-opacity="0.5" d="M456 263L456 265L456 263z"/></g><g><path class="class-1 leaflet-clickable" stroke-linejoin="round" stroke-linecap="round" fill-rule="evenodd" stroke="#005540" stroke-opacity="1" stroke-width="0.5" fill="#7fd" fill-opacity="0.5" d="M456 254L456 256L454 256L452 260L453 261L452 258L453 255L455 255z"/></g><g><path class="class-1 leaflet-clickable" stroke-linejoin="round" stroke-linecap="round" fill-rule="evenodd" stroke="#005540" stroke-opacity="1" stroke-width="0.5" fill="#7fd" fill-opacity="0.5" d="M451 252L451 252z"/></g><g><path class="class-1 leaflet-clickable" stroke-linejoin="round" stroke-linecap="round" fill-rule="evenodd" stroke="#005540" stroke-opacity="1" stroke-width="0.5" fill="#7fd" fill-opacity="0.5" d="M433 224L433 226L432 224z"/></g><g><path class="class-1 leaflet-clickable" stroke-linejoin="round" stroke-linecap="round" fill-rule="evenodd" stroke="#005540" stroke-opacity="1" stroke-width="0.5" fill="#7fd" fill-opacity="0.5" d="M436 219L435 219z"/></g><g><path class="class-1 leaflet-clickable" stroke-linejoin="round" stroke-linecap="round" fill-rule="evenodd" stroke="#005540" stroke-opacity="1" stroke-width="0.5" fill="#7fd" fill-opacity="0.5" d="M362 208L362 208z"/></g><g><path class="class-1 leaflet-clickable" stroke-linejoin="round" stroke-linecap="round" fill-rule="evenodd" stroke="#005540" stroke-opacity="1" stroke-width="0.5" fill="#7fd" fill-opacity="0.5" d="M384 205L417 205L419 212L427 218L430 224L429 225L436 229L434 230L434 232L436 234L438 233L441 235L444 241L447 243L446 244L450 254L450 262L455 268L457 268L458 274L465 285L463 293L466 300L472 302L472 298L475 298L480 302L480 305L484 306L484 308L487 311L487 314L492 317L493 324L489 329L480 334L477 330L475 320L471 316L467 314L455 302L445 297L440 298L430 290L430 287L427 286L432 274L432 261L426 250L419 248L404 236L402 235L399 238L392 231L388 231L385 227L381 227L378 224L377 220L364 209L365 208L377 211L383 208L384 206z"/></g><g><path class="class-1 leaflet-clickable" stroke-linejoin="round" stroke-linecap="round" fill-rule="evenodd" stroke="#005540" stroke-opacity="1" stroke-width="0.5" fill="#7fd" fill-opacity="0.5" d="M632 179L624 191L625 192L619 202L619 207L618 206L617 209L619 209L619 223L621 224L622 229L620 234L623 236L623 238L611 235L609 236L610 237L603 247L599 243L593 245L591 243L586 244L585 242L584 243L578 240L577 238L576 239L573 236L572 237L570 234L569 237L567 237L568 238L565 242L565 246L560 253L561 257L558 258L558 264L560 262L556 267L552 267L541 258L542 257L539 252L531 253L529 251L525 245L525 237L522 233L520 233L520 229L514 231L512 230L513 229L512 230L512 227L510 225L512 222L510 219L511 217L509 216L508 212L504 210L506 209L501 202L501 198L514 196L514 192L509 181L510 176L508 174L508 172L510 172L509 168L511 166L510 160L513 159L511 157L511 145L513 146L510 138L506 137L504 133L504 130L507 129L507 126L510 126L508 126L509 125L506 123L507 121L505 121L508 118L521 118L521 106L524 105L561 106L566 113L569 116L571 116L582 128L592 135L594 135L594 137L596 137L597 143L601 148L601 156L604 159L604 161L608 165L612 166L611 167L614 170L621 172L632 179z"/></g><g><path class="class-0 leaflet-clickable" stroke-linejoin="round" stroke-linecap="round" fill-rule="evenodd" stroke="#005540" stroke-opacity="1" stroke-width="0.5" fill="#ddfff6" fill-opacity="0.5" d="M422 186L421 188L421 186z"/></g><g><path class="class-0 leaflet-clickable" stroke-linejoin="round" stroke-linecap="round" fill-rule="evenodd" stroke="#005540" stroke-opacity="1" stroke-width="0.5" fill="#ddfff6" fill-opacity="0.5" d="M428 173L430 179L427 186L422 182L423 175L427 173z"/></g><g><path class="class-0 leaflet-clickable" stroke-linejoin="round" stroke-linecap="round" fill-rule="evenodd" stroke="#005540" stroke-opacity="1" stroke-width="0.5" fill="#ddfff6" fill-opacity="0.5" d="M373 106L375 106L374 107z"/></g><g><path class="class-0 leaflet-clickable" stroke-linejoin="round" stroke-linecap="round" fill-rule="evenodd" stroke="#005540" stroke-opacity="1" stroke-width="0.5" fill="#ddfff6" fill-opacity="0.5" d="M370 86L450 115L455 118L508 118L507 120L505 120L506 123L509 125L508 126L510 126L507 126L507 129L504 129L504 132L506 135L505 136L512 141L511 144L513 145L511 145L511 158L513 158L513 160L510 160L511 166L509 168L509 182L512 186L514 196L502 198L501 202L505 209L504 210L508 213L510 217L512 222L510 224L513 231L516 231L510 239L510 241L508 241L505 244L505 246L497 248L497 244L495 241L490 238L485 238L481 229L473 227L469 223L466 223L467 209L465 207L464 208L460 206L460 208L458 208L458 206L452 204L446 195L442 193L436 186L437 184L430 180L430 173L428 170L427 171L425 169L426 167L422 162L420 156L417 155L417 148L409 134L410 122L404 119L397 118L397 114L392 110L384 113L375 106L368 103L366 96L367 95L365 93L367 91L367 87L370 87zM461 205L461 206z"/></g></svg>