<svg xmlns="http://www.w3.org/2000/svg" class="leaflet-zoom-animated" width="1948" height="901" viewBox="-353 -163 1948 901" style="transform: translate3d(-353px, -163px, 0px);"><g><path class="class-0 leaflet-clickable" stroke-linejoin="round" stroke-linecap="round" fill-rule="evenodd" stroke="#005540" stroke-opacity="1" stroke-width="0.5" fill="#00cc99" fill-opacity="0.5" d="M320 444L320 444z"/></g><g><path class="class-0 leaflet-clickable" stroke-linejoin="round" stroke-linecap="round" fill-rule="evenodd" stroke="#005540" stroke-opacity="1" stroke-width="0.5" fill="#00cc99" fill-opacity="0.5" d="M943 443L944 440L943 443z"/></g><g><path class="class-0 leaflet-clickable" stroke-linejoin="round" stroke-linecap="round" fill-rule="evenodd" stroke="#005540" stroke-opacity="1" stroke-width="0.5" fill="#00cc99" fill-opacity="0.5" d="M945 435L945 437L945 435z"/></g><g><path class="class-0 leaflet-clickable" stroke-linejoin="round" stroke-linecap="round" fill-rule="evenodd" stroke="#005540" stroke-opacity="1" stroke-width="0.5" fill="#00cc99" fill-opacity="0.5" d="M405 432L407 434L406 435L404 433L405 432z"/></g><g><path class="class-0 leaflet-clickable" stroke-linejoin="round" stroke-linecap="round" fill-rule="evenodd" stroke="#005540" stroke-opacity="1" stroke-width="0.5" fill="#00cc99" fill-opacity="0.5" d="M409 422L409 421z"/></g><g><path class="class-0 leaflet-clickable" stroke-linejoin="round" stroke-linecap="round" fill-rule="evenodd" stroke="#005540" stroke-opacity="1" stroke-width="0.5" fill="#00cc99" fill-opacity="0.5" d="M957 390L957 392L951 398L951 394L953 391L958 390z"/></g><g><path class="class-0 leaflet-clickable" stroke-linejoin="round" stroke-linecap="round" fill-rule="evenodd" stroke="#005540" stroke-opacity="1" stroke-width="0.5" fill="#00cc99" fill-opacity="0.5" d="M873 388L872 388z"/></g><g><path class="class-0 leaflet-clickable" stroke-linejoin="round" stroke-linecap="round" fill-rule="evenodd" stroke="#005540" stroke-opacity="1" stroke-width="0.5" fill="#00cc99" fill-opacity="0.5" d="M831 380L830 380z"/></g><g><path class="class-0 leaflet-clickable" stroke-linejoin="round" stroke-linecap="round" fill-rule="evenodd" stroke="#005540" stroke-opacity="1" stroke-width="0.5" fill="#00cc99" fill-opacity="0.5" d="M957 374L958 375L957 374z"/></g><g><path class="class-0 leaflet-clickable" stroke-linejoin="round" stroke-linecap="round" fill-rule="evenodd" stroke="#005540" stroke-opacity="1" stroke-width="0.5" fill="#00cc99" fill-opacity="0.5" d="M514 371L513 371z"/></g><g><path class="class-0 leaflet-clickable" stroke-linejoin="round" stroke-linecap="round" fill-rule="evenodd" stroke="#005540" stroke-opacity="1" stroke-width="0.5" fill="#00cc99" fill-opacity="0.5" d="M509 368L511 369L510 370L508 368z"/></g><g><path class="class-0 leaflet-clickable" stroke-linejoin="round" stroke-linecap="round" fill-rule="evenodd" stroke="#005540" stroke-opacity="1" stroke-width="0.5" fill="#00cc99" fill-opacity="0.5" d="M949 365L947 367L942 368L944 366L947 367L949 365z"/></g><g><path class="class-0 leaflet-clickable" stroke-linejoin="round" stroke-linecap="round" fill-rule="evenodd" stroke="#005540" stroke-opacity="1" stroke-width="0.5" fill="#00cc99" fill-opacity="0.5" d="M504 363L506 363L507 366L505 366L504 364z"/></g><g><path class="class-0 leaflet-clickable" stroke-linejoin="round" stroke-linecap="round" fill-rule="evenodd" stroke="#005540" stroke-opacity="1" stroke-width="0.5" fill="#00cc99" fill-opacity="0.5" d="M504 361L503 361z"/></g><g><path class="class-0 leaflet-clickable" stroke-linejoin="round" stroke-linecap="round" fill-rule="evenodd" stroke="#005540" stroke-opacity="1" stroke-width="0.5" fill="#00cc99" fill-opacity="0.5" d="M888 344L888 343z"/></g><g><path class="class-0 leaflet-clickable" stroke-linejoin="round" stroke-linecap="round" fill-rule="evenodd" stroke="#005540" stroke-opacity="1" stroke-width="0.5" fill="#00cc99" fill-opacity="0.5" d="M889 341L892 342L893 344L891 346L888 343L889 341z"/></g><g><path class="class-0 leaflet-clickable" stroke-linejoin="round" stroke-linecap="round" fill-rule="evenodd" stroke="#005540" stroke-opacity="1" stroke-width="0.5" fill="#00cc99" fill-opacity="0.5" d="M432 302L430 302L430 297L432 302z"/></g><g><path class="class-0 leaflet-clickable" stroke-linejoin="round" stroke-linecap="round" fill-rule="evenodd" stroke="#005540" stroke-opacity="1" stroke-width="0.5" fill="#00cc99" fill-opacity="0.5" d="M420 293L421 296L419 294L420 293z"/></g><g><path class="class-0 leaflet-clickable" stroke-linejoin="round" stroke-linecap="round" fill-rule="evenodd" stroke="#005540" stroke-opacity="1" stroke-width="0.5" fill="#00cc99" fill-opacity="0.5" d="M419 291L419 292z"/></g><g><path class="class-0 leaflet-clickable" stroke-linejoin="round" stroke-linecap="round" fill-rule="evenodd" stroke="#005540" stroke-opacity="1" stroke-width="0.5" fill="#00cc99" fill-opacity="0.5" d="M415 285L415 285z"/></g><g><path class="class-0 leaflet-clickable" stroke-linejoin="round" stroke-linecap="round" fill-rule="evenodd" stroke="#005540" stroke-opacity="1" stroke-width="0.5" fill="#00cc99" fill-opacity="0.5" d="M412 279L416 284L412 281L412 279z"/></g><g><path class="class-0 leaflet-clickable" stroke-linejoin="round" stroke-linecap="round" fill-rule="evenodd" stroke="#005540" stroke-opacity="1" stroke-width="0.5" fill="#00cc99" fill-opacity="0.5" d="M412 273L411 275L412 273z"/></g><g><path class="class-0 leaflet-clickable" stroke-linejoin="round" stroke-linecap="round" fill-rule="evenodd" stroke="#005540" stroke-opacity="1" stroke-width="0.5" fill="#00cc99" fill-opacity="0.5" d="M410 263L411 266L410 264z"/></g><g><path class="class-0 leaflet-clickable" stroke-linejoin="round" stroke-linecap="round" fill-rule="evenodd" stroke="#005540" stroke-opacity="1" stroke-width="0.5" fill="#00cc99" fill-opacity="0.5" d="M404 263L404 265L404 263z"/></g><g><path class="class-0 leaflet-clickable" stroke-linejoin="round" stroke-linecap="round" fill-rule="evenodd" stroke="#005540" stroke-opacity="1" stroke-width="0.5" fill="#00cc99" fill-opacity="0.5" d="M399 261L399 261z"/></g><g><path class="class-0 leaflet-clickable" stroke-linejoin="round" stroke-linecap="round" fill-rule="evenodd" stroke="#005540" stroke-opacity="1" stroke-width="0.5" fill="#00cc99" fill-opacity="0.5" d="M404 254L404 256L402 256L400 260L401 261L400 258L401 255L403 255z"/></g><g><path class="class-0 leaflet-clickable" stroke-linejoin="round" stroke-linecap="round" fill-rule="evenodd" stroke="#005540" stroke-opacity="1" stroke-width="0.5" fill="#00cc99" fill-opacity="0.5" d="M399 252L399 252z"/></g><g><path class="class-0 leaflet-clickable" stroke-linejoin="round" stroke-linecap="round" fill-rule="evenodd" stroke="#005540" stroke-opacity="1" stroke-width="0.5" fill="#00cc99" fill-opacity="0.5" d="M381 224L381 226L380 224z"/></g><g><path class="class-0 leaflet-clickable" stroke-linejoin="round" stroke-linecap="round" fill-rule="evenodd" stroke="#005540" stroke-opacity="1" stroke-width="0.5" fill="#00cc99" fill-opacity="0.5" d="M384 219L383 219z"/></g><g><path class="class-0 leaflet-clickable" stroke-linejoin="round" stroke-linecap="round" fill-rule="evenodd" stroke="#005540" stroke-opacity="1" stroke-width="0.5" fill="#00cc99" fill-opacity="0.5" d="M310 208L309 208z"/></g><g><path class="class-0 leaflet-clickable" stroke-linejoin="round" stroke-linecap="round" fill-rule="evenodd" stroke="#005540" stroke-opacity="1" stroke-width="0.5" fill="#00cc99" fill-opacity="0.5" d="M301 197L301 197z"/></g><g><path class="class-0 leaflet-clickable" stroke-linejoin="round" stroke-linecap="round" fill-rule="evenodd" stroke="#005540" stroke-opacity="1" stroke-width="0.5" fill="#00cc99" fill-opacity="0.5" d="M309 195L311 201L310 204L306 202L309 199L309 195z"/></g><g><path class="class-0 leaflet-clickable" stroke-linejoin="round" stroke-linecap="round" fill-rule="evenodd" stroke="#005540" stroke-opacity="1" stroke-width="0.5" fill="#00cc99" fill-opacity="0.5" d="M362 187L365 189L364 190L363 188z"/></g><g><path class="class-0 leaflet-clickable" stroke-linejoin="round" stroke-linecap="round" fill-rule="evenodd" stroke="#005540" stroke-opacity="1" stroke-width="0.5" fill="#00cc99" fill-opacity="0.5" d="M361 187L361 187z"/></g><g><path class="class-0 leaflet-clickable" stroke-linejoin="round" stroke-linecap="round" fill-rule="evenodd" stroke="#005540" stroke-opacity="1" stroke-width="0.5" fill="#00cc99" fill-opacity="0.5" d="M370 186L369 188L369 186z"/></g><g><path class="class-0 leaflet-clickable" stroke-linejoin="round" stroke-linecap="round" fill-rule="evenodd" stroke="#005540" stroke-opacity="1" stroke-width="0.5" fill="#00cc99" fill-opacity="0.5" d="M348 176L348 176z"/></g><g><path class="class-0 leaflet-clickable" stroke-linejoin="round" stroke-linecap="round" fill-rule="evenodd" stroke="#005540" stroke-opacity="1" stroke-width="0.5" fill="#00cc99" fill-opacity="0.5" d="M238 175L240 177L239 182L237 178L239 174z"/></g><g><path class="class-0 leaflet-clickable" stroke-linejoin="round" stroke-linecap="round" fill-rule="evenodd" stroke="#005540" stroke-opacity="1" stroke-width="0.5" fill="#00cc99" fill-opacity="0.5" d="M376 173L378 179L376 184L377 185L375 186L370 182L371 175L375 173z"/></g><g><path class="class-0 leaflet-clickable" stroke-linejoin="round" stroke-linecap="round" fill-rule="evenodd" stroke="#005540" stroke-opacity="1" stroke-width="0.5" fill="#00cc99" fill-opacity="0.5" d="M348 165L351 167L351 170L353 172L356 171L356 179L346 168L348 165z"/></g><g><path class="class-0 leaflet-clickable" stroke-linejoin="round" stroke-linecap="round" fill-rule="evenodd" stroke="#005540" stroke-opacity="1" stroke-width="0.5" fill="#00cc99" fill-opacity="0.5" d="M327 153L328 154L327 153z"/></g><g><path class="class-0 leaflet-clickable" stroke-linejoin="round" stroke-linecap="round" fill-rule="evenodd" stroke="#005540" stroke-opacity="1" stroke-width="0.5" fill="#00cc99" fill-opacity="0.5" d="M320 112L320 112z"/></g><g><path class="class-0 leaflet-clickable" stroke-linejoin="round" stroke-linecap="round" fill-rule="evenodd" stroke="#005540" stroke-opacity="1" stroke-width="0.5" fill="#00cc99" fill-opacity="0.5" d="M322 106L323 107L322 106z"/></g><g><path class="class-0 leaflet-clickable" stroke-linejoin="round" stroke-linecap="round" fill-rule="evenodd" stroke="#005540" stroke-opacity="1" stroke-width="0.5" fill="#00cc99" fill-opacity="0.5" d="M320 105L322 107L321 108L319 108L319 105z"/></g><g><path class="class-0 leaflet-clickable" stroke-linejoin="round" stroke-linecap="round" fill-rule="evenodd" stroke="#005540" stroke-opacity="1" stroke-width="0.5" fill="#00cc99" fill-opacity="0.5" d="M319 83L319 87L398 115L403 118L469 118L469 106L472 105L509 106L514 113L517 116L519 116L530 128L540 135L542 135L542 137L544 137L545 142L549 148L549 156L556 165L560 166L559 167L562 170L569 172L577 178L584 180L585 177L589 173L590 174L589 172L591 170L592 164L596 159L600 159L603 156L612 159L622 158L624 162L626 162L626 164L627 163L627 165L640 176L644 188L648 193L647 194L650 199L655 203L658 209L666 216L668 230L672 234L676 246L678 245L680 247L685 248L685 250L691 250L696 255L709 255L714 260L716 259L715 258L720 257L720 263L713 276L708 294L706 336L704 339L704 346L710 360L716 366L714 374L722 392L729 398L737 409L739 419L744 424L744 426L747 427L750 433L754 435L763 435L769 439L773 439L778 448L780 449L788 448L805 442L818 442L821 440L821 438L830 436L838 436L841 438L858 428L867 420L867 412L873 405L873 387L875 381L881 376L894 372L912 370L916 367L924 365L930 365L944 370L949 369L950 366L955 373L956 370L955 373L957 377L953 385L941 399L941 409L940 410L941 406L941 408L938 409L936 413L934 413L937 416L941 414L942 415L941 418L936 420L936 424L939 421L941 421L939 423L939 427L937 429L931 449L928 449L928 443L923 443L923 441L917 441L915 447L912 449L909 455L905 452L902 457L861 457L861 470L850 470L853 473L854 472L854 474L858 476L857 477L859 479L867 483L868 488L874 491L873 498L844 498L833 518L836 522L833 527L834 531L832 535L804 507L796 501L786 497L776 495L764 496L759 501L755 501L745 506L744 505L741 508L732 508L723 505L720 502L706 501L696 494L689 493L683 487L681 488L671 484L663 484L655 478L631 470L632 469L627 465L623 464L611 453L604 454L578 446L566 432L542 420L540 415L538 415L530 404L526 394L534 392L536 390L534 386L529 386L537 376L537 367L536 368L532 365L527 357L527 349L524 341L508 325L507 321L501 315L496 307L478 294L462 274L450 270L446 265L442 265L440 257L445 248L445 244L441 239L435 239L432 237L429 229L421 227L417 223L415 223L415 209L413 207L412 208L408 206L408 208L406 208L406 206L400 204L394 195L390 193L384 186L385 184L378 180L378 173L376 170L375 171L373 169L374 167L370 162L368 156L365 155L365 148L357 134L358 122L352 119L345 118L345 114L340 110L333 113L319 104L319 110L317 113L317 123L321 129L321 137L323 142L322 149L324 153L328 157L328 159L331 159L345 172L348 182L350 180L352 184L355 184L357 191L359 193L363 193L362 197L364 199L366 211L375 218L378 224L377 225L384 229L382 230L382 232L384 234L386 233L389 235L392 238L392 242L395 243L394 244L398 254L398 262L403 268L405 268L407 277L413 285L411 289L412 297L415 301L418 302L421 301L421 297L428 303L428 305L432 306L432 308L435 311L435 315L438 316L441 320L441 324L439 327L430 334L428 334L426 332L423 320L419 316L397 299L393 297L388 298L387 296L380 292L378 290L378 287L375 286L380 272L380 261L375 251L367 248L352 236L350 235L347 238L340 231L336 231L333 227L329 227L326 224L325 220L313 211L313 209L325 211L331 208L335 201L334 198L336 194L334 190L329 186L329 184L326 181L324 181L323 177L320 176L320 174L315 169L310 168L308 165L302 163L298 159L299 157L296 153L296 146L290 140L291 134L285 127L284 128L283 119L276 112L277 109L274 106L276 107L277 104L271 99L271 96L266 88L266 85L320 80L320 82zM409 205L409 206z"/></g></svg>