<svg xmlns="http://www.w3.org/2000/svg" class="leaflet-zoom-animated" width="1950" height="878" viewBox="-336 -151 1950 878" style="transform: translate3d(-336px, -151px, 0px);"><g><path class="class-3 leaflet-clickable" stroke-linejoin="round" stroke-linecap="round" fill-rule="evenodd" stroke="#005540" stroke-opacity="1" stroke-width="0.5" fill="#086" fill-opacity="0.5" d="M867 470L870 473L871 472L871 474L875 476L874 477L879 481L884 483L885 488L891 491L890 498L861 498L850 518L853 522L850 527L851 531L849 535L821 507L813 501L808 500L806 496L808 495L808 492L806 489L812 473L820 466L820 464L824 460L823 458L826 453L829 455L829 457L831 457L830 459L833 465L834 464L836 466L835 467L836 466L838 468L842 463L847 462L846 461L852 458L852 456L855 454L858 455L858 459L862 460L862 466L867 467L868 470z"/></g><g><path class="class-3 leaflet-clickable" stroke-linejoin="round" stroke-linecap="round" fill-rule="evenodd" stroke="#005540" stroke-opacity="1" stroke-width="0.5" fill="#086" fill-opacity="0.5" d="M684 435L688 441L692 441L694 446L699 450L698 451L701 452L699 452L702 454L708 454L707 460L711 464L711 471L712 470L713 473L717 475L716 480L713 484L714 485L710 487L709 491L705 493L700 487L698 488L688 484L680 484L672 478L648 470L649 469L644 465L640 464L631 455L623 452L624 448L630 445L630 439L632 438L636 438L636 440L638 441L654 441L656 443L657 442L657 444L658 441L656 441L655 439L654 432L657 433L659 431L662 434L661 437L666 444L672 438L676 438L680 434L683 436z"/></g><g><path class="class-3 leaflet-clickable" stroke-linejoin="round" stroke-linecap="round" fill-rule="evenodd" stroke="#005540" stroke-opacity="1" stroke-width="0.5" fill="#086" fill-opacity="0.5" d="M812 473L806 489L808 492L807 496L809 500L803 497L793 495L781 496L776 501L772 501L762 506L761 505L758 508L749 508L740 505L737 502L723 501L713 494L706 493L710 490L709 487L714 485L713 484L716 481L716 477L718 475L713 474L712 470L711 471L711 464L707 460L708 456L712 454L713 455L715 453L719 453L722 455L724 452L723 451L722 453L721 448L726 445L728 452L735 448L740 449L747 443L748 437L754 440L759 449L767 449L768 454L766 459L770 463L773 464L779 459L781 459L782 460L780 462L784 467L789 470L788 471L807 473z"/></g><g><path class="class-3 leaflet-clickable" stroke-linejoin="round" stroke-linecap="round" fill-rule="evenodd" stroke="#005540" stroke-opacity="1" stroke-width="0.5" fill="#086" fill-opacity="0.5" d="M531 371L530 371z"/></g><g><path class="class-3 leaflet-clickable" stroke-linejoin="round" stroke-linecap="round" fill-rule="evenodd" stroke="#005540" stroke-opacity="1" stroke-width="0.5" fill="#086" fill-opacity="0.5" d="M526 368L528 369L527 370L525 368z"/></g><g><path class="class-3 leaflet-clickable" stroke-linejoin="round" stroke-linecap="round" fill-rule="evenodd" stroke="#005540" stroke-opacity="1" stroke-width="0.5" fill="#086" fill-opacity="0.5" d="M521 363L523 363L524 366L522 366L521 364z"/></g><g><path class="class-3 leaflet-clickable" stroke-linejoin="round" stroke-linecap="round" fill-rule="evenodd" stroke="#005540" stroke-opacity="1" stroke-width="0.5" fill="#086" fill-opacity="0.5" d="M521 361L520 362z"/></g><g><path class="class-3 leaflet-clickable" stroke-linejoin="round" stroke-linecap="round" fill-rule="evenodd" stroke="#005540" stroke-opacity="1" stroke-width="0.5" fill="#086" fill-opacity="0.5" d="M573 346L575 347L573 356L577 356L578 360L582 361L584 363L583 366L588 370L585 373L586 374L576 376L577 381L573 385L576 387L576 389L565 380L556 382L553 388L551 386L546 386L554 376L554 367L553 368L548 364L544 356L544 349L541 343L542 342L542 344L544 341L549 343L547 339L547 333L550 329L551 332L559 332L558 333L561 337L557 339L559 343L563 340L568 344L569 347L573 345z"/></g><g><path class="class-3 leaflet-clickable" stroke-linejoin="round" stroke-linecap="round" fill-rule="evenodd" stroke="#005540" stroke-opacity="1" stroke-width="0.5" fill="#086" fill-opacity="0.5" d="M654 292L656 295L651 299L649 297L648 301L646 302L645 308L640 313L632 320L627 322L624 322L622 320L620 323L622 323L620 325L624 336L628 340L630 339L630 342L632 344L635 343L639 337L642 338L641 339L643 343L641 344L640 348L642 350L642 355L639 359L638 360L637 358L630 355L626 352L626 348L625 349L620 345L618 347L612 348L612 352L607 359L610 363L610 366L613 368L612 371L610 371L606 375L603 374L603 378L601 379L597 379L590 376L588 372L592 371L592 369L588 369L588 367L592 365L593 362L591 360L601 355L603 350L601 348L600 349L598 345L596 347L597 350L595 350L594 353L588 352L591 349L591 344L590 342L588 342L586 343L585 351L583 347L585 343L584 342L587 341L587 339L584 337L580 338L583 343L580 347L580 343L578 343L576 347L574 346L575 338L579 336L577 331L580 319L585 315L586 316L585 306L589 302L591 302L591 299L593 299L595 295L607 295L610 297L615 296L616 291L612 283L612 280L617 281L616 278L625 279L630 281L632 284L636 285L635 286L637 288L643 286L646 288L647 291L651 293L654 292z"/></g><g><path class="class-3 leaflet-clickable" stroke-linejoin="round" stroke-linecap="round" fill-rule="evenodd" stroke="#005540" stroke-opacity="1" stroke-width="0.5" fill="#086" fill-opacity="0.5" d="M747 443L743 447L738 449L735 448L730 452L728 452L726 446L722 446L722 453L724 451L725 452L723 452L720 455L718 453L714 453L714 455L709 456L708 453L704 454L694 446L694 444L697 441L702 442L701 434L704 428L703 417L705 417L714 426L717 423L720 425L722 422L726 421L723 417L720 416L721 415L719 413L717 413L717 411L712 412L713 411L711 408L716 401L714 398L711 398L714 397L720 390L721 384L724 385L724 389L728 392L723 395L725 397L724 400L728 402L731 398L737 401L731 416L733 418L732 419L741 422L739 424L740 425L736 424L733 437L734 436L739 441L743 439L747 443z"/></g><g><path class="class-2 leaflet-clickable" stroke-linejoin="round" stroke-linecap="round" fill-rule="evenodd" stroke="#005540" stroke-opacity="1" stroke-width="0.5" fill="#00cc99" fill-opacity="0.5" d="M588 238L596 241L598 249L596 252L597 261L593 268L597 272L594 272L593 275L599 281L598 282L605 287L607 287L612 279L616 294L615 296L612 297L608 297L607 295L597 295L585 306L586 315L584 315L584 317L581 319L578 326L577 331L579 336L575 337L575 344L570 347L566 342L564 342L564 340L562 340L560 343L558 341L557 339L561 337L558 333L559 332L551 332L549 328L546 329L544 327L542 322L543 321L540 316L538 317L537 308L539 309L537 307L536 302L531 297L528 297L528 299L524 299L520 289L510 280L508 271L510 269L509 268L514 265L513 264L516 267L520 267L525 263L523 264L523 258L526 257L525 254L530 246L532 236L533 237L535 234L537 237L538 236L541 239L542 238L548 243L556 243L557 245L563 243L568 247L576 235L580 237L585 237z"/></g><g><path class="class-2 leaflet-clickable" stroke-linejoin="round" stroke-linecap="round" fill-rule="evenodd" stroke="#005540" stroke-opacity="1" stroke-width="0.5" fill="#00cc99" fill-opacity="0.5" d="M670 325L672 329L670 331L672 335L670 337L675 337L683 341L684 337L692 346L705 346L711 350L705 357L707 357L707 361L703 365L706 368L706 370L702 372L704 372L703 376L699 376L696 372L693 373L691 364L686 370L684 370L680 366L678 366L678 368L675 369L666 363L664 363L662 367L658 368L654 366L651 362L638 360L642 355L642 351L640 348L643 344L641 339L642 338L639 337L637 341L636 340L635 343L632 344L630 342L630 339L628 340L623 335L621 330L622 328L620 325L622 323L620 323L622 320L624 322L632 320L645 308L645 302L648 301L649 296L651 299L656 295L659 296L658 301L661 303L661 326L664 327L664 324L665 325L666 323L668 323L667 325L669 325z"/></g><g><path class="class-2 leaflet-clickable" stroke-linejoin="round" stroke-linecap="round" fill-rule="evenodd" stroke="#005540" stroke-opacity="1" stroke-width="0.5" fill="#00cc99" fill-opacity="0.5" d="M718 392L714 397L711 398L715 399L715 401L711 407L713 410L710 411L711 412L709 414L703 414L704 409L701 407L697 407L696 409L695 406L697 404L695 403L695 405L692 404L690 408L688 408L687 410L687 408L684 405L684 400L681 401L676 398L676 391L681 390L683 388L687 379L686 378L694 376L696 372L697 375L703 376L703 372L707 370L706 373L709 376L712 375L711 376L713 376L715 379L712 383L713 385L708 384L705 388L707 387L705 396L710 395L716 389L718 391z"/></g><g><path class="class-2 leaflet-clickable" stroke-linejoin="round" stroke-linecap="round" fill-rule="evenodd" stroke="#005540" stroke-opacity="1" stroke-width="0.5" fill="#00cc99" fill-opacity="0.5" d="M878 457L878 470L867 470L868 467L862 465L863 462L859 459L859 455L855 455L848 460L847 459L847 461L845 463L841 463L841 465L838 468L836 466L835 467L836 466L834 464L832 464L830 459L831 456L829 456L830 455L827 453L824 454L824 460L820 464L818 469L816 467L818 463L816 463L812 458L807 456L808 452L806 448L822 442L835 442L838 440L838 438L843 437L846 442L850 442L851 449L854 450L855 452L863 456L863 450L866 448L866 450L872 453L878 453L878 455z"/></g><g><path class="class-2 leaflet-clickable" stroke-linejoin="round" stroke-linecap="round" fill-rule="evenodd" stroke="#005540" stroke-opacity="1" stroke-width="0.5" fill="#00cc99" fill-opacity="0.5" d="M891 384L891 391L895 391L896 394L899 393L904 397L903 398L909 404L912 412L919 418L919 457L878 457L878 453L868 451L865 449L866 448L863 451L863 455L851 449L851 444L847 442L844 438L847 436L855 436L858 438L875 428L884 420L884 412L890 405L889 391L891 384z"/></g><g><path class="class-1 leaflet-clickable" stroke-linejoin="round" stroke-linecap="round" fill-rule="evenodd" stroke="#005540" stroke-opacity="1" stroke-width="0.5" fill="#7fd" fill-opacity="0.5" d="M723 349L725 357L733 366L731 372L732 378L739 392L746 398L753 407L756 419L761 424L761 426L764 427L766 432L771 435L780 435L790 440L797 449L806 447L807 456L815 460L817 463L817 470L815 470L812 473L788 472L789 470L784 467L780 462L782 460L781 459L779 459L773 464L770 464L766 459L768 454L767 449L759 449L760 448L759 449L757 447L752 438L748 437L747 444L745 440L741 439L739 441L736 437L733 436L735 431L734 428L741 422L732 419L733 418L731 416L731 414L734 411L734 407L738 401L731 398L728 402L724 400L725 397L723 395L724 393L725 394L728 392L725 391L723 384L721 384L720 390L718 391L716 388L715 391L710 395L705 396L706 395L704 392L707 390L708 387L706 388L710 383L710 385L712 385L713 380L715 378L711 376L712 375L709 376L706 373L707 370L706 371L703 365L708 361L705 356L707 357L708 353L711 350L703 346L709 346L712 344L718 347L721 351L722 349z"/></g><g><path class="class-1 leaflet-clickable" stroke-linejoin="round" stroke-linecap="round" fill-rule="evenodd" stroke="#005540" stroke-opacity="1" stroke-width="0.5" fill="#7fd" fill-opacity="0.5" d="M960 443L961 440L961 442z"/></g><g><path class="class-1 leaflet-clickable" stroke-linejoin="round" stroke-linecap="round" fill-rule="evenodd" stroke="#005540" stroke-opacity="1" stroke-width="0.5" fill="#7fd" fill-opacity="0.5" d="M962 435L962 437L962 435z"/></g><g><path class="class-1 leaflet-clickable" stroke-linejoin="round" stroke-linecap="round" fill-rule="evenodd" stroke="#005540" stroke-opacity="1" stroke-width="0.5" fill="#7fd" fill-opacity="0.5" d="M974 391L968 398L968 394L970 391L975 390z"/></g><g><path class="class-1 leaflet-clickable" stroke-linejoin="round" stroke-linecap="round" fill-rule="evenodd" stroke="#005540" stroke-opacity="1" stroke-width="0.5" fill="#7fd" fill-opacity="0.5" d="M919 454L918 450L920 449L920 425L919 418L916 415L919 413L920 414L920 412L922 412L922 410L927 407L927 405L930 404L931 401L934 401L936 398L942 397L946 394L953 386L956 380L956 368L963 370L966 369L967 366L972 373L972 370L973 371L973 379L970 385L958 399L958 409L957 410L958 406L957 409L951 412L953 416L958 413L959 414L958 418L953 420L953 424L956 421L958 421L956 423L948 449L945 449L945 443L940 443L940 441L934 441L932 447L929 449L926 455L922 452L920 454z"/></g><g><path class="class-1 leaflet-clickable" stroke-linejoin="round" stroke-linecap="round" fill-rule="evenodd" stroke="#005540" stroke-opacity="1" stroke-width="0.5" fill="#7fd" fill-opacity="0.5" d="M966 365L964 367L959 368L961 366L965 366z"/></g><g><path class="class-1 leaflet-clickable" stroke-linejoin="round" stroke-linecap="round" fill-rule="evenodd" stroke="#005540" stroke-opacity="1" stroke-width="0.5" fill="#7fd" fill-opacity="0.5" d="M703 417L702 414L708 414L711 412L710 411L716 411L721 415L721 417L723 417L726 420L725 422L722 421L720 424L717 423L714 426L707 420L706 417L704 418z"/></g><g><path class="class-1 leaflet-clickable" stroke-linejoin="round" stroke-linecap="round" fill-rule="evenodd" stroke="#005540" stroke-opacity="1" stroke-width="0.5" fill="#7fd" fill-opacity="0.5" d="M664 397L668 399L667 401L670 404L669 405L671 408L669 408L667 412L668 419L665 420L663 426L657 433L654 432L655 439L658 441L658 444L654 441L651 442L649 440L643 439L639 441L633 438L630 439L629 441L630 446L623 449L623 455L593 445L587 436L593 429L598 428L601 430L604 427L604 425L605 426L605 424L610 422L611 423L613 421L614 417L610 417L611 415L608 410L610 408L609 406L603 405L603 402L606 401L605 400L610 401L616 396L623 395L627 395L626 396L628 396L630 400L634 400L635 397L639 396L639 398L642 399L640 399L640 402L642 404L646 404L646 402L648 402L651 406L661 406L664 405L663 402L665 398z"/></g><g><path class="class-1 leaflet-clickable" stroke-linejoin="round" stroke-linecap="round" fill-rule="evenodd" stroke="#005540" stroke-opacity="1" stroke-width="0.5" fill="#7fd" fill-opacity="0.5" d="M597 179L589 191L590 192L584 202L584 207L583 206L582 209L584 209L584 223L586 224L587 229L585 234L588 236L588 238L576 235L574 236L575 237L568 247L564 243L558 245L556 243L551 244L550 242L549 243L543 240L542 238L541 239L538 236L537 237L535 234L534 237L532 237L533 238L530 242L530 246L525 253L526 257L523 258L523 264L525 262L521 267L517 267L506 258L507 257L504 252L496 253L494 251L490 245L490 237L487 233L485 233L485 229L479 231L477 230L478 229L477 230L477 227L475 225L477 222L475 219L476 217L474 216L473 212L469 210L471 209L466 202L466 198L479 196L479 192L474 181L475 176L473 174L473 172L475 172L474 168L476 166L475 160L478 159L476 157L476 145L478 146L475 138L471 137L469 133L469 130L472 129L472 126L475 126L473 126L474 125L471 123L472 121L470 121L473 118L486 118L486 106L489 105L526 106L531 113L534 116L536 116L547 128L557 135L559 135L559 137L561 137L562 143L566 148L566 156L569 159L569 161L573 165L577 166L576 167L579 170L586 172L597 179z"/></g><g><path class="class-1 leaflet-clickable" stroke-linejoin="round" stroke-linecap="round" fill-rule="evenodd" stroke="#005540" stroke-opacity="1" stroke-width="0.5" fill="#7fd" fill-opacity="0.5" d="M630 355L629 356L631 358L626 359L622 364L618 364L612 361L609 362L607 360L612 352L612 348L618 347L620 345L624 347L623 348L626 348L626 352L630 355z"/></g><g><path class="class-1 leaflet-clickable" stroke-linejoin="round" stroke-linecap="round" fill-rule="evenodd" stroke="#005540" stroke-opacity="1" stroke-width="0.5" fill="#7fd" fill-opacity="0.5" d="M694 373L693 376L689 378L688 376L683 386L684 388L676 391L676 398L674 397L674 402L670 404L667 401L667 398L665 398L661 394L659 385L662 382L670 382L671 379L672 380L672 375L678 375L680 373L677 372L679 366L686 370L691 364L693 373z"/></g><g><path class="class-1 leaflet-clickable" stroke-linejoin="round" stroke-linecap="round" fill-rule="evenodd" stroke="#005540" stroke-opacity="1" stroke-width="0.5" fill="#7fd" fill-opacity="0.5" d="M449 302L447 302L447 297L449 301z"/></g><g><path class="class-1 leaflet-clickable" stroke-linejoin="round" stroke-linecap="round" fill-rule="evenodd" stroke="#005540" stroke-opacity="1" stroke-width="0.5" fill="#7fd" fill-opacity="0.5" d="M437 293L437 296L436 293z"/></g><g><path class="class-1 leaflet-clickable" stroke-linejoin="round" stroke-linecap="round" fill-rule="evenodd" stroke="#005540" stroke-opacity="1" stroke-width="0.5" fill="#7fd" fill-opacity="0.5" d="M436 291L436 292z"/></g><g><path class="class-1 leaflet-clickable" stroke-linejoin="round" stroke-linecap="round" fill-rule="evenodd" stroke="#005540" stroke-opacity="1" stroke-width="0.5" fill="#7fd" fill-opacity="0.5" d="M429 279L432 281L433 284L429 280z"/></g><g><path class="class-1 leaflet-clickable" stroke-linejoin="round" stroke-linecap="round" fill-rule="evenodd" stroke="#005540" stroke-opacity="1" stroke-width="0.5" fill="#7fd" fill-opacity="0.5" d="M429 273L428 275L429 273z"/></g><g><path class="class-1 leaflet-clickable" stroke-linejoin="round" stroke-linecap="round" fill-rule="evenodd" stroke="#005540" stroke-opacity="1" stroke-width="0.5" fill="#7fd" fill-opacity="0.5" d="M427 263L428 266L427 264z"/></g><g><path class="class-1 leaflet-clickable" stroke-linejoin="round" stroke-linecap="round" fill-rule="evenodd" stroke="#005540" stroke-opacity="1" stroke-width="0.5" fill="#7fd" fill-opacity="0.5" d="M421 263L421 265L421 263z"/></g><g><path class="class-1 leaflet-clickable" stroke-linejoin="round" stroke-linecap="round" fill-rule="evenodd" stroke="#005540" stroke-opacity="1" stroke-width="0.5" fill="#7fd" fill-opacity="0.5" d="M421 254L421 256L419 256L417 260L418 261L417 258L418 255L420 255z"/></g><g><path class="class-1 leaflet-clickable" stroke-linejoin="round" stroke-linecap="round" fill-rule="evenodd" stroke="#005540" stroke-opacity="1" stroke-width="0.5" fill="#7fd" fill-opacity="0.5" d="M416 252L416 252z"/></g><g><path class="class-1 leaflet-clickable" stroke-linejoin="round" stroke-linecap="round" fill-rule="evenodd" stroke="#005540" stroke-opacity="1" stroke-width="0.5" fill="#7fd" fill-opacity="0.5" d="M398 224L398 226L397 224z"/></g><g><path class="class-1 leaflet-clickable" stroke-linejoin="round" stroke-linecap="round" fill-rule="evenodd" stroke="#005540" stroke-opacity="1" stroke-width="0.5" fill="#7fd" fill-opacity="0.5" d="M401 219L400 219z"/></g><g><path class="class-1 leaflet-clickable" stroke-linejoin="round" stroke-linecap="round" fill-rule="evenodd" stroke="#005540" stroke-opacity="1" stroke-width="0.5" fill="#7fd" fill-opacity="0.5" d="M327 208L327 208z"/></g><g><path class="class-1 leaflet-clickable" stroke-linejoin="round" stroke-linecap="round" fill-rule="evenodd" stroke="#005540" stroke-opacity="1" stroke-width="0.5" fill="#7fd" fill-opacity="0.5" d="M349 205L382 205L384 212L392 218L395 224L394 225L401 229L399 230L399 232L401 234L403 233L406 235L409 241L412 243L411 244L415 254L415 262L420 268L422 268L423 274L430 285L428 293L431 300L437 302L437 298L440 298L445 302L445 305L449 306L449 308L452 311L452 314L457 317L458 324L454 329L445 334L442 330L440 320L436 316L432 314L420 302L410 297L405 298L395 290L395 287L392 286L397 274L397 261L391 250L384 248L369 236L367 235L364 238L357 231L353 231L350 227L346 227L343 224L342 220L329 209L330 208L342 211L348 208L349 206z"/></g><g><path class="class-1 leaflet-clickable" stroke-linejoin="round" stroke-linecap="round" fill-rule="evenodd" stroke="#005540" stroke-opacity="1" stroke-width="0.5" fill="#7fd" fill-opacity="0.5" d="M610 362L612 361L620 365L630 358L631 357L629 357L631 355L633 355L638 361L636 361L637 362L635 367L637 370L635 370L635 372L632 374L632 376L625 385L628 388L625 394L623 396L617 396L608 402L607 400L603 402L603 405L605 404L610 407L610 409L608 410L611 415L610 416L615 417L612 423L610 422L606 424L601 430L599 428L593 429L593 421L589 416L585 419L580 416L578 421L571 423L570 422L567 425L563 423L563 421L562 422L559 420L557 415L555 415L547 404L543 394L551 392L553 390L552 388L554 385L555 386L557 382L562 380L569 382L576 390L575 385L573 385L577 381L576 376L586 374L585 373L588 370L583 365L584 363L582 361L578 361L577 357L573 355L575 347L577 345L578 346L577 343L580 344L579 347L583 344L580 339L581 337L587 339L587 341L584 342L585 343L583 347L585 351L585 347L588 341L591 343L588 352L589 353L593 353L595 350L597 350L596 347L598 345L600 347L599 348L603 350L601 356L597 356L593 360L591 360L593 362L592 365L588 367L588 369L592 369L593 371L588 373L590 373L591 377L601 379L603 374L606 375L610 371L611 372L613 368L609 365L610 363z"/></g><g><path class="class-1 leaflet-clickable" stroke-linejoin="round" stroke-linecap="round" fill-rule="evenodd" stroke="#005540" stroke-opacity="1" stroke-width="0.5" fill="#7fd" fill-opacity="0.5" d="M678 368L677 371L678 373L680 373L676 376L672 375L673 376L671 382L662 382L659 385L661 393L665 398L663 402L664 405L651 406L648 402L646 402L646 404L642 404L640 402L640 400L642 399L639 398L639 396L637 396L634 399L628 399L628 397L625 394L628 391L625 384L628 382L632 374L635 373L634 370L636 370L635 367L637 363L636 362L638 360L644 360L646 362L648 361L656 367L662 367L663 363L665 363L675 369L677 368z"/></g><g><path class="class-1 leaflet-clickable" stroke-linejoin="round" stroke-linecap="round" fill-rule="evenodd" stroke="#005540" stroke-opacity="1" stroke-width="0.5" fill="#7fd" fill-opacity="0.5" d="M337 444L337 444z"/></g><g><path class="class-1 leaflet-clickable" stroke-linejoin="round" stroke-linecap="round" fill-rule="evenodd" stroke="#005540" stroke-opacity="1" stroke-width="0.5" fill="#7fd" fill-opacity="0.5" d="M422 432L424 434L423 435L421 433L422 432z"/></g><g><path class="class-1 leaflet-clickable" stroke-linejoin="round" stroke-linecap="round" fill-rule="evenodd" stroke="#005540" stroke-opacity="1" stroke-width="0.5" fill="#7fd" fill-opacity="0.5" d="M593 429L587 436L573 426L566 424L567 425L570 422L571 423L579 421L578 420L580 416L585 419L589 416L593 420L593 429z"/></g><g><path class="class-1 leaflet-clickable" stroke-linejoin="round" stroke-linecap="round" fill-rule="evenodd" stroke="#005540" stroke-opacity="1" stroke-width="0.5" fill="#7fd" fill-opacity="0.5" d="M426 422L426 421z"/></g><g><path class="class-0 leaflet-clickable" stroke-linejoin="round" stroke-linecap="round" fill-rule="evenodd" stroke="#005540" stroke-opacity="1" stroke-width="0.5" fill="#ddfff6" fill-opacity="0.5" d="M387 186L386 188L386 186z"/></g><g><path class="class-0 leaflet-clickable" stroke-linejoin="round" stroke-linecap="round" fill-rule="evenodd" stroke="#005540" stroke-opacity="1" stroke-width="0.5" fill="#ddfff6" fill-opacity="0.5" d="M393 173L395 179L392 186L387 182L388 175L392 173z"/></g><g><path class="class-0 leaflet-clickable" stroke-linejoin="round" stroke-linecap="round" fill-rule="evenodd" stroke="#005540" stroke-opacity="1" stroke-width="0.5" fill="#ddfff6" fill-opacity="0.5" d="M338 106L340 106L339 107z"/></g><g><path class="class-0 leaflet-clickable" stroke-linejoin="round" stroke-linecap="round" fill-rule="evenodd" stroke="#005540" stroke-opacity="1" stroke-width="0.5" fill="#ddfff6" fill-opacity="0.5" d="M335 86L415 115L420 118L473 118L472 120L470 120L471 123L474 125L473 126L475 126L472 126L472 129L469 129L469 132L471 135L470 136L477 141L476 144L478 145L476 145L476 158L478 158L478 160L475 160L476 166L474 168L474 182L477 186L479 196L467 198L466 202L470 209L469 210L473 213L475 217L477 222L475 224L478 231L481 231L475 239L475 241L473 241L470 244L470 246L462 248L462 244L460 241L455 238L450 238L446 229L438 227L434 223L431 223L432 209L430 207L429 208L425 206L425 208L423 208L423 206L417 204L411 195L407 193L401 186L402 184L395 180L395 173L393 170L392 171L390 169L391 167L387 162L385 156L382 155L382 148L374 134L375 122L369 119L362 118L362 114L357 110L349 113L340 106L333 103L331 96L332 95L330 93L332 91L332 87L335 87zM426 205L426 206z"/></g><g><path class="class-0 leaflet-clickable" stroke-linejoin="round" stroke-linecap="round" fill-rule="evenodd" stroke="#005540" stroke-opacity="1" stroke-width="0.5" fill="#ddfff6" fill-opacity="0.5" d="M318 197L317 197z"/></g><g><path class="class-0 leaflet-clickable" stroke-linejoin="round" stroke-linecap="round" fill-rule="evenodd" stroke="#005540" stroke-opacity="1" stroke-width="0.5" fill="#ddfff6" fill-opacity="0.5" d="M326 195L328 201L327 204L323 202L326 199L326 196z"/></g><g><path class="class-0 leaflet-clickable" stroke-linejoin="round" stroke-linecap="round" fill-rule="evenodd" stroke="#005540" stroke-opacity="1" stroke-width="0.5" fill="#ddfff6" fill-opacity="0.5" d="M379 187L382 189L381 190L380 188z"/></g><g><path class="class-0 leaflet-clickable" stroke-linejoin="round" stroke-linecap="round" fill-rule="evenodd" stroke="#005540" stroke-opacity="1" stroke-width="0.5" fill="#ddfff6" fill-opacity="0.5" d="M365 176L365 177z"/></g><g><path class="class-0 leaflet-clickable" stroke-linejoin="round" stroke-linecap="round" fill-rule="evenodd" stroke="#005540" stroke-opacity="1" stroke-width="0.5" fill="#ddfff6" fill-opacity="0.5" d="M365 165L368 167L368 170L370 172L373 171L373 179L363 168L364 165z"/></g><g><path class="class-0 leaflet-clickable" stroke-linejoin="round" stroke-linecap="round" fill-rule="evenodd" stroke="#005540" stroke-opacity="1" stroke-width="0.5" fill="#ddfff6" fill-opacity="0.5" d="M255 174L257 177L256 182L254 177L255 174z"/></g><g><path class="class-0 leaflet-clickable" stroke-linejoin="round" stroke-linecap="round" fill-rule="evenodd" stroke="#005540" stroke-opacity="1" stroke-width="0.5" fill="#ddfff6" fill-opacity="0.5" d="M344 153L344 154z"/></g><g><path class="class-0 leaflet-clickable" stroke-linejoin="round" stroke-linecap="round" fill-rule="evenodd" stroke="#005540" stroke-opacity="1" stroke-width="0.5" fill="#ddfff6" fill-opacity="0.5" d="M337 112L337 112z"/></g><g><path class="class-0 leaflet-clickable" stroke-linejoin="round" stroke-linecap="round" fill-rule="evenodd" stroke="#005540" stroke-opacity="1" stroke-width="0.5" fill="#ddfff6" fill-opacity="0.5" d="M337 105L339 107L338 108L336 108L336 105z"/></g><g><path class="class-0 leaflet-clickable" stroke-linejoin="round" stroke-linecap="round" fill-rule="evenodd" stroke="#005540" stroke-opacity="1" stroke-width="0.5" fill="#ddfff6" fill-opacity="0.5" d="M335 86L332 88L330 93L332 95L332 102L335 103L336 105L336 110L334 113L334 123L338 129L338 137L340 142L339 149L345 157L345 159L348 159L362 172L365 182L367 180L369 184L372 184L374 191L380 195L379 197L381 199L381 205L349 205L352 201L351 198L353 194L351 190L346 186L346 184L343 181L341 181L340 177L337 176L337 174L315 159L316 157L313 153L313 146L307 140L308 134L302 127L301 128L300 119L293 112L294 109L292 106L293 107L294 104L288 99L288 96L283 88L283 85L337 80L335 86z"/></g><g><path class="class-0 leaflet-clickable" stroke-linejoin="round" stroke-linecap="round" fill-rule="evenodd" stroke="#005540" stroke-opacity="1" stroke-width="0.5" fill="#ddfff6" fill-opacity="0.5" d="M676 398L681 401L684 400L684 407L687 409L686 410L690 407L690 405L695 405L695 403L696 409L698 407L701 407L704 410L702 414L704 418L704 428L699 430L696 427L696 421L694 419L693 414L687 421L689 425L688 430L685 431L686 433L683 436L679 434L680 435L678 435L676 438L672 438L666 444L662 439L663 438L661 437L662 434L659 431L668 418L666 412L669 411L669 403L673 403L673 399L675 398z"/></g><g><path class="class-0 leaflet-clickable" stroke-linejoin="round" stroke-linecap="round" fill-rule="evenodd" stroke="#005540" stroke-opacity="1" stroke-width="0.5" fill="#ddfff6" fill-opacity="0.5" d="M696 427L699 430L703 428L701 434L702 441L701 442L699 440L694 444L688 441L684 436L689 425L696 427z"/></g><g><path class="class-0 leaflet-clickable" stroke-linejoin="round" stroke-linecap="round" fill-rule="evenodd" stroke="#005540" stroke-opacity="1" stroke-width="0.5" fill="#ddfff6" fill-opacity="0.5" d="M462 248L466 248L471 244L472 241L476 239L480 229L486 230L485 233L487 233L490 236L490 245L496 253L505 253L507 256L506 258L512 262L512 264L514 264L511 267L509 267L510 270L508 271L510 275L510 280L512 280L515 286L520 289L523 295L522 296L525 299L528 299L528 297L534 299L536 305L539 308L537 308L538 316L541 317L543 321L542 322L544 324L544 328L550 329L547 333L547 340L548 339L549 342L548 343L544 341L543 344L525 325L524 321L518 315L513 307L495 294L479 274L466 269L463 265L459 265L457 257L462 248z"/></g><g><path class="class-0 leaflet-clickable" stroke-linejoin="round" stroke-linecap="round" fill-rule="evenodd" stroke="#005540" stroke-opacity="1" stroke-width="0.5" fill="#ddfff6" fill-opacity="0.5" d="M676 211L679 213L674 216L674 218L678 219L680 228L678 233L682 234L680 238L686 241L685 247L689 250L691 249L692 255L695 253L697 257L699 255L705 255L705 269L708 269L698 279L694 278L691 281L691 287L688 286L684 288L683 291L679 292L679 294L681 294L682 296L680 303L685 309L682 312L676 312L673 317L674 322L671 321L669 323L671 323L670 325L667 325L668 323L666 323L665 325L664 324L665 327L662 326L662 313L660 310L661 304L658 302L659 297L654 292L654 285L656 283L654 282L654 277L656 275L667 276L667 274L663 273L658 268L660 268L655 265L652 254L645 247L655 237L657 240L658 239L660 235L660 229L654 229L653 226L657 222L663 220L664 213L668 210L672 214L674 213z"/></g><g><path class="class-0 leaflet-clickable" stroke-linejoin="round" stroke-linecap="round" fill-rule="evenodd" stroke="#005540" stroke-opacity="1" stroke-width="0.5" fill="#ddfff6" fill-opacity="0.5" d="M956 368L956 380L953 386L942 398L936 398L930 404L928 404L927 407L925 407L926 408L920 414L919 413L916 415L913 413L909 407L909 404L906 400L904 400L900 393L897 394L892 391L891 384L893 379L903 374L929 370L933 367L938 367L941 365L956 368z"/></g><g><path class="class-0 leaflet-clickable" stroke-linejoin="round" stroke-linecap="round" fill-rule="evenodd" stroke="#005540" stroke-opacity="1" stroke-width="0.5" fill="#ddfff6" fill-opacity="0.5" d="M906 341L909 342L910 344L908 346L905 343L906 341z"/></g><g><path class="class-0 leaflet-clickable" stroke-linejoin="round" stroke-linecap="round" fill-rule="evenodd" stroke="#005540" stroke-opacity="1" stroke-width="0.5" fill="#ddfff6" fill-opacity="0.5" d="M676 211L672 215L668 210L664 213L663 220L657 222L653 226L654 229L660 229L660 235L658 239L657 240L655 237L645 247L654 258L653 261L657 267L660 268L658 268L662 271L662 273L667 273L667 276L656 275L654 277L654 281L656 283L654 285L653 292L651 293L643 286L637 288L635 286L636 285L622 278L616 278L617 281L612 279L607 288L598 282L599 281L593 275L593 273L595 271L596 272L593 268L597 262L596 252L598 249L596 241L588 238L588 236L585 233L587 230L583 210L584 209L582 209L582 206L584 206L584 203L590 192L589 191L597 179L601 180L602 177L606 173L607 174L606 172L608 170L609 164L613 159L617 159L620 156L631 159L639 158L641 162L643 162L643 164L644 163L644 165L657 176L661 188L665 193L664 194L676 210z"/></g><g><path class="class-0 leaflet-clickable" stroke-linejoin="round" stroke-linecap="round" fill-rule="evenodd" stroke="#005540" stroke-opacity="1" stroke-width="0.5" fill="#ddfff6" fill-opacity="0.5" d="M696 427L692 427L687 423L692 414L696 421L696 426z"/></g><g><path class="class-0 leaflet-clickable" stroke-linejoin="round" stroke-linecap="round" fill-rule="evenodd" stroke="#005540" stroke-opacity="1" stroke-width="0.5" fill="#ddfff6" fill-opacity="0.5" d="M723 349L721 351L713 344L711 344L710 346L703 345L701 347L694 345L692 346L684 337L683 341L680 339L676 339L675 337L670 337L672 335L670 332L672 330L670 328L671 323L669 323L671 321L674 322L673 317L676 312L682 312L684 309L684 307L680 303L682 296L679 294L679 292L683 291L684 288L688 286L690 287L692 283L691 281L694 278L697 279L708 270L705 269L705 255L699 255L697 257L695 253L692 255L691 249L689 250L685 247L686 241L680 239L682 234L678 233L680 229L678 219L674 218L674 216L679 213L683 216L685 230L689 234L693 246L695 245L697 247L702 248L702 250L708 250L713 255L726 255L731 260L733 259L732 258L737 257L737 263L730 276L725 294L723 336L721 339L722 348z"/></g></svg>