<svg xmlns="http://www.w3.org/2000/svg" class="leaflet-zoom-animated" width="2000" height="900" viewBox="-361 -162 2000 900" style="transform: translate3d(-361px, -162px, 0px);"><g><path class="class-22 leaflet-clickable" stroke-linejoin="round" stroke-linecap="round" fill-rule="evenodd" stroke="#888" stroke-opacity="1" stroke-width="0.5" fill="#897c36" fill-opacity="0.5" d="M868 470L871 473L872 472L872 474L876 476L875 477L880 481L885 483L886 488L892 491L891 498L862 498L851 518L854 522L851 527L852 531L850 535L822 507L814 501L809 500L807 496L809 495L809 492L807 489L813 473L821 466L821 464L825 460L824 458L827 453L830 455L830 457L832 457L831 459L834 465L835 464L837 466L836 467L837 466L839 468L843 463L848 462L847 461L853 458L853 456L856 454L859 455L859 459L863 460L863 466L868 467L869 470z"/></g><g><path class="class-12 leaflet-clickable" stroke-linejoin="round" stroke-linecap="round" fill-rule="evenodd" stroke="#888" stroke-opacity="1" stroke-width="0.5" fill="#c0976b" fill-opacity="0.5" d="M724 349L726 357L734 366L732 372L733 378L740 392L747 398L754 407L757 419L762 424L762 426L765 427L767 432L772 435L781 435L791 440L798 449L807 447L808 456L816 460L818 463L818 470L816 470L813 473L789 472L790 470L785 467L781 462L783 460L782 459L780 459L774 464L771 464L767 459L769 454L768 449L760 449L761 448L760 449L758 447L753 438L749 437L748 444L746 440L742 439L740 441L737 437L734 436L736 431L735 428L742 422L733 419L734 418L732 416L732 414L735 411L735 407L739 401L732 398L729 402L725 400L726 397L724 395L725 393L726 394L729 392L726 391L724 384L722 384L721 390L719 391L717 388L716 391L711 395L706 396L707 395L705 392L708 390L709 387L707 388L711 383L711 385L713 385L714 380L716 378L712 376L713 375L710 376L707 373L708 370L707 371L704 365L709 361L706 356L708 357L709 353L712 350L704 346L710 346L713 344L719 347L722 351L723 349z"/></g><g><path class="class-02 leaflet-clickable" stroke-linejoin="round" stroke-linecap="round" fill-rule="evenodd" stroke="#888" stroke-opacity="1" stroke-width="0.5" fill="#e6a583" fill-opacity="0.5" d="M319 197L318 197z"/></g><g><path class="class-02 leaflet-clickable" stroke-linejoin="round" stroke-linecap="round" fill-rule="evenodd" stroke="#888" stroke-opacity="1" stroke-width="0.5" fill="#e6a583" fill-opacity="0.5" d="M327 195L329 201L328 204L324 202L327 199L327 196z"/></g><g><path class="class-02 leaflet-clickable" stroke-linejoin="round" stroke-linecap="round" fill-rule="evenodd" stroke="#888" stroke-opacity="1" stroke-width="0.5" fill="#e6a583" fill-opacity="0.5" d="M380 187L383 189L382 190L381 188z"/></g><g><path class="class-02 leaflet-clickable" stroke-linejoin="round" stroke-linecap="round" fill-rule="evenodd" stroke="#888" stroke-opacity="1" stroke-width="0.5" fill="#e6a583" fill-opacity="0.5" d="M366 176L366 177z"/></g><g><path class="class-02 leaflet-clickable" stroke-linejoin="round" stroke-linecap="round" fill-rule="evenodd" stroke="#888" stroke-opacity="1" stroke-width="0.5" fill="#e6a583" fill-opacity="0.5" d="M366 165L369 167L369 170L371 172L374 171L374 179L364 168L365 165z"/></g><g><path class="class-02 leaflet-clickable" stroke-linejoin="round" stroke-linecap="round" fill-rule="evenodd" stroke="#888" stroke-opacity="1" stroke-width="0.5" fill="#e6a583" fill-opacity="0.5" d="M256 174L258 177L257 182L255 177L256 174z"/></g><g><path class="class-02 leaflet-clickable" stroke-linejoin="round" stroke-linecap="round" fill-rule="evenodd" stroke="#888" stroke-opacity="1" stroke-width="0.5" fill="#e6a583" fill-opacity="0.5" d="M345 153L345 154z"/></g><g><path class="class-02 leaflet-clickable" stroke-linejoin="round" stroke-linecap="round" fill-rule="evenodd" stroke="#888" stroke-opacity="1" stroke-width="0.5" fill="#e6a583" fill-opacity="0.5" d="M338 112L338 112z"/></g><g><path class="class-02 leaflet-clickable" stroke-linejoin="round" stroke-linecap="round" fill-rule="evenodd" stroke="#888" stroke-opacity="1" stroke-width="0.5" fill="#e6a583" fill-opacity="0.5" d="M338 105L340 107L339 108L337 108L337 105z"/></g><g><path class="class-02 leaflet-clickable" stroke-linejoin="round" stroke-linecap="round" fill-rule="evenodd" stroke="#888" stroke-opacity="1" stroke-width="0.5" fill="#e6a583" fill-opacity="0.5" d="M336 86L333 88L331 93L333 95L333 102L336 103L337 105L337 110L335 113L335 123L339 129L339 137L341 142L340 149L346 157L346 159L349 159L363 172L366 182L368 180L370 184L373 184L375 191L381 195L380 197L382 199L382 205L350 205L353 201L352 198L354 194L352 190L347 186L347 184L344 181L342 181L341 177L338 176L338 174L316 159L317 157L314 153L314 146L308 140L309 134L303 127L302 128L301 119L294 112L295 109L293 106L294 107L295 104L289 99L289 96L284 88L284 85L338 80L336 86z"/></g><g><path class="class-11 leaflet-clickable" stroke-linejoin="round" stroke-linecap="round" fill-rule="evenodd" stroke="#888" stroke-opacity="1" stroke-width="0.5" fill="#cbc39a" fill-opacity="0.5" d="M719 392L715 397L712 398L716 399L716 401L712 407L714 410L711 411L712 412L710 414L704 414L705 409L702 407L698 407L697 409L696 406L698 404L696 403L696 405L693 404L691 408L689 408L688 410L688 408L685 405L685 400L682 401L677 398L677 391L682 390L684 388L688 379L687 378L695 376L697 372L698 375L704 376L704 372L708 370L707 373L710 376L713 375L712 376L714 376L716 379L713 383L714 385L709 384L706 388L708 387L706 396L711 395L717 389L719 391z"/></g><g><path class="class-11 leaflet-clickable" stroke-linejoin="round" stroke-linecap="round" fill-rule="evenodd" stroke="#888" stroke-opacity="1" stroke-width="0.5" fill="#cbc39a" fill-opacity="0.5" d="M892 384L892 391L896 391L897 394L900 393L905 397L904 398L910 404L913 412L920 418L920 457L879 457L879 453L869 451L866 449L867 448L864 451L864 455L852 449L852 444L848 442L845 438L848 436L856 436L859 438L876 428L885 420L885 412L891 405L890 391L892 384z"/></g><g><path class="class-11 leaflet-clickable" stroke-linejoin="round" stroke-linecap="round" fill-rule="evenodd" stroke="#888" stroke-opacity="1" stroke-width="0.5" fill="#cbc39a" fill-opacity="0.5" d="M879 457L879 470L868 470L869 467L863 465L864 462L860 459L860 455L856 455L849 460L848 459L848 461L846 463L842 463L842 465L839 468L837 466L836 467L837 466L835 464L833 464L831 459L832 456L830 456L831 455L828 453L825 454L825 460L821 464L819 469L817 467L819 463L817 463L813 458L808 456L809 452L807 448L823 442L836 442L839 440L839 438L844 437L847 442L851 442L852 449L855 450L856 452L864 456L864 450L867 448L867 450L873 453L879 453L879 455z"/></g><g><path class="class-11 leaflet-clickable" stroke-linejoin="round" stroke-linecap="round" fill-rule="evenodd" stroke="#888" stroke-opacity="1" stroke-width="0.5" fill="#cbc39a" fill-opacity="0.5" d="M704 417L703 414L709 414L712 412L711 411L717 411L722 415L722 417L724 417L727 420L726 422L723 421L721 424L718 423L715 426L708 420L707 417L705 418z"/></g><g><path class="class-01 leaflet-clickable" stroke-linejoin="round" stroke-linecap="round" fill-rule="evenodd" stroke="#888" stroke-opacity="1" stroke-width="0.5" fill="#f1d2b2" fill-opacity="0.5" d="M697 427L693 427L688 423L693 414L697 421L697 426z"/></g><g><path class="class-01 leaflet-clickable" stroke-linejoin="round" stroke-linecap="round" fill-rule="evenodd" stroke="#888" stroke-opacity="1" stroke-width="0.5" fill="#f1d2b2" fill-opacity="0.5" d="M697 427L700 430L704 428L702 434L703 441L702 442L700 440L695 444L689 441L685 436L690 425L697 427z"/></g><g><path class="class-10 leaflet-clickable" stroke-linejoin="round" stroke-linecap="round" fill-rule="evenodd" stroke="#888" stroke-opacity="1" stroke-width="0.5" fill="#ccdfcc" fill-opacity="0.5" d="M961 443L962 440L962 442z"/></g><g><path class="class-10 leaflet-clickable" stroke-linejoin="round" stroke-linecap="round" fill-rule="evenodd" stroke="#888" stroke-opacity="1" stroke-width="0.5" fill="#ccdfcc" fill-opacity="0.5" d="M963 435L963 437L963 435z"/></g><g><path class="class-10 leaflet-clickable" stroke-linejoin="round" stroke-linecap="round" fill-rule="evenodd" stroke="#888" stroke-opacity="1" stroke-width="0.5" fill="#ccdfcc" fill-opacity="0.5" d="M975 391L969 398L969 394L971 391L976 390z"/></g><g><path class="class-10 leaflet-clickable" stroke-linejoin="round" stroke-linecap="round" fill-rule="evenodd" stroke="#888" stroke-opacity="1" stroke-width="0.5" fill="#ccdfcc" fill-opacity="0.5" d="M920 454L919 450L921 449L921 425L920 418L917 415L920 413L921 414L921 412L923 412L923 410L928 407L928 405L931 404L932 401L935 401L937 398L943 397L947 394L954 386L957 380L957 368L964 370L967 369L968 366L973 373L973 370L974 371L974 379L971 385L959 399L959 409L958 410L959 406L958 409L952 412L954 416L959 413L960 414L959 418L954 420L954 424L957 421L959 421L957 423L949 449L946 449L946 443L941 443L941 441L935 441L933 447L930 449L927 455L923 452L921 454z"/></g><g><path class="class-10 leaflet-clickable" stroke-linejoin="round" stroke-linecap="round" fill-rule="evenodd" stroke="#888" stroke-opacity="1" stroke-width="0.5" fill="#ccdfcc" fill-opacity="0.5" d="M967 365L965 367L960 368L962 366L966 366z"/></g><g><path class="class-00 leaflet-clickable" stroke-linejoin="round" stroke-linecap="round" fill-rule="evenodd" stroke="#888" stroke-opacity="1" stroke-width="0.5" fill="#f2eee4" fill-opacity="0.5" d="M679 368L678 371L679 373L681 373L677 376L673 375L674 376L672 382L663 382L660 385L662 393L666 398L664 402L665 405L652 406L649 402L647 402L647 404L643 404L641 402L641 400L643 399L640 398L640 396L638 396L635 399L629 399L629 397L626 394L629 391L626 384L629 382L633 374L636 373L635 370L637 370L636 367L638 363L637 362L639 360L645 360L647 362L649 361L657 367L663 367L664 363L666 363L676 369L678 368z"/></g><g><path class="class-00 leaflet-clickable" stroke-linejoin="round" stroke-linecap="round" fill-rule="evenodd" stroke="#888" stroke-opacity="1" stroke-width="0.5" fill="#f2eee4" fill-opacity="0.5" d="M957 368L957 380L954 386L943 398L937 398L931 404L929 404L928 407L926 407L927 408L921 414L920 413L917 415L914 413L910 407L910 404L907 400L905 400L901 393L898 394L893 391L892 384L894 379L904 374L930 370L934 367L939 367L942 365L957 368z"/></g><g><path class="class-00 leaflet-clickable" stroke-linejoin="round" stroke-linecap="round" fill-rule="evenodd" stroke="#888" stroke-opacity="1" stroke-width="0.5" fill="#f2eee4" fill-opacity="0.5" d="M907 341L910 342L911 344L909 346L906 343L907 341z"/></g><g><path class="class-10 leaflet-clickable" stroke-linejoin="round" stroke-linecap="round" fill-rule="evenodd" stroke="#888" stroke-opacity="1" stroke-width="0.5" fill="#ccdfcc" fill-opacity="0.5" d="M631 355L630 356L632 358L627 359L623 364L619 364L613 361L610 362L608 360L613 352L613 348L619 347L621 345L625 347L624 348L627 348L627 352L631 355z"/></g><g><path class="class-00 leaflet-clickable" stroke-linejoin="round" stroke-linecap="round" fill-rule="evenodd" stroke="#888" stroke-opacity="1" stroke-width="0.5" fill="#f2eee4" fill-opacity="0.5" d="M450 302L448 302L448 297L450 301z"/></g><g><path class="class-00 leaflet-clickable" stroke-linejoin="round" stroke-linecap="round" fill-rule="evenodd" stroke="#888" stroke-opacity="1" stroke-width="0.5" fill="#f2eee4" fill-opacity="0.5" d="M438 293L438 296L437 293z"/></g><g><path class="class-00 leaflet-clickable" stroke-linejoin="round" stroke-linecap="round" fill-rule="evenodd" stroke="#888" stroke-opacity="1" stroke-width="0.5" fill="#f2eee4" fill-opacity="0.5" d="M437 291L437 292z"/></g><g><path class="class-00 leaflet-clickable" stroke-linejoin="round" stroke-linecap="round" fill-rule="evenodd" stroke="#888" stroke-opacity="1" stroke-width="0.5" fill="#f2eee4" fill-opacity="0.5" d="M430 279L433 281L434 284L430 280z"/></g><g><path class="class-00 leaflet-clickable" stroke-linejoin="round" stroke-linecap="round" fill-rule="evenodd" stroke="#888" stroke-opacity="1" stroke-width="0.5" fill="#f2eee4" fill-opacity="0.5" d="M430 273L429 275L430 273z"/></g><g><path class="class-00 leaflet-clickable" stroke-linejoin="round" stroke-linecap="round" fill-rule="evenodd" stroke="#888" stroke-opacity="1" stroke-width="0.5" fill="#f2eee4" fill-opacity="0.5" d="M428 263L429 266L428 264z"/></g><g><path class="class-00 leaflet-clickable" stroke-linejoin="round" stroke-linecap="round" fill-rule="evenodd" stroke="#888" stroke-opacity="1" stroke-width="0.5" fill="#f2eee4" fill-opacity="0.5" d="M422 263L422 265L422 263z"/></g><g><path class="class-00 leaflet-clickable" stroke-linejoin="round" stroke-linecap="round" fill-rule="evenodd" stroke="#888" stroke-opacity="1" stroke-width="0.5" fill="#f2eee4" fill-opacity="0.5" d="M422 254L422 256L420 256L418 260L419 261L418 258L419 255L421 255z"/></g><g><path class="class-00 leaflet-clickable" stroke-linejoin="round" stroke-linecap="round" fill-rule="evenodd" stroke="#888" stroke-opacity="1" stroke-width="0.5" fill="#f2eee4" fill-opacity="0.5" d="M417 252L417 252z"/></g><g><path class="class-00 leaflet-clickable" stroke-linejoin="round" stroke-linecap="round" fill-rule="evenodd" stroke="#888" stroke-opacity="1" stroke-width="0.5" fill="#f2eee4" fill-opacity="0.5" d="M399 224L399 226L398 224z"/></g><g><path class="class-00 leaflet-clickable" stroke-linejoin="round" stroke-linecap="round" fill-rule="evenodd" stroke="#888" stroke-opacity="1" stroke-width="0.5" fill="#f2eee4" fill-opacity="0.5" d="M402 219L401 219z"/></g><g><path class="class-00 leaflet-clickable" stroke-linejoin="round" stroke-linecap="round" fill-rule="evenodd" stroke="#888" stroke-opacity="1" stroke-width="0.5" fill="#f2eee4" fill-opacity="0.5" d="M328 208L328 208z"/></g><g><path class="class-00 leaflet-clickable" stroke-linejoin="round" stroke-linecap="round" fill-rule="evenodd" stroke="#888" stroke-opacity="1" stroke-width="0.5" fill="#f2eee4" fill-opacity="0.5" d="M350 205L383 205L385 212L393 218L396 224L395 225L402 229L400 230L400 232L402 234L404 233L407 235L410 241L413 243L412 244L416 254L416 262L421 268L423 268L424 274L431 285L429 293L432 300L438 302L438 298L441 298L446 302L446 305L450 306L450 308L453 311L453 314L458 317L459 324L455 329L446 334L443 330L441 320L437 316L433 314L421 302L411 297L406 298L396 290L396 287L393 286L398 274L398 261L392 250L385 248L370 236L368 235L365 238L358 231L354 231L351 227L347 227L344 224L343 220L330 209L331 208L343 211L349 208L350 206z"/></g><g><path class="class-11 leaflet-clickable" stroke-linejoin="round" stroke-linecap="round" fill-rule="evenodd" stroke="#888" stroke-opacity="1" stroke-width="0.5" fill="#cbc39a" fill-opacity="0.5" d="M589 238L597 241L599 249L597 252L598 261L594 268L598 272L595 272L594 275L600 281L599 282L606 287L608 287L613 279L617 294L616 296L613 297L609 297L608 295L598 295L586 306L587 315L585 315L585 317L582 319L579 326L578 331L580 336L576 337L576 344L571 347L567 342L565 342L565 340L563 340L561 343L559 341L558 339L562 337L559 333L560 332L552 332L550 328L547 329L545 327L543 322L544 321L541 316L539 317L538 308L540 309L538 307L537 302L532 297L529 297L529 299L525 299L521 289L511 280L509 271L511 269L510 268L515 265L514 264L517 267L521 267L526 263L524 264L524 258L527 257L526 254L531 246L533 236L534 237L536 234L538 237L539 236L542 239L543 238L549 243L557 243L558 245L564 243L569 247L577 235L581 237L586 237z"/></g><g><path class="class-00 leaflet-clickable" stroke-linejoin="round" stroke-linecap="round" fill-rule="evenodd" stroke="#888" stroke-opacity="1" stroke-width="0.5" fill="#f2eee4" fill-opacity="0.5" d="M677 211L680 213L675 216L675 218L679 219L681 228L679 233L683 234L681 238L687 241L686 247L690 250L692 249L693 255L696 253L698 257L700 255L706 255L706 269L709 269L699 279L695 278L692 281L692 287L689 286L685 288L684 291L680 292L680 294L682 294L683 296L681 303L686 309L683 312L677 312L674 317L675 322L672 321L670 323L672 323L671 325L668 325L669 323L667 323L666 325L665 324L666 327L663 326L663 313L661 310L662 304L659 302L660 297L655 292L655 285L657 283L655 282L655 277L657 275L668 276L668 274L664 273L659 268L661 268L656 265L653 254L646 247L656 237L658 240L659 239L661 235L661 229L655 229L654 226L658 222L664 220L665 213L669 210L673 214L675 213z"/></g><g><path class="class-01 leaflet-clickable" stroke-linejoin="round" stroke-linecap="round" fill-rule="evenodd" stroke="#888" stroke-opacity="1" stroke-width="0.5" fill="#f1d2b2" fill-opacity="0.5" d="M724 349L722 351L714 344L712 344L711 346L704 345L702 347L695 345L693 346L685 337L684 341L681 339L677 339L676 337L671 337L673 335L671 332L673 330L671 328L672 323L670 323L672 321L675 322L674 317L677 312L683 312L685 309L685 307L681 303L683 296L680 294L680 292L684 291L685 288L689 286L691 287L693 283L692 281L695 278L698 279L709 270L706 269L706 255L700 255L698 257L696 253L693 255L692 249L690 250L686 247L687 241L681 239L683 234L679 233L681 229L679 219L675 218L675 216L680 213L684 216L686 230L690 234L694 246L696 245L698 247L703 248L703 250L709 250L714 255L727 255L732 260L734 259L733 258L738 257L738 263L731 276L726 294L724 336L722 339L723 348z"/></g><g><path class="class-00 leaflet-clickable" stroke-linejoin="round" stroke-linecap="round" fill-rule="evenodd" stroke="#888" stroke-opacity="1" stroke-width="0.5" fill="#f2eee4" fill-opacity="0.5" d="M695 373L694 376L690 378L689 376L684 386L685 388L677 391L677 398L675 397L675 402L671 404L668 401L668 398L666 398L662 394L660 385L663 382L671 382L672 379L673 380L673 375L679 375L681 373L678 372L680 366L687 370L692 364L694 373z"/></g><g><path class="class-11 leaflet-clickable" stroke-linejoin="round" stroke-linecap="round" fill-rule="evenodd" stroke="#888" stroke-opacity="1" stroke-width="0.5" fill="#cbc39a" fill-opacity="0.5" d="M671 325L673 329L671 331L673 335L671 337L676 337L684 341L685 337L693 346L706 346L712 350L706 357L708 357L708 361L704 365L707 368L707 370L703 372L705 372L704 376L700 376L697 372L694 373L692 364L687 370L685 370L681 366L679 366L679 368L676 369L667 363L665 363L663 367L659 368L655 366L652 362L639 360L643 355L643 351L641 348L644 344L642 339L643 338L640 337L638 341L637 340L636 343L633 344L631 342L631 339L629 340L624 335L622 330L623 328L621 325L623 323L621 323L623 320L625 322L633 320L646 308L646 302L649 301L650 296L652 299L657 295L660 296L659 301L662 303L662 326L665 327L665 324L666 325L667 323L669 323L668 325L670 325z"/></g><g><path class="class-20 leaflet-clickable" stroke-linejoin="round" stroke-linecap="round" fill-rule="evenodd" stroke="#888" stroke-opacity="1" stroke-width="0.5" fill="#95c497" fill-opacity="0.5" d="M655 292L657 295L652 299L650 297L649 301L647 302L646 308L641 313L633 320L628 322L625 322L623 320L621 323L623 323L621 325L625 336L629 340L631 339L631 342L633 344L636 343L640 337L643 338L642 339L644 343L642 344L641 348L643 350L643 355L640 359L639 360L638 358L631 355L627 352L627 348L626 349L621 345L619 347L613 348L613 352L608 359L611 363L611 366L614 368L613 371L611 371L607 375L604 374L604 378L602 379L598 379L591 376L589 372L593 371L593 369L589 369L589 367L593 365L594 362L592 360L602 355L604 350L602 348L601 349L599 345L597 347L598 350L596 350L595 353L589 352L592 349L592 344L591 342L589 342L587 343L586 351L584 347L586 343L585 342L588 341L588 339L585 337L581 338L584 343L581 347L581 343L579 343L577 347L575 346L576 338L580 336L578 331L581 319L586 315L587 316L586 306L590 302L592 302L592 299L594 299L596 295L608 295L611 297L616 296L617 291L613 283L613 280L618 281L617 278L626 279L631 281L633 284L637 285L636 286L638 288L644 286L647 288L648 291L652 293L655 292z"/></g><g><path class="class-20 leaflet-clickable" stroke-linejoin="round" stroke-linecap="round" fill-rule="evenodd" stroke="#888" stroke-opacity="1" stroke-width="0.5" fill="#95c497" fill-opacity="0.5" d="M532 371L531 371z"/></g><g><path class="class-20 leaflet-clickable" stroke-linejoin="round" stroke-linecap="round" fill-rule="evenodd" stroke="#888" stroke-opacity="1" stroke-width="0.5" fill="#95c497" fill-opacity="0.5" d="M527 368L529 369L528 370L526 368z"/></g><g><path class="class-20 leaflet-clickable" stroke-linejoin="round" stroke-linecap="round" fill-rule="evenodd" stroke="#888" stroke-opacity="1" stroke-width="0.5" fill="#95c497" fill-opacity="0.5" d="M522 363L524 363L525 366L523 366L522 364z"/></g><g><path class="class-20 leaflet-clickable" stroke-linejoin="round" stroke-linecap="round" fill-rule="evenodd" stroke="#888" stroke-opacity="1" stroke-width="0.5" fill="#95c497" fill-opacity="0.5" d="M522 361L521 362z"/></g><g><path class="class-20 leaflet-clickable" stroke-linejoin="round" stroke-linecap="round" fill-rule="evenodd" stroke="#888" stroke-opacity="1" stroke-width="0.5" fill="#95c497" fill-opacity="0.5" d="M574 346L576 347L574 356L578 356L579 360L583 361L585 363L584 366L589 370L586 373L587 374L577 376L578 381L574 385L577 387L577 389L566 380L557 382L554 388L552 386L547 386L555 376L555 367L554 368L549 364L545 356L545 349L542 343L543 342L543 344L545 341L550 343L548 339L548 333L551 329L552 332L560 332L559 333L562 337L558 339L560 343L564 340L569 344L570 347L574 345z"/></g><g><path class="class-00 leaflet-clickable" stroke-linejoin="round" stroke-linecap="round" fill-rule="evenodd" stroke="#888" stroke-opacity="1" stroke-width="0.5" fill="#f2eee4" fill-opacity="0.5" d="M463 248L467 248L472 244L473 241L477 239L481 229L487 230L486 233L488 233L491 236L491 245L497 253L506 253L508 256L507 258L513 262L513 264L515 264L512 267L510 267L511 270L509 271L511 275L511 280L513 280L516 286L521 289L524 295L523 296L526 299L529 299L529 297L535 299L537 305L540 308L538 308L539 316L542 317L544 321L543 322L545 324L545 328L551 329L548 333L548 340L549 339L550 342L549 343L545 341L544 344L526 325L525 321L519 315L514 307L496 294L480 274L467 269L464 265L460 265L458 257L463 248z"/></g><g><path class="class-00 leaflet-clickable" stroke-linejoin="round" stroke-linecap="round" fill-rule="evenodd" stroke="#888" stroke-opacity="1" stroke-width="0.5" fill="#f2eee4" fill-opacity="0.5" d="M388 186L387 188L387 186z"/></g><g><path class="class-00 leaflet-clickable" stroke-linejoin="round" stroke-linecap="round" fill-rule="evenodd" stroke="#888" stroke-opacity="1" stroke-width="0.5" fill="#f2eee4" fill-opacity="0.5" d="M394 173L396 179L393 186L388 182L389 175L393 173z"/></g><g><path class="class-00 leaflet-clickable" stroke-linejoin="round" stroke-linecap="round" fill-rule="evenodd" stroke="#888" stroke-opacity="1" stroke-width="0.5" fill="#f2eee4" fill-opacity="0.5" d="M339 106L341 106L340 107z"/></g><g><path class="class-00 leaflet-clickable" stroke-linejoin="round" stroke-linecap="round" fill-rule="evenodd" stroke="#888" stroke-opacity="1" stroke-width="0.5" fill="#f2eee4" fill-opacity="0.5" d="M336 86L416 115L421 118L474 118L473 120L471 120L472 123L475 125L474 126L476 126L473 126L473 129L470 129L470 132L472 135L471 136L478 141L477 144L479 145L477 145L477 158L479 158L479 160L476 160L477 166L475 168L475 182L478 186L480 196L468 198L467 202L471 209L470 210L474 213L476 217L478 222L476 224L479 231L482 231L476 239L476 241L474 241L471 244L471 246L463 248L463 244L461 241L456 238L451 238L447 229L439 227L435 223L432 223L433 209L431 207L430 208L426 206L426 208L424 208L424 206L418 204L412 195L408 193L402 186L403 184L396 180L396 173L394 170L393 171L391 169L392 167L388 162L386 156L383 155L383 148L375 134L376 122L370 119L363 118L363 114L358 110L350 113L341 106L334 103L332 96L333 95L331 93L333 91L333 87L336 87zM427 205L427 206z"/></g><g><path class="class-12 leaflet-clickable" stroke-linejoin="round" stroke-linecap="round" fill-rule="evenodd" stroke="#888" stroke-opacity="1" stroke-width="0.5" fill="#c0976b" fill-opacity="0.5" d="M598 179L590 191L591 192L585 202L585 207L584 206L583 209L585 209L585 223L587 224L588 229L586 234L589 236L589 238L577 235L575 236L576 237L569 247L565 243L559 245L557 243L552 244L551 242L550 243L544 240L543 238L542 239L539 236L538 237L536 234L535 237L533 237L534 238L531 242L531 246L526 253L527 257L524 258L524 264L526 262L522 267L518 267L507 258L508 257L505 252L497 253L495 251L491 245L491 237L488 233L486 233L486 229L480 231L478 230L479 229L478 230L478 227L476 225L478 222L476 219L477 217L475 216L474 212L470 210L472 209L467 202L467 198L480 196L480 192L475 181L476 176L474 174L474 172L476 172L475 168L477 166L476 160L479 159L477 157L477 145L479 146L476 138L472 137L470 133L470 130L473 129L473 126L476 126L474 126L475 125L472 123L473 121L471 121L474 118L487 118L487 106L490 105L527 106L532 113L535 116L537 116L548 128L558 135L560 135L560 137L562 137L563 143L567 148L567 156L570 159L570 161L574 165L578 166L577 167L580 170L587 172L598 179z"/></g><g><path class="class-00 leaflet-clickable" stroke-linejoin="round" stroke-linecap="round" fill-rule="evenodd" stroke="#888" stroke-opacity="1" stroke-width="0.5" fill="#f2eee4" fill-opacity="0.5" d="M677 211L673 215L669 210L665 213L664 220L658 222L654 226L655 229L661 229L661 235L659 239L658 240L656 237L646 247L655 258L654 261L658 267L661 268L659 268L663 271L663 273L668 273L668 276L657 275L655 277L655 281L657 283L655 285L654 292L652 293L644 286L638 288L636 286L637 285L623 278L617 278L618 281L613 279L608 288L599 282L600 281L594 275L594 273L596 271L597 272L594 268L598 262L597 252L599 249L597 241L589 238L589 236L586 233L588 230L584 210L585 209L583 209L583 206L585 206L585 203L591 192L590 191L598 179L602 180L603 177L607 173L608 174L607 172L609 170L610 164L614 159L618 159L621 156L632 159L640 158L642 162L644 162L644 164L645 163L645 165L658 176L662 188L666 193L665 194L677 210z"/></g><g><path class="class-22 leaflet-clickable" stroke-linejoin="round" stroke-linecap="round" fill-rule="evenodd" stroke="#888" stroke-opacity="1" stroke-width="0.5" fill="#897c36" fill-opacity="0.5" d="M813 473L807 489L809 492L808 496L810 500L804 497L794 495L782 496L777 501L773 501L763 506L762 505L759 508L750 508L741 505L738 502L724 501L714 494L707 493L711 490L710 487L715 485L714 484L717 481L717 477L719 475L714 474L713 470L712 471L712 464L708 460L709 456L713 454L714 455L716 453L720 453L723 455L725 452L724 451L723 453L722 448L727 445L729 452L736 448L741 449L748 443L749 437L755 440L760 449L768 449L769 454L767 459L771 463L774 464L780 459L782 459L783 460L781 462L785 467L790 470L789 471L808 473z"/></g><g><path class="class-22 leaflet-clickable" stroke-linejoin="round" stroke-linecap="round" fill-rule="evenodd" stroke="#888" stroke-opacity="1" stroke-width="0.5" fill="#897c36" fill-opacity="0.5" d="M748 443L744 447L739 449L736 448L731 452L729 452L727 446L723 446L723 453L725 451L726 452L724 452L721 455L719 453L715 453L715 455L710 456L709 453L705 454L695 446L695 444L698 441L703 442L702 434L705 428L704 417L706 417L715 426L718 423L721 425L723 422L727 421L724 417L721 416L722 415L720 413L718 413L718 411L713 412L714 411L712 408L717 401L715 398L712 398L715 397L721 390L722 384L725 385L725 389L729 392L724 395L726 397L725 400L729 402L732 398L738 401L732 416L734 418L733 419L742 422L740 424L741 425L737 424L734 437L735 436L740 441L744 439L748 443z"/></g><g><path class="class-22 leaflet-clickable" stroke-linejoin="round" stroke-linecap="round" fill-rule="evenodd" stroke="#888" stroke-opacity="1" stroke-width="0.5" fill="#897c36" fill-opacity="0.5" d="M685 435L689 441L693 441L695 446L700 450L699 451L702 452L700 452L703 454L709 454L708 460L712 464L712 471L713 470L714 473L718 475L717 480L714 484L715 485L711 487L710 491L706 493L701 487L699 488L689 484L681 484L673 478L649 470L650 469L645 465L641 464L632 455L624 452L625 448L631 445L631 439L633 438L637 438L637 440L639 441L655 441L657 443L658 442L658 444L659 441L657 441L656 439L655 432L658 433L660 431L663 434L662 437L667 444L673 438L677 438L681 434L684 436z"/></g><g><path class="class-02 leaflet-clickable" stroke-linejoin="round" stroke-linecap="round" fill-rule="evenodd" stroke="#888" stroke-opacity="1" stroke-width="0.5" fill="#e6a583" fill-opacity="0.5" d="M677 398L682 401L685 400L685 407L688 409L687 410L691 407L691 405L696 405L696 403L697 409L699 407L702 407L705 410L703 414L705 418L705 428L700 430L697 427L697 421L695 419L694 414L688 421L690 425L689 430L686 431L687 433L684 436L680 434L681 435L679 435L677 438L673 438L667 444L663 439L664 438L662 437L663 434L660 431L669 418L667 412L670 411L670 403L674 403L674 399L676 398z"/></g><g><path class="class-10 leaflet-clickable" stroke-linejoin="round" stroke-linecap="round" fill-rule="evenodd" stroke="#888" stroke-opacity="1" stroke-width="0.5" fill="#ccdfcc" fill-opacity="0.5" d="M665 397L669 399L668 401L671 404L670 405L672 408L670 408L668 412L669 419L666 420L664 426L658 433L655 432L656 439L659 441L659 444L655 441L652 442L650 440L644 439L640 441L634 438L631 439L630 441L631 446L624 449L624 455L594 445L588 436L594 429L599 428L602 430L605 427L605 425L606 426L606 424L611 422L612 423L614 421L615 417L611 417L612 415L609 410L611 408L610 406L604 405L604 402L607 401L606 400L611 401L617 396L624 395L628 395L627 396L629 396L631 400L635 400L636 397L640 396L640 398L643 399L641 399L641 402L643 404L647 404L647 402L649 402L652 406L662 406L665 405L664 402L666 398z"/></g><g><path class="class-00 leaflet-clickable" stroke-linejoin="round" stroke-linecap="round" fill-rule="evenodd" stroke="#888" stroke-opacity="1" stroke-width="0.5" fill="#f2eee4" fill-opacity="0.5" d="M338 444L338 444z"/></g><g><path class="class-00 leaflet-clickable" stroke-linejoin="round" stroke-linecap="round" fill-rule="evenodd" stroke="#888" stroke-opacity="1" stroke-width="0.5" fill="#f2eee4" fill-opacity="0.5" d="M423 432L425 434L424 435L422 433L423 432z"/></g><g><path class="class-00 leaflet-clickable" stroke-linejoin="round" stroke-linecap="round" fill-rule="evenodd" stroke="#888" stroke-opacity="1" stroke-width="0.5" fill="#f2eee4" fill-opacity="0.5" d="M594 429L588 436L574 426L567 424L568 425L571 422L572 423L580 421L579 420L581 416L586 419L590 416L594 420L594 429z"/></g><g><path class="class-00 leaflet-clickable" stroke-linejoin="round" stroke-linecap="round" fill-rule="evenodd" stroke="#888" stroke-opacity="1" stroke-width="0.5" fill="#f2eee4" fill-opacity="0.5" d="M427 422L427 421z"/></g><g><path class="class-00 leaflet-clickable" stroke-linejoin="round" stroke-linecap="round" fill-rule="evenodd" stroke="#888" stroke-opacity="1" stroke-width="0.5" fill="#f2eee4" fill-opacity="0.5" d="M611 362L613 361L621 365L631 358L632 357L630 357L632 355L634 355L639 361L637 361L638 362L636 367L638 370L636 370L636 372L633 374L633 376L626 385L629 388L626 394L624 396L618 396L609 402L608 400L604 402L604 405L606 404L611 407L611 409L609 410L612 415L611 416L616 417L613 423L611 422L607 424L602 430L600 428L594 429L594 421L590 416L586 419L581 416L579 421L572 423L571 422L568 425L564 423L564 421L563 422L560 420L558 415L556 415L548 404L544 394L552 392L554 390L553 388L555 385L556 386L558 382L563 380L570 382L577 390L576 385L574 385L578 381L577 376L587 374L586 373L589 370L584 365L585 363L583 361L579 361L578 357L574 355L576 347L578 345L579 346L578 343L581 344L580 347L584 344L581 339L582 337L588 339L588 341L585 342L586 343L584 347L586 351L586 347L589 341L592 343L589 352L590 353L594 353L596 350L598 350L597 347L599 345L601 347L600 348L604 350L602 356L598 356L594 360L592 360L594 362L593 365L589 367L589 369L593 369L594 371L589 373L591 373L592 377L602 379L604 374L607 375L611 371L612 372L614 368L610 365L611 363z"/></g></svg>