<svg xmlns="http://www.w3.org/2000/svg" width="700" height="320" style="overflow: hidden;"><defs><clipPath id="c3-1443633514952-clip"><rect width="629" height="286"/></clipPath><clipPath id="c3-1443633514952-clip-xaxis"><rect x="-41" y="-20" width="702" height="50"/></clipPath><clipPath id="c3-1443633514952-clip-yaxis"><rect x="-39" y="-4" width="60" height="310"/></clipPath><clipPath id="c3-1443633514952-clip-grid"><rect width="629" height="286"/></clipPath><clipPath id="c3-1443633514952-clip-subchart"><rect width="629"/></clipPath></defs><g transform="translate(40.5,4.5)"><text class="c3-text c3-empty" text-anchor="middle" dominant-baseline="middle" x="314.5" y="143" style="opacity: 0;"/><rect class="c3-zoom-rect" width="629" height="286" style="opacity: 0;"/><g clip-path="url(http://pnud.carto.mx/explora?o=8&amp;i=i19#c3-1443633514952-clip)" class="c3-regions" style="visibility: visible;"/><g clip-path="url(http://pnud.carto.mx/explora?o=8&amp;i=i19#c3-1443633514952-clip-grid)" class="c3-grid" style="visibility: visible;"><g class="c3-ygrids"><line class="c3-ygrid" x1="0" x2="629" y1="263" y2="263"/><line class="c3-ygrid" x1="0" x2="629" y1="237" y2="237"/><line class="c3-ygrid" x1="0" x2="629" y1="211" y2="211"/><line class="c3-ygrid" x1="0" x2="629" y1="185" y2="185"/><line class="c3-ygrid" x1="0" x2="629" y1="159" y2="159"/><line class="c3-ygrid" x1="0" x2="629" y1="134" y2="134"/><line class="c3-ygrid" x1="0" x2="629" y1="108" y2="108"/><line class="c3-ygrid" x1="0" x2="629" y1="82" y2="82"/><line class="c3-ygrid" x1="0" x2="629" y1="56" y2="56"/><line class="c3-ygrid" x1="0" x2="629" y1="30" y2="30"/><line class="c3-ygrid" x1="0" x2="629" y1="5" y2="5"/></g><g class="c3-xgrid-focus"><line class="c3-xgrid-focus" x1="-10" x2="-10" y1="0" y2="286" style="visibility: hidden;"/></g></g><g clip-path="url(http://pnud.carto.mx/explora?o=8&amp;i=i19#c3-1443633514952-clip)" class="c3-chart"><g class="c3-event-rects c3-event-rects-single" style="fill-opacity: 0;"><rect class=" c3-event-rect c3-event-rect-0" x="3.5" y="0" width="25.5" height="286"/><rect class=" c3-event-rect c3-event-rect-1" x="29" y="0" width="44" height="286"/><rect class=" c3-event-rect c3-event-rect-2" x="73" y="0" width="44" height="286"/><rect class=" c3-event-rect c3-event-rect-3" x="117" y="0" width="44" height="286"/><rect class=" c3-event-rect c3-event-rect-4" x="161" y="0" width="44" height="286"/><rect class=" c3-event-rect c3-event-rect-5" x="205" y="0" width="44" height="286"/><rect class=" c3-event-rect c3-event-rect-6" x="249" y="0" width="44" height="286"/><rect class=" c3-event-rect c3-event-rect-7" x="293" y="0" width="44" height="286"/><rect class=" c3-event-rect c3-event-rect-8" x="337" y="0" width="44" height="286"/><rect class=" c3-event-rect c3-event-rect-9" x="381" y="0" width="44" height="286"/><rect class=" c3-event-rect c3-event-rect-10" x="425" y="0" width="44" height="286"/><rect class=" c3-event-rect c3-event-rect-11" x="469" y="0" width="44" height="286"/><rect class=" c3-event-rect c3-event-rect-12" x="513" y="0" width="44" height="286"/><rect class=" c3-event-rect c3-event-rect-13" x="557" y="0" width="44" height="286"/><rect class=" c3-event-rect c3-event-rect-14" x="601" y="0" width="25" height="286"/></g><g class="c3-chart-bars"><g class="c3-chart-bar c3-target c3-target-México" style="opacity: 1; pointer-events: none;"><g class=" c3-shapes c3-shapes-México c3-bars c3-bars-México" style="cursor: pointer;"/></g><g class="c3-chart-bar c3-target c3-target-Promedio-nacional" style="opacity: 1; pointer-events: none;"><g class=" c3-shapes c3-shapes-Promedio-nacional c3-bars c3-bars-Promedio-nacional" style="cursor: pointer;"/></g></g><g class="c3-chart-lines"><g class="c3-chart-line c3-target c3-target-México" style="opacity: 1; pointer-events: none;"><g class=" c3-shapes c3-shapes-México c3-lines c3-lines-México"><path class=" c3-shape c3-shape c3-line c3-line-México" d="M7,257.0869565217391L51,262.24999999999994L95,257.0869565217391L139,251.92391304347828L183,241.59782608695653L227,220.94565217391303L271,200.29347826086956L315,174.47826086956525L359,122.84782608695652L403,81.54347826086958L447,50.56521739130435L491,45.40217391304349L535,35.076086956521735L579,40.23913043478262L623,24.75000000000001" style="stroke: rgb(204, 204, 204); opacity: 1; fill-opacity: 0; stroke-opacity: 1;"/></g><g class=" c3-shapes c3-shapes-México c3-areas c3-areas-México"><path class=" c3-shape c3-shape c3-area c3-area-México" d="M 7 257.0869565217391" style="fill: rgb(204, 204, 204); opacity: 0.200000002980232;"/></g><g class=" c3-selected-circles c3-selected-circles-México"/><g class=" c3-shapes c3-shapes-México c3-circles c3-circles-México" style="cursor: pointer;"><circle class=" c3-shape c3-shape-0 c3-circle c3-circle-0" r="2.5" cx="7" cy="257.0869565217391" style="fill: rgb(204, 204, 204); opacity: 1;"/><circle class=" c3-shape c3-shape-1 c3-circle c3-circle-1" r="2.5" cx="51" cy="262.24999999999994" style="fill: rgb(204, 204, 204); opacity: 1;"/><circle class=" c3-shape c3-shape-2 c3-circle c3-circle-2" r="2.5" cx="95" cy="257.0869565217391" style="fill: rgb(204, 204, 204); opacity: 1;"/><circle class=" c3-shape c3-shape-3 c3-circle c3-circle-3" r="2.5" cx="139" cy="251.92391304347828" style="fill: rgb(204, 204, 204); opacity: 1;"/><circle class=" c3-shape c3-shape-4 c3-circle c3-circle-4" r="2.5" cx="183" cy="241.59782608695653" style="fill: rgb(204, 204, 204); opacity: 1;"/><circle class=" c3-shape c3-shape-5 c3-circle c3-circle-5" r="2.5" cx="227" cy="220.94565217391303" style="fill: rgb(204, 204, 204); opacity: 1;"/><circle class=" c3-shape c3-shape-6 c3-circle c3-circle-6" r="2.5" cx="271" cy="200.29347826086956" style="fill: rgb(204, 204, 204); opacity: 1;"/><circle class=" c3-shape c3-shape-7 c3-circle c3-circle-7" r="2.5" cx="315" cy="174.47826086956525" style="fill: rgb(204, 204, 204); opacity: 1;"/><circle class=" c3-shape c3-shape-8 c3-circle c3-circle-8" r="2.5" cx="359" cy="122.84782608695652" style="fill: rgb(204, 204, 204); opacity: 1;"/><circle class=" c3-shape c3-shape-9 c3-circle c3-circle-9" r="2.5" cx="403" cy="81.54347826086958" style="fill: rgb(204, 204, 204); opacity: 1;"/><circle class=" c3-shape c3-shape-10 c3-circle c3-circle-10" r="2.5" cx="447" cy="50.56521739130435" style="fill: rgb(204, 204, 204); opacity: 1;"/><circle class=" c3-shape c3-shape-11 c3-circle c3-circle-11" r="2.5" cx="491" cy="45.40217391304349" style="fill: rgb(204, 204, 204); opacity: 1;"/><circle class=" c3-shape c3-shape-12 c3-circle c3-circle-12" r="2.5" cx="535" cy="35.076086956521735" style="fill: rgb(204, 204, 204); opacity: 1;"/><circle class=" c3-shape c3-shape-13 c3-circle c3-circle-13" r="2.5" cx="579" cy="40.23913043478262" style="fill: rgb(204, 204, 204); opacity: 1;"/><circle class=" c3-shape c3-shape-14 c3-circle c3-circle-14" r="2.5" cx="623" cy="24.75000000000001" style="fill: rgb(204, 204, 204); opacity: 1;"/></g></g><g class="c3-chart-line c3-target c3-target-Promedio-nacional" style="opacity: 1; pointer-events: none;"><g class=" c3-shapes c3-shapes-Promedio-nacional c3-lines c3-lines-Promedio-nacional"><path class=" c3-shape c3-shape c3-line c3-line-Promedio-nacional" d="M7,257.0869565217391L51,262.24999999999994L95,257.0869565217391L139,251.92391304347828L183,241.59782608695653L227,220.94565217391303L271,200.29347826086956L315,174.47826086956525L359,122.84782608695652L403,81.54347826086958L447,50.56521739130435L491,45.40217391304349L535,35.076086956521735L579,40.23913043478262L623,24.75000000000001" style="stroke: rgb(255, 0, 0); opacity: 1; fill-opacity: 0; stroke-opacity: 1;"/></g><g class=" c3-shapes c3-shapes-Promedio-nacional c3-areas c3-areas-Promedio-nacional"><path class=" c3-shape c3-shape c3-area c3-area-Promedio-nacional" d="M 7 257.0869565217391" style="fill: rgb(255, 0, 0); opacity: 0.200000002980232;"/></g><g class=" c3-selected-circles c3-selected-circles-Promedio-nacional"/><g class=" c3-shapes c3-shapes-Promedio-nacional c3-circles c3-circles-Promedio-nacional" style="cursor: pointer;"><circle class=" c3-shape c3-shape-0 c3-circle c3-circle-0" r="2.5" cx="7" cy="257.0869565217391" style="fill: rgb(255, 0, 0); opacity: 1;"/><circle class=" c3-shape c3-shape-1 c3-circle c3-circle-1" r="2.5" cx="51" cy="262.24999999999994" style="fill: rgb(255, 0, 0); opacity: 1;"/><circle class=" c3-shape c3-shape-2 c3-circle c3-circle-2" r="2.5" cx="95" cy="257.0869565217391" style="fill: rgb(255, 0, 0); opacity: 1;"/><circle class=" c3-shape c3-shape-3 c3-circle c3-circle-3" r="2.5" cx="139" cy="251.92391304347828" style="fill: rgb(255, 0, 0); opacity: 1;"/><circle class=" c3-shape c3-shape-4 c3-circle c3-circle-4" r="2.5" cx="183" cy="241.59782608695653" style="fill: rgb(255, 0, 0); opacity: 1;"/><circle class=" c3-shape c3-shape-5 c3-circle c3-circle-5" r="2.5" cx="227" cy="220.94565217391303" style="fill: rgb(255, 0, 0); opacity: 1;"/><circle class=" c3-shape c3-shape-6 c3-circle c3-circle-6" r="2.5" cx="271" cy="200.29347826086956" style="fill: rgb(255, 0, 0); opacity: 1;"/><circle class=" c3-shape c3-shape-7 c3-circle c3-circle-7" r="2.5" cx="315" cy="174.47826086956525" style="fill: rgb(255, 0, 0); opacity: 1;"/><circle class=" c3-shape c3-shape-8 c3-circle c3-circle-8" r="2.5" cx="359" cy="122.84782608695652" style="fill: rgb(255, 0, 0); opacity: 1;"/><circle class=" c3-shape c3-shape-9 c3-circle c3-circle-9" r="2.5" cx="403" cy="81.54347826086958" style="fill: rgb(255, 0, 0); opacity: 1;"/><circle class=" c3-shape c3-shape-10 c3-circle c3-circle-10" r="2.5" cx="447" cy="50.56521739130435" style="fill: rgb(255, 0, 0); opacity: 1;"/><circle class=" c3-shape c3-shape-11 c3-circle c3-circle-11" r="2.5" cx="491" cy="45.40217391304349" style="fill: rgb(255, 0, 0); opacity: 1;"/><circle class=" c3-shape c3-shape-12 c3-circle c3-circle-12" r="2.5" cx="535" cy="35.076086956521735" style="fill: rgb(255, 0, 0); opacity: 1;"/><circle class=" c3-shape c3-shape-13 c3-circle c3-circle-13" r="2.5" cx="579" cy="40.23913043478262" style="fill: rgb(255, 0, 0); opacity: 1;"/><circle class=" c3-shape c3-shape-14 c3-circle c3-circle-14" r="2.5" cx="623" cy="24.75000000000001" style="fill: rgb(255, 0, 0); opacity: 1;"/></g></g></g><g class="c3-chart-arcs" transform="translate(314.5,138)"><text class="c3-chart-arcs-title" style="text-anchor: middle; opacity: 0;"/></g><g class="c3-chart-texts"><g class="c3-chart-text c3-target c3-target-México" style="opacity: 1; pointer-events: none;"><g class=" c3-texts c3-texts-México"/></g><g class="c3-chart-text c3-target c3-target-Promedio-nacional" style="opacity: 1; pointer-events: none;"><g class=" c3-texts c3-texts-Promedio-nacional"/></g></g></g><g clip-path="url(http://pnud.carto.mx/explora?o=8&amp;i=i19#c3-1443633514952-clip-grid)" class="c3-grid c3-grid-lines"><g class="c3-xgrid-lines"/><g class="c3-ygrid-lines"/></g><g class="c3-axis c3-axis-x" clip-path="url(http://pnud.carto.mx/explora?o=8&amp;i=i19#c3-1443633514952-clip-xaxis)" transform="translate(0,286)" style="visibility: visible; opacity: 1;"><text class="c3-axis-x-label" transform="" x="629" dx="-0.5em" dy="-0.5em" style="text-anchor: end; font-family: 'Open Sans', Arial, sans-serif;"/><g class="tick" transform="translate(7, 0)" style="opacity: 1;"><line y2="6" x1="0" x2="0" style="stroke: rgb(239, 239, 239);"/><text y="9" x="0" transform="" style="text-anchor: middle; display: block; font-family: 'Open Sans', Arial, sans-serif;"><tspan x="0" dy=".71em" dx="0">2000</tspan></text></g><g class="tick" transform="translate(51, 0)" style="opacity: 1;"><line y2="6" x1="0" x2="0" style="stroke: rgb(239, 239, 239);"/><text y="9" x="0" transform="" style="text-anchor: middle; display: none; font-family: 'Open Sans', Arial, sans-serif;"><tspan x="0" dy=".71em" dx="0">2001</tspan></text></g><g class="tick" transform="translate(95, 0)" style="opacity: 1;"><line y2="6" x1="0" x2="0" style="stroke: rgb(239, 239, 239);"/><text y="9" x="0" transform="" style="text-anchor: middle; display: block; font-family: 'Open Sans', Arial, sans-serif;"><tspan x="0" dy=".71em" dx="0">2002</tspan></text></g><g class="tick" transform="translate(139, 0)" style="opacity: 1;"><line y2="6" x1="0" x2="0" style="stroke: rgb(239, 239, 239);"/><text y="9" x="0" transform="" style="text-anchor: middle; display: none; font-family: 'Open Sans', Arial, sans-serif;"><tspan x="0" dy=".71em" dx="0">2003</tspan></text></g><g class="tick" transform="translate(183, 0)" style="opacity: 1;"><line y2="6" x1="0" x2="0" style="stroke: rgb(239, 239, 239);"/><text y="9" x="0" transform="" style="text-anchor: middle; display: block; font-family: 'Open Sans', Arial, sans-serif;"><tspan x="0" dy=".71em" dx="0">2004</tspan></text></g><g class="tick" transform="translate(227, 0)" style="opacity: 1;"><line y2="6" x1="0" x2="0" style="stroke: rgb(239, 239, 239);"/><text y="9" x="0" transform="" style="text-anchor: middle; display: none; font-family: 'Open Sans', Arial, sans-serif;"><tspan x="0" dy=".71em" dx="0">2005</tspan></text></g><g class="tick" transform="translate(271, 0)" style="opacity: 1;"><line y2="6" x1="0" x2="0" style="stroke: rgb(239, 239, 239);"/><text y="9" x="0" transform="" style="text-anchor: middle; display: block; font-family: 'Open Sans', Arial, sans-serif;"><tspan x="0" dy=".71em" dx="0">2006</tspan></text></g><g class="tick" transform="translate(315, 0)" style="opacity: 1;"><line y2="6" x1="0" x2="0" style="stroke: rgb(239, 239, 239);"/><text y="9" x="0" transform="" style="text-anchor: middle; display: none; font-family: 'Open Sans', Arial, sans-serif;"><tspan x="0" dy=".71em" dx="0">2007</tspan></text></g><g class="tick" transform="translate(359, 0)" style="opacity: 1;"><line y2="6" x1="0" x2="0" style="stroke: rgb(239, 239, 239);"/><text y="9" x="0" transform="" style="text-anchor: middle; display: block; font-family: 'Open Sans', Arial, sans-serif;"><tspan x="0" dy=".71em" dx="0">2008</tspan></text></g><g class="tick" transform="translate(403, 0)" style="opacity: 1;"><line y2="6" x1="0" x2="0" style="stroke: rgb(239, 239, 239);"/><text y="9" x="0" transform="" style="text-anchor: middle; display: none; font-family: 'Open Sans', Arial, sans-serif;"><tspan x="0" dy=".71em" dx="0">2009</tspan></text></g><g class="tick" transform="translate(447, 0)" style="opacity: 1;"><line y2="6" x1="0" x2="0" style="stroke: rgb(239, 239, 239);"/><text y="9" x="0" transform="" style="text-anchor: middle; display: block; font-family: 'Open Sans', Arial, sans-serif;"><tspan x="0" dy=".71em" dx="0">2010</tspan></text></g><g class="tick" transform="translate(491, 0)" style="opacity: 1;"><line y2="6" x1="0" x2="0" style="stroke: rgb(239, 239, 239);"/><text y="9" x="0" transform="" style="text-anchor: middle; display: none; font-family: 'Open Sans', Arial, sans-serif;"><tspan x="0" dy=".71em" dx="0">2011</tspan></text></g><g class="tick" transform="translate(535, 0)" style="opacity: 1;"><line y2="6" x1="0" x2="0" style="stroke: rgb(239, 239, 239);"/><text y="9" x="0" transform="" style="text-anchor: middle; display: block; font-family: 'Open Sans', Arial, sans-serif;"><tspan x="0" dy=".71em" dx="0">2012</tspan></text></g><g class="tick" transform="translate(579, 0)" style="opacity: 1;"><line y2="6" x1="0" x2="0" style="stroke: rgb(239, 239, 239);"/><text y="9" x="0" transform="" style="text-anchor: middle; display: none; font-family: 'Open Sans', Arial, sans-serif;"><tspan x="0" dy=".71em" dx="0">2013</tspan></text></g><g class="tick" transform="translate(623, 0)" style="opacity: 1;"><line y2="6" x1="0" x2="0" style="stroke: rgb(239, 239, 239);"/><text y="9" x="0" transform="" style="text-anchor: middle; display: block; font-family: 'Open Sans', Arial, sans-serif;"><tspan x="0" dy=".71em" dx="0">2014</tspan></text></g><path class="domain" d="M0,6V0H629V6" style="fill-opacity: 0; stroke: rgb(204, 204, 204);"/></g><g class="c3-axis c3-axis-y" clip-path="url(http://pnud.carto.mx/explora?o=8&amp;i=i19#c3-1443633514952-clip-yaxis)" transform="translate(0,0)" style="visibility: visible; opacity: 1;"><text class="c3-axis-y-label" transform="rotate(-90)" x="0" dx="-0.5em" dy="1.2em" style="text-anchor: end; font-family: 'Open Sans', Arial, sans-serif;"/><g class="tick" transform="translate(0,263)" style="opacity: 1;"><line x2="-6" style="stroke: rgb(239, 239, 239);"/><text x="-9" y="0" style="text-anchor: end; font-family: 'Open Sans', Arial, sans-serif;"><tspan x="-9" dy="3">0.0</tspan></text></g><g class="tick" transform="translate(0,237)" style="opacity: 1;"><line x2="-6" style="stroke: rgb(239, 239, 239);"/><text x="-9" y="0" style="text-anchor: end; font-family: 'Open Sans', Arial, sans-serif;"><tspan x="-9" dy="3">5.0</tspan></text></g><g class="tick" transform="translate(0,211)" style="opacity: 1;"><line x2="-6" style="stroke: rgb(239, 239, 239);"/><text x="-9" y="0" style="text-anchor: end; font-family: 'Open Sans', Arial, sans-serif;"><tspan x="-9" dy="3">10</tspan></text></g><g class="tick" transform="translate(0,185)" style="opacity: 1;"><line x2="-6" style="stroke: rgb(239, 239, 239);"/><text x="-9" y="0" style="text-anchor: end; font-family: 'Open Sans', Arial, sans-serif;"><tspan x="-9" dy="3">15</tspan></text></g><g class="tick" transform="translate(0,159)" style="opacity: 1;"><line x2="-6" style="stroke: rgb(239, 239, 239);"/><text x="-9" y="0" style="text-anchor: end; font-family: 'Open Sans', Arial, sans-serif;"><tspan x="-9" dy="3">20</tspan></text></g><g class="tick" transform="translate(0,134)" style="opacity: 1;"><line x2="-6" style="stroke: rgb(239, 239, 239);"/><text x="-9" y="0" style="text-anchor: end; font-family: 'Open Sans', Arial, sans-serif;"><tspan x="-9" dy="3">25</tspan></text></g><g class="tick" transform="translate(0,108)" style="opacity: 1;"><line x2="-6" style="stroke: rgb(239, 239, 239);"/><text x="-9" y="0" style="text-anchor: end; font-family: 'Open Sans', Arial, sans-serif;"><tspan x="-9" dy="3">30</tspan></text></g><g class="tick" transform="translate(0,82)" style="opacity: 1;"><line x2="-6" style="stroke: rgb(239, 239, 239);"/><text x="-9" y="0" style="text-anchor: end; font-family: 'Open Sans', Arial, sans-serif;"><tspan x="-9" dy="3">35</tspan></text></g><g class="tick" transform="translate(0,56)" style="opacity: 1;"><line x2="-6" style="stroke: rgb(239, 239, 239);"/><text x="-9" y="0" style="text-anchor: end; font-family: 'Open Sans', Arial, sans-serif;"><tspan x="-9" dy="3">40</tspan></text></g><g class="tick" transform="translate(0,30)" style="opacity: 1;"><line x2="-6" style="stroke: rgb(239, 239, 239);"/><text x="-9" y="0" style="text-anchor: end; font-family: 'Open Sans', Arial, sans-serif;"><tspan x="-9" dy="3">45</tspan></text></g><g class="tick" transform="translate(0,5)" style="opacity: 1;"><line x2="-6" style="stroke: rgb(239, 239, 239);"/><text x="-9" y="0" style="text-anchor: end; font-family: 'Open Sans', Arial, sans-serif;"><tspan x="-9" dy="3">50</tspan></text></g><path class="domain" d="M-6,1H0V286H-6" style="fill-opacity: 0; stroke: rgb(204, 204, 204);"/></g><g class="c3-axis c3-axis-y2" transform="translate(629,0)" style="visibility: hidden; opacity: 1;"><text class="c3-axis-y2-label" transform="rotate(-90)" x="0" dx="-0.5em" dy="-0.5em" style="text-anchor: end; font-family: 'Open Sans', Arial, sans-serif;"/><g class="tick" transform="translate(0,286)" style="opacity: 1;"><line x2="6" y2="0" style="stroke: rgb(239, 239, 239);"/><text x="9" y="0" style="text-anchor: start; font-family: 'Open Sans', Arial, sans-serif;"><tspan x="9" dy="3">0</tspan></text></g><g class="tick" transform="translate(0,258)" style="opacity: 1;"><line x2="6" y2="0" style="stroke: rgb(239, 239, 239);"/><text x="9" y="0" style="text-anchor: start; font-family: 'Open Sans', Arial, sans-serif;"><tspan x="9" dy="3">0.1</tspan></text></g><g class="tick" transform="translate(0,229)" style="opacity: 1;"><line x2="6" y2="0" style="stroke: rgb(239, 239, 239);"/><text x="9" y="0" style="text-anchor: start; font-family: 'Open Sans', Arial, sans-serif;"><tspan x="9" dy="3">0.2</tspan></text></g><g class="tick" transform="translate(0,201)" style="opacity: 1;"><line x2="6" y2="0" style="stroke: rgb(239, 239, 239);"/><text x="9" y="0" style="text-anchor: start; font-family: 'Open Sans', Arial, sans-serif;"><tspan x="9" dy="3">0.3</tspan></text></g><g class="tick" transform="translate(0,172)" style="opacity: 1;"><line x2="6" y2="0" style="stroke: rgb(239, 239, 239);"/><text x="9" y="0" style="text-anchor: start; font-family: 'Open Sans', Arial, sans-serif;"><tspan x="9" dy="3">0.4</tspan></text></g><g class="tick" transform="translate(0,144)" style="opacity: 1;"><line x2="6" y2="0" style="stroke: rgb(239, 239, 239);"/><text x="9" y="0" style="text-anchor: start; font-family: 'Open Sans', Arial, sans-serif;"><tspan x="9" dy="3">0.5</tspan></text></g><g class="tick" transform="translate(0,115)" style="opacity: 1;"><line x2="6" y2="0" style="stroke: rgb(239, 239, 239);"/><text x="9" y="0" style="text-anchor: start; font-family: 'Open Sans', Arial, sans-serif;"><tspan x="9" dy="3">0.6</tspan></text></g><g class="tick" transform="translate(0,87)" style="opacity: 1;"><line x2="6" y2="0" style="stroke: rgb(239, 239, 239);"/><text x="9" y="0" style="text-anchor: start; font-family: 'Open Sans', Arial, sans-serif;"><tspan x="9" dy="3">0.7</tspan></text></g><g class="tick" transform="translate(0,58)" style="opacity: 1;"><line x2="6" y2="0" style="stroke: rgb(239, 239, 239);"/><text x="9" y="0" style="text-anchor: start; font-family: 'Open Sans', Arial, sans-serif;"><tspan x="9" dy="3">0.8</tspan></text></g><g class="tick" transform="translate(0,30)" style="opacity: 1;"><line x2="6" y2="0" style="stroke: rgb(239, 239, 239);"/><text x="9" y="0" style="text-anchor: start; font-family: 'Open Sans', Arial, sans-serif;"><tspan x="9" dy="3">0.9</tspan></text></g><g class="tick" transform="translate(0,1)" style="opacity: 1;"><line x2="6" y2="0" style="stroke: rgb(239, 239, 239);"/><text x="9" y="0" style="text-anchor: start; font-family: 'Open Sans', Arial, sans-serif;"><tspan x="9" dy="3">1</tspan></text></g><path class="domain" d="M6,1H0V286H6" style="fill-opacity: 0; stroke: rgb(204, 204, 204);"/></g></g><g transform="translate(40.5,320.5)" style="visibility: hidden;"><g clip-path="url(http://pnud.carto.mx/explora?o=8&amp;i=i19#c3-1443633514952-clip-subchart)" class="c3-chart"><g class="c3-chart-bars"/><g class="c3-chart-lines"/></g><g clip-path="url(http://pnud.carto.mx/explora?o=8&amp;i=i19#c3-1443633514952-clip)" class="c3-brush" style="pointer-events: all; -webkit-tap-highlight-color: rgba(0, 0, 0, 0);"><rect class="background" x="0" width="629" style="visibility: hidden; cursor: crosshair;"/><rect class="extent" x="0" width="0" style="cursor: move;"/><g class="resize e" transform="translate(0,0)" style="cursor: ew-resize; display: none;"><rect x="-3" width="6" height="6" style="visibility: hidden;"/></g><g class="resize w" transform="translate(0,0)" style="cursor: ew-resize; display: none;"><rect x="-3" width="6" height="6" style="visibility: hidden;"/></g></g><g class="c3-axis-x" transform="translate(0,0)" clip-path="url(http://pnud.carto.mx/explora?o=8&amp;i=i19#c3-1443633514952-clip-xaxis)" style="opacity: 1;"><g class="tick" transform="translate(7, 0)" style="opacity: 1;"><line y2="6" x1="0" x2="0" style="stroke: rgb(239, 239, 239);"/><text y="9" x="0" transform="" style="text-anchor: middle; display: block;"><tspan x="0" dy=".71em" dx="0">2000</tspan></text></g><g class="tick" transform="translate(51, 0)" style="opacity: 1;"><line y2="6" x1="0" x2="0" style="stroke: rgb(239, 239, 239);"/><text y="9" x="0" transform="" style="text-anchor: middle; display: none;"><tspan x="0" dy=".71em" dx="0">2001</tspan></text></g><g class="tick" transform="translate(95, 0)" style="opacity: 1;"><line y2="6" x1="0" x2="0" style="stroke: rgb(239, 239, 239);"/><text y="9" x="0" transform="" style="text-anchor: middle; display: block;"><tspan x="0" dy=".71em" dx="0">2002</tspan></text></g><g class="tick" transform="translate(139, 0)" style="opacity: 1;"><line y2="6" x1="0" x2="0" style="stroke: rgb(239, 239, 239);"/><text y="9" x="0" transform="" style="text-anchor: middle; display: none;"><tspan x="0" dy=".71em" dx="0">2003</tspan></text></g><g class="tick" transform="translate(183, 0)" style="opacity: 1;"><line y2="6" x1="0" x2="0" style="stroke: rgb(239, 239, 239);"/><text y="9" x="0" transform="" style="text-anchor: middle; display: block;"><tspan x="0" dy=".71em" dx="0">2004</tspan></text></g><g class="tick" transform="translate(227, 0)" style="opacity: 1;"><line y2="6" x1="0" x2="0" style="stroke: rgb(239, 239, 239);"/><text y="9" x="0" transform="" style="text-anchor: middle; display: none;"><tspan x="0" dy=".71em" dx="0">2005</tspan></text></g><g class="tick" transform="translate(271, 0)" style="opacity: 1;"><line y2="6" x1="0" x2="0" style="stroke: rgb(239, 239, 239);"/><text y="9" x="0" transform="" style="text-anchor: middle; display: block;"><tspan x="0" dy=".71em" dx="0">2006</tspan></text></g><g class="tick" transform="translate(315, 0)" style="opacity: 1;"><line y2="6" x1="0" x2="0" style="stroke: rgb(239, 239, 239);"/><text y="9" x="0" transform="" style="text-anchor: middle; display: none;"><tspan x="0" dy=".71em" dx="0">2007</tspan></text></g><g class="tick" transform="translate(359, 0)" style="opacity: 1;"><line y2="6" x1="0" x2="0" style="stroke: rgb(239, 239, 239);"/><text y="9" x="0" transform="" style="text-anchor: middle; display: block;"><tspan x="0" dy=".71em" dx="0">2008</tspan></text></g><g class="tick" transform="translate(403, 0)" style="opacity: 1;"><line y2="6" x1="0" x2="0" style="stroke: rgb(239, 239, 239);"/><text y="9" x="0" transform="" style="text-anchor: middle; display: none;"><tspan x="0" dy=".71em" dx="0">2009</tspan></text></g><g class="tick" transform="translate(447, 0)" style="opacity: 1;"><line y2="6" x1="0" x2="0" style="stroke: rgb(239, 239, 239);"/><text y="9" x="0" transform="" style="text-anchor: middle; display: block;"><tspan x="0" dy=".71em" dx="0">2010</tspan></text></g><g class="tick" transform="translate(491, 0)" style="opacity: 1;"><line y2="6" x1="0" x2="0" style="stroke: rgb(239, 239, 239);"/><text y="9" x="0" transform="" style="text-anchor: middle; display: none;"><tspan x="0" dy=".71em" dx="0">2011</tspan></text></g><g class="tick" transform="translate(535, 0)" style="opacity: 1;"><line y2="6" x1="0" x2="0" style="stroke: rgb(239, 239, 239);"/><text y="9" x="0" transform="" style="text-anchor: middle; display: block;"><tspan x="0" dy=".71em" dx="0">2012</tspan></text></g><g class="tick" transform="translate(579, 0)" style="opacity: 1;"><line y2="6" x1="0" x2="0" style="stroke: rgb(239, 239, 239);"/><text y="9" x="0" transform="" style="text-anchor: middle; display: none;"><tspan x="0" dy=".71em" dx="0">2013</tspan></text></g><g class="tick" transform="translate(623, 0)" style="opacity: 1;"><line y2="6" x1="0" x2="0" style="stroke: rgb(239, 239, 239);"/><text y="9" x="0" transform="" style="text-anchor: middle; display: block;"><tspan x="0" dy=".71em" dx="0">2014</tspan></text></g><path class="domain" d="M0,6V0H629V6"/></g></g><g transform="translate(0,320)" style="visibility: hidden;"/></svg>