<svg xmlns="http://www.w3.org/2000/svg" class="leaflet-zoom-animated" width="1980" height="749" viewBox="-230 -87 1980 749" style="transform: translate3d(-230px, -87px, 0px);"><g><path class="class-0 leaflet-clickable" stroke-linejoin="round" stroke-linecap="round" fill-rule="evenodd" stroke="#005540" stroke-opacity="1" stroke-width="0.5" fill="#00cc99" fill-opacity="0.5" d="M459 444L459 444z"/></g><g><path class="class-0 leaflet-clickable" stroke-linejoin="round" stroke-linecap="round" fill-rule="evenodd" stroke="#005540" stroke-opacity="1" stroke-width="0.5" fill="#00cc99" fill-opacity="0.5" d="M1082 443L1083 440L1082 443z"/></g><g><path class="class-0 leaflet-clickable" stroke-linejoin="round" stroke-linecap="round" fill-rule="evenodd" stroke="#005540" stroke-opacity="1" stroke-width="0.5" fill="#00cc99" fill-opacity="0.5" d="M1084 435L1084 437L1084 435z"/></g><g><path class="class-0 leaflet-clickable" stroke-linejoin="round" stroke-linecap="round" fill-rule="evenodd" stroke="#005540" stroke-opacity="1" stroke-width="0.5" fill="#00cc99" fill-opacity="0.5" d="M544 432L546 434L545 435L543 433L544 432z"/></g><g><path class="class-0 leaflet-clickable" stroke-linejoin="round" stroke-linecap="round" fill-rule="evenodd" stroke="#005540" stroke-opacity="1" stroke-width="0.5" fill="#00cc99" fill-opacity="0.5" d="M548 422L548 421z"/></g><g><path class="class-0 leaflet-clickable" stroke-linejoin="round" stroke-linecap="round" fill-rule="evenodd" stroke="#005540" stroke-opacity="1" stroke-width="0.5" fill="#00cc99" fill-opacity="0.5" d="M1096 390L1096 392L1090 398L1090 394L1092 391L1097 390z"/></g><g><path class="class-0 leaflet-clickable" stroke-linejoin="round" stroke-linecap="round" fill-rule="evenodd" stroke="#005540" stroke-opacity="1" stroke-width="0.5" fill="#00cc99" fill-opacity="0.5" d="M1012 388L1011 388z"/></g><g><path class="class-0 leaflet-clickable" stroke-linejoin="round" stroke-linecap="round" fill-rule="evenodd" stroke="#005540" stroke-opacity="1" stroke-width="0.5" fill="#00cc99" fill-opacity="0.5" d="M970 380L969 380z"/></g><g><path class="class-0 leaflet-clickable" stroke-linejoin="round" stroke-linecap="round" fill-rule="evenodd" stroke="#005540" stroke-opacity="1" stroke-width="0.5" fill="#00cc99" fill-opacity="0.5" d="M1096 374L1097 375L1096 374z"/></g><g><path class="class-0 leaflet-clickable" stroke-linejoin="round" stroke-linecap="round" fill-rule="evenodd" stroke="#005540" stroke-opacity="1" stroke-width="0.5" fill="#00cc99" fill-opacity="0.5" d="M653 371L652 371z"/></g><g><path class="class-0 leaflet-clickable" stroke-linejoin="round" stroke-linecap="round" fill-rule="evenodd" stroke="#005540" stroke-opacity="1" stroke-width="0.5" fill="#00cc99" fill-opacity="0.5" d="M648 368L650 369L649 370L647 368z"/></g><g><path class="class-0 leaflet-clickable" stroke-linejoin="round" stroke-linecap="round" fill-rule="evenodd" stroke="#005540" stroke-opacity="1" stroke-width="0.5" fill="#00cc99" fill-opacity="0.5" d="M1088 365L1086 367L1081 368L1083 366L1086 367L1088 365z"/></g><g><path class="class-0 leaflet-clickable" stroke-linejoin="round" stroke-linecap="round" fill-rule="evenodd" stroke="#005540" stroke-opacity="1" stroke-width="0.5" fill="#00cc99" fill-opacity="0.5" d="M643 363L645 363L646 366L644 366L643 364z"/></g><g><path class="class-0 leaflet-clickable" stroke-linejoin="round" stroke-linecap="round" fill-rule="evenodd" stroke="#005540" stroke-opacity="1" stroke-width="0.5" fill="#00cc99" fill-opacity="0.5" d="M643 361L642 361z"/></g><g><path class="class-0 leaflet-clickable" stroke-linejoin="round" stroke-linecap="round" fill-rule="evenodd" stroke="#005540" stroke-opacity="1" stroke-width="0.5" fill="#00cc99" fill-opacity="0.5" d="M1027 344L1027 343z"/></g><g><path class="class-0 leaflet-clickable" stroke-linejoin="round" stroke-linecap="round" fill-rule="evenodd" stroke="#005540" stroke-opacity="1" stroke-width="0.5" fill="#00cc99" fill-opacity="0.5" d="M1028 341L1032 344L1030 346L1027 343L1028 341z"/></g><g><path class="class-0 leaflet-clickable" stroke-linejoin="round" stroke-linecap="round" fill-rule="evenodd" stroke="#005540" stroke-opacity="1" stroke-width="0.5" fill="#00cc99" fill-opacity="0.5" d="M571 302L569 302L569 297L571 302z"/></g><g><path class="class-0 leaflet-clickable" stroke-linejoin="round" stroke-linecap="round" fill-rule="evenodd" stroke="#005540" stroke-opacity="1" stroke-width="0.5" fill="#00cc99" fill-opacity="0.5" d="M559 293L560 296L558 294L559 293z"/></g><g><path class="class-0 leaflet-clickable" stroke-linejoin="round" stroke-linecap="round" fill-rule="evenodd" stroke="#005540" stroke-opacity="1" stroke-width="0.5" fill="#00cc99" fill-opacity="0.5" d="M558 291L558 292z"/></g><g><path class="class-0 leaflet-clickable" stroke-linejoin="round" stroke-linecap="round" fill-rule="evenodd" stroke="#005540" stroke-opacity="1" stroke-width="0.5" fill="#00cc99" fill-opacity="0.5" d="M554 285L554 285z"/></g><g><path class="class-0 leaflet-clickable" stroke-linejoin="round" stroke-linecap="round" fill-rule="evenodd" stroke="#005540" stroke-opacity="1" stroke-width="0.5" fill="#00cc99" fill-opacity="0.5" d="M551 279L555 284L551 281L551 279z"/></g><g><path class="class-0 leaflet-clickable" stroke-linejoin="round" stroke-linecap="round" fill-rule="evenodd" stroke="#005540" stroke-opacity="1" stroke-width="0.5" fill="#00cc99" fill-opacity="0.5" d="M551 273L550 275L551 273z"/></g><g><path class="class-0 leaflet-clickable" stroke-linejoin="round" stroke-linecap="round" fill-rule="evenodd" stroke="#005540" stroke-opacity="1" stroke-width="0.5" fill="#00cc99" fill-opacity="0.5" d="M549 263L550 266L549 264z"/></g><g><path class="class-0 leaflet-clickable" stroke-linejoin="round" stroke-linecap="round" fill-rule="evenodd" stroke="#005540" stroke-opacity="1" stroke-width="0.5" fill="#00cc99" fill-opacity="0.5" d="M543 263L543 265L543 263z"/></g><g><path class="class-0 leaflet-clickable" stroke-linejoin="round" stroke-linecap="round" fill-rule="evenodd" stroke="#005540" stroke-opacity="1" stroke-width="0.5" fill="#00cc99" fill-opacity="0.5" d="M538 261L538 261z"/></g><g><path class="class-0 leaflet-clickable" stroke-linejoin="round" stroke-linecap="round" fill-rule="evenodd" stroke="#005540" stroke-opacity="1" stroke-width="0.5" fill="#00cc99" fill-opacity="0.5" d="M543 254L543 256L541 256L539 260L540 261L539 258L540 255L542 255z"/></g><g><path class="class-0 leaflet-clickable" stroke-linejoin="round" stroke-linecap="round" fill-rule="evenodd" stroke="#005540" stroke-opacity="1" stroke-width="0.5" fill="#00cc99" fill-opacity="0.5" d="M538 252L538 252z"/></g><g><path class="class-0 leaflet-clickable" stroke-linejoin="round" stroke-linecap="round" fill-rule="evenodd" stroke="#005540" stroke-opacity="1" stroke-width="0.5" fill="#00cc99" fill-opacity="0.5" d="M520 224L520 226L519 224z"/></g><g><path class="class-0 leaflet-clickable" stroke-linejoin="round" stroke-linecap="round" fill-rule="evenodd" stroke="#005540" stroke-opacity="1" stroke-width="0.5" fill="#00cc99" fill-opacity="0.5" d="M523 219L522 219z"/></g><g><path class="class-0 leaflet-clickable" stroke-linejoin="round" stroke-linecap="round" fill-rule="evenodd" stroke="#005540" stroke-opacity="1" stroke-width="0.5" fill="#00cc99" fill-opacity="0.5" d="M449 208L448 208z"/></g><g><path class="class-0 leaflet-clickable" stroke-linejoin="round" stroke-linecap="round" fill-rule="evenodd" stroke="#005540" stroke-opacity="1" stroke-width="0.5" fill="#00cc99" fill-opacity="0.5" d="M440 197L440 197z"/></g><g><path class="class-0 leaflet-clickable" stroke-linejoin="round" stroke-linecap="round" fill-rule="evenodd" stroke="#005540" stroke-opacity="1" stroke-width="0.5" fill="#00cc99" fill-opacity="0.5" d="M448 195L450 201L449 204L445 202L448 199L448 195z"/></g><g><path class="class-0 leaflet-clickable" stroke-linejoin="round" stroke-linecap="round" fill-rule="evenodd" stroke="#005540" stroke-opacity="1" stroke-width="0.5" fill="#00cc99" fill-opacity="0.5" d="M501 187L504 189L503 190L502 188z"/></g><g><path class="class-0 leaflet-clickable" stroke-linejoin="round" stroke-linecap="round" fill-rule="evenodd" stroke="#005540" stroke-opacity="1" stroke-width="0.5" fill="#00cc99" fill-opacity="0.5" d="M500 187L500 187z"/></g><g><path class="class-0 leaflet-clickable" stroke-linejoin="round" stroke-linecap="round" fill-rule="evenodd" stroke="#005540" stroke-opacity="1" stroke-width="0.5" fill="#00cc99" fill-opacity="0.5" d="M509 186L508 188L508 186z"/></g><g><path class="class-0 leaflet-clickable" stroke-linejoin="round" stroke-linecap="round" fill-rule="evenodd" stroke="#005540" stroke-opacity="1" stroke-width="0.5" fill="#00cc99" fill-opacity="0.5" d="M487 176L487 176z"/></g><g><path class="class-0 leaflet-clickable" stroke-linejoin="round" stroke-linecap="round" fill-rule="evenodd" stroke="#005540" stroke-opacity="1" stroke-width="0.5" fill="#00cc99" fill-opacity="0.5" d="M377 175L379 177L378 182L376 178L378 174z"/></g><g><path class="class-0 leaflet-clickable" stroke-linejoin="round" stroke-linecap="round" fill-rule="evenodd" stroke="#005540" stroke-opacity="1" stroke-width="0.5" fill="#00cc99" fill-opacity="0.5" d="M515 173L517 179L515 184L516 185L514 186L509 182L510 175L514 173z"/></g><g><path class="class-0 leaflet-clickable" stroke-linejoin="round" stroke-linecap="round" fill-rule="evenodd" stroke="#005540" stroke-opacity="1" stroke-width="0.5" fill="#00cc99" fill-opacity="0.5" d="M487 165L490 167L490 170L492 172L495 171L495 179L485 168L487 165z"/></g><g><path class="class-0 leaflet-clickable" stroke-linejoin="round" stroke-linecap="round" fill-rule="evenodd" stroke="#005540" stroke-opacity="1" stroke-width="0.5" fill="#00cc99" fill-opacity="0.5" d="M466 153L467 154L466 153z"/></g><g><path class="class-0 leaflet-clickable" stroke-linejoin="round" stroke-linecap="round" fill-rule="evenodd" stroke="#005540" stroke-opacity="1" stroke-width="0.5" fill="#00cc99" fill-opacity="0.5" d="M459 112L459 112z"/></g><g><path class="class-0 leaflet-clickable" stroke-linejoin="round" stroke-linecap="round" fill-rule="evenodd" stroke="#005540" stroke-opacity="1" stroke-width="0.5" fill="#00cc99" fill-opacity="0.5" d="M461 106L462 107L461 106z"/></g><g><path class="class-0 leaflet-clickable" stroke-linejoin="round" stroke-linecap="round" fill-rule="evenodd" stroke="#005540" stroke-opacity="1" stroke-width="0.5" fill="#00cc99" fill-opacity="0.5" d="M459 105L461 107L460 108L458 108L458 105z"/></g><g><path class="class-0 leaflet-clickable" stroke-linejoin="round" stroke-linecap="round" fill-rule="evenodd" stroke="#005540" stroke-opacity="1" stroke-width="0.5" fill="#00cc99" fill-opacity="0.5" d="M458 83L458 87L537 115L542 118L608 118L608 106L611 105L648 106L653 113L656 116L658 116L669 128L679 135L681 135L681 137L683 137L684 142L688 148L688 156L695 165L699 166L698 167L701 170L708 172L716 178L723 180L724 177L728 173L729 174L728 172L730 170L731 164L735 159L739 159L742 156L751 159L761 158L763 162L765 162L765 164L766 163L766 165L779 176L783 188L787 193L786 194L789 199L794 203L797 209L805 216L807 230L811 234L815 246L817 245L819 247L824 248L824 250L830 250L835 255L848 255L853 260L855 259L854 258L859 257L859 263L852 276L847 294L845 336L843 339L843 346L849 360L855 366L853 374L861 392L868 398L876 409L878 419L883 424L883 426L886 427L889 433L893 435L902 435L908 439L912 439L917 448L919 449L927 448L944 442L957 442L960 440L960 438L969 436L977 436L980 438L997 428L1006 420L1006 412L1012 405L1012 387L1014 381L1020 376L1033 372L1051 370L1055 367L1063 365L1069 365L1083 370L1088 369L1089 366L1094 373L1095 370L1094 373L1096 377L1092 385L1080 399L1080 409L1079 410L1080 406L1080 408L1077 409L1075 413L1073 413L1076 416L1080 414L1081 415L1080 418L1075 420L1075 424L1078 421L1080 421L1078 423L1078 427L1076 429L1070 449L1067 449L1067 443L1062 443L1062 441L1056 441L1054 447L1051 449L1048 455L1044 452L1041 457L1000 457L1000 470L989 470L992 473L993 472L993 474L997 476L996 477L998 479L1006 483L1007 488L1013 491L1012 498L983 498L972 518L975 522L972 527L973 531L971 535L943 507L935 501L925 497L915 495L903 496L898 501L894 501L884 506L883 505L880 508L871 508L862 505L859 502L845 501L835 494L828 493L822 487L820 488L810 484L802 484L794 478L770 470L771 469L766 465L762 464L750 453L743 454L717 446L705 432L681 420L679 415L677 415L669 404L665 394L673 392L675 390L673 386L668 386L676 376L676 367L675 368L671 365L666 357L666 349L663 341L647 325L646 321L640 315L635 307L617 294L601 274L589 270L585 265L581 265L579 257L584 248L584 244L580 239L574 239L571 237L568 229L560 227L556 223L554 223L554 209L552 207L551 208L547 206L547 208L545 208L545 206L539 204L533 195L529 193L523 186L524 184L517 180L517 173L515 170L514 171L512 169L513 167L509 162L507 156L504 155L504 148L496 134L497 122L491 119L484 118L484 114L479 110L472 113L458 104L458 110L456 113L456 123L460 129L460 137L462 142L461 149L463 153L467 157L467 159L470 159L484 172L487 182L489 180L491 184L494 184L496 191L498 193L502 193L501 197L503 199L505 211L514 218L517 224L516 225L523 229L521 230L521 232L523 234L525 233L528 235L531 238L531 242L534 243L533 244L537 254L537 262L542 268L544 268L546 277L552 285L550 289L551 297L554 301L557 302L560 301L560 297L567 303L567 305L571 306L571 308L574 311L574 315L577 316L580 320L580 324L578 327L569 334L567 334L565 332L562 320L558 316L536 299L532 297L527 298L526 296L519 292L517 290L517 287L514 286L519 272L519 261L514 251L506 248L491 236L489 235L486 238L479 231L475 231L472 227L468 227L465 224L464 220L452 211L452 209L464 211L470 208L474 201L473 198L475 194L473 190L468 186L468 184L465 181L463 181L462 177L459 176L459 174L454 169L449 168L447 165L441 163L437 159L438 157L435 153L435 146L429 140L430 134L424 127L423 128L422 119L415 112L416 109L413 106L415 107L416 104L410 99L410 96L405 88L405 85L459 80L459 82zM548 205L548 206z"/></g></svg>