<svg xmlns="http://www.w3.org/2000/svg" class="leaflet-zoom-animated" width="2000" height="803" viewBox="-284 -114 2000 803" style="transform: translate3d(-284px, -114px, 0px);"><g><path class="class-3 leaflet-clickable" stroke-linejoin="round" stroke-linecap="round" fill-rule="evenodd" stroke="#005540" stroke-opacity="1" stroke-width="0.5" fill="#086" fill-opacity="0.5" d="M762 435L766 441L770 441L772 446L777 450L776 451L779 452L777 452L780 454L786 454L785 460L789 464L789 471L790 470L791 473L795 475L794 480L791 484L792 485L788 487L787 491L783 493L778 487L776 488L766 484L758 484L750 478L726 470L727 469L722 465L718 464L709 455L701 452L702 448L708 445L708 439L710 438L714 438L714 440L716 441L732 441L734 443L735 442L735 444L736 441L734 441L733 439L732 432L735 433L737 431L740 434L739 437L744 444L750 438L754 438L758 434L761 436z"/></g><g><path class="class-3 leaflet-clickable" stroke-linejoin="round" stroke-linecap="round" fill-rule="evenodd" stroke="#005540" stroke-opacity="1" stroke-width="0.5" fill="#086" fill-opacity="0.5" d="M890 473L884 489L886 492L885 496L887 500L881 497L871 495L859 496L854 501L850 501L840 506L839 505L836 508L827 508L818 505L815 502L801 501L791 494L784 493L788 490L787 487L792 485L791 484L794 481L794 477L796 475L791 474L790 470L789 471L789 464L785 460L786 456L790 454L791 455L793 453L797 453L800 455L802 452L801 451L800 453L799 448L804 445L806 452L813 448L818 449L825 443L826 437L832 440L837 449L845 449L846 454L844 459L848 463L851 464L857 459L859 459L860 460L858 462L862 467L867 470L866 471L885 473z"/></g><g><path class="class-3 leaflet-clickable" stroke-linejoin="round" stroke-linecap="round" fill-rule="evenodd" stroke="#005540" stroke-opacity="1" stroke-width="0.5" fill="#086" fill-opacity="0.5" d="M945 470L948 473L949 472L949 474L953 476L952 477L957 481L962 483L963 488L969 491L968 498L939 498L928 518L931 522L928 527L929 531L927 535L899 507L891 501L886 500L884 496L886 495L886 492L884 489L890 473L898 466L898 464L902 460L901 458L904 453L907 455L907 457L909 457L908 459L911 465L912 464L914 466L913 467L914 466L916 468L920 463L925 462L924 461L930 458L930 456L933 454L936 455L936 459L940 460L940 466L945 467L946 470z"/></g><g><path class="class-3 leaflet-clickable" stroke-linejoin="round" stroke-linecap="round" fill-rule="evenodd" stroke="#005540" stroke-opacity="1" stroke-width="0.5" fill="#086" fill-opacity="0.5" d="M825 443L821 447L816 449L813 448L808 452L806 452L804 446L800 446L800 453L802 451L803 452L801 452L798 455L796 453L792 453L792 455L787 456L786 453L782 454L772 446L772 444L775 441L780 442L779 434L782 428L781 417L783 417L792 426L795 423L798 425L800 422L804 421L801 417L798 416L799 415L797 413L795 413L795 411L790 412L791 411L789 408L794 401L792 398L789 398L792 397L798 390L799 384L802 385L802 389L806 392L801 395L803 397L802 400L806 402L809 398L815 401L809 416L811 418L810 419L819 422L817 424L818 425L814 424L811 437L812 436L817 441L821 439L825 443z"/></g><g><path class="class-3 leaflet-clickable" stroke-linejoin="round" stroke-linecap="round" fill-rule="evenodd" stroke="#005540" stroke-opacity="1" stroke-width="0.5" fill="#086" fill-opacity="0.5" d="M801 349L803 357L811 366L809 372L810 378L817 392L824 398L831 407L834 419L839 424L839 426L842 427L844 432L849 435L858 435L868 440L875 449L884 447L885 456L893 460L895 463L895 470L893 470L890 473L866 472L867 470L862 467L858 462L860 460L859 459L857 459L851 464L848 464L844 459L846 454L845 449L837 449L838 448L837 449L835 447L830 438L826 437L825 444L823 440L819 439L817 441L814 437L811 436L813 431L812 428L819 422L810 419L811 418L809 416L809 414L812 411L812 407L816 401L809 398L806 402L802 400L803 397L801 395L802 393L803 394L806 392L803 391L801 384L799 384L798 390L796 391L794 388L793 391L788 395L783 396L784 395L782 392L785 390L786 387L784 388L788 383L788 385L790 385L791 380L793 378L789 376L790 375L787 376L784 373L785 370L784 371L781 365L786 361L783 356L785 357L786 353L789 350L781 346L787 346L790 344L796 347L799 351L800 349z"/></g><g><path class="class-3 leaflet-clickable" stroke-linejoin="round" stroke-linecap="round" fill-rule="evenodd" stroke="#005540" stroke-opacity="1" stroke-width="0.5" fill="#086" fill-opacity="0.5" d="M754 398L759 401L762 400L762 407L765 409L764 410L768 407L768 405L773 405L773 403L774 409L776 407L779 407L782 410L780 414L782 418L782 428L777 430L774 427L774 421L772 419L771 414L765 421L767 425L766 430L763 431L764 433L761 436L757 434L758 435L756 435L754 438L750 438L744 444L740 439L741 438L739 437L740 434L737 431L746 418L744 412L747 411L747 403L751 403L751 399L753 398z"/></g><g><path class="class-2 leaflet-clickable" stroke-linejoin="round" stroke-linecap="round" fill-rule="evenodd" stroke="#005540" stroke-opacity="1" stroke-width="0.5" fill="#00cc99" fill-opacity="0.5" d="M796 392L792 397L789 398L793 399L793 401L789 407L791 410L788 411L789 412L787 414L781 414L782 409L779 407L775 407L774 409L773 406L775 404L773 403L773 405L770 404L768 408L766 408L765 410L765 408L762 405L762 400L759 401L754 398L754 391L759 390L761 388L765 379L764 378L772 376L774 372L775 375L781 376L781 372L785 370L784 373L787 376L790 375L789 376L791 376L793 379L790 383L791 385L786 384L783 388L785 387L783 396L788 395L794 389L796 391z"/></g><g><path class="class-2 leaflet-clickable" stroke-linejoin="round" stroke-linecap="round" fill-rule="evenodd" stroke="#005540" stroke-opacity="1" stroke-width="0.5" fill="#00cc99" fill-opacity="0.5" d="M969 384L969 391L973 391L974 394L977 393L982 397L981 398L987 404L990 412L997 418L997 457L956 457L956 453L946 451L943 449L944 448L941 451L941 455L929 449L929 444L925 442L922 438L925 436L933 436L936 438L953 428L962 420L962 412L968 405L967 391L969 384z"/></g><g><path class="class-2 leaflet-clickable" stroke-linejoin="round" stroke-linecap="round" fill-rule="evenodd" stroke="#005540" stroke-opacity="1" stroke-width="0.5" fill="#00cc99" fill-opacity="0.5" d="M748 325L750 329L748 331L750 335L748 337L753 337L761 341L762 337L770 346L783 346L789 350L783 357L785 357L785 361L781 365L784 368L784 370L780 372L782 372L781 376L777 376L774 372L771 373L769 364L764 370L762 370L758 366L756 366L756 368L753 369L744 363L742 363L740 367L736 368L732 366L729 362L716 360L720 355L720 351L718 348L721 344L719 339L720 338L717 337L715 341L714 340L713 343L710 344L708 342L708 339L706 340L701 335L699 330L700 328L698 325L700 323L698 323L700 320L702 322L710 320L723 308L723 302L726 301L727 296L729 299L734 295L737 296L736 301L739 303L739 326L742 327L742 324L743 325L744 323L746 323L745 325L747 325z"/></g><g><path class="class-2 leaflet-clickable" stroke-linejoin="round" stroke-linecap="round" fill-rule="evenodd" stroke="#005540" stroke-opacity="1" stroke-width="0.5" fill="#00cc99" fill-opacity="0.5" d="M956 457L956 470L945 470L946 467L940 465L941 462L937 459L937 455L933 455L926 460L925 459L925 461L923 463L919 463L919 465L916 468L914 466L913 467L914 466L912 464L910 464L908 459L909 456L907 456L908 455L905 453L902 454L902 460L898 464L896 469L894 467L896 463L894 463L890 458L885 456L886 452L884 448L900 442L913 442L916 440L916 438L921 437L924 442L928 442L929 449L932 450L933 452L941 456L941 450L944 448L944 450L950 453L956 453L956 455z"/></g><g><path class="class-2 leaflet-clickable" stroke-linejoin="round" stroke-linecap="round" fill-rule="evenodd" stroke="#005540" stroke-opacity="1" stroke-width="0.5" fill="#00cc99" fill-opacity="0.5" d="M781 417L780 414L786 414L789 412L788 411L794 411L799 415L799 417L801 417L804 420L803 422L800 421L798 424L795 423L792 426L785 420L784 417L782 418z"/></g><g><path class="class-2 leaflet-clickable" stroke-linejoin="round" stroke-linecap="round" fill-rule="evenodd" stroke="#005540" stroke-opacity="1" stroke-width="0.5" fill="#00cc99" fill-opacity="0.5" d="M801 349L799 351L791 344L789 344L788 346L781 345L779 347L772 345L770 346L762 337L761 341L758 339L754 339L753 337L748 337L750 335L748 332L750 330L748 328L749 323L747 323L749 321L752 322L751 317L754 312L760 312L762 309L762 307L758 303L760 296L757 294L757 292L761 291L762 288L766 286L768 287L770 283L769 281L772 278L775 279L786 270L783 269L783 255L777 255L775 257L773 253L770 255L769 249L767 250L763 247L764 241L758 239L760 234L756 233L758 229L756 219L752 218L752 216L757 213L761 216L763 230L767 234L771 246L773 245L775 247L780 248L780 250L786 250L791 255L804 255L809 260L811 259L810 258L815 257L815 263L808 276L803 294L801 336L799 339L800 348z"/></g><g><path class="class-2 leaflet-clickable" stroke-linejoin="round" stroke-linecap="round" fill-rule="evenodd" stroke="#005540" stroke-opacity="1" stroke-width="0.5" fill="#00cc99" fill-opacity="0.5" d="M774 427L770 427L765 423L770 414L774 421L774 426z"/></g><g><path class="class-1 leaflet-clickable" stroke-linejoin="round" stroke-linecap="round" fill-rule="evenodd" stroke="#005540" stroke-opacity="1" stroke-width="0.5" fill="#7fd" fill-opacity="0.5" d="M774 427L777 430L781 428L779 434L780 441L779 442L777 440L772 444L766 441L762 436L767 425L774 427z"/></g><g><path class="class-1 leaflet-clickable" stroke-linejoin="round" stroke-linecap="round" fill-rule="evenodd" stroke="#005540" stroke-opacity="1" stroke-width="0.5" fill="#7fd" fill-opacity="0.5" d="M742 397L746 399L745 401L748 404L747 405L749 408L747 408L745 412L746 419L743 420L741 426L735 433L732 432L733 439L736 441L736 444L732 441L729 442L727 440L721 439L717 441L711 438L708 439L707 441L708 446L701 449L701 455L671 445L665 436L671 429L676 428L679 430L682 427L682 425L683 426L683 424L688 422L689 423L691 421L692 417L688 417L689 415L686 410L688 408L687 406L681 405L681 402L684 401L683 400L688 401L694 396L701 395L705 395L704 396L706 396L708 400L712 400L713 397L717 396L717 398L720 399L718 399L718 402L720 404L724 404L724 402L726 402L729 406L739 406L742 405L741 402L743 398z"/></g><g><path class="class-1 leaflet-clickable" stroke-linejoin="round" stroke-linecap="round" fill-rule="evenodd" stroke="#005540" stroke-opacity="1" stroke-width="0.5" fill="#7fd" fill-opacity="0.5" d="M772 373L771 376L767 378L766 376L761 386L762 388L754 391L754 398L752 397L752 402L748 404L745 401L745 398L743 398L739 394L737 385L740 382L748 382L749 379L750 380L750 375L756 375L758 373L755 372L757 366L764 370L769 364L771 373z"/></g><g><path class="class-1 leaflet-clickable" stroke-linejoin="round" stroke-linecap="round" fill-rule="evenodd" stroke="#005540" stroke-opacity="1" stroke-width="0.5" fill="#7fd" fill-opacity="0.5" d="M754 211L750 215L746 210L742 213L741 220L735 222L731 226L732 229L738 229L738 235L736 239L735 240L733 237L723 247L732 258L731 261L735 267L738 268L736 268L740 271L740 273L745 273L745 276L734 275L732 277L732 281L734 283L732 285L731 292L729 293L721 286L715 288L713 286L714 285L700 278L694 278L695 281L690 279L685 288L676 282L677 281L671 275L671 273L673 271L674 272L671 268L675 262L674 252L676 249L674 241L666 238L666 236L663 233L665 230L661 210L662 209L660 209L660 206L662 206L662 203L668 192L667 191L675 179L679 180L680 177L684 173L685 174L684 172L686 170L687 164L691 159L695 159L698 156L709 159L717 158L719 162L721 162L721 164L722 163L722 165L735 176L739 188L743 193L742 194L754 210z"/></g><g><path class="class-1 leaflet-clickable" stroke-linejoin="round" stroke-linecap="round" fill-rule="evenodd" stroke="#005540" stroke-opacity="1" stroke-width="0.5" fill="#7fd" fill-opacity="0.5" d="M609 371L608 371z"/></g><g><path class="class-1 leaflet-clickable" stroke-linejoin="round" stroke-linecap="round" fill-rule="evenodd" stroke="#005540" stroke-opacity="1" stroke-width="0.5" fill="#7fd" fill-opacity="0.5" d="M604 368L606 369L605 370L603 368z"/></g><g><path class="class-1 leaflet-clickable" stroke-linejoin="round" stroke-linecap="round" fill-rule="evenodd" stroke="#005540" stroke-opacity="1" stroke-width="0.5" fill="#7fd" fill-opacity="0.5" d="M599 363L601 363L602 366L600 366L599 364z"/></g><g><path class="class-1 leaflet-clickable" stroke-linejoin="round" stroke-linecap="round" fill-rule="evenodd" stroke="#005540" stroke-opacity="1" stroke-width="0.5" fill="#7fd" fill-opacity="0.5" d="M599 361L598 362z"/></g><g><path class="class-1 leaflet-clickable" stroke-linejoin="round" stroke-linecap="round" fill-rule="evenodd" stroke="#005540" stroke-opacity="1" stroke-width="0.5" fill="#7fd" fill-opacity="0.5" d="M651 346L653 347L651 356L655 356L656 360L660 361L662 363L661 366L666 370L663 373L664 374L654 376L655 381L651 385L654 387L654 389L643 380L634 382L631 388L629 386L624 386L632 376L632 367L631 368L626 364L622 356L622 349L619 343L620 342L620 344L622 341L627 343L625 339L625 333L628 329L629 332L637 332L636 333L639 337L635 339L637 343L641 340L646 344L647 347L651 345z"/></g><g><path class="class-1 leaflet-clickable" stroke-linejoin="round" stroke-linecap="round" fill-rule="evenodd" stroke="#005540" stroke-opacity="1" stroke-width="0.5" fill="#7fd" fill-opacity="0.5" d="M1038 443L1039 440L1039 442z"/></g><g><path class="class-1 leaflet-clickable" stroke-linejoin="round" stroke-linecap="round" fill-rule="evenodd" stroke="#005540" stroke-opacity="1" stroke-width="0.5" fill="#7fd" fill-opacity="0.5" d="M1040 435L1040 437L1040 435z"/></g><g><path class="class-1 leaflet-clickable" stroke-linejoin="round" stroke-linecap="round" fill-rule="evenodd" stroke="#005540" stroke-opacity="1" stroke-width="0.5" fill="#7fd" fill-opacity="0.5" d="M1052 391L1046 398L1046 394L1048 391L1053 390z"/></g><g><path class="class-1 leaflet-clickable" stroke-linejoin="round" stroke-linecap="round" fill-rule="evenodd" stroke="#005540" stroke-opacity="1" stroke-width="0.5" fill="#7fd" fill-opacity="0.5" d="M997 454L996 450L998 449L998 425L997 418L994 415L997 413L998 414L998 412L1000 412L1000 410L1005 407L1005 405L1008 404L1009 401L1012 401L1014 398L1020 397L1024 394L1031 386L1034 380L1034 368L1041 370L1044 369L1045 366L1050 373L1050 370L1051 371L1051 379L1048 385L1036 399L1036 409L1035 410L1036 406L1035 409L1029 412L1031 416L1036 413L1037 414L1036 418L1031 420L1031 424L1034 421L1036 421L1034 423L1026 449L1023 449L1023 443L1018 443L1018 441L1012 441L1010 447L1007 449L1004 455L1000 452L998 454z"/></g><g><path class="class-1 leaflet-clickable" stroke-linejoin="round" stroke-linecap="round" fill-rule="evenodd" stroke="#005540" stroke-opacity="1" stroke-width="0.5" fill="#7fd" fill-opacity="0.5" d="M1044 365L1042 367L1037 368L1039 366L1043 366z"/></g><g><path class="class-1 leaflet-clickable" stroke-linejoin="round" stroke-linecap="round" fill-rule="evenodd" stroke="#005540" stroke-opacity="1" stroke-width="0.5" fill="#7fd" fill-opacity="0.5" d="M732 292L734 295L729 299L727 297L726 301L724 302L723 308L718 313L710 320L705 322L702 322L700 320L698 323L700 323L698 325L702 336L706 340L708 339L708 342L710 344L713 343L717 337L720 338L719 339L721 343L719 344L718 348L720 350L720 355L717 359L716 360L715 358L708 355L704 352L704 348L703 349L698 345L696 347L690 348L690 352L685 359L688 363L688 366L691 368L690 371L688 371L684 375L681 374L681 378L679 379L675 379L668 376L666 372L670 371L670 369L666 369L666 367L670 365L671 362L669 360L679 355L681 350L679 348L678 349L676 345L674 347L675 350L673 350L672 353L666 352L669 349L669 344L668 342L666 342L664 343L663 351L661 347L663 343L662 342L665 341L665 339L662 337L658 338L661 343L658 347L658 343L656 343L654 347L652 346L653 338L657 336L655 331L658 319L663 315L664 316L663 306L667 302L669 302L669 299L671 299L673 295L685 295L688 297L693 296L694 291L690 283L690 280L695 281L694 278L703 279L708 281L710 284L714 285L713 286L715 288L721 286L724 288L725 291L729 293L732 292z"/></g><g><path class="class-1 leaflet-clickable" stroke-linejoin="round" stroke-linecap="round" fill-rule="evenodd" stroke="#005540" stroke-opacity="1" stroke-width="0.5" fill="#7fd" fill-opacity="0.5" d="M756 368L755 371L756 373L758 373L754 376L750 375L751 376L749 382L740 382L737 385L739 393L743 398L741 402L742 405L729 406L726 402L724 402L724 404L720 404L718 402L718 400L720 399L717 398L717 396L715 396L712 399L706 399L706 397L703 394L706 391L703 384L706 382L710 374L713 373L712 370L714 370L713 367L715 363L714 362L716 360L722 360L724 362L726 361L734 367L740 367L741 363L743 363L753 369L755 368z"/></g><g><path class="class-1 leaflet-clickable" stroke-linejoin="round" stroke-linecap="round" fill-rule="evenodd" stroke="#005540" stroke-opacity="1" stroke-width="0.5" fill="#7fd" fill-opacity="0.5" d="M527 302L525 302L525 297L527 301z"/></g><g><path class="class-1 leaflet-clickable" stroke-linejoin="round" stroke-linecap="round" fill-rule="evenodd" stroke="#005540" stroke-opacity="1" stroke-width="0.5" fill="#7fd" fill-opacity="0.5" d="M515 293L515 296L514 293z"/></g><g><path class="class-1 leaflet-clickable" stroke-linejoin="round" stroke-linecap="round" fill-rule="evenodd" stroke="#005540" stroke-opacity="1" stroke-width="0.5" fill="#7fd" fill-opacity="0.5" d="M514 291L514 292z"/></g><g><path class="class-1 leaflet-clickable" stroke-linejoin="round" stroke-linecap="round" fill-rule="evenodd" stroke="#005540" stroke-opacity="1" stroke-width="0.5" fill="#7fd" fill-opacity="0.5" d="M507 279L510 281L511 284L507 280z"/></g><g><path class="class-1 leaflet-clickable" stroke-linejoin="round" stroke-linecap="round" fill-rule="evenodd" stroke="#005540" stroke-opacity="1" stroke-width="0.5" fill="#7fd" fill-opacity="0.5" d="M507 273L506 275L507 273z"/></g><g><path class="class-1 leaflet-clickable" stroke-linejoin="round" stroke-linecap="round" fill-rule="evenodd" stroke="#005540" stroke-opacity="1" stroke-width="0.5" fill="#7fd" fill-opacity="0.5" d="M505 263L506 266L505 264z"/></g><g><path class="class-1 leaflet-clickable" stroke-linejoin="round" stroke-linecap="round" fill-rule="evenodd" stroke="#005540" stroke-opacity="1" stroke-width="0.5" fill="#7fd" fill-opacity="0.5" d="M499 263L499 265L499 263z"/></g><g><path class="class-1 leaflet-clickable" stroke-linejoin="round" stroke-linecap="round" fill-rule="evenodd" stroke="#005540" stroke-opacity="1" stroke-width="0.5" fill="#7fd" fill-opacity="0.5" d="M499 254L499 256L497 256L495 260L496 261L495 258L496 255L498 255z"/></g><g><path class="class-1 leaflet-clickable" stroke-linejoin="round" stroke-linecap="round" fill-rule="evenodd" stroke="#005540" stroke-opacity="1" stroke-width="0.5" fill="#7fd" fill-opacity="0.5" d="M494 252L494 252z"/></g><g><path class="class-1 leaflet-clickable" stroke-linejoin="round" stroke-linecap="round" fill-rule="evenodd" stroke="#005540" stroke-opacity="1" stroke-width="0.5" fill="#7fd" fill-opacity="0.5" d="M476 224L476 226L475 224z"/></g><g><path class="class-1 leaflet-clickable" stroke-linejoin="round" stroke-linecap="round" fill-rule="evenodd" stroke="#005540" stroke-opacity="1" stroke-width="0.5" fill="#7fd" fill-opacity="0.5" d="M479 219L478 219z"/></g><g><path class="class-1 leaflet-clickable" stroke-linejoin="round" stroke-linecap="round" fill-rule="evenodd" stroke="#005540" stroke-opacity="1" stroke-width="0.5" fill="#7fd" fill-opacity="0.5" d="M405 208L405 208z"/></g><g><path class="class-1 leaflet-clickable" stroke-linejoin="round" stroke-linecap="round" fill-rule="evenodd" stroke="#005540" stroke-opacity="1" stroke-width="0.5" fill="#7fd" fill-opacity="0.5" d="M427 205L460 205L462 212L470 218L473 224L472 225L479 229L477 230L477 232L479 234L481 233L484 235L487 241L490 243L489 244L493 254L493 262L498 268L500 268L501 274L508 285L506 293L509 300L515 302L515 298L518 298L523 302L523 305L527 306L527 308L530 311L530 314L535 317L536 324L532 329L523 334L520 330L518 320L514 316L510 314L498 302L488 297L483 298L473 290L473 287L470 286L475 274L475 261L469 250L462 248L447 236L445 235L442 238L435 231L431 231L428 227L424 227L421 224L420 220L407 209L408 208L420 211L426 208L427 206z"/></g><g><path class="class-1 leaflet-clickable" stroke-linejoin="round" stroke-linecap="round" fill-rule="evenodd" stroke="#005540" stroke-opacity="1" stroke-width="0.5" fill="#7fd" fill-opacity="0.5" d="M415 444L415 444z"/></g><g><path class="class-1 leaflet-clickable" stroke-linejoin="round" stroke-linecap="round" fill-rule="evenodd" stroke="#005540" stroke-opacity="1" stroke-width="0.5" fill="#7fd" fill-opacity="0.5" d="M500 432L502 434L501 435L499 433L500 432z"/></g><g><path class="class-1 leaflet-clickable" stroke-linejoin="round" stroke-linecap="round" fill-rule="evenodd" stroke="#005540" stroke-opacity="1" stroke-width="0.5" fill="#7fd" fill-opacity="0.5" d="M671 429L665 436L651 426L644 424L645 425L648 422L649 423L657 421L656 420L658 416L663 419L667 416L671 420L671 429z"/></g><g><path class="class-1 leaflet-clickable" stroke-linejoin="round" stroke-linecap="round" fill-rule="evenodd" stroke="#005540" stroke-opacity="1" stroke-width="0.5" fill="#7fd" fill-opacity="0.5" d="M504 422L504 421z"/></g><g><path class="class-1 leaflet-clickable" stroke-linejoin="round" stroke-linecap="round" fill-rule="evenodd" stroke="#005540" stroke-opacity="1" stroke-width="0.5" fill="#7fd" fill-opacity="0.5" d="M688 362L690 361L698 365L708 358L709 357L707 357L709 355L711 355L716 361L714 361L715 362L713 367L715 370L713 370L713 372L710 374L710 376L703 385L706 388L703 394L701 396L695 396L686 402L685 400L681 402L681 405L683 404L688 407L688 409L686 410L689 415L688 416L693 417L690 423L688 422L684 424L679 430L677 428L671 429L671 421L667 416L663 419L658 416L656 421L649 423L648 422L645 425L641 423L641 421L640 422L637 420L635 415L633 415L625 404L621 394L629 392L631 390L630 388L632 385L633 386L635 382L640 380L647 382L654 390L653 385L651 385L655 381L654 376L664 374L663 373L666 370L661 365L662 363L660 361L656 361L655 357L651 355L653 347L655 345L656 346L655 343L658 344L657 347L661 344L658 339L659 337L665 339L665 341L662 342L663 343L661 347L663 351L663 347L666 341L669 343L666 352L667 353L671 353L673 350L675 350L674 347L676 345L678 347L677 348L681 350L679 356L675 356L671 360L669 360L671 362L670 365L666 367L666 369L670 369L671 371L666 373L668 373L669 377L679 379L681 374L684 375L688 371L689 372L691 368L687 365L688 363z"/></g><g><path class="class-1 leaflet-clickable" stroke-linejoin="round" stroke-linecap="round" fill-rule="evenodd" stroke="#005540" stroke-opacity="1" stroke-width="0.5" fill="#7fd" fill-opacity="0.5" d="M1034 368L1034 380L1031 386L1020 398L1014 398L1008 404L1006 404L1005 407L1003 407L1004 408L998 414L997 413L994 415L991 413L987 407L987 404L984 400L982 400L978 393L975 394L970 391L969 384L971 379L981 374L1007 370L1011 367L1016 367L1019 365L1034 368z"/></g><g><path class="class-1 leaflet-clickable" stroke-linejoin="round" stroke-linecap="round" fill-rule="evenodd" stroke="#005540" stroke-opacity="1" stroke-width="0.5" fill="#7fd" fill-opacity="0.5" d="M984 341L987 342L988 344L986 346L983 343L984 341z"/></g><g><path class="class-1 leaflet-clickable" stroke-linejoin="round" stroke-linecap="round" fill-rule="evenodd" stroke="#005540" stroke-opacity="1" stroke-width="0.5" fill="#7fd" fill-opacity="0.5" d="M540 248L544 248L549 244L550 241L554 239L558 229L564 230L563 233L565 233L568 236L568 245L574 253L583 253L585 256L584 258L590 262L590 264L592 264L589 267L587 267L588 270L586 271L588 275L588 280L590 280L593 286L598 289L601 295L600 296L603 299L606 299L606 297L612 299L614 305L617 308L615 308L616 316L619 317L621 321L620 322L622 324L622 328L628 329L625 333L625 340L626 339L627 342L626 343L622 341L621 344L603 325L602 321L596 315L591 307L573 294L557 274L544 269L541 265L537 265L535 257L540 248z"/></g><g><path class="class-0 leaflet-clickable" stroke-linejoin="round" stroke-linecap="round" fill-rule="evenodd" stroke="#005540" stroke-opacity="1" stroke-width="0.5" fill="#ddfff6" fill-opacity="0.5" d="M754 211L757 213L752 216L752 218L756 219L758 228L756 233L760 234L758 238L764 241L763 247L767 250L769 249L770 255L773 253L775 257L777 255L783 255L783 269L786 269L776 279L772 278L769 281L769 287L766 286L762 288L761 291L757 292L757 294L759 294L760 296L758 303L763 309L760 312L754 312L751 317L752 322L749 321L747 323L749 323L748 325L745 325L746 323L744 323L743 325L742 324L743 327L740 326L740 313L738 310L739 304L736 302L737 297L732 292L732 285L734 283L732 282L732 277L734 275L745 276L745 274L741 273L736 268L738 268L733 265L730 254L723 247L733 237L735 240L736 239L738 235L738 229L732 229L731 226L735 222L741 220L742 213L746 210L750 214L752 213z"/></g><g><path class="class-0 leaflet-clickable" stroke-linejoin="round" stroke-linecap="round" fill-rule="evenodd" stroke="#005540" stroke-opacity="1" stroke-width="0.5" fill="#ddfff6" fill-opacity="0.5" d="M708 355L707 356L709 358L704 359L700 364L696 364L690 361L687 362L685 360L690 352L690 348L696 347L698 345L702 347L701 348L704 348L704 352L708 355z"/></g><g><path class="class-2 leaflet-clickable" stroke-linejoin="round" stroke-linecap="round" fill-rule="evenodd" stroke="#005540" stroke-opacity="1" stroke-width="0.5" fill="#00cc99" fill-opacity="0.5" d="M666 238L674 241L676 249L674 252L675 261L671 268L675 272L672 272L671 275L677 281L676 282L683 287L685 287L690 279L694 294L693 296L690 297L686 297L685 295L675 295L663 306L664 315L662 315L662 317L659 319L656 326L655 331L657 336L653 337L653 344L648 347L644 342L642 342L642 340L640 340L638 343L636 341L635 339L639 337L636 333L637 332L629 332L627 328L624 329L622 327L620 322L621 321L618 316L616 317L615 308L617 309L615 307L614 302L609 297L606 297L606 299L602 299L598 289L588 280L586 271L588 269L587 268L592 265L591 264L594 267L598 267L603 263L601 264L601 258L604 257L603 254L608 246L610 236L611 237L613 234L615 237L616 236L619 239L620 238L626 243L634 243L635 245L641 243L646 247L654 235L658 237L663 237z"/></g><g><path class="class-3 leaflet-clickable" stroke-linejoin="round" stroke-linecap="round" fill-rule="evenodd" stroke="#005540" stroke-opacity="1" stroke-width="0.5" fill="#086" fill-opacity="0.5" d="M396 197L395 197z"/></g><g><path class="class-3 leaflet-clickable" stroke-linejoin="round" stroke-linecap="round" fill-rule="evenodd" stroke="#005540" stroke-opacity="1" stroke-width="0.5" fill="#086" fill-opacity="0.5" d="M404 195L406 201L405 204L401 202L404 199L404 196z"/></g><g><path class="class-3 leaflet-clickable" stroke-linejoin="round" stroke-linecap="round" fill-rule="evenodd" stroke="#005540" stroke-opacity="1" stroke-width="0.5" fill="#086" fill-opacity="0.5" d="M457 187L460 189L459 190L458 188z"/></g><g><path class="class-3 leaflet-clickable" stroke-linejoin="round" stroke-linecap="round" fill-rule="evenodd" stroke="#005540" stroke-opacity="1" stroke-width="0.5" fill="#086" fill-opacity="0.5" d="M443 176L443 177z"/></g><g><path class="class-3 leaflet-clickable" stroke-linejoin="round" stroke-linecap="round" fill-rule="evenodd" stroke="#005540" stroke-opacity="1" stroke-width="0.5" fill="#086" fill-opacity="0.5" d="M443 165L446 167L446 170L448 172L451 171L451 179L441 168L442 165z"/></g><g><path class="class-3 leaflet-clickable" stroke-linejoin="round" stroke-linecap="round" fill-rule="evenodd" stroke="#005540" stroke-opacity="1" stroke-width="0.5" fill="#086" fill-opacity="0.5" d="M333 174L335 177L334 182L332 177L333 174z"/></g><g><path class="class-3 leaflet-clickable" stroke-linejoin="round" stroke-linecap="round" fill-rule="evenodd" stroke="#005540" stroke-opacity="1" stroke-width="0.5" fill="#086" fill-opacity="0.5" d="M422 153L422 154z"/></g><g><path class="class-3 leaflet-clickable" stroke-linejoin="round" stroke-linecap="round" fill-rule="evenodd" stroke="#005540" stroke-opacity="1" stroke-width="0.5" fill="#086" fill-opacity="0.5" d="M415 112L415 112z"/></g><g><path class="class-3 leaflet-clickable" stroke-linejoin="round" stroke-linecap="round" fill-rule="evenodd" stroke="#005540" stroke-opacity="1" stroke-width="0.5" fill="#086" fill-opacity="0.5" d="M415 105L417 107L416 108L414 108L414 105z"/></g><g><path class="class-3 leaflet-clickable" stroke-linejoin="round" stroke-linecap="round" fill-rule="evenodd" stroke="#005540" stroke-opacity="1" stroke-width="0.5" fill="#086" fill-opacity="0.5" d="M413 86L410 88L408 93L410 95L410 102L413 103L414 105L414 110L412 113L412 123L416 129L416 137L418 142L417 149L423 157L423 159L426 159L440 172L443 182L445 180L447 184L450 184L452 191L458 195L457 197L459 199L459 205L427 205L430 201L429 198L431 194L429 190L424 186L424 184L421 181L419 181L418 177L415 176L415 174L393 159L394 157L391 153L391 146L385 140L386 134L380 127L379 128L378 119L371 112L372 109L370 106L371 107L372 104L366 99L366 96L361 88L361 85L415 80L413 86z"/></g><g><path class="class-1 leaflet-clickable" stroke-linejoin="round" stroke-linecap="round" fill-rule="evenodd" stroke="#005540" stroke-opacity="1" stroke-width="0.5" fill="#7fd" fill-opacity="0.5" d="M465 186L464 188L464 186z"/></g><g><path class="class-1 leaflet-clickable" stroke-linejoin="round" stroke-linecap="round" fill-rule="evenodd" stroke="#005540" stroke-opacity="1" stroke-width="0.5" fill="#7fd" fill-opacity="0.5" d="M471 173L473 179L470 186L465 182L466 175L470 173z"/></g><g><path class="class-1 leaflet-clickable" stroke-linejoin="round" stroke-linecap="round" fill-rule="evenodd" stroke="#005540" stroke-opacity="1" stroke-width="0.5" fill="#7fd" fill-opacity="0.5" d="M416 106L418 106L417 107z"/></g><g><path class="class-1 leaflet-clickable" stroke-linejoin="round" stroke-linecap="round" fill-rule="evenodd" stroke="#005540" stroke-opacity="1" stroke-width="0.5" fill="#7fd" fill-opacity="0.5" d="M413 86L493 115L498 118L551 118L550 120L548 120L549 123L552 125L551 126L553 126L550 126L550 129L547 129L547 132L549 135L548 136L555 141L554 144L556 145L554 145L554 158L556 158L556 160L553 160L554 166L552 168L552 182L555 186L557 196L545 198L544 202L548 209L547 210L551 213L553 217L555 222L553 224L556 231L559 231L553 239L553 241L551 241L548 244L548 246L540 248L540 244L538 241L533 238L528 238L524 229L516 227L512 223L509 223L510 209L508 207L507 208L503 206L503 208L501 208L501 206L495 204L489 195L485 193L479 186L480 184L473 180L473 173L471 170L470 171L468 169L469 167L465 162L463 156L460 155L460 148L452 134L453 122L447 119L440 118L440 114L435 110L427 113L418 106L411 103L409 96L410 95L408 93L410 91L410 87L413 87zM504 205L504 206z"/></g><g><path class="class-3 leaflet-clickable" stroke-linejoin="round" stroke-linecap="round" fill-rule="evenodd" stroke="#005540" stroke-opacity="1" stroke-width="0.5" fill="#086" fill-opacity="0.5" d="M675 179L667 191L668 192L662 202L662 207L661 206L660 209L662 209L662 223L664 224L665 229L663 234L666 236L666 238L654 235L652 236L653 237L646 247L642 243L636 245L634 243L629 244L628 242L627 243L621 240L620 238L619 239L616 236L615 237L613 234L612 237L610 237L611 238L608 242L608 246L603 253L604 257L601 258L601 264L603 262L599 267L595 267L584 258L585 257L582 252L574 253L572 251L568 245L568 237L565 233L563 233L563 229L557 231L555 230L556 229L555 230L555 227L553 225L555 222L553 219L554 217L552 216L551 212L547 210L549 209L544 202L544 198L557 196L557 192L552 181L553 176L551 174L551 172L553 172L552 168L554 166L553 160L556 159L554 157L554 145L556 146L553 138L549 137L547 133L547 130L550 129L550 126L553 126L551 126L552 125L549 123L550 121L548 121L551 118L564 118L564 106L567 105L604 106L609 113L612 116L614 116L625 128L635 135L637 135L637 137L639 137L640 143L644 148L644 156L647 159L647 161L651 165L655 166L654 167L657 170L664 172L675 179z"/></g></svg>