<svg xmlns="http://www.w3.org/2000/svg" class="leaflet-zoom-animated" width="1975" height="842" viewBox="-542 -193 1975 842" style="transform: translate3d(-542px, -193px, 0px);"><g><path class="class-3 leaflet-clickable" stroke-linejoin="round" stroke-linecap="round" fill-rule="evenodd" stroke="#005540" stroke-opacity="1" stroke-width="0.5" fill="#086" fill-opacity="0.5" d="M923 485L922 493L917 495L916 499L919 502L927 502L927 509L919 508L890 520L890 526L887 527L887 530L884 533L880 534L872 549L869 550L866 548L865 552L858 551L856 558L844 559L841 564L838 565L830 559L823 558L820 555L817 555L814 550L796 541L789 541L782 536L775 537L772 539L771 544L762 546L749 537L746 530L742 530L743 524L741 524L739 521L744 505L755 485L759 482L760 476L772 470L773 464L776 459L774 456L780 451L781 446L775 443L776 433L802 434L805 433L806 431L812 430L814 427L812 425L813 422L827 419L829 420L832 415L839 414L841 401L843 400L845 408L848 409L852 417L859 418L859 420L865 420L865 422L870 423L870 434L878 435L884 431L891 432L893 443L898 445L897 458L892 458L889 461L894 461L893 465L900 467L922 483z"/></g><g><path class="class-3 leaflet-clickable" stroke-linejoin="round" stroke-linecap="round" fill-rule="evenodd" stroke="#005540" stroke-opacity="1" stroke-width="0.5" fill="#086" fill-opacity="0.5" d="M0 0"/></g><g><path class="class-3 leaflet-clickable" stroke-linejoin="round" stroke-linecap="round" fill-rule="evenodd" stroke="#005540" stroke-opacity="1" stroke-width="0.5" fill="#086" fill-opacity="0.5" d="M0 0"/></g><g><path class="class-3 leaflet-clickable" stroke-linejoin="round" stroke-linecap="round" fill-rule="evenodd" stroke="#005540" stroke-opacity="1" stroke-width="0.5" fill="#086" fill-opacity="0.5" d="M0 0"/></g><g><path class="class-3 leaflet-clickable" stroke-linejoin="round" stroke-linecap="round" fill-rule="evenodd" stroke="#005540" stroke-opacity="1" stroke-width="0.5" fill="#086" fill-opacity="0.5" d="M0 0"/></g><g><path class="class-3 leaflet-clickable" stroke-linejoin="round" stroke-linecap="round" fill-rule="evenodd" stroke="#005540" stroke-opacity="1" stroke-width="0.5" fill="#086" fill-opacity="0.5" d="M0 0"/></g><g><path class="class-3 leaflet-clickable" stroke-linejoin="round" stroke-linecap="round" fill-rule="evenodd" stroke="#005540" stroke-opacity="1" stroke-width="0.5" fill="#086" fill-opacity="0.5" d="M0 0"/></g><g><path class="class-3 leaflet-clickable" stroke-linejoin="round" stroke-linecap="round" fill-rule="evenodd" stroke="#005540" stroke-opacity="1" stroke-width="0.5" fill="#086" fill-opacity="0.5" d="M0 0"/></g><g><path class="class-3 leaflet-clickable" stroke-linejoin="round" stroke-linecap="round" fill-rule="evenodd" stroke="#005540" stroke-opacity="1" stroke-width="0.5" fill="#086" fill-opacity="0.5" d="M0 0"/></g><g><path class="class-3 leaflet-clickable" stroke-linejoin="round" stroke-linecap="round" fill-rule="evenodd" stroke="#005540" stroke-opacity="1" stroke-width="0.5" fill="#086" fill-opacity="0.5" d="M0 0"/></g><g><path class="class-3 leaflet-clickable" stroke-linejoin="round" stroke-linecap="round" fill-rule="evenodd" stroke="#005540" stroke-opacity="1" stroke-width="0.5" fill="#086" fill-opacity="0.5" d="M0 0"/></g><g><path class="class-3 leaflet-clickable" stroke-linejoin="round" stroke-linecap="round" fill-rule="evenodd" stroke="#005540" stroke-opacity="1" stroke-width="0.5" fill="#086" fill-opacity="0.5" d="M0 0"/></g><g><path class="class-3 leaflet-clickable" stroke-linejoin="round" stroke-linecap="round" fill-rule="evenodd" stroke="#005540" stroke-opacity="1" stroke-width="0.5" fill="#086" fill-opacity="0.5" d="M0 0"/></g><g><path class="class-3 leaflet-clickable" stroke-linejoin="round" stroke-linecap="round" fill-rule="evenodd" stroke="#005540" stroke-opacity="1" stroke-width="0.5" fill="#086" fill-opacity="0.5" d="M0 0"/></g><g><path class="class-3 leaflet-clickable" stroke-linejoin="round" stroke-linecap="round" fill-rule="evenodd" stroke="#005540" stroke-opacity="1" stroke-width="0.5" fill="#086" fill-opacity="0.5" d="M0 0"/></g><g><path class="class-3 leaflet-clickable" stroke-linejoin="round" stroke-linecap="round" fill-rule="evenodd" stroke="#005540" stroke-opacity="1" stroke-width="0.5" fill="#086" fill-opacity="0.5" d="M0 0"/></g><g><path class="class-3 leaflet-clickable" stroke-linejoin="round" stroke-linecap="round" fill-rule="evenodd" stroke="#005540" stroke-opacity="1" stroke-width="0.5" fill="#086" fill-opacity="0.5" d="M0 0"/></g><g><path class="class-3 leaflet-clickable" stroke-linejoin="round" stroke-linecap="round" fill-rule="evenodd" stroke="#005540" stroke-opacity="1" stroke-width="0.5" fill="#086" fill-opacity="0.5" d="M0 0"/></g><g><path class="class-3 leaflet-clickable" stroke-linejoin="round" stroke-linecap="round" fill-rule="evenodd" stroke="#005540" stroke-opacity="1" stroke-width="0.5" fill="#086" fill-opacity="0.5" d="M0 0"/></g><g><path class="class-3 leaflet-clickable" stroke-linejoin="round" stroke-linecap="round" fill-rule="evenodd" stroke="#005540" stroke-opacity="1" stroke-width="0.5" fill="#086" fill-opacity="0.5" d="M0 0"/></g><g><path class="class-3 leaflet-clickable" stroke-linejoin="round" stroke-linecap="round" fill-rule="evenodd" stroke="#005540" stroke-opacity="1" stroke-width="0.5" fill="#086" fill-opacity="0.5" d="M0 0"/></g><g><path class="class-3 leaflet-clickable" stroke-linejoin="round" stroke-linecap="round" fill-rule="evenodd" stroke="#005540" stroke-opacity="1" stroke-width="0.5" fill="#086" fill-opacity="0.5" d="M0 0"/></g><g><path class="class-3 leaflet-clickable" stroke-linejoin="round" stroke-linecap="round" fill-rule="evenodd" stroke="#005540" stroke-opacity="1" stroke-width="0.5" fill="#086" fill-opacity="0.5" d="M0 0"/></g><g><path class="class-3 leaflet-clickable" stroke-linejoin="round" stroke-linecap="round" fill-rule="evenodd" stroke="#005540" stroke-opacity="1" stroke-width="0.5" fill="#086" fill-opacity="0.5" d="M0 0"/></g><g><path class="class-2 leaflet-clickable" stroke-linejoin="round" stroke-linecap="round" fill-rule="evenodd" stroke="#005540" stroke-opacity="1" stroke-width="0.5" fill="#00cc99" fill-opacity="0.5" d="M0 0"/></g><g><path class="class-2 leaflet-clickable" stroke-linejoin="round" stroke-linecap="round" fill-rule="evenodd" stroke="#005540" stroke-opacity="1" stroke-width="0.5" fill="#00cc99" fill-opacity="0.5" d="M0 0"/></g><g><path class="class-2 leaflet-clickable" stroke-linejoin="round" stroke-linecap="round" fill-rule="evenodd" stroke="#005540" stroke-opacity="1" stroke-width="0.5" fill="#00cc99" fill-opacity="0.5" d="M0 0"/></g><g><path class="class-2 leaflet-clickable" stroke-linejoin="round" stroke-linecap="round" fill-rule="evenodd" stroke="#005540" stroke-opacity="1" stroke-width="0.5" fill="#00cc99" fill-opacity="0.5" d="M0 0"/></g><g><path class="class-2 leaflet-clickable" stroke-linejoin="round" stroke-linecap="round" fill-rule="evenodd" stroke="#005540" stroke-opacity="1" stroke-width="0.5" fill="#00cc99" fill-opacity="0.5" d="M0 0"/></g><g><path class="class-2 leaflet-clickable" stroke-linejoin="round" stroke-linecap="round" fill-rule="evenodd" stroke="#005540" stroke-opacity="1" stroke-width="0.5" fill="#00cc99" fill-opacity="0.5" d="M0 0"/></g><g><path class="class-2 leaflet-clickable" stroke-linejoin="round" stroke-linecap="round" fill-rule="evenodd" stroke="#005540" stroke-opacity="1" stroke-width="0.5" fill="#00cc99" fill-opacity="0.5" d="M0 0"/></g><g><path class="class-2 leaflet-clickable" stroke-linejoin="round" stroke-linecap="round" fill-rule="evenodd" stroke="#005540" stroke-opacity="1" stroke-width="0.5" fill="#00cc99" fill-opacity="0.5" d="M1433 630.6666666666666L1433 637.6666666666666L1430 642L1433 643.5L1433 649L1260.6666666666667 649L1264 644L1271 645L1272 649L1300.875 649L1302 646L1308 643L1309 640L1317 642L1316 634L1321 628L1315 625L1309 625L1310 628L1306 629L1301 624L1299 617L1302 613L1303 608L1302 590L1303 587L1307 584L1308 573L1323 576L1330 587L1341 598L1344 599L1343 603L1346 602L1352 605L1355 604L1358 599L1364 599L1368 603L1370 603L1374 592L1373 590L1376 587L1375 579L1381 579L1388 583L1394 576L1392 572L1393 568L1403 563L1404 556L1411 557L1412 564L1420 570L1418 582L1421 597L1426 607L1427 616L1420 616L1419 622L1425 630L1428 629z"/></g><g><path class="class-2 leaflet-clickable" stroke-linejoin="round" stroke-linecap="round" fill-rule="evenodd" stroke="#005540" stroke-opacity="1" stroke-width="0.5" fill="#00cc99" fill-opacity="0.5" d="M0 0"/></g><g><path class="class-1 leaflet-clickable" stroke-linejoin="round" stroke-linecap="round" fill-rule="evenodd" stroke="#005540" stroke-opacity="1" stroke-width="0.5" fill="#7fd" fill-opacity="0.5" d="M0 0"/></g><g><path class="class-1 leaflet-clickable" stroke-linejoin="round" stroke-linecap="round" fill-rule="evenodd" stroke="#005540" stroke-opacity="1" stroke-width="0.5" fill="#7fd" fill-opacity="0.5" d="M1243 248L1242 254L1240 254L1240 264L1242 264L1241 269L1249 270L1249 275L1259 281L1253 283L1249 288L1250 291L1248 294L1246 292L1243 292L1245 300L1241 299L1241 310L1254 310L1256 328L1244 340L1244 343L1257 348L1269 343L1283 344L1290 347L1289 357L1297 361L1301 359L1306 362L1312 361L1319 357L1342 365L1346 370L1354 369L1345 344L1353 343L1357 345L1363 360L1367 361L1373 359L1376 367L1384 366L1391 381L1400 410L1422 411L1433 409L1433 630.6666666666666L1428 629L1425 630L1419 622L1420 616L1427 616L1426 607L1421 597L1418 582L1420 570L1412 564L1411 557L1404 556L1403 563L1393 568L1392 572L1394 576L1388 583L1381 579L1375 579L1376 587L1373 590L1374 592L1370 603L1368 603L1364 599L1358 599L1355 604L1352 605L1346 602L1343 603L1344 599L1341 598L1330 587L1323 576L1308 573L1307 584L1303 587L1300 593L1295 596L1292 593L1286 594L1279 599L1272 596L1269 592L1271 590L1268 588L1269 584L1250 584L1248 577L1239 571L1235 566L1231 569L1231 562L1229 559L1226 560L1221 556L1217 557L1212 552L1203 553L1198 551L1193 554L1185 555L1182 553L1179 556L1178 565L1176 568L1176 572L1179 578L1177 580L1164 581L1162 583L1158 583L1150 588L1148 585L1150 582L1146 580L1145 583L1142 584L1137 579L1131 579L1128 573L1117 570L1114 571L1113 569L1105 566L1110 557L1097 553L1094 550L1095 547L1091 546L1090 543L1086 543L1083 539L1069 537L1055 539L1050 538L1039 530L1040 527L1032 525L1026 527L1021 523L1013 522L1003 525L993 525L989 528L988 524L991 522L992 517L1005 509L1005 507L1001 504L1006 501L1007 498L1014 492L1016 485L1010 487L1011 483L1015 482L1016 474L1020 464L1018 463L1016 456L1020 450L1015 446L1013 442L1009 439L1004 438L1007 435L1007 433L1000 424L1001 419L1010 421L1012 404L1011 401L1022 402L1022 398L1027 391L1027 380L1024 371L1018 361L1014 362L1010 358L1016 351L1005 344L990 345L989 353L976 362L975 370L971 368L972 375L960 390L957 391L953 388L944 391L946 396L939 395L937 399L934 398L927 393L930 382L921 380L924 362L908 364L875 337L862 320L854 284L850 285L858 268L854 260L854 252L845 248L845 240L853 239L855 231L851 238L844 230L849 226L854 205L862 205L863 214L867 215L867 222L875 224L895 220L938 205L1000 152L1044 111L1040 63L1048 63L1068 54L1077 17L1079 22L1078 28L1089 39L1107 27L1132 -3L1152 15L1152 26L1146 50L1155 51L1154 60L1150 61L1161 66L1167 67L1167 72L1163 72L1166 81L1159 111L1162 112L1161 127L1166 127L1165 132L1171 135L1171 148L1172 147L1177 156L1180 156L1180 159L1173 174L1172 181L1176 181L1176 186L1178 188L1177 192L1172 189L1167 210L1178 221L1174 255L1201 262L1203 255L1195 256L1193 241L1206 242L1211 232L1221 235L1224 233L1220 244L1237 247z"/></g><g><path class="class-0 leaflet-clickable" stroke-linejoin="round" stroke-linecap="round" fill-rule="evenodd" stroke="#005540" stroke-opacity="1" stroke-width="0.5" fill="#ddfff6" fill-opacity="0.5" d="M0 0"/></g><g><path class="class-0 leaflet-clickable" stroke-linejoin="round" stroke-linecap="round" fill-rule="evenodd" stroke="#005540" stroke-opacity="1" stroke-width="0.5" fill="#ddfff6" fill-opacity="0.5" d="M0 0"/></g><g><path class="class-0 leaflet-clickable" stroke-linejoin="round" stroke-linecap="round" fill-rule="evenodd" stroke="#005540" stroke-opacity="1" stroke-width="0.5" fill="#ddfff6" fill-opacity="0.5" d="M0 0"/></g><g><path class="class-3 leaflet-clickable" stroke-linejoin="round" stroke-linecap="round" fill-rule="evenodd" stroke="#005540" stroke-opacity="1" stroke-width="0.5" fill="#086" fill-opacity="0.5" d="M1165.8333333333333 -193L1176 -190L1179 -187L1176 -173L1190 -171L1202 -173L1214 -166L1215 -167L1217 -159L1214 -156L1219 -152L1220 -149L1214 -146L1202 -149L1201 -142L1171 -153L1165 -153L1154 -156L1133 -152L1115 -138L1112 -104L1117 -101L1129 -88L1111 -72L1116 -55L1116 -16L1107 -16L1097 -21L1087 -13L1065 -23L1056 -29L1050 -41L1047 -51L1043 -58L1040 -60L1017 -67L1006 -62L995 -52L966 -56L963 -65L969 -63L970 -72L960 -77L955 -73L939 -80L928 -99L925 -108L883 -119L854 -129L844 -130L813 -128L816 -105L776 -118L742 -59L742 -53L729 -61L714 -63L709 -67L698 -70L668 -98L671 -101L671 -104L666 -109L667 -116L652 -127L650 -127L642 -142L635 -147L629 -155L625 -156L623 -163L625 -164L625 -167L628 -170L631 -181L641 -185L646 -183L649 -184L654 -179L653 -187L648 -189L643.6666666666666 -193z"/></g><g><path class="class-3 leaflet-clickable" stroke-linejoin="round" stroke-linecap="round" fill-rule="evenodd" stroke="#005540" stroke-opacity="1" stroke-width="0.5" fill="#086" fill-opacity="0.5" d="M1302 590L1303 608L1302 613L1299 617L1301 624L1306 629L1310 628L1309 625L1315 625L1321 628L1316 634L1317 642L1309 640L1308 643L1302 646L1300.875 649L1272 649L1271 645L1264 644L1260.6666666666667 649L937 649L939 648L941 634L955 629L959 631L962 628L962 617L956 610L958 608L971 604L974 605L974 599L963 584L966 582L967 577L969 576L968 573L973 568L973 563L971 563L973 556L976 552L978 543L974 543L974 535L981 535L993 525L1003 525L1013 522L1021 523L1026 527L1032 525L1040 527L1039 530L1050 538L1055 539L1069 537L1083 539L1086 543L1090 543L1091 546L1095 547L1094 550L1097 553L1110 557L1105 566L1113 569L1114 571L1117 570L1128 573L1131 579L1137 579L1142 584L1145 583L1146 580L1150 582L1148 585L1150 588L1164 581L1177 580L1179 578L1176 572L1176 568L1178 565L1179 556L1182 553L1185 555L1193 554L1198 551L1203 553L1212 552L1217 557L1221 556L1226 560L1229 559L1231 562L1231 569L1235 566L1239 571L1248 577L1250 584L1269 584L1268 588L1271 590L1269 592L1272 596L1279 599L1286 594L1292 593L1295 596L1300 593L1300 591z"/></g><g><path class="class-3 leaflet-clickable" stroke-linejoin="round" stroke-linecap="round" fill-rule="evenodd" stroke="#005540" stroke-opacity="1" stroke-width="0.5" fill="#086" fill-opacity="0.5" d="M762 546L771 544L772 539L775 537L782 536L789 541L796 541L814 550L817 555L820 555L823 558L830 559L838 565L841 564L844 559L856 558L858 551L865 552L866 548L869 550L872 549L880 534L884 533L887 530L887 527L890 526L890 520L919 508L927 509L927 502L919 502L916 499L917 495L922 493L923 485L931 487L937 486L938 489L943 488L947 490L946 492L960 502L961 509L967 507L976 507L977 523L980 523L982 528L984 527L987 530L981 535L974 535L974 543L978 543L976 552L973 556L971 563L973 563L973 568L968 573L969 576L967 577L966 582L963 584L974 599L974 605L971 604L958 608L956 610L962 617L962 628L959 631L955 629L941 634L939 648L937 649L498 649L513 649L516 647L518 649L522 649L531 646L530 642L539 636L543 640L548 641L559 638L563 640L566 638L565 633L570 627L574 626L574 624L579 621L580 613L576 611L579 605L582 605L584 603L580 600L579 593L575 592L573 589L570 591L565 590L563 586L559 584L560 579L554 578L547 571L550 566L549 563L546 561L553 550L547 543L548 537L543 535L537 536L535 534L531 534L524 531L519 533L510 532L504 528L499 520L501 518L498 515L497 508L501 503L502 497L498 494L489 497L483 494L482 491L480 490L474 495L466 496L468 480L465 471L467 469L469 458L472 454L471 450L474 443L480 436L480 423L485 423L487 414L490 410L495 408L497 411L503 414L501 408L502 404L497 401L499 399L497 395L499 391L505 389L507 392L513 392L511 389L515 386L519 386L520 392L523 395L524 399L522 402L522 406L520 408L519 417L516 417L516 420L521 420L525 417L531 418L533 414L532 410L535 410L538 406L541 406L541 402L545 400L546 397L544 392L536 389L532 385L538 383L533 380L535 378L535 374L530 373L527 366L531 359L526 359L522 352L525 351L526 347L529 344L550 343L552 347L566 346L578 349L579 354L576 358L577 367L575 370L566 374L559 380L560 383L556 388L558 392L557 398L555 397L556 404L554 406L558 409L547 425L549 435L548 439L554 446L556 456L558 457L562 447L562 439L565 434L561 426L562 423L568 417L569 404L573 395L575 381L580 381L581 378L595 383L603 380L606 381L606 387L609 387L608 392L610 393L611 404L613 408L607 411L608 414L605 424L600 423L598 428L599 433L606 436L590 466L595 471L601 470L605 472L610 466L614 464L618 467L622 465L622 469L624 470L629 468L630 470L636 468L641 449L645 449L646 446L654 443L659 445L661 441L659 440L661 432L656 430L654 434L651 436L652 427L649 425L649 418L655 415L658 411L660 414L663 412L663 410L668 410L673 413L675 410L684 415L685 421L680 426L677 426L675 433L676 436L679 435L681 432L697 433L700 436L700 439L705 443L705 448L696 453L696 461L701 464L700 468L696 471L693 470L687 477L696 478L695 487L691 490L689 489L686 491L679 491L680 497L675 497L671 495L667 496L665 493L654 502L653 508L647 508L643 511L641 509L632 523L625 526L624 524L619 527L620 529L613 530L612 532L617 536L619 535L623 541L623 547L621 547L620 554L617 556L614 563L614 574L608 571L607 576L605 578L602 577L601 574L598 574L590 579L592 587L588 595L594 596L596 601L601 602L602 606L607 610L610 603L616 600L624 613L620 618L614 619L612 621L603 618L600 620L595 620L593 624L587 623L584 626L585 634L594 630L600 631L600 640L596 646L602 649L700 649L706 635L707 638L710 637L712 639L713 637L717 636L719 640L725 641L725 645L730 646L733 641L738 640L745 627L749 629L749 624L755 622L757 625L760 623L760 620L765 617L765 611L768 612L771 620L774 620L780 615L781 611L778 601L782 597L779 594L784 589L781 585L781 582L770 579L771 575L767 575L765 571L763 572L758 570L755 559L757 558L751 556L759 551z"/></g><g><path class="class-2 leaflet-clickable" stroke-linejoin="round" stroke-linecap="round" fill-rule="evenodd" stroke="#005540" stroke-opacity="1" stroke-width="0.5" fill="#00cc99" fill-opacity="0.5" d="M1116 -16L1126 3L1107 27L1089 39L1078 28L1079 22L1077 17L1068 54L1048 63L1040 63L1044 111L1018 136L938 205L895 220L875 224L867 222L867 215L863 214L862 205L854 205L851 221L849 226L844 230L851 238L854 231L853 239L845 240L845 248L854 252L854 260L858 268L850 285L854 284L862 320L875 337L908 364L924 362L921 380L930 382L927 393L934 398L937 399L939 395L946 396L944 391L953 388L957 391L960 390L972 375L971 368L975 370L976 362L989 353L990 345L1005 344L1016 351L1010 358L1014 362L1018 361L1024 371L1027 380L1027 391L1022 398L1022 402L1011 401L1012 404L1010 421L1001 419L1000 424L1007 433L1007 435L1004 438L1009 439L1020 450L1016 456L1018 463L1020 464L1016 474L1015 482L1011 483L1010 487L1016 485L1014 492L1007 498L1006 501L1001 504L1005 507L1005 509L992 517L991 522L988 524L989 528L987 530L984 527L982 528L980 523L977 523L976 507L967 507L961 509L960 502L950 496L946 492L947 490L943 488L938 489L937 486L931 487L923 485L919 480L903 469L893 465L894 461L889 461L892 458L897 458L898 445L893 443L891 432L884 431L878 435L870 434L870 423L865 422L865 420L859 420L859 418L852 417L848 409L845 408L843 400L841 401L839 414L832 415L829 420L827 419L813 422L812 425L814 427L812 430L806 431L805 433L802 434L776 433L775 443L781 446L780 451L774 456L776 459L773 464L772 470L760 476L759 482L755 485L744 505L739 521L741 524L743 524L742 530L746 530L749 537L762 546L759 551L751 556L757 558L755 559L758 570L763 572L765 571L767 575L771 575L770 579L781 582L781 585L784 589L779 594L782 597L778 601L781 611L780 615L774 620L771 620L768 612L765 611L765 617L760 620L760 623L757 625L755 622L749 624L749 629L745 627L738 640L733 641L730 646L725 645L725 641L719 640L717 636L713 637L712 639L710 637L707 638L706 635L700 649L602 649L596 646L600 640L600 631L594 630L585 634L584 626L587 623L593 624L595 620L600 620L603 618L612 621L614 619L620 618L624 613L616 600L610 603L607 610L602 606L601 602L596 601L594 596L588 595L592 587L590 579L598 574L601 574L602 577L605 578L607 576L608 571L614 574L614 563L617 556L620 554L621 547L623 547L623 541L619 535L617 536L612 532L613 530L620 529L619 527L624 524L625 526L632 523L641 509L643 511L647 508L653 508L654 502L665 493L667 496L671 495L675 497L680 497L679 491L686 491L689 489L691 490L695 487L696 478L687 477L693 470L696 471L700 468L701 464L696 461L696 453L705 448L705 443L700 439L700 436L697 433L681 432L679 435L676 436L675 433L677 426L680 426L685 421L684 415L675 410L673 413L668 410L663 410L663 412L660 414L658 411L655 415L649 418L649 425L652 427L651 436L654 434L656 430L661 432L659 436L659 440L661 441L659 445L654 443L646 446L645 449L641 449L636 468L630 470L629 468L624 470L622 469L622 465L618 467L614 464L610 466L605 472L601 470L595 471L590 466L606 436L599 433L598 428L600 423L605 424L608 414L607 411L613 408L611 404L610 393L608 392L609 387L606 387L606 381L603 380L595 383L581 378L580 381L575 381L573 395L569 404L568 417L562 423L561 426L565 434L562 439L562 447L558 457L556 456L554 446L548 439L549 435L547 425L558 409L554 406L556 404L555 397L557 398L558 392L556 388L560 383L559 380L566 374L575 370L577 367L576 358L579 354L578 349L573 347L552 347L550 343L529 344L526 347L525 351L522 352L526 359L531 359L527 366L530 373L535 374L535 378L533 380L538 383L532 385L536 389L544 392L546 397L545 400L541 402L541 406L538 406L535 410L532 410L533 414L531 418L525 417L521 420L516 420L516 417L519 417L520 408L522 406L522 402L524 399L523 395L520 392L519 386L515 386L511 389L513 392L507 392L505 389L499 391L497 395L499 399L497 401L502 404L501 408L503 414L501 414L495 408L490 410L487 414L485 423L480 423L480 419L470 415L470 410L475 406L479 400L475 386L478 381L481 380L486 374L483 370L484 366L481 360L485 350L485 346L490 343L493 337L499 339L500 342L508 340L512 341L517 338L512 324L514 322L513 316L509 310L506 309L505 306L503 305L502 297L502 268L510 258L513 224L515 219L518 215L522 202L549 182L549 180L553 179L555 176L556 169L561 167L568 172L571 169L572 160L560 159L562 155L558 145L566 137L567 134L564 130L564 125L561 123L560 120L564 114L566 102L561 97L562 90L567 91L568 87L595 65L600 73L602 72L605 65L614 57L612 53L614 47L612 38L623 38L627 35L627 32L631 31L636 26L638 20L637 13L640 10L644 9L645 11L666 9L669 6L673 8L675 12L682 11L685 8L697 15L699 8L702 11L708 2L718 9L721 4L733 10L735 3L741 9L743 16L746 18L750 18L754 14L761 20L769 21L786 16L787 13L800 14L803 11L810 10L810 -3L804 -47L794 -85L775 -93L775 -101L780 -101L783 -106L776 -118L816 -105L813 -128L844 -130L854 -129L883 -119L925 -108L928 -99L939 -80L955 -73L960 -77L970 -72L969 -63L963 -65L966 -56L995 -52L1006 -62L1017 -67L1043 -58L1056 -29L1065 -23L1087 -13L1097 -21L1107 -16L1114 -15z"/></g><g><path class="class-2 leaflet-clickable" stroke-linejoin="round" stroke-linecap="round" fill-rule="evenodd" stroke="#005540" stroke-opacity="1" stroke-width="0.5" fill="#00cc99" fill-opacity="0.5" d="M1433 -193L1433 -129.33333333333334L1431 -128L1429 -121L1426 -120L1426 -118L1419 -115L1415 -116L1414 -111L1411 -108L1415 -88L1406 -77L1410 -60L1409 -61L1405 -59L1390 -65L1382 -59L1377 -59L1373 -53L1364 -50L1362 -51L1356 -46L1353 -41L1353 -35L1350 -31L1345 -30L1344 -27L1333 -29L1315 -20L1310 -15L1313 -1L1328 -6L1336 16L1335 29L1325 54L1324 72L1340 87L1345 89L1345 96L1349 97L1355 103L1360 122L1354 119L1339 140L1331 143L1304 138L1287 140L1269 183L1276 219L1265 216L1247 215L1235 227L1247 233L1243 248L1220 244L1224 233L1221 235L1211 232L1206 242L1193 241L1195 256L1203 255L1201 262L1174 255L1178 221L1167 210L1172 189L1177 192L1178 188L1176 186L1176 181L1172 181L1173 174L1180 159L1180 156L1177 156L1172 147L1171 148L1171 135L1165 132L1166 127L1161 127L1163 117L1162 112L1159 111L1166 81L1163 72L1167 72L1167 67L1161 66L1150 61L1154 60L1155 51L1146 50L1152 26L1152 15L1132 -3L1126 3L1116 -16L1116 -55L1111 -70L1111 -72L1129 -88L1112 -104L1115 -138L1133 -152L1154 -156L1165 -153L1171 -153L1201 -142L1202 -149L1214 -146L1220 -149L1219 -152L1214 -156L1217 -159L1215 -167L1214 -166L1202 -173L1190 -171L1176 -173L1179 -187L1176 -190L1165.8333333333333 -193z"/></g><g><path class="class-2 leaflet-clickable" stroke-linejoin="round" stroke-linecap="round" fill-rule="evenodd" stroke="#005540" stroke-opacity="1" stroke-width="0.5" fill="#00cc99" fill-opacity="0.5" d="M0 0"/></g><g><path class="class-3 leaflet-clickable" stroke-linejoin="round" stroke-linecap="round" fill-rule="evenodd" stroke="#005540" stroke-opacity="1" stroke-width="0.5" fill="#086" fill-opacity="0.5" d="M0 0"/></g><g><path class="class-2 leaflet-clickable" stroke-linejoin="round" stroke-linecap="round" fill-rule="evenodd" stroke="#005540" stroke-opacity="1" stroke-width="0.5" fill="#00cc99" fill-opacity="0.5" d="M1433 649L1433 643.5L1430 642L1433 637.6666666666666z"/></g><g><path class="class-3 leaflet-clickable" stroke-linejoin="round" stroke-linecap="round" fill-rule="evenodd" stroke="#005540" stroke-opacity="1" stroke-width="0.5" fill="#086" fill-opacity="0.5" d="M0 0"/></g><g><path class="class-1 leaflet-clickable" stroke-linejoin="round" stroke-linecap="round" fill-rule="evenodd" stroke="#005540" stroke-opacity="1" stroke-width="0.5" fill="#7fd" fill-opacity="0.5" d="M1433 409L1422 411L1400 410L1391 381L1384 366L1376 367L1373 359L1367 361L1363 360L1357 345L1353 343L1345 344L1354 369L1346 370L1342 365L1319 357L1312 361L1306 362L1301 359L1297 361L1289 357L1290 347L1283 344L1269 343L1257 348L1244 343L1244 340L1256 328L1254 310L1241 310L1241 299L1245 300L1243 292L1246 292L1248 294L1250 291L1249 288L1253 283L1259 281L1249 275L1249 270L1241 269L1242 264L1240 264L1240 254L1242 254L1247 233L1235 227L1247 215L1265 216L1276 219L1269 183L1287 140L1304 138L1331 143L1339 140L1354 119L1360 122L1355 103L1349 97L1345 96L1345 89L1340 87L1324 72L1325 54L1335 29L1336 16L1328 -6L1313 -1L1310 -15L1315 -20L1333 -29L1344 -27L1345 -30L1350 -31L1353 -35L1353 -41L1356 -46L1362 -51L1364 -50L1373 -53L1377 -59L1382 -59L1386 -63L1390 -64L1405 -59L1409 -61L1410 -60L1406 -77L1415 -88L1411 -108L1414 -111L1415 -116L1419 -115L1426 -118L1426 -120L1429 -121L1431 -128L1433 -129.33333333333334z"/></g><g><path class="class-2 leaflet-clickable" stroke-linejoin="round" stroke-linecap="round" fill-rule="evenodd" stroke="#005540" stroke-opacity="1" stroke-width="0.5" fill="#00cc99" fill-opacity="0.5" d="M-523 65L-526 67L-534 66L-539 58L-542 50.8L-542 28.2L-530 50L-526 54z"/></g><g><path class="class-2 leaflet-clickable" stroke-linejoin="round" stroke-linecap="round" fill-rule="evenodd" stroke="#005540" stroke-opacity="1" stroke-width="0.5" fill="#00cc99" fill-opacity="0.5" d="M0 0"/></g><g><path class="class-2 leaflet-clickable" stroke-linejoin="round" stroke-linecap="round" fill-rule="evenodd" stroke="#005540" stroke-opacity="1" stroke-width="0.5" fill="#00cc99" fill-opacity="0.5" d="M0 0"/></g><g><path class="class-2 leaflet-clickable" stroke-linejoin="round" stroke-linecap="round" fill-rule="evenodd" stroke="#005540" stroke-opacity="1" stroke-width="0.5" fill="#00cc99" fill-opacity="0.5" d="M0 0"/></g><g><path class="class-2 leaflet-clickable" stroke-linejoin="round" stroke-linecap="round" fill-rule="evenodd" stroke="#005540" stroke-opacity="1" stroke-width="0.5" fill="#00cc99" fill-opacity="0.5" d="M0 0"/></g><g><path class="class-2 leaflet-clickable" stroke-linejoin="round" stroke-linecap="round" fill-rule="evenodd" stroke="#005540" stroke-opacity="1" stroke-width="0.5" fill="#00cc99" fill-opacity="0.5" d="M0 0"/></g><g><path class="class-2 leaflet-clickable" stroke-linejoin="round" stroke-linecap="round" fill-rule="evenodd" stroke="#005540" stroke-opacity="1" stroke-width="0.5" fill="#00cc99" fill-opacity="0.5" d="M0 0"/></g><g><path class="class-2 leaflet-clickable" stroke-linejoin="round" stroke-linecap="round" fill-rule="evenodd" stroke="#005540" stroke-opacity="1" stroke-width="0.5" fill="#00cc99" fill-opacity="0.5" d="M0 0"/></g><g><path class="class-2 leaflet-clickable" stroke-linejoin="round" stroke-linecap="round" fill-rule="evenodd" stroke="#005540" stroke-opacity="1" stroke-width="0.5" fill="#00cc99" fill-opacity="0.5" d="M0 0"/></g><g><path class="class-2 leaflet-clickable" stroke-linejoin="round" stroke-linecap="round" fill-rule="evenodd" stroke="#005540" stroke-opacity="1" stroke-width="0.5" fill="#00cc99" fill-opacity="0.5" d="M0 0"/></g><g><path class="class-2 leaflet-clickable" stroke-linejoin="round" stroke-linecap="round" fill-rule="evenodd" stroke="#005540" stroke-opacity="1" stroke-width="0.5" fill="#00cc99" fill-opacity="0.5" d="M0 0"/></g><g><path class="class-2 leaflet-clickable" stroke-linejoin="round" stroke-linecap="round" fill-rule="evenodd" stroke="#005540" stroke-opacity="1" stroke-width="0.5" fill="#00cc99" fill-opacity="0.5" d="M0 0"/></g><g><path class="class-2 leaflet-clickable" stroke-linejoin="round" stroke-linecap="round" fill-rule="evenodd" stroke="#005540" stroke-opacity="1" stroke-width="0.5" fill="#00cc99" fill-opacity="0.5" d="M-542 89.11111111111111L-528 83L-527 87L-523 91L-525 95L-529 98L-530 105L-528 112L-518 120L-504 135L-506 140L-506 149L-503 156L-503 163L-500 166L-493 168L-482 175L-472 178L-471 180L-462 184L-464 191L-461 197L-454 205L-456 210L-452 217L-456 219L-454 222L-454 233L-457 240L-457 247L-460 255L-463 257L-471 269L-482 277L-489 278L-499 282L-507 288L-510 296L-521 300L-524 306L-533 314L-539 314L-542 317z"/></g><g><path class="class-1 leaflet-clickable" stroke-linejoin="round" stroke-linecap="round" fill-rule="evenodd" stroke="#005540" stroke-opacity="1" stroke-width="0.5" fill="#7fd" fill-opacity="0.5" d="M128 615L128 622L124 623L119 619L122 615z"/></g><g><path class="class-1 leaflet-clickable" stroke-linejoin="round" stroke-linecap="round" fill-rule="evenodd" stroke="#005540" stroke-opacity="1" stroke-width="0.5" fill="#7fd" fill-opacity="0.5" d="M90 590L102 592L104 597L100 599L99 604L82 598L79 595L85 590z"/></g><g><path class="class-1 leaflet-clickable" stroke-linejoin="round" stroke-linecap="round" fill-rule="evenodd" stroke="#005540" stroke-opacity="1" stroke-width="0.5" fill="#7fd" fill-opacity="0.5" d="M50 551L59 551L70 556L72 558L71 563L75 566L76 575L72 579L70 576L60 573L54 569L55 567L51 559L51 555z"/></g><g><path class="class-1 leaflet-clickable" stroke-linejoin="round" stroke-linecap="round" fill-rule="evenodd" stroke="#005540" stroke-opacity="1" stroke-width="0.5" fill="#7fd" fill-opacity="0.5" d="M47 535L49 542L46 544L44 541z"/></g><g><path class="class-1 leaflet-clickable" stroke-linejoin="round" stroke-linecap="round" fill-rule="evenodd" stroke="#005540" stroke-opacity="1" stroke-width="0.5" fill="#7fd" fill-opacity="0.5" d="M470 410L470 415L480 419L481 431L480 436L474 443L471 450L472 454L469 458L467 469L465 471L468 480L466 496L474 495L480 490L482 491L483 494L489 497L498 494L502 497L501 503L497 508L498 515L501 518L499 520L504 528L510 532L519 533L524 531L531 534L535 534L537 536L543 535L548 537L547 543L553 550L546 561L549 563L550 566L547 571L554 578L560 579L559 584L563 586L565 590L570 591L573 589L575 592L579 593L580 600L584 603L582 605L579 605L576 611L580 613L579 621L574 624L574 626L570 627L565 633L566 638L563 640L559 638L548 641L543 640L539 636L530 642L531 646L522 649L518 649L516 647L513 649L309.75 649L312 646L307 619L308 614L311 611L312 606L317 599L317 596L310 585L307 584L306 586L303 586L270 564L255 529L235 495L232 479L235 455L225 412L213 386L215 385L219 394L224 399L228 399L229 396L224 381L231 376L233 377L236 375L242 381L242 385L253 385L254 390L260 387L267 391L271 388L271 375L268 373L270 371L269 367L265 366L267 361L261 363L256 348L258 345L258 341L256 339L266 317L260 302L269 298L273 289L276 288L276 279L280 277L288 282L287 290L290 295L292 305L305 302L337 302L349 298L352 303L350 313L353 315L355 328L359 331L364 328L366 329L369 333L367 343L371 346L341 355L339 357L338 362L350 376L354 393L359 391L376 371L377 363L380 363L382 365L386 365L387 363L392 364L391 372L395 379L399 381L411 380L414 384L414 400L424 400L423 403L425 409L429 413L432 413L436 419L439 420L441 423L445 422L443 417L466 408z"/></g><g><path class="class-1 leaflet-clickable" stroke-linejoin="round" stroke-linecap="round" fill-rule="evenodd" stroke="#005540" stroke-opacity="1" stroke-width="0.5" fill="#7fd" fill-opacity="0.5" d="M643.6666666666666 -193L648 -189L653 -187L654 -179L649 -184L646 -183L641 -185L631 -181L628 -170L625 -167L625 -164L623 -163L625 -156L629 -155L635 -147L642 -142L650 -127L652 -127L667 -116L666 -109L671 -104L671 -101L668 -98L698 -70L709 -67L714 -63L729 -61L742 -53L742 -59L776 -118L783 -106L780 -101L775 -101L775 -93L794 -85L804 -47L810 -3L810 10L803 11L800 14L787 13L786 16L769 21L761 20L754 14L750 18L746 18L743 16L741 9L735 3L733 10L721 4L718 9L708 2L702 11L699 8L697 15L685 8L682 11L675 12L673 8L669 6L666 9L645 11L644 9L640 10L637 13L638 20L636 26L631 31L627 32L627 35L623 38L612 38L614 47L612 53L614 57L605 65L602 72L600 73L595 65L568 87L567 91L562 90L561 97L566 102L564 114L560 120L561 123L564 125L564 130L567 134L566 137L558 145L562 155L560 159L572 160L571 169L568 172L561 167L556 169L555 176L553 179L549 180L549 182L522 202L518 215L513 224L510 258L502 268L503 305L505 306L506 309L509 310L513 316L514 322L512 324L517 338L512 341L508 340L500 342L499 339L493 337L490 343L485 346L485 350L481 360L484 366L483 370L486 374L481 380L478 381L475 386L479 400L475 406L470 410L466 408L443 417L445 422L441 423L439 420L436 419L432 413L429 413L425 409L423 403L424 400L414 400L414 384L411 380L399 381L395 379L391 372L392 364L387 363L386 365L382 365L380 363L377 363L376 371L359 391L354 393L350 376L338 362L339 357L341 355L371 346L367 343L369 333L366 329L364 328L359 331L355 328L353 315L350 313L352 303L349 298L337 302L305 302L292 305L290 295L287 290L288 282L280 277L276 271L268 271L260 268L255 270L254 273L250 274L248 272L238 270L234 265L237 254L237 247L233 242L234 239L231 237L227 237L222 222L219 220L224 211L219 209L217 206L220 200L215 195L211 183L204 177L204 173L190 177L189 184L186 177L183 158L186 147L183 145L184 143L182 136L180 137L176 127L178 113L193 120L195 115L188 106L179 106L186 99L175 89L169 86L168 81L171 74L169 71L169 66L161 53L157 51L156 42L142 28L138 29L134 25L120 20L110 23L106 26L103 35L84 40L73 36L60 13L66 8L67 1L62 -3L56 -5L56 -10L52 -10L45 -24L41 -38L11 -70L5 -70L2 -67L-3 -76L1 -78L-1 -81L-13 -90L-17 -87L-16 -91L-25 -111L-36 -115L-35 -142L-40 -150L-37 -150L-35 -154L-42 -158L-51 -171L-44 -170L-51 -189L-46 -193z"/></g><g><path class="class-2 leaflet-clickable" stroke-linejoin="round" stroke-linecap="round" fill-rule="evenodd" stroke="#005540" stroke-opacity="1" stroke-width="0.5" fill="#00cc99" fill-opacity="0.5" d="M-46 -193L-51 -189L-44 -170L-51 -171L-42 -158L-35 -154L-37 -150L-40 -150L-35 -142L-36 -115L-25 -111L-16 -91L-17 -87L-13 -90L-1 -81L1 -78L-3 -76L0 -69L2 -67L5 -70L11 -70L41 -38L45 -24L52 -10L56 -10L56 -5L62 -3L67 1L66 8L60 13L73 36L84 40L103 35L106 26L110 23L120 20L134 25L138 29L142 28L156 42L157 51L161 53L169 66L169 71L171 74L168 81L169 86L175 89L186 99L179 106L188 106L195 115L193 120L178 113L176 127L180 137L182 136L184 143L183 145L186 147L183 158L186 177L189 184L190 177L204 173L204 177L211 183L215 195L220 200L217 206L219 209L224 211L219 220L222 222L225 234L227 237L231 237L234 239L233 242L237 247L237 254L234 265L238 270L248 272L250 274L254 273L255 270L260 268L268 271L276 271L280 277L276 279L276 288L273 289L269 298L260 302L266 317L256 339L258 341L258 345L256 348L261 363L267 361L265 366L269 367L270 371L268 373L271 375L272 383L271 388L267 391L260 387L254 390L253 385L242 385L242 381L236 375L233 377L231 376L224 381L228 390L228 399L224 399L221 397L215 385L213 385L205 367L193 351L176 335L164 327L131 288L109 267L99 259L95 257L94 259L91 256L93 251L84 242L83 238L79 233L81 233L82 229L74 218L66 208L55 198L55 195L46 187L43 181L30 172L25 166L22 165L25 161L24 158L20 151L15 147L15 143L9 136L7 127L-23 97L-48 75L-87 49L-99 37L-142 6L-158 -2L-167 -16L-184 -26L-195 -35L-198 -41L-199 -52L-208 -62L-211 -68L-217 -71L-220 -79L-240 -114L-257 -128L-256 -130L-260 -139L-267 -144L-274 -154L-285 -162L-314 -174L-332 -179L-340 -179L-361 -189L-381 -193z"/></g></svg>