<svg xmlns="http://www.w3.org/2000/svg" class="leaflet-zoom-animated" style="transform: translate(-355px, -165px);" width="1978" height="846" viewBox="-355 -165 1978 846"><g><path class="class-3 leaflet-clickable" stroke-linejoin="round" stroke-linecap="round" fill-rule="evenodd" stroke="#005540" stroke-opacity="1" stroke-width="0.5" fill="#086" fill-opacity="0.5" d="M718 435L722 441L726 441L728 446L733 450L732 451L735 452L733 452L736 454L742 454L741 460L745 464L745 471L746 470L747 473L751 475L750 480L747 484L748 485L744 487L743 491L739 493L734 487L732 488L722 484L714 484L706 478L682 470L683 469L678 465L674 464L665 455L657 452L658 448L664 445L664 439L666 438L670 438L670 440L672 441L688 441L690 443L691 442L691 444L692 441L690 441L689 439L688 432L691 433L693 431L696 434L695 437L700 444L706 438L710 438L714 434L717 436z"/></g><g><path class="class-3 leaflet-clickable" stroke-linejoin="round" stroke-linecap="round" fill-rule="evenodd" stroke="#005540" stroke-opacity="1" stroke-width="0.5" fill="#086" fill-opacity="0.5" d="M912 457L912 470L901 470L902 467L896 465L897 462L893 459L893 455L889 455L882 460L881 459L881 461L879 463L875 463L875 465L872 468L870 466L869 467L870 466L868 464L866 464L864 459L865 456L863 456L864 455L861 453L858 454L858 460L854 464L852 469L850 467L852 463L850 463L846 458L841 456L842 452L840 448L856 442L869 442L872 440L872 438L877 437L880 442L884 442L885 449L888 450L889 452L897 456L897 450L900 448L900 450L906 453L912 453L912 455z"/></g><g><path class="class-3 leaflet-clickable" stroke-linejoin="round" stroke-linecap="round" fill-rule="evenodd" stroke="#005540" stroke-opacity="1" stroke-width="0.5" fill="#086" fill-opacity="0.5" d="M698 397L702 399L701 401L704 404L703 405L705 408L703 408L701 412L702 419L699 420L697 426L691 433L688 432L689 439L692 441L692 444L688 441L685 442L683 440L677 439L673 441L667 438L664 439L663 441L664 446L657 449L657 455L627 445L621 436L627 429L632 428L635 430L638 427L638 425L639 426L639 424L644 422L645 423L647 421L648 417L644 417L645 415L642 410L644 408L643 406L637 405L637 402L640 401L639 400L644 401L650 396L657 395L661 395L660 396L662 396L664 400L668 400L669 397L673 396L673 398L676 399L674 399L674 402L676 404L680 404L680 402L682 402L685 406L695 406L698 405L697 402L699 398z"/></g><g><path class="class-3 leaflet-clickable" stroke-linejoin="round" stroke-linecap="round" fill-rule="evenodd" stroke="#005540" stroke-opacity="1" stroke-width="0.5" fill="#086" fill-opacity="0.5" d="M846 473L840 489L842 492L841 496L843 500L837 497L827 495L815 496L810 501L806 501L796 506L795 505L792 508L783 508L774 505L771 502L757 501L747 494L740 493L744 490L743 487L748 485L747 484L750 481L750 477L752 475L747 474L746 470L745 471L745 464L741 460L742 456L746 454L747 455L749 453L753 453L756 455L758 452L757 451L756 453L755 448L760 445L762 452L769 448L774 449L781 443L782 437L788 440L793 449L801 449L802 454L800 459L804 463L807 464L813 459L815 459L816 460L814 462L818 467L823 470L822 471L841 473z"/></g><g><path class="class-3 leaflet-clickable" stroke-linejoin="round" stroke-linecap="round" fill-rule="evenodd" stroke="#005540" stroke-opacity="1" stroke-width="0.5" fill="#086" fill-opacity="0.5" d="M730 427L733 430L737 428L735 434L736 441L735 442L733 440L728 444L722 441L718 436L723 425L730 427z"/></g><g><path class="class-3 leaflet-clickable" stroke-linejoin="round" stroke-linecap="round" fill-rule="evenodd" stroke="#005540" stroke-opacity="1" stroke-width="0.5" fill="#086" fill-opacity="0.5" d="M781 443L777 447L772 449L769 448L764 452L762 452L760 446L756 446L756 453L758 451L759 452L757 452L754 455L752 453L748 453L748 455L743 456L742 453L738 454L728 446L728 444L731 441L736 442L735 434L738 428L737 417L739 417L748 426L751 423L754 425L756 422L760 421L757 417L754 416L755 415L753 413L751 413L751 411L746 412L747 411L745 408L750 401L748 398L745 398L748 397L754 390L755 384L758 385L758 389L762 392L757 395L759 397L758 400L762 402L765 398L771 401L765 416L767 418L766 419L775 422L773 424L774 425L770 424L767 437L768 436L773 441L777 439L781 443z"/></g><g><path class="class-3 leaflet-clickable" stroke-linejoin="round" stroke-linecap="round" fill-rule="evenodd" stroke="#005540" stroke-opacity="1" stroke-width="0.5" fill="#086" fill-opacity="0.5" d="M565 371L564 371z"/></g><g><path class="class-3 leaflet-clickable" stroke-linejoin="round" stroke-linecap="round" fill-rule="evenodd" stroke="#005540" stroke-opacity="1" stroke-width="0.5" fill="#086" fill-opacity="0.5" d="M560 368L562 369L561 370L559 368z"/></g><g><path class="class-3 leaflet-clickable" stroke-linejoin="round" stroke-linecap="round" fill-rule="evenodd" stroke="#005540" stroke-opacity="1" stroke-width="0.5" fill="#086" fill-opacity="0.5" d="M555 363L557 363L558 366L556 366L555 364z"/></g><g><path class="class-3 leaflet-clickable" stroke-linejoin="round" stroke-linecap="round" fill-rule="evenodd" stroke="#005540" stroke-opacity="1" stroke-width="0.5" fill="#086" fill-opacity="0.5" d="M555 361L554 362z"/></g><g><path class="class-3 leaflet-clickable" stroke-linejoin="round" stroke-linecap="round" fill-rule="evenodd" stroke="#005540" stroke-opacity="1" stroke-width="0.5" fill="#086" fill-opacity="0.5" d="M607 346L609 347L607 356L611 356L612 360L616 361L618 363L617 366L622 370L619 373L620 374L610 376L611 381L607 385L610 387L610 389L599 380L590 382L587 388L585 386L580 386L588 376L588 367L587 368L582 364L578 356L578 349L575 343L576 342L576 344L578 341L583 343L581 339L581 333L584 329L585 332L593 332L592 333L595 337L591 339L593 343L597 340L602 344L603 347L607 345z"/></g><g><path class="class-3 leaflet-clickable" stroke-linejoin="round" stroke-linecap="round" fill-rule="evenodd" stroke="#005540" stroke-opacity="1" stroke-width="0.5" fill="#086" fill-opacity="0.5" d="M712 368L711 371L712 373L714 373L710 376L706 375L707 376L705 382L696 382L693 385L695 393L699 398L697 402L698 405L685 406L682 402L680 402L680 404L676 404L674 402L674 400L676 399L673 398L673 396L671 396L668 399L662 399L662 397L659 394L662 391L659 384L662 382L666 374L669 373L668 370L670 370L669 367L671 363L670 362L672 360L678 360L680 362L682 361L690 367L696 367L697 363L699 363L709 369L711 368z"/></g><g><path class="class-3 leaflet-clickable" stroke-linejoin="round" stroke-linecap="round" fill-rule="evenodd" stroke="#005540" stroke-opacity="1" stroke-width="0.5" fill="#086" fill-opacity="0.5" d="M737 417L736 414L742 414L745 412L744 411L750 411L755 415L755 417L757 417L760 420L759 422L756 421L754 424L751 423L748 426L741 420L740 417L738 418z"/></g><g><path class="class-3 leaflet-clickable" stroke-linejoin="round" stroke-linecap="round" fill-rule="evenodd" stroke="#005540" stroke-opacity="1" stroke-width="0.5" fill="#086" fill-opacity="0.5" d="M757 349L759 357L767 366L765 372L766 378L773 392L780 398L787 407L790 419L795 424L795 426L798 427L800 432L805 435L814 435L824 440L831 449L840 447L841 456L849 460L851 463L851 470L849 470L846 473L822 472L823 470L818 467L814 462L816 460L815 459L813 459L807 464L804 464L800 459L802 454L801 449L793 449L794 448L793 449L791 447L786 438L782 437L781 444L779 440L775 439L773 441L770 437L767 436L769 431L768 428L775 422L766 419L767 418L765 416L765 414L768 411L768 407L772 401L765 398L762 402L758 400L759 397L757 395L758 393L759 394L762 392L759 391L757 384L755 384L754 390L752 391L750 388L749 391L744 395L739 396L740 395L738 392L741 390L742 387L740 388L744 383L744 385L746 385L747 380L749 378L745 376L746 375L743 376L740 373L741 370L740 371L737 365L742 361L739 356L741 357L742 353L745 350L737 346L743 346L746 344L752 347L755 351L756 349z"/></g><g><path class="class-2 leaflet-clickable" stroke-linejoin="round" stroke-linecap="round" fill-rule="evenodd" stroke="#005540" stroke-opacity="1" stroke-width="0.5" fill="#00cc99" fill-opacity="0.5" d="M496 248L500 248L505 244L506 241L510 239L514 229L520 230L519 233L521 233L524 236L524 245L530 253L539 253L541 256L540 258L546 262L546 264L548 264L545 267L543 267L544 270L542 271L544 275L544 280L546 280L549 286L554 289L557 295L556 296L559 299L562 299L562 297L568 299L570 305L573 308L571 308L572 316L575 317L577 321L576 322L578 324L578 328L584 329L581 333L581 340L582 339L583 342L582 343L578 341L577 344L559 325L558 321L552 315L547 307L529 294L513 274L500 269L497 265L493 265L491 257L496 248z"/></g><g><path class="class-2 leaflet-clickable" stroke-linejoin="round" stroke-linecap="round" fill-rule="evenodd" stroke="#005540" stroke-opacity="1" stroke-width="0.5" fill="#00cc99" fill-opacity="0.5" d="M990 368L990 380L987 386L976 398L970 398L964 404L962 404L961 407L959 407L960 408L954 414L953 413L950 415L947 413L943 407L943 404L940 400L938 400L934 393L931 394L926 391L925 384L927 379L937 374L963 370L967 367L972 367L975 365L990 368z"/></g><g><path class="class-2 leaflet-clickable" stroke-linejoin="round" stroke-linecap="round" fill-rule="evenodd" stroke="#005540" stroke-opacity="1" stroke-width="0.5" fill="#00cc99" fill-opacity="0.5" d="M940 341L943 342L944 344L942 346L939 343L940 341z"/></g><g><path class="class-2 leaflet-clickable" stroke-linejoin="round" stroke-linecap="round" fill-rule="evenodd" stroke="#005540" stroke-opacity="1" stroke-width="0.5" fill="#00cc99" fill-opacity="0.5" d="M752 392L748 397L745 398L749 399L749 401L745 407L747 410L744 411L745 412L743 414L737 414L738 409L735 407L731 407L730 409L729 406L731 404L729 403L729 405L726 404L724 408L722 408L721 410L721 408L718 405L718 400L715 401L710 398L710 391L715 390L717 388L721 379L720 378L728 376L730 372L731 375L737 376L737 372L741 370L740 373L743 376L746 375L745 376L747 376L749 379L746 383L747 385L742 384L739 388L741 387L739 396L744 395L750 389L752 391z"/></g><g><path class="class-2 leaflet-clickable" stroke-linejoin="round" stroke-linecap="round" fill-rule="evenodd" stroke="#005540" stroke-opacity="1" stroke-width="0.5" fill="#00cc99" fill-opacity="0.5" d="M901 470L904 473L905 472L905 474L909 476L908 477L913 481L918 483L919 488L925 491L924 498L895 498L884 518L887 522L884 527L885 531L883 535L855 507L847 501L842 500L840 496L842 495L842 492L840 489L846 473L854 466L854 464L858 460L857 458L860 453L863 455L863 457L865 457L864 459L867 465L868 464L870 466L869 467L870 466L872 468L876 463L881 462L880 461L886 458L886 456L889 454L892 455L892 459L896 460L896 466L901 467L902 470z"/></g><g><path class="class-2 leaflet-clickable" stroke-linejoin="round" stroke-linecap="round" fill-rule="evenodd" stroke="#005540" stroke-opacity="1" stroke-width="0.5" fill="#00cc99" fill-opacity="0.5" d="M704 325L706 329L704 331L706 335L704 337L709 337L717 341L718 337L726 346L739 346L745 350L739 357L741 357L741 361L737 365L740 368L740 370L736 372L738 372L737 376L733 376L730 372L727 373L725 364L720 370L718 370L714 366L712 366L712 368L709 369L700 363L698 363L696 367L692 368L688 366L685 362L672 360L676 355L676 351L674 348L677 344L675 339L676 338L673 337L671 341L670 340L669 343L666 344L664 342L664 339L662 340L657 335L655 330L656 328L654 325L656 323L654 323L656 320L658 322L666 320L679 308L679 302L682 301L683 296L685 299L690 295L693 296L692 301L695 303L695 326L698 327L698 324L699 325L700 323L702 323L701 325L703 325z"/></g><g><path class="class-2 leaflet-clickable" stroke-linejoin="round" stroke-linecap="round" fill-rule="evenodd" stroke="#005540" stroke-opacity="1" stroke-width="0.5" fill="#00cc99" fill-opacity="0.5" d="M371 444L371 444z"/></g><g><path class="class-2 leaflet-clickable" stroke-linejoin="round" stroke-linecap="round" fill-rule="evenodd" stroke="#005540" stroke-opacity="1" stroke-width="0.5" fill="#00cc99" fill-opacity="0.5" d="M456 432L458 434L457 435L455 433L456 432z"/></g><g><path class="class-2 leaflet-clickable" stroke-linejoin="round" stroke-linecap="round" fill-rule="evenodd" stroke="#005540" stroke-opacity="1" stroke-width="0.5" fill="#00cc99" fill-opacity="0.5" d="M627 429L621 436L607 426L600 424L601 425L604 422L605 423L613 421L612 420L614 416L619 419L623 416L627 420L627 429z"/></g><g><path class="class-2 leaflet-clickable" stroke-linejoin="round" stroke-linecap="round" fill-rule="evenodd" stroke="#005540" stroke-opacity="1" stroke-width="0.5" fill="#00cc99" fill-opacity="0.5" d="M460 422L460 421z"/></g><g><path class="class-2 leaflet-clickable" stroke-linejoin="round" stroke-linecap="round" fill-rule="evenodd" stroke="#005540" stroke-opacity="1" stroke-width="0.5" fill="#00cc99" fill-opacity="0.5" d="M688 292L690 295L685 299L683 297L682 301L680 302L679 308L674 313L666 320L661 322L658 322L656 320L654 323L656 323L654 325L658 336L662 340L664 339L664 342L666 344L669 343L673 337L676 338L675 339L677 343L675 344L674 348L676 350L676 355L673 359L672 360L671 358L664 355L660 352L660 348L659 349L654 345L652 347L646 348L646 352L641 359L644 363L644 366L647 368L646 371L644 371L640 375L637 374L637 378L635 379L631 379L624 376L622 372L626 371L626 369L622 369L622 367L626 365L627 362L625 360L635 355L637 350L635 348L634 349L632 345L630 347L631 350L629 350L628 353L622 352L625 349L625 344L624 342L622 342L620 343L619 351L617 347L619 343L618 342L621 341L621 339L618 337L614 338L617 343L614 347L614 343L612 343L610 347L608 346L609 338L613 336L611 331L614 319L619 315L620 316L619 306L623 302L625 302L625 299L627 299L629 295L641 295L644 297L649 296L650 291L646 283L646 280L651 281L650 278L659 279L664 281L666 284L670 285L669 286L671 288L677 286L680 288L681 291L685 293L688 292z"/></g><g><path class="class-1 leaflet-clickable" stroke-linejoin="round" stroke-linecap="round" fill-rule="evenodd" stroke="#005540" stroke-opacity="1" stroke-width="0.5" fill="#7fd" fill-opacity="0.5" d="M664 355L663 356L665 358L660 359L656 364L652 364L646 361L643 362L641 360L646 352L646 348L652 347L654 345L658 347L657 348L660 348L660 352L664 355z"/></g><g><path class="class-1 leaflet-clickable" stroke-linejoin="round" stroke-linecap="round" fill-rule="evenodd" stroke="#005540" stroke-opacity="1" stroke-width="0.5" fill="#7fd" fill-opacity="0.5" d="M622 238L630 241L632 249L630 252L631 261L627 268L631 272L628 272L627 275L633 281L632 282L639 287L641 287L646 279L650 294L649 296L646 297L642 297L641 295L631 295L619 306L620 315L618 315L618 317L615 319L612 326L611 331L613 336L609 337L609 344L604 347L600 342L598 342L598 340L596 340L594 343L592 341L591 339L595 337L592 333L593 332L585 332L583 328L580 329L578 327L576 322L577 321L574 316L572 317L571 308L573 309L571 307L570 302L565 297L562 297L562 299L558 299L554 289L544 280L542 271L544 269L543 268L548 265L547 264L550 267L554 267L559 263L557 264L557 258L560 257L559 254L564 246L566 236L567 237L569 234L571 237L572 236L575 239L576 238L582 243L590 243L591 245L597 243L602 247L610 235L614 237L619 237z"/></g><g><path class="class-1 leaflet-clickable" stroke-linejoin="round" stroke-linecap="round" fill-rule="evenodd" stroke="#005540" stroke-opacity="1" stroke-width="0.5" fill="#7fd" fill-opacity="0.5" d="M710 211L706 215L702 210L698 213L697 220L691 222L687 226L688 229L694 229L694 235L692 239L691 240L689 237L679 247L688 258L687 261L691 267L694 268L692 268L696 271L696 273L701 273L701 276L690 275L688 277L688 281L690 283L688 285L687 292L685 293L677 286L671 288L669 286L670 285L656 278L650 278L651 281L646 279L641 288L632 282L633 281L627 275L627 273L629 271L630 272L627 268L631 262L630 252L632 249L630 241L622 238L622 236L619 233L621 230L617 210L618 209L616 209L616 206L618 206L618 203L624 192L623 191L631 179L635 180L636 177L640 173L641 174L640 172L642 170L643 164L647 159L651 159L654 156L665 159L673 158L675 162L677 162L677 164L678 163L678 165L691 176L695 188L699 193L698 194L710 210z"/></g><g><path class="class-1 leaflet-clickable" stroke-linejoin="round" stroke-linecap="round" fill-rule="evenodd" stroke="#005540" stroke-opacity="1" stroke-width="0.5" fill="#7fd" fill-opacity="0.5" d="M644 362L646 361L654 365L664 358L665 357L663 357L665 355L667 355L672 361L670 361L671 362L669 367L671 370L669 370L669 372L666 374L666 376L659 385L662 388L659 394L657 396L651 396L642 402L641 400L637 402L637 405L639 404L644 407L644 409L642 410L645 415L644 416L649 417L646 423L644 422L640 424L635 430L633 428L627 429L627 421L623 416L619 419L614 416L612 421L605 423L604 422L601 425L597 423L597 421L596 422L593 420L591 415L589 415L581 404L577 394L585 392L587 390L586 388L588 385L589 386L591 382L596 380L603 382L610 390L609 385L607 385L611 381L610 376L620 374L619 373L622 370L617 365L618 363L616 361L612 361L611 357L607 355L609 347L611 345L612 346L611 343L614 344L613 347L617 344L614 339L615 337L621 339L621 341L618 342L619 343L617 347L619 351L619 347L622 341L625 343L622 352L623 353L627 353L629 350L631 350L630 347L632 345L634 347L633 348L637 350L635 356L631 356L627 360L625 360L627 362L626 365L622 367L622 369L626 369L627 371L622 373L624 373L625 377L635 379L637 374L640 375L644 371L645 372L647 368L643 365L644 363z"/></g><g><path class="class-1 leaflet-clickable" stroke-linejoin="round" stroke-linecap="round" fill-rule="evenodd" stroke="#005540" stroke-opacity="1" stroke-width="0.5" fill="#7fd" fill-opacity="0.5" d="M728 373L727 376L723 378L722 376L717 386L718 388L710 391L710 398L708 397L708 402L704 404L701 401L701 398L699 398L695 394L693 385L696 382L704 382L705 379L706 380L706 375L712 375L714 373L711 372L713 366L720 370L725 364L727 373z"/></g><g><path class="class-1 leaflet-clickable" stroke-linejoin="round" stroke-linecap="round" fill-rule="evenodd" stroke="#005540" stroke-opacity="1" stroke-width="0.5" fill="#7fd" fill-opacity="0.5" d="M757 349L755 351L747 344L745 344L744 346L737 345L735 347L728 345L726 346L718 337L717 341L714 339L710 339L709 337L704 337L706 335L704 332L706 330L704 328L705 323L703 323L705 321L708 322L707 317L710 312L716 312L718 309L718 307L714 303L716 296L713 294L713 292L717 291L718 288L722 286L724 287L726 283L725 281L728 278L731 279L742 270L739 269L739 255L733 255L731 257L729 253L726 255L725 249L723 250L719 247L720 241L714 239L716 234L712 233L714 229L712 219L708 218L708 216L713 213L717 216L719 230L723 234L727 246L729 245L731 247L736 248L736 250L742 250L747 255L760 255L765 260L767 259L766 258L771 257L771 263L764 276L759 294L757 336L755 339L756 348z"/></g><g><path class="class-0 leaflet-clickable" stroke-linejoin="round" stroke-linecap="round" fill-rule="evenodd" stroke="#005540" stroke-opacity="1" stroke-width="0.5" fill="#ddfff6" fill-opacity="0.5" d="M925 384L925 391L929 391L930 394L933 393L938 397L937 398L943 404L946 412L953 418L953 457L912 457L912 453L902 451L899 449L900 448L897 451L897 455L885 449L885 444L881 442L878 438L881 436L889 436L892 438L909 428L918 420L918 412L924 405L923 391L925 384z"/></g><g><path class="class-0 leaflet-clickable" stroke-linejoin="round" stroke-linecap="round" fill-rule="evenodd" stroke="#005540" stroke-opacity="1" stroke-width="0.5" fill="#ddfff6" fill-opacity="0.5" d="M994 443L995 440L995 442z"/></g><g><path class="class-0 leaflet-clickable" stroke-linejoin="round" stroke-linecap="round" fill-rule="evenodd" stroke="#005540" stroke-opacity="1" stroke-width="0.5" fill="#ddfff6" fill-opacity="0.5" d="M996 435L996 437L996 435z"/></g><g><path class="class-0 leaflet-clickable" stroke-linejoin="round" stroke-linecap="round" fill-rule="evenodd" stroke="#005540" stroke-opacity="1" stroke-width="0.5" fill="#ddfff6" fill-opacity="0.5" d="M1008 391L1002 398L1002 394L1004 391L1009 390z"/></g><g><path class="class-0 leaflet-clickable" stroke-linejoin="round" stroke-linecap="round" fill-rule="evenodd" stroke="#005540" stroke-opacity="1" stroke-width="0.5" fill="#ddfff6" fill-opacity="0.5" d="M953 454L952 450L954 449L954 425L953 418L950 415L953 413L954 414L954 412L956 412L956 410L961 407L961 405L964 404L965 401L968 401L970 398L976 397L980 394L987 386L990 380L990 368L997 370L1000 369L1001 366L1006 373L1006 370L1007 371L1007 379L1004 385L992 399L992 409L991 410L992 406L991 409L985 412L987 416L992 413L993 414L992 418L987 420L987 424L990 421L992 421L990 423L982 449L979 449L979 443L974 443L974 441L968 441L966 447L963 449L960 455L956 452L954 454z"/></g><g><path class="class-0 leaflet-clickable" stroke-linejoin="round" stroke-linecap="round" fill-rule="evenodd" stroke="#005540" stroke-opacity="1" stroke-width="0.5" fill="#ddfff6" fill-opacity="0.5" d="M1000 365L998 367L993 368L995 366L999 366z"/></g><g><path class="class-0 leaflet-clickable" stroke-linejoin="round" stroke-linecap="round" fill-rule="evenodd" stroke="#005540" stroke-opacity="1" stroke-width="0.5" fill="#ddfff6" fill-opacity="0.5" d="M710 398L715 401L718 400L718 407L721 409L720 410L724 407L724 405L729 405L729 403L730 409L732 407L735 407L738 410L736 414L738 418L738 428L733 430L730 427L730 421L728 419L727 414L721 421L723 425L722 430L719 431L720 433L717 436L713 434L714 435L712 435L710 438L706 438L700 444L696 439L697 438L695 437L696 434L693 431L702 418L700 412L703 411L703 403L707 403L707 399L709 398z"/></g><g><path class="class-0 leaflet-clickable" stroke-linejoin="round" stroke-linecap="round" fill-rule="evenodd" stroke="#005540" stroke-opacity="1" stroke-width="0.5" fill="#ddfff6" fill-opacity="0.5" d="M710 211L713 213L708 216L708 218L712 219L714 228L712 233L716 234L714 238L720 241L719 247L723 250L725 249L726 255L729 253L731 257L733 255L739 255L739 269L742 269L732 279L728 278L725 281L725 287L722 286L718 288L717 291L713 292L713 294L715 294L716 296L714 303L719 309L716 312L710 312L707 317L708 322L705 321L703 323L705 323L704 325L701 325L702 323L700 323L699 325L698 324L699 327L696 326L696 313L694 310L695 304L692 302L693 297L688 292L688 285L690 283L688 282L688 277L690 275L701 276L701 274L697 273L692 268L694 268L689 265L686 254L679 247L689 237L691 240L692 239L694 235L694 229L688 229L687 226L691 222L697 220L698 213L702 210L706 214L708 213z"/></g><g><path class="class-0 leaflet-clickable" stroke-linejoin="round" stroke-linecap="round" fill-rule="evenodd" stroke="#005540" stroke-opacity="1" stroke-width="0.5" fill="#ddfff6" fill-opacity="0.5" d="M352 197L351 197z"/></g><g><path class="class-0 leaflet-clickable" stroke-linejoin="round" stroke-linecap="round" fill-rule="evenodd" stroke="#005540" stroke-opacity="1" stroke-width="0.5" fill="#ddfff6" fill-opacity="0.5" d="M360 195L362 201L361 204L357 202L360 199L360 196z"/></g><g><path class="class-0 leaflet-clickable" stroke-linejoin="round" stroke-linecap="round" fill-rule="evenodd" stroke="#005540" stroke-opacity="1" stroke-width="0.5" fill="#ddfff6" fill-opacity="0.5" d="M413 187L416 189L415 190L414 188z"/></g><g><path class="class-0 leaflet-clickable" stroke-linejoin="round" stroke-linecap="round" fill-rule="evenodd" stroke="#005540" stroke-opacity="1" stroke-width="0.5" fill="#ddfff6" fill-opacity="0.5" d="M399 176L399 177z"/></g><g><path class="class-0 leaflet-clickable" stroke-linejoin="round" stroke-linecap="round" fill-rule="evenodd" stroke="#005540" stroke-opacity="1" stroke-width="0.5" fill="#ddfff6" fill-opacity="0.5" d="M399 165L402 167L402 170L404 172L407 171L407 179L397 168L398 165z"/></g><g><path class="class-0 leaflet-clickable" stroke-linejoin="round" stroke-linecap="round" fill-rule="evenodd" stroke="#005540" stroke-opacity="1" stroke-width="0.5" fill="#ddfff6" fill-opacity="0.5" d="M289 174L291 177L290 182L288 177L289 174z"/></g><g><path class="class-0 leaflet-clickable" stroke-linejoin="round" stroke-linecap="round" fill-rule="evenodd" stroke="#005540" stroke-opacity="1" stroke-width="0.5" fill="#ddfff6" fill-opacity="0.5" d="M378 153L378 154z"/></g><g><path class="class-0 leaflet-clickable" stroke-linejoin="round" stroke-linecap="round" fill-rule="evenodd" stroke="#005540" stroke-opacity="1" stroke-width="0.5" fill="#ddfff6" fill-opacity="0.5" d="M371 112L371 112z"/></g><g><path class="class-0 leaflet-clickable" stroke-linejoin="round" stroke-linecap="round" fill-rule="evenodd" stroke="#005540" stroke-opacity="1" stroke-width="0.5" fill="#ddfff6" fill-opacity="0.5" d="M371 105L373 107L372 108L370 108L370 105z"/></g><g><path class="class-0 leaflet-clickable" stroke-linejoin="round" stroke-linecap="round" fill-rule="evenodd" stroke="#005540" stroke-opacity="1" stroke-width="0.5" fill="#ddfff6" fill-opacity="0.5" d="M369 86L366 88L364 93L366 95L366 102L369 103L370 105L370 110L368 113L368 123L372 129L372 137L374 142L373 149L379 157L379 159L382 159L396 172L399 182L401 180L403 184L406 184L408 191L414 195L413 197L415 199L415 205L383 205L386 201L385 198L387 194L385 190L380 186L380 184L377 181L375 181L374 177L371 176L371 174L349 159L350 157L347 153L347 146L341 140L342 134L336 127L335 128L334 119L327 112L328 109L326 106L327 107L328 104L322 99L322 96L317 88L317 85L371 80L369 86z"/></g><g><path class="class-0 leaflet-clickable" stroke-linejoin="round" stroke-linecap="round" fill-rule="evenodd" stroke="#005540" stroke-opacity="1" stroke-width="0.5" fill="#ddfff6" fill-opacity="0.5" d="M730 427L726 427L721 423L726 414L730 421L730 426z"/></g><g><path class="class-1 leaflet-clickable" stroke-linejoin="round" stroke-linecap="round" fill-rule="evenodd" stroke="#005540" stroke-opacity="1" stroke-width="0.5" fill="#7fd" fill-opacity="0.5" d="M483 302L481 302L481 297L483 301z"/></g><g><path class="class-1 leaflet-clickable" stroke-linejoin="round" stroke-linecap="round" fill-rule="evenodd" stroke="#005540" stroke-opacity="1" stroke-width="0.5" fill="#7fd" fill-opacity="0.5" d="M471 293L471 296L470 293z"/></g><g><path class="class-1 leaflet-clickable" stroke-linejoin="round" stroke-linecap="round" fill-rule="evenodd" stroke="#005540" stroke-opacity="1" stroke-width="0.5" fill="#7fd" fill-opacity="0.5" d="M470 291L470 292z"/></g><g><path class="class-1 leaflet-clickable" stroke-linejoin="round" stroke-linecap="round" fill-rule="evenodd" stroke="#005540" stroke-opacity="1" stroke-width="0.5" fill="#7fd" fill-opacity="0.5" d="M463 279L466 281L467 284L463 280z"/></g><g><path class="class-1 leaflet-clickable" stroke-linejoin="round" stroke-linecap="round" fill-rule="evenodd" stroke="#005540" stroke-opacity="1" stroke-width="0.5" fill="#7fd" fill-opacity="0.5" d="M463 273L462 275L463 273z"/></g><g><path class="class-1 leaflet-clickable" stroke-linejoin="round" stroke-linecap="round" fill-rule="evenodd" stroke="#005540" stroke-opacity="1" stroke-width="0.5" fill="#7fd" fill-opacity="0.5" d="M461 263L462 266L461 264z"/></g><g><path class="class-1 leaflet-clickable" stroke-linejoin="round" stroke-linecap="round" fill-rule="evenodd" stroke="#005540" stroke-opacity="1" stroke-width="0.5" fill="#7fd" fill-opacity="0.5" d="M455 263L455 265L455 263z"/></g><g><path class="class-1 leaflet-clickable" stroke-linejoin="round" stroke-linecap="round" fill-rule="evenodd" stroke="#005540" stroke-opacity="1" stroke-width="0.5" fill="#7fd" fill-opacity="0.5" d="M455 254L455 256L453 256L451 260L452 261L451 258L452 255L454 255z"/></g><g><path class="class-1 leaflet-clickable" stroke-linejoin="round" stroke-linecap="round" fill-rule="evenodd" stroke="#005540" stroke-opacity="1" stroke-width="0.5" fill="#7fd" fill-opacity="0.5" d="M450 252L450 252z"/></g><g><path class="class-1 leaflet-clickable" stroke-linejoin="round" stroke-linecap="round" fill-rule="evenodd" stroke="#005540" stroke-opacity="1" stroke-width="0.5" fill="#7fd" fill-opacity="0.5" d="M432 224L432 226L431 224z"/></g><g><path class="class-1 leaflet-clickable" stroke-linejoin="round" stroke-linecap="round" fill-rule="evenodd" stroke="#005540" stroke-opacity="1" stroke-width="0.5" fill="#7fd" fill-opacity="0.5" d="M435 219L434 219z"/></g><g><path class="class-1 leaflet-clickable" stroke-linejoin="round" stroke-linecap="round" fill-rule="evenodd" stroke="#005540" stroke-opacity="1" stroke-width="0.5" fill="#7fd" fill-opacity="0.5" d="M361 208L361 208z"/></g><g><path class="class-1 leaflet-clickable" stroke-linejoin="round" stroke-linecap="round" fill-rule="evenodd" stroke="#005540" stroke-opacity="1" stroke-width="0.5" fill="#7fd" fill-opacity="0.5" d="M383 205L416 205L418 212L426 218L429 224L428 225L435 229L433 230L433 232L435 234L437 233L440 235L443 241L446 243L445 244L449 254L449 262L454 268L456 268L457 274L464 285L462 293L465 300L471 302L471 298L474 298L479 302L479 305L483 306L483 308L486 311L486 314L491 317L492 324L488 329L479 334L476 330L474 320L470 316L466 314L454 302L444 297L439 298L429 290L429 287L426 286L431 274L431 261L425 250L418 248L403 236L401 235L398 238L391 231L387 231L384 227L380 227L377 224L376 220L363 209L364 208L376 211L382 208L383 206z"/></g><g><path class="class-0 leaflet-clickable" stroke-linejoin="round" stroke-linecap="round" fill-rule="evenodd" stroke="#005540" stroke-opacity="1" stroke-width="0.5" fill="#ddfff6" fill-opacity="0.5" d="M631 179L623 191L624 192L618 202L618 207L617 206L616 209L618 209L618 223L620 224L621 229L619 234L622 236L622 238L610 235L608 236L609 237L602 247L598 243L592 245L590 243L585 244L584 242L583 243L577 240L576 238L575 239L572 236L571 237L569 234L568 237L566 237L567 238L564 242L564 246L559 253L560 257L557 258L557 264L559 262L555 267L551 267L540 258L541 257L538 252L530 253L528 251L524 245L524 237L521 233L519 233L519 229L513 231L511 230L512 229L511 230L511 227L509 225L511 222L509 219L510 217L508 216L507 212L503 210L505 209L500 202L500 198L513 196L513 192L508 181L509 176L507 174L507 172L509 172L508 168L510 166L509 160L512 159L510 157L510 145L512 146L509 138L505 137L503 133L503 130L506 129L506 126L509 126L507 126L508 125L505 123L506 121L504 121L507 118L520 118L520 106L523 105L560 106L565 113L568 116L570 116L581 128L591 135L593 135L593 137L595 137L596 143L600 148L600 156L603 159L603 161L607 165L611 166L610 167L613 170L620 172L631 179z"/></g><g><path class="class-3 leaflet-clickable" stroke-linejoin="round" stroke-linecap="round" fill-rule="evenodd" stroke="#005540" stroke-opacity="1" stroke-width="0.5" fill="#086" fill-opacity="0.5" d="M421 186L420 188L420 186z"/></g><g><path class="class-3 leaflet-clickable" stroke-linejoin="round" stroke-linecap="round" fill-rule="evenodd" stroke="#005540" stroke-opacity="1" stroke-width="0.5" fill="#086" fill-opacity="0.5" d="M427 173L429 179L426 186L421 182L422 175L426 173z"/></g><g><path class="class-3 leaflet-clickable" stroke-linejoin="round" stroke-linecap="round" fill-rule="evenodd" stroke="#005540" stroke-opacity="1" stroke-width="0.5" fill="#086" fill-opacity="0.5" d="M372 106L374 106L373 107z"/></g><g><path class="class-3 leaflet-clickable" stroke-linejoin="round" stroke-linecap="round" fill-rule="evenodd" stroke="#005540" stroke-opacity="1" stroke-width="0.5" fill="#086" fill-opacity="0.5" d="M369 86L449 115L454 118L507 118L506 120L504 120L505 123L508 125L507 126L509 126L506 126L506 129L503 129L503 132L505 135L504 136L511 141L510 144L512 145L510 145L510 158L512 158L512 160L509 160L510 166L508 168L508 182L511 186L513 196L501 198L500 202L504 209L503 210L507 213L509 217L511 222L509 224L512 231L515 231L509 239L509 241L507 241L504 244L504 246L496 248L496 244L494 241L489 238L484 238L480 229L472 227L468 223L465 223L466 209L464 207L463 208L459 206L459 208L457 208L457 206L451 204L445 195L441 193L435 186L436 184L429 180L429 173L427 170L426 171L424 169L425 167L421 162L419 156L416 155L416 148L408 134L409 122L403 119L396 118L396 114L391 110L383 113L374 106L367 103L365 96L366 95L364 93L366 91L366 87L369 87zM460 205L460 206z"/></g></svg>