<svg xmlns="http://www.w3.org/2000/svg" class="leaflet-zoom-animated" width="1976" height="799" viewBox="-320 512 1976 799" style="transform: translate3d(-320px, 512px, 0px);"><g><path class="class-3 leaflet-clickable" stroke-linejoin="round" stroke-linecap="round" fill-rule="evenodd" stroke="#005540" stroke-opacity="1" stroke-width="0.5" fill="#086" fill-opacity="0.5" d="M999 1026L1006 1047L1023 1068L1022 1071L1025 1072L1029 1070L1029 1076L1051 1076L1051 1078L1054 1081L1059 1075L1063 1075L1066 1080L1065 1082L1069 1084L1070 1087L1072 1087L1077 1094L1075 1098L1077 1100L1077 1110L1080 1114L1083 1112L1086 1113L1085 1116L1090 1118L1089 1128L1096 1128L1110 1132L1115 1141L1112 1153L1125 1152L1136 1156L1131 1160L1126 1159L1123 1162L1140 1169L1143 1173L1145 1171L1152 1177L1159 1174L1164 1169L1174 1169L1175 1165L1189 1166L1192 1169L1194 1174L1191 1179L1194 1187L1193 1195L1181 1207L1180 1210L1182 1215L1182 1225L1185 1225L1187 1235L1189 1234L1196 1240L1202 1239L1204 1244L1206 1244L1211 1253L1210 1257L1212 1258L1214 1264L1211 1264L1210 1268L1218 1292L1215 1292L1212 1302L1218 1309L1220 1307L1227 1307L1231.6 1311L735.6666666666666 1311L727 1307L723 1307L714 1302L715 1297L686 1273L668 1264L647 1256L644 1253L644 1247L642 1244L632 1236L626 1237L624 1233L621 1235L619 1233L616 1234L613 1228L607 1227L607 1221L603 1215L600 1211L589 1204L582 1190L574 1183L548 1170L535 1166L524 1167L518 1175L517 1170L510 1164L510 1140L512 1138L513 1132L517 1128L532 1126L535 1124L546 1124L548 1119L556 1120L560 1116L559 1114L561 1111L567 1109L566 1105L569 1103L566 1100L568 1095L565 1093L563 1085L565 1080L568 1079L563 1072L564 1061L571 1054L584 1048L593 1046L595 1047L596 1051L608 1048L611 1049L614 1053L618 1064L632 1071L641 1069L643 1070L663 1063L671 1062L673 1059L681 1062L686 1061L690 1065L694 1064L708 1067L718 1063L723 1063L723 1069L729 1071L732 1075L731 1077L739 1079L741 1073L744 1075L746 1070L754 1073L761 1072L763 1073L765 1080L772 1082L774 1086L779 1084L781 1085L781 1088L784 1090L783 1092L790 1098L790 1094L796 1091L799 1085L791 1079L791 1076L777 1069L773 1064L771 1065L767 1056L770 1042L767 1037L768 1033L764 1031L766 1023L761 1021L761 1013L764 1010L762 1004L767 998L770 997L772 1000L775 1001L779 1006L778 1011L785 1004L788 1003L790 997L793 997L795 994L803 1001L809 1002L817 1006L819 1011L824 1014L828 1014L829 1017L824 1031L820 1031L818 1041L820 1045L824 1044L827 1046L828 1049L825 1059L828 1066L832 1064L834 1060L837 1061L841 1069L836 1082L841 1083L851 1093L858 1091L860 1082L864 1084L867 1078L873 1077L878 1070L885 1067L885 1065L888 1063L890 1064L895 1052L902 1048L907 1052L908 1055L913 1058L918 1050L928 1045L932 1047L937 1044L940 1044L941 1042L944 1043L946 1041L948 1032L951 1030L951 1027L954 1022L960 1023L962 1026L966 1027L960 1018L962 1013L968 1016L973 1025L976 1024L976 1022L983 1023L985 1029L992 1031L994 1028z"/></g><g><path class="class-3 leaflet-clickable" stroke-linejoin="round" stroke-linecap="round" fill-rule="evenodd" stroke="#005540" stroke-opacity="1" stroke-width="0.5" fill="#086" fill-opacity="0.5" d="M1656 1311L1231.6 1311L1227 1307L1220 1307L1218 1309L1212 1302L1215 1292L1218 1292L1210 1268L1211 1264L1214 1264L1212 1258L1210 1257L1211 1253L1206 1244L1204 1244L1202 1239L1196 1240L1189 1234L1187 1235L1185 1225L1182 1225L1182 1215L1180 1210L1181 1207L1193 1195L1193 1190L1198 1191L1201 1186L1205 1187L1206 1185L1211 1186L1216 1184L1219 1176L1226 1187L1232 1187L1238 1184L1241 1180L1239 1179L1241 1171L1253 1167L1266 1167L1271 1169L1273 1168L1274 1171L1282 1170L1280 1174L1282 1175L1282 1180L1301 1181L1304 1180L1306 1172L1313 1168L1313 1163L1320 1162L1325 1164L1325 1160L1320 1157L1318 1153L1312 1151L1307 1157L1309 1163L1305 1164L1302 1169L1299 1165L1301 1154L1305 1152L1304 1150L1298 1148L1295 1142L1295 1136L1299 1131L1296 1127L1299 1123L1303 1121L1302 1119L1304 1114L1310 1109L1321 1111L1323 1109L1334 1108L1337 1119L1337 1127L1334 1130L1342 1135L1344 1140L1349 1144L1351 1155L1354 1158L1355 1155L1358 1155L1361 1159L1368 1159L1372 1150L1375 1151L1379 1143L1384 1145L1390 1140L1392 1136L1395 1136L1397 1134L1403 1134L1409 1131L1412 1131L1414 1133L1419 1130L1418 1127L1422 1125L1428 1134L1430 1133L1433 1136L1445 1134L1445 1130L1454 1120L1459 1120L1461 1122L1465 1121L1467 1118L1470 1119L1481 1117L1481 1113L1486 1105L1485 1102L1492 1099L1492 1096L1498 1089L1502 1088L1500 1090L1502 1092L1511 1090L1511 1085L1506 1083L1506 1077L1510 1073L1509 1066L1507 1066L1506 1063L1502 1062L1505 1059L1503 1057L1504 1054L1507 1058L1509 1055L1508 1051L1512 1045L1509 1041L1513 1038L1533 1051L1542 1051L1552 1055L1552 1059L1558 1067L1562 1079L1564 1082L1571 1086L1572 1091L1577 1094L1578 1101L1584 1108L1585 1111L1583 1113L1586 1117L1586 1121L1593 1128L1595 1133L1598 1130L1604 1128L1603 1132L1601 1132L1600 1135L1607 1139L1612 1137L1614 1133L1619 1133L1623 1139L1627 1137L1630 1138L1643 1133L1647 1136L1651 1135L1652 1138L1656 1138.3076923076924L1656 1208L1653 1211L1653 1216L1656 1217.2z"/></g><g><path class="class-3 leaflet-clickable" stroke-linejoin="round" stroke-linecap="round" fill-rule="evenodd" stroke="#005540" stroke-opacity="1" stroke-width="0.5" fill="#086" fill-opacity="0.5" d="M0 0"/></g><g><path class="class-3 leaflet-clickable" stroke-linejoin="round" stroke-linecap="round" fill-rule="evenodd" stroke="#005540" stroke-opacity="1" stroke-width="0.5" fill="#086" fill-opacity="0.5" d="M0 0"/></g><g><path class="class-3 leaflet-clickable" stroke-linejoin="round" stroke-linecap="round" fill-rule="evenodd" stroke="#005540" stroke-opacity="1" stroke-width="0.5" fill="#086" fill-opacity="0.5" d="M1502 1088L1498 1089L1492 1096L1492 1099L1485 1102L1486 1105L1481 1113L1481 1117L1470 1119L1467 1118L1465 1121L1461 1122L1459 1120L1454 1120L1445 1130L1445 1134L1433 1136L1430 1133L1428 1134L1422 1125L1418 1127L1419 1130L1414 1133L1412 1131L1409 1131L1403 1134L1397 1134L1395 1136L1392 1136L1390 1140L1384 1145L1379 1143L1375 1151L1372 1150L1368 1159L1361 1159L1358 1155L1355 1155L1354 1158L1351 1155L1349 1144L1344 1140L1342 1135L1334 1130L1337 1127L1337 1119L1334 1108L1323 1109L1321 1111L1310 1109L1304 1114L1302 1119L1303 1121L1299 1123L1296 1127L1299 1131L1295 1136L1295 1142L1298 1148L1304 1150L1305 1152L1301 1154L1299 1165L1302 1169L1305 1164L1309 1163L1307 1157L1312 1151L1318 1153L1320 1157L1325 1160L1325 1164L1320 1162L1313 1163L1313 1168L1306 1172L1304 1180L1282 1180L1282 1175L1280 1174L1282 1170L1274 1171L1273 1168L1271 1169L1266 1167L1253 1167L1241 1171L1239 1179L1241 1180L1238 1184L1232 1187L1226 1187L1219 1176L1216 1184L1211 1186L1206 1185L1205 1187L1201 1186L1198 1191L1193 1190L1194 1187L1191 1179L1194 1174L1189 1166L1175 1165L1174 1169L1164 1169L1159 1174L1152 1177L1145 1171L1143 1173L1140 1169L1123 1162L1126 1159L1131 1160L1136 1156L1125 1152L1112 1153L1115 1141L1110 1132L1096 1128L1089 1128L1090 1118L1085 1116L1086 1113L1083 1112L1080 1114L1077 1110L1077 1100L1086 1090L1091 1087L1092 1083L1097 1084L1103 1081L1105 1075L1116 1072L1119 1064L1132 1073L1134 1077L1136 1077L1138 1080L1141 1079L1143 1069L1141 1065L1143 1060L1140 1055L1141 1046L1136 1029L1140 1023L1133 1021L1136 1017L1138 1009L1140 1008L1150 992L1148 989L1143 993L1142 991L1147 987L1152 972L1158 965L1154 957L1157 954L1157 948L1154 948L1155 942L1153 936L1153 926L1156 922L1150 909L1150 904L1153 904L1150 894L1151 891L1155 889L1150 884L1152 882L1160 885L1163 885L1167 882L1175 883L1190 909L1196 911L1196 916L1201 922L1203 928L1210 933L1208 938L1212 939L1214 935L1221 941L1229 942L1230 946L1235 947L1240 952L1249 946L1252 941L1263 931L1265 927L1271 934L1284 940L1287 937L1291 936L1291 933L1298 929L1294 920L1300 914L1303 913L1312 917L1317 913L1327 917L1331 915L1333 912L1335 913L1339 908L1336 907L1338 903L1330 901L1329 898L1326 897L1321 891L1321 889L1317 888L1315 884L1312 884L1312 882L1308 881L1308 876L1298 881L1296 877L1291 875L1291 872L1294 869L1294 864L1286 858L1280 859L1280 856L1275 851L1263 848L1263 837L1259 831L1258 836L1256 837L1253 843L1251 840L1244 840L1242 843L1236 841L1227 842L1224 833L1227 833L1231 829L1235 829L1234 824L1228 822L1225 818L1225 815L1222 813L1222 809L1216 809L1213 807L1218 801L1222 799L1222 795L1225 795L1225 791L1229 789L1231 785L1238 787L1241 783L1239 779L1241 774L1238 770L1242 762L1247 758L1248 755L1251 755L1252 751L1245 750L1247 747L1247 742L1243 739L1244 735L1239 730L1235 730L1229 733L1226 737L1221 737L1219 734L1219 728L1222 726L1224 721L1228 720L1238 722L1238 714L1248 714L1252 705L1257 701L1258 695L1268 690L1269 685L1272 685L1274 674L1287 665L1290 658L1286 649L1286 645L1289 642L1285 640L1288 628L1293 617L1297 617L1298 620L1302 622L1306 619L1309 620L1312 618L1318 623L1323 624L1320 626L1322 628L1320 635L1316 637L1316 643L1318 645L1318 651L1316 652L1324 657L1323 661L1326 663L1325 667L1328 668L1330 671L1342 669L1345 671L1354 684L1348 684L1346 687L1336 693L1337 698L1335 700L1325 695L1324 691L1320 690L1313 705L1316 705L1317 711L1323 715L1328 716L1329 720L1324 721L1324 724L1316 728L1318 730L1320 739L1318 741L1320 744L1322 742L1325 743L1327 747L1335 746L1336 743L1340 746L1343 752L1343 756L1346 757L1344 760L1345 763L1349 763L1351 758L1354 759L1363 752L1361 748L1368 743L1368 736L1372 731L1379 734L1381 731L1384 731L1384 735L1386 737L1423 749L1428 755L1419 763L1419 767L1415 768L1415 776L1405 783L1404 789L1406 792L1399 800L1397 811L1395 813L1395 831L1392 834L1397 840L1390 843L1379 853L1377 851L1375 853L1375 867L1379 871L1381 877L1389 879L1390 885L1388 889L1382 889L1381 893L1385 894L1387 899L1389 899L1391 896L1406 898L1412 903L1414 903L1415 909L1428 910L1429 912L1435 913L1440 910L1443 912L1444 910L1447 915L1452 915L1455 918L1448 930L1442 934L1445 938L1445 943L1447 944L1445 947L1439 942L1433 940L1418 939L1415 941L1417 944L1413 945L1409 951L1405 953L1402 973L1405 976L1407 987L1409 990L1408 992L1399 997L1388 1014L1391 1017L1391 1022L1389 1026L1390 1032L1394 1037L1397 1035L1401 1039L1403 1044L1407 1044L1410 1041L1414 1044L1417 1043L1421 1048L1426 1049L1426 1054L1439 1075L1444 1068L1461 1058L1466 1061L1471 1059L1481 1068L1485 1068L1487 1065L1490 1066L1493 1082L1497 1086L1502 1086z"/></g><g><path class="class-3 leaflet-clickable" stroke-linejoin="round" stroke-linecap="round" fill-rule="evenodd" stroke="#005540" stroke-opacity="1" stroke-width="0.5" fill="#086" fill-opacity="0.5" d="M1381.3333333333333 512L1376 527L1376 539L1381 556L1415 628L1417 642L1420 650L1426 660L1455 689L1469 708L1504 745L1529 777L1538 793L1551 806L1562 832L1562 844L1567 856L1567 864L1574 876L1578 879L1579 883L1577 885L1576 892L1580 908L1586 915L1602 924L1604 929L1611 930L1610 933L1617 942L1617 954L1621 958L1628 961L1638 960L1640 963L1645 990L1656 1001.1428571428571L1656 1217.2L1653 1216L1653 1211L1656 1208L1656 1138.3076923076924L1652 1138L1651 1135L1647 1136L1643 1133L1630 1138L1627 1137L1623 1139L1619 1133L1614 1133L1612 1137L1607 1139L1600 1135L1601 1132L1603 1132L1604 1128L1598 1130L1595 1133L1593 1128L1586 1121L1586 1117L1583 1113L1585 1111L1578 1101L1577 1094L1572 1091L1571 1086L1564 1082L1562 1079L1558 1067L1552 1059L1552 1055L1542 1051L1533 1051L1513 1038L1509 1041L1512 1045L1508 1051L1509 1055L1507 1058L1504 1054L1503 1057L1505 1059L1502 1062L1506 1063L1507 1066L1509 1066L1510 1073L1506 1077L1506 1083L1511 1085L1511 1090L1502 1092L1500 1090L1502 1086L1497 1086L1493 1082L1490 1066L1487 1065L1485 1068L1481 1068L1471 1059L1466 1061L1461 1058L1444 1068L1439 1075L1426 1054L1426 1049L1421 1048L1417 1043L1414 1044L1410 1041L1407 1044L1403 1044L1401 1039L1397 1035L1394 1037L1390 1032L1389 1026L1391 1022L1391 1017L1388 1014L1399 997L1408 992L1409 990L1407 987L1405 976L1402 973L1405 953L1409 951L1413 945L1417 944L1415 941L1418 939L1433 940L1439 942L1445 947L1447 944L1445 943L1445 938L1442 934L1448 930L1455 918L1452 915L1447 915L1444 910L1443 912L1440 910L1435 913L1429 912L1428 910L1415 909L1414 903L1412 903L1406 898L1391 896L1389 899L1387 899L1385 894L1381 893L1382 889L1388 889L1390 885L1389 879L1381 877L1379 871L1375 867L1375 853L1377 851L1379 853L1390 843L1397 840L1392 834L1395 831L1394 823L1396 819L1395 813L1397 811L1397 806L1399 800L1406 792L1404 789L1405 783L1415 776L1415 768L1419 767L1419 763L1428 755L1423 749L1386 737L1384 735L1384 731L1381 731L1379 734L1372 731L1368 736L1368 743L1361 748L1363 752L1354 759L1351 758L1349 763L1345 763L1344 760L1346 757L1343 756L1343 752L1340 746L1336 743L1335 746L1327 747L1325 743L1322 742L1320 744L1318 741L1320 739L1318 730L1316 728L1324 724L1324 721L1329 720L1328 716L1323 715L1317 711L1316 705L1313 705L1320 690L1324 691L1325 695L1335 700L1337 698L1336 693L1346 687L1348 684L1354 684L1345 671L1342 669L1330 671L1328 668L1325 667L1326 663L1323 661L1324 657L1316 652L1318 651L1316 637L1320 635L1322 628L1320 626L1323 624L1318 623L1312 618L1309 620L1306 619L1302 622L1298 620L1297 617L1293 617L1288 628L1285 640L1289 642L1286 645L1286 649L1290 658L1287 665L1274 674L1273 679L1269 675L1265 664L1267 662L1267 657L1263 656L1258 648L1256 656L1251 659L1243 670L1243 672L1239 676L1232 676L1229 678L1228 681L1224 682L1220 687L1213 692L1212 698L1206 701L1200 701L1194 705L1187 715L1173 712L1171 709L1172 706L1170 702L1171 694L1162 684L1173 676L1175 673L1176 665L1179 663L1184 663L1181 655L1186 649L1187 644L1192 641L1193 637L1190 637L1186 641L1175 646L1173 650L1170 645L1174 642L1177 636L1184 635L1188 632L1186 629L1192 614L1198 612L1201 613L1204 611L1207 614L1206 616L1211 618L1213 622L1209 624L1211 627L1215 623L1217 626L1223 626L1229 620L1224 619L1223 614L1225 605L1229 603L1227 599L1232 590L1232 587L1234 586L1236 579L1239 580L1242 578L1243 575L1243 568L1233 560L1233 557L1229 555L1225 559L1217 556L1220 547L1216 549L1213 548L1205 554L1195 554L1192 550L1189 549L1188 543L1183 540L1185 539L1185 536L1176 536L1172 532L1182 516L1185 515L1185.75 512z"/></g><g><path class="class-3 leaflet-clickable" stroke-linejoin="round" stroke-linecap="round" fill-rule="evenodd" stroke="#005540" stroke-opacity="1" stroke-width="0.5" fill="#086" fill-opacity="0.5" d="M0 0"/></g><g><path class="class-3 leaflet-clickable" stroke-linejoin="round" stroke-linecap="round" fill-rule="evenodd" stroke="#005540" stroke-opacity="1" stroke-width="0.5" fill="#086" fill-opacity="0.5" d="M0 0"/></g><g><path class="class-3 leaflet-clickable" stroke-linejoin="round" stroke-linecap="round" fill-rule="evenodd" stroke="#005540" stroke-opacity="1" stroke-width="0.5" fill="#086" fill-opacity="0.5" d="M0 0"/></g><g><path class="class-3 leaflet-clickable" stroke-linejoin="round" stroke-linecap="round" fill-rule="evenodd" stroke="#005540" stroke-opacity="1" stroke-width="0.5" fill="#086" fill-opacity="0.5" d="M0 0"/></g><g><path class="class-3 leaflet-clickable" stroke-linejoin="round" stroke-linecap="round" fill-rule="evenodd" stroke="#005540" stroke-opacity="1" stroke-width="0.5" fill="#086" fill-opacity="0.5" d="M0 0"/></g><g><path class="class-3 leaflet-clickable" stroke-linejoin="round" stroke-linecap="round" fill-rule="evenodd" stroke="#005540" stroke-opacity="1" stroke-width="0.5" fill="#086" fill-opacity="0.5" d="M0 0"/></g><g><path class="class-3 leaflet-clickable" stroke-linejoin="round" stroke-linecap="round" fill-rule="evenodd" stroke="#005540" stroke-opacity="1" stroke-width="0.5" fill="#086" fill-opacity="0.5" d="M0 0"/></g><g><path class="class-3 leaflet-clickable" stroke-linejoin="round" stroke-linecap="round" fill-rule="evenodd" stroke="#005540" stroke-opacity="1" stroke-width="0.5" fill="#086" fill-opacity="0.5" d="M0 0"/></g><g><path class="class-3 leaflet-clickable" stroke-linejoin="round" stroke-linecap="round" fill-rule="evenodd" stroke="#005540" stroke-opacity="1" stroke-width="0.5" fill="#086" fill-opacity="0.5" d="M0 0"/></g><g><path class="class-3 leaflet-clickable" stroke-linejoin="round" stroke-linecap="round" fill-rule="evenodd" stroke="#005540" stroke-opacity="1" stroke-width="0.5" fill="#086" fill-opacity="0.5" d="M0 0"/></g><g><path class="class-2 leaflet-clickable" stroke-linejoin="round" stroke-linecap="round" fill-rule="evenodd" stroke="#005540" stroke-opacity="1" stroke-width="0.5" fill="#00cc99" fill-opacity="0.5" d="M1273 679L1272 685L1269 685L1268 690L1258 695L1257 701L1252 705L1248 714L1238 714L1238 722L1224 721L1222 726L1219 728L1219 734L1221 737L1226 737L1229 733L1235 730L1239 730L1244 735L1243 739L1247 742L1247 747L1245 750L1252 751L1251 755L1248 755L1247 758L1242 761L1240 768L1238 770L1241 774L1239 779L1241 783L1238 787L1231 785L1229 789L1225 791L1225 795L1222 795L1222 799L1218 801L1213 807L1216 809L1222 809L1222 813L1225 815L1225 818L1228 822L1234 824L1235 829L1231 829L1227 833L1210 833L1212 840L1201 854L1183 853L1179 856L1176 856L1173 850L1171 852L1168 848L1165 849L1160 856L1149 855L1149 848L1158 844L1155 843L1157 838L1156 833L1161 830L1162 824L1159 823L1150 811L1148 811L1147 815L1144 811L1146 808L1143 806L1129 801L1126 804L1126 807L1117 802L1118 800L1115 797L1113 800L1110 798L1105 802L1105 808L1102 809L1098 818L1087 812L1089 811L1085 804L1097 800L1097 793L1089 790L1089 787L1092 788L1095 784L1099 784L1098 774L1090 766L1086 777L1088 786L1084 786L1082 784L1083 776L1080 777L1080 780L1076 782L1077 776L1074 775L1072 772L1060 774L1047 789L1050 795L1047 803L1045 803L1043 806L1039 806L1038 810L1035 811L1026 821L1022 821L1019 823L1018 819L1021 808L1017 806L1013 808L1010 803L1000 797L1002 788L1009 779L1005 766L1001 763L1001 759L994 750L997 749L995 745L992 747L979 746L974 751L972 747L969 747L969 744L966 746L961 745L959 747L945 736L945 733L935 724L932 727L938 673L942 673L947 670L954 670L956 667L964 666L969 662L973 661L977 663L987 654L997 651L997 646L989 638L990 634L998 627L997 626L1001 616L1006 614L1010 604L1013 603L1014 597L1017 594L1018 591L1016 588L1019 581L1022 579L1021 570L1018 570L1016 566L1018 564L1026 565L1027 559L1032 556L1042 564L1049 564L1051 561L1055 561L1057 557L1077 554L1081 550L1079 542L1075 540L1076 537L1079 535L1079 529L1081 530L1086 527L1093 527L1099 524L1101 526L1104 540L1110 547L1121 553L1127 552L1124 547L1129 549L1142 548L1144 550L1147 546L1154 549L1160 545L1160 534L1162 527L1155 523L1153 524L1146 518L1148 516L1152 517L1153 513L1161 515L1164 512L1185.75 512L1185 515L1182 516L1172 532L1176 536L1185 536L1185 539L1183 540L1188 543L1189 549L1192 550L1195 554L1205 554L1213 548L1216 549L1220 547L1217 556L1225 559L1229 555L1233 557L1233 560L1243 568L1242 578L1239 580L1236 579L1234 586L1232 587L1232 590L1227 599L1229 603L1225 605L1223 610L1224 619L1229 620L1223 626L1217 626L1215 623L1211 627L1209 624L1213 622L1211 618L1206 616L1207 614L1204 611L1201 613L1198 612L1192 614L1186 629L1188 632L1184 635L1177 636L1174 642L1170 645L1173 650L1175 646L1186 641L1190 637L1193 637L1192 641L1187 644L1186 649L1181 654L1184 663L1179 663L1176 665L1175 673L1173 676L1162 684L1171 694L1170 702L1172 706L1171 709L1173 712L1187 715L1194 705L1200 701L1206 701L1212 698L1213 692L1220 687L1224 682L1228 681L1229 678L1232 676L1239 676L1243 672L1243 670L1251 659L1256 656L1258 648L1263 656L1267 657L1267 662L1265 664L1269 675z"/></g><g><path class="class-2 leaflet-clickable" stroke-linejoin="round" stroke-linecap="round" fill-rule="evenodd" stroke="#005540" stroke-opacity="1" stroke-width="0.5" fill="#00cc99" fill-opacity="0.5" d="M0 0"/></g><g><path class="class-2 leaflet-clickable" stroke-linejoin="round" stroke-linecap="round" fill-rule="evenodd" stroke="#005540" stroke-opacity="1" stroke-width="0.5" fill="#00cc99" fill-opacity="0.5" d="M0 0"/></g><g><path class="class-2 leaflet-clickable" stroke-linejoin="round" stroke-linecap="round" fill-rule="evenodd" stroke="#005540" stroke-opacity="1" stroke-width="0.5" fill="#00cc99" fill-opacity="0.5" d="M1152 882L1147 872L1143 870L1142 864L1149 855L1160 856L1165 849L1168 848L1171 852L1173 850L1176 856L1179 856L1183 853L1201 854L1212 840L1210 833L1214 832L1224 833L1227 842L1236 841L1242 843L1244 840L1251 840L1253 843L1256 837L1258 836L1259 831L1263 837L1263 848L1275 851L1280 856L1280 859L1286 858L1294 864L1294 869L1291 872L1291 875L1296 877L1298 881L1308 876L1308 881L1312 882L1312 884L1315 884L1317 888L1321 889L1321 891L1326 897L1329 898L1330 901L1338 903L1336 907L1339 908L1335 913L1333 912L1331 915L1327 917L1317 913L1312 917L1307 914L1300 914L1294 920L1298 929L1291 933L1291 936L1287 937L1284 940L1271 934L1265 927L1263 931L1252 941L1249 946L1240 952L1235 947L1230 946L1229 942L1221 941L1214 935L1212 939L1208 938L1210 933L1203 928L1201 922L1196 916L1196 911L1190 909L1175 883L1167 882L1163 885L1160 885z"/></g><g><path class="class-2 leaflet-clickable" stroke-linejoin="round" stroke-linecap="round" fill-rule="evenodd" stroke="#005540" stroke-opacity="1" stroke-width="0.5" fill="#00cc99" fill-opacity="0.5" d="M0 0"/></g><g><path class="class-2 leaflet-clickable" stroke-linejoin="round" stroke-linecap="round" fill-rule="evenodd" stroke="#005540" stroke-opacity="1" stroke-width="0.5" fill="#00cc99" fill-opacity="0.5" d="M0 0"/></g><g><path class="class-2 leaflet-clickable" stroke-linejoin="round" stroke-linecap="round" fill-rule="evenodd" stroke="#005540" stroke-opacity="1" stroke-width="0.5" fill="#00cc99" fill-opacity="0.5" d="M1092 958L1083 956L1081 957L1078 963L1066 960L1064 955L1047 953L1038 947L1033 935L1033 931L1031 928L1026 926L1027 920L1022 918L1025 915L1024 913L1028 908L1029 904L1033 900L1035 901L1040 897L1040 895L1048 889L1050 882L1048 880L1050 873L1060 875L1059 866L1064 859L1067 858L1069 863L1065 869L1068 873L1077 876L1076 878L1080 887L1078 895L1090 901L1090 903L1096 910L1093 923L1095 924L1094 927L1099 929L1095 932L1094 935L1097 939L1095 940L1097 943L1095 944L1095 955z"/></g><g><path class="class-1 leaflet-clickable" stroke-linejoin="round" stroke-linecap="round" fill-rule="evenodd" stroke="#005540" stroke-opacity="1" stroke-width="0.5" fill="#7fd" fill-opacity="0.5" d="M1092 958L1104 961L1106 965L1112 967L1112 974L1115 977L1114 979L1118 982L1126 984L1137 982L1141 983L1150 971L1155 969L1152 972L1147 987L1142 991L1143 993L1148 989L1150 992L1140 1008L1138 1009L1136 1017L1133 1021L1140 1023L1136 1029L1141 1046L1140 1055L1143 1060L1141 1065L1143 1069L1141 1079L1138 1080L1136 1077L1134 1077L1132 1073L1119 1064L1116 1072L1105 1075L1103 1081L1097 1084L1092 1083L1091 1087L1086 1090L1077 1100L1075 1098L1077 1094L1072 1087L1070 1087L1069 1084L1065 1082L1066 1080L1063 1075L1059 1075L1054 1081L1051 1078L1051 1076L1029 1076L1029 1070L1025 1072L1022 1071L1023 1068L1006 1047L999 1026L1004 1017L1007 1016L1011 1005L1010 996L1014 995L1015 992L1022 991L1026 988L1027 985L1032 982L1032 974L1030 970L1031 955L1035 948L1038 947L1047 953L1064 955L1066 960L1078 963L1081 957L1083 956L1092 957z"/></g><g><path class="class-1 leaflet-clickable" stroke-linejoin="round" stroke-linecap="round" fill-rule="evenodd" stroke="#005540" stroke-opacity="1" stroke-width="0.5" fill="#7fd" fill-opacity="0.5" d="M1079 529L1079 535L1076 537L1075 540L1079 542L1081 550L1077 554L1057 557L1055 561L1051 561L1049 564L1042 564L1032 556L1027 559L1026 565L1018 564L1016 566L1018 570L1021 570L1022 575L1022 579L1019 581L1016 588L1018 591L1017 594L1014 597L1013 603L1010 604L1006 614L1001 616L997 626L998 627L990 634L989 638L997 646L997 651L987 654L977 663L973 661L969 662L964 666L956 667L954 670L947 670L942 673L938 673L932 727L922 723L919 727L921 738L915 737L914 729L909 727L913 739L918 746L919 751L917 756L920 766L910 767L910 764L906 764L906 766L899 772L889 774L881 770L880 768L870 764L871 754L864 751L872 745L874 739L859 727L844 721L843 723L835 718L835 711L832 706L820 703L818 696L818 687L814 681L815 671L818 671L816 659L810 655L806 656L804 648L801 647L801 644L798 639L800 637L807 636L807 633L804 628L805 623L801 622L802 620L815 613L814 610L818 604L821 603L821 598L824 599L824 604L831 606L846 606L852 601L852 598L858 598L859 590L870 597L882 597L885 600L895 597L892 594L894 593L892 590L895 583L895 579L902 582L905 579L905 575L903 574L902 570L902 565L907 549L905 548L909 542L916 543L917 547L938 554L947 546L947 544L953 541L954 538L962 540L961 532L966 526L960 523L954 523L955 526L951 527L946 522L944 515L946.25 512L1071.7777777777778 512L1072 514L1065 514L1064 520L1070 528L1073 527z"/></g><g><path class="class-1 leaflet-clickable" stroke-linejoin="round" stroke-linecap="round" fill-rule="evenodd" stroke="#005540" stroke-opacity="1" stroke-width="0.5" fill="#7fd" fill-opacity="0.5" d="M0 0"/></g><g><path class="class-1 leaflet-clickable" stroke-linejoin="round" stroke-linecap="round" fill-rule="evenodd" stroke="#005540" stroke-opacity="1" stroke-width="0.5" fill="#7fd" fill-opacity="0.5" d="M0 0"/></g><g><path class="class-1 leaflet-clickable" stroke-linejoin="round" stroke-linecap="round" fill-rule="evenodd" stroke="#005540" stroke-opacity="1" stroke-width="0.5" fill="#7fd" fill-opacity="0.5" d="M0 0"/></g><g><path class="class-1 leaflet-clickable" stroke-linejoin="round" stroke-linecap="round" fill-rule="evenodd" stroke="#005540" stroke-opacity="1" stroke-width="0.5" fill="#7fd" fill-opacity="0.5" d="M0 0"/></g><g><path class="class-1 leaflet-clickable" stroke-linejoin="round" stroke-linecap="round" fill-rule="evenodd" stroke="#005540" stroke-opacity="1" stroke-width="0.5" fill="#7fd" fill-opacity="0.5" d="M0 0"/></g><g><path class="class-1 leaflet-clickable" stroke-linejoin="round" stroke-linecap="round" fill-rule="evenodd" stroke="#005540" stroke-opacity="1" stroke-width="0.5" fill="#7fd" fill-opacity="0.5" d="M0 0"/></g><g><path class="class-1 leaflet-clickable" stroke-linejoin="round" stroke-linecap="round" fill-rule="evenodd" stroke="#005540" stroke-opacity="1" stroke-width="0.5" fill="#7fd" fill-opacity="0.5" d="M0 0"/></g><g><path class="class-1 leaflet-clickable" stroke-linejoin="round" stroke-linecap="round" fill-rule="evenodd" stroke="#005540" stroke-opacity="1" stroke-width="0.5" fill="#7fd" fill-opacity="0.5" d="M0 0"/></g><g><path class="class-1 leaflet-clickable" stroke-linejoin="round" stroke-linecap="round" fill-rule="evenodd" stroke="#005540" stroke-opacity="1" stroke-width="0.5" fill="#7fd" fill-opacity="0.5" d="M0 0"/></g><g><path class="class-1 leaflet-clickable" stroke-linejoin="round" stroke-linecap="round" fill-rule="evenodd" stroke="#005540" stroke-opacity="1" stroke-width="0.5" fill="#7fd" fill-opacity="0.5" d="M0 0"/></g><g><path class="class-1 leaflet-clickable" stroke-linejoin="round" stroke-linecap="round" fill-rule="evenodd" stroke="#005540" stroke-opacity="1" stroke-width="0.5" fill="#7fd" fill-opacity="0.5" d="M0 0"/></g><g><path class="class-1 leaflet-clickable" stroke-linejoin="round" stroke-linecap="round" fill-rule="evenodd" stroke="#005540" stroke-opacity="1" stroke-width="0.5" fill="#7fd" fill-opacity="0.5" d="M0 0"/></g><g><path class="class-1 leaflet-clickable" stroke-linejoin="round" stroke-linecap="round" fill-rule="evenodd" stroke="#005540" stroke-opacity="1" stroke-width="0.5" fill="#7fd" fill-opacity="0.5" d="M0 0"/></g><g><path class="class-1 leaflet-clickable" stroke-linejoin="round" stroke-linecap="round" fill-rule="evenodd" stroke="#005540" stroke-opacity="1" stroke-width="0.5" fill="#7fd" fill-opacity="0.5" d="M0 0"/></g><g><path class="class-1 leaflet-clickable" stroke-linejoin="round" stroke-linecap="round" fill-rule="evenodd" stroke="#005540" stroke-opacity="1" stroke-width="0.5" fill="#7fd" fill-opacity="0.5" d="M0 0"/></g><g><path class="class-1 leaflet-clickable" stroke-linejoin="round" stroke-linecap="round" fill-rule="evenodd" stroke="#005540" stroke-opacity="1" stroke-width="0.5" fill="#7fd" fill-opacity="0.5" d="M0 0"/></g><g><path class="class-1 leaflet-clickable" stroke-linejoin="round" stroke-linecap="round" fill-rule="evenodd" stroke="#005540" stroke-opacity="1" stroke-width="0.5" fill="#7fd" fill-opacity="0.5" d="M0 0"/></g><g><path class="class-1 leaflet-clickable" stroke-linejoin="round" stroke-linecap="round" fill-rule="evenodd" stroke="#005540" stroke-opacity="1" stroke-width="0.5" fill="#7fd" fill-opacity="0.5" d="M0 0"/></g><g><path class="class-1 leaflet-clickable" stroke-linejoin="round" stroke-linecap="round" fill-rule="evenodd" stroke="#005540" stroke-opacity="1" stroke-width="0.5" fill="#7fd" fill-opacity="0.5" d="M0 0"/></g><g><path class="class-1 leaflet-clickable" stroke-linejoin="round" stroke-linecap="round" fill-rule="evenodd" stroke="#005540" stroke-opacity="1" stroke-width="0.5" fill="#7fd" fill-opacity="0.5" d="M0 0"/></g><g><path class="class-1 leaflet-clickable" stroke-linejoin="round" stroke-linecap="round" fill-rule="evenodd" stroke="#005540" stroke-opacity="1" stroke-width="0.5" fill="#7fd" fill-opacity="0.5" d="M0 0"/></g><g><path class="class-1 leaflet-clickable" stroke-linejoin="round" stroke-linecap="round" fill-rule="evenodd" stroke="#005540" stroke-opacity="1" stroke-width="0.5" fill="#7fd" fill-opacity="0.5" d="M0 0"/></g><g><path class="class-1 leaflet-clickable" stroke-linejoin="round" stroke-linecap="round" fill-rule="evenodd" stroke="#005540" stroke-opacity="1" stroke-width="0.5" fill="#7fd" fill-opacity="0.5" d="M0 0"/></g><g><path class="class-1 leaflet-clickable" stroke-linejoin="round" stroke-linecap="round" fill-rule="evenodd" stroke="#005540" stroke-opacity="1" stroke-width="0.5" fill="#7fd" fill-opacity="0.5" d="M0 0"/></g><g><path class="class-1 leaflet-clickable" stroke-linejoin="round" stroke-linecap="round" fill-rule="evenodd" stroke="#005540" stroke-opacity="1" stroke-width="0.5" fill="#7fd" fill-opacity="0.5" d="M0 0"/></g><g><path class="class-0 leaflet-clickable" stroke-linejoin="round" stroke-linecap="round" fill-rule="evenodd" stroke="#005540" stroke-opacity="1" stroke-width="0.5" fill="#ddfff6" fill-opacity="0.5" d="M0 0"/></g><g><path class="class-1 leaflet-clickable" stroke-linejoin="round" stroke-linecap="round" fill-rule="evenodd" stroke="#005540" stroke-opacity="1" stroke-width="0.5" fill="#7fd" fill-opacity="0.5" d="M0 0"/></g><g><path class="class-2 leaflet-clickable" stroke-linejoin="round" stroke-linecap="round" fill-rule="evenodd" stroke="#005540" stroke-opacity="1" stroke-width="0.5" fill="#00cc99" fill-opacity="0.5" d="M1177 512L1164 512L1161 515L1153 513L1152 517L1148 516L1146 518L1153 524L1155 523L1162 527L1160 534L1160 545L1154 549L1147 546L1144 550L1142 548L1129 549L1124 547L1127 552L1121 553L1110 547L1104 540L1101 526L1099 524L1093 527L1086 527L1081 530L1073 527L1070 528L1064 520L1065 514L1072 514L1071.7777777777778 512z"/></g><g><path class="class-0 leaflet-clickable" stroke-linejoin="round" stroke-linecap="round" fill-rule="evenodd" stroke="#005540" stroke-opacity="1" stroke-width="0.5" fill="#ddfff6" fill-opacity="0.5" d="M0 0"/></g><g><path class="class-1 leaflet-clickable" stroke-linejoin="round" stroke-linecap="round" fill-rule="evenodd" stroke="#005540" stroke-opacity="1" stroke-width="0.5" fill="#7fd" fill-opacity="0.5" d="M425.25 512L419 518L416 518L414 512L409 512L410 515L405 518L405 521L402 523L400 520L394 522L394 527L390 525L383 538L378 539L375 544L370 543L370 539L364 538L362 534L358 535L357 537L355 535L352 536L351 533L345 547L347 555L342 559L349 567L347 570L337 574L327 570L322 566L318 569L313 568L313 572L306 572L298 576L288 568L288 565L283 560L285 558L275 557L269 560L267 556L257 562L253 559L248 553L249 550L247 547L241 544L245 538L245 529L239 528L230 532L229 524L232 521L238 522L240 518L245 518L248 516L257 519L259 517L265 516L268.2 512z"/></g><g><path class="class-1 leaflet-clickable" stroke-linejoin="round" stroke-linecap="round" fill-rule="evenodd" stroke="#005540" stroke-opacity="1" stroke-width="0.5" fill="#7fd" fill-opacity="0.5" d="M946.25 512L944 515L946 522L951 527L955 526L954 523L960 523L966 526L961 532L962 540L954 538L953 541L947 544L947 546L938 554L917 547L916 543L909 542L905 548L907 549L902 565L902 570L903 574L905 575L905 579L902 582L895 579L895 583L892 590L894 593L892 594L895 597L885 600L882 597L870 597L859 590L858 598L852 598L852 601L846 606L831 606L824 604L824 599L821 598L821 603L818 604L814 610L815 613L802 620L801 622L805 623L804 628L807 633L807 636L800 637L798 639L801 644L801 647L804 648L806 656L810 655L816 659L818 671L815 671L814 681L818 687L818 696L820 703L832 706L835 711L835 718L843 723L848 730L842 736L842 740L845 742L842 743L839 752L835 755L836 759L834 760L841 766L842 773L839 775L840 781L823 783L814 787L813 790L810 791L811 785L806 787L803 784L805 780L798 780L794 787L786 786L776 790L771 796L765 795L762 787L756 783L754 792L751 792L750 789L746 790L742 787L734 786L734 792L731 793L727 787L724 786L730 777L722 770L726 766L721 762L717 761L711 762L700 767L697 763L694 762L691 769L695 771L691 774L688 774L688 777L684 777L681 773L678 772L673 774L671 771L661 773L656 771L654 773L651 772L653 769L653 763L651 763L650 755L653 754L648 747L648 740L651 739L658 741L660 733L659 731L653 731L648 726L645 725L645 728L641 726L642 717L640 715L637 715L635 718L624 714L621 718L619 716L617 719L610 718L609 723L611 727L607 727L603 736L600 736L598 742L595 739L591 738L586 740L581 736L577 739L573 735L564 740L555 735L552 729L552 712L549 712L548 709L538 711L538 705L531 706L525 704L532 691L534 691L534 685L541 677L540 673L543 673L545 675L550 665L550 657L548 652L540 650L540 640L535 638L536 636L531 636L529 633L530 630L525 627L528 618L529 616L535 614L540 610L540 607L546 599L549 599L550 597L554 598L554 593L559 585L560 578L565 571L566 566L572 566L576 564L573 561L573 558L577 557L578 552L581 554L582 547L584 546L586 532L600 527L604 529L607 526L607 515L605 512z"/></g><g><path class="class-1 leaflet-clickable" stroke-linejoin="round" stroke-linecap="round" fill-rule="evenodd" stroke="#005540" stroke-opacity="1" stroke-width="0.5" fill="#7fd" fill-opacity="0.5" d="M0 0"/></g><g><path class="class-1 leaflet-clickable" stroke-linejoin="round" stroke-linecap="round" fill-rule="evenodd" stroke="#005540" stroke-opacity="1" stroke-width="0.5" fill="#7fd" fill-opacity="0.5" d="M0 0"/></g><g><path class="class-1 leaflet-clickable" stroke-linejoin="round" stroke-linecap="round" fill-rule="evenodd" stroke="#005540" stroke-opacity="1" stroke-width="0.5" fill="#7fd" fill-opacity="0.5" d="M271 979L264 989L259 990L259 992L255 996L248 993L244 998L248 1002L246 1004L248 1010L244 1014L237 1016L236 1019L233 1019L230 1028L226 1031L226 1033L214 1020L181 996L149 979L127 970L117 968L118 962L123 961L122 956L113 949L107 950L99 955L97 954L96 951L89 948L53 938L56 936L64 939L66 938L67 942L71 943L69 937L73 937L77 926L83 922L86 925L89 924L92 926L99 921L99 918L105 920L108 920L110 918L113 920L116 916L121 918L125 913L127 915L133 912L137 914L144 914L147 911L156 910L154 904L162 896L165 888L163 887L164 879L167 876L177 881L183 880L185 884L197 888L195 885L198 883L205 889L209 887L211 893L224 886L227 886L235 877L248 873L248 880L254 887L255 892L259 893L265 903L272 907L268 916L267 931L270 938L265 950L265 959L268 961L271 967L271 973z"/></g><g><path class="class-1 leaflet-clickable" stroke-linejoin="round" stroke-linecap="round" fill-rule="evenodd" stroke="#005540" stroke-opacity="1" stroke-width="0.5" fill="#7fd" fill-opacity="0.5" d="M0 0"/></g><g><path class="class-1 leaflet-clickable" stroke-linejoin="round" stroke-linecap="round" fill-rule="evenodd" stroke="#005540" stroke-opacity="1" stroke-width="0.5" fill="#7fd" fill-opacity="0.5" d="M-227 513L-227 520L-231 521L-236 517L-233 513z"/></g><g><path class="class-1 leaflet-clickable" stroke-linejoin="round" stroke-linecap="round" fill-rule="evenodd" stroke="#005540" stroke-opacity="1" stroke-width="0.5" fill="#7fd" fill-opacity="0.5" d="M0 0"/></g><g><path class="class-1 leaflet-clickable" stroke-linejoin="round" stroke-linecap="round" fill-rule="evenodd" stroke="#005540" stroke-opacity="1" stroke-width="0.5" fill="#7fd" fill-opacity="0.5" d="M0 0"/></g><g><path class="class-1 leaflet-clickable" stroke-linejoin="round" stroke-linecap="round" fill-rule="evenodd" stroke="#005540" stroke-opacity="1" stroke-width="0.5" fill="#7fd" fill-opacity="0.5" d="M0 0"/></g><g><path class="class-1 leaflet-clickable" stroke-linejoin="round" stroke-linecap="round" fill-rule="evenodd" stroke="#005540" stroke-opacity="1" stroke-width="0.5" fill="#7fd" fill-opacity="0.5" d="M224.875 512L224 519L219 522L219 524L215 525L210 531L211 536L208 538L204 536L193 539L188 538L184 534L175 540L176 544L164 548L161 545L158 547L140 548L137 554L140 559L139 568L135 574L135 580L138 583L135 586L136 591L141 594L133 600L130 606L126 606L128 611L126 614L120 616L117 614L113 617L112 621L115 621L110 627L119 624L124 629L127 627L134 641L132 647L135 651L132 652L133 661L128 659L127 657L126 645L110 634L106 627L91 619L87 615L83 607L79 604L80 602L77 599L73 597L67 599L64 599L62 597L59 598L54 595L54 592L46 588L46 584L41 582L38 583L36 580L34 582L28 581L22 586L20 586L15 592L15 595L5 598L2 602L-2 600L-9 602L-12 597L-19 599L-31 611L-35 620L-35 624L-33 625L-35 630L-40 628L-46 634L-51 645L-55 648L-61 637L-67 631L-70 631L-76 636L-79 636L-88 632L-90 633L-94 630L-102 629L-98 625L-96 627L-92 624L-86 610L-82 608L-77 598L-74 597L-71 593L-69 593L-67 589L-64 587L-61 582L-61 578L-57 580L-52 579L-48 575L-46 570L-47 559L-44 554L-46 552L-46 548L-43 544L-48 517L-47 512z"/></g><g><path class="class-1 leaflet-clickable" stroke-linejoin="round" stroke-linecap="round" fill-rule="evenodd" stroke="#005540" stroke-opacity="1" stroke-width="0.5" fill="#7fd" fill-opacity="0.5" d="M605 512L607 515L607 526L604 529L600 527L586 532L584 546L582 547L581 554L578 552L577 557L573 558L573 561L576 564L572 566L566 566L565 571L560 578L559 585L554 593L554 598L550 597L549 599L546 599L540 607L540 610L535 614L529 616L528 618L525 627L530 630L529 633L531 636L536 636L535 638L540 640L540 650L548 652L550 657L550 665L545 675L543 673L540 673L541 677L534 685L534 691L532 691L523 706L513 705L511 710L505 710L496 714L486 710L476 715L464 713L457 715L453 719L446 722L448 723L435 729L431 727L428 734L419 735L419 746L409 747L405 750L395 752L396 755L394 758L389 755L385 747L383 748L371 746L369 747L374 752L371 754L367 752L367 754L355 752L353 761L355 764L356 772L352 777L352 782L354 785L358 787L358 784L368 780L378 785L382 784L400 788L402 792L409 798L407 802L410 807L407 809L406 812L408 814L404 816L398 815L393 821L396 828L395 829L400 837L397 842L398 846L401 848L401 851L404 851L406 854L411 854L412 858L410 859L413 868L408 876L411 877L417 873L420 873L420 877L423 878L430 876L435 871L438 871L438 876L443 877L444 880L440 883L440 888L438 891L439 892L435 897L431 910L426 915L424 927L419 930L416 928L416 924L413 926L405 923L399 925L398 928L392 932L382 932L376 937L368 938L364 943L365 948L363 949L360 945L357 946L358 957L362 962L356 962L354 966L351 965L348 968L349 972L344 975L341 981L333 986L323 978L320 968L313 970L300 977L290 976L286 978L280 975L273 975L271 979L271 967L268 961L265 959L265 950L270 938L267 931L268 916L272 907L265 903L259 893L255 892L254 887L248 880L248 873L235 877L230 884L211 893L209 887L205 889L198 883L195 885L197 888L185 884L183 880L177 881L167 876L164 879L163 887L165 888L162 896L154 904L156 910L147 911L144 914L137 914L133 912L127 915L125 913L121 918L116 916L113 920L110 918L108 920L99 918L99 921L92 926L89 924L86 925L83 922L77 926L73 937L69 937L71 943L67 942L66 938L64 939L56 936L53 938L54 933L50 929L46 930L45 926L39 928L37 926L31 927L33 920L35 918L34 916L31 913L26 913L25 916L18 917L4 909L-9 897L-7 896L-7 891L-17 881L-14 880L-15 876L-18 875L-20 864L-23 860L-30 860L-31 856L-37 852L-40 852L-40 850L-51 841L-64 820L-96 776L-104 760L-104 749L-102 743L-105 734L-110 731L-111 728L-123 717L-130 704L-130 700L-126 700L-125 696L-122 695L-116 687L-111 687L-108 685L-98 683L-94 684L-77 680L-71 681L-62 679L-56 673L-51 671L-48 666L-46 656L-48 652L-55 648L-51 645L-46 634L-40 628L-35 630L-33 625L-35 624L-35 620L-27 606L-19 599L-12 597L-9 602L-5 600L2 602L5 598L15 595L15 592L20 586L22 586L28 581L34 582L36 580L38 583L41 582L46 584L46 588L54 592L54 595L59 598L62 597L64 599L67 599L73 597L77 599L80 602L79 604L83 607L83 609L91 619L106 627L110 634L126 645L127 657L128 659L133 661L132 652L135 651L132 647L134 641L127 627L124 629L119 624L110 627L115 621L112 621L113 617L117 614L120 616L126 614L128 611L126 606L130 606L133 600L141 594L136 591L135 586L138 583L135 580L135 574L139 568L140 559L137 554L140 548L158 547L161 545L164 548L176 544L175 540L184 534L188 538L193 539L204 536L208 538L211 536L210 531L215 525L219 524L219 522L224 519L224.875 512L268.2 512L265 516L259 517L257 519L248 516L245 518L240 518L238 522L232 521L229 524L230 532L239 528L245 529L245 538L241 544L247 547L249 550L248 553L253 559L257 562L267 556L269 560L275 557L285 558L283 560L288 565L288 568L298 576L306 572L313 572L313 568L318 569L322 566L327 570L337 574L347 570L349 567L342 559L347 555L345 547L351 533L352 536L355 535L357 537L358 535L362 534L364 538L370 539L370 543L375 544L378 539L383 538L390 525L394 527L394 522L400 520L402 523L405 521L405 518L410 515L409 512L414 512L416 518L419 518L425.25 512z"/></g><g><path class="class-3 leaflet-clickable" stroke-linejoin="round" stroke-linecap="round" fill-rule="evenodd" stroke="#005540" stroke-opacity="1" stroke-width="0.5" fill="#086" fill-opacity="0.5" d="M932 727L935 724L945 733L945 736L959 747L961 745L966 746L969 744L969 747L972 747L974 751L979 746L992 747L995 745L997 749L994 750L1001 759L1001 763L1005 766L1009 779L1002 788L1000 797L1010 803L1013 808L1017 806L1021 808L1018 819L1019 823L1022 821L1026 821L1035 811L1038 810L1039 806L1043 806L1045 803L1047 803L1050 795L1047 789L1060 774L1072 772L1074 775L1077 776L1076 782L1080 780L1080 777L1083 776L1082 784L1084 786L1088 786L1086 777L1090 766L1098 774L1099 784L1095 784L1092 788L1089 787L1089 790L1097 793L1097 800L1085 804L1089 811L1087 812L1098 818L1102 809L1105 808L1105 802L1110 798L1113 800L1115 797L1118 800L1117 802L1126 807L1126 804L1129 801L1146 808L1144 811L1147 815L1148 811L1150 811L1153 814L1159 823L1162 824L1161 830L1156 833L1157 838L1155 843L1158 844L1149 848L1149 855L1142 864L1143 870L1147 872L1152 882L1150 884L1155 889L1151 891L1150 894L1153 904L1150 904L1150 909L1156 922L1153 926L1153 936L1155 942L1154 948L1157 948L1157 954L1154 957L1158 965L1155 969L1150 971L1141 983L1137 982L1126 984L1118 982L1114 979L1115 977L1112 974L1112 967L1106 965L1104 961L1092 958L1095 955L1095 944L1097 943L1095 940L1097 939L1094 935L1095 932L1099 929L1094 927L1095 924L1093 923L1096 910L1090 903L1090 901L1078 895L1080 887L1076 878L1077 876L1066 871L1065 869L1069 863L1067 858L1064 859L1059 866L1060 875L1051 873L1048 880L1050 882L1048 889L1040 895L1040 897L1035 901L1033 900L1029 904L1028 908L1024 913L1025 915L1022 918L1027 920L1026 926L1031 928L1033 931L1033 935L1038 947L1035 948L1031 955L1030 970L1032 974L1032 982L1027 985L1026 988L1022 991L1015 992L1014 995L1010 996L1011 1005L1007 1016L1004 1017L999 1026L994 1028L992 1031L985 1029L983 1023L976 1022L976 1024L973 1025L968 1016L962 1013L960 1018L966 1027L962 1026L960 1023L954 1022L951 1027L951 1030L948 1032L946 1041L944 1043L941 1042L940 1044L937 1044L932 1047L928 1045L918 1050L913 1058L908 1055L907 1052L902 1048L895 1052L890 1064L888 1063L885 1065L885 1067L878 1070L873 1077L867 1078L864 1084L860 1082L858 1091L851 1093L841 1083L836 1082L841 1069L837 1061L834 1060L832 1064L828 1066L825 1059L828 1049L827 1046L824 1044L820 1045L818 1041L820 1031L824 1031L829 1017L828 1014L824 1014L819 1011L817 1006L809 1002L803 1001L795 994L797 993L799 988L802 988L807 982L809 975L813 970L823 966L825 962L831 959L836 944L841 942L838 939L839 935L846 927L848 922L848 916L850 915L848 911L851 910L852 906L850 902L853 899L853 896L863 894L872 887L869 883L871 869L867 865L863 864L861 850L857 842L859 838L862 836L872 837L873 834L876 834L880 831L880 813L884 807L894 805L888 802L885 796L883 795L883 782L885 778L878 777L879 769L889 774L899 772L906 766L906 764L910 764L910 767L920 766L917 756L919 751L918 746L913 739L909 727L914 729L915 737L921 738L919 727L922 723L929 726z"/></g><g><path class="class-1 leaflet-clickable" stroke-linejoin="round" stroke-linecap="round" fill-rule="evenodd" stroke="#005540" stroke-opacity="1" stroke-width="0.5" fill="#7fd" fill-opacity="0.5" d="M843 723L844 721L859 727L874 739L872 745L864 751L871 754L870 764L880 768L881 770L879 769L878 777L885 778L883 782L883 795L885 796L888 802L894 805L884 807L880 813L880 831L876 834L873 834L872 837L862 836L859 838L857 842L861 850L863 864L867 865L871 869L869 883L872 887L863 894L853 896L853 899L850 902L852 906L851 910L848 911L850 915L848 916L848 922L846 927L839 935L838 939L841 942L836 944L831 959L825 962L823 966L813 970L809 975L807 982L802 988L799 988L797 993L793 997L790 997L788 1003L785 1004L780 1010L778 1011L779 1006L770 997L767 998L762 1004L764 1010L761 1013L761 1021L766 1023L764 1031L768 1033L767 1037L770 1042L767 1056L771 1065L773 1064L777 1069L791 1076L791 1079L799 1085L796 1091L790 1094L790 1098L783 1092L784 1090L781 1088L781 1085L779 1084L774 1086L772 1082L765 1080L763 1073L761 1072L754 1073L746 1070L744 1075L741 1073L739 1079L731 1077L732 1075L729 1071L723 1069L723 1063L718 1063L708 1067L694 1064L690 1065L686 1061L681 1062L673 1059L671 1062L663 1063L643 1070L641 1069L632 1071L618 1064L614 1053L611 1049L608 1048L596 1051L595 1047L593 1046L584 1048L571 1054L564 1061L563 1072L568 1079L565 1080L563 1085L565 1093L568 1095L566 1100L569 1103L566 1105L567 1109L561 1111L559 1114L560 1116L556 1120L548 1119L546 1124L535 1124L532 1126L517 1128L513 1132L512 1138L510 1140L511 1142L509 1159L511 1166L517 1170L518 1175L509 1180L495 1173L454 1160L449 1160L432 1155L415 1153L399 1148L354 1128L340 1127L339 1125L331 1124L327 1121L314 1119L298 1112L295 1113L292 1110L271 1101L264 1091L264 1086L262 1081L258 1077L255 1068L247 1060L235 1051L231 1050L235 1047L236 1044L229 1034L226 1033L226 1031L230 1028L233 1019L236 1019L237 1016L244 1014L248 1010L246 1004L248 1002L244 998L248 993L255 996L259 992L259 990L264 989L273 975L280 975L286 978L290 976L300 977L313 970L320 968L323 978L329 984L333 986L336 985L341 981L344 975L349 972L348 968L351 965L354 966L356 962L362 962L358 957L357 946L360 945L363 949L365 948L364 943L368 938L376 937L382 932L392 932L398 928L399 925L405 923L413 926L416 924L416 928L419 930L424 927L426 915L431 910L435 897L439 892L438 891L440 888L440 883L444 880L443 877L438 876L438 871L435 871L430 876L423 878L420 877L420 873L417 873L411 877L408 876L413 868L410 859L412 858L411 854L406 854L404 851L401 851L401 848L398 846L397 842L400 837L395 829L396 828L393 821L398 815L404 816L408 814L406 812L407 809L410 807L407 802L409 798L402 792L400 788L382 784L378 785L368 780L358 784L358 787L354 785L352 782L352 777L356 772L355 764L353 761L355 752L360 752L361 754L367 754L367 752L371 754L374 752L369 747L385 747L389 755L394 758L396 755L395 752L405 750L409 747L419 746L419 735L428 734L431 727L435 729L448 723L446 722L453 719L457 715L464 713L476 715L486 710L496 714L505 710L511 710L513 705L538 705L538 711L548 709L549 712L552 712L552 729L555 735L564 740L573 735L577 739L581 736L586 740L591 738L595 739L598 742L600 736L603 736L607 727L611 727L609 723L610 718L617 719L619 716L621 718L624 714L635 718L637 715L640 715L642 717L641 726L645 728L645 725L648 726L653 731L659 731L660 733L658 741L651 739L648 740L648 747L653 754L650 755L651 763L653 763L653 769L651 772L654 773L656 771L661 773L671 771L673 774L678 772L681 773L684 777L688 777L688 774L691 774L695 771L691 769L694 762L697 763L700 767L711 762L717 761L721 762L726 766L722 770L725 774L730 777L724 786L727 787L731 793L734 792L734 786L742 787L746 790L750 789L751 792L754 792L756 783L761 787L765 795L771 796L776 790L786 786L794 787L798 780L805 780L803 784L806 787L811 785L810 791L813 790L814 787L823 783L840 781L839 775L842 773L841 766L834 760L836 759L835 755L839 752L842 743L845 742L842 740L842 736L848 730L844 726z"/></g></svg>