<svg xmlns="http://www.w3.org/2000/svg" class="leaflet-zoom-animated" width="1967" height="1123" viewBox="-387 -390 1967 1123" style="transform: translate3d(-387px, -390px, 0px);"><g><path class="class-0 leaflet-clickable" stroke-linejoin="round" stroke-linecap="round" fill-rule="evenodd" stroke="#005540" stroke-opacity="1" stroke-width="0.5" fill="#00cc99" fill-opacity="0.5" d="M202 444L202 444z"/></g><g><path class="class-0 leaflet-clickable" stroke-linejoin="round" stroke-linecap="round" fill-rule="evenodd" stroke="#005540" stroke-opacity="1" stroke-width="0.5" fill="#00cc99" fill-opacity="0.5" d="M825 443L826 440L825 443z"/></g><g><path class="class-0 leaflet-clickable" stroke-linejoin="round" stroke-linecap="round" fill-rule="evenodd" stroke="#005540" stroke-opacity="1" stroke-width="0.5" fill="#00cc99" fill-opacity="0.5" d="M827 435L827 437L827 435z"/></g><g><path class="class-0 leaflet-clickable" stroke-linejoin="round" stroke-linecap="round" fill-rule="evenodd" stroke="#005540" stroke-opacity="1" stroke-width="0.5" fill="#00cc99" fill-opacity="0.5" d="M287 432L289 434L288 435L286 433L287 432z"/></g><g><path class="class-0 leaflet-clickable" stroke-linejoin="round" stroke-linecap="round" fill-rule="evenodd" stroke="#005540" stroke-opacity="1" stroke-width="0.5" fill="#00cc99" fill-opacity="0.5" d="M291 422L291 421z"/></g><g><path class="class-0 leaflet-clickable" stroke-linejoin="round" stroke-linecap="round" fill-rule="evenodd" stroke="#005540" stroke-opacity="1" stroke-width="0.5" fill="#00cc99" fill-opacity="0.5" d="M839 390L839 392L833 398L833 394L835 391L840 390z"/></g><g><path class="class-0 leaflet-clickable" stroke-linejoin="round" stroke-linecap="round" fill-rule="evenodd" stroke="#005540" stroke-opacity="1" stroke-width="0.5" fill="#00cc99" fill-opacity="0.5" d="M755 388L754 388z"/></g><g><path class="class-0 leaflet-clickable" stroke-linejoin="round" stroke-linecap="round" fill-rule="evenodd" stroke="#005540" stroke-opacity="1" stroke-width="0.5" fill="#00cc99" fill-opacity="0.5" d="M713 380L712 380z"/></g><g><path class="class-0 leaflet-clickable" stroke-linejoin="round" stroke-linecap="round" fill-rule="evenodd" stroke="#005540" stroke-opacity="1" stroke-width="0.5" fill="#00cc99" fill-opacity="0.5" d="M839 374L840 375L839 374z"/></g><g><path class="class-0 leaflet-clickable" stroke-linejoin="round" stroke-linecap="round" fill-rule="evenodd" stroke="#005540" stroke-opacity="1" stroke-width="0.5" fill="#00cc99" fill-opacity="0.5" d="M396 371L395 371z"/></g><g><path class="class-0 leaflet-clickable" stroke-linejoin="round" stroke-linecap="round" fill-rule="evenodd" stroke="#005540" stroke-opacity="1" stroke-width="0.5" fill="#00cc99" fill-opacity="0.5" d="M391 368L393 369L392 370L390 368z"/></g><g><path class="class-0 leaflet-clickable" stroke-linejoin="round" stroke-linecap="round" fill-rule="evenodd" stroke="#005540" stroke-opacity="1" stroke-width="0.5" fill="#00cc99" fill-opacity="0.5" d="M831 365L829 367L824 368L826 366L829 367L831 365z"/></g><g><path class="class-0 leaflet-clickable" stroke-linejoin="round" stroke-linecap="round" fill-rule="evenodd" stroke="#005540" stroke-opacity="1" stroke-width="0.5" fill="#00cc99" fill-opacity="0.5" d="M386 363L388 363L389 366L387 366L386 364z"/></g><g><path class="class-0 leaflet-clickable" stroke-linejoin="round" stroke-linecap="round" fill-rule="evenodd" stroke="#005540" stroke-opacity="1" stroke-width="0.5" fill="#00cc99" fill-opacity="0.5" d="M386 361L385 361z"/></g><g><path class="class-0 leaflet-clickable" stroke-linejoin="round" stroke-linecap="round" fill-rule="evenodd" stroke="#005540" stroke-opacity="1" stroke-width="0.5" fill="#00cc99" fill-opacity="0.5" d="M770 344L770 343z"/></g><g><path class="class-0 leaflet-clickable" stroke-linejoin="round" stroke-linecap="round" fill-rule="evenodd" stroke="#005540" stroke-opacity="1" stroke-width="0.5" fill="#00cc99" fill-opacity="0.5" d="M771 341L774 342L775 344L773 346L770 343L771 341z"/></g><g><path class="class-0 leaflet-clickable" stroke-linejoin="round" stroke-linecap="round" fill-rule="evenodd" stroke="#005540" stroke-opacity="1" stroke-width="0.5" fill="#00cc99" fill-opacity="0.5" d="M314 302L312 302L312 297L314 302z"/></g><g><path class="class-0 leaflet-clickable" stroke-linejoin="round" stroke-linecap="round" fill-rule="evenodd" stroke="#005540" stroke-opacity="1" stroke-width="0.5" fill="#00cc99" fill-opacity="0.5" d="M302 293L303 296L301 294L302 293z"/></g><g><path class="class-0 leaflet-clickable" stroke-linejoin="round" stroke-linecap="round" fill-rule="evenodd" stroke="#005540" stroke-opacity="1" stroke-width="0.5" fill="#00cc99" fill-opacity="0.5" d="M301 291L301 292z"/></g><g><path class="class-0 leaflet-clickable" stroke-linejoin="round" stroke-linecap="round" fill-rule="evenodd" stroke="#005540" stroke-opacity="1" stroke-width="0.5" fill="#00cc99" fill-opacity="0.5" d="M297 285L297 285z"/></g><g><path class="class-0 leaflet-clickable" stroke-linejoin="round" stroke-linecap="round" fill-rule="evenodd" stroke="#005540" stroke-opacity="1" stroke-width="0.5" fill="#00cc99" fill-opacity="0.5" d="M294 279L298 284L294 281L294 279z"/></g><g><path class="class-0 leaflet-clickable" stroke-linejoin="round" stroke-linecap="round" fill-rule="evenodd" stroke="#005540" stroke-opacity="1" stroke-width="0.5" fill="#00cc99" fill-opacity="0.5" d="M294 273L293 275L294 273z"/></g><g><path class="class-0 leaflet-clickable" stroke-linejoin="round" stroke-linecap="round" fill-rule="evenodd" stroke="#005540" stroke-opacity="1" stroke-width="0.5" fill="#00cc99" fill-opacity="0.5" d="M292 263L293 266L292 264z"/></g><g><path class="class-0 leaflet-clickable" stroke-linejoin="round" stroke-linecap="round" fill-rule="evenodd" stroke="#005540" stroke-opacity="1" stroke-width="0.5" fill="#00cc99" fill-opacity="0.5" d="M286 263L286 265L286 263z"/></g><g><path class="class-0 leaflet-clickable" stroke-linejoin="round" stroke-linecap="round" fill-rule="evenodd" stroke="#005540" stroke-opacity="1" stroke-width="0.5" fill="#00cc99" fill-opacity="0.5" d="M281 261L281 261z"/></g><g><path class="class-0 leaflet-clickable" stroke-linejoin="round" stroke-linecap="round" fill-rule="evenodd" stroke="#005540" stroke-opacity="1" stroke-width="0.5" fill="#00cc99" fill-opacity="0.5" d="M286 254L286 256L284 256L282 260L283 261L282 258L283 255L285 255z"/></g><g><path class="class-0 leaflet-clickable" stroke-linejoin="round" stroke-linecap="round" fill-rule="evenodd" stroke="#005540" stroke-opacity="1" stroke-width="0.5" fill="#00cc99" fill-opacity="0.5" d="M281 252L281 252z"/></g><g><path class="class-0 leaflet-clickable" stroke-linejoin="round" stroke-linecap="round" fill-rule="evenodd" stroke="#005540" stroke-opacity="1" stroke-width="0.5" fill="#00cc99" fill-opacity="0.5" d="M263 224L263 226L262 224z"/></g><g><path class="class-0 leaflet-clickable" stroke-linejoin="round" stroke-linecap="round" fill-rule="evenodd" stroke="#005540" stroke-opacity="1" stroke-width="0.5" fill="#00cc99" fill-opacity="0.5" d="M266 219L265 219z"/></g><g><path class="class-0 leaflet-clickable" stroke-linejoin="round" stroke-linecap="round" fill-rule="evenodd" stroke="#005540" stroke-opacity="1" stroke-width="0.5" fill="#00cc99" fill-opacity="0.5" d="M192 208L191 208z"/></g><g><path class="class-0 leaflet-clickable" stroke-linejoin="round" stroke-linecap="round" fill-rule="evenodd" stroke="#005540" stroke-opacity="1" stroke-width="0.5" fill="#00cc99" fill-opacity="0.5" d="M183 197L183 197z"/></g><g><path class="class-0 leaflet-clickable" stroke-linejoin="round" stroke-linecap="round" fill-rule="evenodd" stroke="#005540" stroke-opacity="1" stroke-width="0.5" fill="#00cc99" fill-opacity="0.5" d="M191 195L193 201L192 204L188 202L191 199L191 195z"/></g><g><path class="class-0 leaflet-clickable" stroke-linejoin="round" stroke-linecap="round" fill-rule="evenodd" stroke="#005540" stroke-opacity="1" stroke-width="0.5" fill="#00cc99" fill-opacity="0.5" d="M244 187L247 189L246 190L245 188z"/></g><g><path class="class-0 leaflet-clickable" stroke-linejoin="round" stroke-linecap="round" fill-rule="evenodd" stroke="#005540" stroke-opacity="1" stroke-width="0.5" fill="#00cc99" fill-opacity="0.5" d="M243 187L243 187z"/></g><g><path class="class-0 leaflet-clickable" stroke-linejoin="round" stroke-linecap="round" fill-rule="evenodd" stroke="#005540" stroke-opacity="1" stroke-width="0.5" fill="#00cc99" fill-opacity="0.5" d="M252 186L251 188L251 186z"/></g><g><path class="class-0 leaflet-clickable" stroke-linejoin="round" stroke-linecap="round" fill-rule="evenodd" stroke="#005540" stroke-opacity="1" stroke-width="0.5" fill="#00cc99" fill-opacity="0.5" d="M230 176L230 176z"/></g><g><path class="class-0 leaflet-clickable" stroke-linejoin="round" stroke-linecap="round" fill-rule="evenodd" stroke="#005540" stroke-opacity="1" stroke-width="0.5" fill="#00cc99" fill-opacity="0.5" d="M120 175L122 177L121 182L119 178L121 174z"/></g><g><path class="class-0 leaflet-clickable" stroke-linejoin="round" stroke-linecap="round" fill-rule="evenodd" stroke="#005540" stroke-opacity="1" stroke-width="0.5" fill="#00cc99" fill-opacity="0.5" d="M258 173L260 179L258 184L259 185L257 186L252 182L253 175L257 173z"/></g><g><path class="class-0 leaflet-clickable" stroke-linejoin="round" stroke-linecap="round" fill-rule="evenodd" stroke="#005540" stroke-opacity="1" stroke-width="0.5" fill="#00cc99" fill-opacity="0.5" d="M230 165L233 167L233 170L235 172L238 171L238 179L228 168L230 165z"/></g><g><path class="class-0 leaflet-clickable" stroke-linejoin="round" stroke-linecap="round" fill-rule="evenodd" stroke="#005540" stroke-opacity="1" stroke-width="0.5" fill="#00cc99" fill-opacity="0.5" d="M209 153L210 154L209 153z"/></g><g><path class="class-0 leaflet-clickable" stroke-linejoin="round" stroke-linecap="round" fill-rule="evenodd" stroke="#005540" stroke-opacity="1" stroke-width="0.5" fill="#00cc99" fill-opacity="0.5" d="M202 112L202 112z"/></g><g><path class="class-0 leaflet-clickable" stroke-linejoin="round" stroke-linecap="round" fill-rule="evenodd" stroke="#005540" stroke-opacity="1" stroke-width="0.5" fill="#00cc99" fill-opacity="0.5" d="M204 106L205 107L204 106z"/></g><g><path class="class-0 leaflet-clickable" stroke-linejoin="round" stroke-linecap="round" fill-rule="evenodd" stroke="#005540" stroke-opacity="1" stroke-width="0.5" fill="#00cc99" fill-opacity="0.5" d="M202 105L204 107L203 108L201 108L201 105z"/></g><g><path class="class-0 leaflet-clickable" stroke-linejoin="round" stroke-linecap="round" fill-rule="evenodd" stroke="#005540" stroke-opacity="1" stroke-width="0.5" fill="#00cc99" fill-opacity="0.5" d="M201 83L201 87L280 115L285 118L351 118L351 106L354 105L391 106L396 113L399 116L401 116L412 128L422 135L424 135L424 137L426 137L427 142L431 148L431 156L438 165L442 166L441 167L444 170L451 172L459 178L466 180L467 177L471 173L472 174L471 172L473 170L474 164L478 159L482 159L485 156L494 159L504 158L506 162L508 162L508 164L509 163L509 165L522 176L526 188L530 193L529 194L532 199L537 203L540 209L548 216L550 230L554 234L558 246L560 245L562 247L567 248L567 250L573 250L578 255L591 255L596 260L598 259L597 258L602 257L602 263L595 276L590 294L588 336L586 339L586 346L592 360L598 366L596 374L604 392L611 398L619 409L621 419L626 424L626 426L629 427L632 433L636 435L645 435L651 439L655 439L660 448L662 449L670 448L687 442L700 442L703 440L703 438L712 436L720 436L723 438L740 428L749 420L749 412L755 405L755 387L757 381L763 376L776 372L794 370L798 367L806 365L812 365L826 370L831 369L832 366L837 373L838 370L837 373L839 377L835 385L823 399L823 409L822 410L823 406L823 408L820 409L818 413L816 413L819 416L823 414L824 415L823 418L818 420L818 424L821 421L823 421L821 423L821 427L819 429L813 449L810 449L810 443L805 443L805 441L799 441L797 447L794 449L791 455L787 452L784 457L743 457L743 470L732 470L735 473L736 472L736 474L740 476L739 477L741 479L749 483L750 488L756 491L755 498L726 498L715 518L718 522L715 527L716 531L714 535L686 507L678 501L668 497L658 495L646 496L641 501L637 501L627 506L626 505L623 508L614 508L605 505L602 502L588 501L578 494L571 493L565 487L563 488L553 484L545 484L537 478L513 470L514 469L509 465L505 464L493 453L486 454L460 446L448 432L424 420L422 415L420 415L412 404L408 394L416 392L418 390L416 386L411 386L419 376L419 367L418 368L414 365L409 357L409 349L406 341L390 325L389 321L383 315L378 307L360 294L344 274L332 270L328 265L324 265L322 257L327 248L327 244L323 239L317 239L314 237L311 229L303 227L299 223L297 223L297 209L295 207L294 208L290 206L290 208L288 208L288 206L282 204L276 195L272 193L266 186L267 184L260 180L260 173L258 170L257 171L255 169L256 167L252 162L250 156L247 155L247 148L239 134L240 122L234 119L227 118L227 114L222 110L215 113L201 104L201 110L199 113L199 123L203 129L203 137L205 142L204 149L206 153L210 157L210 159L213 159L227 172L230 182L232 180L234 184L237 184L239 191L241 193L245 193L244 197L246 199L248 211L257 218L260 224L259 225L266 229L264 230L264 232L266 234L268 233L271 235L274 238L274 242L277 243L276 244L280 254L280 262L285 268L287 268L289 277L295 285L293 289L294 297L297 301L300 302L303 301L303 297L310 303L310 305L314 306L314 308L317 311L317 315L320 316L323 320L323 324L321 327L312 334L310 334L308 332L305 320L301 316L279 299L275 297L270 298L269 296L262 292L260 290L260 287L257 286L262 272L262 261L257 251L249 248L234 236L232 235L229 238L222 231L218 231L215 227L211 227L208 224L207 220L195 211L195 209L207 211L213 208L217 201L216 198L218 194L216 190L211 186L211 184L208 181L206 181L205 177L202 176L202 174L197 169L192 168L190 165L184 163L180 159L181 157L178 153L178 146L172 140L173 134L167 127L166 128L165 119L158 112L159 109L156 106L158 107L159 104L153 99L153 96L148 88L148 85L202 80L202 82zM291 205L291 206z"/></g></svg>