<svg xmlns="http://www.w3.org/2000/svg" class="leaflet-zoom-animated" width="1977" style="-webkit-transform: translate3d(-356px, -162px, 0);" height="899" viewBox="-356 -162 1977 899"><g><path class="class-3 leaflet-clickable" stroke-linejoin="round" stroke-linecap="round" fill-rule="evenodd" stroke="#005540" stroke-opacity="1" stroke-width="0.5" fill="#086" fill-opacity="0.5" d="M690 427L693 430L697 428L695 434L696 441L695 442L693 440L688 444L682 441L678 436L683 425L690 427z"/></g><g><path class="class-3 leaflet-clickable" stroke-linejoin="round" stroke-linecap="round" fill-rule="evenodd" stroke="#005540" stroke-opacity="1" stroke-width="0.5" fill="#086" fill-opacity="0.5" d="M525 371L524 371z"/></g><g><path class="class-3 leaflet-clickable" stroke-linejoin="round" stroke-linecap="round" fill-rule="evenodd" stroke="#005540" stroke-opacity="1" stroke-width="0.5" fill="#086" fill-opacity="0.5" d="M520 368L522 369L521 370L519 368z"/></g><g><path class="class-3 leaflet-clickable" stroke-linejoin="round" stroke-linecap="round" fill-rule="evenodd" stroke="#005540" stroke-opacity="1" stroke-width="0.5" fill="#086" fill-opacity="0.5" d="M515 363L517 363L518 366L516 366L515 364z"/></g><g><path class="class-3 leaflet-clickable" stroke-linejoin="round" stroke-linecap="round" fill-rule="evenodd" stroke="#005540" stroke-opacity="1" stroke-width="0.5" fill="#086" fill-opacity="0.5" d="M515 361L514 362z"/></g><g><path class="class-3 leaflet-clickable" stroke-linejoin="round" stroke-linecap="round" fill-rule="evenodd" stroke="#005540" stroke-opacity="1" stroke-width="0.5" fill="#086" fill-opacity="0.5" d="M567 346L569 347L567 356L571 356L572 360L576 361L578 363L577 366L582 370L579 373L580 374L570 376L571 381L567 385L570 387L570 389L559 380L550 382L547 388L545 386L540 386L548 376L548 367L547 368L542 364L538 356L538 349L535 343L536 342L536 344L538 341L543 343L541 339L541 333L544 329L545 332L553 332L552 333L555 337L551 339L553 343L557 340L562 344L563 347L567 345z"/></g><g><path class="class-1 leaflet-clickable" stroke-linejoin="round" stroke-linecap="round" fill-rule="evenodd" stroke="#005540" stroke-opacity="1" stroke-width="0.5" fill="#7fd" fill-opacity="0.5" d="M624 355L623 356L625 358L620 359L616 364L612 364L606 361L603 362L601 360L606 352L606 348L612 347L614 345L618 347L617 348L620 348L620 352L624 355z"/></g><g><path class="class-3 leaflet-clickable" stroke-linejoin="round" stroke-linecap="round" fill-rule="evenodd" stroke="#005540" stroke-opacity="1" stroke-width="0.5" fill="#086" fill-opacity="0.5" d="M658 397L662 399L661 401L664 404L663 405L665 408L663 408L661 412L662 419L659 420L657 426L651 433L648 432L649 439L652 441L652 444L648 441L645 442L643 440L637 439L633 441L627 438L624 439L623 441L624 446L617 449L617 455L587 445L581 436L587 429L592 428L595 430L598 427L598 425L599 426L599 424L604 422L605 423L607 421L608 417L604 417L605 415L602 410L604 408L603 406L597 405L597 402L600 401L599 400L604 401L610 396L617 395L621 395L620 396L622 396L624 400L628 400L629 397L633 396L633 398L636 399L634 399L634 402L636 404L640 404L640 402L642 402L645 406L655 406L658 405L657 402L659 398z"/></g><g><path class="class-2 leaflet-clickable" stroke-linejoin="round" stroke-linecap="round" fill-rule="evenodd" stroke="#005540" stroke-opacity="1" stroke-width="0.5" fill="#00cc99" fill-opacity="0.5" d="M331 444L331 444z"/></g><g><path class="class-2 leaflet-clickable" stroke-linejoin="round" stroke-linecap="round" fill-rule="evenodd" stroke="#005540" stroke-opacity="1" stroke-width="0.5" fill="#00cc99" fill-opacity="0.5" d="M416 432L418 434L417 435L415 433L416 432z"/></g><g><path class="class-2 leaflet-clickable" stroke-linejoin="round" stroke-linecap="round" fill-rule="evenodd" stroke="#005540" stroke-opacity="1" stroke-width="0.5" fill="#00cc99" fill-opacity="0.5" d="M587 429L581 436L567 426L560 424L561 425L564 422L565 423L573 421L572 420L574 416L579 419L583 416L587 420L587 429z"/></g><g><path class="class-2 leaflet-clickable" stroke-linejoin="round" stroke-linecap="round" fill-rule="evenodd" stroke="#005540" stroke-opacity="1" stroke-width="0.5" fill="#00cc99" fill-opacity="0.5" d="M420 422L420 421z"/></g><g><path class="class-1 leaflet-clickable" stroke-linejoin="round" stroke-linecap="round" fill-rule="evenodd" stroke="#005540" stroke-opacity="1" stroke-width="0.5" fill="#7fd" fill-opacity="0.5" d="M604 362L606 361L614 365L624 358L625 357L623 357L625 355L627 355L632 361L630 361L631 362L629 367L631 370L629 370L629 372L626 374L626 376L619 385L622 388L619 394L617 396L611 396L602 402L601 400L597 402L597 405L599 404L604 407L604 409L602 410L605 415L604 416L609 417L606 423L604 422L600 424L595 430L593 428L587 429L587 421L583 416L579 419L574 416L572 421L565 423L564 422L561 425L557 423L557 421L556 422L553 420L551 415L549 415L541 404L537 394L545 392L547 390L546 388L548 385L549 386L551 382L556 380L563 382L570 390L569 385L567 385L571 381L570 376L580 374L579 373L582 370L577 365L578 363L576 361L572 361L571 357L567 355L569 347L571 345L572 346L571 343L574 344L573 347L577 344L574 339L575 337L581 339L581 341L578 342L579 343L577 347L579 351L579 347L582 341L585 343L582 352L583 353L587 353L589 350L591 350L590 347L592 345L594 347L593 348L597 350L595 356L591 356L587 360L585 360L587 362L586 365L582 367L582 369L586 369L587 371L582 373L584 373L585 377L595 379L597 374L600 375L604 371L605 372L607 368L603 365L604 363z"/></g><g><path class="class-3 leaflet-clickable" stroke-linejoin="round" stroke-linecap="round" fill-rule="evenodd" stroke="#005540" stroke-opacity="1" stroke-width="0.5" fill="#086" fill-opacity="0.5" d="M678 435L682 441L686 441L688 446L693 450L692 451L695 452L693 452L696 454L702 454L701 460L705 464L705 471L706 470L707 473L711 475L710 480L707 484L708 485L704 487L703 491L699 493L694 487L692 488L682 484L674 484L666 478L642 470L643 469L638 465L634 464L625 455L617 452L618 448L624 445L624 439L626 438L630 438L630 440L632 441L648 441L650 443L651 442L651 444L652 441L650 441L649 439L648 432L651 433L653 431L656 434L655 437L660 444L666 438L670 438L674 434L677 436z"/></g><g><path class="class-2 leaflet-clickable" stroke-linejoin="round" stroke-linecap="round" fill-rule="evenodd" stroke="#005540" stroke-opacity="1" stroke-width="0.5" fill="#00cc99" fill-opacity="0.5" d="M861 470L864 473L865 472L865 474L869 476L868 477L873 481L878 483L879 488L885 491L884 498L855 498L844 518L847 522L844 527L845 531L843 535L815 507L807 501L802 500L800 496L802 495L802 492L800 489L806 473L814 466L814 464L818 460L817 458L820 453L823 455L823 457L825 457L824 459L827 465L828 464L830 466L829 467L830 466L832 468L836 463L841 462L840 461L846 458L846 456L849 454L852 455L852 459L856 460L856 466L861 467L862 470z"/></g><g><path class="class-3 leaflet-clickable" stroke-linejoin="round" stroke-linecap="round" fill-rule="evenodd" stroke="#005540" stroke-opacity="1" stroke-width="0.5" fill="#086" fill-opacity="0.5" d="M872 457L872 470L861 470L862 467L856 465L857 462L853 459L853 455L849 455L842 460L841 459L841 461L839 463L835 463L835 465L832 468L830 466L829 467L830 466L828 464L826 464L824 459L825 456L823 456L824 455L821 453L818 454L818 460L814 464L812 469L810 467L812 463L810 463L806 458L801 456L802 452L800 448L816 442L829 442L832 440L832 438L837 437L840 442L844 442L845 449L848 450L849 452L857 456L857 450L860 448L860 450L866 453L872 453L872 455z"/></g><g><path class="class-0 leaflet-clickable" stroke-linejoin="round" stroke-linecap="round" fill-rule="evenodd" stroke="#005540" stroke-opacity="1" stroke-width="0.5" fill="#ddfff6" fill-opacity="0.5" d="M954 443L955 440L955 442z"/></g><g><path class="class-0 leaflet-clickable" stroke-linejoin="round" stroke-linecap="round" fill-rule="evenodd" stroke="#005540" stroke-opacity="1" stroke-width="0.5" fill="#ddfff6" fill-opacity="0.5" d="M956 435L956 437L956 435z"/></g><g><path class="class-0 leaflet-clickable" stroke-linejoin="round" stroke-linecap="round" fill-rule="evenodd" stroke="#005540" stroke-opacity="1" stroke-width="0.5" fill="#ddfff6" fill-opacity="0.5" d="M968 391L962 398L962 394L964 391L969 390z"/></g><g><path class="class-0 leaflet-clickable" stroke-linejoin="round" stroke-linecap="round" fill-rule="evenodd" stroke="#005540" stroke-opacity="1" stroke-width="0.5" fill="#ddfff6" fill-opacity="0.5" d="M913 454L912 450L914 449L914 425L913 418L910 415L913 413L914 414L914 412L916 412L916 410L921 407L921 405L924 404L925 401L928 401L930 398L936 397L940 394L947 386L950 380L950 368L957 370L960 369L961 366L966 373L966 370L967 371L967 379L964 385L952 399L952 409L951 410L952 406L951 409L945 412L947 416L952 413L953 414L952 418L947 420L947 424L950 421L952 421L950 423L942 449L939 449L939 443L934 443L934 441L928 441L926 447L923 449L920 455L916 452L914 454z"/></g><g><path class="class-0 leaflet-clickable" stroke-linejoin="round" stroke-linecap="round" fill-rule="evenodd" stroke="#005540" stroke-opacity="1" stroke-width="0.5" fill="#ddfff6" fill-opacity="0.5" d="M960 365L958 367L953 368L955 366L959 366z"/></g><g><path class="class-2 leaflet-clickable" stroke-linejoin="round" stroke-linecap="round" fill-rule="evenodd" stroke="#005540" stroke-opacity="1" stroke-width="0.5" fill="#00cc99" fill-opacity="0.5" d="M950 368L950 380L947 386L936 398L930 398L924 404L922 404L921 407L919 407L920 408L914 414L913 413L910 415L907 413L903 407L903 404L900 400L898 400L894 393L891 394L886 391L885 384L887 379L897 374L923 370L927 367L932 367L935 365L950 368z"/></g><g><path class="class-2 leaflet-clickable" stroke-linejoin="round" stroke-linecap="round" fill-rule="evenodd" stroke="#005540" stroke-opacity="1" stroke-width="0.5" fill="#00cc99" fill-opacity="0.5" d="M900 341L903 342L904 344L902 346L899 343L900 341z"/></g><g><path class="class-0 leaflet-clickable" stroke-linejoin="round" stroke-linecap="round" fill-rule="evenodd" stroke="#005540" stroke-opacity="1" stroke-width="0.5" fill="#ddfff6" fill-opacity="0.5" d="M885 384L885 391L889 391L890 394L893 393L898 397L897 398L903 404L906 412L913 418L913 457L872 457L872 453L862 451L859 449L860 448L857 451L857 455L845 449L845 444L841 442L838 438L841 436L849 436L852 438L869 428L878 420L878 412L884 405L883 391L885 384z"/></g><g><path class="class-3 leaflet-clickable" stroke-linejoin="round" stroke-linecap="round" fill-rule="evenodd" stroke="#005540" stroke-opacity="1" stroke-width="0.5" fill="#086" fill-opacity="0.5" d="M806 473L800 489L802 492L801 496L803 500L797 497L787 495L775 496L770 501L766 501L756 506L755 505L752 508L743 508L734 505L731 502L717 501L707 494L700 493L704 490L703 487L708 485L707 484L710 481L710 477L712 475L707 474L706 470L705 471L705 464L701 460L702 456L706 454L707 455L709 453L713 453L716 455L718 452L717 451L716 453L715 448L720 445L722 452L729 448L734 449L741 443L742 437L748 440L753 449L761 449L762 454L760 459L764 463L767 464L773 459L775 459L776 460L774 462L778 467L783 470L782 471L801 473z"/></g><g><path class="class-3 leaflet-clickable" stroke-linejoin="round" stroke-linecap="round" fill-rule="evenodd" stroke="#005540" stroke-opacity="1" stroke-width="0.5" fill="#086" fill-opacity="0.5" d="M697 417L696 414L702 414L705 412L704 411L710 411L715 415L715 417L717 417L720 420L719 422L716 421L714 424L711 423L708 426L701 420L700 417L698 418z"/></g><g><path class="class-0 leaflet-clickable" stroke-linejoin="round" stroke-linecap="round" fill-rule="evenodd" stroke="#005540" stroke-opacity="1" stroke-width="0.5" fill="#ddfff6" fill-opacity="0.5" d="M690 427L686 427L681 423L686 414L690 421L690 426z"/></g><g><path class="class-0 leaflet-clickable" stroke-linejoin="round" stroke-linecap="round" fill-rule="evenodd" stroke="#005540" stroke-opacity="1" stroke-width="0.5" fill="#ddfff6" fill-opacity="0.5" d="M670 398L675 401L678 400L678 407L681 409L680 410L684 407L684 405L689 405L689 403L690 409L692 407L695 407L698 410L696 414L698 418L698 428L693 430L690 427L690 421L688 419L687 414L681 421L683 425L682 430L679 431L680 433L677 436L673 434L674 435L672 435L670 438L666 438L660 444L656 439L657 438L655 437L656 434L653 431L662 418L660 412L663 411L663 403L667 403L667 399L669 398z"/></g><g><path class="class-3 leaflet-clickable" stroke-linejoin="round" stroke-linecap="round" fill-rule="evenodd" stroke="#005540" stroke-opacity="1" stroke-width="0.5" fill="#086" fill-opacity="0.5" d="M672 368L671 371L672 373L674 373L670 376L666 375L667 376L665 382L656 382L653 385L655 393L659 398L657 402L658 405L645 406L642 402L640 402L640 404L636 404L634 402L634 400L636 399L633 398L633 396L631 396L628 399L622 399L622 397L619 394L622 391L619 384L622 382L626 374L629 373L628 370L630 370L629 367L631 363L630 362L632 360L638 360L640 362L642 361L650 367L656 367L657 363L659 363L669 369L671 368z"/></g><g><path class="class-1 leaflet-clickable" stroke-linejoin="round" stroke-linecap="round" fill-rule="evenodd" stroke="#005540" stroke-opacity="1" stroke-width="0.5" fill="#7fd" fill-opacity="0.5" d="M688 373L687 376L683 378L682 376L677 386L678 388L670 391L670 398L668 397L668 402L664 404L661 401L661 398L659 398L655 394L653 385L656 382L664 382L665 379L666 380L666 375L672 375L674 373L671 372L673 366L680 370L685 364L687 373z"/></g><g><path class="class-2 leaflet-clickable" stroke-linejoin="round" stroke-linecap="round" fill-rule="evenodd" stroke="#005540" stroke-opacity="1" stroke-width="0.5" fill="#00cc99" fill-opacity="0.5" d="M664 325L666 329L664 331L666 335L664 337L669 337L677 341L678 337L686 346L699 346L705 350L699 357L701 357L701 361L697 365L700 368L700 370L696 372L698 372L697 376L693 376L690 372L687 373L685 364L680 370L678 370L674 366L672 366L672 368L669 369L660 363L658 363L656 367L652 368L648 366L645 362L632 360L636 355L636 351L634 348L637 344L635 339L636 338L633 337L631 341L630 340L629 343L626 344L624 342L624 339L622 340L617 335L615 330L616 328L614 325L616 323L614 323L616 320L618 322L626 320L639 308L639 302L642 301L643 296L645 299L650 295L653 296L652 301L655 303L655 326L658 327L658 324L659 325L660 323L662 323L661 325L663 325z"/></g><g><path class="class-1 leaflet-clickable" stroke-linejoin="round" stroke-linecap="round" fill-rule="evenodd" stroke="#005540" stroke-opacity="1" stroke-width="0.5" fill="#7fd" fill-opacity="0.5" d="M670 211L666 215L662 210L658 213L657 220L651 222L647 226L648 229L654 229L654 235L652 239L651 240L649 237L639 247L648 258L647 261L651 267L654 268L652 268L656 271L656 273L661 273L661 276L650 275L648 277L648 281L650 283L648 285L647 292L645 293L637 286L631 288L629 286L630 285L616 278L610 278L611 281L606 279L601 288L592 282L593 281L587 275L587 273L589 271L590 272L587 268L591 262L590 252L592 249L590 241L582 238L582 236L579 233L581 230L577 210L578 209L576 209L576 206L578 206L578 203L584 192L583 191L591 179L595 180L596 177L600 173L601 174L600 172L602 170L603 164L607 159L611 159L614 156L625 159L633 158L635 162L637 162L637 164L638 163L638 165L651 176L655 188L659 193L658 194L670 210z"/></g><g><path class="class-0 leaflet-clickable" stroke-linejoin="round" stroke-linecap="round" fill-rule="evenodd" stroke="#005540" stroke-opacity="1" stroke-width="0.5" fill="#ddfff6" fill-opacity="0.5" d="M591 179L583 191L584 192L578 202L578 207L577 206L576 209L578 209L578 223L580 224L581 229L579 234L582 236L582 238L570 235L568 236L569 237L562 247L558 243L552 245L550 243L545 244L544 242L543 243L537 240L536 238L535 239L532 236L531 237L529 234L528 237L526 237L527 238L524 242L524 246L519 253L520 257L517 258L517 264L519 262L515 267L511 267L500 258L501 257L498 252L490 253L488 251L484 245L484 237L481 233L479 233L479 229L473 231L471 230L472 229L471 230L471 227L469 225L471 222L469 219L470 217L468 216L467 212L463 210L465 209L460 202L460 198L473 196L473 192L468 181L469 176L467 174L467 172L469 172L468 168L470 166L469 160L472 159L470 157L470 145L472 146L469 138L465 137L463 133L463 130L466 129L466 126L469 126L467 126L468 125L465 123L466 121L464 121L467 118L480 118L480 106L483 105L520 106L525 113L528 116L530 116L541 128L551 135L553 135L553 137L555 137L556 143L560 148L560 156L563 159L563 161L567 165L571 166L570 167L573 170L580 172L591 179z"/></g><g><path class="class-3 leaflet-clickable" stroke-linejoin="round" stroke-linecap="round" fill-rule="evenodd" stroke="#005540" stroke-opacity="1" stroke-width="0.5" fill="#086" fill-opacity="0.5" d="M381 186L380 188L380 186z"/></g><g><path class="class-3 leaflet-clickable" stroke-linejoin="round" stroke-linecap="round" fill-rule="evenodd" stroke="#005540" stroke-opacity="1" stroke-width="0.5" fill="#086" fill-opacity="0.5" d="M387 173L389 179L386 186L381 182L382 175L386 173z"/></g><g><path class="class-3 leaflet-clickable" stroke-linejoin="round" stroke-linecap="round" fill-rule="evenodd" stroke="#005540" stroke-opacity="1" stroke-width="0.5" fill="#086" fill-opacity="0.5" d="M332 106L334 106L333 107z"/></g><g><path class="class-3 leaflet-clickable" stroke-linejoin="round" stroke-linecap="round" fill-rule="evenodd" stroke="#005540" stroke-opacity="1" stroke-width="0.5" fill="#086" fill-opacity="0.5" d="M329 86L409 115L414 118L467 118L466 120L464 120L465 123L468 125L467 126L469 126L466 126L466 129L463 129L463 132L465 135L464 136L471 141L470 144L472 145L470 145L470 158L472 158L472 160L469 160L470 166L468 168L468 182L471 186L473 196L461 198L460 202L464 209L463 210L467 213L469 217L471 222L469 224L472 231L475 231L469 239L469 241L467 241L464 244L464 246L456 248L456 244L454 241L449 238L444 238L440 229L432 227L428 223L425 223L426 209L424 207L423 208L419 206L419 208L417 208L417 206L411 204L405 195L401 193L395 186L396 184L389 180L389 173L387 170L386 171L384 169L385 167L381 162L379 156L376 155L376 148L368 134L369 122L363 119L356 118L356 114L351 110L343 113L334 106L327 103L325 96L326 95L324 93L326 91L326 87L329 87zM420 205L420 206z"/></g><g><path class="class-0 leaflet-clickable" stroke-linejoin="round" stroke-linecap="round" fill-rule="evenodd" stroke="#005540" stroke-opacity="1" stroke-width="0.5" fill="#ddfff6" fill-opacity="0.5" d="M312 197L311 197z"/></g><g><path class="class-0 leaflet-clickable" stroke-linejoin="round" stroke-linecap="round" fill-rule="evenodd" stroke="#005540" stroke-opacity="1" stroke-width="0.5" fill="#ddfff6" fill-opacity="0.5" d="M320 195L322 201L321 204L317 202L320 199L320 196z"/></g><g><path class="class-0 leaflet-clickable" stroke-linejoin="round" stroke-linecap="round" fill-rule="evenodd" stroke="#005540" stroke-opacity="1" stroke-width="0.5" fill="#ddfff6" fill-opacity="0.5" d="M373 187L376 189L375 190L374 188z"/></g><g><path class="class-0 leaflet-clickable" stroke-linejoin="round" stroke-linecap="round" fill-rule="evenodd" stroke="#005540" stroke-opacity="1" stroke-width="0.5" fill="#ddfff6" fill-opacity="0.5" d="M359 176L359 177z"/></g><g><path class="class-0 leaflet-clickable" stroke-linejoin="round" stroke-linecap="round" fill-rule="evenodd" stroke="#005540" stroke-opacity="1" stroke-width="0.5" fill="#ddfff6" fill-opacity="0.5" d="M359 165L362 167L362 170L364 172L367 171L367 179L357 168L358 165z"/></g><g><path class="class-0 leaflet-clickable" stroke-linejoin="round" stroke-linecap="round" fill-rule="evenodd" stroke="#005540" stroke-opacity="1" stroke-width="0.5" fill="#ddfff6" fill-opacity="0.5" d="M249 174L251 177L250 182L248 177L249 174z"/></g><g><path class="class-0 leaflet-clickable" stroke-linejoin="round" stroke-linecap="round" fill-rule="evenodd" stroke="#005540" stroke-opacity="1" stroke-width="0.5" fill="#ddfff6" fill-opacity="0.5" d="M338 153L338 154z"/></g><g><path class="class-0 leaflet-clickable" stroke-linejoin="round" stroke-linecap="round" fill-rule="evenodd" stroke="#005540" stroke-opacity="1" stroke-width="0.5" fill="#ddfff6" fill-opacity="0.5" d="M331 112L331 112z"/></g><g><path class="class-0 leaflet-clickable" stroke-linejoin="round" stroke-linecap="round" fill-rule="evenodd" stroke="#005540" stroke-opacity="1" stroke-width="0.5" fill="#ddfff6" fill-opacity="0.5" d="M331 105L333 107L332 108L330 108L330 105z"/></g><g><path class="class-0 leaflet-clickable" stroke-linejoin="round" stroke-linecap="round" fill-rule="evenodd" stroke="#005540" stroke-opacity="1" stroke-width="0.5" fill="#ddfff6" fill-opacity="0.5" d="M329 86L326 88L324 93L326 95L326 102L329 103L330 105L330 110L328 113L328 123L332 129L332 137L334 142L333 149L339 157L339 159L342 159L356 172L359 182L361 180L363 184L366 184L368 191L374 195L373 197L375 199L375 205L343 205L346 201L345 198L347 194L345 190L340 186L340 184L337 181L335 181L334 177L331 176L331 174L309 159L310 157L307 153L307 146L301 140L302 134L296 127L295 128L294 119L287 112L288 109L286 106L287 107L288 104L282 99L282 96L277 88L277 85L331 80L329 86z"/></g><g><path class="class-1 leaflet-clickable" stroke-linejoin="round" stroke-linecap="round" fill-rule="evenodd" stroke="#005540" stroke-opacity="1" stroke-width="0.5" fill="#7fd" fill-opacity="0.5" d="M443 302L441 302L441 297L443 301z"/></g><g><path class="class-1 leaflet-clickable" stroke-linejoin="round" stroke-linecap="round" fill-rule="evenodd" stroke="#005540" stroke-opacity="1" stroke-width="0.5" fill="#7fd" fill-opacity="0.5" d="M431 293L431 296L430 293z"/></g><g><path class="class-1 leaflet-clickable" stroke-linejoin="round" stroke-linecap="round" fill-rule="evenodd" stroke="#005540" stroke-opacity="1" stroke-width="0.5" fill="#7fd" fill-opacity="0.5" d="M430 291L430 292z"/></g><g><path class="class-1 leaflet-clickable" stroke-linejoin="round" stroke-linecap="round" fill-rule="evenodd" stroke="#005540" stroke-opacity="1" stroke-width="0.5" fill="#7fd" fill-opacity="0.5" d="M423 279L426 281L427 284L423 280z"/></g><g><path class="class-1 leaflet-clickable" stroke-linejoin="round" stroke-linecap="round" fill-rule="evenodd" stroke="#005540" stroke-opacity="1" stroke-width="0.5" fill="#7fd" fill-opacity="0.5" d="M423 273L422 275L423 273z"/></g><g><path class="class-1 leaflet-clickable" stroke-linejoin="round" stroke-linecap="round" fill-rule="evenodd" stroke="#005540" stroke-opacity="1" stroke-width="0.5" fill="#7fd" fill-opacity="0.5" d="M421 263L422 266L421 264z"/></g><g><path class="class-1 leaflet-clickable" stroke-linejoin="round" stroke-linecap="round" fill-rule="evenodd" stroke="#005540" stroke-opacity="1" stroke-width="0.5" fill="#7fd" fill-opacity="0.5" d="M415 263L415 265L415 263z"/></g><g><path class="class-1 leaflet-clickable" stroke-linejoin="round" stroke-linecap="round" fill-rule="evenodd" stroke="#005540" stroke-opacity="1" stroke-width="0.5" fill="#7fd" fill-opacity="0.5" d="M415 254L415 256L413 256L411 260L412 261L411 258L412 255L414 255z"/></g><g><path class="class-1 leaflet-clickable" stroke-linejoin="round" stroke-linecap="round" fill-rule="evenodd" stroke="#005540" stroke-opacity="1" stroke-width="0.5" fill="#7fd" fill-opacity="0.5" d="M410 252L410 252z"/></g><g><path class="class-1 leaflet-clickable" stroke-linejoin="round" stroke-linecap="round" fill-rule="evenodd" stroke="#005540" stroke-opacity="1" stroke-width="0.5" fill="#7fd" fill-opacity="0.5" d="M392 224L392 226L391 224z"/></g><g><path class="class-1 leaflet-clickable" stroke-linejoin="round" stroke-linecap="round" fill-rule="evenodd" stroke="#005540" stroke-opacity="1" stroke-width="0.5" fill="#7fd" fill-opacity="0.5" d="M395 219L394 219z"/></g><g><path class="class-1 leaflet-clickable" stroke-linejoin="round" stroke-linecap="round" fill-rule="evenodd" stroke="#005540" stroke-opacity="1" stroke-width="0.5" fill="#7fd" fill-opacity="0.5" d="M321 208L321 208z"/></g><g><path class="class-1 leaflet-clickable" stroke-linejoin="round" stroke-linecap="round" fill-rule="evenodd" stroke="#005540" stroke-opacity="1" stroke-width="0.5" fill="#7fd" fill-opacity="0.5" d="M343 205L376 205L378 212L386 218L389 224L388 225L395 229L393 230L393 232L395 234L397 233L400 235L403 241L406 243L405 244L409 254L409 262L414 268L416 268L417 274L424 285L422 293L425 300L431 302L431 298L434 298L439 302L439 305L443 306L443 308L446 311L446 314L451 317L452 324L448 329L439 334L436 330L434 320L430 316L426 314L414 302L404 297L399 298L389 290L389 287L386 286L391 274L391 261L385 250L378 248L363 236L361 235L358 238L351 231L347 231L344 227L340 227L337 224L336 220L323 209L324 208L336 211L342 208L343 206z"/></g><g><path class="class-2 leaflet-clickable" stroke-linejoin="round" stroke-linecap="round" fill-rule="evenodd" stroke="#005540" stroke-opacity="1" stroke-width="0.5" fill="#00cc99" fill-opacity="0.5" d="M456 248L460 248L465 244L466 241L470 239L474 229L480 230L479 233L481 233L484 236L484 245L490 253L499 253L501 256L500 258L506 262L506 264L508 264L505 267L503 267L504 270L502 271L504 275L504 280L506 280L509 286L514 289L517 295L516 296L519 299L522 299L522 297L528 299L530 305L533 308L531 308L532 316L535 317L537 321L536 322L538 324L538 328L544 329L541 333L541 340L542 339L543 342L542 343L538 341L537 344L519 325L518 321L512 315L507 307L489 294L473 274L460 269L457 265L453 265L451 257L456 248z"/></g><g><path class="class-1 leaflet-clickable" stroke-linejoin="round" stroke-linecap="round" fill-rule="evenodd" stroke="#005540" stroke-opacity="1" stroke-width="0.5" fill="#7fd" fill-opacity="0.5" d="M582 238L590 241L592 249L590 252L591 261L587 268L591 272L588 272L587 275L593 281L592 282L599 287L601 287L606 279L610 294L609 296L606 297L602 297L601 295L591 295L579 306L580 315L578 315L578 317L575 319L572 326L571 331L573 336L569 337L569 344L564 347L560 342L558 342L558 340L556 340L554 343L552 341L551 339L555 337L552 333L553 332L545 332L543 328L540 329L538 327L536 322L537 321L534 316L532 317L531 308L533 309L531 307L530 302L525 297L522 297L522 299L518 299L514 289L504 280L502 271L504 269L503 268L508 265L507 264L510 267L514 267L519 263L517 264L517 258L520 257L519 254L524 246L526 236L527 237L529 234L531 237L532 236L535 239L536 238L542 243L550 243L551 245L557 243L562 247L570 235L574 237L579 237z"/></g><g><path class="class-2 leaflet-clickable" stroke-linejoin="round" stroke-linecap="round" fill-rule="evenodd" stroke="#005540" stroke-opacity="1" stroke-width="0.5" fill="#00cc99" fill-opacity="0.5" d="M648 292L650 295L645 299L643 297L642 301L640 302L639 308L634 313L626 320L621 322L618 322L616 320L614 323L616 323L614 325L618 336L622 340L624 339L624 342L626 344L629 343L633 337L636 338L635 339L637 343L635 344L634 348L636 350L636 355L633 359L632 360L631 358L624 355L620 352L620 348L619 349L614 345L612 347L606 348L606 352L601 359L604 363L604 366L607 368L606 371L604 371L600 375L597 374L597 378L595 379L591 379L584 376L582 372L586 371L586 369L582 369L582 367L586 365L587 362L585 360L595 355L597 350L595 348L594 349L592 345L590 347L591 350L589 350L588 353L582 352L585 349L585 344L584 342L582 342L580 343L579 351L577 347L579 343L578 342L581 341L581 339L578 337L574 338L577 343L574 347L574 343L572 343L570 347L568 346L569 338L573 336L571 331L574 319L579 315L580 316L579 306L583 302L585 302L585 299L587 299L589 295L601 295L604 297L609 296L610 291L606 283L606 280L611 281L610 278L619 279L624 281L626 284L630 285L629 286L631 288L637 286L640 288L641 291L645 293L648 292z"/></g><g><path class="class-0 leaflet-clickable" stroke-linejoin="round" stroke-linecap="round" fill-rule="evenodd" stroke="#005540" stroke-opacity="1" stroke-width="0.5" fill="#ddfff6" fill-opacity="0.5" d="M670 211L673 213L668 216L668 218L672 219L674 228L672 233L676 234L674 238L680 241L679 247L683 250L685 249L686 255L689 253L691 257L693 255L699 255L699 269L702 269L692 279L688 278L685 281L685 287L682 286L678 288L677 291L673 292L673 294L675 294L676 296L674 303L679 309L676 312L670 312L667 317L668 322L665 321L663 323L665 323L664 325L661 325L662 323L660 323L659 325L658 324L659 327L656 326L656 313L654 310L655 304L652 302L653 297L648 292L648 285L650 283L648 282L648 277L650 275L661 276L661 274L657 273L652 268L654 268L649 265L646 254L639 247L649 237L651 240L652 239L654 235L654 229L648 229L647 226L651 222L657 220L658 213L662 210L666 214L668 213z"/></g><g><path class="class-1 leaflet-clickable" stroke-linejoin="round" stroke-linecap="round" fill-rule="evenodd" stroke="#005540" stroke-opacity="1" stroke-width="0.5" fill="#7fd" fill-opacity="0.5" d="M717 349L715 351L707 344L705 344L704 346L697 345L695 347L688 345L686 346L678 337L677 341L674 339L670 339L669 337L664 337L666 335L664 332L666 330L664 328L665 323L663 323L665 321L668 322L667 317L670 312L676 312L678 309L678 307L674 303L676 296L673 294L673 292L677 291L678 288L682 286L684 287L686 283L685 281L688 278L691 279L702 270L699 269L699 255L693 255L691 257L689 253L686 255L685 249L683 250L679 247L680 241L674 239L676 234L672 233L674 229L672 219L668 218L668 216L673 213L677 216L679 230L683 234L687 246L689 245L691 247L696 248L696 250L702 250L707 255L720 255L725 260L727 259L726 258L731 257L731 263L724 276L719 294L717 336L715 339L716 348z"/></g><g><path class="class-3 leaflet-clickable" stroke-linejoin="round" stroke-linecap="round" fill-rule="evenodd" stroke="#005540" stroke-opacity="1" stroke-width="0.5" fill="#086" fill-opacity="0.5" d="M717 349L719 357L727 366L725 372L726 378L733 392L740 398L747 407L750 419L755 424L755 426L758 427L760 432L765 435L774 435L784 440L791 449L800 447L801 456L809 460L811 463L811 470L809 470L806 473L782 472L783 470L778 467L774 462L776 460L775 459L773 459L767 464L764 464L760 459L762 454L761 449L753 449L754 448L753 449L751 447L746 438L742 437L741 444L739 440L735 439L733 441L730 437L727 436L729 431L728 428L735 422L726 419L727 418L725 416L725 414L728 411L728 407L732 401L725 398L722 402L718 400L719 397L717 395L718 393L719 394L722 392L719 391L717 384L715 384L714 390L712 391L710 388L709 391L704 395L699 396L700 395L698 392L701 390L702 387L700 388L704 383L704 385L706 385L707 380L709 378L705 376L706 375L703 376L700 373L701 370L700 371L697 365L702 361L699 356L701 357L702 353L705 350L697 346L703 346L706 344L712 347L715 351L716 349z"/></g><g><path class="class-3 leaflet-clickable" stroke-linejoin="round" stroke-linecap="round" fill-rule="evenodd" stroke="#005540" stroke-opacity="1" stroke-width="0.5" fill="#086" fill-opacity="0.5" d="M741 443L737 447L732 449L729 448L724 452L722 452L720 446L716 446L716 453L718 451L719 452L717 452L714 455L712 453L708 453L708 455L703 456L702 453L698 454L688 446L688 444L691 441L696 442L695 434L698 428L697 417L699 417L708 426L711 423L714 425L716 422L720 421L717 417L714 416L715 415L713 413L711 413L711 411L706 412L707 411L705 408L710 401L708 398L705 398L708 397L714 390L715 384L718 385L718 389L722 392L717 395L719 397L718 400L722 402L725 398L731 401L725 416L727 418L726 419L735 422L733 424L734 425L730 424L727 437L728 436L733 441L737 439L741 443z"/></g><g><path class="class-2 leaflet-clickable" stroke-linejoin="round" stroke-linecap="round" fill-rule="evenodd" stroke="#005540" stroke-opacity="1" stroke-width="0.5" fill="#00cc99" fill-opacity="0.5" d="M712 392L708 397L705 398L709 399L709 401L705 407L707 410L704 411L705 412L703 414L697 414L698 409L695 407L691 407L690 409L689 406L691 404L689 403L689 405L686 404L684 408L682 408L681 410L681 408L678 405L678 400L675 401L670 398L670 391L675 390L677 388L681 379L680 378L688 376L690 372L691 375L697 376L697 372L701 370L700 373L703 376L706 375L705 376L707 376L709 379L706 383L707 385L702 384L699 388L701 387L699 396L704 395L710 389L712 391z"/></g></svg>