<svg xmlns="http://www.w3.org/2000/svg" class="leaflet-zoom-animated" style="transform: translate(-31px, -10px);" width="1966" height="594" viewBox="-31 -10 1966 594"><g><path class="class-0 leaflet-clickable" stroke-linejoin="round" stroke-linecap="round" fill-rule="evenodd" stroke="#005540" stroke-opacity="1" stroke-width="0.5" fill="#00cc99" fill-opacity="0.5" d="M650 444L650 444z"/></g><g><path class="class-0 leaflet-clickable" stroke-linejoin="round" stroke-linecap="round" fill-rule="evenodd" stroke="#005540" stroke-opacity="1" stroke-width="0.5" fill="#00cc99" fill-opacity="0.5" d="M1273 443L1274 440L1273 443z"/></g><g><path class="class-0 leaflet-clickable" stroke-linejoin="round" stroke-linecap="round" fill-rule="evenodd" stroke="#005540" stroke-opacity="1" stroke-width="0.5" fill="#00cc99" fill-opacity="0.5" d="M1275 435L1275 437L1275 435z"/></g><g><path class="class-0 leaflet-clickable" stroke-linejoin="round" stroke-linecap="round" fill-rule="evenodd" stroke="#005540" stroke-opacity="1" stroke-width="0.5" fill="#00cc99" fill-opacity="0.5" d="M735 432L737 434L736 435L734 433L735 432z"/></g><g><path class="class-0 leaflet-clickable" stroke-linejoin="round" stroke-linecap="round" fill-rule="evenodd" stroke="#005540" stroke-opacity="1" stroke-width="0.5" fill="#00cc99" fill-opacity="0.5" d="M739 422L739 421z"/></g><g><path class="class-0 leaflet-clickable" stroke-linejoin="round" stroke-linecap="round" fill-rule="evenodd" stroke="#005540" stroke-opacity="1" stroke-width="0.5" fill="#00cc99" fill-opacity="0.5" d="M1287 390L1287 392L1281 398L1281 394L1283 391L1288 390z"/></g><g><path class="class-0 leaflet-clickable" stroke-linejoin="round" stroke-linecap="round" fill-rule="evenodd" stroke="#005540" stroke-opacity="1" stroke-width="0.5" fill="#00cc99" fill-opacity="0.5" d="M1203 388L1202 388z"/></g><g><path class="class-0 leaflet-clickable" stroke-linejoin="round" stroke-linecap="round" fill-rule="evenodd" stroke="#005540" stroke-opacity="1" stroke-width="0.5" fill="#00cc99" fill-opacity="0.5" d="M1161 380L1160 380z"/></g><g><path class="class-0 leaflet-clickable" stroke-linejoin="round" stroke-linecap="round" fill-rule="evenodd" stroke="#005540" stroke-opacity="1" stroke-width="0.5" fill="#00cc99" fill-opacity="0.5" d="M1287 374L1288 375L1287 374z"/></g><g><path class="class-0 leaflet-clickable" stroke-linejoin="round" stroke-linecap="round" fill-rule="evenodd" stroke="#005540" stroke-opacity="1" stroke-width="0.5" fill="#00cc99" fill-opacity="0.5" d="M844 371L843 371z"/></g><g><path class="class-0 leaflet-clickable" stroke-linejoin="round" stroke-linecap="round" fill-rule="evenodd" stroke="#005540" stroke-opacity="1" stroke-width="0.5" fill="#00cc99" fill-opacity="0.5" d="M839 368L841 369L840 370L838 368z"/></g><g><path class="class-0 leaflet-clickable" stroke-linejoin="round" stroke-linecap="round" fill-rule="evenodd" stroke="#005540" stroke-opacity="1" stroke-width="0.5" fill="#00cc99" fill-opacity="0.5" d="M1279 365L1277 367L1272 368L1274 366L1277 367L1279 365z"/></g><g><path class="class-0 leaflet-clickable" stroke-linejoin="round" stroke-linecap="round" fill-rule="evenodd" stroke="#005540" stroke-opacity="1" stroke-width="0.5" fill="#00cc99" fill-opacity="0.5" d="M834 363L836 363L837 366L835 366L834 364z"/></g><g><path class="class-0 leaflet-clickable" stroke-linejoin="round" stroke-linecap="round" fill-rule="evenodd" stroke="#005540" stroke-opacity="1" stroke-width="0.5" fill="#00cc99" fill-opacity="0.5" d="M834 361L833 361z"/></g><g><path class="class-0 leaflet-clickable" stroke-linejoin="round" stroke-linecap="round" fill-rule="evenodd" stroke="#005540" stroke-opacity="1" stroke-width="0.5" fill="#00cc99" fill-opacity="0.5" d="M1218 344L1218 343z"/></g><g><path class="class-0 leaflet-clickable" stroke-linejoin="round" stroke-linecap="round" fill-rule="evenodd" stroke="#005540" stroke-opacity="1" stroke-width="0.5" fill="#00cc99" fill-opacity="0.5" d="M1219 341L1223 344L1221 346L1218 343L1219 341z"/></g><g><path class="class-0 leaflet-clickable" stroke-linejoin="round" stroke-linecap="round" fill-rule="evenodd" stroke="#005540" stroke-opacity="1" stroke-width="0.5" fill="#00cc99" fill-opacity="0.5" d="M762 302L760 302L760 297L762 302z"/></g><g><path class="class-0 leaflet-clickable" stroke-linejoin="round" stroke-linecap="round" fill-rule="evenodd" stroke="#005540" stroke-opacity="1" stroke-width="0.5" fill="#00cc99" fill-opacity="0.5" d="M750 293L751 296L749 294L750 293z"/></g><g><path class="class-0 leaflet-clickable" stroke-linejoin="round" stroke-linecap="round" fill-rule="evenodd" stroke="#005540" stroke-opacity="1" stroke-width="0.5" fill="#00cc99" fill-opacity="0.5" d="M749 291L749 292z"/></g><g><path class="class-0 leaflet-clickable" stroke-linejoin="round" stroke-linecap="round" fill-rule="evenodd" stroke="#005540" stroke-opacity="1" stroke-width="0.5" fill="#00cc99" fill-opacity="0.5" d="M745 285L745 285z"/></g><g><path class="class-0 leaflet-clickable" stroke-linejoin="round" stroke-linecap="round" fill-rule="evenodd" stroke="#005540" stroke-opacity="1" stroke-width="0.5" fill="#00cc99" fill-opacity="0.5" d="M742 279L746 284L742 281L742 279z"/></g><g><path class="class-0 leaflet-clickable" stroke-linejoin="round" stroke-linecap="round" fill-rule="evenodd" stroke="#005540" stroke-opacity="1" stroke-width="0.5" fill="#00cc99" fill-opacity="0.5" d="M742 273L741 275L742 273z"/></g><g><path class="class-0 leaflet-clickable" stroke-linejoin="round" stroke-linecap="round" fill-rule="evenodd" stroke="#005540" stroke-opacity="1" stroke-width="0.5" fill="#00cc99" fill-opacity="0.5" d="M740 263L741 266L740 264z"/></g><g><path class="class-0 leaflet-clickable" stroke-linejoin="round" stroke-linecap="round" fill-rule="evenodd" stroke="#005540" stroke-opacity="1" stroke-width="0.5" fill="#00cc99" fill-opacity="0.5" d="M734 263L734 265L734 263z"/></g><g><path class="class-0 leaflet-clickable" stroke-linejoin="round" stroke-linecap="round" fill-rule="evenodd" stroke="#005540" stroke-opacity="1" stroke-width="0.5" fill="#00cc99" fill-opacity="0.5" d="M729 261L729 261z"/></g><g><path class="class-0 leaflet-clickable" stroke-linejoin="round" stroke-linecap="round" fill-rule="evenodd" stroke="#005540" stroke-opacity="1" stroke-width="0.5" fill="#00cc99" fill-opacity="0.5" d="M734 254L734 256L732 256L730 260L731 261L730 258L731 255L733 255z"/></g><g><path class="class-0 leaflet-clickable" stroke-linejoin="round" stroke-linecap="round" fill-rule="evenodd" stroke="#005540" stroke-opacity="1" stroke-width="0.5" fill="#00cc99" fill-opacity="0.5" d="M729 252L729 252z"/></g><g><path class="class-0 leaflet-clickable" stroke-linejoin="round" stroke-linecap="round" fill-rule="evenodd" stroke="#005540" stroke-opacity="1" stroke-width="0.5" fill="#00cc99" fill-opacity="0.5" d="M711 224L711 226L710 224z"/></g><g><path class="class-0 leaflet-clickable" stroke-linejoin="round" stroke-linecap="round" fill-rule="evenodd" stroke="#005540" stroke-opacity="1" stroke-width="0.5" fill="#00cc99" fill-opacity="0.5" d="M714 219L713 219z"/></g><g><path class="class-0 leaflet-clickable" stroke-linejoin="round" stroke-linecap="round" fill-rule="evenodd" stroke="#005540" stroke-opacity="1" stroke-width="0.5" fill="#00cc99" fill-opacity="0.5" d="M640 208L639 208z"/></g><g><path class="class-0 leaflet-clickable" stroke-linejoin="round" stroke-linecap="round" fill-rule="evenodd" stroke="#005540" stroke-opacity="1" stroke-width="0.5" fill="#00cc99" fill-opacity="0.5" d="M631 197L631 197z"/></g><g><path class="class-0 leaflet-clickable" stroke-linejoin="round" stroke-linecap="round" fill-rule="evenodd" stroke="#005540" stroke-opacity="1" stroke-width="0.5" fill="#00cc99" fill-opacity="0.5" d="M639 195L641 201L640 204L636 202L639 199L639 195z"/></g><g><path class="class-0 leaflet-clickable" stroke-linejoin="round" stroke-linecap="round" fill-rule="evenodd" stroke="#005540" stroke-opacity="1" stroke-width="0.5" fill="#00cc99" fill-opacity="0.5" d="M692 187L695 189L694 190L693 188z"/></g><g><path class="class-0 leaflet-clickable" stroke-linejoin="round" stroke-linecap="round" fill-rule="evenodd" stroke="#005540" stroke-opacity="1" stroke-width="0.5" fill="#00cc99" fill-opacity="0.5" d="M691 187L691 187z"/></g><g><path class="class-0 leaflet-clickable" stroke-linejoin="round" stroke-linecap="round" fill-rule="evenodd" stroke="#005540" stroke-opacity="1" stroke-width="0.5" fill="#00cc99" fill-opacity="0.5" d="M700 186L699 188L699 186z"/></g><g><path class="class-0 leaflet-clickable" stroke-linejoin="round" stroke-linecap="round" fill-rule="evenodd" stroke="#005540" stroke-opacity="1" stroke-width="0.5" fill="#00cc99" fill-opacity="0.5" d="M678 176L678 176z"/></g><g><path class="class-0 leaflet-clickable" stroke-linejoin="round" stroke-linecap="round" fill-rule="evenodd" stroke="#005540" stroke-opacity="1" stroke-width="0.5" fill="#00cc99" fill-opacity="0.5" d="M568 175L570 177L569 182L567 178L569 174z"/></g><g><path class="class-0 leaflet-clickable" stroke-linejoin="round" stroke-linecap="round" fill-rule="evenodd" stroke="#005540" stroke-opacity="1" stroke-width="0.5" fill="#00cc99" fill-opacity="0.5" d="M706 173L708 179L706 184L707 185L705 186L700 182L701 175L705 173z"/></g><g><path class="class-0 leaflet-clickable" stroke-linejoin="round" stroke-linecap="round" fill-rule="evenodd" stroke="#005540" stroke-opacity="1" stroke-width="0.5" fill="#00cc99" fill-opacity="0.5" d="M678 165L681 167L681 170L683 172L686 171L686 179L676 168L678 165z"/></g><g><path class="class-0 leaflet-clickable" stroke-linejoin="round" stroke-linecap="round" fill-rule="evenodd" stroke="#005540" stroke-opacity="1" stroke-width="0.5" fill="#00cc99" fill-opacity="0.5" d="M657 153L658 154L657 153z"/></g><g><path class="class-0 leaflet-clickable" stroke-linejoin="round" stroke-linecap="round" fill-rule="evenodd" stroke="#005540" stroke-opacity="1" stroke-width="0.5" fill="#00cc99" fill-opacity="0.5" d="M650 112L650 112z"/></g><g><path class="class-0 leaflet-clickable" stroke-linejoin="round" stroke-linecap="round" fill-rule="evenodd" stroke="#005540" stroke-opacity="1" stroke-width="0.5" fill="#00cc99" fill-opacity="0.5" d="M652 106L653 107L652 106z"/></g><g><path class="class-0 leaflet-clickable" stroke-linejoin="round" stroke-linecap="round" fill-rule="evenodd" stroke="#005540" stroke-opacity="1" stroke-width="0.5" fill="#00cc99" fill-opacity="0.5" d="M650 105L652 107L651 108L649 108L649 105z"/></g><g><path class="class-0 leaflet-clickable" stroke-linejoin="round" stroke-linecap="round" fill-rule="evenodd" stroke="#005540" stroke-opacity="1" stroke-width="0.5" fill="#00cc99" fill-opacity="0.5" d="M649 83L649 87L728 115L733 118L799 118L799 106L802 105L839 106L844 113L847 116L849 116L860 128L870 135L872 135L872 137L874 137L875 142L879 148L879 156L886 165L890 166L889 167L892 170L899 172L907 178L914 180L915 177L919 173L920 174L919 172L921 170L922 164L926 159L930 159L933 156L942 159L952 158L954 162L956 162L956 164L957 163L957 165L970 176L974 188L978 193L977 194L980 199L985 203L988 209L996 216L998 230L1002 234L1006 246L1008 245L1010 247L1015 248L1015 250L1021 250L1026 255L1039 255L1044 260L1046 259L1045 258L1050 257L1050 263L1043 276L1038 294L1036 336L1034 339L1034 346L1040 360L1046 366L1044 374L1052 392L1059 398L1067 409L1069 419L1074 424L1074 426L1077 427L1080 433L1084 435L1093 435L1099 439L1103 439L1108 448L1110 449L1118 448L1135 442L1148 442L1151 440L1151 438L1160 436L1168 436L1171 438L1188 428L1197 420L1197 412L1203 405L1203 387L1205 381L1211 376L1224 372L1242 370L1246 367L1254 365L1260 365L1274 370L1279 369L1280 366L1285 373L1286 370L1285 373L1287 377L1283 385L1271 399L1271 409L1270 410L1271 406L1271 408L1268 409L1266 413L1264 413L1267 416L1271 414L1272 415L1271 418L1266 420L1266 424L1269 421L1271 421L1269 423L1269 427L1267 429L1261 449L1258 449L1258 443L1253 443L1253 441L1247 441L1245 447L1242 449L1239 455L1235 452L1232 457L1191 457L1191 470L1180 470L1183 473L1184 472L1184 474L1188 476L1187 477L1189 479L1197 483L1198 488L1204 491L1203 498L1174 498L1163 518L1166 522L1163 527L1164 531L1162 535L1134 507L1126 501L1116 497L1106 495L1094 496L1089 501L1085 501L1075 506L1074 505L1071 508L1062 508L1053 505L1050 502L1036 501L1026 494L1019 493L1013 487L1011 488L1001 484L993 484L985 478L961 470L962 469L957 465L953 464L941 453L934 454L908 446L896 432L872 420L870 415L868 415L860 404L856 394L864 392L866 390L864 386L859 386L867 376L867 367L866 368L862 365L857 357L857 349L854 341L838 325L837 321L831 315L826 307L808 294L792 274L780 270L776 265L772 265L770 257L775 248L775 244L771 239L765 239L762 237L759 229L751 227L747 223L745 223L745 209L743 207L742 208L738 206L738 208L736 208L736 206L730 204L724 195L720 193L714 186L715 184L708 180L708 173L706 170L705 171L703 169L704 167L700 162L698 156L695 155L695 148L687 134L688 122L682 119L675 118L675 114L670 110L663 113L649 104L649 110L647 113L647 123L651 129L651 137L653 142L652 149L654 153L658 157L658 159L661 159L675 172L678 182L680 180L682 184L685 184L687 191L689 193L693 193L692 197L694 199L696 211L705 218L708 224L707 225L714 229L712 230L712 232L714 234L716 233L719 235L722 238L722 242L725 243L724 244L728 254L728 262L733 268L735 268L737 277L743 285L741 289L742 297L745 301L748 302L751 301L751 297L758 303L758 305L762 306L762 308L765 311L765 315L768 316L771 320L771 324L769 327L760 334L758 334L756 332L753 320L749 316L727 299L723 297L718 298L717 296L710 292L708 290L708 287L705 286L710 272L710 261L705 251L697 248L682 236L680 235L677 238L670 231L666 231L663 227L659 227L656 224L655 220L643 211L643 209L655 211L661 208L665 201L664 198L666 194L664 190L659 186L659 184L656 181L654 181L653 177L650 176L650 174L645 169L640 168L638 165L632 163L628 159L629 157L626 153L626 146L620 140L621 134L615 127L614 128L613 119L606 112L607 109L604 106L606 107L607 104L601 99L601 96L596 88L596 85L650 80L650 82zM739 205L739 206z"/></g></svg>