<svg xmlns="http://www.w3.org/2000/svg" class="leaflet-zoom-animated" width="1978" height="599" viewBox="-40 -12 1978 599" style="transform: translate3d(683px, -269px, 0px) scale(2);"><g><path class="class-3 leaflet-clickable" stroke-linejoin="round" stroke-linecap="round" fill-rule="evenodd" stroke="#005540" stroke-opacity="1" stroke-width="0.5" fill="#086" fill-opacity="0.5" d="M0 0"/></g><g><path class="class-3 leaflet-clickable" stroke-linejoin="round" stroke-linecap="round" fill-rule="evenodd" stroke="#005540" stroke-opacity="1" stroke-width="0.5" fill="#086" fill-opacity="0.5" d="M0 0"/></g><g><path class="class-3 leaflet-clickable" stroke-linejoin="round" stroke-linecap="round" fill-rule="evenodd" stroke="#005540" stroke-opacity="1" stroke-width="0.5" fill="#086" fill-opacity="0.5" d="M0 0"/></g><g><path class="class-3 leaflet-clickable" stroke-linejoin="round" stroke-linecap="round" fill-rule="evenodd" stroke="#005540" stroke-opacity="1" stroke-width="0.5" fill="#086" fill-opacity="0.5" d="M0 0"/></g><g><path class="class-3 leaflet-clickable" stroke-linejoin="round" stroke-linecap="round" fill-rule="evenodd" stroke="#005540" stroke-opacity="1" stroke-width="0.5" fill="#086" fill-opacity="0.5" d="M0 0"/></g><g><path class="class-3 leaflet-clickable" stroke-linejoin="round" stroke-linecap="round" fill-rule="evenodd" stroke="#005540" stroke-opacity="1" stroke-width="0.5" fill="#086" fill-opacity="0.5" d="M0 0"/></g><g><path class="class-3 leaflet-clickable" stroke-linejoin="round" stroke-linecap="round" fill-rule="evenodd" stroke="#005540" stroke-opacity="1" stroke-width="0.5" fill="#086" fill-opacity="0.5" d="M0 0"/></g><g><path class="class-3 leaflet-clickable" stroke-linejoin="round" stroke-linecap="round" fill-rule="evenodd" stroke="#005540" stroke-opacity="1" stroke-width="0.5" fill="#086" fill-opacity="0.5" d="M0 0"/></g><g><path class="class-3 leaflet-clickable" stroke-linejoin="round" stroke-linecap="round" fill-rule="evenodd" stroke="#005540" stroke-opacity="1" stroke-width="0.5" fill="#086" fill-opacity="0.5" d="M0 0"/></g><g><path class="class-3 leaflet-clickable" stroke-linejoin="round" stroke-linecap="round" fill-rule="evenodd" stroke="#005540" stroke-opacity="1" stroke-width="0.5" fill="#086" fill-opacity="0.5" d="M0 0"/></g><g><path class="class-2 leaflet-clickable" stroke-linejoin="round" stroke-linecap="round" fill-rule="evenodd" stroke="#005540" stroke-opacity="1" stroke-width="0.5" fill="#00cc99" fill-opacity="0.5" d="M0 0"/></g><g><path class="class-2 leaflet-clickable" stroke-linejoin="round" stroke-linecap="round" fill-rule="evenodd" stroke="#005540" stroke-opacity="1" stroke-width="0.5" fill="#00cc99" fill-opacity="0.5" d="M0 0"/></g><g><path class="class-2 leaflet-clickable" stroke-linejoin="round" stroke-linecap="round" fill-rule="evenodd" stroke="#005540" stroke-opacity="1" stroke-width="0.5" fill="#00cc99" fill-opacity="0.5" d="M0 0"/></g><g><path class="class-2 leaflet-clickable" stroke-linejoin="round" stroke-linecap="round" fill-rule="evenodd" stroke="#005540" stroke-opacity="1" stroke-width="0.5" fill="#00cc99" fill-opacity="0.5" d="M0 0"/></g><g><path class="class-1 leaflet-clickable" stroke-linejoin="round" stroke-linecap="round" fill-rule="evenodd" stroke="#005540" stroke-opacity="1" stroke-width="0.5" fill="#7fd" fill-opacity="0.5" d="M0 0"/></g><g><path class="class-1 leaflet-clickable" stroke-linejoin="round" stroke-linecap="round" fill-rule="evenodd" stroke="#005540" stroke-opacity="1" stroke-width="0.5" fill="#7fd" fill-opacity="0.5" d="M0 0"/></g><g><path class="class-1 leaflet-clickable" stroke-linejoin="round" stroke-linecap="round" fill-rule="evenodd" stroke="#005540" stroke-opacity="1" stroke-width="0.5" fill="#7fd" fill-opacity="0.5" d="M0 0"/></g><g><path class="class-1 leaflet-clickable" stroke-linejoin="round" stroke-linecap="round" fill-rule="evenodd" stroke="#005540" stroke-opacity="1" stroke-width="0.5" fill="#7fd" fill-opacity="0.5" d="M0 0"/></g><g><path class="class-1 leaflet-clickable" stroke-linejoin="round" stroke-linecap="round" fill-rule="evenodd" stroke="#005540" stroke-opacity="1" stroke-width="0.5" fill="#7fd" fill-opacity="0.5" d="M0 0"/></g><g><path class="class-1 leaflet-clickable" stroke-linejoin="round" stroke-linecap="round" fill-rule="evenodd" stroke="#005540" stroke-opacity="1" stroke-width="0.5" fill="#7fd" fill-opacity="0.5" d="M0 0"/></g><g><path class="class-1 leaflet-clickable" stroke-linejoin="round" stroke-linecap="round" fill-rule="evenodd" stroke="#005540" stroke-opacity="1" stroke-width="0.5" fill="#7fd" fill-opacity="0.5" d="M0 0"/></g><g><path class="class-1 leaflet-clickable" stroke-linejoin="round" stroke-linecap="round" fill-rule="evenodd" stroke="#005540" stroke-opacity="1" stroke-width="0.5" fill="#7fd" fill-opacity="0.5" d="M0 0"/></g><g><path class="class-1 leaflet-clickable" stroke-linejoin="round" stroke-linecap="round" fill-rule="evenodd" stroke="#005540" stroke-opacity="1" stroke-width="0.5" fill="#7fd" fill-opacity="0.5" d="M0 0"/></g><g><path class="class-1 leaflet-clickable" stroke-linejoin="round" stroke-linecap="round" fill-rule="evenodd" stroke="#005540" stroke-opacity="1" stroke-width="0.5" fill="#7fd" fill-opacity="0.5" d="M0 0"/></g><g><path class="class-1 leaflet-clickable" stroke-linejoin="round" stroke-linecap="round" fill-rule="evenodd" stroke="#005540" stroke-opacity="1" stroke-width="0.5" fill="#7fd" fill-opacity="0.5" d="M0 0"/></g><g><path class="class-1 leaflet-clickable" stroke-linejoin="round" stroke-linecap="round" fill-rule="evenodd" stroke="#005540" stroke-opacity="1" stroke-width="0.5" fill="#7fd" fill-opacity="0.5" d="M0 0"/></g><g><path class="class-1 leaflet-clickable" stroke-linejoin="round" stroke-linecap="round" fill-rule="evenodd" stroke="#005540" stroke-opacity="1" stroke-width="0.5" fill="#7fd" fill-opacity="0.5" d="M0 0"/></g><g><path class="class-1 leaflet-clickable" stroke-linejoin="round" stroke-linecap="round" fill-rule="evenodd" stroke="#005540" stroke-opacity="1" stroke-width="0.5" fill="#7fd" fill-opacity="0.5" d="M0 0"/></g><g><path class="class-1 leaflet-clickable" stroke-linejoin="round" stroke-linecap="round" fill-rule="evenodd" stroke="#005540" stroke-opacity="1" stroke-width="0.5" fill="#7fd" fill-opacity="0.5" d="M0 0"/></g><g><path class="class-1 leaflet-clickable" stroke-linejoin="round" stroke-linecap="round" fill-rule="evenodd" stroke="#005540" stroke-opacity="1" stroke-width="0.5" fill="#7fd" fill-opacity="0.5" d="M0 0"/></g><g><path class="class-0 leaflet-clickable" stroke-linejoin="round" stroke-linecap="round" fill-rule="evenodd" stroke="#005540" stroke-opacity="1" stroke-width="0.5" fill="#ddfff6" fill-opacity="0.5" d="M0 0"/></g><g><path class="class-0 leaflet-clickable" stroke-linejoin="round" stroke-linecap="round" fill-rule="evenodd" stroke="#005540" stroke-opacity="1" stroke-width="0.5" fill="#ddfff6" fill-opacity="0.5" d="M1689 393L1690 394L1695 391L1697 394L1701 396L1712 385L1718 386L1721 383L1723 385L1725 382L1724 380L1727 377L1720 377L1722 376L1724 370L1732 368L1737 365L1742 366L1742 360L1746 357L1746 353L1749 352L1751 347L1755 345L1753 342L1756 336L1761 327L1765 326L1758 325L1760 322L1759 320L1772 322L1773 324L1776 320L1778 323L1781 320L1785 321L1787 324L1786 326L1784 326L1784 328L1782 328L1784 336L1791 335L1790 338L1795 337L1801 345L1800 348L1803 348L1801 358L1796 361L1800 363L1808 374L1806 378L1802 381L1817 403L1817 406L1821 407L1824 412L1826 412L1830 408L1837 410L1843 409L1847 415L1850 415L1852 412L1857 411L1867 418L1869 426L1868 433L1889 450L1890 455L1894 457L1896 455L1898 456L1898 459L1895 460L1897 463L1892 467L1883 471L1879 470L1878 475L1882 477L1880 482L1875 485L1879 494L1876 493L1880 500L1884 502L1882 504L1883 521L1888 524L1893 533L1893 536L1895 534L1901 539L1901 545L1907 544L1921 559L1923 567L1927 574L1929 574L1929 577L1935 579L1934 583L1931 585L1932.3333333333333 587L1836.6666666666667 587L1822 578L1818 571L1806 564L1802 559L1801 553L1793 544L1784 526L1773 515L1771 510L1763 501L1752 495L1731 489L1721 484L1711 483L1705 477L1705 475L1698 470L1694 465L1683 461L1677 462L1673 445L1674 436L1672 431L1675 420L1684 407L1686 398L1690 394z"/></g><g><path class="class-0 leaflet-clickable" stroke-linejoin="round" stroke-linecap="round" fill-rule="evenodd" stroke="#005540" stroke-opacity="1" stroke-width="0.5" fill="#ddfff6" fill-opacity="0.5" d="M0 0"/></g><g><path class="class-0 leaflet-clickable" stroke-linejoin="round" stroke-linecap="round" fill-rule="evenodd" stroke="#005540" stroke-opacity="1" stroke-width="0.5" fill="#ddfff6" fill-opacity="0.5" d="M0 0"/></g><g><path class="class-0 leaflet-clickable" stroke-linejoin="round" stroke-linecap="round" fill-rule="evenodd" stroke="#005540" stroke-opacity="1" stroke-width="0.5" fill="#ddfff6" fill-opacity="0.5" d="M0 0"/></g><g><path class="class-0 leaflet-clickable" stroke-linejoin="round" stroke-linecap="round" fill-rule="evenodd" stroke="#005540" stroke-opacity="1" stroke-width="0.5" fill="#ddfff6" fill-opacity="0.5" d="M0 0"/></g><g><path class="class-0 leaflet-clickable" stroke-linejoin="round" stroke-linecap="round" fill-rule="evenodd" stroke="#005540" stroke-opacity="1" stroke-width="0.5" fill="#ddfff6" fill-opacity="0.5" d="M0 0"/></g><g><path class="class-0 leaflet-clickable" stroke-linejoin="round" stroke-linecap="round" fill-rule="evenodd" stroke="#005540" stroke-opacity="1" stroke-width="0.5" fill="#ddfff6" fill-opacity="0.5" d="M0 0"/></g><g><path class="class-0 leaflet-clickable" stroke-linejoin="round" stroke-linecap="round" fill-rule="evenodd" stroke="#005540" stroke-opacity="1" stroke-width="0.5" fill="#ddfff6" fill-opacity="0.5" d="M0 0"/></g><g><path class="class-2 leaflet-clickable" stroke-linejoin="round" stroke-linecap="round" fill-rule="evenodd" stroke="#005540" stroke-opacity="1" stroke-width="0.5" fill="#00cc99" fill-opacity="0.5" d="M1938 587L1932.3333333333333 587L1931 585L1934 583L1935 579L1929 577L1929 574L1927 574L1921 560L1907 545L1902 545L1900 542L1901 540L1895 534L1893 536L1893 533L1888 524L1883 521L1883 508L1881 504L1884 502L1880 500L1876 493L1879 494L1875 485L1880 482L1882 477L1878 475L1879 470L1883 471L1892 467L1897 463L1895 460L1904 462L1906 469L1924 468L1925 470L1938 457L1938 455L1935 457L1935 435L1936 431L1938 430.6666666666667z"/></g><g><path class="class-1 leaflet-clickable" stroke-linejoin="round" stroke-linecap="round" fill-rule="evenodd" stroke="#005540" stroke-opacity="1" stroke-width="0.5" fill="#7fd" fill-opacity="0.5" d="M1938 430.6666666666667L1935 435L1935 457L1938 455L1938 457L1925 470L1924 468L1906 469L1904 462L1895 460L1898 459L1898 456L1890 456L1889 450L1868 433L1869 427L1867 418L1863 415L1857 411L1852 412L1850 415L1847 415L1843 409L1837 410L1830 408L1826 412L1824 412L1821 407L1818 407L1817 403L1802 381L1806 378L1808 374L1800 363L1796 361L1801 358L1803 348L1800 348L1801 345L1795 337L1790 338L1791 335L1784 336L1783 334L1782 328L1786 326L1786 321L1781 320L1778 323L1776 320L1773 324L1772 322L1766 323L1759 320L1760 322L1758 324L1753 324L1752 319L1749 320L1748 308L1745 306L1743 302L1747 294L1750 292L1746 285L1746 280L1743 276L1744 269L1736 263L1734 252L1728 248L1722 248L1720 244L1724 238L1720 236L1719 228L1716 224L1710 220L1706 208L1706 193L1711 193L1713 195L1732 195L1731 194L1739 192L1741 190L1746 190L1746 187L1749 186L1753 189L1756 187L1756 184L1758 185L1759 183L1757 177L1758 174L1756 174L1758 170L1752 160L1750 145L1745 142L1745 139L1747 139L1746 137L1744 138L1741 131L1739 130L1739 109L1737 108L1740 105L1735 97L1737 95L1735 91L1742 90L1743 86L1738 69L1747 66L1744 65L1743 61L1745 60L1744 50L1747 49L1744 43L1750 43L1755 39L1754 35L1746 34L1746 31L1748 29L1747.2857142857142 -12L1938 -12z"/></g><g><path class="class-0 leaflet-clickable" stroke-linejoin="round" stroke-linecap="round" fill-rule="evenodd" stroke="#005540" stroke-opacity="1" stroke-width="0.5" fill="#ddfff6" fill-opacity="0.5" d="M1389 146L1389 152L1385 152L1385 146z"/></g><g><path class="class-0 leaflet-clickable" stroke-linejoin="round" stroke-linecap="round" fill-rule="evenodd" stroke="#005540" stroke-opacity="1" stroke-width="0.5" fill="#ddfff6" fill-opacity="0.5" d="M1413 94L1415 97L1415 104L1421 116L1419 128L1417 129L1418 131L1414 138L1414 142L1411 144L1410 142L1407 143L1406 141L1398 138L1397 136L1387 132L1388 129L1395 123L1393 111L1396 100L1398 97L1403 98L1409 95z"/></g><g><path class="class-0 leaflet-clickable" stroke-linejoin="round" stroke-linecap="round" fill-rule="evenodd" stroke="#005540" stroke-opacity="1" stroke-width="0.5" fill="#ddfff6" fill-opacity="0.5" d="M0 0"/></g><g><path class="class-0 leaflet-clickable" stroke-linejoin="round" stroke-linecap="round" fill-rule="evenodd" stroke="#005540" stroke-opacity="1" stroke-width="0.5" fill="#ddfff6" fill-opacity="0.5" d="M1747.2857142857142 -12L1748 29L1746 31L1746 34L1754 35L1755 39L1754 41L1744 43L1747 49L1744 50L1745 60L1743 61L1744 65L1747 66L1738 69L1743 86L1742 90L1735 91L1737 95L1736 100L1739 102L1740 105L1737 108L1739 109L1739 130L1741 131L1744 138L1746 137L1747 139L1745 139L1745 142L1750 145L1750 153L1752 160L1755 164L1756 169L1758 170L1756 174L1758 174L1757 177L1759 183L1758 185L1756 184L1756 187L1753 189L1749 186L1746 187L1746 190L1741 190L1739 192L1731 194L1732 195L1721 195L1714 193L1713 195L1711 193L1706 193L1706 208L1710 220L1716 224L1719 228L1720 236L1724 238L1720 244L1722 248L1728 248L1734 252L1736 263L1744 268L1743 276L1746 280L1746 285L1750 292L1743 300L1749 312L1748 318L1749 320L1752 319L1753 324L1765 326L1761 327L1756 336L1753 342L1755 345L1751 347L1749 352L1746 353L1746 356L1742 360L1742 366L1737 365L1732 368L1724 370L1722 376L1720 377L1726 377L1723 385L1721 383L1718 386L1712 385L1701 396L1697 394L1695 391L1693 391L1690 394L1689 393L1690 384L1688 373L1675 359L1668 356L1667 358L1656 355L1650 357L1638 350L1631 331L1627 325L1626 320L1623 317L1617 315L1616 316L1613 313L1598 310L1591 306L1583 297L1576 294L1573 295L1568 293L1566 289L1568 270L1565 262L1565 256L1567 252L1565 244L1568 239L1574 238L1571 234L1564 234L1563 232L1560 233L1548 229L1547 226L1545 226L1543 230L1539 232L1543 231L1541 237L1539 235L1536 235L1534 232L1535 229L1531 225L1525 228L1522 227L1505 212L1499 200L1496 198L1495 193L1489 190L1489 184L1486 181L1466 174L1460 158L1446 147L1444 143L1446 143L1449 140L1447 140L1445 137L1437 132L1430 122L1424 121L1426 119L1423 109L1424 106L1423 102L1421 102L1422 100L1419 99L1420 91L1418 86L1414 83L1408 85L1403 83L1401 79L1405 70L1404 65L1400 64L1400 59L1396 56L1392 48L1387 44L1384 36L1380 31L1380 26L1378 23L1371 22L1373 13L1370 7L1371 -4L1367.5 -12zM1544 223L1543 224L1545 226L1546 225z"/></g><g><path class="class-1 leaflet-clickable" stroke-linejoin="round" stroke-linecap="round" fill-rule="evenodd" stroke="#005540" stroke-opacity="1" stroke-width="0.5" fill="#7fd" fill-opacity="0.5" d="M0 0"/></g><g><path class="class-1 leaflet-clickable" stroke-linejoin="round" stroke-linecap="round" fill-rule="evenodd" stroke="#005540" stroke-opacity="1" stroke-width="0.5" fill="#7fd" fill-opacity="0.5" d="M1589 574L1591 574L1595 580L1592 586L1590 586L1590 584L1587 582L1589 580L1586 577L1587 574z"/></g><g><path class="class-1 leaflet-clickable" stroke-linejoin="round" stroke-linecap="round" fill-rule="evenodd" stroke="#005540" stroke-opacity="1" stroke-width="0.5" fill="#7fd" fill-opacity="0.5" d="M1586 568L1589 572L1588 573L1584 569z"/></g><g><path class="class-1 leaflet-clickable" stroke-linejoin="round" stroke-linecap="round" fill-rule="evenodd" stroke="#005540" stroke-opacity="1" stroke-width="0.5" fill="#7fd" fill-opacity="0.5" d="M1557 516L1561 521L1569 525L1573 538L1570 539L1566 535L1564 535L1560 525L1557 524L1556 521z"/></g><g><path class="class-1 leaflet-clickable" stroke-linejoin="round" stroke-linecap="round" fill-rule="evenodd" stroke="#005540" stroke-opacity="1" stroke-width="0.5" fill="#7fd" fill-opacity="0.5" d="M1559 496L1557 500L1555 499L1555 497L1557 496z"/></g><g><path class="class-1 leaflet-clickable" stroke-linejoin="round" stroke-linecap="round" fill-rule="evenodd" stroke="#005540" stroke-opacity="1" stroke-width="0.5" fill="#7fd" fill-opacity="0.5" d="M1551 455L1553 465L1552 467L1548 462L1549 458z"/></g><g><path class="class-1 leaflet-clickable" stroke-linejoin="round" stroke-linecap="round" fill-rule="evenodd" stroke="#005540" stroke-opacity="1" stroke-width="0.5" fill="#7fd" fill-opacity="0.5" d="M1527 455L1529 457L1528 460L1525 455z"/></g><g><path class="class-1 leaflet-clickable" stroke-linejoin="round" stroke-linecap="round" fill-rule="evenodd" stroke="#005540" stroke-opacity="1" stroke-width="0.5" fill="#7fd" fill-opacity="0.5" d="M1525 419L1523 423L1523 428L1521 426L1515 434L1514 439L1512 441L1512 445L1509 441L1515 428L1515 422L1523 420z"/></g><g><path class="class-1 leaflet-clickable" stroke-linejoin="round" stroke-linecap="round" fill-rule="evenodd" stroke="#005540" stroke-opacity="1" stroke-width="0.5" fill="#7fd" fill-opacity="0.5" d="M1506 412L1507 415L1504 414L1506 412z"/></g><g><path class="class-1 leaflet-clickable" stroke-linejoin="round" stroke-linecap="round" fill-rule="evenodd" stroke="#005540" stroke-opacity="1" stroke-width="0.5" fill="#7fd" fill-opacity="0.5" d="M1432 298L1436 303L1433 306L1430 299L1431 298z"/></g><g><path class="class-1 leaflet-clickable" stroke-linejoin="round" stroke-linecap="round" fill-rule="evenodd" stroke="#005540" stroke-opacity="1" stroke-width="0.5" fill="#7fd" fill-opacity="0.5" d="M1445 280L1445 283L1443 282L1443 280z"/></g><g><path class="class-1 leaflet-clickable" stroke-linejoin="round" stroke-linecap="round" fill-rule="evenodd" stroke="#005540" stroke-opacity="1" stroke-width="0.5" fill="#7fd" fill-opacity="0.5" d="M1149 233L1152 235L1151 237L1149 234z"/></g><g><path class="class-1 leaflet-clickable" stroke-linejoin="round" stroke-linecap="round" fill-rule="evenodd" stroke="#005540" stroke-opacity="1" stroke-width="0.5" fill="#7fd" fill-opacity="0.5" d="M1239 221L1370 221L1371 224L1369 236L1374 240L1374 244L1378 250L1381 251L1383 255L1385 255L1385 257L1395 260L1397 263L1401 263L1404 266L1406 266L1410 274L1412 285L1418 291L1418 294L1421 298L1420 302L1425 308L1431 311L1439 312L1440 314L1444 314L1444 317L1441 318L1438 324L1439 328L1442 330L1444 335L1448 339L1456 335L1461 338L1465 344L1470 347L1471 350L1479 355L1480 370L1489 373L1488 384L1496 395L1494 399L1498 413L1501 416L1499 423L1500 427L1498 429L1498 433L1500 435L1500 443L1503 443L1503 449L1508 452L1511 456L1513 465L1518 472L1520 474L1529 475L1528 482L1537 499L1535 500L1539 512L1542 515L1543 519L1546 520L1547 523L1550 523L1552 525L1553 530L1556 533L1562 546L1554 564L1554 571L1555 575L1559 580L1559 587L1456 587L1445 578L1430 571L1429 566L1425 562L1425 559L1426 560L1427 558L1426 552L1419 548L1412 548L1412 546L1415 543L1428 498L1427 496L1431 477L1430 450L1422 427L1418 422L1411 418L1410 411L1404 403L1398 399L1396 400L1396 402L1394 402L1382 393L1378 394L1373 388L1337 361L1335 358L1332 356L1324 355L1323 349L1318 346L1305 344L1299 350L1299 353L1296 354L1290 352L1286 346L1281 344L1278 333L1269 326L1262 324L1259 327L1257 327L1246 312L1239 309L1231 309L1230 311L1227 308L1218 306L1218 303L1216 301L1213 301L1213 287L1211 281L1203 275L1190 270L1187 263L1182 259L1179 260L1178 257L1173 254L1170 250L1167 249L1166 251L1162 240L1159 237L1161 236L1165 239L1179 239L1182 241L1186 240L1202 245L1209 243L1212 245L1227 235L1231 235L1233 233L1233 227L1236 224z"/></g><g><path class="class-0 leaflet-clickable" stroke-linejoin="round" stroke-linecap="round" fill-rule="evenodd" stroke="#005540" stroke-opacity="1" stroke-width="0.5" fill="#ddfff6" fill-opacity="0.5" d="M1113 189L1115 190L1112 190z"/></g><g><path class="class-0 leaflet-clickable" stroke-linejoin="round" stroke-linecap="round" fill-rule="evenodd" stroke="#005540" stroke-opacity="1" stroke-width="0.5" fill="#ddfff6" fill-opacity="0.5" d="M1147 183L1149 184L1148 187L1151 195L1150 199L1152 202L1152 207L1149 212L1150 217L1145 218L1140 212L1134 212L1144 198L1143 193L1145 184z"/></g><g><path class="class-0 leaflet-clickable" stroke-linejoin="round" stroke-linecap="round" fill-rule="evenodd" stroke="#005540" stroke-opacity="1" stroke-width="0.5" fill="#ddfff6" fill-opacity="0.5" d="M1358 151L1370 159L1370 161L1369 162L1367 158L1361 154z"/></g><g><path class="class-0 leaflet-clickable" stroke-linejoin="round" stroke-linecap="round" fill-rule="evenodd" stroke="#005540" stroke-opacity="1" stroke-width="0.5" fill="#ddfff6" fill-opacity="0.5" d="M1301 108L1303 109L1302 112z"/></g><g><path class="class-0 leaflet-clickable" stroke-linejoin="round" stroke-linecap="round" fill-rule="evenodd" stroke="#005540" stroke-opacity="1" stroke-width="0.5" fill="#ddfff6" fill-opacity="0.5" d="M1302 60L1310 66L1310 68L1315 74L1317 78L1315 81L1315 85L1317 87L1322 89L1334 89L1333 104L1335 111L1339 112L1338 119L1326 111L1321 103L1312 96L1308 89L1305 89L1303 87L1297 76L1295 75L1297 67L1296 63L1298 62z"/></g><g><path class="class-0 leaflet-clickable" stroke-linejoin="round" stroke-linecap="round" fill-rule="evenodd" stroke="#005540" stroke-opacity="1" stroke-width="0.5" fill="#ddfff6" fill-opacity="0.5" d="M864 100L864 107L866 107L870 111L871 116L871 125L868 131L864 125L861 113L857 111L856 103L863 98z"/></g><g><path class="class-0 leaflet-clickable" stroke-linejoin="round" stroke-linecap="round" fill-rule="evenodd" stroke="#005540" stroke-opacity="1" stroke-width="0.5" fill="#ddfff6" fill-opacity="0.5" d="M1219 15L1221 15L1221 17L1219 17z"/></g><g><path class="class-0 leaflet-clickable" stroke-linejoin="round" stroke-linecap="round" fill-rule="evenodd" stroke="#005540" stroke-opacity="1" stroke-width="0.5" fill="#ddfff6" fill-opacity="0.5" d="M0 0"/></g><g><path class="class-0 leaflet-clickable" stroke-linejoin="round" stroke-linecap="round" fill-rule="evenodd" stroke="#005540" stroke-opacity="1" stroke-width="0.5" fill="#ddfff6" fill-opacity="0.5" d="M0 0"/></g><g><path class="class-0 leaflet-clickable" stroke-linejoin="round" stroke-linecap="round" fill-rule="evenodd" stroke="#005540" stroke-opacity="1" stroke-width="0.5" fill="#ddfff6" fill-opacity="0.5" d="M1198 -12L1197 -6L1204 5L1204 8L1209 17L1214 19L1214 22L1220 25L1221 31L1223 32L1221 35L1222 37L1226 40L1230 40L1233 37L1237 39L1243 46L1244 45L1247 50L1252 52L1253 56L1258 58L1267 67L1278 75L1290 88L1292 91L1289 94L1289 96L1299 111L1300 114L1297 115L1297 118L1299 119L1298 123L1301 129L1305 129L1306 123L1310 123L1309 125L1311 126L1313 124L1317 139L1325 135L1331 139L1331 144L1334 153L1337 156L1339 169L1347 174L1357 172L1360 175L1360 177L1362 176L1360 192L1367 202L1366 213L1368 214L1366 218L1370 221L1239 221L1245 213L1252 199L1251 197L1246 195L1252 181L1253 173L1249 165L1244 164L1243 155L1241 153L1233 153L1232 148L1231 149L1229 146L1226 146L1226 141L1224 137L1222 138L1221 132L1213 125L1208 125L1207 122L1205 120L1204 121L1201 109L1196 106L1192 106L1190 100L1184 96L1183 93L1180 92L1171 80L1159 74L1150 73L1147 68L1139 61L1132 60L1124 52L1121 54L1112 45L1110 45L1103 39L1103 24L1099 19L1093 17L1095 7L1093 -3L1094 -12z"/></g></svg>