<svg xmlns="http://www.w3.org/2000/svg" class="leaflet-zoom-animated" width="2221" height="689" viewBox="-276 -57 2221 689" style="transform: translate3d(-276px, -57px, 0px);"><g><path class="class-0 leaflet-clickable" stroke-linejoin="round" stroke-linecap="round" fill-rule="evenodd" stroke="#005540" stroke-opacity="1" stroke-width="0.5" fill="#00cc99" fill-opacity="0.5" d="M533 444L533 444z"/></g><g><path class="class-0 leaflet-clickable" stroke-linejoin="round" stroke-linecap="round" fill-rule="evenodd" stroke="#005540" stroke-opacity="1" stroke-width="0.5" fill="#00cc99" fill-opacity="0.5" d="M1156 443L1157 440L1156 443z"/></g><g><path class="class-0 leaflet-clickable" stroke-linejoin="round" stroke-linecap="round" fill-rule="evenodd" stroke="#005540" stroke-opacity="1" stroke-width="0.5" fill="#00cc99" fill-opacity="0.5" d="M1158 435L1158 437L1158 435z"/></g><g><path class="class-0 leaflet-clickable" stroke-linejoin="round" stroke-linecap="round" fill-rule="evenodd" stroke="#005540" stroke-opacity="1" stroke-width="0.5" fill="#00cc99" fill-opacity="0.5" d="M618 432L620 434L619 435L617 433L618 432z"/></g><g><path class="class-0 leaflet-clickable" stroke-linejoin="round" stroke-linecap="round" fill-rule="evenodd" stroke="#005540" stroke-opacity="1" stroke-width="0.5" fill="#00cc99" fill-opacity="0.5" d="M622 422L622 421z"/></g><g><path class="class-0 leaflet-clickable" stroke-linejoin="round" stroke-linecap="round" fill-rule="evenodd" stroke="#005540" stroke-opacity="1" stroke-width="0.5" fill="#00cc99" fill-opacity="0.5" d="M1170 390L1170 392L1164 398L1164 394L1166 391L1171 390z"/></g><g><path class="class-0 leaflet-clickable" stroke-linejoin="round" stroke-linecap="round" fill-rule="evenodd" stroke="#005540" stroke-opacity="1" stroke-width="0.5" fill="#00cc99" fill-opacity="0.5" d="M1086 388L1085 388z"/></g><g><path class="class-0 leaflet-clickable" stroke-linejoin="round" stroke-linecap="round" fill-rule="evenodd" stroke="#005540" stroke-opacity="1" stroke-width="0.5" fill="#00cc99" fill-opacity="0.5" d="M1044 380L1043 380z"/></g><g><path class="class-0 leaflet-clickable" stroke-linejoin="round" stroke-linecap="round" fill-rule="evenodd" stroke="#005540" stroke-opacity="1" stroke-width="0.5" fill="#00cc99" fill-opacity="0.5" d="M1170 374L1171 375L1170 374z"/></g><g><path class="class-0 leaflet-clickable" stroke-linejoin="round" stroke-linecap="round" fill-rule="evenodd" stroke="#005540" stroke-opacity="1" stroke-width="0.5" fill="#00cc99" fill-opacity="0.5" d="M727 371L726 371z"/></g><g><path class="class-0 leaflet-clickable" stroke-linejoin="round" stroke-linecap="round" fill-rule="evenodd" stroke="#005540" stroke-opacity="1" stroke-width="0.5" fill="#00cc99" fill-opacity="0.5" d="M722 368L724 369L723 370L721 368z"/></g><g><path class="class-0 leaflet-clickable" stroke-linejoin="round" stroke-linecap="round" fill-rule="evenodd" stroke="#005540" stroke-opacity="1" stroke-width="0.5" fill="#00cc99" fill-opacity="0.5" d="M1162 365L1160 367L1155 368L1157 366L1160 367L1162 365z"/></g><g><path class="class-0 leaflet-clickable" stroke-linejoin="round" stroke-linecap="round" fill-rule="evenodd" stroke="#005540" stroke-opacity="1" stroke-width="0.5" fill="#00cc99" fill-opacity="0.5" d="M717 363L719 363L720 366L718 366L717 364z"/></g><g><path class="class-0 leaflet-clickable" stroke-linejoin="round" stroke-linecap="round" fill-rule="evenodd" stroke="#005540" stroke-opacity="1" stroke-width="0.5" fill="#00cc99" fill-opacity="0.5" d="M717 361L716 361z"/></g><g><path class="class-0 leaflet-clickable" stroke-linejoin="round" stroke-linecap="round" fill-rule="evenodd" stroke="#005540" stroke-opacity="1" stroke-width="0.5" fill="#00cc99" fill-opacity="0.5" d="M1101 344L1101 343z"/></g><g><path class="class-0 leaflet-clickable" stroke-linejoin="round" stroke-linecap="round" fill-rule="evenodd" stroke="#005540" stroke-opacity="1" stroke-width="0.5" fill="#00cc99" fill-opacity="0.5" d="M1102 341L1106 344L1104 346L1101 343L1102 341z"/></g><g><path class="class-0 leaflet-clickable" stroke-linejoin="round" stroke-linecap="round" fill-rule="evenodd" stroke="#005540" stroke-opacity="1" stroke-width="0.5" fill="#00cc99" fill-opacity="0.5" d="M645 302L643 302L643 297L645 302z"/></g><g><path class="class-0 leaflet-clickable" stroke-linejoin="round" stroke-linecap="round" fill-rule="evenodd" stroke="#005540" stroke-opacity="1" stroke-width="0.5" fill="#00cc99" fill-opacity="0.5" d="M633 293L634 296L632 294L633 293z"/></g><g><path class="class-0 leaflet-clickable" stroke-linejoin="round" stroke-linecap="round" fill-rule="evenodd" stroke="#005540" stroke-opacity="1" stroke-width="0.5" fill="#00cc99" fill-opacity="0.5" d="M632 291L632 292z"/></g><g><path class="class-0 leaflet-clickable" stroke-linejoin="round" stroke-linecap="round" fill-rule="evenodd" stroke="#005540" stroke-opacity="1" stroke-width="0.5" fill="#00cc99" fill-opacity="0.5" d="M628 285L628 285z"/></g><g><path class="class-0 leaflet-clickable" stroke-linejoin="round" stroke-linecap="round" fill-rule="evenodd" stroke="#005540" stroke-opacity="1" stroke-width="0.5" fill="#00cc99" fill-opacity="0.5" d="M625 279L629 284L625 281L625 279z"/></g><g><path class="class-0 leaflet-clickable" stroke-linejoin="round" stroke-linecap="round" fill-rule="evenodd" stroke="#005540" stroke-opacity="1" stroke-width="0.5" fill="#00cc99" fill-opacity="0.5" d="M625 273L624 275L625 273z"/></g><g><path class="class-0 leaflet-clickable" stroke-linejoin="round" stroke-linecap="round" fill-rule="evenodd" stroke="#005540" stroke-opacity="1" stroke-width="0.5" fill="#00cc99" fill-opacity="0.5" d="M623 263L624 266L623 264z"/></g><g><path class="class-0 leaflet-clickable" stroke-linejoin="round" stroke-linecap="round" fill-rule="evenodd" stroke="#005540" stroke-opacity="1" stroke-width="0.5" fill="#00cc99" fill-opacity="0.5" d="M617 263L617 265L617 263z"/></g><g><path class="class-0 leaflet-clickable" stroke-linejoin="round" stroke-linecap="round" fill-rule="evenodd" stroke="#005540" stroke-opacity="1" stroke-width="0.5" fill="#00cc99" fill-opacity="0.5" d="M612 261L612 261z"/></g><g><path class="class-0 leaflet-clickable" stroke-linejoin="round" stroke-linecap="round" fill-rule="evenodd" stroke="#005540" stroke-opacity="1" stroke-width="0.5" fill="#00cc99" fill-opacity="0.5" d="M617 254L617 256L615 256L613 260L614 261L613 258L614 255L616 255z"/></g><g><path class="class-0 leaflet-clickable" stroke-linejoin="round" stroke-linecap="round" fill-rule="evenodd" stroke="#005540" stroke-opacity="1" stroke-width="0.5" fill="#00cc99" fill-opacity="0.5" d="M612 252L612 252z"/></g><g><path class="class-0 leaflet-clickable" stroke-linejoin="round" stroke-linecap="round" fill-rule="evenodd" stroke="#005540" stroke-opacity="1" stroke-width="0.5" fill="#00cc99" fill-opacity="0.5" d="M594 224L594 226L593 224z"/></g><g><path class="class-0 leaflet-clickable" stroke-linejoin="round" stroke-linecap="round" fill-rule="evenodd" stroke="#005540" stroke-opacity="1" stroke-width="0.5" fill="#00cc99" fill-opacity="0.5" d="M597 219L596 219z"/></g><g><path class="class-0 leaflet-clickable" stroke-linejoin="round" stroke-linecap="round" fill-rule="evenodd" stroke="#005540" stroke-opacity="1" stroke-width="0.5" fill="#00cc99" fill-opacity="0.5" d="M523 208L522 208z"/></g><g><path class="class-0 leaflet-clickable" stroke-linejoin="round" stroke-linecap="round" fill-rule="evenodd" stroke="#005540" stroke-opacity="1" stroke-width="0.5" fill="#00cc99" fill-opacity="0.5" d="M514 197L514 197z"/></g><g><path class="class-0 leaflet-clickable" stroke-linejoin="round" stroke-linecap="round" fill-rule="evenodd" stroke="#005540" stroke-opacity="1" stroke-width="0.5" fill="#00cc99" fill-opacity="0.5" d="M522 195L524 201L523 204L519 202L522 199L522 195z"/></g><g><path class="class-0 leaflet-clickable" stroke-linejoin="round" stroke-linecap="round" fill-rule="evenodd" stroke="#005540" stroke-opacity="1" stroke-width="0.5" fill="#00cc99" fill-opacity="0.5" d="M575 187L578 189L577 190L576 188z"/></g><g><path class="class-0 leaflet-clickable" stroke-linejoin="round" stroke-linecap="round" fill-rule="evenodd" stroke="#005540" stroke-opacity="1" stroke-width="0.5" fill="#00cc99" fill-opacity="0.5" d="M574 187L574 187z"/></g><g><path class="class-0 leaflet-clickable" stroke-linejoin="round" stroke-linecap="round" fill-rule="evenodd" stroke="#005540" stroke-opacity="1" stroke-width="0.5" fill="#00cc99" fill-opacity="0.5" d="M583 186L582 188L582 186z"/></g><g><path class="class-0 leaflet-clickable" stroke-linejoin="round" stroke-linecap="round" fill-rule="evenodd" stroke="#005540" stroke-opacity="1" stroke-width="0.5" fill="#00cc99" fill-opacity="0.5" d="M561 176L561 176z"/></g><g><path class="class-0 leaflet-clickable" stroke-linejoin="round" stroke-linecap="round" fill-rule="evenodd" stroke="#005540" stroke-opacity="1" stroke-width="0.5" fill="#00cc99" fill-opacity="0.5" d="M451 175L453 177L452 182L450 178L452 174z"/></g><g><path class="class-0 leaflet-clickable" stroke-linejoin="round" stroke-linecap="round" fill-rule="evenodd" stroke="#005540" stroke-opacity="1" stroke-width="0.5" fill="#00cc99" fill-opacity="0.5" d="M589 173L591 179L589 184L590 185L588 186L583 182L584 175L588 173z"/></g><g><path class="class-0 leaflet-clickable" stroke-linejoin="round" stroke-linecap="round" fill-rule="evenodd" stroke="#005540" stroke-opacity="1" stroke-width="0.5" fill="#00cc99" fill-opacity="0.5" d="M561 165L564 167L564 170L566 172L569 171L569 179L559 168L561 165z"/></g><g><path class="class-0 leaflet-clickable" stroke-linejoin="round" stroke-linecap="round" fill-rule="evenodd" stroke="#005540" stroke-opacity="1" stroke-width="0.5" fill="#00cc99" fill-opacity="0.5" d="M540 153L541 154L540 153z"/></g><g><path class="class-0 leaflet-clickable" stroke-linejoin="round" stroke-linecap="round" fill-rule="evenodd" stroke="#005540" stroke-opacity="1" stroke-width="0.5" fill="#00cc99" fill-opacity="0.5" d="M533 112L533 112z"/></g><g><path class="class-0 leaflet-clickable" stroke-linejoin="round" stroke-linecap="round" fill-rule="evenodd" stroke="#005540" stroke-opacity="1" stroke-width="0.5" fill="#00cc99" fill-opacity="0.5" d="M535 106L536 107L535 106z"/></g><g><path class="class-0 leaflet-clickable" stroke-linejoin="round" stroke-linecap="round" fill-rule="evenodd" stroke="#005540" stroke-opacity="1" stroke-width="0.5" fill="#00cc99" fill-opacity="0.5" d="M533 105L535 107L534 108L532 108L532 105z"/></g><g><path class="class-0 leaflet-clickable" stroke-linejoin="round" stroke-linecap="round" fill-rule="evenodd" stroke="#005540" stroke-opacity="1" stroke-width="0.5" fill="#00cc99" fill-opacity="0.5" d="M532 83L532 87L611 115L616 118L682 118L682 106L685 105L722 106L727 113L730 116L732 116L743 128L753 135L755 135L755 137L757 137L758 142L762 148L762 156L769 165L773 166L772 167L775 170L782 172L790 178L797 180L798 177L802 173L803 174L802 172L804 170L805 164L809 159L813 159L816 156L825 159L835 158L837 162L839 162L839 164L840 163L840 165L853 176L857 188L861 193L860 194L863 199L868 203L871 209L879 216L881 230L885 234L889 246L891 245L893 247L898 248L898 250L904 250L909 255L922 255L927 260L929 259L928 258L933 257L933 263L926 276L921 294L919 336L917 339L917 346L923 360L929 366L927 374L935 392L942 398L950 409L952 419L957 424L957 426L960 427L963 433L967 435L976 435L982 439L986 439L991 448L993 449L1001 448L1018 442L1031 442L1034 440L1034 438L1043 436L1051 436L1054 438L1071 428L1080 420L1080 412L1086 405L1086 387L1088 381L1094 376L1107 372L1125 370L1129 367L1137 365L1143 365L1157 370L1162 369L1163 366L1168 373L1169 370L1168 373L1170 377L1166 385L1154 399L1154 409L1153 410L1154 406L1154 408L1151 409L1149 413L1147 413L1150 416L1154 414L1155 415L1154 418L1149 420L1149 424L1152 421L1154 421L1152 423L1152 427L1150 429L1144 449L1141 449L1141 443L1136 443L1136 441L1130 441L1128 447L1125 449L1122 455L1118 452L1115 457L1074 457L1074 470L1063 470L1066 473L1067 472L1067 474L1071 476L1070 477L1072 479L1080 483L1081 488L1087 491L1086 498L1057 498L1046 518L1049 522L1046 527L1047 531L1045 535L1017 507L1009 501L999 497L989 495L977 496L972 501L968 501L958 506L957 505L954 508L945 508L936 505L933 502L919 501L909 494L902 493L896 487L894 488L884 484L876 484L868 478L844 470L845 469L840 465L836 464L824 453L817 454L791 446L779 432L755 420L753 415L751 415L743 404L739 394L747 392L749 390L747 386L742 386L750 376L750 367L749 368L745 365L740 357L740 349L737 341L721 325L720 321L714 315L709 307L691 294L675 274L663 270L659 265L655 265L653 257L658 248L658 244L654 239L648 239L645 237L642 229L634 227L630 223L628 223L628 209L626 207L625 208L621 206L621 208L619 208L619 206L613 204L607 195L603 193L597 186L598 184L591 180L591 173L589 170L588 171L586 169L587 167L583 162L581 156L578 155L578 148L570 134L571 122L565 119L558 118L558 114L553 110L546 113L532 104L532 110L530 113L530 123L534 129L534 137L536 142L535 149L537 153L541 157L541 159L544 159L558 172L561 182L563 180L565 184L568 184L570 191L572 193L576 193L575 197L577 199L579 211L588 218L591 224L590 225L597 229L595 230L595 232L597 234L599 233L602 235L605 238L605 242L608 243L607 244L611 254L611 262L616 268L618 268L620 277L626 285L624 289L625 297L628 301L631 302L634 301L634 297L641 303L641 305L645 306L645 308L648 311L648 315L651 316L654 320L654 324L652 327L643 334L641 334L639 332L636 320L632 316L610 299L606 297L601 298L600 296L593 292L591 290L591 287L588 286L593 272L593 261L588 251L580 248L565 236L563 235L560 238L553 231L549 231L546 227L542 227L539 224L538 220L526 211L526 209L538 211L544 208L548 201L547 198L549 194L547 190L542 186L542 184L539 181L537 181L536 177L533 176L533 174L528 169L523 168L521 165L515 163L511 159L512 157L509 153L509 146L503 140L504 134L498 127L497 128L496 119L489 112L490 109L487 106L489 107L490 104L484 99L484 96L479 88L479 85L533 80L533 82zM622 205L622 206z"/></g></svg>