<svg xmlns="http://www.w3.org/2000/svg" class="leaflet-zoom-animated" width="1978" height="599" viewBox="-40 -12 1978 599" style="transform: translate3d(-40px, -12px, 0px);"><g><path class="class-3 leaflet-clickable" stroke-linejoin="round" stroke-linecap="round" fill-rule="evenodd" stroke="#005540" stroke-opacity="1" stroke-width="0.5" fill="#086" fill-opacity="0.5" d="M0 0"/></g><g><path class="class-3 leaflet-clickable" stroke-linejoin="round" stroke-linecap="round" fill-rule="evenodd" stroke="#005540" stroke-opacity="1" stroke-width="0.5" fill="#086" fill-opacity="0.5" d="M0 0"/></g><g><path class="class-3 leaflet-clickable" stroke-linejoin="round" stroke-linecap="round" fill-rule="evenodd" stroke="#005540" stroke-opacity="1" stroke-width="0.5" fill="#086" fill-opacity="0.5" d="M0 0"/></g><g><path class="class-3 leaflet-clickable" stroke-linejoin="round" stroke-linecap="round" fill-rule="evenodd" stroke="#005540" stroke-opacity="1" stroke-width="0.5" fill="#086" fill-opacity="0.5" d="M0 0"/></g><g><path class="class-3 leaflet-clickable" stroke-linejoin="round" stroke-linecap="round" fill-rule="evenodd" stroke="#005540" stroke-opacity="1" stroke-width="0.5" fill="#086" fill-opacity="0.5" d="M0 0"/></g><g><path class="class-3 leaflet-clickable" stroke-linejoin="round" stroke-linecap="round" fill-rule="evenodd" stroke="#005540" stroke-opacity="1" stroke-width="0.5" fill="#086" fill-opacity="0.5" d="M0 0"/></g><g><path class="class-3 leaflet-clickable" stroke-linejoin="round" stroke-linecap="round" fill-rule="evenodd" stroke="#005540" stroke-opacity="1" stroke-width="0.5" fill="#086" fill-opacity="0.5" d="M0 0"/></g><g><path class="class-3 leaflet-clickable" stroke-linejoin="round" stroke-linecap="round" fill-rule="evenodd" stroke="#005540" stroke-opacity="1" stroke-width="0.5" fill="#086" fill-opacity="0.5" d="M0 0"/></g><g><path class="class-3 leaflet-clickable" stroke-linejoin="round" stroke-linecap="round" fill-rule="evenodd" stroke="#005540" stroke-opacity="1" stroke-width="0.5" fill="#086" fill-opacity="0.5" d="M1342 563L1345 567L1336 576L1333 574L1333 572L1330 580L1325 582L1324.4166666666667 587L1206.5 587L1212 583L1213 585L1215 583L1217 580L1216 577L1219 576L1224 569L1231 568L1238 570L1240 567L1243 569L1244 567L1247 569L1247 567L1250 571L1252 570L1254 572L1266 569L1265 555L1262 545L1257 543L1257 541L1259 541L1257 537L1268 540L1267 534L1277 534L1284 537L1295 539L1298 547L1304 547L1306 549L1306 551L1304 550L1305 552L1312 554L1318 550L1323 551L1330 561L1335 563L1338 561L1342 563z"/></g><g><path class="class-3 leaflet-clickable" stroke-linejoin="round" stroke-linecap="round" fill-rule="evenodd" stroke="#005540" stroke-opacity="1" stroke-width="0.5" fill="#086" fill-opacity="0.5" d="M0 0"/></g><g><path class="class-2 leaflet-clickable" stroke-linejoin="round" stroke-linecap="round" fill-rule="evenodd" stroke="#005540" stroke-opacity="1" stroke-width="0.5" fill="#00cc99" fill-opacity="0.5" d="M1324.4166666666667 587L1324 582L1330 580L1333 571L1333 573L1336 576L1347 566L1351 570L1352 573L1350 579L1352 579L1351 582L1355 584L1355 587z"/></g><g><path class="class-2 leaflet-clickable" stroke-linejoin="round" stroke-linecap="round" fill-rule="evenodd" stroke="#005540" stroke-opacity="1" stroke-width="0.5" fill="#00cc99" fill-opacity="0.5" d="M0 0"/></g><g><path class="class-2 leaflet-clickable" stroke-linejoin="round" stroke-linecap="round" fill-rule="evenodd" stroke="#005540" stroke-opacity="1" stroke-width="0.5" fill="#00cc99" fill-opacity="0.5" d="M0 0"/></g><g><path class="class-2 leaflet-clickable" stroke-linejoin="round" stroke-linecap="round" fill-rule="evenodd" stroke="#005540" stroke-opacity="1" stroke-width="0.5" fill="#00cc99" fill-opacity="0.5" d="M0 0"/></g><g><path class="class-1 leaflet-clickable" stroke-linejoin="round" stroke-linecap="round" fill-rule="evenodd" stroke="#005540" stroke-opacity="1" stroke-width="0.5" fill="#7fd" fill-opacity="0.5" d="M0 0"/></g><g><path class="class-1 leaflet-clickable" stroke-linejoin="round" stroke-linecap="round" fill-rule="evenodd" stroke="#005540" stroke-opacity="1" stroke-width="0.5" fill="#7fd" fill-opacity="0.5" d="M0 0"/></g><g><path class="class-1 leaflet-clickable" stroke-linejoin="round" stroke-linecap="round" fill-rule="evenodd" stroke="#005540" stroke-opacity="1" stroke-width="0.5" fill="#7fd" fill-opacity="0.5" d="M0 0"/></g><g><path class="class-1 leaflet-clickable" stroke-linejoin="round" stroke-linecap="round" fill-rule="evenodd" stroke="#005540" stroke-opacity="1" stroke-width="0.5" fill="#7fd" fill-opacity="0.5" d="M0 0"/></g><g><path class="class-1 leaflet-clickable" stroke-linejoin="round" stroke-linecap="round" fill-rule="evenodd" stroke="#005540" stroke-opacity="1" stroke-width="0.5" fill="#7fd" fill-opacity="0.5" d="M0 0"/></g><g><path class="class-1 leaflet-clickable" stroke-linejoin="round" stroke-linecap="round" fill-rule="evenodd" stroke="#005540" stroke-opacity="1" stroke-width="0.5" fill="#7fd" fill-opacity="0.5" d="M0 0"/></g><g><path class="class-1 leaflet-clickable" stroke-linejoin="round" stroke-linecap="round" fill-rule="evenodd" stroke="#005540" stroke-opacity="1" stroke-width="0.5" fill="#7fd" fill-opacity="0.5" d="M0 0"/></g><g><path class="class-1 leaflet-clickable" stroke-linejoin="round" stroke-linecap="round" fill-rule="evenodd" stroke="#005540" stroke-opacity="1" stroke-width="0.5" fill="#7fd" fill-opacity="0.5" d="M0 0"/></g><g><path class="class-1 leaflet-clickable" stroke-linejoin="round" stroke-linecap="round" fill-rule="evenodd" stroke="#005540" stroke-opacity="1" stroke-width="0.5" fill="#7fd" fill-opacity="0.5" d="M0 0"/></g><g><path class="class-1 leaflet-clickable" stroke-linejoin="round" stroke-linecap="round" fill-rule="evenodd" stroke="#005540" stroke-opacity="1" stroke-width="0.5" fill="#7fd" fill-opacity="0.5" d="M0 0"/></g><g><path class="class-1 leaflet-clickable" stroke-linejoin="round" stroke-linecap="round" fill-rule="evenodd" stroke="#005540" stroke-opacity="1" stroke-width="0.5" fill="#7fd" fill-opacity="0.5" d="M0 0"/></g><g><path class="class-1 leaflet-clickable" stroke-linejoin="round" stroke-linecap="round" fill-rule="evenodd" stroke="#005540" stroke-opacity="1" stroke-width="0.5" fill="#7fd" fill-opacity="0.5" d="M0 0"/></g><g><path class="class-1 leaflet-clickable" stroke-linejoin="round" stroke-linecap="round" fill-rule="evenodd" stroke="#005540" stroke-opacity="1" stroke-width="0.5" fill="#7fd" fill-opacity="0.5" d="M0 0"/></g><g><path class="class-1 leaflet-clickable" stroke-linejoin="round" stroke-linecap="round" fill-rule="evenodd" stroke="#005540" stroke-opacity="1" stroke-width="0.5" fill="#7fd" fill-opacity="0.5" d="M0 0"/></g><g><path class="class-1 leaflet-clickable" stroke-linejoin="round" stroke-linecap="round" fill-rule="evenodd" stroke="#005540" stroke-opacity="1" stroke-width="0.5" fill="#7fd" fill-opacity="0.5" d="M0 0"/></g><g><path class="class-1 leaflet-clickable" stroke-linejoin="round" stroke-linecap="round" fill-rule="evenodd" stroke="#005540" stroke-opacity="1" stroke-width="0.5" fill="#7fd" fill-opacity="0.5" d="M0 0"/></g><g><path class="class-0 leaflet-clickable" stroke-linejoin="round" stroke-linecap="round" fill-rule="evenodd" stroke="#005540" stroke-opacity="1" stroke-width="0.5" fill="#ddfff6" fill-opacity="0.5" d="M0 0"/></g><g><path class="class-0 leaflet-clickable" stroke-linejoin="round" stroke-linecap="round" fill-rule="evenodd" stroke="#005540" stroke-opacity="1" stroke-width="0.5" fill="#ddfff6" fill-opacity="0.5" d="M958 474L960 472L963 475L969 469L975 469L975 467L977 466L973 466L975 462L979 460L984 460L986 453L990 449L989 448L995 440L992 440L994 437L1000 439L1000 437L1004 437L1007 439L1004 444L1011 446L1014 449L1013 451L1015 451L1012 457L1017 464L1014 468L1021 478L1021 480L1024 481L1025 483L1028 481L1033 481L1037 485L1039 483L1045 484L1048 490L1047 494L1058 502L1058 505L1062 505L1062 509L1052 513L1054 516L1051 519L1053 524L1051 524L1055 528L1054 538L1057 539L1059 544L1064 547L1064 550L1067 549L1075 560L1076 564L1080 567L1080 569L1078 570L1082 575L1086 576L1089 575L1091 572L1098 574L1099 573L1106 583L1105 587L1054 587L1024 566L1015 558L1014 554L1009 549L1005 540L994 527L989 524L978 522L968 518L960 509L952 508L949 492L958 474z"/></g><g><path class="class-0 leaflet-clickable" stroke-linejoin="round" stroke-linecap="round" fill-rule="evenodd" stroke="#005540" stroke-opacity="1" stroke-width="0.5" fill="#ddfff6" fill-opacity="0.5" d="M0 0"/></g><g><path class="class-0 leaflet-clickable" stroke-linejoin="round" stroke-linecap="round" fill-rule="evenodd" stroke="#005540" stroke-opacity="1" stroke-width="0.5" fill="#ddfff6" fill-opacity="0.5" d="M0 0"/></g><g><path class="class-0 leaflet-clickable" stroke-linejoin="round" stroke-linecap="round" fill-rule="evenodd" stroke="#005540" stroke-opacity="1" stroke-width="0.5" fill="#ddfff6" fill-opacity="0.5" d="M0 0"/></g><g><path class="class-0 leaflet-clickable" stroke-linejoin="round" stroke-linecap="round" fill-rule="evenodd" stroke="#005540" stroke-opacity="1" stroke-width="0.5" fill="#ddfff6" fill-opacity="0.5" d="M1386 400L1387 399L1391 404L1382 411L1383 414L1390 417L1390 425L1395 436L1391 443L1389 443L1390 445L1395 444L1398 446L1396 453L1394 455L1400 456L1406 460L1405 472L1406 474L1408 473L1415 477L1417 487L1423 485L1429 491L1432 487L1443 489L1443 516L1451 516L1451 518L1427 537L1423 537L1424 536L1422 534L1420 537L1417 537L1417 545L1415 547L1416 552L1411 550L1406 554L1402 555L1401 559L1398 559L1391 563L1392 566L1395 565L1398 571L1394 584L1397 587L1355 587L1355 583L1351 582L1352 579L1350 579L1352 573L1351 570L1347 566L1345 567L1342 563L1343 553L1341 549L1346 544L1342 540L1342 532L1347 528L1352 527L1364 531L1364 529L1367 530L1368 527L1364 523L1357 523L1358 520L1353 517L1353 515L1351 515L1355 514L1347 512L1346 508L1343 508L1340 499L1341 494L1338 492L1337 486L1330 480L1324 471L1345 453L1347 459L1354 449L1354 438L1347 433L1345 436L1343 436L1341 429L1348 422L1360 419L1363 404L1370 398L1379 408L1382 404z"/></g><g><path class="class-0 leaflet-clickable" stroke-linejoin="round" stroke-linecap="round" fill-rule="evenodd" stroke="#005540" stroke-opacity="1" stroke-width="0.5" fill="#ddfff6" fill-opacity="0.5" d="M1386 400L1379 408L1370 398L1363 404L1360 419L1348 422L1341 429L1341 435L1343 437L1345 437L1345 435L1347 434L1354 437L1354 449L1347 459L1345 453L1324 471L1330 480L1337 486L1338 492L1341 493L1340 499L1343 508L1346 508L1347 512L1354 514L1351 515L1353 515L1352 517L1358 519L1357 523L1364 523L1368 527L1368 529L1364 529L1364 531L1352 527L1347 528L1342 532L1342 540L1346 544L1341 549L1343 553L1342 563L1338 561L1335 563L1330 561L1323 551L1315 551L1312 554L1305 552L1304 550L1306 551L1306 549L1304 547L1298 547L1295 539L1284 537L1277 534L1267 534L1268 540L1257 537L1248 553L1246 551L1238 549L1231 542L1231 540L1219 526L1221 524L1221 521L1224 520L1226 522L1227 520L1220 513L1223 511L1228 502L1226 483L1230 475L1228 472L1225 459L1210 453L1204 444L1204 442L1208 438L1208 435L1206 433L1206 426L1205 427L1205 425L1202 423L1203 408L1200 398L1201 397L1199 397L1199 390L1202 392L1202 390L1200 389L1207 372L1215 355L1217 356L1228 336L1237 337L1238 333L1243 328L1242 327L1245 327L1246 324L1248 324L1248 317L1249 318L1249 316L1251 315L1251 309L1257 297L1263 297L1266 295L1269 296L1273 290L1285 295L1289 293L1300 296L1307 296L1308 294L1309 296L1312 295L1317 301L1320 302L1320 306L1321 303L1322 304L1323 309L1331 312L1333 317L1343 323L1344 327L1349 332L1349 339L1355 346L1354 347L1356 349L1356 354L1361 357L1360 359L1364 362L1363 367L1366 371L1365 373L1369 376L1369 378L1375 380L1384 393L1384 398L1386 398z"/></g><g><path class="class-0 leaflet-clickable" stroke-linejoin="round" stroke-linecap="round" fill-rule="evenodd" stroke="#005540" stroke-opacity="1" stroke-width="0.5" fill="#ddfff6" fill-opacity="0.5" d="M1397 587L1394 584L1398 571L1395 565L1392 566L1391 563L1397 559L1399 560L1402 558L1404 554L1411 550L1415 552L1415 547L1417 545L1417 537L1420 537L1421 534L1423 534L1423 537L1427 537L1451 518L1451 516L1443 516L1443 489L1432 487L1429 491L1423 485L1417 487L1415 477L1408 473L1406 474L1405 472L1406 460L1400 456L1394 456L1398 446L1395 444L1390 445L1389 443L1391 443L1395 436L1390 425L1390 417L1383 414L1382 411L1391 404L1395 407L1397 406L1401 410L1400 413L1403 414L1400 423L1402 423L1405 430L1404 438L1410 444L1409 445L1412 446L1417 463L1420 464L1419 468L1421 470L1422 469L1432 472L1433 471L1439 477L1443 477L1446 479L1449 478L1452 482L1461 487L1479 487L1485 489L1496 498L1498 498L1499 494L1509 492L1508 504L1493 534L1487 554L1482 587z"/></g><g><path class="class-0 leaflet-clickable" stroke-linejoin="round" stroke-linecap="round" fill-rule="evenodd" stroke="#005540" stroke-opacity="1" stroke-width="0.5" fill="#ddfff6" fill-opacity="0.5" d="M0 0"/></g><g><path class="class-2 leaflet-clickable" stroke-linejoin="round" stroke-linecap="round" fill-rule="evenodd" stroke="#005540" stroke-opacity="1" stroke-width="0.5" fill="#00cc99" fill-opacity="0.5" d="M1211 453L1213 455L1225 459L1228 472L1230 475L1226 483L1228 502L1221 513L1227 520L1227 522L1224 520L1221 521L1221 524L1219 526L1238 549L1246 551L1248 553L1257 537L1259 540L1257 541L1257 543L1262 545L1265 555L1266 568L1256 572L1249 570L1247 567L1247 569L1244 567L1243 569L1240 567L1238 570L1232 570L1231 568L1225 569L1219 576L1216 577L1217 580L1213 585L1212 583L1206.5 587L1105 587L1106 583L1099 573L1098 574L1091 572L1090 575L1082 576L1078 570L1080 569L1080 567L1076 564L1074 557L1067 549L1064 550L1062 545L1059 545L1058 540L1054 538L1055 528L1051 524L1053 524L1051 519L1054 515L1052 514L1053 512L1055 513L1062 509L1061 507L1064 508L1066 512L1076 512L1078 508L1085 504L1081 505L1080 494L1081 492L1082 493L1086 490L1084 490L1084 487L1087 483L1086 480L1090 474L1092 472L1093 473L1092 470L1095 466L1093 464L1095 462L1096 455L1100 454L1098 452L1100 450L1101 451L1104 447L1114 455L1116 456L1115 454L1117 454L1119 457L1124 459L1124 457L1126 462L1129 462L1129 464L1135 463L1136 466L1139 466L1147 463L1149 469L1156 464L1160 464L1171 473L1174 469L1177 459L1182 457L1184 453L1182 449L1184 449L1184 447L1188 451L1194 452L1197 450L1197 452L1203 452z"/></g><g><path class="class-1 leaflet-clickable" stroke-linejoin="round" stroke-linecap="round" fill-rule="evenodd" stroke="#005540" stroke-opacity="1" stroke-width="0.5" fill="#7fd" fill-opacity="0.5" d="M1228 336L1219 353L1217 356L1216 355L1214 357L1215 358L1200 389L1202 390L1202 392L1199 391L1199 397L1201 397L1200 398L1202 401L1203 411L1202 423L1205 425L1205 427L1206 426L1206 433L1208 435L1208 438L1204 442L1204 444L1208 448L1210 453L1197 452L1197 450L1194 452L1188 451L1184 447L1184 449L1182 449L1184 453L1182 457L1177 459L1171 473L1161 464L1154 465L1149 469L1147 463L1139 466L1135 465L1135 463L1129 464L1129 462L1126 462L1124 457L1124 459L1121 459L1118 454L1116 454L1116 456L1104 447L1101 451L1100 450L1098 452L1100 454L1097 455L1093 464L1095 466L1092 470L1093 473L1092 472L1086 480L1087 483L1084 487L1084 490L1086 490L1082 493L1081 492L1080 494L1081 505L1085 503L1076 511L1066 512L1065 508L1061 507L1061 504L1058 505L1058 502L1047 494L1045 485L1041 483L1037 485L1036 482L1033 481L1028 481L1025 483L1024 481L1021 480L1021 478L1014 468L1017 465L1011 457L1014 455L1015 451L1013 451L1014 449L1011 446L1008 446L1008 444L1004 444L1004 441L1007 439L1005 437L1001 437L1000 439L993 437L992 439L990 439L987 437L988 435L987 431L985 430L985 426L988 423L985 412L982 410L980 406L981 405L978 401L974 401L973 399L975 396L973 395L973 391L966 381L966 375L968 373L969 375L979 375L986 372L986 370L990 371L993 368L991 366L992 362L988 355L988 349L985 347L986 346L983 342L983 329L980 326L981 323L984 322L982 312L985 310L986 307L985 303L987 301L985 300L990 297L990 294L987 294L986 292L987 268L990 270L989 267L986 266L987 264L985 262L987 261L987 259L985 259L984 254L977 252L972 243L972 236L978 236L978 231L984 230L981 229L982 228L980 225L977 224L978 221L974 220L975 218L978 218L980 213L1005 213L1005 189L1082 189L1084 191L1085 190L1091 195L1097 206L1102 210L1106 210L1116 222L1122 225L1126 231L1131 236L1133 236L1133 239L1142 242L1152 249L1157 257L1159 264L1164 271L1166 287L1172 299L1179 306L1179 308L1185 309L1190 316L1195 319L1204 321L1213 328L1217 328L1225 335L1227 333L1228 335z"/></g><g><path class="class-0 leaflet-clickable" stroke-linejoin="round" stroke-linecap="round" fill-rule="evenodd" stroke="#005540" stroke-opacity="1" stroke-width="0.5" fill="#ddfff6" fill-opacity="0.5" d="M808 350L808 353L805 353L806 350z"/></g><g><path class="class-0 leaflet-clickable" stroke-linejoin="round" stroke-linecap="round" fill-rule="evenodd" stroke="#005540" stroke-opacity="1" stroke-width="0.5" fill="#ddfff6" fill-opacity="0.5" d="M819 324L820 329L824 335L819 349L807 342L811 338L811 327L815 326L816 324L818 325z"/></g><g><path class="class-0 leaflet-clickable" stroke-linejoin="round" stroke-linecap="round" fill-rule="evenodd" stroke="#005540" stroke-opacity="1" stroke-width="0.5" fill="#ddfff6" fill-opacity="0.5" d="M711 190L715 192L712 191z"/></g><g><path class="class-0 leaflet-clickable" stroke-linejoin="round" stroke-linecap="round" fill-rule="evenodd" stroke="#005540" stroke-opacity="1" stroke-width="0.5" fill="#ddfff6" fill-opacity="0.5" d="M705 151L875 213L980 213L978 218L974 219L978 221L976 224L980 225L980 227L982 228L981 229L984 229L978 231L978 236L972 236L972 245L975 247L975 250L977 252L982 252L984 254L985 259L987 259L987 261L985 262L987 264L986 266L988 266L990 269L987 268L986 286L986 294L990 294L990 297L985 299L987 301L985 302L986 310L982 312L984 322L982 322L980 326L983 328L983 341L987 349L988 355L991 359L991 362L992 361L991 366L993 368L990 371L987 370L986 372L981 374L970 373L969 375L968 373L966 375L966 380L968 387L973 391L973 395L975 396L973 398L974 401L980 403L981 408L985 411L988 423L985 426L985 430L988 435L987 436L990 439L995 440L984 457L984 460L979 460L975 462L973 466L977 466L975 467L975 469L969 470L963 475L960 472L958 474L958 467L956 462L950 456L938 456L934 454L930 449L930 445L926 440L926 437L919 433L912 432L905 426L897 423L897 412L895 406L897 396L900 396L898 394L887 392L886 390L883 393L885 393L884 396L880 393L881 392L879 390L875 391L865 383L863 377L856 368L846 364L843 357L835 349L837 347L836 345L831 343L831 341L825 337L825 330L822 327L822 320L814 318L816 311L813 309L813 307L806 299L803 290L799 288L799 275L794 269L793 261L785 252L781 241L783 235L782 230L783 231L785 227L783 221L778 218L759 213L760 212L758 205L746 198L745 199L743 197L741 205L735 205L729 202L721 195L719 195L715 190L711 190L701 184L700 185L698 182L697 168L694 165L694 163L698 159L699 152L705 151zM885 389L886 389z"/></g><g><path class="class-1 leaflet-clickable" stroke-linejoin="round" stroke-linecap="round" fill-rule="evenodd" stroke="#005540" stroke-opacity="1" stroke-width="0.5" fill="#7fd" fill-opacity="0.5" d="M933 583L930 583L927 577L927 572L932 580z"/></g><g><path class="class-1 leaflet-clickable" stroke-linejoin="round" stroke-linecap="round" fill-rule="evenodd" stroke="#005540" stroke-opacity="1" stroke-width="0.5" fill="#7fd" fill-opacity="0.5" d="M908 564L911 567L909 570L906 567L906 564z"/></g><g><path class="class-1 leaflet-clickable" stroke-linejoin="round" stroke-linecap="round" fill-rule="evenodd" stroke="#005540" stroke-opacity="1" stroke-width="0.5" fill="#7fd" fill-opacity="0.5" d="M906 561L907 563L905 562z"/></g><g><path class="class-1 leaflet-clickable" stroke-linejoin="round" stroke-linecap="round" fill-rule="evenodd" stroke="#005540" stroke-opacity="1" stroke-width="0.5" fill="#7fd" fill-opacity="0.5" d="M892 535L893 538L896 538L898 540L900 546L898 547L891 538z"/></g><g><path class="class-1 leaflet-clickable" stroke-linejoin="round" stroke-linecap="round" fill-rule="evenodd" stroke="#005540" stroke-opacity="1" stroke-width="0.5" fill="#7fd" fill-opacity="0.5" d="M892 525L892 527L892 525z"/></g><g><path class="class-1 leaflet-clickable" stroke-linejoin="round" stroke-linecap="round" fill-rule="evenodd" stroke="#005540" stroke-opacity="1" stroke-width="0.5" fill="#7fd" fill-opacity="0.5" d="M889 504L889 510L887 506z"/></g><g><path class="class-1 leaflet-clickable" stroke-linejoin="round" stroke-linecap="round" fill-rule="evenodd" stroke="#005540" stroke-opacity="1" stroke-width="0.5" fill="#7fd" fill-opacity="0.5" d="M877 504L878 507L876 507L876 505z"/></g><g><path class="class-1 leaflet-clickable" stroke-linejoin="round" stroke-linecap="round" fill-rule="evenodd" stroke="#005540" stroke-opacity="1" stroke-width="0.5" fill="#7fd" fill-opacity="0.5" d="M876 486L875 490L873 490L868 499L869 493L871 491L870 488L874 487z"/></g><g><path class="class-1 leaflet-clickable" stroke-linejoin="round" stroke-linecap="round" fill-rule="evenodd" stroke="#005540" stroke-opacity="1" stroke-width="0.5" fill="#7fd" fill-opacity="0.5" d="M866 483L865 484L866 483z"/></g><g><path class="class-1 leaflet-clickable" stroke-linejoin="round" stroke-linecap="round" fill-rule="evenodd" stroke="#005540" stroke-opacity="1" stroke-width="0.5" fill="#7fd" fill-opacity="0.5" d="M829 426L831 428L830 430L829 426z"/></g><g><path class="class-1 leaflet-clickable" stroke-linejoin="round" stroke-linecap="round" fill-rule="evenodd" stroke="#005540" stroke-opacity="1" stroke-width="0.5" fill="#7fd" fill-opacity="0.5" d="M835 417L834 417z"/></g><g><path class="class-1 leaflet-clickable" stroke-linejoin="round" stroke-linecap="round" fill-rule="evenodd" stroke="#005540" stroke-opacity="1" stroke-width="0.5" fill="#7fd" fill-opacity="0.5" d="M687 394L689 394L687 394z"/></g><g><path class="class-1 leaflet-clickable" stroke-linejoin="round" stroke-linecap="round" fill-rule="evenodd" stroke="#005540" stroke-opacity="1" stroke-width="0.5" fill="#7fd" fill-opacity="0.5" d="M732 388L798 388L798 395L802 402L806 406L809 406L817 411L818 417L824 426L823 428L826 431L835 434L832 437L832 441L835 443L835 445L837 445L837 447L841 444L853 455L852 461L858 463L857 469L861 474L860 477L864 485L862 491L864 501L869 505L869 509L873 514L878 514L877 517L881 525L882 533L887 539L888 538L894 550L890 558L890 563L893 567L893 573L896 578L902 581L909 582L910 579L908 575L910 573L913 573L916 578L923 582L924 587L931 587L879 587L854 572L849 572L846 575L828 562L825 558L827 556L826 554L823 551L819 551L827 527L828 500L825 495L825 492L819 486L815 478L811 478L803 473L802 474L781 456L775 454L771 449L765 449L761 454L759 454L753 448L753 445L750 441L745 439L742 440L734 432L730 431L728 433L727 431L722 430L722 428L720 428L719 419L709 412L705 407L696 402L693 396L694 395L697 397L701 396L704 398L706 397L710 399L719 399L727 394L728 395L731 389z"/></g><g><path class="class-0 leaflet-clickable" stroke-linejoin="round" stroke-linecap="round" fill-rule="evenodd" stroke="#005540" stroke-opacity="1" stroke-width="0.5" fill="#ddfff6" fill-opacity="0.5" d="M670 371L669 372z"/></g><g><path class="class-0 leaflet-clickable" stroke-linejoin="round" stroke-linecap="round" fill-rule="evenodd" stroke="#005540" stroke-opacity="1" stroke-width="0.5" fill="#ddfff6" fill-opacity="0.5" d="M686 368L689 374L688 385L686 386L680 382L685 377L685 369z"/></g><g><path class="class-0 leaflet-clickable" stroke-linejoin="round" stroke-linecap="round" fill-rule="evenodd" stroke="#005540" stroke-opacity="1" stroke-width="0.5" fill="#ddfff6" fill-opacity="0.5" d="M792 353L794 353L798 357L797 358L793 354z"/></g><g><path class="class-0 leaflet-clickable" stroke-linejoin="round" stroke-linecap="round" fill-rule="evenodd" stroke="#005540" stroke-opacity="1" stroke-width="0.5" fill="#ddfff6" fill-opacity="0.5" d="M763 331L764 333z"/></g><g><path class="class-0 leaflet-clickable" stroke-linejoin="round" stroke-linecap="round" fill-rule="evenodd" stroke="#005540" stroke-opacity="1" stroke-width="0.5" fill="#ddfff6" fill-opacity="0.5" d="M764 307L771 314L771 320L779 321L779 329L783 333L782 337L763 318L760 312L762 308z"/></g><g><path class="class-0 leaflet-clickable" stroke-linejoin="round" stroke-linecap="round" fill-rule="evenodd" stroke="#005540" stroke-opacity="1" stroke-width="0.5" fill="#ddfff6" fill-opacity="0.5" d="M545 327L545 330L548 332L548 342L546 342L541 328L545 326z"/></g><g><path class="class-0 leaflet-clickable" stroke-linejoin="round" stroke-linecap="round" fill-rule="evenodd" stroke="#005540" stroke-opacity="1" stroke-width="0.5" fill="#ddfff6" fill-opacity="0.5" d="M723 284L724 285L722 285z"/></g><g><path class="class-0 leaflet-clickable" stroke-linejoin="round" stroke-linecap="round" fill-rule="evenodd" stroke="#005540" stroke-opacity="1" stroke-width="0.5" fill="#ddfff6" fill-opacity="0.5" d="M708 202L707 201z"/></g><g><path class="class-0 leaflet-clickable" stroke-linejoin="round" stroke-linecap="round" fill-rule="evenodd" stroke="#005540" stroke-opacity="1" stroke-width="0.5" fill="#ddfff6" fill-opacity="0.5" d="M708 188L712 194L711 195L709 195L706 192L705 187L707 187z"/></g><g><path class="class-0 leaflet-clickable" stroke-linejoin="round" stroke-linecap="round" fill-rule="evenodd" stroke="#005540" stroke-opacity="1" stroke-width="0.5" fill="#ddfff6" fill-opacity="0.5" d="M705 151L699 152L698 159L694 163L694 165L697 168L698 182L704 187L706 195L702 208L701 223L702 226L705 228L704 231L708 234L710 238L710 250L713 257L713 270L711 273L717 285L723 289L724 295L728 297L731 296L758 321L759 323L757 325L763 334L763 342L766 340L765 339L770 339L769 340L771 346L776 344L778 346L782 362L787 364L792 363L794 365L793 374L797 378L796 385L798 388L732 388L739 377L736 374L740 363L737 359L734 358L735 357L733 354L730 354L720 339L714 337L714 333L711 330L709 330L708 327L697 316L688 313L682 307L679 307L675 303L673 304L669 299L668 300L664 296L664 289L662 286L660 286L661 279L659 267L654 262L651 264L649 260L648 242L638 232L635 232L637 223L627 208L623 206L623 204L619 200L621 200L621 195L617 191L622 191L623 186L617 183L616 180L610 176L611 174L609 166L608 164L603 162L600 153L600 149L664 142L709 139L705 146L705 150z"/></g></svg>