<svg xmlns="http://www.w3.org/2000/svg" class="leaflet-zoom-animated" width="1974" height="836" viewBox="-308 -130 1974 836" style="transform: translate3d(-308px, -130px, 0px);"><g><path class="class-3 leaflet-clickable" stroke-linejoin="round" stroke-linecap="round" fill-rule="evenodd" stroke="#005540" stroke-opacity="1" stroke-width="0.5" fill="#086" fill-opacity="0.5" d="M378 444L378 444z"/></g><g><path class="class-3 leaflet-clickable" stroke-linejoin="round" stroke-linecap="round" fill-rule="evenodd" stroke="#005540" stroke-opacity="1" stroke-width="0.5" fill="#086" fill-opacity="0.5" d="M463 432L465 434L464 435L462 433L463 432z"/></g><g><path class="class-3 leaflet-clickable" stroke-linejoin="round" stroke-linecap="round" fill-rule="evenodd" stroke="#005540" stroke-opacity="1" stroke-width="0.5" fill="#086" fill-opacity="0.5" d="M634 429L628 436L614 426L607 424L608 425L611 422L612 423L620 421L619 420L621 416L626 419L630 416L634 420L634 429z"/></g><g><path class="class-3 leaflet-clickable" stroke-linejoin="round" stroke-linecap="round" fill-rule="evenodd" stroke="#005540" stroke-opacity="1" stroke-width="0.5" fill="#086" fill-opacity="0.5" d="M467 422L467 421z"/></g><g><path class="class-3 leaflet-clickable" stroke-linejoin="round" stroke-linecap="round" fill-rule="evenodd" stroke="#005540" stroke-opacity="1" stroke-width="0.5" fill="#086" fill-opacity="0.5" d="M572 371L571 371z"/></g><g><path class="class-3 leaflet-clickable" stroke-linejoin="round" stroke-linecap="round" fill-rule="evenodd" stroke="#005540" stroke-opacity="1" stroke-width="0.5" fill="#086" fill-opacity="0.5" d="M567 368L569 369L568 370L566 368z"/></g><g><path class="class-3 leaflet-clickable" stroke-linejoin="round" stroke-linecap="round" fill-rule="evenodd" stroke="#005540" stroke-opacity="1" stroke-width="0.5" fill="#086" fill-opacity="0.5" d="M562 363L564 363L565 366L563 366L562 364z"/></g><g><path class="class-3 leaflet-clickable" stroke-linejoin="round" stroke-linecap="round" fill-rule="evenodd" stroke="#005540" stroke-opacity="1" stroke-width="0.5" fill="#086" fill-opacity="0.5" d="M562 361L561 362z"/></g><g><path class="class-3 leaflet-clickable" stroke-linejoin="round" stroke-linecap="round" fill-rule="evenodd" stroke="#005540" stroke-opacity="1" stroke-width="0.5" fill="#086" fill-opacity="0.5" d="M614 346L616 347L614 356L618 356L619 360L623 361L625 363L624 366L629 370L626 373L627 374L617 376L618 381L614 385L617 387L617 389L606 380L597 382L594 388L592 386L587 386L595 376L595 367L594 368L589 364L585 356L585 349L582 343L583 342L583 344L585 341L590 343L588 339L588 333L591 329L592 332L600 332L599 333L602 337L598 339L600 343L604 340L609 344L610 347L614 345z"/></g><g><path class="class-3 leaflet-clickable" stroke-linejoin="round" stroke-linecap="round" fill-rule="evenodd" stroke="#005540" stroke-opacity="1" stroke-width="0.5" fill="#086" fill-opacity="0.5" d="M908 470L911 473L912 472L912 474L916 476L915 477L920 481L925 483L926 488L932 491L931 498L902 498L891 518L894 522L891 527L892 531L890 535L862 507L854 501L849 500L847 496L849 495L849 492L847 489L853 473L861 466L861 464L865 460L864 458L867 453L870 455L870 457L872 457L871 459L874 465L875 464L877 466L876 467L877 466L879 468L883 463L888 462L887 461L893 458L893 456L896 454L899 455L899 459L903 460L903 466L908 467L909 470z"/></g><g><path class="class-2 leaflet-clickable" stroke-linejoin="round" stroke-linecap="round" fill-rule="evenodd" stroke="#005540" stroke-opacity="1" stroke-width="0.5" fill="#00cc99" fill-opacity="0.5" d="M719 368L718 371L719 373L721 373L717 376L713 375L714 376L712 382L703 382L700 385L702 393L706 398L704 402L705 405L692 406L689 402L687 402L687 404L683 404L681 402L681 400L683 399L680 398L680 396L678 396L675 399L669 399L669 397L666 394L669 391L666 384L669 382L673 374L676 373L675 370L677 370L676 367L678 363L677 362L679 360L685 360L687 362L689 361L697 367L703 367L704 363L706 363L716 369L718 368z"/></g><g><path class="class-2 leaflet-clickable" stroke-linejoin="round" stroke-linecap="round" fill-rule="evenodd" stroke="#005540" stroke-opacity="1" stroke-width="0.5" fill="#00cc99" fill-opacity="0.5" d="M503 248L507 248L512 244L513 241L517 239L521 229L527 230L526 233L528 233L531 236L531 245L537 253L546 253L548 256L547 258L553 262L553 264L555 264L552 267L550 267L551 270L549 271L551 275L551 280L553 280L556 286L561 289L564 295L563 296L566 299L569 299L569 297L575 299L577 305L580 308L578 308L579 316L582 317L584 321L583 322L585 324L585 328L591 329L588 333L588 340L589 339L590 342L589 343L585 341L584 344L566 325L565 321L559 315L554 307L536 294L520 274L507 269L504 265L500 265L498 257L503 248z"/></g><g><path class="class-2 leaflet-clickable" stroke-linejoin="round" stroke-linecap="round" fill-rule="evenodd" stroke="#005540" stroke-opacity="1" stroke-width="0.5" fill="#00cc99" fill-opacity="0.5" d="M764 349L766 357L774 366L772 372L773 378L780 392L787 398L794 407L797 419L802 424L802 426L805 427L807 432L812 435L821 435L831 440L838 449L847 447L848 456L856 460L858 463L858 470L856 470L853 473L829 472L830 470L825 467L821 462L823 460L822 459L820 459L814 464L811 464L807 459L809 454L808 449L800 449L801 448L800 449L798 447L793 438L789 437L788 444L786 440L782 439L780 441L777 437L774 436L776 431L775 428L782 422L773 419L774 418L772 416L772 414L775 411L775 407L779 401L772 398L769 402L765 400L766 397L764 395L765 393L766 394L769 392L766 391L764 384L762 384L761 390L759 391L757 388L756 391L751 395L746 396L747 395L745 392L748 390L749 387L747 388L751 383L751 385L753 385L754 380L756 378L752 376L753 375L750 376L747 373L748 370L747 371L744 365L749 361L746 356L748 357L749 353L752 350L744 346L750 346L753 344L759 347L762 351L763 349z"/></g><g><path class="class-2 leaflet-clickable" stroke-linejoin="round" stroke-linecap="round" fill-rule="evenodd" stroke="#005540" stroke-opacity="1" stroke-width="0.5" fill="#00cc99" fill-opacity="0.5" d="M428 186L427 188L427 186z"/></g><g><path class="class-2 leaflet-clickable" stroke-linejoin="round" stroke-linecap="round" fill-rule="evenodd" stroke="#005540" stroke-opacity="1" stroke-width="0.5" fill="#00cc99" fill-opacity="0.5" d="M434 173L436 179L433 186L428 182L429 175L433 173z"/></g><g><path class="class-2 leaflet-clickable" stroke-linejoin="round" stroke-linecap="round" fill-rule="evenodd" stroke="#005540" stroke-opacity="1" stroke-width="0.5" fill="#00cc99" fill-opacity="0.5" d="M379 106L381 106L380 107z"/></g><g><path class="class-2 leaflet-clickable" stroke-linejoin="round" stroke-linecap="round" fill-rule="evenodd" stroke="#005540" stroke-opacity="1" stroke-width="0.5" fill="#00cc99" fill-opacity="0.5" d="M376 86L456 115L461 118L514 118L513 120L511 120L512 123L515 125L514 126L516 126L513 126L513 129L510 129L510 132L512 135L511 136L518 141L517 144L519 145L517 145L517 158L519 158L519 160L516 160L517 166L515 168L515 182L518 186L520 196L508 198L507 202L511 209L510 210L514 213L516 217L518 222L516 224L519 231L522 231L516 239L516 241L514 241L511 244L511 246L503 248L503 244L501 241L496 238L491 238L487 229L479 227L475 223L472 223L473 209L471 207L470 208L466 206L466 208L464 208L464 206L458 204L452 195L448 193L442 186L443 184L436 180L436 173L434 170L433 171L431 169L432 167L428 162L426 156L423 155L423 148L415 134L416 122L410 119L403 118L403 114L398 110L390 113L381 106L374 103L372 96L373 95L371 93L373 91L373 87L376 87zM467 205L467 206z"/></g><g><path class="class-1 leaflet-clickable" stroke-linejoin="round" stroke-linecap="round" fill-rule="evenodd" stroke="#005540" stroke-opacity="1" stroke-width="0.5" fill="#7fd" fill-opacity="0.5" d="M788 443L784 447L779 449L776 448L771 452L769 452L767 446L763 446L763 453L765 451L766 452L764 452L761 455L759 453L755 453L755 455L750 456L749 453L745 454L735 446L735 444L738 441L743 442L742 434L745 428L744 417L746 417L755 426L758 423L761 425L763 422L767 421L764 417L761 416L762 415L760 413L758 413L758 411L753 412L754 411L752 408L757 401L755 398L752 398L755 397L761 390L762 384L765 385L765 389L769 392L764 395L766 397L765 400L769 402L772 398L778 401L772 416L774 418L773 419L782 422L780 424L781 425L777 424L774 437L775 436L780 441L784 439L788 443z"/></g><g><path class="class-1 leaflet-clickable" stroke-linejoin="round" stroke-linecap="round" fill-rule="evenodd" stroke="#005540" stroke-opacity="1" stroke-width="0.5" fill="#7fd" fill-opacity="0.5" d="M919 457L919 470L908 470L909 467L903 465L904 462L900 459L900 455L896 455L889 460L888 459L888 461L886 463L882 463L882 465L879 468L877 466L876 467L877 466L875 464L873 464L871 459L872 456L870 456L871 455L868 453L865 454L865 460L861 464L859 469L857 467L859 463L857 463L853 458L848 456L849 452L847 448L863 442L876 442L879 440L879 438L884 437L887 442L891 442L892 449L895 450L896 452L904 456L904 450L907 448L907 450L913 453L919 453L919 455z"/></g><g><path class="class-1 leaflet-clickable" stroke-linejoin="round" stroke-linecap="round" fill-rule="evenodd" stroke="#005540" stroke-opacity="1" stroke-width="0.5" fill="#7fd" fill-opacity="0.5" d="M359 197L358 197z"/></g><g><path class="class-1 leaflet-clickable" stroke-linejoin="round" stroke-linecap="round" fill-rule="evenodd" stroke="#005540" stroke-opacity="1" stroke-width="0.5" fill="#7fd" fill-opacity="0.5" d="M367 195L369 201L368 204L364 202L367 199L367 196z"/></g><g><path class="class-1 leaflet-clickable" stroke-linejoin="round" stroke-linecap="round" fill-rule="evenodd" stroke="#005540" stroke-opacity="1" stroke-width="0.5" fill="#7fd" fill-opacity="0.5" d="M420 187L423 189L422 190L421 188z"/></g><g><path class="class-1 leaflet-clickable" stroke-linejoin="round" stroke-linecap="round" fill-rule="evenodd" stroke="#005540" stroke-opacity="1" stroke-width="0.5" fill="#7fd" fill-opacity="0.5" d="M406 176L406 177z"/></g><g><path class="class-1 leaflet-clickable" stroke-linejoin="round" stroke-linecap="round" fill-rule="evenodd" stroke="#005540" stroke-opacity="1" stroke-width="0.5" fill="#7fd" fill-opacity="0.5" d="M406 165L409 167L409 170L411 172L414 171L414 179L404 168L405 165z"/></g><g><path class="class-1 leaflet-clickable" stroke-linejoin="round" stroke-linecap="round" fill-rule="evenodd" stroke="#005540" stroke-opacity="1" stroke-width="0.5" fill="#7fd" fill-opacity="0.5" d="M296 174L298 177L297 182L295 177L296 174z"/></g><g><path class="class-1 leaflet-clickable" stroke-linejoin="round" stroke-linecap="round" fill-rule="evenodd" stroke="#005540" stroke-opacity="1" stroke-width="0.5" fill="#7fd" fill-opacity="0.5" d="M385 153L385 154z"/></g><g><path class="class-1 leaflet-clickable" stroke-linejoin="round" stroke-linecap="round" fill-rule="evenodd" stroke="#005540" stroke-opacity="1" stroke-width="0.5" fill="#7fd" fill-opacity="0.5" d="M378 112L378 112z"/></g><g><path class="class-1 leaflet-clickable" stroke-linejoin="round" stroke-linecap="round" fill-rule="evenodd" stroke="#005540" stroke-opacity="1" stroke-width="0.5" fill="#7fd" fill-opacity="0.5" d="M378 105L380 107L379 108L377 108L377 105z"/></g><g><path class="class-1 leaflet-clickable" stroke-linejoin="round" stroke-linecap="round" fill-rule="evenodd" stroke="#005540" stroke-opacity="1" stroke-width="0.5" fill="#7fd" fill-opacity="0.5" d="M376 86L373 88L371 93L373 95L373 102L376 103L377 105L377 110L375 113L375 123L379 129L379 137L381 142L380 149L386 157L386 159L389 159L403 172L406 182L408 180L410 184L413 184L415 191L421 195L420 197L422 199L422 205L390 205L393 201L392 198L394 194L392 190L387 186L387 184L384 181L382 181L381 177L378 176L378 174L356 159L357 157L354 153L354 146L348 140L349 134L343 127L342 128L341 119L334 112L335 109L333 106L334 107L335 104L329 99L329 96L324 88L324 85L378 80L376 86z"/></g><g><path class="class-1 leaflet-clickable" stroke-linejoin="round" stroke-linecap="round" fill-rule="evenodd" stroke="#005540" stroke-opacity="1" stroke-width="0.5" fill="#7fd" fill-opacity="0.5" d="M737 427L740 430L744 428L742 434L743 441L742 442L740 440L735 444L729 441L725 436L730 425L737 427z"/></g><g><path class="class-1 leaflet-clickable" stroke-linejoin="round" stroke-linecap="round" fill-rule="evenodd" stroke="#005540" stroke-opacity="1" stroke-width="0.5" fill="#7fd" fill-opacity="0.5" d="M490 302L488 302L488 297L490 301z"/></g><g><path class="class-1 leaflet-clickable" stroke-linejoin="round" stroke-linecap="round" fill-rule="evenodd" stroke="#005540" stroke-opacity="1" stroke-width="0.5" fill="#7fd" fill-opacity="0.5" d="M478 293L478 296L477 293z"/></g><g><path class="class-1 leaflet-clickable" stroke-linejoin="round" stroke-linecap="round" fill-rule="evenodd" stroke="#005540" stroke-opacity="1" stroke-width="0.5" fill="#7fd" fill-opacity="0.5" d="M477 291L477 292z"/></g><g><path class="class-1 leaflet-clickable" stroke-linejoin="round" stroke-linecap="round" fill-rule="evenodd" stroke="#005540" stroke-opacity="1" stroke-width="0.5" fill="#7fd" fill-opacity="0.5" d="M470 279L473 281L474 284L470 280z"/></g><g><path class="class-1 leaflet-clickable" stroke-linejoin="round" stroke-linecap="round" fill-rule="evenodd" stroke="#005540" stroke-opacity="1" stroke-width="0.5" fill="#7fd" fill-opacity="0.5" d="M470 273L469 275L470 273z"/></g><g><path class="class-1 leaflet-clickable" stroke-linejoin="round" stroke-linecap="round" fill-rule="evenodd" stroke="#005540" stroke-opacity="1" stroke-width="0.5" fill="#7fd" fill-opacity="0.5" d="M468 263L469 266L468 264z"/></g><g><path class="class-1 leaflet-clickable" stroke-linejoin="round" stroke-linecap="round" fill-rule="evenodd" stroke="#005540" stroke-opacity="1" stroke-width="0.5" fill="#7fd" fill-opacity="0.5" d="M462 263L462 265L462 263z"/></g><g><path class="class-1 leaflet-clickable" stroke-linejoin="round" stroke-linecap="round" fill-rule="evenodd" stroke="#005540" stroke-opacity="1" stroke-width="0.5" fill="#7fd" fill-opacity="0.5" d="M462 254L462 256L460 256L458 260L459 261L458 258L459 255L461 255z"/></g><g><path class="class-1 leaflet-clickable" stroke-linejoin="round" stroke-linecap="round" fill-rule="evenodd" stroke="#005540" stroke-opacity="1" stroke-width="0.5" fill="#7fd" fill-opacity="0.5" d="M457 252L457 252z"/></g><g><path class="class-1 leaflet-clickable" stroke-linejoin="round" stroke-linecap="round" fill-rule="evenodd" stroke="#005540" stroke-opacity="1" stroke-width="0.5" fill="#7fd" fill-opacity="0.5" d="M439 224L439 226L438 224z"/></g><g><path class="class-1 leaflet-clickable" stroke-linejoin="round" stroke-linecap="round" fill-rule="evenodd" stroke="#005540" stroke-opacity="1" stroke-width="0.5" fill="#7fd" fill-opacity="0.5" d="M442 219L441 219z"/></g><g><path class="class-1 leaflet-clickable" stroke-linejoin="round" stroke-linecap="round" fill-rule="evenodd" stroke="#005540" stroke-opacity="1" stroke-width="0.5" fill="#7fd" fill-opacity="0.5" d="M368 208L368 208z"/></g><g><path class="class-1 leaflet-clickable" stroke-linejoin="round" stroke-linecap="round" fill-rule="evenodd" stroke="#005540" stroke-opacity="1" stroke-width="0.5" fill="#7fd" fill-opacity="0.5" d="M390 205L423 205L425 212L433 218L436 224L435 225L442 229L440 230L440 232L442 234L444 233L447 235L450 241L453 243L452 244L456 254L456 262L461 268L463 268L464 274L471 285L469 293L472 300L478 302L478 298L481 298L486 302L486 305L490 306L490 308L493 311L493 314L498 317L499 324L495 329L486 334L483 330L481 320L477 316L473 314L461 302L451 297L446 298L436 290L436 287L433 286L438 274L438 261L432 250L425 248L410 236L408 235L405 238L398 231L394 231L391 227L387 227L384 224L383 220L370 209L371 208L383 211L389 208L390 206z"/></g><g><path class="class-1 leaflet-clickable" stroke-linejoin="round" stroke-linecap="round" fill-rule="evenodd" stroke="#005540" stroke-opacity="1" stroke-width="0.5" fill="#7fd" fill-opacity="0.5" d="M717 211L720 213L715 216L715 218L719 219L721 228L719 233L723 234L721 238L727 241L726 247L730 250L732 249L733 255L736 253L738 257L740 255L746 255L746 269L749 269L739 279L735 278L732 281L732 287L729 286L725 288L724 291L720 292L720 294L722 294L723 296L721 303L726 309L723 312L717 312L714 317L715 322L712 321L710 323L712 323L711 325L708 325L709 323L707 323L706 325L705 324L706 327L703 326L703 313L701 310L702 304L699 302L700 297L695 292L695 285L697 283L695 282L695 277L697 275L708 276L708 274L704 273L699 268L701 268L696 265L693 254L686 247L696 237L698 240L699 239L701 235L701 229L695 229L694 226L698 222L704 220L705 213L709 210L713 214L715 213z"/></g><g><path class="class-1 leaflet-clickable" stroke-linejoin="round" stroke-linecap="round" fill-rule="evenodd" stroke="#005540" stroke-opacity="1" stroke-width="0.5" fill="#7fd" fill-opacity="0.5" d="M744 417L743 414L749 414L752 412L751 411L757 411L762 415L762 417L764 417L767 420L766 422L763 421L761 424L758 423L755 426L748 420L747 417L745 418z"/></g><g><path class="class-1 leaflet-clickable" stroke-linejoin="round" stroke-linecap="round" fill-rule="evenodd" stroke="#005540" stroke-opacity="1" stroke-width="0.5" fill="#7fd" fill-opacity="0.5" d="M737 427L733 427L728 423L733 414L737 421L737 426z"/></g><g><path class="class-1 leaflet-clickable" stroke-linejoin="round" stroke-linecap="round" fill-rule="evenodd" stroke="#005540" stroke-opacity="1" stroke-width="0.5" fill="#7fd" fill-opacity="0.5" d="M717 211L713 215L709 210L705 213L704 220L698 222L694 226L695 229L701 229L701 235L699 239L698 240L696 237L686 247L695 258L694 261L698 267L701 268L699 268L703 271L703 273L708 273L708 276L697 275L695 277L695 281L697 283L695 285L694 292L692 293L684 286L678 288L676 286L677 285L663 278L657 278L658 281L653 279L648 288L639 282L640 281L634 275L634 273L636 271L637 272L634 268L638 262L637 252L639 249L637 241L629 238L629 236L626 233L628 230L624 210L625 209L623 209L623 206L625 206L625 203L631 192L630 191L638 179L642 180L643 177L647 173L648 174L647 172L649 170L650 164L654 159L658 159L661 156L672 159L680 158L682 162L684 162L684 164L685 163L685 165L698 176L702 188L706 193L705 194L717 210z"/></g><g><path class="class-1 leaflet-clickable" stroke-linejoin="round" stroke-linecap="round" fill-rule="evenodd" stroke="#005540" stroke-opacity="1" stroke-width="0.5" fill="#7fd" fill-opacity="0.5" d="M759 392L755 397L752 398L756 399L756 401L752 407L754 410L751 411L752 412L750 414L744 414L745 409L742 407L738 407L737 409L736 406L738 404L736 403L736 405L733 404L731 408L729 408L728 410L728 408L725 405L725 400L722 401L717 398L717 391L722 390L724 388L728 379L727 378L735 376L737 372L738 375L744 376L744 372L748 370L747 373L750 376L753 375L752 376L754 376L756 379L753 383L754 385L749 384L746 388L748 387L746 396L751 395L757 389L759 391z"/></g><g><path class="class-1 leaflet-clickable" stroke-linejoin="round" stroke-linecap="round" fill-rule="evenodd" stroke="#005540" stroke-opacity="1" stroke-width="0.5" fill="#7fd" fill-opacity="0.5" d="M997 368L997 380L994 386L983 398L977 398L971 404L969 404L968 407L966 407L967 408L961 414L960 413L957 415L954 413L950 407L950 404L947 400L945 400L941 393L938 394L933 391L932 384L934 379L944 374L970 370L974 367L979 367L982 365L997 368z"/></g><g><path class="class-1 leaflet-clickable" stroke-linejoin="round" stroke-linecap="round" fill-rule="evenodd" stroke="#005540" stroke-opacity="1" stroke-width="0.5" fill="#7fd" fill-opacity="0.5" d="M947 341L950 342L951 344L949 346L946 343L947 341z"/></g><g><path class="class-1 leaflet-clickable" stroke-linejoin="round" stroke-linecap="round" fill-rule="evenodd" stroke="#005540" stroke-opacity="1" stroke-width="0.5" fill="#7fd" fill-opacity="0.5" d="M932 384L932 391L936 391L937 394L940 393L945 397L944 398L950 404L953 412L960 418L960 457L919 457L919 453L909 451L906 449L907 448L904 451L904 455L892 449L892 444L888 442L885 438L888 436L896 436L899 438L916 428L925 420L925 412L931 405L930 391L932 384z"/></g><g><path class="class-1 leaflet-clickable" stroke-linejoin="round" stroke-linecap="round" fill-rule="evenodd" stroke="#005540" stroke-opacity="1" stroke-width="0.5" fill="#7fd" fill-opacity="0.5" d="M629 238L637 241L639 249L637 252L638 261L634 268L638 272L635 272L634 275L640 281L639 282L646 287L648 287L653 279L657 294L656 296L653 297L649 297L648 295L638 295L626 306L627 315L625 315L625 317L622 319L619 326L618 331L620 336L616 337L616 344L611 347L607 342L605 342L605 340L603 340L601 343L599 341L598 339L602 337L599 333L600 332L592 332L590 328L587 329L585 327L583 322L584 321L581 316L579 317L578 308L580 309L578 307L577 302L572 297L569 297L569 299L565 299L561 289L551 280L549 271L551 269L550 268L555 265L554 264L557 267L561 267L566 263L564 264L564 258L567 257L566 254L571 246L573 236L574 237L576 234L578 237L579 236L582 239L583 238L589 243L597 243L598 245L604 243L609 247L617 235L621 237L626 237z"/></g><g><path class="class-1 leaflet-clickable" stroke-linejoin="round" stroke-linecap="round" fill-rule="evenodd" stroke="#005540" stroke-opacity="1" stroke-width="0.5" fill="#7fd" fill-opacity="0.5" d="M717 398L722 401L725 400L725 407L728 409L727 410L731 407L731 405L736 405L736 403L737 409L739 407L742 407L745 410L743 414L745 418L745 428L740 430L737 427L737 421L735 419L734 414L728 421L730 425L729 430L726 431L727 433L724 436L720 434L721 435L719 435L717 438L713 438L707 444L703 439L704 438L702 437L703 434L700 431L709 418L707 412L710 411L710 403L714 403L714 399L716 398z"/></g><g><path class="class-1 leaflet-clickable" stroke-linejoin="round" stroke-linecap="round" fill-rule="evenodd" stroke="#005540" stroke-opacity="1" stroke-width="0.5" fill="#7fd" fill-opacity="0.5" d="M735 373L734 376L730 378L729 376L724 386L725 388L717 391L717 398L715 397L715 402L711 404L708 401L708 398L706 398L702 394L700 385L703 382L711 382L712 379L713 380L713 375L719 375L721 373L718 372L720 366L727 370L732 364L734 373z"/></g><g><path class="class-0 leaflet-clickable" stroke-linejoin="round" stroke-linecap="round" fill-rule="evenodd" stroke="#005540" stroke-opacity="1" stroke-width="0.5" fill="#ddfff6" fill-opacity="0.5" d="M1001 443L1002 440L1002 442z"/></g><g><path class="class-0 leaflet-clickable" stroke-linejoin="round" stroke-linecap="round" fill-rule="evenodd" stroke="#005540" stroke-opacity="1" stroke-width="0.5" fill="#ddfff6" fill-opacity="0.5" d="M1003 435L1003 437L1003 435z"/></g><g><path class="class-0 leaflet-clickable" stroke-linejoin="round" stroke-linecap="round" fill-rule="evenodd" stroke="#005540" stroke-opacity="1" stroke-width="0.5" fill="#ddfff6" fill-opacity="0.5" d="M1015 391L1009 398L1009 394L1011 391L1016 390z"/></g><g><path class="class-0 leaflet-clickable" stroke-linejoin="round" stroke-linecap="round" fill-rule="evenodd" stroke="#005540" stroke-opacity="1" stroke-width="0.5" fill="#ddfff6" fill-opacity="0.5" d="M960 454L959 450L961 449L961 425L960 418L957 415L960 413L961 414L961 412L963 412L963 410L968 407L968 405L971 404L972 401L975 401L977 398L983 397L987 394L994 386L997 380L997 368L1004 370L1007 369L1008 366L1013 373L1013 370L1014 371L1014 379L1011 385L999 399L999 409L998 410L999 406L998 409L992 412L994 416L999 413L1000 414L999 418L994 420L994 424L997 421L999 421L997 423L989 449L986 449L986 443L981 443L981 441L975 441L973 447L970 449L967 455L963 452L961 454z"/></g><g><path class="class-0 leaflet-clickable" stroke-linejoin="round" stroke-linecap="round" fill-rule="evenodd" stroke="#005540" stroke-opacity="1" stroke-width="0.5" fill="#ddfff6" fill-opacity="0.5" d="M1007 365L1005 367L1000 368L1002 366L1006 366z"/></g><g><path class="class-2 leaflet-clickable" stroke-linejoin="round" stroke-linecap="round" fill-rule="evenodd" stroke="#005540" stroke-opacity="1" stroke-width="0.5" fill="#00cc99" fill-opacity="0.5" d="M638 179L630 191L631 192L625 202L625 207L624 206L623 209L625 209L625 223L627 224L628 229L626 234L629 236L629 238L617 235L615 236L616 237L609 247L605 243L599 245L597 243L592 244L591 242L590 243L584 240L583 238L582 239L579 236L578 237L576 234L575 237L573 237L574 238L571 242L571 246L566 253L567 257L564 258L564 264L566 262L562 267L558 267L547 258L548 257L545 252L537 253L535 251L531 245L531 237L528 233L526 233L526 229L520 231L518 230L519 229L518 230L518 227L516 225L518 222L516 219L517 217L515 216L514 212L510 210L512 209L507 202L507 198L520 196L520 192L515 181L516 176L514 174L514 172L516 172L515 168L517 166L516 160L519 159L517 157L517 145L519 146L516 138L512 137L510 133L510 130L513 129L513 126L516 126L514 126L515 125L512 123L513 121L511 121L514 118L527 118L527 106L530 105L567 106L572 113L575 116L577 116L588 128L598 135L600 135L600 137L602 137L603 143L607 148L607 156L610 159L610 161L614 165L618 166L617 167L620 170L627 172L638 179z"/></g><g><path class="class-1 leaflet-clickable" stroke-linejoin="round" stroke-linecap="round" fill-rule="evenodd" stroke="#005540" stroke-opacity="1" stroke-width="0.5" fill="#7fd" fill-opacity="0.5" d="M853 473L847 489L849 492L848 496L850 500L844 497L834 495L822 496L817 501L813 501L803 506L802 505L799 508L790 508L781 505L778 502L764 501L754 494L747 493L751 490L750 487L755 485L754 484L757 481L757 477L759 475L754 474L753 470L752 471L752 464L748 460L749 456L753 454L754 455L756 453L760 453L763 455L765 452L764 451L763 453L762 448L767 445L769 452L776 448L781 449L788 443L789 437L795 440L800 449L808 449L809 454L807 459L811 463L814 464L820 459L822 459L823 460L821 462L825 467L830 470L829 471L848 473z"/></g><g><path class="class-2 leaflet-clickable" stroke-linejoin="round" stroke-linecap="round" fill-rule="evenodd" stroke="#005540" stroke-opacity="1" stroke-width="0.5" fill="#00cc99" fill-opacity="0.5" d="M725 435L729 441L733 441L735 446L740 450L739 451L742 452L740 452L743 454L749 454L748 460L752 464L752 471L753 470L754 473L758 475L757 480L754 484L755 485L751 487L750 491L746 493L741 487L739 488L729 484L721 484L713 478L689 470L690 469L685 465L681 464L672 455L664 452L665 448L671 445L671 439L673 438L677 438L677 440L679 441L695 441L697 443L698 442L698 444L699 441L697 441L696 439L695 432L698 433L700 431L703 434L702 437L707 444L713 438L717 438L721 434L724 436z"/></g><g><path class="class-3 leaflet-clickable" stroke-linejoin="round" stroke-linecap="round" fill-rule="evenodd" stroke="#005540" stroke-opacity="1" stroke-width="0.5" fill="#086" fill-opacity="0.5" d="M705 397L709 399L708 401L711 404L710 405L712 408L710 408L708 412L709 419L706 420L704 426L698 433L695 432L696 439L699 441L699 444L695 441L692 442L690 440L684 439L680 441L674 438L671 439L670 441L671 446L664 449L664 455L634 445L628 436L634 429L639 428L642 430L645 427L645 425L646 426L646 424L651 422L652 423L654 421L655 417L651 417L652 415L649 410L651 408L650 406L644 405L644 402L647 401L646 400L651 401L657 396L664 395L668 395L667 396L669 396L671 400L675 400L676 397L680 396L680 398L683 399L681 399L681 402L683 404L687 404L687 402L689 402L692 406L702 406L705 405L704 402L706 398z"/></g><g><path class="class-3 leaflet-clickable" stroke-linejoin="round" stroke-linecap="round" fill-rule="evenodd" stroke="#005540" stroke-opacity="1" stroke-width="0.5" fill="#086" fill-opacity="0.5" d="M651 362L653 361L661 365L671 358L672 357L670 357L672 355L674 355L679 361L677 361L678 362L676 367L678 370L676 370L676 372L673 374L673 376L666 385L669 388L666 394L664 396L658 396L649 402L648 400L644 402L644 405L646 404L651 407L651 409L649 410L652 415L651 416L656 417L653 423L651 422L647 424L642 430L640 428L634 429L634 421L630 416L626 419L621 416L619 421L612 423L611 422L608 425L604 423L604 421L603 422L600 420L598 415L596 415L588 404L584 394L592 392L594 390L593 388L595 385L596 386L598 382L603 380L610 382L617 390L616 385L614 385L618 381L617 376L627 374L626 373L629 370L624 365L625 363L623 361L619 361L618 357L614 355L616 347L618 345L619 346L618 343L621 344L620 347L624 344L621 339L622 337L628 339L628 341L625 342L626 343L624 347L626 351L626 347L629 341L632 343L629 352L630 353L634 353L636 350L638 350L637 347L639 345L641 347L640 348L644 350L642 356L638 356L634 360L632 360L634 362L633 365L629 367L629 369L633 369L634 371L629 373L631 373L632 377L642 379L644 374L647 375L651 371L652 372L654 368L650 365L651 363z"/></g><g><path class="class-2 leaflet-clickable" stroke-linejoin="round" stroke-linecap="round" fill-rule="evenodd" stroke="#005540" stroke-opacity="1" stroke-width="0.5" fill="#00cc99" fill-opacity="0.5" d="M671 355L670 356L672 358L667 359L663 364L659 364L653 361L650 362L648 360L653 352L653 348L659 347L661 345L665 347L664 348L667 348L667 352L671 355z"/></g><g><path class="class-1 leaflet-clickable" stroke-linejoin="round" stroke-linecap="round" fill-rule="evenodd" stroke="#005540" stroke-opacity="1" stroke-width="0.5" fill="#7fd" fill-opacity="0.5" d="M764 349L762 351L754 344L752 344L751 346L744 345L742 347L735 345L733 346L725 337L724 341L721 339L717 339L716 337L711 337L713 335L711 332L713 330L711 328L712 323L710 323L712 321L715 322L714 317L717 312L723 312L725 309L725 307L721 303L723 296L720 294L720 292L724 291L725 288L729 286L731 287L733 283L732 281L735 278L738 279L749 270L746 269L746 255L740 255L738 257L736 253L733 255L732 249L730 250L726 247L727 241L721 239L723 234L719 233L721 229L719 219L715 218L715 216L720 213L724 216L726 230L730 234L734 246L736 245L738 247L743 248L743 250L749 250L754 255L767 255L772 260L774 259L773 258L778 257L778 263L771 276L766 294L764 336L762 339L763 348z"/></g><g><path class="class-3 leaflet-clickable" stroke-linejoin="round" stroke-linecap="round" fill-rule="evenodd" stroke="#005540" stroke-opacity="1" stroke-width="0.5" fill="#086" fill-opacity="0.5" d="M711 325L713 329L711 331L713 335L711 337L716 337L724 341L725 337L733 346L746 346L752 350L746 357L748 357L748 361L744 365L747 368L747 370L743 372L745 372L744 376L740 376L737 372L734 373L732 364L727 370L725 370L721 366L719 366L719 368L716 369L707 363L705 363L703 367L699 368L695 366L692 362L679 360L683 355L683 351L681 348L684 344L682 339L683 338L680 337L678 341L677 340L676 343L673 344L671 342L671 339L669 340L664 335L662 330L663 328L661 325L663 323L661 323L663 320L665 322L673 320L686 308L686 302L689 301L690 296L692 299L697 295L700 296L699 301L702 303L702 326L705 327L705 324L706 325L707 323L709 323L708 325L710 325z"/></g><g><path class="class-3 leaflet-clickable" stroke-linejoin="round" stroke-linecap="round" fill-rule="evenodd" stroke="#005540" stroke-opacity="1" stroke-width="0.5" fill="#086" fill-opacity="0.5" d="M695 292L697 295L692 299L690 297L689 301L687 302L686 308L681 313L673 320L668 322L665 322L663 320L661 323L663 323L661 325L665 336L669 340L671 339L671 342L673 344L676 343L680 337L683 338L682 339L684 343L682 344L681 348L683 350L683 355L680 359L679 360L678 358L671 355L667 352L667 348L666 349L661 345L659 347L653 348L653 352L648 359L651 363L651 366L654 368L653 371L651 371L647 375L644 374L644 378L642 379L638 379L631 376L629 372L633 371L633 369L629 369L629 367L633 365L634 362L632 360L642 355L644 350L642 348L641 349L639 345L637 347L638 350L636 350L635 353L629 352L632 349L632 344L631 342L629 342L627 343L626 351L624 347L626 343L625 342L628 341L628 339L625 337L621 338L624 343L621 347L621 343L619 343L617 347L615 346L616 338L620 336L618 331L621 319L626 315L627 316L626 306L630 302L632 302L632 299L634 299L636 295L648 295L651 297L656 296L657 291L653 283L653 280L658 281L657 278L666 279L671 281L673 284L677 285L676 286L678 288L684 286L687 288L688 291L692 293L695 292z"/></g></svg>