<svg xmlns="http://www.w3.org/2000/svg" class="leaflet-zoom-animated" width="2304" height="1048" viewBox="-603 -237 2304 1048" style="transform: translate3d(-603px, -237px, 0px);"><g><path class="class-3 leaflet-clickable" stroke-linejoin="round" stroke-linecap="round" fill-rule="evenodd" stroke="#005540" stroke-opacity="1" stroke-width="0.5" fill="#086" fill-opacity="0.5" d="M594 435L598 441L602 441L604 446L609 450L608 451L611 452L609 452L612 454L618 454L617 460L621 464L621 471L622 470L623 473L627 475L626 480L623 484L624 485L620 487L619 491L615 493L610 487L608 488L598 484L590 484L582 478L558 470L559 469L554 465L550 464L541 455L533 452L534 448L540 445L540 439L542 438L546 438L546 440L548 441L564 441L566 443L567 442L567 444L568 441L566 441L565 439L564 432L567 433L569 431L572 434L571 437L576 444L582 438L586 438L590 434L593 436z"/></g><g><path class="class-3 leaflet-clickable" stroke-linejoin="round" stroke-linecap="round" fill-rule="evenodd" stroke="#005540" stroke-opacity="1" stroke-width="0.5" fill="#086" fill-opacity="0.5" d="M441 371L440 371z"/></g><g><path class="class-3 leaflet-clickable" stroke-linejoin="round" stroke-linecap="round" fill-rule="evenodd" stroke="#005540" stroke-opacity="1" stroke-width="0.5" fill="#086" fill-opacity="0.5" d="M436 368L438 369L437 370L435 368z"/></g><g><path class="class-3 leaflet-clickable" stroke-linejoin="round" stroke-linecap="round" fill-rule="evenodd" stroke="#005540" stroke-opacity="1" stroke-width="0.5" fill="#086" fill-opacity="0.5" d="M431 363L433 363L434 366L432 366L431 364z"/></g><g><path class="class-3 leaflet-clickable" stroke-linejoin="round" stroke-linecap="round" fill-rule="evenodd" stroke="#005540" stroke-opacity="1" stroke-width="0.5" fill="#086" fill-opacity="0.5" d="M431 361L430 362z"/></g><g><path class="class-3 leaflet-clickable" stroke-linejoin="round" stroke-linecap="round" fill-rule="evenodd" stroke="#005540" stroke-opacity="1" stroke-width="0.5" fill="#086" fill-opacity="0.5" d="M483 346L485 347L483 356L487 356L488 360L492 361L494 363L493 366L498 370L495 373L496 374L486 376L487 381L483 385L486 387L486 389L475 380L466 382L463 388L461 386L456 386L464 376L464 367L463 368L458 364L454 356L454 349L451 343L452 342L452 344L454 341L459 343L457 339L457 333L460 329L461 332L469 332L468 333L471 337L467 339L469 343L473 340L478 344L479 347L483 345z"/></g><g><path class="class-3 leaflet-clickable" stroke-linejoin="round" stroke-linecap="round" fill-rule="evenodd" stroke="#005540" stroke-opacity="1" stroke-width="0.5" fill="#086" fill-opacity="0.5" d="M564 292L566 295L561 299L559 297L558 301L556 302L555 308L550 313L542 320L537 322L534 322L532 320L530 323L532 323L530 325L534 336L538 340L540 339L540 342L542 344L545 343L549 337L552 338L551 339L553 343L551 344L550 348L552 350L552 355L549 359L548 360L547 358L540 355L536 352L536 348L535 349L530 345L528 347L522 348L522 352L517 359L520 363L520 366L523 368L522 371L520 371L516 375L513 374L513 378L511 379L507 379L500 376L498 372L502 371L502 369L498 369L498 367L502 365L503 362L501 360L511 355L513 350L511 348L510 349L508 345L506 347L507 350L505 350L504 353L498 352L501 349L501 344L500 342L498 342L496 343L495 351L493 347L495 343L494 342L497 341L497 339L494 337L490 338L493 343L490 347L490 343L488 343L486 347L484 346L485 338L489 336L487 331L490 319L495 315L496 316L495 306L499 302L501 302L501 299L503 299L505 295L517 295L520 297L525 296L526 291L522 283L522 280L527 281L526 278L535 279L540 281L542 284L546 285L545 286L547 288L553 286L556 288L557 291L561 293L564 292z"/></g><g><path class="class-2 leaflet-clickable" stroke-linejoin="round" stroke-linecap="round" fill-rule="evenodd" stroke="#005540" stroke-opacity="1" stroke-width="0.5" fill="#00cc99" fill-opacity="0.5" d="M498 238L506 241L508 249L506 252L507 261L503 268L507 272L504 272L503 275L509 281L508 282L515 287L517 287L522 279L526 294L525 296L522 297L518 297L517 295L507 295L495 306L496 315L494 315L494 317L491 319L488 326L487 331L489 336L485 337L485 344L480 347L476 342L474 342L474 340L472 340L470 343L468 341L467 339L471 337L468 333L469 332L461 332L459 328L456 329L454 327L452 322L453 321L450 316L448 317L447 308L449 309L447 307L446 302L441 297L438 297L438 299L434 299L430 289L420 280L418 271L420 269L419 268L424 265L423 264L426 267L430 267L435 263L433 264L433 258L436 257L435 254L440 246L442 236L443 237L445 234L447 237L448 236L451 239L452 238L458 243L466 243L467 245L473 243L478 247L486 235L490 237L495 237z"/></g><g><path class="class-2 leaflet-clickable" stroke-linejoin="round" stroke-linecap="round" fill-rule="evenodd" stroke="#005540" stroke-opacity="1" stroke-width="0.5" fill="#00cc99" fill-opacity="0.5" d="M580 325L582 329L580 331L582 335L580 337L585 337L593 341L594 337L602 346L615 346L621 350L615 357L617 357L617 361L613 365L616 368L616 370L612 372L614 372L613 376L609 376L606 372L603 373L601 364L596 370L594 370L590 366L588 366L588 368L585 369L576 363L574 363L572 367L568 368L564 366L561 362L548 360L552 355L552 351L550 348L553 344L551 339L552 338L549 337L547 341L546 340L545 343L542 344L540 342L540 339L538 340L533 335L531 330L532 328L530 325L532 323L530 323L532 320L534 322L542 320L555 308L555 302L558 301L559 296L561 299L566 295L569 296L568 301L571 303L571 326L574 327L574 324L575 325L576 323L578 323L577 325L579 325z"/></g><g><path class="class-2 leaflet-clickable" stroke-linejoin="round" stroke-linecap="round" fill-rule="evenodd" stroke="#005540" stroke-opacity="1" stroke-width="0.5" fill="#00cc99" fill-opacity="0.5" d="M628 392L624 397L621 398L625 399L625 401L621 407L623 410L620 411L621 412L619 414L613 414L614 409L611 407L607 407L606 409L605 406L607 404L605 403L605 405L602 404L600 408L598 408L597 410L597 408L594 405L594 400L591 401L586 398L586 391L591 390L593 388L597 379L596 378L604 376L606 372L607 375L613 376L613 372L617 370L616 373L619 376L622 375L621 376L623 376L625 379L622 383L623 385L618 384L615 388L617 387L615 396L620 395L626 389L628 391z"/></g><g><path class="class-1 leaflet-clickable" stroke-linejoin="round" stroke-linecap="round" fill-rule="evenodd" stroke="#005540" stroke-opacity="1" stroke-width="0.5" fill="#7fd" fill-opacity="0.5" d="M613 417L612 414L618 414L621 412L620 411L626 411L631 415L631 417L633 417L636 420L635 422L632 421L630 424L627 423L624 426L617 420L616 417L614 418z"/></g><g><path class="class-1 leaflet-clickable" stroke-linejoin="round" stroke-linecap="round" fill-rule="evenodd" stroke="#005540" stroke-opacity="1" stroke-width="0.5" fill="#7fd" fill-opacity="0.5" d="M574 397L578 399L577 401L580 404L579 405L581 408L579 408L577 412L578 419L575 420L573 426L567 433L564 432L565 439L568 441L568 444L564 441L561 442L559 440L553 439L549 441L543 438L540 439L539 441L540 446L533 449L533 455L503 445L497 436L503 429L508 428L511 430L514 427L514 425L515 426L515 424L520 422L521 423L523 421L524 417L520 417L521 415L518 410L520 408L519 406L513 405L513 402L516 401L515 400L520 401L526 396L533 395L537 395L536 396L538 396L540 400L544 400L545 397L549 396L549 398L552 399L550 399L550 402L552 404L556 404L556 402L558 402L561 406L571 406L574 405L573 402L575 398z"/></g><g><path class="class-1 leaflet-clickable" stroke-linejoin="round" stroke-linecap="round" fill-rule="evenodd" stroke="#005540" stroke-opacity="1" stroke-width="0.5" fill="#7fd" fill-opacity="0.5" d="M507 179L499 191L500 192L494 202L494 207L493 206L492 209L494 209L494 223L496 224L497 229L495 234L498 236L498 238L486 235L484 236L485 237L478 247L474 243L468 245L466 243L461 244L460 242L459 243L453 240L452 238L451 239L448 236L447 237L445 234L444 237L442 237L443 238L440 242L440 246L435 253L436 257L433 258L433 264L435 262L431 267L427 267L416 258L417 257L414 252L406 253L404 251L400 245L400 237L397 233L395 233L395 229L389 231L387 230L388 229L387 230L387 227L385 225L387 222L385 219L386 217L384 216L383 212L379 210L381 209L376 202L376 198L389 196L389 192L384 181L385 176L383 174L383 172L385 172L384 168L386 166L385 160L388 159L386 157L386 145L388 146L385 138L381 137L379 133L379 130L382 129L382 126L385 126L383 126L384 125L381 123L382 121L380 121L383 118L396 118L396 106L399 105L436 106L441 113L444 116L446 116L457 128L467 135L469 135L469 137L471 137L472 143L476 148L476 156L479 159L479 161L483 165L487 166L486 167L489 170L496 172L507 179z"/></g><g><path class="class-1 leaflet-clickable" stroke-linejoin="round" stroke-linecap="round" fill-rule="evenodd" stroke="#005540" stroke-opacity="1" stroke-width="0.5" fill="#7fd" fill-opacity="0.5" d="M540 355L539 356L541 358L536 359L532 364L528 364L522 361L519 362L517 360L522 352L522 348L528 347L530 345L534 347L533 348L536 348L536 352L540 355z"/></g><g><path class="class-1 leaflet-clickable" stroke-linejoin="round" stroke-linecap="round" fill-rule="evenodd" stroke="#005540" stroke-opacity="1" stroke-width="0.5" fill="#7fd" fill-opacity="0.5" d="M604 373L603 376L599 378L598 376L593 386L594 388L586 391L586 398L584 397L584 402L580 404L577 401L577 398L575 398L571 394L569 385L572 382L580 382L581 379L582 380L582 375L588 375L590 373L587 372L589 366L596 370L601 364L603 373z"/></g><g><path class="class-1 leaflet-clickable" stroke-linejoin="round" stroke-linecap="round" fill-rule="evenodd" stroke="#005540" stroke-opacity="1" stroke-width="0.5" fill="#7fd" fill-opacity="0.5" d="M359 302L357 302L357 297L359 301z"/></g><g><path class="class-1 leaflet-clickable" stroke-linejoin="round" stroke-linecap="round" fill-rule="evenodd" stroke="#005540" stroke-opacity="1" stroke-width="0.5" fill="#7fd" fill-opacity="0.5" d="M347 293L347 296L346 293z"/></g><g><path class="class-1 leaflet-clickable" stroke-linejoin="round" stroke-linecap="round" fill-rule="evenodd" stroke="#005540" stroke-opacity="1" stroke-width="0.5" fill="#7fd" fill-opacity="0.5" d="M346 291L346 292z"/></g><g><path class="class-1 leaflet-clickable" stroke-linejoin="round" stroke-linecap="round" fill-rule="evenodd" stroke="#005540" stroke-opacity="1" stroke-width="0.5" fill="#7fd" fill-opacity="0.5" d="M339 279L342 281L343 284L339 280z"/></g><g><path class="class-1 leaflet-clickable" stroke-linejoin="round" stroke-linecap="round" fill-rule="evenodd" stroke="#005540" stroke-opacity="1" stroke-width="0.5" fill="#7fd" fill-opacity="0.5" d="M339 273L338 275L339 273z"/></g><g><path class="class-1 leaflet-clickable" stroke-linejoin="round" stroke-linecap="round" fill-rule="evenodd" stroke="#005540" stroke-opacity="1" stroke-width="0.5" fill="#7fd" fill-opacity="0.5" d="M337 263L338 266L337 264z"/></g><g><path class="class-1 leaflet-clickable" stroke-linejoin="round" stroke-linecap="round" fill-rule="evenodd" stroke="#005540" stroke-opacity="1" stroke-width="0.5" fill="#7fd" fill-opacity="0.5" d="M331 263L331 265L331 263z"/></g><g><path class="class-1 leaflet-clickable" stroke-linejoin="round" stroke-linecap="round" fill-rule="evenodd" stroke="#005540" stroke-opacity="1" stroke-width="0.5" fill="#7fd" fill-opacity="0.5" d="M331 254L331 256L329 256L327 260L328 261L327 258L328 255L330 255z"/></g><g><path class="class-1 leaflet-clickable" stroke-linejoin="round" stroke-linecap="round" fill-rule="evenodd" stroke="#005540" stroke-opacity="1" stroke-width="0.5" fill="#7fd" fill-opacity="0.5" d="M326 252L326 252z"/></g><g><path class="class-1 leaflet-clickable" stroke-linejoin="round" stroke-linecap="round" fill-rule="evenodd" stroke="#005540" stroke-opacity="1" stroke-width="0.5" fill="#7fd" fill-opacity="0.5" d="M308 224L308 226L307 224z"/></g><g><path class="class-1 leaflet-clickable" stroke-linejoin="round" stroke-linecap="round" fill-rule="evenodd" stroke="#005540" stroke-opacity="1" stroke-width="0.5" fill="#7fd" fill-opacity="0.5" d="M311 219L310 219z"/></g><g><path class="class-1 leaflet-clickable" stroke-linejoin="round" stroke-linecap="round" fill-rule="evenodd" stroke="#005540" stroke-opacity="1" stroke-width="0.5" fill="#7fd" fill-opacity="0.5" d="M237 208L237 208z"/></g><g><path class="class-1 leaflet-clickable" stroke-linejoin="round" stroke-linecap="round" fill-rule="evenodd" stroke="#005540" stroke-opacity="1" stroke-width="0.5" fill="#7fd" fill-opacity="0.5" d="M259 205L292 205L294 212L302 218L305 224L304 225L311 229L309 230L309 232L311 234L313 233L316 235L319 241L322 243L321 244L325 254L325 262L330 268L332 268L333 274L340 285L338 293L341 300L347 302L347 298L350 298L355 302L355 305L359 306L359 308L362 311L362 314L367 317L368 324L364 329L355 334L352 330L350 320L346 316L342 314L330 302L320 297L315 298L305 290L305 287L302 286L307 274L307 261L301 250L294 248L279 236L277 235L274 238L267 231L263 231L260 227L256 227L253 224L252 220L239 209L240 208L252 211L258 208L259 206z"/></g><g><path class="class-1 leaflet-clickable" stroke-linejoin="round" stroke-linecap="round" fill-rule="evenodd" stroke="#005540" stroke-opacity="1" stroke-width="0.5" fill="#7fd" fill-opacity="0.5" d="M520 362L522 361L530 365L540 358L541 357L539 357L541 355L543 355L548 361L546 361L547 362L545 367L547 370L545 370L545 372L542 374L542 376L535 385L538 388L535 394L533 396L527 396L518 402L517 400L513 402L513 405L515 404L520 407L520 409L518 410L521 415L520 416L525 417L522 423L520 422L516 424L511 430L509 428L503 429L503 421L499 416L495 419L490 416L488 421L481 423L480 422L477 425L473 423L473 421L472 422L469 420L467 415L465 415L457 404L453 394L461 392L463 390L462 388L464 385L465 386L467 382L472 380L479 382L486 390L485 385L483 385L487 381L486 376L496 374L495 373L498 370L493 365L494 363L492 361L488 361L487 357L483 355L485 347L487 345L488 346L487 343L490 344L489 347L493 344L490 339L491 337L497 339L497 341L494 342L495 343L493 347L495 351L495 347L498 341L501 343L498 352L499 353L503 353L505 350L507 350L506 347L508 345L510 347L509 348L513 350L511 356L507 356L503 360L501 360L503 362L502 365L498 367L498 369L502 369L503 371L498 373L500 373L501 377L511 379L513 374L516 375L520 371L521 372L523 368L519 365L520 363z"/></g><g><path class="class-1 leaflet-clickable" stroke-linejoin="round" stroke-linecap="round" fill-rule="evenodd" stroke="#005540" stroke-opacity="1" stroke-width="0.5" fill="#7fd" fill-opacity="0.5" d="M247 444L247 444z"/></g><g><path class="class-1 leaflet-clickable" stroke-linejoin="round" stroke-linecap="round" fill-rule="evenodd" stroke="#005540" stroke-opacity="1" stroke-width="0.5" fill="#7fd" fill-opacity="0.5" d="M332 432L334 434L333 435L331 433L332 432z"/></g><g><path class="class-1 leaflet-clickable" stroke-linejoin="round" stroke-linecap="round" fill-rule="evenodd" stroke="#005540" stroke-opacity="1" stroke-width="0.5" fill="#7fd" fill-opacity="0.5" d="M503 429L497 436L483 426L476 424L477 425L480 422L481 423L489 421L488 420L490 416L495 419L499 416L503 420L503 429z"/></g><g><path class="class-1 leaflet-clickable" stroke-linejoin="round" stroke-linecap="round" fill-rule="evenodd" stroke="#005540" stroke-opacity="1" stroke-width="0.5" fill="#7fd" fill-opacity="0.5" d="M336 422L336 421z"/></g><g><path class="class-0 leaflet-clickable" stroke-linejoin="round" stroke-linecap="round" fill-rule="evenodd" stroke="#005540" stroke-opacity="1" stroke-width="0.5" fill="#ddfff6" fill-opacity="0.5" d="M297 186L296 188L296 186z"/></g><g><path class="class-0 leaflet-clickable" stroke-linejoin="round" stroke-linecap="round" fill-rule="evenodd" stroke="#005540" stroke-opacity="1" stroke-width="0.5" fill="#ddfff6" fill-opacity="0.5" d="M303 173L305 179L302 186L297 182L298 175L302 173z"/></g><g><path class="class-0 leaflet-clickable" stroke-linejoin="round" stroke-linecap="round" fill-rule="evenodd" stroke="#005540" stroke-opacity="1" stroke-width="0.5" fill="#ddfff6" fill-opacity="0.5" d="M248 106L250 106L249 107z"/></g><g><path class="class-0 leaflet-clickable" stroke-linejoin="round" stroke-linecap="round" fill-rule="evenodd" stroke="#005540" stroke-opacity="1" stroke-width="0.5" fill="#ddfff6" fill-opacity="0.5" d="M245 86L325 115L330 118L383 118L382 120L380 120L381 123L384 125L383 126L385 126L382 126L382 129L379 129L379 132L381 135L380 136L387 141L386 144L388 145L386 145L386 158L388 158L388 160L385 160L386 166L384 168L384 182L387 186L389 196L377 198L376 202L380 209L379 210L383 213L385 217L387 222L385 224L388 231L391 231L385 239L385 241L383 241L380 244L380 246L372 248L372 244L370 241L365 238L360 238L356 229L348 227L344 223L341 223L342 209L340 207L339 208L335 206L335 208L333 208L333 206L327 204L321 195L317 193L311 186L312 184L305 180L305 173L303 170L302 171L300 169L301 167L297 162L295 156L292 155L292 148L284 134L285 122L279 119L272 118L272 114L267 110L259 113L250 106L243 103L241 96L242 95L240 93L242 91L242 87L245 87zM336 205L336 206z"/></g><g><path class="class-0 leaflet-clickable" stroke-linejoin="round" stroke-linecap="round" fill-rule="evenodd" stroke="#005540" stroke-opacity="1" stroke-width="0.5" fill="#ddfff6" fill-opacity="0.5" d="M228 197L227 197z"/></g><g><path class="class-0 leaflet-clickable" stroke-linejoin="round" stroke-linecap="round" fill-rule="evenodd" stroke="#005540" stroke-opacity="1" stroke-width="0.5" fill="#ddfff6" fill-opacity="0.5" d="M236 195L238 201L237 204L233 202L236 199L236 196z"/></g><g><path class="class-0 leaflet-clickable" stroke-linejoin="round" stroke-linecap="round" fill-rule="evenodd" stroke="#005540" stroke-opacity="1" stroke-width="0.5" fill="#ddfff6" fill-opacity="0.5" d="M289 187L292 189L291 190L290 188z"/></g><g><path class="class-0 leaflet-clickable" stroke-linejoin="round" stroke-linecap="round" fill-rule="evenodd" stroke="#005540" stroke-opacity="1" stroke-width="0.5" fill="#ddfff6" fill-opacity="0.5" d="M275 176L275 177z"/></g><g><path class="class-0 leaflet-clickable" stroke-linejoin="round" stroke-linecap="round" fill-rule="evenodd" stroke="#005540" stroke-opacity="1" stroke-width="0.5" fill="#ddfff6" fill-opacity="0.5" d="M275 165L278 167L278 170L280 172L283 171L283 179L273 168L274 165z"/></g><g><path class="class-0 leaflet-clickable" stroke-linejoin="round" stroke-linecap="round" fill-rule="evenodd" stroke="#005540" stroke-opacity="1" stroke-width="0.5" fill="#ddfff6" fill-opacity="0.5" d="M165 174L167 177L166 182L164 177L165 174z"/></g><g><path class="class-0 leaflet-clickable" stroke-linejoin="round" stroke-linecap="round" fill-rule="evenodd" stroke="#005540" stroke-opacity="1" stroke-width="0.5" fill="#ddfff6" fill-opacity="0.5" d="M254 153L254 154z"/></g><g><path class="class-0 leaflet-clickable" stroke-linejoin="round" stroke-linecap="round" fill-rule="evenodd" stroke="#005540" stroke-opacity="1" stroke-width="0.5" fill="#ddfff6" fill-opacity="0.5" d="M247 112L247 112z"/></g><g><path class="class-0 leaflet-clickable" stroke-linejoin="round" stroke-linecap="round" fill-rule="evenodd" stroke="#005540" stroke-opacity="1" stroke-width="0.5" fill="#ddfff6" fill-opacity="0.5" d="M247 105L249 107L248 108L246 108L246 105z"/></g><g><path class="class-0 leaflet-clickable" stroke-linejoin="round" stroke-linecap="round" fill-rule="evenodd" stroke="#005540" stroke-opacity="1" stroke-width="0.5" fill="#ddfff6" fill-opacity="0.5" d="M245 86L242 88L240 93L242 95L242 102L246 105L246 110L244 113L244 123L248 129L248 137L250 142L249 149L255 157L255 159L258 159L272 172L275 182L277 180L279 184L282 184L284 191L290 195L289 197L291 199L291 205L259 205L262 201L261 198L263 194L261 190L256 186L256 184L253 181L251 181L250 177L247 176L247 174L225 159L226 157L223 153L223 146L217 140L218 134L212 127L211 128L210 119L203 112L204 109L202 106L203 107L204 104L198 99L198 96L193 88L193 85L247 80L245 86z"/></g><g><path class="class-0 leaflet-clickable" stroke-linejoin="round" stroke-linecap="round" fill-rule="evenodd" stroke="#005540" stroke-opacity="1" stroke-width="0.5" fill="#ddfff6" fill-opacity="0.5" d="M586 398L591 401L594 400L594 407L597 409L596 410L600 407L600 405L605 405L605 403L606 409L608 407L611 407L614 410L612 414L614 418L614 428L609 430L606 427L606 421L604 419L603 414L597 421L599 425L598 430L595 431L596 433L593 436L589 434L590 435L588 435L586 438L582 438L576 444L572 439L573 438L571 437L572 434L569 431L578 418L576 412L579 411L579 403L583 403L583 399L585 398z"/></g><g><path class="class-0 leaflet-clickable" stroke-linejoin="round" stroke-linecap="round" fill-rule="evenodd" stroke="#005540" stroke-opacity="1" stroke-width="0.5" fill="#ddfff6" fill-opacity="0.5" d="M606 427L609 430L613 428L611 434L612 441L611 442L609 440L604 444L598 441L594 436L599 425L606 427z"/></g><g><path class="class-0 leaflet-clickable" stroke-linejoin="round" stroke-linecap="round" fill-rule="evenodd" stroke="#005540" stroke-opacity="1" stroke-width="0.5" fill="#ddfff6" fill-opacity="0.5" d="M372 248L376 248L381 244L382 241L386 239L390 229L396 230L395 233L397 233L400 236L400 245L406 253L415 253L417 256L416 258L422 262L422 264L424 264L421 267L419 267L420 270L418 271L420 275L420 280L422 280L425 286L430 289L433 295L432 296L435 299L438 299L438 297L444 299L446 305L449 308L447 308L448 316L451 317L453 321L452 322L454 324L454 328L460 329L457 333L457 340L458 339L459 342L458 343L454 341L453 344L435 325L434 321L428 315L423 307L405 294L389 274L376 269L373 265L369 265L367 257L372 248z"/></g><g><path class="class-0 leaflet-clickable" stroke-linejoin="round" stroke-linecap="round" fill-rule="evenodd" stroke="#005540" stroke-opacity="1" stroke-width="0.5" fill="#ddfff6" fill-opacity="0.5" d="M586 211L589 213L584 216L584 218L588 219L590 228L588 233L592 234L590 238L596 241L595 247L599 250L601 249L602 255L605 253L607 257L609 255L615 255L615 269L618 269L608 279L604 278L601 281L601 287L598 286L594 288L593 291L589 292L589 294L591 294L592 296L590 303L595 309L592 312L586 312L583 317L584 322L581 321L579 323L581 323L580 325L577 325L578 323L576 323L575 325L574 324L575 327L572 326L572 313L570 310L571 304L568 302L569 297L564 292L564 285L566 283L564 282L564 277L566 275L577 276L577 274L573 273L568 268L570 268L565 265L562 254L555 247L565 237L567 240L568 239L570 235L570 229L564 229L563 226L567 222L573 220L574 213L578 210L582 214L584 213z"/></g><g><path class="class-0 leaflet-clickable" stroke-linejoin="round" stroke-linecap="round" fill-rule="evenodd" stroke="#005540" stroke-opacity="1" stroke-width="0.5" fill="#ddfff6" fill-opacity="0.5" d="M586 211L582 215L578 210L574 213L573 220L567 222L563 226L564 229L570 229L570 235L568 239L567 240L565 237L555 247L564 258L563 261L567 267L570 268L568 268L572 271L572 273L577 273L577 276L566 275L564 277L564 281L566 283L564 285L563 292L561 293L553 286L547 288L545 286L546 285L532 278L526 278L527 281L522 279L517 288L508 282L509 281L503 275L503 273L505 271L506 272L503 268L507 262L506 252L508 249L506 241L498 238L498 236L495 233L497 230L493 210L494 209L492 209L492 206L494 206L494 203L500 192L499 191L507 179L511 180L512 177L516 173L517 174L516 172L518 170L519 164L523 159L527 159L530 156L541 159L549 158L551 162L553 162L553 164L554 163L554 165L567 176L571 188L575 193L574 194L586 210z"/></g><g><path class="class-0 leaflet-clickable" stroke-linejoin="round" stroke-linecap="round" fill-rule="evenodd" stroke="#005540" stroke-opacity="1" stroke-width="0.5" fill="#ddfff6" fill-opacity="0.5" d="M633 349L631 351L623 344L621 344L620 346L613 345L611 347L604 345L602 346L594 337L593 341L590 339L586 339L585 337L580 337L582 335L580 332L582 330L580 328L581 323L579 323L581 321L584 322L583 317L586 312L592 312L594 309L594 307L590 303L592 296L589 294L589 292L593 291L594 288L598 286L600 287L602 283L601 281L604 278L607 279L618 270L615 269L615 255L609 255L607 257L605 253L602 255L601 249L599 250L595 247L596 241L590 239L592 234L588 233L590 229L588 219L584 218L584 216L589 213L593 216L595 230L599 234L603 246L605 245L607 247L612 248L612 250L618 250L623 255L636 255L641 260L643 259L642 258L647 257L647 263L640 276L635 294L633 336L631 339L632 348z"/></g><g><path class="class-0 leaflet-clickable" stroke-linejoin="round" stroke-linecap="round" fill-rule="evenodd" stroke="#005540" stroke-opacity="1" stroke-width="0.5" fill="#ddfff6" fill-opacity="0.5" d="M606 427L602 427L597 423L602 414L606 421L606 426z"/></g><g><path class="class-1 leaflet-clickable" stroke-linejoin="round" stroke-linecap="round" fill-rule="evenodd" stroke="#005540" stroke-opacity="1" stroke-width="0.5" fill="#7fd" fill-opacity="0.5" d="M588 368L587 371L588 373L590 373L586 376L582 375L583 376L581 382L572 382L569 385L571 393L575 398L573 402L574 405L561 406L558 402L556 402L556 404L552 404L550 402L550 400L552 399L549 398L549 396L547 396L544 399L538 399L538 397L535 394L538 391L535 384L538 382L542 374L545 373L544 370L546 370L545 367L547 363L546 362L548 360L554 360L556 362L558 361L566 367L572 367L573 363L575 363L585 369L587 368z"/></g><g><path class="class-1 leaflet-clickable" stroke-linejoin="round" stroke-linecap="round" fill-rule="evenodd" stroke="#005540" stroke-opacity="1" stroke-width="0.5" fill="#7fd" fill-opacity="0.5" d="M633 349L635 357L643 366L641 372L642 378L649 392L656 398L663 407L666 419L671 424L671 426L674 427L676 432L681 435L690 435L700 440L707 449L716 447L717 456L725 460L727 463L727 470L725 470L722 473L698 472L699 470L694 467L690 462L692 460L691 459L689 459L683 464L680 464L676 459L678 454L677 449L669 449L670 448L669 449L667 447L662 438L658 437L657 444L655 440L651 439L649 441L646 437L643 436L645 431L644 428L651 422L642 419L643 418L641 416L641 414L644 411L644 407L648 401L641 398L638 402L634 400L635 397L633 395L634 393L635 394L638 392L635 391L633 384L631 384L630 390L628 391L626 388L625 391L620 395L615 396L616 395L614 392L617 390L618 387L616 388L620 383L620 385L622 385L623 380L625 378L621 376L622 375L619 376L616 373L617 370L616 371L613 365L618 361L615 356L617 357L618 353L621 350L613 346L619 346L622 344L628 347L631 351L632 349z"/></g><g><path class="class-3 leaflet-clickable" stroke-linejoin="round" stroke-linecap="round" fill-rule="evenodd" stroke="#005540" stroke-opacity="1" stroke-width="0.5" fill="#086" fill-opacity="0.5" d="M657 443L653 447L648 449L645 448L640 452L638 452L636 446L632 446L632 453L634 451L635 452L633 452L630 455L628 453L624 453L624 455L619 456L618 453L614 454L604 446L604 444L607 441L612 442L611 434L614 428L613 417L615 417L624 426L627 423L630 425L632 422L636 421L633 417L630 416L631 415L629 413L627 413L627 411L622 412L623 411L621 408L626 401L624 398L621 398L624 397L630 390L631 384L634 385L634 389L638 392L633 395L635 397L634 400L638 402L641 398L647 401L641 416L643 418L642 419L651 422L649 424L650 425L646 424L643 437L644 436L649 441L653 439L657 443z"/></g><g><path class="class-2 leaflet-clickable" stroke-linejoin="round" stroke-linecap="round" fill-rule="evenodd" stroke="#005540" stroke-opacity="1" stroke-width="0.5" fill="#00cc99" fill-opacity="0.5" d="M788 457L788 470L777 470L778 467L772 465L773 462L769 459L769 455L765 455L758 460L757 459L757 461L755 463L751 463L751 465L748 468L746 466L745 467L746 466L744 464L742 464L740 459L741 456L739 456L740 455L737 453L734 454L734 460L730 464L728 469L726 467L728 463L726 463L722 458L717 456L718 452L716 448L732 442L745 442L748 440L748 438L753 437L756 442L760 442L761 449L764 450L765 452L773 456L773 450L776 448L776 450L782 453L788 453L788 455z"/></g><g><path class="class-0 leaflet-clickable" stroke-linejoin="round" stroke-linecap="round" fill-rule="evenodd" stroke="#005540" stroke-opacity="1" stroke-width="0.5" fill="#ddfff6" fill-opacity="0.5" d="M866 368L866 380L863 386L852 398L846 398L840 404L838 404L837 407L835 407L836 408L830 414L829 413L826 415L823 413L819 407L819 404L816 400L814 400L810 393L807 394L802 391L801 384L803 379L813 374L839 370L843 367L848 367L851 365L866 368z"/></g><g><path class="class-0 leaflet-clickable" stroke-linejoin="round" stroke-linecap="round" fill-rule="evenodd" stroke="#005540" stroke-opacity="1" stroke-width="0.5" fill="#ddfff6" fill-opacity="0.5" d="M816 341L819 342L820 344L818 346L815 343L816 341z"/></g><g><path class="class-1 leaflet-clickable" stroke-linejoin="round" stroke-linecap="round" fill-rule="evenodd" stroke="#005540" stroke-opacity="1" stroke-width="0.5" fill="#7fd" fill-opacity="0.5" d="M870 443L871 440L871 442z"/></g><g><path class="class-1 leaflet-clickable" stroke-linejoin="round" stroke-linecap="round" fill-rule="evenodd" stroke="#005540" stroke-opacity="1" stroke-width="0.5" fill="#7fd" fill-opacity="0.5" d="M872 435L872 437L872 435z"/></g><g><path class="class-1 leaflet-clickable" stroke-linejoin="round" stroke-linecap="round" fill-rule="evenodd" stroke="#005540" stroke-opacity="1" stroke-width="0.5" fill="#7fd" fill-opacity="0.5" d="M884 391L878 398L878 394L880 391L885 390z"/></g><g><path class="class-1 leaflet-clickable" stroke-linejoin="round" stroke-linecap="round" fill-rule="evenodd" stroke="#005540" stroke-opacity="1" stroke-width="0.5" fill="#7fd" fill-opacity="0.5" d="M829 454L828 450L830 449L830 425L829 418L826 415L829 413L830 414L830 412L832 412L832 410L837 407L837 405L840 404L841 401L844 401L846 398L852 397L856 394L863 386L866 380L866 368L873 370L876 369L877 366L882 373L882 370L883 371L883 379L880 385L868 399L868 409L867 410L868 406L867 409L861 412L863 416L868 413L869 414L868 418L863 420L863 424L866 421L868 421L866 423L858 449L855 449L855 443L850 443L850 441L844 441L842 447L839 449L836 455L832 452L830 454z"/></g><g><path class="class-1 leaflet-clickable" stroke-linejoin="round" stroke-linecap="round" fill-rule="evenodd" stroke="#005540" stroke-opacity="1" stroke-width="0.5" fill="#7fd" fill-opacity="0.5" d="M876 365L874 367L869 368L871 366L875 366z"/></g><g><path class="class-2 leaflet-clickable" stroke-linejoin="round" stroke-linecap="round" fill-rule="evenodd" stroke="#005540" stroke-opacity="1" stroke-width="0.5" fill="#00cc99" fill-opacity="0.5" d="M801 384L801 391L805 391L806 394L809 393L814 397L813 398L819 404L822 412L829 418L829 457L788 457L788 453L778 451L775 449L776 448L773 451L773 455L761 449L761 444L757 442L754 438L757 436L765 436L768 438L785 428L794 420L794 412L800 405L799 391L801 384z"/></g><g><path class="class-3 leaflet-clickable" stroke-linejoin="round" stroke-linecap="round" fill-rule="evenodd" stroke="#005540" stroke-opacity="1" stroke-width="0.5" fill="#086" fill-opacity="0.5" d="M777 470L780 473L781 472L781 474L785 476L784 477L789 481L794 483L795 488L801 491L800 498L771 498L760 518L763 522L760 527L761 531L759 535L731 507L723 501L718 500L716 496L718 495L718 492L716 489L722 473L730 466L730 464L734 460L733 458L736 453L739 455L739 457L741 457L740 459L743 465L744 464L746 466L745 467L746 466L748 468L752 463L757 462L756 461L762 458L762 456L765 454L768 455L768 459L772 460L772 466L777 467L778 470z"/></g><g><path class="class-3 leaflet-clickable" stroke-linejoin="round" stroke-linecap="round" fill-rule="evenodd" stroke="#005540" stroke-opacity="1" stroke-width="0.5" fill="#086" fill-opacity="0.5" d="M722 473L716 489L718 492L717 496L719 500L713 497L703 495L691 496L686 501L682 501L672 506L671 505L668 508L659 508L650 505L647 502L633 501L623 494L616 493L620 490L619 487L624 485L623 484L626 481L626 477L628 475L623 474L622 470L621 471L621 464L617 460L618 456L622 454L623 455L625 453L629 453L632 455L634 452L633 451L632 453L631 448L636 445L638 452L645 448L650 449L657 443L658 437L664 440L669 449L677 449L678 454L676 459L680 463L683 464L689 459L691 459L692 460L690 462L694 467L699 470L698 471L717 473z"/></g></svg>