<svg xmlns="http://www.w3.org/2000/svg" class="leaflet-zoom-animated" width="1982" height="599" viewBox="-40 -12 1982 599" style="transform: translate3d(-40px, -12px, 0px);"><g><path class="class-3 leaflet-clickable" stroke-linejoin="round" stroke-linecap="round" fill-rule="evenodd" stroke="#005540" stroke-opacity="1" stroke-width="0.5" fill="#086" fill-opacity="0.5" d="M1180 470L1183 473L1184 472L1184 474L1188 476L1187 477L1192 481L1197 483L1198 488L1204 491L1203 498L1174 498L1163 518L1166 522L1163 527L1164 531L1162 535L1134 507L1126 501L1121 500L1119 496L1121 495L1121 492L1119 489L1125 473L1133 466L1133 464L1137 460L1136 458L1139 453L1142 455L1142 457L1144 457L1143 459L1146 465L1147 464L1149 466L1148 467L1149 466L1151 468L1155 463L1160 462L1159 461L1165 458L1165 456L1168 454L1171 455L1171 459L1175 460L1175 466L1180 467L1181 470z"/></g><g><path class="class-3 leaflet-clickable" stroke-linejoin="round" stroke-linecap="round" fill-rule="evenodd" stroke="#005540" stroke-opacity="1" stroke-width="0.5" fill="#086" fill-opacity="0.5" d="M1125 473L1119 489L1121 492L1120 496L1122 500L1116 497L1106 495L1094 496L1089 501L1085 501L1075 506L1074 505L1071 508L1062 508L1053 505L1050 502L1036 501L1026 494L1019 493L1023 490L1022 487L1027 485L1026 484L1029 481L1029 477L1031 475L1026 474L1025 470L1024 471L1024 464L1020 460L1021 456L1025 454L1026 455L1028 453L1032 453L1035 455L1037 452L1036 451L1035 453L1034 448L1039 445L1041 452L1048 448L1053 449L1060 443L1061 437L1067 440L1072 449L1080 449L1081 454L1079 459L1083 463L1086 464L1092 459L1094 459L1095 460L1093 462L1097 467L1102 470L1101 471L1120 473z"/></g><g><path class="class-3 leaflet-clickable" stroke-linejoin="round" stroke-linecap="round" fill-rule="evenodd" stroke="#005540" stroke-opacity="1" stroke-width="0.5" fill="#086" fill-opacity="0.5" d="M997 435L1001 441L1005 441L1007 446L1012 450L1011 451L1014 452L1012 452L1015 454L1021 454L1020 460L1024 464L1024 471L1025 470L1026 473L1030 475L1029 480L1026 484L1027 485L1023 487L1022 491L1018 493L1013 487L1011 488L1001 484L993 484L985 478L961 470L962 469L957 465L953 464L944 455L936 452L937 448L943 445L943 439L945 438L949 438L949 440L951 441L967 441L969 443L970 442L970 444L971 441L969 441L968 439L967 432L970 433L972 431L975 434L974 437L979 444L985 438L989 438L993 434L996 436z"/></g><g><path class="class-3 leaflet-clickable" stroke-linejoin="round" stroke-linecap="round" fill-rule="evenodd" stroke="#005540" stroke-opacity="1" stroke-width="0.5" fill="#086" fill-opacity="0.5" d="M977 397L981 399L980 401L983 404L982 405L984 408L982 408L980 412L981 419L978 420L976 426L970 433L967 432L968 439L971 441L971 444L967 441L964 442L962 440L956 439L952 441L946 438L943 439L942 441L943 446L936 449L936 455L906 445L900 436L906 429L911 428L914 430L917 427L917 425L918 426L918 424L923 422L924 423L926 421L927 417L923 417L924 415L921 410L923 408L922 406L916 405L916 402L919 401L918 400L923 401L929 396L936 395L940 395L939 396L941 396L943 400L947 400L948 397L952 396L952 398L955 399L953 399L953 402L955 404L959 404L959 402L961 402L964 406L974 406L977 405L976 402L978 398z"/></g><g><path class="class-3 leaflet-clickable" stroke-linejoin="round" stroke-linecap="round" fill-rule="evenodd" stroke="#005540" stroke-opacity="1" stroke-width="0.5" fill="#086" fill-opacity="0.5" d="M1036 349L1038 357L1046 366L1044 372L1045 378L1052 392L1059 398L1066 407L1069 419L1074 424L1074 426L1077 427L1079 432L1084 435L1093 435L1103 440L1110 449L1119 447L1120 456L1128 460L1130 463L1130 470L1128 470L1125 473L1101 472L1102 470L1097 467L1093 462L1095 460L1094 459L1092 459L1086 464L1083 464L1079 459L1081 454L1080 449L1072 449L1073 448L1072 449L1070 447L1065 438L1061 437L1060 444L1058 440L1054 439L1052 441L1049 437L1046 436L1048 431L1047 428L1054 422L1045 419L1046 418L1044 416L1044 414L1047 411L1047 407L1051 401L1044 398L1041 402L1037 400L1038 397L1036 395L1037 393L1038 394L1041 392L1038 391L1036 384L1034 384L1033 390L1031 391L1029 388L1028 391L1023 395L1018 396L1019 395L1017 392L1020 390L1021 387L1019 388L1023 383L1023 385L1025 385L1026 380L1028 378L1024 376L1025 375L1022 376L1019 373L1020 370L1019 371L1016 365L1021 361L1018 356L1020 357L1021 353L1024 350L1016 346L1022 346L1025 344L1031 347L1034 351L1035 349z"/></g><g><path class="class-3 leaflet-clickable" stroke-linejoin="round" stroke-linecap="round" fill-rule="evenodd" stroke="#005540" stroke-opacity="1" stroke-width="0.5" fill="#086" fill-opacity="0.5" d="M1060 443L1056 447L1051 449L1048 448L1043 452L1041 452L1039 446L1035 446L1035 453L1037 451L1038 452L1036 452L1033 455L1031 453L1027 453L1027 455L1022 456L1021 453L1017 454L1007 446L1007 444L1010 441L1015 442L1014 434L1017 428L1016 417L1018 417L1027 426L1030 423L1033 425L1035 422L1039 421L1036 417L1033 416L1034 415L1032 413L1030 413L1030 411L1025 412L1026 411L1024 408L1029 401L1027 398L1024 398L1027 397L1033 390L1034 384L1037 385L1037 389L1041 392L1036 395L1038 397L1037 400L1041 402L1044 398L1050 401L1044 416L1046 418L1045 419L1054 422L1052 424L1053 425L1049 424L1046 437L1047 436L1052 441L1056 439L1060 443z"/></g><g><path class="class-3 leaflet-clickable" stroke-linejoin="round" stroke-linecap="round" fill-rule="evenodd" stroke="#005540" stroke-opacity="1" stroke-width="0.5" fill="#086" fill-opacity="0.5" d="M991 368L990 371L991 373L993 373L989 376L985 375L986 376L984 382L975 382L972 385L974 393L978 398L976 402L977 405L964 406L961 402L959 402L959 404L955 404L953 402L953 400L955 399L952 398L952 396L950 396L947 399L941 399L941 397L938 394L941 391L938 384L941 382L945 374L948 373L947 370L949 370L948 367L950 363L949 362L951 360L957 360L959 362L961 361L969 367L975 367L976 363L978 363L988 369L990 368z"/></g><g><path class="class-3 leaflet-clickable" stroke-linejoin="round" stroke-linecap="round" fill-rule="evenodd" stroke="#005540" stroke-opacity="1" stroke-width="0.5" fill="#086" fill-opacity="0.5" d="M1269 368L1269 380L1266 386L1255 398L1249 398L1243 404L1241 404L1240 407L1238 407L1239 408L1233 414L1232 413L1229 415L1226 413L1222 407L1222 404L1219 400L1217 400L1213 393L1210 394L1205 391L1204 384L1206 379L1216 374L1242 370L1246 367L1251 367L1254 365L1269 368z"/></g><g><path class="class-3 leaflet-clickable" stroke-linejoin="round" stroke-linecap="round" fill-rule="evenodd" stroke="#005540" stroke-opacity="1" stroke-width="0.5" fill="#086" fill-opacity="0.5" d="M1219 341L1223 344L1221 346L1218 343L1219 341z"/></g><g><path class="class-3 leaflet-clickable" stroke-linejoin="round" stroke-linecap="round" fill-rule="evenodd" stroke="#005540" stroke-opacity="1" stroke-width="0.5" fill="#086" fill-opacity="0.5" d="M983 325L985 329L983 331L985 335L983 337L988 337L996 341L997 337L1005 346L1018 346L1024 350L1018 357L1020 357L1020 361L1016 365L1019 368L1019 370L1015 372L1017 372L1016 376L1012 376L1009 372L1006 373L1004 364L999 370L997 370L993 366L991 366L991 368L988 369L979 363L977 363L975 367L971 368L967 366L964 362L951 360L955 355L955 351L953 348L956 344L954 339L955 338L952 337L950 341L949 340L948 343L945 344L943 342L943 339L941 340L936 335L934 330L935 328L933 325L935 323L933 323L935 320L937 322L945 320L958 308L958 302L961 301L962 296L964 299L969 295L972 296L971 301L974 303L974 326L977 327L977 324L978 325L979 323L981 323L980 325L982 325z"/></g><g><path class="class-2 leaflet-clickable" stroke-linejoin="round" stroke-linecap="round" fill-rule="evenodd" stroke="#005540" stroke-opacity="1" stroke-width="0.5" fill="#00cc99" fill-opacity="0.5" d="M967 292L969 295L964 299L962 297L961 301L959 302L958 308L953 313L945 320L940 322L937 322L935 320L933 323L935 323L933 325L937 336L941 340L943 339L943 342L945 344L948 343L952 337L955 338L954 339L956 343L954 344L953 348L955 350L955 355L952 359L951 360L950 358L943 355L939 352L939 348L938 349L933 345L931 347L925 348L925 352L920 359L923 363L923 366L926 368L925 371L923 371L919 375L916 374L916 378L914 379L910 379L903 376L901 372L905 371L905 369L901 369L901 367L905 365L906 362L904 360L914 355L916 350L914 348L913 349L911 345L909 347L910 350L908 350L907 353L901 352L904 349L904 344L903 342L901 342L899 343L898 351L896 347L898 343L897 342L900 341L900 339L897 337L893 338L896 343L893 347L893 343L891 343L889 347L887 346L888 338L892 336L890 331L893 319L898 315L899 316L898 306L902 302L904 302L904 299L906 299L908 295L920 295L923 297L928 296L929 291L925 283L925 280L930 281L929 278L938 279L943 281L945 284L949 285L948 286L950 288L956 286L959 288L960 291L964 293L967 292z"/></g><g><path class="class-2 leaflet-clickable" stroke-linejoin="round" stroke-linecap="round" fill-rule="evenodd" stroke="#005540" stroke-opacity="1" stroke-width="0.5" fill="#00cc99" fill-opacity="0.5" d="M1031 392L1027 397L1024 398L1028 399L1028 401L1024 407L1026 410L1023 411L1024 412L1022 414L1016 414L1017 409L1014 407L1010 407L1009 409L1008 406L1010 404L1008 403L1008 405L1005 404L1003 408L1001 408L1000 410L1000 408L997 405L997 400L994 401L989 398L989 391L994 390L996 388L1000 379L999 378L1007 376L1009 372L1010 375L1016 376L1016 372L1020 370L1019 373L1022 376L1025 375L1024 376L1026 376L1028 379L1025 383L1026 385L1021 384L1018 388L1020 387L1018 396L1023 395L1029 389L1031 391z"/></g><g><path class="class-2 leaflet-clickable" stroke-linejoin="round" stroke-linecap="round" fill-rule="evenodd" stroke="#005540" stroke-opacity="1" stroke-width="0.5" fill="#00cc99" fill-opacity="0.5" d="M844 371L843 371z"/></g><g><path class="class-2 leaflet-clickable" stroke-linejoin="round" stroke-linecap="round" fill-rule="evenodd" stroke="#005540" stroke-opacity="1" stroke-width="0.5" fill="#00cc99" fill-opacity="0.5" d="M839 368L841 369L840 370L838 368z"/></g><g><path class="class-2 leaflet-clickable" stroke-linejoin="round" stroke-linecap="round" fill-rule="evenodd" stroke="#005540" stroke-opacity="1" stroke-width="0.5" fill="#00cc99" fill-opacity="0.5" d="M834 363L836 363L837 366L835 366L834 364z"/></g><g><path class="class-2 leaflet-clickable" stroke-linejoin="round" stroke-linecap="round" fill-rule="evenodd" stroke="#005540" stroke-opacity="1" stroke-width="0.5" fill="#00cc99" fill-opacity="0.5" d="M834 361L833 362z"/></g><g><path class="class-2 leaflet-clickable" stroke-linejoin="round" stroke-linecap="round" fill-rule="evenodd" stroke="#005540" stroke-opacity="1" stroke-width="0.5" fill="#00cc99" fill-opacity="0.5" d="M886 346L888 347L886 356L890 356L891 360L895 361L897 363L896 366L901 370L898 373L899 374L889 376L890 381L886 385L889 387L889 389L878 380L869 382L866 388L864 386L859 386L867 376L867 367L866 368L861 364L857 356L857 349L854 343L855 342L855 344L857 341L862 343L860 339L860 333L863 329L864 332L872 332L871 333L874 337L870 339L872 343L876 340L881 344L882 347L886 345z"/></g><g><path class="class-2 leaflet-clickable" stroke-linejoin="round" stroke-linecap="round" fill-rule="evenodd" stroke="#005540" stroke-opacity="1" stroke-width="0.5" fill="#00cc99" fill-opacity="0.5" d="M1009 427L1012 430L1016 428L1014 434L1015 441L1014 442L1012 440L1007 444L1001 441L997 436L1002 425L1009 427z"/></g><g><path class="class-2 leaflet-clickable" stroke-linejoin="round" stroke-linecap="round" fill-rule="evenodd" stroke="#005540" stroke-opacity="1" stroke-width="0.5" fill="#00cc99" fill-opacity="0.5" d="M1204 384L1204 391L1208 391L1209 394L1212 393L1217 397L1216 398L1222 404L1225 412L1232 418L1232 457L1191 457L1191 453L1181 451L1178 449L1179 448L1176 451L1176 455L1164 449L1164 444L1160 442L1157 438L1160 436L1168 436L1171 438L1188 428L1197 420L1197 412L1203 405L1202 391L1204 384z"/></g><g><path class="class-2 leaflet-clickable" stroke-linejoin="round" stroke-linecap="round" fill-rule="evenodd" stroke="#005540" stroke-opacity="1" stroke-width="0.5" fill="#00cc99" fill-opacity="0.5" d="M1191 457L1191 470L1180 470L1181 467L1175 465L1176 462L1172 459L1172 455L1168 455L1161 460L1160 459L1160 461L1158 463L1154 463L1154 465L1151 468L1149 466L1148 467L1149 466L1147 464L1145 464L1143 459L1144 456L1142 456L1143 455L1140 453L1137 454L1137 460L1133 464L1131 469L1129 467L1131 463L1129 463L1125 458L1120 456L1121 452L1119 448L1135 442L1148 442L1151 440L1151 438L1156 437L1159 442L1163 442L1164 449L1168 452L1176 456L1176 450L1179 448L1179 450L1185 453L1191 453L1191 455z"/></g><g><path class="class-2 leaflet-clickable" stroke-linejoin="round" stroke-linecap="round" fill-rule="evenodd" stroke="#005540" stroke-opacity="1" stroke-width="0.5" fill="#00cc99" fill-opacity="0.5" d="M650 444L650 444z"/></g><g><path class="class-2 leaflet-clickable" stroke-linejoin="round" stroke-linecap="round" fill-rule="evenodd" stroke="#005540" stroke-opacity="1" stroke-width="0.5" fill="#00cc99" fill-opacity="0.5" d="M735 432L737 434L736 435L734 433L735 432z"/></g><g><path class="class-2 leaflet-clickable" stroke-linejoin="round" stroke-linecap="round" fill-rule="evenodd" stroke="#005540" stroke-opacity="1" stroke-width="0.5" fill="#00cc99" fill-opacity="0.5" d="M906 429L900 436L886 426L879 424L880 425L883 422L884 423L892 421L891 420L893 416L898 419L902 416L906 420L906 429z"/></g><g><path class="class-2 leaflet-clickable" stroke-linejoin="round" stroke-linecap="round" fill-rule="evenodd" stroke="#005540" stroke-opacity="1" stroke-width="0.5" fill="#00cc99" fill-opacity="0.5" d="M739 422L739 421z"/></g><g><path class="class-2 leaflet-clickable" stroke-linejoin="round" stroke-linecap="round" fill-rule="evenodd" stroke="#005540" stroke-opacity="1" stroke-width="0.5" fill="#00cc99" fill-opacity="0.5" d="M923 362L925 361L933 365L943 358L944 357L942 357L944 355L946 355L951 361L949 361L950 362L948 367L950 370L948 370L948 372L945 374L945 376L938 385L941 388L938 394L936 396L930 396L921 402L920 400L916 402L916 405L918 404L923 407L923 409L921 410L924 415L923 416L928 417L925 423L923 422L919 424L914 430L912 428L906 429L906 421L902 416L898 419L893 416L891 421L884 423L883 422L880 425L876 423L876 421L875 422L872 420L870 415L868 415L860 404L856 394L864 392L866 390L865 388L867 385L868 386L870 382L875 380L882 382L889 390L888 385L886 385L890 381L889 376L899 374L898 373L901 370L896 365L897 363L895 361L891 361L890 357L886 355L888 347L890 345L891 346L890 343L893 344L892 347L896 344L893 339L894 337L900 339L900 341L897 342L898 343L896 347L898 351L898 347L901 341L904 343L901 352L902 353L906 353L908 350L910 350L909 347L911 345L913 347L912 348L916 350L914 356L910 356L906 360L904 360L906 362L905 365L901 367L901 369L905 369L906 371L901 373L903 373L904 377L914 379L916 374L919 375L923 371L924 372L926 368L922 365L923 363z"/></g><g><path class="class-2 leaflet-clickable" stroke-linejoin="round" stroke-linecap="round" fill-rule="evenodd" stroke="#005540" stroke-opacity="1" stroke-width="0.5" fill="#00cc99" fill-opacity="0.5" d="M775 248L779 248L784 244L785 241L789 239L793 229L799 230L798 233L800 233L803 236L803 245L809 253L818 253L820 256L819 258L825 262L825 264L827 264L824 267L822 267L823 270L821 271L823 275L823 280L825 280L828 286L833 289L836 295L835 296L838 299L841 299L841 297L847 299L849 305L852 308L850 308L851 316L854 317L856 321L855 322L857 324L857 328L863 329L860 333L860 340L861 339L862 342L861 343L857 341L856 344L838 325L837 321L831 315L826 307L808 294L792 274L779 269L776 265L772 265L770 257L775 248z"/></g><g><path class="class-2 leaflet-clickable" stroke-linejoin="round" stroke-linecap="round" fill-rule="evenodd" stroke="#005540" stroke-opacity="1" stroke-width="0.5" fill="#00cc99" fill-opacity="0.5" d="M1273 443L1274 440L1274 442z"/></g><g><path class="class-2 leaflet-clickable" stroke-linejoin="round" stroke-linecap="round" fill-rule="evenodd" stroke="#005540" stroke-opacity="1" stroke-width="0.5" fill="#00cc99" fill-opacity="0.5" d="M1275 435L1275 437L1275 435z"/></g><g><path class="class-2 leaflet-clickable" stroke-linejoin="round" stroke-linecap="round" fill-rule="evenodd" stroke="#005540" stroke-opacity="1" stroke-width="0.5" fill="#00cc99" fill-opacity="0.5" d="M1287 391L1281 398L1281 394L1283 391L1288 390z"/></g><g><path class="class-2 leaflet-clickable" stroke-linejoin="round" stroke-linecap="round" fill-rule="evenodd" stroke="#005540" stroke-opacity="1" stroke-width="0.5" fill="#00cc99" fill-opacity="0.5" d="M1232 454L1231 450L1233 449L1233 425L1232 418L1229 415L1232 413L1233 414L1233 412L1235 412L1235 410L1240 407L1240 405L1243 404L1244 401L1247 401L1249 398L1255 397L1259 394L1266 386L1269 380L1269 368L1276 370L1279 369L1280 366L1285 373L1285 370L1286 371L1286 379L1283 385L1271 399L1271 409L1270 410L1271 406L1270 409L1264 412L1266 416L1271 413L1272 414L1271 418L1266 420L1266 424L1269 421L1271 421L1269 423L1261 449L1258 449L1258 443L1253 443L1253 441L1247 441L1245 447L1242 449L1239 455L1235 452L1233 454z"/></g><g><path class="class-2 leaflet-clickable" stroke-linejoin="round" stroke-linecap="round" fill-rule="evenodd" stroke="#005540" stroke-opacity="1" stroke-width="0.5" fill="#00cc99" fill-opacity="0.5" d="M1279 365L1277 367L1272 368L1274 366L1278 366z"/></g><g><path class="class-1 leaflet-clickable" stroke-linejoin="round" stroke-linecap="round" fill-rule="evenodd" stroke="#005540" stroke-opacity="1" stroke-width="0.5" fill="#7fd" fill-opacity="0.5" d="M1007 373L1006 376L1002 378L1001 376L996 386L997 388L989 391L989 398L987 397L987 402L983 404L980 401L980 398L978 398L974 394L972 385L975 382L983 382L984 379L985 380L985 375L991 375L993 373L990 372L992 366L999 370L1004 364L1006 373z"/></g><g><path class="class-1 leaflet-clickable" stroke-linejoin="round" stroke-linecap="round" fill-rule="evenodd" stroke="#005540" stroke-opacity="1" stroke-width="0.5" fill="#7fd" fill-opacity="0.5" d="M901 238L909 241L911 249L909 252L910 261L906 268L910 272L907 272L906 275L912 281L911 282L918 287L920 287L925 279L929 294L928 296L925 297L921 297L920 295L910 295L898 306L899 315L897 315L897 317L894 319L891 326L890 331L892 336L888 337L888 344L883 347L879 342L877 342L877 340L875 340L873 343L871 341L870 339L874 337L871 333L872 332L864 332L862 328L859 329L857 327L855 322L856 321L853 316L851 317L850 308L852 309L850 307L849 302L844 297L841 297L841 299L837 299L833 289L823 280L821 271L823 269L822 268L827 265L826 264L829 267L833 267L838 263L836 264L836 258L839 257L838 254L843 246L845 236L846 237L848 234L850 237L851 236L854 239L855 238L861 243L869 243L870 245L876 243L881 247L889 235L893 237L898 237z"/></g><g><path class="class-1 leaflet-clickable" stroke-linejoin="round" stroke-linecap="round" fill-rule="evenodd" stroke="#005540" stroke-opacity="1" stroke-width="0.5" fill="#7fd" fill-opacity="0.5" d="M910 179L902 191L903 192L897 202L897 207L896 206L895 209L897 209L897 223L899 224L900 229L898 234L901 236L901 238L889 235L887 236L888 237L881 247L877 243L871 245L869 243L864 244L863 242L862 243L856 240L855 238L854 239L851 236L850 237L848 234L847 237L845 237L846 238L843 242L843 246L838 253L839 257L836 258L836 264L838 262L834 267L830 267L819 258L820 257L817 252L809 253L807 251L803 245L803 237L800 233L798 233L798 229L792 231L790 230L791 229L790 230L790 227L788 225L790 222L788 219L789 217L787 216L786 212L782 210L784 209L779 202L779 198L792 196L792 192L787 181L788 176L786 174L786 172L788 172L787 168L789 166L788 160L791 159L789 157L789 145L791 146L788 138L784 137L782 133L782 130L785 129L785 126L788 126L786 126L787 125L784 123L785 121L783 121L786 118L799 118L799 106L802 105L839 106L844 113L847 116L849 116L860 128L870 135L872 135L872 137L874 137L875 143L879 148L879 156L882 159L882 161L886 165L890 166L889 167L892 170L899 172L910 179z"/></g><g><path class="class-1 leaflet-clickable" stroke-linejoin="round" stroke-linecap="round" fill-rule="evenodd" stroke="#005540" stroke-opacity="1" stroke-width="0.5" fill="#7fd" fill-opacity="0.5" d="M1016 417L1015 414L1021 414L1024 412L1023 411L1029 411L1034 415L1034 417L1036 417L1039 420L1038 422L1035 421L1033 424L1030 423L1027 426L1020 420L1019 417L1017 418z"/></g><g><path class="class-1 leaflet-clickable" stroke-linejoin="round" stroke-linecap="round" fill-rule="evenodd" stroke="#005540" stroke-opacity="1" stroke-width="0.5" fill="#7fd" fill-opacity="0.5" d="M762 302L760 302L760 297L762 301z"/></g><g><path class="class-1 leaflet-clickable" stroke-linejoin="round" stroke-linecap="round" fill-rule="evenodd" stroke="#005540" stroke-opacity="1" stroke-width="0.5" fill="#7fd" fill-opacity="0.5" d="M750 293L750 296L749 293z"/></g><g><path class="class-1 leaflet-clickable" stroke-linejoin="round" stroke-linecap="round" fill-rule="evenodd" stroke="#005540" stroke-opacity="1" stroke-width="0.5" fill="#7fd" fill-opacity="0.5" d="M749 291L749 292z"/></g><g><path class="class-1 leaflet-clickable" stroke-linejoin="round" stroke-linecap="round" fill-rule="evenodd" stroke="#005540" stroke-opacity="1" stroke-width="0.5" fill="#7fd" fill-opacity="0.5" d="M742 279L745 281L746 284L742 280z"/></g><g><path class="class-1 leaflet-clickable" stroke-linejoin="round" stroke-linecap="round" fill-rule="evenodd" stroke="#005540" stroke-opacity="1" stroke-width="0.5" fill="#7fd" fill-opacity="0.5" d="M742 273L741 275L742 273z"/></g><g><path class="class-1 leaflet-clickable" stroke-linejoin="round" stroke-linecap="round" fill-rule="evenodd" stroke="#005540" stroke-opacity="1" stroke-width="0.5" fill="#7fd" fill-opacity="0.5" d="M740 263L741 266L740 264z"/></g><g><path class="class-1 leaflet-clickable" stroke-linejoin="round" stroke-linecap="round" fill-rule="evenodd" stroke="#005540" stroke-opacity="1" stroke-width="0.5" fill="#7fd" fill-opacity="0.5" d="M734 263L734 265L734 263z"/></g><g><path class="class-1 leaflet-clickable" stroke-linejoin="round" stroke-linecap="round" fill-rule="evenodd" stroke="#005540" stroke-opacity="1" stroke-width="0.5" fill="#7fd" fill-opacity="0.5" d="M734 254L734 256L732 256L730 260L731 261L730 258L731 255L733 255z"/></g><g><path class="class-1 leaflet-clickable" stroke-linejoin="round" stroke-linecap="round" fill-rule="evenodd" stroke="#005540" stroke-opacity="1" stroke-width="0.5" fill="#7fd" fill-opacity="0.5" d="M729 252L729 252z"/></g><g><path class="class-1 leaflet-clickable" stroke-linejoin="round" stroke-linecap="round" fill-rule="evenodd" stroke="#005540" stroke-opacity="1" stroke-width="0.5" fill="#7fd" fill-opacity="0.5" d="M711 224L711 226L710 224z"/></g><g><path class="class-1 leaflet-clickable" stroke-linejoin="round" stroke-linecap="round" fill-rule="evenodd" stroke="#005540" stroke-opacity="1" stroke-width="0.5" fill="#7fd" fill-opacity="0.5" d="M714 219L713 219z"/></g><g><path class="class-1 leaflet-clickable" stroke-linejoin="round" stroke-linecap="round" fill-rule="evenodd" stroke="#005540" stroke-opacity="1" stroke-width="0.5" fill="#7fd" fill-opacity="0.5" d="M640 208L640 208z"/></g><g><path class="class-1 leaflet-clickable" stroke-linejoin="round" stroke-linecap="round" fill-rule="evenodd" stroke="#005540" stroke-opacity="1" stroke-width="0.5" fill="#7fd" fill-opacity="0.5" d="M662 205L695 205L697 212L705 218L708 224L707 225L714 229L712 230L712 232L714 234L716 233L719 235L722 241L725 243L724 244L728 254L728 262L733 268L735 268L736 274L743 285L741 293L744 300L750 302L750 298L753 298L758 302L758 305L762 306L762 308L765 311L765 314L770 317L771 324L767 329L758 334L755 330L753 320L749 316L745 314L733 302L723 297L718 298L708 290L708 287L705 286L710 274L710 261L704 250L697 248L682 236L680 235L677 238L670 231L666 231L663 227L659 227L656 224L655 220L642 209L643 208L655 211L661 208L662 206z"/></g><g><path class="class-1 leaflet-clickable" stroke-linejoin="round" stroke-linecap="round" fill-rule="evenodd" stroke="#005540" stroke-opacity="1" stroke-width="0.5" fill="#7fd" fill-opacity="0.5" d="M1036 349L1034 351L1026 344L1024 344L1023 346L1016 345L1014 347L1007 345L1005 346L997 337L996 341L993 339L989 339L988 337L983 337L985 335L983 332L985 330L983 328L984 323L982 323L984 321L987 322L986 317L989 312L995 312L997 309L997 307L993 303L995 296L992 294L992 292L996 291L997 288L1001 286L1003 287L1005 283L1004 281L1007 278L1010 279L1021 270L1018 269L1018 255L1012 255L1010 257L1008 253L1005 255L1004 249L1002 250L998 247L999 241L993 239L995 234L991 233L993 229L991 219L987 218L987 216L992 213L996 216L998 230L1002 234L1006 246L1008 245L1010 247L1015 248L1015 250L1021 250L1026 255L1039 255L1044 260L1046 259L1045 258L1050 257L1050 263L1043 276L1038 294L1036 336L1034 339L1035 348z"/></g><g><path class="class-1 leaflet-clickable" stroke-linejoin="round" stroke-linecap="round" fill-rule="evenodd" stroke="#005540" stroke-opacity="1" stroke-width="0.5" fill="#7fd" fill-opacity="0.5" d="M989 398L994 401L997 400L997 407L1000 409L999 410L1003 407L1003 405L1008 405L1008 403L1009 409L1011 407L1014 407L1017 410L1015 414L1017 418L1017 428L1012 430L1009 427L1009 421L1007 419L1006 414L1000 421L1002 425L1001 430L998 431L999 433L996 436L992 434L993 435L991 435L989 438L985 438L979 444L975 439L976 438L974 437L975 434L972 431L981 418L979 412L982 411L982 403L986 403L986 399L988 398z"/></g><g><path class="class-1 leaflet-clickable" stroke-linejoin="round" stroke-linecap="round" fill-rule="evenodd" stroke="#005540" stroke-opacity="1" stroke-width="0.5" fill="#7fd" fill-opacity="0.5" d="M943 355L942 356L944 358L939 359L935 364L931 364L925 361L922 362L920 360L925 352L925 348L931 347L933 345L937 347L936 348L939 348L939 352L943 355z"/></g><g><path class="class-1 leaflet-clickable" stroke-linejoin="round" stroke-linecap="round" fill-rule="evenodd" stroke="#005540" stroke-opacity="1" stroke-width="0.5" fill="#7fd" fill-opacity="0.5" d="M631 197L630 197z"/></g><g><path class="class-1 leaflet-clickable" stroke-linejoin="round" stroke-linecap="round" fill-rule="evenodd" stroke="#005540" stroke-opacity="1" stroke-width="0.5" fill="#7fd" fill-opacity="0.5" d="M639 195L641 201L640 204L636 202L639 199L639 196z"/></g><g><path class="class-1 leaflet-clickable" stroke-linejoin="round" stroke-linecap="round" fill-rule="evenodd" stroke="#005540" stroke-opacity="1" stroke-width="0.5" fill="#7fd" fill-opacity="0.5" d="M692 187L695 189L694 190L693 188z"/></g><g><path class="class-1 leaflet-clickable" stroke-linejoin="round" stroke-linecap="round" fill-rule="evenodd" stroke="#005540" stroke-opacity="1" stroke-width="0.5" fill="#7fd" fill-opacity="0.5" d="M678 176L678 177z"/></g><g><path class="class-1 leaflet-clickable" stroke-linejoin="round" stroke-linecap="round" fill-rule="evenodd" stroke="#005540" stroke-opacity="1" stroke-width="0.5" fill="#7fd" fill-opacity="0.5" d="M678 165L681 167L681 170L683 172L686 171L686 179L676 168L677 165z"/></g><g><path class="class-1 leaflet-clickable" stroke-linejoin="round" stroke-linecap="round" fill-rule="evenodd" stroke="#005540" stroke-opacity="1" stroke-width="0.5" fill="#7fd" fill-opacity="0.5" d="M568 174L570 177L569 182L567 177L568 174z"/></g><g><path class="class-1 leaflet-clickable" stroke-linejoin="round" stroke-linecap="round" fill-rule="evenodd" stroke="#005540" stroke-opacity="1" stroke-width="0.5" fill="#7fd" fill-opacity="0.5" d="M657 153L657 154z"/></g><g><path class="class-1 leaflet-clickable" stroke-linejoin="round" stroke-linecap="round" fill-rule="evenodd" stroke="#005540" stroke-opacity="1" stroke-width="0.5" fill="#7fd" fill-opacity="0.5" d="M650 112L650 112z"/></g><g><path class="class-1 leaflet-clickable" stroke-linejoin="round" stroke-linecap="round" fill-rule="evenodd" stroke="#005540" stroke-opacity="1" stroke-width="0.5" fill="#7fd" fill-opacity="0.5" d="M650 105L652 107L651 108L649 108L649 105z"/></g><g><path class="class-1 leaflet-clickable" stroke-linejoin="round" stroke-linecap="round" fill-rule="evenodd" stroke="#005540" stroke-opacity="1" stroke-width="0.5" fill="#7fd" fill-opacity="0.5" d="M648 86L645 88L643 93L645 95L645 102L648 103L649 105L649 110L647 113L647 123L651 129L651 137L653 142L652 149L658 157L658 159L661 159L675 172L678 182L680 180L682 184L685 184L687 191L693 195L692 197L694 199L694 205L662 205L665 201L664 198L666 194L664 190L659 186L659 184L656 181L654 181L653 177L650 176L650 174L628 159L629 157L626 153L626 146L620 140L621 134L615 127L614 128L613 119L606 112L607 109L605 106L606 107L607 104L601 99L601 96L596 88L596 85L650 80L648 86z"/></g><g><path class="class-1 leaflet-clickable" stroke-linejoin="round" stroke-linecap="round" fill-rule="evenodd" stroke="#005540" stroke-opacity="1" stroke-width="0.5" fill="#7fd" fill-opacity="0.5" d="M700 186L699 188L699 186z"/></g><g><path class="class-1 leaflet-clickable" stroke-linejoin="round" stroke-linecap="round" fill-rule="evenodd" stroke="#005540" stroke-opacity="1" stroke-width="0.5" fill="#7fd" fill-opacity="0.5" d="M706 173L708 179L705 186L700 182L701 175L705 173z"/></g><g><path class="class-1 leaflet-clickable" stroke-linejoin="round" stroke-linecap="round" fill-rule="evenodd" stroke="#005540" stroke-opacity="1" stroke-width="0.5" fill="#7fd" fill-opacity="0.5" d="M651 106L653 106L652 107z"/></g><g><path class="class-1 leaflet-clickable" stroke-linejoin="round" stroke-linecap="round" fill-rule="evenodd" stroke="#005540" stroke-opacity="1" stroke-width="0.5" fill="#7fd" fill-opacity="0.5" d="M648 86L728 115L733 118L786 118L785 120L783 120L784 123L787 125L786 126L788 126L785 126L785 129L782 129L782 132L784 135L783 136L790 141L789 144L791 145L789 145L789 158L791 158L791 160L788 160L789 166L787 168L787 182L790 186L792 196L780 198L779 202L783 209L782 210L786 213L788 217L790 222L788 224L791 231L794 231L788 239L788 241L786 241L783 244L783 246L775 248L775 244L773 241L768 238L763 238L759 229L751 227L747 223L744 223L745 209L743 207L742 208L738 206L738 208L736 208L736 206L730 204L724 195L720 193L714 186L715 184L708 180L708 173L706 170L705 171L703 169L704 167L700 162L698 156L695 155L695 148L687 134L688 122L682 119L675 118L675 114L670 110L662 113L653 106L646 103L644 96L645 95L643 93L645 91L645 87L648 87zM739 205L739 206z"/></g><g><path class="class-0 leaflet-clickable" stroke-linejoin="round" stroke-linecap="round" fill-rule="evenodd" stroke="#005540" stroke-opacity="1" stroke-width="0.5" fill="#ddfff6" fill-opacity="0.5" d="M989 211L992 213L987 216L987 218L991 219L993 228L991 233L995 234L993 238L999 241L998 247L1002 250L1004 249L1005 255L1008 253L1010 257L1012 255L1018 255L1018 269L1021 269L1011 279L1007 278L1004 281L1004 287L1001 286L997 288L996 291L992 292L992 294L994 294L995 296L993 303L998 309L995 312L989 312L986 317L987 322L984 321L982 323L984 323L983 325L980 325L981 323L979 323L978 325L977 324L978 327L975 326L975 313L973 310L974 304L971 302L972 297L967 292L967 285L969 283L967 282L967 277L969 275L980 276L980 274L976 273L971 268L973 268L968 265L965 254L958 247L968 237L970 240L971 239L973 235L973 229L967 229L966 226L970 222L976 220L977 213L981 210L985 214L987 213z"/></g><g><path class="class-0 leaflet-clickable" stroke-linejoin="round" stroke-linecap="round" fill-rule="evenodd" stroke="#005540" stroke-opacity="1" stroke-width="0.5" fill="#ddfff6" fill-opacity="0.5" d="M989 211L985 215L981 210L977 213L976 220L970 222L966 226L967 229L973 229L973 235L971 239L970 240L968 237L958 247L967 258L966 261L970 267L973 268L971 268L975 271L975 273L980 273L980 276L969 275L967 277L967 281L969 283L967 285L966 292L964 293L956 286L950 288L948 286L949 285L935 278L929 278L930 281L925 279L920 288L911 282L912 281L906 275L906 273L908 271L909 272L906 268L910 262L909 252L911 249L909 241L901 238L901 236L898 233L900 230L896 210L897 209L895 209L895 206L897 206L897 203L903 192L902 191L910 179L914 180L915 177L919 173L920 174L919 172L921 170L922 164L926 159L930 159L933 156L944 159L952 158L954 162L956 162L956 164L957 163L957 165L970 176L974 188L978 193L977 194L989 210z"/></g><g><path class="class-0 leaflet-clickable" stroke-linejoin="round" stroke-linecap="round" fill-rule="evenodd" stroke="#005540" stroke-opacity="1" stroke-width="0.5" fill="#ddfff6" fill-opacity="0.5" d="M1009 427L1005 427L1000 423L1005 414L1009 421L1009 426z"/></g></svg>