<svg xmlns="http://www.w3.org/2000/svg" class="leaflet-zoom-animated" width="2000" height="836" viewBox="-312 -129 2000 836" style="transform: translate3d(-312px, -129px, 0px);"><g><path class="class-3 leaflet-clickable" stroke-linejoin="round" stroke-linecap="round" fill-rule="evenodd" stroke="#005540" stroke-opacity="1" stroke-width="0.5" fill="#086" fill-opacity="0.5" d="M734 435L738 441L742 441L744 446L749 450L748 451L751 452L749 452L752 454L758 454L757 460L761 464L761 471L762 470L763 473L767 475L766 480L763 484L764 485L760 487L759 491L755 493L750 487L748 488L738 484L730 484L722 478L698 470L699 469L694 465L690 464L681 455L673 452L674 448L680 445L680 439L682 438L686 438L686 440L688 441L704 441L706 443L707 442L707 444L708 441L706 441L705 439L704 432L707 433L709 431L712 434L711 437L716 444L722 438L726 438L730 434L733 436z"/></g><g><path class="class-3 leaflet-clickable" stroke-linejoin="round" stroke-linecap="round" fill-rule="evenodd" stroke="#005540" stroke-opacity="1" stroke-width="0.5" fill="#086" fill-opacity="0.5" d="M862 473L856 489L858 492L857 496L859 500L853 497L843 495L831 496L826 501L822 501L812 506L811 505L808 508L799 508L790 505L787 502L773 501L763 494L756 493L760 490L759 487L764 485L763 484L766 481L766 477L768 475L763 474L762 470L761 471L761 464L757 460L758 456L762 454L763 455L765 453L769 453L772 455L774 452L773 451L772 453L771 448L776 445L778 452L785 448L790 449L797 443L798 437L804 440L809 449L817 449L818 454L816 459L820 463L823 464L829 459L831 459L832 460L830 462L834 467L839 470L838 471L857 473z"/></g><g><path class="class-3 leaflet-clickable" stroke-linejoin="round" stroke-linecap="round" fill-rule="evenodd" stroke="#005540" stroke-opacity="1" stroke-width="0.5" fill="#086" fill-opacity="0.5" d="M917 470L920 473L921 472L921 474L925 476L924 477L929 481L934 483L935 488L941 491L940 498L911 498L900 518L903 522L900 527L901 531L899 535L871 507L863 501L858 500L856 496L858 495L858 492L856 489L862 473L870 466L870 464L874 460L873 458L876 453L879 455L879 457L881 457L880 459L883 465L884 464L886 466L885 467L886 466L888 468L892 463L897 462L896 461L902 458L902 456L905 454L908 455L908 459L912 460L912 466L917 467L918 470z"/></g><g><path class="class-3 leaflet-clickable" stroke-linejoin="round" stroke-linecap="round" fill-rule="evenodd" stroke="#005540" stroke-opacity="1" stroke-width="0.5" fill="#086" fill-opacity="0.5" d="M647 179L639 191L640 192L634 202L634 207L633 206L632 209L634 209L634 223L636 224L637 229L635 234L638 236L638 238L626 235L624 236L625 237L618 247L614 243L608 245L606 243L601 244L600 242L599 243L593 240L592 238L591 239L588 236L587 237L585 234L584 237L582 237L583 238L580 242L580 246L575 253L576 257L573 258L573 264L575 262L571 267L567 267L556 258L557 257L554 252L546 253L544 251L540 245L540 237L537 233L535 233L535 229L529 231L527 230L528 229L527 230L527 227L525 225L527 222L525 219L526 217L524 216L523 212L519 210L521 209L516 202L516 198L529 196L529 192L524 181L525 176L523 174L523 172L525 172L524 168L526 166L525 160L528 159L526 157L526 145L528 146L525 138L521 137L519 133L519 130L522 129L522 126L525 126L523 126L524 125L521 123L522 121L520 121L523 118L536 118L536 106L539 105L576 106L581 113L584 116L586 116L597 128L607 135L609 135L609 137L611 137L612 143L616 148L616 156L619 159L619 161L623 165L627 166L626 167L629 170L636 172L647 179z"/></g><g><path class="class-3 leaflet-clickable" stroke-linejoin="round" stroke-linecap="round" fill-rule="evenodd" stroke="#005540" stroke-opacity="1" stroke-width="0.5" fill="#086" fill-opacity="0.5" d="M797 443L793 447L788 449L785 448L780 452L778 452L776 446L772 446L772 453L774 451L775 452L773 452L770 455L768 453L764 453L764 455L759 456L758 453L754 454L744 446L744 444L747 441L752 442L751 434L754 428L753 417L755 417L764 426L767 423L770 425L772 422L776 421L773 417L770 416L771 415L769 413L767 413L767 411L762 412L763 411L761 408L766 401L764 398L761 398L764 397L770 390L771 384L774 385L774 389L778 392L773 395L775 397L774 400L778 402L781 398L787 401L781 416L783 418L782 419L791 422L789 424L790 425L786 424L783 437L784 436L789 441L793 439L797 443z"/></g><g><path class="class-3 leaflet-clickable" stroke-linejoin="round" stroke-linecap="round" fill-rule="evenodd" stroke="#005540" stroke-opacity="1" stroke-width="0.5" fill="#086" fill-opacity="0.5" d="M773 349L775 357L783 366L781 372L782 378L789 392L796 398L803 407L806 419L811 424L811 426L814 427L816 432L821 435L830 435L840 440L847 449L856 447L857 456L865 460L867 463L867 470L865 470L862 473L838 472L839 470L834 467L830 462L832 460L831 459L829 459L823 464L820 464L816 459L818 454L817 449L809 449L810 448L809 449L807 447L802 438L798 437L797 444L795 440L791 439L789 441L786 437L783 436L785 431L784 428L791 422L782 419L783 418L781 416L781 414L784 411L784 407L788 401L781 398L778 402L774 400L775 397L773 395L774 393L775 394L778 392L775 391L773 384L771 384L770 390L768 391L766 388L765 391L760 395L755 396L756 395L754 392L757 390L758 387L756 388L760 383L760 385L762 385L763 380L765 378L761 376L762 375L759 376L756 373L757 370L756 371L753 365L758 361L755 356L757 357L758 353L761 350L753 346L759 346L762 344L768 347L771 351L772 349z"/></g><g><path class="class-3 leaflet-clickable" stroke-linejoin="round" stroke-linecap="round" fill-rule="evenodd" stroke="#005540" stroke-opacity="1" stroke-width="0.5" fill="#086" fill-opacity="0.5" d="M368 197L367 197z"/></g><g><path class="class-3 leaflet-clickable" stroke-linejoin="round" stroke-linecap="round" fill-rule="evenodd" stroke="#005540" stroke-opacity="1" stroke-width="0.5" fill="#086" fill-opacity="0.5" d="M376 195L378 201L377 204L373 202L376 199L376 196z"/></g><g><path class="class-3 leaflet-clickable" stroke-linejoin="round" stroke-linecap="round" fill-rule="evenodd" stroke="#005540" stroke-opacity="1" stroke-width="0.5" fill="#086" fill-opacity="0.5" d="M429 187L432 189L431 190L430 188z"/></g><g><path class="class-3 leaflet-clickable" stroke-linejoin="round" stroke-linecap="round" fill-rule="evenodd" stroke="#005540" stroke-opacity="1" stroke-width="0.5" fill="#086" fill-opacity="0.5" d="M415 176L415 177z"/></g><g><path class="class-3 leaflet-clickable" stroke-linejoin="round" stroke-linecap="round" fill-rule="evenodd" stroke="#005540" stroke-opacity="1" stroke-width="0.5" fill="#086" fill-opacity="0.5" d="M415 165L418 167L418 170L420 172L423 171L423 179L413 168L414 165z"/></g><g><path class="class-3 leaflet-clickable" stroke-linejoin="round" stroke-linecap="round" fill-rule="evenodd" stroke="#005540" stroke-opacity="1" stroke-width="0.5" fill="#086" fill-opacity="0.5" d="M305 174L307 177L306 182L304 177L305 174z"/></g><g><path class="class-3 leaflet-clickable" stroke-linejoin="round" stroke-linecap="round" fill-rule="evenodd" stroke="#005540" stroke-opacity="1" stroke-width="0.5" fill="#086" fill-opacity="0.5" d="M394 153L394 154z"/></g><g><path class="class-3 leaflet-clickable" stroke-linejoin="round" stroke-linecap="round" fill-rule="evenodd" stroke="#005540" stroke-opacity="1" stroke-width="0.5" fill="#086" fill-opacity="0.5" d="M387 112L387 112z"/></g><g><path class="class-3 leaflet-clickable" stroke-linejoin="round" stroke-linecap="round" fill-rule="evenodd" stroke="#005540" stroke-opacity="1" stroke-width="0.5" fill="#086" fill-opacity="0.5" d="M387 105L389 107L388 108L386 108L386 105z"/></g><g><path class="class-3 leaflet-clickable" stroke-linejoin="round" stroke-linecap="round" fill-rule="evenodd" stroke="#005540" stroke-opacity="1" stroke-width="0.5" fill="#086" fill-opacity="0.5" d="M385 86L382 88L380 93L382 95L382 102L385 103L386 105L386 110L384 113L384 123L388 129L388 137L390 142L389 149L395 157L395 159L398 159L412 172L415 182L417 180L419 184L422 184L424 191L430 195L429 197L431 199L431 205L399 205L402 201L401 198L403 194L401 190L396 186L396 184L393 181L391 181L390 177L387 176L387 174L365 159L366 157L363 153L363 146L357 140L358 134L352 127L351 128L350 119L343 112L344 109L342 106L343 107L344 104L338 99L338 96L333 88L333 85L387 80L385 86z"/></g><g><path class="class-3 leaflet-clickable" stroke-linejoin="round" stroke-linecap="round" fill-rule="evenodd" stroke="#005540" stroke-opacity="1" stroke-width="0.5" fill="#086" fill-opacity="0.5" d="M726 398L731 401L734 400L734 407L737 409L736 410L740 407L740 405L745 405L745 403L746 409L748 407L751 407L754 410L752 414L754 418L754 428L749 430L746 427L746 421L744 419L743 414L737 421L739 425L738 430L735 431L736 433L733 436L729 434L730 435L728 435L726 438L722 438L716 444L712 439L713 438L711 437L712 434L709 431L718 418L716 412L719 411L719 403L723 403L723 399L725 398z"/></g><g><path class="class-2 leaflet-clickable" stroke-linejoin="round" stroke-linecap="round" fill-rule="evenodd" stroke="#005540" stroke-opacity="1" stroke-width="0.5" fill="#00cc99" fill-opacity="0.5" d="M768 392L764 397L761 398L765 399L765 401L761 407L763 410L760 411L761 412L759 414L753 414L754 409L751 407L747 407L746 409L745 406L747 404L745 403L745 405L742 404L740 408L738 408L737 410L737 408L734 405L734 400L731 401L726 398L726 391L731 390L733 388L737 379L736 378L744 376L746 372L747 375L753 376L753 372L757 370L756 373L759 376L762 375L761 376L763 376L765 379L762 383L763 385L758 384L755 388L757 387L755 396L760 395L766 389L768 391z"/></g><g><path class="class-2 leaflet-clickable" stroke-linejoin="round" stroke-linecap="round" fill-rule="evenodd" stroke="#005540" stroke-opacity="1" stroke-width="0.5" fill="#00cc99" fill-opacity="0.5" d="M941 384L941 391L945 391L946 394L949 393L954 397L953 398L959 404L962 412L969 418L969 457L928 457L928 453L918 451L915 449L916 448L913 451L913 455L901 449L901 444L897 442L894 438L897 436L905 436L908 438L925 428L934 420L934 412L940 405L939 391L941 384z"/></g><g><path class="class-2 leaflet-clickable" stroke-linejoin="round" stroke-linecap="round" fill-rule="evenodd" stroke="#005540" stroke-opacity="1" stroke-width="0.5" fill="#00cc99" fill-opacity="0.5" d="M720 325L722 329L720 331L722 335L720 337L725 337L733 341L734 337L742 346L755 346L761 350L755 357L757 357L757 361L753 365L756 368L756 370L752 372L754 372L753 376L749 376L746 372L743 373L741 364L736 370L734 370L730 366L728 366L728 368L725 369L716 363L714 363L712 367L708 368L704 366L701 362L688 360L692 355L692 351L690 348L693 344L691 339L692 338L689 337L687 341L686 340L685 343L682 344L680 342L680 339L678 340L673 335L671 330L672 328L670 325L672 323L670 323L672 320L674 322L682 320L695 308L695 302L698 301L699 296L701 299L706 295L709 296L708 301L711 303L711 326L714 327L714 324L715 325L716 323L718 323L717 325L719 325z"/></g><g><path class="class-2 leaflet-clickable" stroke-linejoin="round" stroke-linecap="round" fill-rule="evenodd" stroke="#005540" stroke-opacity="1" stroke-width="0.5" fill="#00cc99" fill-opacity="0.5" d="M928 457L928 470L917 470L918 467L912 465L913 462L909 459L909 455L905 455L898 460L897 459L897 461L895 463L891 463L891 465L888 468L886 466L885 467L886 466L884 464L882 464L880 459L881 456L879 456L880 455L877 453L874 454L874 460L870 464L868 469L866 467L868 463L866 463L862 458L857 456L858 452L856 448L872 442L885 442L888 440L888 438L893 437L896 442L900 442L901 449L904 450L905 452L913 456L913 450L916 448L916 450L922 453L928 453L928 455z"/></g><g><path class="class-2 leaflet-clickable" stroke-linejoin="round" stroke-linecap="round" fill-rule="evenodd" stroke="#005540" stroke-opacity="1" stroke-width="0.5" fill="#00cc99" fill-opacity="0.5" d="M753 417L752 414L758 414L761 412L760 411L766 411L771 415L771 417L773 417L776 420L775 422L772 421L770 424L767 423L764 426L757 420L756 417L754 418z"/></g><g><path class="class-2 leaflet-clickable" stroke-linejoin="round" stroke-linecap="round" fill-rule="evenodd" stroke="#005540" stroke-opacity="1" stroke-width="0.5" fill="#00cc99" fill-opacity="0.5" d="M638 238L646 241L648 249L646 252L647 261L643 268L647 272L644 272L643 275L649 281L648 282L655 287L657 287L662 279L666 294L665 296L662 297L658 297L657 295L647 295L635 306L636 315L634 315L634 317L631 319L628 326L627 331L629 336L625 337L625 344L620 347L616 342L614 342L614 340L612 340L610 343L608 341L607 339L611 337L608 333L609 332L601 332L599 328L596 329L594 327L592 322L593 321L590 316L588 317L587 308L589 309L587 307L586 302L581 297L578 297L578 299L574 299L570 289L560 280L558 271L560 269L559 268L564 265L563 264L566 267L570 267L575 263L573 264L573 258L576 257L575 254L580 246L582 236L583 237L585 234L587 237L588 236L591 239L592 238L598 243L606 243L607 245L613 243L618 247L626 235L630 237L635 237z"/></g><g><path class="class-2 leaflet-clickable" stroke-linejoin="round" stroke-linecap="round" fill-rule="evenodd" stroke="#005540" stroke-opacity="1" stroke-width="0.5" fill="#00cc99" fill-opacity="0.5" d="M773 349L771 351L763 344L761 344L760 346L753 345L751 347L744 345L742 346L734 337L733 341L730 339L726 339L725 337L720 337L722 335L720 332L722 330L720 328L721 323L719 323L721 321L724 322L723 317L726 312L732 312L734 309L734 307L730 303L732 296L729 294L729 292L733 291L734 288L738 286L740 287L742 283L741 281L744 278L747 279L758 270L755 269L755 255L749 255L747 257L745 253L742 255L741 249L739 250L735 247L736 241L730 239L732 234L728 233L730 229L728 219L724 218L724 216L729 213L733 216L735 230L739 234L743 246L745 245L747 247L752 248L752 250L758 250L763 255L776 255L781 260L783 259L782 258L787 257L787 263L780 276L775 294L773 336L771 339L772 348z"/></g><g><path class="class-2 leaflet-clickable" stroke-linejoin="round" stroke-linecap="round" fill-rule="evenodd" stroke="#005540" stroke-opacity="1" stroke-width="0.5" fill="#00cc99" fill-opacity="0.5" d="M746 427L742 427L737 423L742 414L746 421L746 426z"/></g><g><path class="class-1 leaflet-clickable" stroke-linejoin="round" stroke-linecap="round" fill-rule="evenodd" stroke="#005540" stroke-opacity="1" stroke-width="0.5" fill="#7fd" fill-opacity="0.5" d="M746 427L749 430L753 428L751 434L752 441L751 442L749 440L744 444L738 441L734 436L739 425L746 427z"/></g><g><path class="class-1 leaflet-clickable" stroke-linejoin="round" stroke-linecap="round" fill-rule="evenodd" stroke="#005540" stroke-opacity="1" stroke-width="0.5" fill="#7fd" fill-opacity="0.5" d="M714 397L718 399L717 401L720 404L719 405L721 408L719 408L717 412L718 419L715 420L713 426L707 433L704 432L705 439L708 441L708 444L704 441L701 442L699 440L693 439L689 441L683 438L680 439L679 441L680 446L673 449L673 455L643 445L637 436L643 429L648 428L651 430L654 427L654 425L655 426L655 424L660 422L661 423L663 421L664 417L660 417L661 415L658 410L660 408L659 406L653 405L653 402L656 401L655 400L660 401L666 396L673 395L677 395L676 396L678 396L680 400L684 400L685 397L689 396L689 398L692 399L690 399L690 402L692 404L696 404L696 402L698 402L701 406L711 406L714 405L713 402L715 398z"/></g><g><path class="class-1 leaflet-clickable" stroke-linejoin="round" stroke-linecap="round" fill-rule="evenodd" stroke="#005540" stroke-opacity="1" stroke-width="0.5" fill="#7fd" fill-opacity="0.5" d="M744 373L743 376L739 378L738 376L733 386L734 388L726 391L726 398L724 397L724 402L720 404L717 401L717 398L715 398L711 394L709 385L712 382L720 382L721 379L722 380L722 375L728 375L730 373L727 372L729 366L736 370L741 364L743 373z"/></g><g><path class="class-1 leaflet-clickable" stroke-linejoin="round" stroke-linecap="round" fill-rule="evenodd" stroke="#005540" stroke-opacity="1" stroke-width="0.5" fill="#7fd" fill-opacity="0.5" d="M581 371L580 371z"/></g><g><path class="class-1 leaflet-clickable" stroke-linejoin="round" stroke-linecap="round" fill-rule="evenodd" stroke="#005540" stroke-opacity="1" stroke-width="0.5" fill="#7fd" fill-opacity="0.5" d="M576 368L578 369L577 370L575 368z"/></g><g><path class="class-1 leaflet-clickable" stroke-linejoin="round" stroke-linecap="round" fill-rule="evenodd" stroke="#005540" stroke-opacity="1" stroke-width="0.5" fill="#7fd" fill-opacity="0.5" d="M571 363L573 363L574 366L572 366L571 364z"/></g><g><path class="class-1 leaflet-clickable" stroke-linejoin="round" stroke-linecap="round" fill-rule="evenodd" stroke="#005540" stroke-opacity="1" stroke-width="0.5" fill="#7fd" fill-opacity="0.5" d="M571 361L570 362z"/></g><g><path class="class-1 leaflet-clickable" stroke-linejoin="round" stroke-linecap="round" fill-rule="evenodd" stroke="#005540" stroke-opacity="1" stroke-width="0.5" fill="#7fd" fill-opacity="0.5" d="M623 346L625 347L623 356L627 356L628 360L632 361L634 363L633 366L638 370L635 373L636 374L626 376L627 381L623 385L626 387L626 389L615 380L606 382L603 388L601 386L596 386L604 376L604 367L603 368L598 364L594 356L594 349L591 343L592 342L592 344L594 341L599 343L597 339L597 333L600 329L601 332L609 332L608 333L611 337L607 339L609 343L613 340L618 344L619 347L623 345z"/></g><g><path class="class-1 leaflet-clickable" stroke-linejoin="round" stroke-linecap="round" fill-rule="evenodd" stroke="#005540" stroke-opacity="1" stroke-width="0.5" fill="#7fd" fill-opacity="0.5" d="M1010 443L1011 440L1011 442z"/></g><g><path class="class-1 leaflet-clickable" stroke-linejoin="round" stroke-linecap="round" fill-rule="evenodd" stroke="#005540" stroke-opacity="1" stroke-width="0.5" fill="#7fd" fill-opacity="0.5" d="M1012 435L1012 437L1012 435z"/></g><g><path class="class-1 leaflet-clickable" stroke-linejoin="round" stroke-linecap="round" fill-rule="evenodd" stroke="#005540" stroke-opacity="1" stroke-width="0.5" fill="#7fd" fill-opacity="0.5" d="M1024 391L1018 398L1018 394L1020 391L1025 390z"/></g><g><path class="class-1 leaflet-clickable" stroke-linejoin="round" stroke-linecap="round" fill-rule="evenodd" stroke="#005540" stroke-opacity="1" stroke-width="0.5" fill="#7fd" fill-opacity="0.5" d="M969 454L968 450L970 449L970 425L969 418L966 415L969 413L970 414L970 412L972 412L972 410L977 407L977 405L980 404L981 401L984 401L986 398L992 397L996 394L1003 386L1006 380L1006 368L1013 370L1016 369L1017 366L1022 373L1022 370L1023 371L1023 379L1020 385L1008 399L1008 409L1007 410L1008 406L1007 409L1001 412L1003 416L1008 413L1009 414L1008 418L1003 420L1003 424L1006 421L1008 421L1006 423L998 449L995 449L995 443L990 443L990 441L984 441L982 447L979 449L976 455L972 452L970 454z"/></g><g><path class="class-1 leaflet-clickable" stroke-linejoin="round" stroke-linecap="round" fill-rule="evenodd" stroke="#005540" stroke-opacity="1" stroke-width="0.5" fill="#7fd" fill-opacity="0.5" d="M1016 365L1014 367L1009 368L1011 366L1015 366z"/></g><g><path class="class-1 leaflet-clickable" stroke-linejoin="round" stroke-linecap="round" fill-rule="evenodd" stroke="#005540" stroke-opacity="1" stroke-width="0.5" fill="#7fd" fill-opacity="0.5" d="M704 292L706 295L701 299L699 297L698 301L696 302L695 308L690 313L682 320L677 322L674 322L672 320L670 323L672 323L670 325L674 336L678 340L680 339L680 342L682 344L685 343L689 337L692 338L691 339L693 343L691 344L690 348L692 350L692 355L689 359L688 360L687 358L680 355L676 352L676 348L675 349L670 345L668 347L662 348L662 352L657 359L660 363L660 366L663 368L662 371L660 371L656 375L653 374L653 378L651 379L647 379L640 376L638 372L642 371L642 369L638 369L638 367L642 365L643 362L641 360L651 355L653 350L651 348L650 349L648 345L646 347L647 350L645 350L644 353L638 352L641 349L641 344L640 342L638 342L636 343L635 351L633 347L635 343L634 342L637 341L637 339L634 337L630 338L633 343L630 347L630 343L628 343L626 347L624 346L625 338L629 336L627 331L630 319L635 315L636 316L635 306L639 302L641 302L641 299L643 299L645 295L657 295L660 297L665 296L666 291L662 283L662 280L667 281L666 278L675 279L680 281L682 284L686 285L685 286L687 288L693 286L696 288L697 291L701 293L704 292z"/></g><g><path class="class-1 leaflet-clickable" stroke-linejoin="round" stroke-linecap="round" fill-rule="evenodd" stroke="#005540" stroke-opacity="1" stroke-width="0.5" fill="#7fd" fill-opacity="0.5" d="M728 368L727 371L728 373L730 373L726 376L722 375L723 376L721 382L712 382L709 385L711 393L715 398L713 402L714 405L701 406L698 402L696 402L696 404L692 404L690 402L690 400L692 399L689 398L689 396L687 396L684 399L678 399L678 397L675 394L678 391L675 384L678 382L682 374L685 373L684 370L686 370L685 367L687 363L686 362L688 360L694 360L696 362L698 361L706 367L712 367L713 363L715 363L725 369L727 368z"/></g><g><path class="class-1 leaflet-clickable" stroke-linejoin="round" stroke-linecap="round" fill-rule="evenodd" stroke="#005540" stroke-opacity="1" stroke-width="0.5" fill="#7fd" fill-opacity="0.5" d="M499 302L497 302L497 297L499 301z"/></g><g><path class="class-1 leaflet-clickable" stroke-linejoin="round" stroke-linecap="round" fill-rule="evenodd" stroke="#005540" stroke-opacity="1" stroke-width="0.5" fill="#7fd" fill-opacity="0.5" d="M487 293L487 296L486 293z"/></g><g><path class="class-1 leaflet-clickable" stroke-linejoin="round" stroke-linecap="round" fill-rule="evenodd" stroke="#005540" stroke-opacity="1" stroke-width="0.5" fill="#7fd" fill-opacity="0.5" d="M486 291L486 292z"/></g><g><path class="class-1 leaflet-clickable" stroke-linejoin="round" stroke-linecap="round" fill-rule="evenodd" stroke="#005540" stroke-opacity="1" stroke-width="0.5" fill="#7fd" fill-opacity="0.5" d="M479 279L482 281L483 284L479 280z"/></g><g><path class="class-1 leaflet-clickable" stroke-linejoin="round" stroke-linecap="round" fill-rule="evenodd" stroke="#005540" stroke-opacity="1" stroke-width="0.5" fill="#7fd" fill-opacity="0.5" d="M479 273L478 275L479 273z"/></g><g><path class="class-1 leaflet-clickable" stroke-linejoin="round" stroke-linecap="round" fill-rule="evenodd" stroke="#005540" stroke-opacity="1" stroke-width="0.5" fill="#7fd" fill-opacity="0.5" d="M477 263L478 266L477 264z"/></g><g><path class="class-1 leaflet-clickable" stroke-linejoin="round" stroke-linecap="round" fill-rule="evenodd" stroke="#005540" stroke-opacity="1" stroke-width="0.5" fill="#7fd" fill-opacity="0.5" d="M471 263L471 265L471 263z"/></g><g><path class="class-1 leaflet-clickable" stroke-linejoin="round" stroke-linecap="round" fill-rule="evenodd" stroke="#005540" stroke-opacity="1" stroke-width="0.5" fill="#7fd" fill-opacity="0.5" d="M471 254L471 256L469 256L467 260L468 261L467 258L468 255L470 255z"/></g><g><path class="class-1 leaflet-clickable" stroke-linejoin="round" stroke-linecap="round" fill-rule="evenodd" stroke="#005540" stroke-opacity="1" stroke-width="0.5" fill="#7fd" fill-opacity="0.5" d="M466 252L466 252z"/></g><g><path class="class-1 leaflet-clickable" stroke-linejoin="round" stroke-linecap="round" fill-rule="evenodd" stroke="#005540" stroke-opacity="1" stroke-width="0.5" fill="#7fd" fill-opacity="0.5" d="M448 224L448 226L447 224z"/></g><g><path class="class-1 leaflet-clickable" stroke-linejoin="round" stroke-linecap="round" fill-rule="evenodd" stroke="#005540" stroke-opacity="1" stroke-width="0.5" fill="#7fd" fill-opacity="0.5" d="M451 219L450 219z"/></g><g><path class="class-1 leaflet-clickable" stroke-linejoin="round" stroke-linecap="round" fill-rule="evenodd" stroke="#005540" stroke-opacity="1" stroke-width="0.5" fill="#7fd" fill-opacity="0.5" d="M377 208L377 208z"/></g><g><path class="class-1 leaflet-clickable" stroke-linejoin="round" stroke-linecap="round" fill-rule="evenodd" stroke="#005540" stroke-opacity="1" stroke-width="0.5" fill="#7fd" fill-opacity="0.5" d="M399 205L432 205L434 212L442 218L445 224L444 225L451 229L449 230L449 232L451 234L453 233L456 235L459 241L462 243L461 244L465 254L465 262L470 268L472 268L473 274L480 285L478 293L481 300L487 302L487 298L490 298L495 302L495 305L499 306L499 308L502 311L502 314L507 317L508 324L504 329L495 334L492 330L490 320L486 316L482 314L470 302L460 297L455 298L445 290L445 287L442 286L447 274L447 261L441 250L434 248L419 236L417 235L414 238L407 231L403 231L400 227L396 227L393 224L392 220L379 209L380 208L392 211L398 208L399 206z"/></g><g><path class="class-1 leaflet-clickable" stroke-linejoin="round" stroke-linecap="round" fill-rule="evenodd" stroke="#005540" stroke-opacity="1" stroke-width="0.5" fill="#7fd" fill-opacity="0.5" d="M437 186L436 188L436 186z"/></g><g><path class="class-1 leaflet-clickable" stroke-linejoin="round" stroke-linecap="round" fill-rule="evenodd" stroke="#005540" stroke-opacity="1" stroke-width="0.5" fill="#7fd" fill-opacity="0.5" d="M443 173L445 179L442 186L437 182L438 175L442 173z"/></g><g><path class="class-1 leaflet-clickable" stroke-linejoin="round" stroke-linecap="round" fill-rule="evenodd" stroke="#005540" stroke-opacity="1" stroke-width="0.5" fill="#7fd" fill-opacity="0.5" d="M388 106L390 106L389 107z"/></g><g><path class="class-1 leaflet-clickable" stroke-linejoin="round" stroke-linecap="round" fill-rule="evenodd" stroke="#005540" stroke-opacity="1" stroke-width="0.5" fill="#7fd" fill-opacity="0.5" d="M385 86L465 115L470 118L523 118L522 120L520 120L521 123L524 125L523 126L525 126L522 126L522 129L519 129L519 132L521 135L520 136L527 141L526 144L528 145L526 145L526 158L528 158L528 160L525 160L526 166L524 168L524 182L527 186L529 196L517 198L516 202L520 209L519 210L523 213L525 217L527 222L525 224L528 231L531 231L525 239L525 241L523 241L520 244L520 246L512 248L512 244L510 241L505 238L500 238L496 229L488 227L484 223L481 223L482 209L480 207L479 208L475 206L475 208L473 208L473 206L467 204L461 195L457 193L451 186L452 184L445 180L445 173L443 170L442 171L440 169L441 167L437 162L435 156L432 155L432 148L424 134L425 122L419 119L412 118L412 114L407 110L399 113L390 106L383 103L381 96L382 95L380 93L382 91L382 87L385 87zM476 205L476 206z"/></g><g><path class="class-1 leaflet-clickable" stroke-linejoin="round" stroke-linecap="round" fill-rule="evenodd" stroke="#005540" stroke-opacity="1" stroke-width="0.5" fill="#7fd" fill-opacity="0.5" d="M387 444L387 444z"/></g><g><path class="class-1 leaflet-clickable" stroke-linejoin="round" stroke-linecap="round" fill-rule="evenodd" stroke="#005540" stroke-opacity="1" stroke-width="0.5" fill="#7fd" fill-opacity="0.5" d="M472 432L474 434L473 435L471 433L472 432z"/></g><g><path class="class-1 leaflet-clickable" stroke-linejoin="round" stroke-linecap="round" fill-rule="evenodd" stroke="#005540" stroke-opacity="1" stroke-width="0.5" fill="#7fd" fill-opacity="0.5" d="M643 429L637 436L623 426L616 424L617 425L620 422L621 423L629 421L628 420L630 416L635 419L639 416L643 420L643 429z"/></g><g><path class="class-1 leaflet-clickable" stroke-linejoin="round" stroke-linecap="round" fill-rule="evenodd" stroke="#005540" stroke-opacity="1" stroke-width="0.5" fill="#7fd" fill-opacity="0.5" d="M476 422L476 421z"/></g><g><path class="class-1 leaflet-clickable" stroke-linejoin="round" stroke-linecap="round" fill-rule="evenodd" stroke="#005540" stroke-opacity="1" stroke-width="0.5" fill="#7fd" fill-opacity="0.5" d="M660 362L662 361L670 365L680 358L681 357L679 357L681 355L683 355L688 361L686 361L687 362L685 367L687 370L685 370L685 372L682 374L682 376L675 385L678 388L675 394L673 396L667 396L658 402L657 400L653 402L653 405L655 404L660 407L660 409L658 410L661 415L660 416L665 417L662 423L660 422L656 424L651 430L649 428L643 429L643 421L639 416L635 419L630 416L628 421L621 423L620 422L617 425L613 423L613 421L612 422L609 420L607 415L605 415L597 404L593 394L601 392L603 390L602 388L604 385L605 386L607 382L612 380L619 382L626 390L625 385L623 385L627 381L626 376L636 374L635 373L638 370L633 365L634 363L632 361L628 361L627 357L623 355L625 347L627 345L628 346L627 343L630 344L629 347L633 344L630 339L631 337L637 339L637 341L634 342L635 343L633 347L635 351L635 347L638 341L641 343L638 352L639 353L643 353L645 350L647 350L646 347L648 345L650 347L649 348L653 350L651 356L647 356L643 360L641 360L643 362L642 365L638 367L638 369L642 369L643 371L638 373L640 373L641 377L651 379L653 374L656 375L660 371L661 372L663 368L659 365L660 363z"/></g><g><path class="class-0 leaflet-clickable" stroke-linejoin="round" stroke-linecap="round" fill-rule="evenodd" stroke="#005540" stroke-opacity="1" stroke-width="0.5" fill="#ddfff6" fill-opacity="0.5" d="M726 211L729 213L724 216L724 218L728 219L730 228L728 233L732 234L730 238L736 241L735 247L739 250L741 249L742 255L745 253L747 257L749 255L755 255L755 269L758 269L748 279L744 278L741 281L741 287L738 286L734 288L733 291L729 292L729 294L731 294L732 296L730 303L735 309L732 312L726 312L723 317L724 322L721 321L719 323L721 323L720 325L717 325L718 323L716 323L715 325L714 324L715 327L712 326L712 313L710 310L711 304L708 302L709 297L704 292L704 285L706 283L704 282L704 277L706 275L717 276L717 274L713 273L708 268L710 268L705 265L702 254L695 247L705 237L707 240L708 239L710 235L710 229L704 229L703 226L707 222L713 220L714 213L718 210L722 214L724 213z"/></g><g><path class="class-0 leaflet-clickable" stroke-linejoin="round" stroke-linecap="round" fill-rule="evenodd" stroke="#005540" stroke-opacity="1" stroke-width="0.5" fill="#ddfff6" fill-opacity="0.5" d="M680 355L679 356L681 358L676 359L672 364L668 364L662 361L659 362L657 360L662 352L662 348L668 347L670 345L674 347L673 348L676 348L676 352L680 355z"/></g><g><path class="class-1 leaflet-clickable" stroke-linejoin="round" stroke-linecap="round" fill-rule="evenodd" stroke="#005540" stroke-opacity="1" stroke-width="0.5" fill="#7fd" fill-opacity="0.5" d="M1006 368L1006 380L1003 386L992 398L986 398L980 404L978 404L977 407L975 407L976 408L970 414L969 413L966 415L963 413L959 407L959 404L956 400L954 400L950 393L947 394L942 391L941 384L943 379L953 374L979 370L983 367L988 367L991 365L1006 368z"/></g><g><path class="class-1 leaflet-clickable" stroke-linejoin="round" stroke-linecap="round" fill-rule="evenodd" stroke="#005540" stroke-opacity="1" stroke-width="0.5" fill="#7fd" fill-opacity="0.5" d="M956 341L959 342L960 344L958 346L955 343L956 341z"/></g><g><path class="class-1 leaflet-clickable" stroke-linejoin="round" stroke-linecap="round" fill-rule="evenodd" stroke="#005540" stroke-opacity="1" stroke-width="0.5" fill="#7fd" fill-opacity="0.5" d="M726 211L722 215L718 210L714 213L713 220L707 222L703 226L704 229L710 229L710 235L708 239L707 240L705 237L695 247L704 258L703 261L707 267L710 268L708 268L712 271L712 273L717 273L717 276L706 275L704 277L704 281L706 283L704 285L703 292L701 293L693 286L687 288L685 286L686 285L672 278L666 278L667 281L662 279L657 288L648 282L649 281L643 275L643 273L645 271L646 272L643 268L647 262L646 252L648 249L646 241L638 238L638 236L635 233L637 230L633 210L634 209L632 209L632 206L634 206L634 203L640 192L639 191L647 179L651 180L652 177L656 173L657 174L656 172L658 170L659 164L663 159L667 159L670 156L681 159L689 158L691 162L693 162L693 164L694 163L694 165L707 176L711 188L715 193L714 194L726 210z"/></g><g><path class="class-1 leaflet-clickable" stroke-linejoin="round" stroke-linecap="round" fill-rule="evenodd" stroke="#005540" stroke-opacity="1" stroke-width="0.5" fill="#7fd" fill-opacity="0.5" d="M512 248L516 248L521 244L522 241L526 239L530 229L536 230L535 233L537 233L540 236L540 245L546 253L555 253L557 256L556 258L562 262L562 264L564 264L561 267L559 267L560 270L558 271L560 275L560 280L562 280L565 286L570 289L573 295L572 296L575 299L578 299L578 297L584 299L586 305L589 308L587 308L588 316L591 317L593 321L592 322L594 324L594 328L600 329L597 333L597 340L598 339L599 342L598 343L594 341L593 344L575 325L574 321L568 315L563 307L545 294L529 274L516 269L513 265L509 265L507 257L512 248z"/></g></svg>