<svg xmlns="http://www.w3.org/2000/svg" class="leaflet-zoom-animated" width="1978" height="599" viewBox="-43 -4 1978 599" style="transform: translate3d(-43px, -4px, 0px);"><g><path class="class-3 leaflet-clickable" stroke-linejoin="round" stroke-linecap="round" fill-rule="evenodd" stroke="#005540" stroke-opacity="1" stroke-width="0.5" fill="#086" fill-opacity="0.5" d="M1178 470L1181 473L1182 472L1182 474L1186 476L1185 477L1190 481L1195 483L1196 488L1202 491L1201 498L1172 498L1161 518L1164 522L1161 527L1162 531L1160 535L1132 507L1124 501L1119 500L1117 496L1119 495L1119 492L1117 489L1123 473L1131 466L1131 464L1135 460L1134 458L1137 453L1140 455L1140 457L1142 457L1141 459L1144 465L1145 464L1147 466L1146 467L1147 466L1149 468L1153 463L1158 462L1157 461L1163 458L1163 456L1166 454L1169 455L1169 459L1173 460L1173 466L1178 467L1179 470z"/></g><g><path class="class-3 leaflet-clickable" stroke-linejoin="round" stroke-linecap="round" fill-rule="evenodd" stroke="#005540" stroke-opacity="1" stroke-width="0.5" fill="#086" fill-opacity="0.5" d="M1123 473L1117 489L1119 492L1118 496L1120 500L1114 497L1104 495L1092 496L1087 501L1083 501L1073 506L1072 505L1069 508L1060 508L1051 505L1048 502L1034 501L1024 494L1017 493L1021 490L1020 487L1025 485L1024 484L1027 481L1027 477L1029 475L1024 474L1023 470L1022 471L1022 464L1018 460L1019 456L1023 454L1024 455L1026 453L1030 453L1033 455L1035 452L1034 451L1033 453L1032 448L1037 445L1039 452L1046 448L1051 449L1058 443L1059 437L1065 440L1070 449L1078 449L1079 454L1077 459L1081 463L1084 464L1090 459L1092 459L1093 460L1091 462L1095 467L1100 470L1099 471L1118 473z"/></g><g><path class="class-3 leaflet-clickable" stroke-linejoin="round" stroke-linecap="round" fill-rule="evenodd" stroke="#005540" stroke-opacity="1" stroke-width="0.5" fill="#086" fill-opacity="0.5" d="M1058 443L1054 447L1049 449L1046 448L1041 452L1039 452L1037 446L1033 446L1033 453L1035 451L1036 452L1034 452L1031 455L1029 453L1025 453L1025 455L1020 456L1019 453L1015 454L1005 446L1005 444L1008 441L1013 442L1012 434L1015 428L1014 417L1016 417L1025 426L1028 423L1031 425L1033 422L1037 421L1034 417L1031 416L1032 415L1030 413L1028 413L1028 411L1023 412L1024 411L1022 408L1027 401L1025 398L1022 398L1025 397L1031 390L1032 384L1035 385L1035 389L1039 392L1034 395L1036 397L1035 400L1039 402L1042 398L1048 401L1042 416L1044 418L1043 419L1052 422L1050 424L1051 425L1047 424L1044 437L1045 436L1050 441L1054 439L1058 443z"/></g><g><path class="class-3 leaflet-clickable" stroke-linejoin="round" stroke-linecap="round" fill-rule="evenodd" stroke="#005540" stroke-opacity="1" stroke-width="0.5" fill="#086" fill-opacity="0.5" d="M995 435L999 441L1003 441L1005 446L1010 450L1009 451L1012 452L1010 452L1013 454L1019 454L1018 460L1022 464L1022 471L1023 470L1024 473L1028 475L1027 480L1024 484L1025 485L1021 487L1020 491L1016 493L1011 487L1009 488L999 484L991 484L983 478L959 470L960 469L955 465L951 464L942 455L934 452L935 448L941 445L941 439L943 438L947 438L947 440L949 441L965 441L967 443L968 442L968 444L969 441L967 441L966 439L965 432L968 433L970 431L973 434L972 437L977 444L983 438L987 438L991 434L994 436z"/></g><g><path class="class-3 leaflet-clickable" stroke-linejoin="round" stroke-linecap="round" fill-rule="evenodd" stroke="#005540" stroke-opacity="1" stroke-width="0.5" fill="#086" fill-opacity="0.5" d="M1014 417L1013 414L1019 414L1022 412L1021 411L1027 411L1032 415L1032 417L1034 417L1037 420L1036 422L1033 421L1031 424L1028 423L1025 426L1018 420L1017 417L1015 418z"/></g><g><path class="class-3 leaflet-clickable" stroke-linejoin="round" stroke-linecap="round" fill-rule="evenodd" stroke="#005540" stroke-opacity="1" stroke-width="0.5" fill="#086" fill-opacity="0.5" d="M1029 392L1025 397L1022 398L1026 399L1026 401L1022 407L1024 410L1021 411L1022 412L1020 414L1014 414L1015 409L1012 407L1008 407L1007 409L1006 406L1008 404L1006 403L1006 405L1003 404L1001 408L999 408L998 410L998 408L995 405L995 400L992 401L987 398L987 391L992 390L994 388L998 379L997 378L1005 376L1007 372L1008 375L1014 376L1014 372L1018 370L1017 373L1020 376L1023 375L1022 376L1024 376L1026 379L1023 383L1024 385L1019 384L1016 388L1018 387L1016 396L1021 395L1027 389L1029 391z"/></g><g><path class="class-2 leaflet-clickable" stroke-linejoin="round" stroke-linecap="round" fill-rule="evenodd" stroke="#005540" stroke-opacity="1" stroke-width="0.5" fill="#00cc99" fill-opacity="0.5" d="M1034 349L1036 357L1044 366L1042 372L1043 378L1050 392L1057 398L1064 407L1067 419L1072 424L1072 426L1075 427L1077 432L1082 435L1091 435L1101 440L1108 449L1117 447L1118 456L1126 460L1128 463L1128 470L1126 470L1123 473L1099 472L1100 470L1095 467L1091 462L1093 460L1092 459L1090 459L1084 464L1081 464L1077 459L1079 454L1078 449L1070 449L1071 448L1070 449L1068 447L1063 438L1059 437L1058 444L1056 440L1052 439L1050 441L1047 437L1044 436L1046 431L1045 428L1052 422L1043 419L1044 418L1042 416L1042 414L1045 411L1045 407L1049 401L1042 398L1039 402L1035 400L1036 397L1034 395L1035 393L1036 394L1039 392L1036 391L1034 384L1032 384L1031 390L1029 391L1027 388L1026 391L1021 395L1016 396L1017 395L1015 392L1018 390L1019 387L1017 388L1021 383L1021 385L1023 385L1024 380L1026 378L1022 376L1023 375L1020 376L1017 373L1018 370L1017 371L1014 365L1019 361L1016 356L1018 357L1019 353L1022 350L1014 346L1020 346L1023 344L1029 347L1032 351L1033 349z"/></g><g><path class="class-2 leaflet-clickable" stroke-linejoin="round" stroke-linecap="round" fill-rule="evenodd" stroke="#005540" stroke-opacity="1" stroke-width="0.5" fill="#00cc99" fill-opacity="0.5" d="M987 398L992 401L995 400L995 407L998 409L997 410L1001 407L1001 405L1006 405L1006 403L1007 409L1009 407L1012 407L1015 410L1013 414L1015 418L1015 428L1010 430L1007 427L1007 421L1005 419L1004 414L998 421L1000 425L999 430L996 431L997 433L994 436L990 434L991 435L989 435L987 438L983 438L977 444L973 439L974 438L972 437L973 434L970 431L979 418L977 412L980 411L980 403L984 403L984 399L986 398z"/></g><g><path class="class-2 leaflet-clickable" stroke-linejoin="round" stroke-linecap="round" fill-rule="evenodd" stroke="#005540" stroke-opacity="1" stroke-width="0.5" fill="#00cc99" fill-opacity="0.5" d="M908 179L900 191L901 192L895 202L895 207L894 206L893 209L895 209L895 223L897 224L898 229L896 234L899 236L899 238L887 235L885 236L886 237L879 247L875 243L869 245L867 243L862 244L861 242L860 243L854 240L853 238L852 239L849 236L848 237L846 234L845 237L843 237L844 238L841 242L841 246L836 253L837 257L834 258L834 264L836 262L832 267L828 267L817 258L818 257L815 252L807 253L805 251L801 245L801 237L798 233L796 233L796 229L790 231L788 230L789 229L788 230L788 227L786 225L788 222L786 219L787 217L785 216L784 212L780 210L782 209L777 202L777 198L790 196L790 192L785 181L786 176L784 174L784 172L786 172L785 168L787 166L786 160L789 159L787 157L787 145L789 146L786 138L782 137L780 133L780 130L783 129L783 126L786 126L784 126L785 125L782 123L783 121L781 121L784 118L797 118L797 106L800 105L837 106L842 113L845 116L847 116L858 128L868 135L870 135L870 137L872 137L873 143L877 148L877 156L880 159L880 161L884 165L888 166L887 167L890 170L897 172L908 179z"/></g><g><path class="class-2 leaflet-clickable" stroke-linejoin="round" stroke-linecap="round" fill-rule="evenodd" stroke="#005540" stroke-opacity="1" stroke-width="0.5" fill="#00cc99" fill-opacity="0.5" d="M981 325L983 329L981 331L983 335L981 337L986 337L994 341L995 337L1003 346L1016 346L1022 350L1016 357L1018 357L1018 361L1014 365L1017 368L1017 370L1013 372L1015 372L1014 376L1010 376L1007 372L1004 373L1002 364L997 370L995 370L991 366L989 366L989 368L986 369L977 363L975 363L973 367L969 368L965 366L962 362L949 360L953 355L953 351L951 348L954 344L952 339L953 338L950 337L948 341L947 340L946 343L943 344L941 342L941 339L939 340L934 335L932 330L933 328L931 325L933 323L931 323L933 320L935 322L943 320L956 308L956 302L959 301L960 296L962 299L967 295L970 296L969 301L972 303L972 326L975 327L975 324L976 325L977 323L979 323L978 325L980 325z"/></g><g><path class="class-2 leaflet-clickable" stroke-linejoin="round" stroke-linecap="round" fill-rule="evenodd" stroke="#005540" stroke-opacity="1" stroke-width="0.5" fill="#00cc99" fill-opacity="0.5" d="M975 397L979 399L978 401L981 404L980 405L982 408L980 408L978 412L979 419L976 420L974 426L968 433L965 432L966 439L969 441L969 444L965 441L962 442L960 440L954 439L950 441L944 438L941 439L940 441L941 446L934 449L934 455L904 445L898 436L904 429L909 428L912 430L915 427L915 425L916 426L916 424L921 422L922 423L924 421L925 417L921 417L922 415L919 410L921 408L920 406L914 405L914 402L917 401L916 400L921 401L927 396L934 395L938 395L937 396L939 396L941 400L945 400L946 397L950 396L950 398L953 399L951 399L951 402L953 404L957 404L957 402L959 402L962 406L972 406L975 405L974 402L976 398z"/></g><g><path class="class-2 leaflet-clickable" stroke-linejoin="round" stroke-linecap="round" fill-rule="evenodd" stroke="#005540" stroke-opacity="1" stroke-width="0.5" fill="#00cc99" fill-opacity="0.5" d="M1005 373L1004 376L1000 378L999 376L994 386L995 388L987 391L987 398L985 397L985 402L981 404L978 401L978 398L976 398L972 394L970 385L973 382L981 382L982 379L983 380L983 375L989 375L991 373L988 372L990 366L997 370L1002 364L1004 373z"/></g><g><path class="class-2 leaflet-clickable" stroke-linejoin="round" stroke-linecap="round" fill-rule="evenodd" stroke="#005540" stroke-opacity="1" stroke-width="0.5" fill="#00cc99" fill-opacity="0.5" d="M965 292L967 295L962 299L960 297L959 301L957 302L956 308L951 313L943 320L938 322L935 322L933 320L931 323L933 323L931 325L935 336L939 340L941 339L941 342L943 344L946 343L950 337L953 338L952 339L954 343L952 344L951 348L953 350L953 355L950 359L949 360L948 358L941 355L937 352L937 348L936 349L931 345L929 347L923 348L923 352L918 359L921 363L921 366L924 368L923 371L921 371L917 375L914 374L914 378L912 379L908 379L901 376L899 372L903 371L903 369L899 369L899 367L903 365L904 362L902 360L912 355L914 350L912 348L911 349L909 345L907 347L908 350L906 350L905 353L899 352L902 349L902 344L901 342L899 342L897 343L896 351L894 347L896 343L895 342L898 341L898 339L895 337L891 338L894 343L891 347L891 343L889 343L887 347L885 346L886 338L890 336L888 331L891 319L896 315L897 316L896 306L900 302L902 302L902 299L904 299L906 295L918 295L921 297L926 296L927 291L923 283L923 280L928 281L927 278L936 279L941 281L943 284L947 285L946 286L948 288L954 286L957 288L958 291L962 293L965 292z"/></g><g><path class="class-2 leaflet-clickable" stroke-linejoin="round" stroke-linecap="round" fill-rule="evenodd" stroke="#005540" stroke-opacity="1" stroke-width="0.5" fill="#00cc99" fill-opacity="0.5" d="M1189 457L1189 470L1178 470L1179 467L1173 465L1174 462L1170 459L1170 455L1166 455L1159 460L1158 459L1158 461L1156 463L1152 463L1152 465L1149 468L1147 466L1146 467L1147 466L1145 464L1143 464L1141 459L1142 456L1140 456L1141 455L1138 453L1135 454L1135 460L1131 464L1129 469L1127 467L1129 463L1127 463L1123 458L1118 456L1119 452L1117 448L1133 442L1146 442L1149 440L1149 438L1154 437L1157 442L1161 442L1162 449L1166 452L1174 456L1174 450L1177 448L1177 450L1183 453L1189 453L1189 455z"/></g><g><path class="class-2 leaflet-clickable" stroke-linejoin="round" stroke-linecap="round" fill-rule="evenodd" stroke="#005540" stroke-opacity="1" stroke-width="0.5" fill="#00cc99" fill-opacity="0.5" d="M899 238L907 241L909 249L907 252L908 261L904 268L908 272L905 272L904 275L910 281L909 282L916 287L918 287L923 279L927 294L926 296L923 297L919 297L918 295L908 295L896 306L897 315L895 315L895 317L892 319L889 326L888 331L890 336L886 337L886 344L881 347L877 342L875 342L875 340L873 340L871 343L869 341L868 339L872 337L869 333L870 332L862 332L860 328L857 329L855 327L853 322L854 321L851 316L849 317L848 308L850 309L848 307L847 302L842 297L839 297L839 299L835 299L831 289L821 280L819 271L821 269L820 268L825 265L824 264L827 267L831 267L836 263L834 264L834 258L837 257L836 254L841 246L843 236L844 237L846 234L848 237L849 236L852 239L853 238L859 243L867 243L868 245L874 243L879 247L887 235L891 237L896 237z"/></g><g><path class="class-1 leaflet-clickable" stroke-linejoin="round" stroke-linecap="round" fill-rule="evenodd" stroke="#005540" stroke-opacity="1" stroke-width="0.5" fill="#7fd" fill-opacity="0.5" d="M1271 443L1272 440L1272 442z"/></g><g><path class="class-1 leaflet-clickable" stroke-linejoin="round" stroke-linecap="round" fill-rule="evenodd" stroke="#005540" stroke-opacity="1" stroke-width="0.5" fill="#7fd" fill-opacity="0.5" d="M1273 435L1273 437L1273 435z"/></g><g><path class="class-1 leaflet-clickable" stroke-linejoin="round" stroke-linecap="round" fill-rule="evenodd" stroke="#005540" stroke-opacity="1" stroke-width="0.5" fill="#7fd" fill-opacity="0.5" d="M1285 391L1279 398L1279 394L1281 391L1286 390z"/></g><g><path class="class-1 leaflet-clickable" stroke-linejoin="round" stroke-linecap="round" fill-rule="evenodd" stroke="#005540" stroke-opacity="1" stroke-width="0.5" fill="#7fd" fill-opacity="0.5" d="M1230 454L1229 450L1231 449L1231 425L1230 418L1227 415L1230 413L1231 414L1231 412L1233 412L1233 410L1238 407L1238 405L1241 404L1242 401L1245 401L1247 398L1253 397L1257 394L1264 386L1267 380L1267 368L1274 370L1277 369L1278 366L1283 373L1283 370L1284 371L1284 379L1281 385L1269 399L1269 409L1268 410L1269 406L1268 409L1262 412L1264 416L1269 413L1270 414L1269 418L1264 420L1264 424L1267 421L1269 421L1267 423L1259 449L1256 449L1256 443L1251 443L1251 441L1245 441L1243 447L1240 449L1237 455L1233 452L1231 454z"/></g><g><path class="class-1 leaflet-clickable" stroke-linejoin="round" stroke-linecap="round" fill-rule="evenodd" stroke="#005540" stroke-opacity="1" stroke-width="0.5" fill="#7fd" fill-opacity="0.5" d="M1277 365L1275 367L1270 368L1272 366L1276 366z"/></g><g><path class="class-1 leaflet-clickable" stroke-linejoin="round" stroke-linecap="round" fill-rule="evenodd" stroke="#005540" stroke-opacity="1" stroke-width="0.5" fill="#7fd" fill-opacity="0.5" d="M842 371L841 371z"/></g><g><path class="class-1 leaflet-clickable" stroke-linejoin="round" stroke-linecap="round" fill-rule="evenodd" stroke="#005540" stroke-opacity="1" stroke-width="0.5" fill="#7fd" fill-opacity="0.5" d="M837 368L839 369L838 370L836 368z"/></g><g><path class="class-1 leaflet-clickable" stroke-linejoin="round" stroke-linecap="round" fill-rule="evenodd" stroke="#005540" stroke-opacity="1" stroke-width="0.5" fill="#7fd" fill-opacity="0.5" d="M832 363L834 363L835 366L833 366L832 364z"/></g><g><path class="class-1 leaflet-clickable" stroke-linejoin="round" stroke-linecap="round" fill-rule="evenodd" stroke="#005540" stroke-opacity="1" stroke-width="0.5" fill="#7fd" fill-opacity="0.5" d="M832 361L831 362z"/></g><g><path class="class-1 leaflet-clickable" stroke-linejoin="round" stroke-linecap="round" fill-rule="evenodd" stroke="#005540" stroke-opacity="1" stroke-width="0.5" fill="#7fd" fill-opacity="0.5" d="M884 346L886 347L884 356L888 356L889 360L893 361L895 363L894 366L899 370L896 373L897 374L887 376L888 381L884 385L887 387L887 389L876 380L867 382L864 388L862 386L857 386L865 376L865 367L864 368L859 364L855 356L855 349L852 343L853 342L853 344L855 341L860 343L858 339L858 333L861 329L862 332L870 332L869 333L872 337L868 339L870 343L874 340L879 344L880 347L884 345z"/></g><g><path class="class-1 leaflet-clickable" stroke-linejoin="round" stroke-linecap="round" fill-rule="evenodd" stroke="#005540" stroke-opacity="1" stroke-width="0.5" fill="#7fd" fill-opacity="0.5" d="M1202 384L1202 391L1206 391L1207 394L1210 393L1215 397L1214 398L1220 404L1223 412L1230 418L1230 457L1189 457L1189 453L1179 451L1176 449L1177 448L1174 451L1174 455L1162 449L1162 444L1158 442L1155 438L1158 436L1166 436L1169 438L1186 428L1195 420L1195 412L1201 405L1200 391L1202 384z"/></g><g><path class="class-1 leaflet-clickable" stroke-linejoin="round" stroke-linecap="round" fill-rule="evenodd" stroke="#005540" stroke-opacity="1" stroke-width="0.5" fill="#7fd" fill-opacity="0.5" d="M1007 427L1010 430L1014 428L1012 434L1013 441L1012 442L1010 440L1005 444L999 441L995 436L1000 425L1007 427z"/></g><g><path class="class-1 leaflet-clickable" stroke-linejoin="round" stroke-linecap="round" fill-rule="evenodd" stroke="#005540" stroke-opacity="1" stroke-width="0.5" fill="#7fd" fill-opacity="0.5" d="M698 186L697 188L697 186z"/></g><g><path class="class-1 leaflet-clickable" stroke-linejoin="round" stroke-linecap="round" fill-rule="evenodd" stroke="#005540" stroke-opacity="1" stroke-width="0.5" fill="#7fd" fill-opacity="0.5" d="M704 173L706 179L703 186L698 182L699 175L703 173z"/></g><g><path class="class-1 leaflet-clickable" stroke-linejoin="round" stroke-linecap="round" fill-rule="evenodd" stroke="#005540" stroke-opacity="1" stroke-width="0.5" fill="#7fd" fill-opacity="0.5" d="M649 106L651 106L650 107z"/></g><g><path class="class-1 leaflet-clickable" stroke-linejoin="round" stroke-linecap="round" fill-rule="evenodd" stroke="#005540" stroke-opacity="1" stroke-width="0.5" fill="#7fd" fill-opacity="0.5" d="M646 86L726 115L731 118L784 118L783 120L781 120L782 123L785 125L784 126L786 126L783 126L783 129L780 129L780 132L782 135L781 136L788 141L787 144L789 145L787 145L787 158L789 158L789 160L786 160L787 166L785 168L785 182L788 186L790 196L778 198L777 202L781 209L780 210L784 213L786 217L788 222L786 224L789 231L792 231L786 239L786 241L784 241L781 244L781 246L773 248L773 244L771 241L766 238L761 238L757 229L749 227L745 223L742 223L743 209L741 207L740 208L736 206L736 208L734 208L734 206L728 204L722 195L718 193L712 186L713 184L706 180L706 173L704 170L703 171L701 169L702 167L698 162L696 156L693 155L693 148L685 134L686 122L680 119L673 118L673 114L668 110L660 113L651 106L644 103L642 96L643 95L641 93L643 91L643 87L646 87zM737 205L737 206z"/></g><g><path class="class-1 leaflet-clickable" stroke-linejoin="round" stroke-linecap="round" fill-rule="evenodd" stroke="#005540" stroke-opacity="1" stroke-width="0.5" fill="#7fd" fill-opacity="0.5" d="M1034 349L1032 351L1024 344L1022 344L1021 346L1014 345L1012 347L1005 345L1003 346L995 337L994 341L991 339L987 339L986 337L981 337L983 335L981 332L983 330L981 328L982 323L980 323L982 321L985 322L984 317L987 312L993 312L995 309L995 307L991 303L993 296L990 294L990 292L994 291L995 288L999 286L1001 287L1003 283L1002 281L1005 278L1008 279L1019 270L1016 269L1016 255L1010 255L1008 257L1006 253L1003 255L1002 249L1000 250L996 247L997 241L991 239L993 234L989 233L991 229L989 219L985 218L985 216L990 213L994 216L996 230L1000 234L1004 246L1006 245L1008 247L1013 248L1013 250L1019 250L1024 255L1037 255L1042 260L1044 259L1043 258L1048 257L1048 263L1041 276L1036 294L1034 336L1032 339L1033 348z"/></g><g><path class="class-1 leaflet-clickable" stroke-linejoin="round" stroke-linecap="round" fill-rule="evenodd" stroke="#005540" stroke-opacity="1" stroke-width="0.5" fill="#7fd" fill-opacity="0.5" d="M1267 368L1267 380L1264 386L1253 398L1247 398L1241 404L1239 404L1238 407L1236 407L1237 408L1231 414L1230 413L1227 415L1224 413L1220 407L1220 404L1217 400L1215 400L1211 393L1208 394L1203 391L1202 384L1204 379L1214 374L1240 370L1244 367L1249 367L1252 365L1267 368z"/></g><g><path class="class-1 leaflet-clickable" stroke-linejoin="round" stroke-linecap="round" fill-rule="evenodd" stroke="#005540" stroke-opacity="1" stroke-width="0.5" fill="#7fd" fill-opacity="0.5" d="M1217 341L1221 344L1219 346L1216 343L1217 341z"/></g><g><path class="class-1 leaflet-clickable" stroke-linejoin="round" stroke-linecap="round" fill-rule="evenodd" stroke="#005540" stroke-opacity="1" stroke-width="0.5" fill="#7fd" fill-opacity="0.5" d="M648 444L648 444z"/></g><g><path class="class-1 leaflet-clickable" stroke-linejoin="round" stroke-linecap="round" fill-rule="evenodd" stroke="#005540" stroke-opacity="1" stroke-width="0.5" fill="#7fd" fill-opacity="0.5" d="M733 432L735 434L734 435L732 433L733 432z"/></g><g><path class="class-1 leaflet-clickable" stroke-linejoin="round" stroke-linecap="round" fill-rule="evenodd" stroke="#005540" stroke-opacity="1" stroke-width="0.5" fill="#7fd" fill-opacity="0.5" d="M904 429L898 436L884 426L877 424L878 425L881 422L882 423L890 421L889 420L891 416L896 419L900 416L904 420L904 429z"/></g><g><path class="class-1 leaflet-clickable" stroke-linejoin="round" stroke-linecap="round" fill-rule="evenodd" stroke="#005540" stroke-opacity="1" stroke-width="0.5" fill="#7fd" fill-opacity="0.5" d="M737 422L737 421z"/></g><g><path class="class-0 leaflet-clickable" stroke-linejoin="round" stroke-linecap="round" fill-rule="evenodd" stroke="#005540" stroke-opacity="1" stroke-width="0.5" fill="#ddfff6" fill-opacity="0.5" d="M987 211L983 215L979 210L975 213L974 220L968 222L964 226L965 229L971 229L971 235L969 239L968 240L966 237L956 247L965 258L964 261L968 267L971 268L969 268L973 271L973 273L978 273L978 276L967 275L965 277L965 281L967 283L965 285L964 292L962 293L954 286L948 288L946 286L947 285L933 278L927 278L928 281L923 279L918 288L909 282L910 281L904 275L904 273L906 271L907 272L904 268L908 262L907 252L909 249L907 241L899 238L899 236L896 233L898 230L894 210L895 209L893 209L893 206L895 206L895 203L901 192L900 191L908 179L912 180L913 177L917 173L918 174L917 172L919 170L920 164L924 159L928 159L931 156L942 159L950 158L952 162L954 162L954 164L955 163L955 165L968 176L972 188L976 193L975 194L987 210z"/></g><g><path class="class-0 leaflet-clickable" stroke-linejoin="round" stroke-linecap="round" fill-rule="evenodd" stroke="#005540" stroke-opacity="1" stroke-width="0.5" fill="#ddfff6" fill-opacity="0.5" d="M1007 427L1003 427L998 423L1003 414L1007 421L1007 426z"/></g><g><path class="class-0 leaflet-clickable" stroke-linejoin="round" stroke-linecap="round" fill-rule="evenodd" stroke="#005540" stroke-opacity="1" stroke-width="0.5" fill="#ddfff6" fill-opacity="0.5" d="M987 211L990 213L985 216L985 218L989 219L991 228L989 233L993 234L991 238L997 241L996 247L1000 250L1002 249L1003 255L1006 253L1008 257L1010 255L1016 255L1016 269L1019 269L1009 279L1005 278L1002 281L1002 287L999 286L995 288L994 291L990 292L990 294L992 294L993 296L991 303L996 309L993 312L987 312L984 317L985 322L982 321L980 323L982 323L981 325L978 325L979 323L977 323L976 325L975 324L976 327L973 326L973 313L971 310L972 304L969 302L970 297L965 292L965 285L967 283L965 282L965 277L967 275L978 276L978 274L974 273L969 268L971 268L966 265L963 254L956 247L966 237L968 240L969 239L971 235L971 229L965 229L964 226L968 222L974 220L975 213L979 210L983 214L985 213z"/></g><g><path class="class-2 leaflet-clickable" stroke-linejoin="round" stroke-linecap="round" fill-rule="evenodd" stroke="#005540" stroke-opacity="1" stroke-width="0.5" fill="#00cc99" fill-opacity="0.5" d="M989 368L988 371L989 373L991 373L987 376L983 375L984 376L982 382L973 382L970 385L972 393L976 398L974 402L975 405L962 406L959 402L957 402L957 404L953 404L951 402L951 400L953 399L950 398L950 396L948 396L945 399L939 399L939 397L936 394L939 391L936 384L939 382L943 374L946 373L945 370L947 370L946 367L948 363L947 362L949 360L955 360L957 362L959 361L967 367L973 367L974 363L976 363L986 369L988 368z"/></g><g><path class="class-1 leaflet-clickable" stroke-linejoin="round" stroke-linecap="round" fill-rule="evenodd" stroke="#005540" stroke-opacity="1" stroke-width="0.5" fill="#7fd" fill-opacity="0.5" d="M921 362L923 361L931 365L941 358L942 357L940 357L942 355L944 355L949 361L947 361L948 362L946 367L948 370L946 370L946 372L943 374L943 376L936 385L939 388L936 394L934 396L928 396L919 402L918 400L914 402L914 405L916 404L921 407L921 409L919 410L922 415L921 416L926 417L923 423L921 422L917 424L912 430L910 428L904 429L904 421L900 416L896 419L891 416L889 421L882 423L881 422L878 425L874 423L874 421L873 422L870 420L868 415L866 415L858 404L854 394L862 392L864 390L863 388L865 385L866 386L868 382L873 380L880 382L887 390L886 385L884 385L888 381L887 376L897 374L896 373L899 370L894 365L895 363L893 361L889 361L888 357L884 355L886 347L888 345L889 346L888 343L891 344L890 347L894 344L891 339L892 337L898 339L898 341L895 342L896 343L894 347L896 351L896 347L899 341L902 343L899 352L900 353L904 353L906 350L908 350L907 347L909 345L911 347L910 348L914 350L912 356L908 356L904 360L902 360L904 362L903 365L899 367L899 369L903 369L904 371L899 373L901 373L902 377L912 379L914 374L917 375L921 371L922 372L924 368L920 365L921 363z"/></g><g><path class="class-1 leaflet-clickable" stroke-linejoin="round" stroke-linecap="round" fill-rule="evenodd" stroke="#005540" stroke-opacity="1" stroke-width="0.5" fill="#7fd" fill-opacity="0.5" d="M941 355L940 356L942 358L937 359L933 364L929 364L923 361L920 362L918 360L923 352L923 348L929 347L931 345L935 347L934 348L937 348L937 352L941 355z"/></g><g><path class="class-0 leaflet-clickable" stroke-linejoin="round" stroke-linecap="round" fill-rule="evenodd" stroke="#005540" stroke-opacity="1" stroke-width="0.5" fill="#ddfff6" fill-opacity="0.5" d="M773 248L777 248L782 244L783 241L787 239L791 229L797 230L796 233L798 233L801 236L801 245L807 253L816 253L818 256L817 258L823 262L823 264L825 264L822 267L820 267L821 270L819 271L821 275L821 280L823 280L826 286L831 289L834 295L833 296L836 299L839 299L839 297L845 299L847 305L850 308L848 308L849 316L852 317L854 321L853 322L855 324L855 328L861 329L858 333L858 340L859 339L860 342L859 343L855 341L854 344L836 325L835 321L829 315L824 307L806 294L790 274L777 269L774 265L770 265L768 257L773 248z"/></g><g><path class="class-2 leaflet-clickable" stroke-linejoin="round" stroke-linecap="round" fill-rule="evenodd" stroke="#005540" stroke-opacity="1" stroke-width="0.5" fill="#00cc99" fill-opacity="0.5" d="M629 197L628 197z"/></g><g><path class="class-2 leaflet-clickable" stroke-linejoin="round" stroke-linecap="round" fill-rule="evenodd" stroke="#005540" stroke-opacity="1" stroke-width="0.5" fill="#00cc99" fill-opacity="0.5" d="M637 195L639 201L638 204L634 202L637 199L637 196z"/></g><g><path class="class-2 leaflet-clickable" stroke-linejoin="round" stroke-linecap="round" fill-rule="evenodd" stroke="#005540" stroke-opacity="1" stroke-width="0.5" fill="#00cc99" fill-opacity="0.5" d="M690 187L693 189L692 190L691 188z"/></g><g><path class="class-2 leaflet-clickable" stroke-linejoin="round" stroke-linecap="round" fill-rule="evenodd" stroke="#005540" stroke-opacity="1" stroke-width="0.5" fill="#00cc99" fill-opacity="0.5" d="M676 176L676 177z"/></g><g><path class="class-2 leaflet-clickable" stroke-linejoin="round" stroke-linecap="round" fill-rule="evenodd" stroke="#005540" stroke-opacity="1" stroke-width="0.5" fill="#00cc99" fill-opacity="0.5" d="M676 165L679 167L679 170L681 172L684 171L684 179L674 168L675 165z"/></g><g><path class="class-2 leaflet-clickable" stroke-linejoin="round" stroke-linecap="round" fill-rule="evenodd" stroke="#005540" stroke-opacity="1" stroke-width="0.5" fill="#00cc99" fill-opacity="0.5" d="M566 174L568 177L567 182L565 177L566 174z"/></g><g><path class="class-2 leaflet-clickable" stroke-linejoin="round" stroke-linecap="round" fill-rule="evenodd" stroke="#005540" stroke-opacity="1" stroke-width="0.5" fill="#00cc99" fill-opacity="0.5" d="M655 153L655 154z"/></g><g><path class="class-2 leaflet-clickable" stroke-linejoin="round" stroke-linecap="round" fill-rule="evenodd" stroke="#005540" stroke-opacity="1" stroke-width="0.5" fill="#00cc99" fill-opacity="0.5" d="M648 112L648 112z"/></g><g><path class="class-2 leaflet-clickable" stroke-linejoin="round" stroke-linecap="round" fill-rule="evenodd" stroke="#005540" stroke-opacity="1" stroke-width="0.5" fill="#00cc99" fill-opacity="0.5" d="M648 105L650 107L649 108L647 108L647 105z"/></g><g><path class="class-2 leaflet-clickable" stroke-linejoin="round" stroke-linecap="round" fill-rule="evenodd" stroke="#005540" stroke-opacity="1" stroke-width="0.5" fill="#00cc99" fill-opacity="0.5" d="M646 86L643 88L641 93L643 95L643 102L646 103L647 105L647 110L645 113L645 123L649 129L649 137L651 142L650 149L656 157L656 159L659 159L673 172L676 182L678 180L680 184L683 184L685 191L691 195L690 197L692 199L692 205L660 205L663 201L662 198L664 194L662 190L657 186L657 184L654 181L652 181L651 177L648 176L648 174L626 159L627 157L624 153L624 146L618 140L619 134L613 127L612 128L611 119L604 112L605 109L603 106L604 107L605 104L599 99L599 96L594 88L594 85L648 80L646 86z"/></g><g><path class="class-1 leaflet-clickable" stroke-linejoin="round" stroke-linecap="round" fill-rule="evenodd" stroke="#005540" stroke-opacity="1" stroke-width="0.5" fill="#7fd" fill-opacity="0.5" d="M760 302L758 302L758 297L760 301z"/></g><g><path class="class-1 leaflet-clickable" stroke-linejoin="round" stroke-linecap="round" fill-rule="evenodd" stroke="#005540" stroke-opacity="1" stroke-width="0.5" fill="#7fd" fill-opacity="0.5" d="M748 293L748 296L747 293z"/></g><g><path class="class-1 leaflet-clickable" stroke-linejoin="round" stroke-linecap="round" fill-rule="evenodd" stroke="#005540" stroke-opacity="1" stroke-width="0.5" fill="#7fd" fill-opacity="0.5" d="M747 291L747 292z"/></g><g><path class="class-1 leaflet-clickable" stroke-linejoin="round" stroke-linecap="round" fill-rule="evenodd" stroke="#005540" stroke-opacity="1" stroke-width="0.5" fill="#7fd" fill-opacity="0.5" d="M740 279L743 281L744 284L740 280z"/></g><g><path class="class-1 leaflet-clickable" stroke-linejoin="round" stroke-linecap="round" fill-rule="evenodd" stroke="#005540" stroke-opacity="1" stroke-width="0.5" fill="#7fd" fill-opacity="0.5" d="M740 273L739 275L740 273z"/></g><g><path class="class-1 leaflet-clickable" stroke-linejoin="round" stroke-linecap="round" fill-rule="evenodd" stroke="#005540" stroke-opacity="1" stroke-width="0.5" fill="#7fd" fill-opacity="0.5" d="M738 263L739 266L738 264z"/></g><g><path class="class-1 leaflet-clickable" stroke-linejoin="round" stroke-linecap="round" fill-rule="evenodd" stroke="#005540" stroke-opacity="1" stroke-width="0.5" fill="#7fd" fill-opacity="0.5" d="M732 263L732 265L732 263z"/></g><g><path class="class-1 leaflet-clickable" stroke-linejoin="round" stroke-linecap="round" fill-rule="evenodd" stroke="#005540" stroke-opacity="1" stroke-width="0.5" fill="#7fd" fill-opacity="0.5" d="M732 254L732 256L730 256L728 260L729 261L728 258L729 255L731 255z"/></g><g><path class="class-1 leaflet-clickable" stroke-linejoin="round" stroke-linecap="round" fill-rule="evenodd" stroke="#005540" stroke-opacity="1" stroke-width="0.5" fill="#7fd" fill-opacity="0.5" d="M727 252L727 252z"/></g><g><path class="class-1 leaflet-clickable" stroke-linejoin="round" stroke-linecap="round" fill-rule="evenodd" stroke="#005540" stroke-opacity="1" stroke-width="0.5" fill="#7fd" fill-opacity="0.5" d="M709 224L709 226L708 224z"/></g><g><path class="class-1 leaflet-clickable" stroke-linejoin="round" stroke-linecap="round" fill-rule="evenodd" stroke="#005540" stroke-opacity="1" stroke-width="0.5" fill="#7fd" fill-opacity="0.5" d="M712 219L711 219z"/></g><g><path class="class-1 leaflet-clickable" stroke-linejoin="round" stroke-linecap="round" fill-rule="evenodd" stroke="#005540" stroke-opacity="1" stroke-width="0.5" fill="#7fd" fill-opacity="0.5" d="M638 208L638 208z"/></g><g><path class="class-1 leaflet-clickable" stroke-linejoin="round" stroke-linecap="round" fill-rule="evenodd" stroke="#005540" stroke-opacity="1" stroke-width="0.5" fill="#7fd" fill-opacity="0.5" d="M660 205L693 205L695 212L703 218L706 224L705 225L712 229L710 230L710 232L712 234L714 233L717 235L720 241L723 243L722 244L726 254L726 262L731 268L733 268L734 274L741 285L739 293L742 300L748 302L748 298L751 298L756 302L756 305L760 306L760 308L763 311L763 314L768 317L769 324L765 329L756 334L753 330L751 320L747 316L743 314L731 302L721 297L716 298L706 290L706 287L703 286L708 274L708 261L702 250L695 248L680 236L678 235L675 238L668 231L664 231L661 227L657 227L654 224L653 220L640 209L641 208L653 211L659 208L660 206z"/></g></svg>