<svg xmlns="http://www.w3.org/2000/svg" class="leaflet-zoom-animated" width="2000" height="799" viewBox="-280 -112 2000 799" style="transform: translate3d(-280px, -112px, 0px);"><g><path class="class-3 leaflet-clickable" stroke-linejoin="round" stroke-linecap="round" fill-rule="evenodd" stroke="#005540" stroke-opacity="1" stroke-width="0.5" fill="#086" fill-opacity="0.5" d="M0 0"/></g><g><path class="class-3 leaflet-clickable" stroke-linejoin="round" stroke-linecap="round" fill-rule="evenodd" stroke="#005540" stroke-opacity="1" stroke-width="0.5" fill="#086" fill-opacity="0.5" d="M0 0"/></g><g><path class="class-3 leaflet-clickable" stroke-linejoin="round" stroke-linecap="round" fill-rule="evenodd" stroke="#005540" stroke-opacity="1" stroke-width="0.5" fill="#086" fill-opacity="0.5" d="M0 0"/></g><g><path class="class-3 leaflet-clickable" stroke-linejoin="round" stroke-linecap="round" fill-rule="evenodd" stroke="#005540" stroke-opacity="1" stroke-width="0.5" fill="#086" fill-opacity="0.5" d="M0 0"/></g><g><path class="class-3 leaflet-clickable" stroke-linejoin="round" stroke-linecap="round" fill-rule="evenodd" stroke="#005540" stroke-opacity="1" stroke-width="0.5" fill="#086" fill-opacity="0.5" d="M0 0"/></g><g><path class="class-3 leaflet-clickable" stroke-linejoin="round" stroke-linecap="round" fill-rule="evenodd" stroke="#005540" stroke-opacity="1" stroke-width="0.5" fill="#086" fill-opacity="0.5" d="M0 0"/></g><g><path class="class-3 leaflet-clickable" stroke-linejoin="round" stroke-linecap="round" fill-rule="evenodd" stroke="#005540" stroke-opacity="1" stroke-width="0.5" fill="#086" fill-opacity="0.5" d="M0 0"/></g><g><path class="class-3 leaflet-clickable" stroke-linejoin="round" stroke-linecap="round" fill-rule="evenodd" stroke="#005540" stroke-opacity="1" stroke-width="0.5" fill="#086" fill-opacity="0.5" d="M-10 687L-10 683L-12 681L-2 659L-8 644L1 640L5 631L8 630L8 621L12 619L20 624L19 632L22 637L24 647L37 644L69 644L81 640L84 645L82 655L85 657L87 670L91 673L96 670L98 671L101 675L99 685L101.66666666666667 687z"/></g><g><path class="class-3 leaflet-clickable" stroke-linejoin="round" stroke-linecap="round" fill-rule="evenodd" stroke="#005540" stroke-opacity="1" stroke-width="0.5" fill="#086" fill-opacity="0.5" d="M848 326L858 345L839 369L821 381L810 370L811 364L809 359L800 396L780 405L772 405L776 453L750 478L670 547L627 562L607 566L599 564L599 557L595 556L594 547L586 547L583 563L581 568L576 572L583 580L586 573L585 581L577 582L577 590L586 594L586 602L590 610L582 627L586 626L594 662L607 679L616.7777777777778 687L738.5 687L283 687L282 685L260 687L218.5 687L222 685L225 679L231 681L232 684L240 682L244 683L249 680L244 666L246 664L245 658L241 652L238 651L237 648L235 647L234 610L242 600L245 566L250 557L254 544L281 524L281 522L285 521L287 518L288 511L293 509L300 514L303 511L304 502L292 501L294 497L290 487L298 479L299 476L296 472L296 467L293 465L292 462L296 456L298 444L293 439L294 432L299 433L300 429L327 407L332 415L334 414L337 407L346 399L344 395L346 389L344 380L355 380L359 377L359 374L363 373L368 368L370 362L369 355L372 352L376 351L377 353L398 351L401 348L405 350L407 354L414 353L417 350L429 357L431 350L434 353L440 344L450 351L453 346L465 352L467 345L473 351L475 358L478 360L482 360L486 356L493 362L501 363L518 358L519 355L532 356L535 353L542 352L542 339L536 295L526 257L507 249L507 241L512 241L515 236L508 224L548 237L545 214L576 212L586 213L615 223L657 234L660 243L671 262L687 269L692 265L702 270L701 279L695 277L698 286L727 290L738 280L749 275L775 284L788 313L797 319L819 329L829 321L839 326L846 327z"/></g><g><path class="class-3 leaflet-clickable" stroke-linejoin="round" stroke-linecap="round" fill-rule="evenodd" stroke="#005540" stroke-opacity="1" stroke-width="0.5" fill="#086" fill-opacity="0.5" d="M0 0"/></g><g><path class="class-2 leaflet-clickable" stroke-linejoin="round" stroke-linecap="round" fill-rule="evenodd" stroke="#005540" stroke-opacity="1" stroke-width="0.5" fill="#00cc99" fill-opacity="0.5" d="M975 590L974 596L972 596L972 606L974 606L973 611L981 612L981 617L991 623L985 625L981 630L982 633L980 636L978 634L975 634L977 642L973 641L973 652L986 652L988 670L976 682L976 685L981.2 687L996.2 687L1001 685L1017.3333333333334 687L1077.3 687L1077 686L1085 685L1089 687L616.7777777777778 687L607 679L594 662L586 626L582 627L590 610L586 602L586 594L577 590L577 582L585 581L587 573L583 580L576 572L581 568L586 547L594 547L595 556L599 557L599 564L607 566L627 562L670 547L732 494L776 453L772 405L780 405L800 396L809 359L811 364L810 370L821 381L839 369L864 339L884 357L884 368L878 392L887 393L886 402L882 403L893 408L899 409L899 414L895 414L898 423L891 453L894 454L893 469L898 469L897 474L903 477L903 490L904 489L909 498L912 498L912 501L905 516L904 523L908 523L908 528L910 530L909 534L904 531L899 552L910 563L906 597L933 604L935 597L927 598L925 583L938 584L943 574L953 577L956 575L952 586L969 589z"/></g><g><path class="class-2 leaflet-clickable" stroke-linejoin="round" stroke-linecap="round" fill-rule="evenodd" stroke="#005540" stroke-opacity="1" stroke-width="0.5" fill="#00cc99" fill-opacity="0.5" d="M0 0"/></g><g><path class="class-2 leaflet-clickable" stroke-linejoin="round" stroke-linecap="round" fill-rule="evenodd" stroke="#005540" stroke-opacity="1" stroke-width="0.5" fill="#00cc99" fill-opacity="0.5" d="M0 0"/></g><g><path class="class-1 leaflet-clickable" stroke-linejoin="round" stroke-linecap="round" fill-rule="evenodd" stroke="#005540" stroke-opacity="1" stroke-width="0.5" fill="#7fd" fill-opacity="0.5" d="M0 0"/></g><g><path class="class-1 leaflet-clickable" stroke-linejoin="round" stroke-linecap="round" fill-rule="evenodd" stroke="#005540" stroke-opacity="1" stroke-width="0.5" fill="#7fd" fill-opacity="0.5" d="M0 0"/></g><g><path class="class-1 leaflet-clickable" stroke-linejoin="round" stroke-linecap="round" fill-rule="evenodd" stroke="#005540" stroke-opacity="1" stroke-width="0.5" fill="#7fd" fill-opacity="0.5" d="M0 0"/></g><g><path class="class-1 leaflet-clickable" stroke-linejoin="round" stroke-linecap="round" fill-rule="evenodd" stroke="#005540" stroke-opacity="1" stroke-width="0.5" fill="#7fd" fill-opacity="0.5" d="M0 0"/></g><g><path class="class-1 leaflet-clickable" stroke-linejoin="round" stroke-linecap="round" fill-rule="evenodd" stroke="#005540" stroke-opacity="1" stroke-width="0.5" fill="#7fd" fill-opacity="0.5" d="M0 0"/></g><g><path class="class-1 leaflet-clickable" stroke-linejoin="round" stroke-linecap="round" fill-rule="evenodd" stroke="#005540" stroke-opacity="1" stroke-width="0.5" fill="#7fd" fill-opacity="0.5" d="M0 0"/></g><g><path class="class-1 leaflet-clickable" stroke-linejoin="round" stroke-linecap="round" fill-rule="evenodd" stroke="#005540" stroke-opacity="1" stroke-width="0.5" fill="#7fd" fill-opacity="0.5" d="M0 0"/></g><g><path class="class-1 leaflet-clickable" stroke-linejoin="round" stroke-linecap="round" fill-rule="evenodd" stroke="#005540" stroke-opacity="1" stroke-width="0.5" fill="#7fd" fill-opacity="0.5" d="M0 0"/></g><g><path class="class-1 leaflet-clickable" stroke-linejoin="round" stroke-linecap="round" fill-rule="evenodd" stroke="#005540" stroke-opacity="1" stroke-width="0.5" fill="#7fd" fill-opacity="0.5" d="M320 -112L213 -112L205 -98L197 -95L186 -87L175 -59L175 -51L161 -34L157 -42L152 -39L148 -44L146 -44L135 -59L129 -64L127 -63L118 -68L102 -68L88 -56L83 -57L78 -53L74 -52L73 -50L65 -70L35 -58L34 -62L31 -64L26 -58L22 -62L18 -63L20 -67L16 -73L10 -70L3 -72L-6 -70L-7 -75L-17 -75L-25 -94L-26 -89L-40 -90L-39 -94L-42 -98L-45 -97L-49 -106L-53 -110L-61 -106L-58 -99L-70.72727272727273 -112L-131 -112L-126 -112L-123 -110L-133 -106L-132 -104L-137 -102L-139 -98L-139 -92L-142 -84L-141 -81L-143 -75L-148 -72L-150 -68L-145 -67L-143 -59L-147 -51L-147 -47L-153 -45L-154 -38L-149 -39L-151 -32L-156 -35L-159 -29L-177 -6L-174 7L-182 13L-181 16L-184 23L-181 30L-184 34L-180 34L-182 41L-188 42L-190 45L-198 45L-201 53L-200 98L-195 93L-183 88L-183 90L-195 98L-196 101L-202 103L-209 109L-213 116L-213 119L-218 121L-219 124L-223 121L-234 119L-248 122L-258 122L-262 108L-280 104L-275 103L-274 97L-279 93L-280 94.25L-280 -112z"/></g><g><path class="class-1 leaflet-clickable" stroke-linejoin="round" stroke-linecap="round" fill-rule="evenodd" stroke="#005540" stroke-opacity="1" stroke-width="0.5" fill="#7fd" fill-opacity="0.5" d="M0 0"/></g><g><path class="class-1 leaflet-clickable" stroke-linejoin="round" stroke-linecap="round" fill-rule="evenodd" stroke="#005540" stroke-opacity="1" stroke-width="0.5" fill="#7fd" fill-opacity="0.5" d="M0 0"/></g><g><path class="class-1 leaflet-clickable" stroke-linejoin="round" stroke-linecap="round" fill-rule="evenodd" stroke="#005540" stroke-opacity="1" stroke-width="0.5" fill="#7fd" fill-opacity="0.5" d="M0 0"/></g><g><path class="class-1 leaflet-clickable" stroke-linejoin="round" stroke-linecap="round" fill-rule="evenodd" stroke="#005540" stroke-opacity="1" stroke-width="0.5" fill="#7fd" fill-opacity="0.5" d="M0 0"/></g><g><path class="class-1 leaflet-clickable" stroke-linejoin="round" stroke-linecap="round" fill-rule="evenodd" stroke="#005540" stroke-opacity="1" stroke-width="0.5" fill="#7fd" fill-opacity="0.5" d="M0 0"/></g><g><path class="class-1 leaflet-clickable" stroke-linejoin="round" stroke-linecap="round" fill-rule="evenodd" stroke="#005540" stroke-opacity="1" stroke-width="0.5" fill="#7fd" fill-opacity="0.5" d="M0 0"/></g><g><path class="class-1 leaflet-clickable" stroke-linejoin="round" stroke-linecap="round" fill-rule="evenodd" stroke="#005540" stroke-opacity="1" stroke-width="0.5" fill="#7fd" fill-opacity="0.5" d="M0 0"/></g><g><path class="class-1 leaflet-clickable" stroke-linejoin="round" stroke-linecap="round" fill-rule="evenodd" stroke="#005540" stroke-opacity="1" stroke-width="0.5" fill="#7fd" fill-opacity="0.5" d="M0 0"/></g><g><path class="class-1 leaflet-clickable" stroke-linejoin="round" stroke-linecap="round" fill-rule="evenodd" stroke="#005540" stroke-opacity="1" stroke-width="0.5" fill="#7fd" fill-opacity="0.5" d="M0 0"/></g><g><path class="class-1 leaflet-clickable" stroke-linejoin="round" stroke-linecap="round" fill-rule="evenodd" stroke="#005540" stroke-opacity="1" stroke-width="0.5" fill="#7fd" fill-opacity="0.5" d="M0 0"/></g><g><path class="class-1 leaflet-clickable" stroke-linejoin="round" stroke-linecap="round" fill-rule="evenodd" stroke="#005540" stroke-opacity="1" stroke-width="0.5" fill="#7fd" fill-opacity="0.5" d="M0 0"/></g><g><path class="class-1 leaflet-clickable" stroke-linejoin="round" stroke-linecap="round" fill-rule="evenodd" stroke="#005540" stroke-opacity="1" stroke-width="0.5" fill="#7fd" fill-opacity="0.5" d="M0 0"/></g><g><path class="class-1 leaflet-clickable" stroke-linejoin="round" stroke-linecap="round" fill-rule="evenodd" stroke="#005540" stroke-opacity="1" stroke-width="0.5" fill="#7fd" fill-opacity="0.5" d="M0 0"/></g><g><path class="class-1 leaflet-clickable" stroke-linejoin="round" stroke-linecap="round" fill-rule="evenodd" stroke="#005540" stroke-opacity="1" stroke-width="0.5" fill="#7fd" fill-opacity="0.5" d="M0 0"/></g><g><path class="class-1 leaflet-clickable" stroke-linejoin="round" stroke-linecap="round" fill-rule="evenodd" stroke="#005540" stroke-opacity="1" stroke-width="0.5" fill="#7fd" fill-opacity="0.5" d="M0 0"/></g><g><path class="class-1 leaflet-clickable" stroke-linejoin="round" stroke-linecap="round" fill-rule="evenodd" stroke="#005540" stroke-opacity="1" stroke-width="0.5" fill="#7fd" fill-opacity="0.5" d="M260 687L282 685L283 687z"/></g><g><path class="class-1 leaflet-clickable" stroke-linejoin="round" stroke-linecap="round" fill-rule="evenodd" stroke="#005540" stroke-opacity="1" stroke-width="0.5" fill="#7fd" fill-opacity="0.5" d="M0 0"/></g><g><path class="class-1 leaflet-clickable" stroke-linejoin="round" stroke-linecap="round" fill-rule="evenodd" stroke="#005540" stroke-opacity="1" stroke-width="0.5" fill="#7fd" fill-opacity="0.5" d="M0 0"/></g><g><path class="class-1 leaflet-clickable" stroke-linejoin="round" stroke-linecap="round" fill-rule="evenodd" stroke="#005540" stroke-opacity="1" stroke-width="0.5" fill="#7fd" fill-opacity="0.5" d="M0 0"/></g><g><path class="class-1 leaflet-clickable" stroke-linejoin="round" stroke-linecap="round" fill-rule="evenodd" stroke="#005540" stroke-opacity="1" stroke-width="0.5" fill="#7fd" fill-opacity="0.5" d="M0 0"/></g><g><path class="class-1 leaflet-clickable" stroke-linejoin="round" stroke-linecap="round" fill-rule="evenodd" stroke="#005540" stroke-opacity="1" stroke-width="0.5" fill="#7fd" fill-opacity="0.5" d="M0 0"/></g><g><path class="class-0 leaflet-clickable" stroke-linejoin="round" stroke-linecap="round" fill-rule="evenodd" stroke="#005540" stroke-opacity="1" stroke-width="0.5" fill="#ddfff6" fill-opacity="0.5" d="M0 0"/></g><g><path class="class-0 leaflet-clickable" stroke-linejoin="round" stroke-linecap="round" fill-rule="evenodd" stroke="#005540" stroke-opacity="1" stroke-width="0.5" fill="#ddfff6" fill-opacity="0.5" d="M0 0"/></g><g><path class="class-0 leaflet-clickable" stroke-linejoin="round" stroke-linecap="round" fill-rule="evenodd" stroke="#005540" stroke-opacity="1" stroke-width="0.5" fill="#ddfff6" fill-opacity="0.5" d="M0 0"/></g><g><path class="class-0 leaflet-clickable" stroke-linejoin="round" stroke-linecap="round" fill-rule="evenodd" stroke="#005540" stroke-opacity="1" stroke-width="0.5" fill="#ddfff6" fill-opacity="0.5" d="M0 0"/></g><g><path class="class-0 leaflet-clickable" stroke-linejoin="round" stroke-linecap="round" fill-rule="evenodd" stroke="#005540" stroke-opacity="1" stroke-width="0.5" fill="#ddfff6" fill-opacity="0.5" d="M0 0"/></g><g><path class="class-0 leaflet-clickable" stroke-linejoin="round" stroke-linecap="round" fill-rule="evenodd" stroke="#005540" stroke-opacity="1" stroke-width="0.5" fill="#ddfff6" fill-opacity="0.5" d="M0 0"/></g><g><path class="class-0 leaflet-clickable" stroke-linejoin="round" stroke-linecap="round" fill-rule="evenodd" stroke="#005540" stroke-opacity="1" stroke-width="0.5" fill="#ddfff6" fill-opacity="0.5" d="M0 0"/></g><g><path class="class-0 leaflet-clickable" stroke-linejoin="round" stroke-linecap="round" fill-rule="evenodd" stroke="#005540" stroke-opacity="1" stroke-width="0.5" fill="#ddfff6" fill-opacity="0.5" d="M0 0"/></g><g><path class="class-0 leaflet-clickable" stroke-linejoin="round" stroke-linecap="round" fill-rule="evenodd" stroke="#005540" stroke-opacity="1" stroke-width="0.5" fill="#ddfff6" fill-opacity="0.5" d="M0 0"/></g><g><path class="class-0 leaflet-clickable" stroke-linejoin="round" stroke-linecap="round" fill-rule="evenodd" stroke="#005540" stroke-opacity="1" stroke-width="0.5" fill="#ddfff6" fill-opacity="0.5" d="M0 0"/></g><g><path class="class-0 leaflet-clickable" stroke-linejoin="round" stroke-linecap="round" fill-rule="evenodd" stroke="#005540" stroke-opacity="1" stroke-width="0.5" fill="#ddfff6" fill-opacity="0.5" d="M0 0"/></g><g><path class="class-0 leaflet-clickable" stroke-linejoin="round" stroke-linecap="round" fill-rule="evenodd" stroke="#005540" stroke-opacity="1" stroke-width="0.5" fill="#ddfff6" fill-opacity="0.5" d="M0 0"/></g><g><path class="class-0 leaflet-clickable" stroke-linejoin="round" stroke-linecap="round" fill-rule="evenodd" stroke="#005540" stroke-opacity="1" stroke-width="0.5" fill="#ddfff6" fill-opacity="0.5" d="M1063 -112L1057 -107L1055 -103L1056 -101L1078 -99L1103 -86L1102 -62L1097 -36L1103 -26L1109 -31L1128 -16L1140 -17L1146 23L1152 25L1156 20L1158 19L1159 21L1171 14L1194 42L1208 26L1251 32L1252 139L1281 139L1281 147L1188 223L1172 222L1173 220L1170 218L1169 213L1166 212L1163 214L1161 221L1158 222L1158 224L1151 227L1147 226L1146 231L1143 234L1147 254L1138 265L1142 282L1141 281L1137 283L1122 277L1114 283L1109 283L1105 289L1096 292L1094 291L1088 296L1085 301L1085 307L1082 311L1077 312L1076 315L1065 313L1047 322L1042 327L1045 341L1060 336L1068 358L1067 371L1057 396L1056 414L1072 429L1077 431L1077 438L1081 439L1087 445L1092 464L1086 461L1071 482L1063 485L1036 480L1019 482L1001 525L1008 561L997 558L979 557L967 569L979 575L975 590L952 586L956 575L953 577L943 574L938 584L925 583L927 598L935 597L933 604L906 597L910 563L899 552L904 531L909 534L910 530L908 528L908 523L904 523L905 516L912 501L912 498L909 498L904 489L903 490L903 477L897 474L898 469L893 469L895 459L894 454L891 453L898 423L895 414L899 414L899 409L893 408L882 403L886 402L887 393L878 392L884 368L884 357L864 339L858 345L848 326L848 287L843 270L861 254L844 238L847 204L865 190L886 186L897 189L903 189L933 200L934 193L946 196L952 193L951 190L946 186L949 183L947 175L946 176L934 169L922 171L908 169L911 155L908 152L898 150L897 144L891 144L887 142L888 138L881 135L884 133L897 134L896 130L885 128L878 122L868 123L862 116L861 110L851 109L847 91L843 86L837 72L844 52L842 47L829 44L827 20L822 18L815 7L803 1L798 -5L795 -14L774 -40L829 -88L853.9230769230769 -112L856.96 -112L868 -89L882 -104L883.6 -112z"/></g><g><path class="class-0 leaflet-clickable" stroke-linejoin="round" stroke-linecap="round" fill-rule="evenodd" stroke="#005540" stroke-opacity="1" stroke-width="0.5" fill="#ddfff6" fill-opacity="0.5" d="M0 0"/></g><g><path class="class-0 leaflet-clickable" stroke-linejoin="round" stroke-linecap="round" fill-rule="evenodd" stroke="#005540" stroke-opacity="1" stroke-width="0.5" fill="#ddfff6" fill-opacity="0.5" d="M0 0"/></g><g><path class="class-0 leaflet-clickable" stroke-linejoin="round" stroke-linecap="round" fill-rule="evenodd" stroke="#005540" stroke-opacity="1" stroke-width="0.5" fill="#ddfff6" fill-opacity="0.5" d="M0 0"/></g><g><path class="class-0 leaflet-clickable" stroke-linejoin="round" stroke-linecap="round" fill-rule="evenodd" stroke="#005540" stroke-opacity="1" stroke-width="0.5" fill="#ddfff6" fill-opacity="0.5" d="M0 0"/></g><g><path class="class-0 leaflet-clickable" stroke-linejoin="round" stroke-linecap="round" fill-rule="evenodd" stroke="#005540" stroke-opacity="1" stroke-width="0.5" fill="#ddfff6" fill-opacity="0.5" d="M0 0"/></g><g><path class="class-0 leaflet-clickable" stroke-linejoin="round" stroke-linecap="round" fill-rule="evenodd" stroke="#005540" stroke-opacity="1" stroke-width="0.5" fill="#ddfff6" fill-opacity="0.5" d="M0 0"/></g><g><path class="class-0 leaflet-clickable" stroke-linejoin="round" stroke-linecap="round" fill-rule="evenodd" stroke="#005540" stroke-opacity="1" stroke-width="0.5" fill="#ddfff6" fill-opacity="0.5" d="M0 0"/></g><g><path class="class-2 leaflet-clickable" stroke-linejoin="round" stroke-linecap="round" fill-rule="evenodd" stroke="#005540" stroke-opacity="1" stroke-width="0.5" fill="#00cc99" fill-opacity="0.5" d="M0 0"/></g><g><path class="class-0 leaflet-clickable" stroke-linejoin="round" stroke-linecap="round" fill-rule="evenodd" stroke="#005540" stroke-opacity="1" stroke-width="0.5" fill="#ddfff6" fill-opacity="0.5" d="M1089 687L1085 685L1077 686L1077.3 687L1017.3333333333334 687L1001 685L996.2 687L981.2 687L976 685L976 682L988 670L986 652L973 652L973 641L977 642L975 634L978 634L980 636L982 633L981 630L985 625L991 623L981 617L981 612L973 611L974 606L972 606L972 596L974 596L979 575L967 569L979 557L997 558L1008 561L1001 525L1019 482L1036 480L1063 485L1071 482L1086 461L1092 464L1087 445L1081 439L1077 438L1077 431L1072 429L1056 414L1057 396L1067 371L1068 358L1060 336L1045 341L1042 327L1047 322L1065 313L1076 315L1077 312L1082 311L1085 307L1085 301L1088 296L1094 291L1096 292L1105 289L1109 283L1114 283L1118 279L1122 278L1137 283L1141 281L1142 282L1138 265L1147 254L1143 236L1147 226L1151 227L1158 224L1158 222L1161 221L1163 214L1166 212L1169 213L1170 218L1173 220L1172 222L1188 223L1281 147L1281 139L1252 139L1251 32L1208 26L1194 42L1171 14L1159 21L1158 19L1156 20L1152 25L1146 23L1140 -17L1128 -16L1109 -31L1103 -26L1097 -36L1102 -62L1103 -86L1078 -99L1056 -101L1055 -103L1057 -107L1063 -112L1138 -112L1137 -105L1143 -91L1145 -78L1144 -75L1152 -71L1159 -61L1155 -51L1161 -45L1170 -48L1173 -44L1178 -44L1180 -46L1184 -45L1184 -41L1187 -40L1189 -44L1191 -40L1193 -40L1196 -37L1201 -39L1204 -37L1208 -40L1212 -37L1214 -31L1216 -30L1221 -32L1224 -25L1228 -21L1227 -20L1234 -18L1236 -12L1251 -17L1252 -12L1258 -12L1262 -9L1267 -10L1270 -8L1277 -10L1277 -5L1288 4L1294 2L1299 12L1308 12L1307 15L1312 21L1318 20L1322 24L1326 21L1330 25L1339 22L1341 24L1344 22L1345 26L1351 27L1352 23L1357 22L1364 25L1366 23L1374 24L1380 22L1385 25L1392 24L1397 29L1401 27L1406 30L1411 29L1418 31L1426 38L1430 44L1434 43L1434 47L1436 49L1440 49L1445 59L1449 57L1449 60L1457 60L1458 64L1462 68L1472 68L1474 61L1472 53L1476 51L1481 52L1484 48L1489 49L1487 45L1495 46L1498 44L1508 43L1513 45L1512 71L1507 98L1503 110L1464 184L1463 189L1447 224L1434 264L1423 307L1413 356L1405 447L1405 503L1399 571L1401 646L1399 667L1392.1538461538462 687z"/></g><g><path class="class-0 leaflet-clickable" stroke-linejoin="round" stroke-linecap="round" fill-rule="evenodd" stroke="#005540" stroke-opacity="1" stroke-width="0.5" fill="#ddfff6" fill-opacity="0.5" d="M-280 94.25L-279 93L-274 97L-275 103L-280 104L-276 110L-280 112.54545454545455L-280 252.6L-267 264L-271 266L-266 275L-263 272L-257 272L-227 304L-223 318L-216 332L-212 332L-212 337L-206 339L-201 343L-202 350L-208 355L-195 378L-184 382L-165 377L-162 368L-158 365L-148 362L-134 367L-130 371L-126 370L-112 384L-111 393L-107 395L-99 408L-99 413L-97 416L-100 423L-99 428L-93 431L-82 441L-89 448L-80 448L-73 457L-75 462L-90 455L-92 469L-88 479L-86 478L-84 485L-85 487L-82 489L-85 500L-82 519L-79 526L-78 519L-64 515L-64 519L-57 525L-53 537L-48 542L-51 548L-49 551L-44 553L-49 562L-46 564L-43 576L-41 579L-37 579L-34 581L-35 584L-31 589L-31 596L-34 607L-30 612L-20 614L-18 616L-14 615L-13 612L-8 610L0 613L8 613L12 619L8 621L8 630L5 631L1 640L-8 644L-2 659L-12 681L-10 683L-10 687L-81.54545454545455 687L-92 677L-104 669L-137 630L-159 609L-169 601L-173 599L-174 601L-177 598L-175 593L-181 588L-189 575L-187 575L-186 571L-202 550L-213 540L-213 537L-222 529L-225 523L-238 514L-243 508L-246 507L-243 503L-244 500L-248 493L-253 489L-253 485L-259 478L-261 469L-280 449.75z"/></g><g><path class="class-0 leaflet-clickable" stroke-linejoin="round" stroke-linecap="round" fill-rule="evenodd" stroke="#005540" stroke-opacity="1" stroke-width="0.5" fill="#ddfff6" fill-opacity="0.5" d="M883.6 -112L882 -104L868 -89L856.96 -112L853.9230769230769 -112L829 -88L774 -40L795 -14L798 -5L803 1L815 7L822 18L827 20L829 44L842 47L844 52L837 72L843 86L847 91L851 109L861 110L862 116L868 123L878 122L885 128L896 130L897 134L884 133L881 135L888 138L887 142L891 144L897 144L898 150L908 152L911 155L908 169L922 171L934 169L946 176L947 175L949 183L946 186L951 190L952 193L946 196L934 193L933 200L903 189L897 189L886 186L865 190L847 204L844 238L849 241L861 254L843 270L848 287L848 326L839 326L829 321L819 329L797 319L788 313L782 301L779 291L775 284L772 282L749 275L738 280L727 290L698 286L695 277L701 279L702 270L692 265L687 269L671 262L660 243L657 234L615 223L586 213L576 212L545 214L548 237L508 224L474 283L474 289L461 281L446 279L441 275L430 272L400 244L403 241L403 238L398 233L399 226L384 215L382 215L374 200L367 195L366 192L361 187L357 186L355 179L357 178L357 175L360 172L363 161L373 157L378 159L381 158L386 163L385 155L376 150L375 147L358 129L365 125L365 121L368 120L370 112L373 111L373 108L378 106L381 101L383 93L386 91L388 84L389 73L384 64L384 7L400 -22L390 -38L379 -87L331 -105L328 -111L320 -112z"/></g><g><path class="class-2 leaflet-clickable" stroke-linejoin="round" stroke-linecap="round" fill-rule="evenodd" stroke="#005540" stroke-opacity="1" stroke-width="0.5" fill="#00cc99" fill-opacity="0.5" d="M320 -112L328 -111L330 -105L379 -87L390 -38L400 -22L384 7L384 64L389 73L388 84L386 91L383 93L381 101L378 106L373 108L373 111L370 112L368 120L365 121L365 125L358 129L375 147L376 150L385 155L386 163L381 158L378 159L373 157L363 161L360 172L357 175L357 178L355 179L357 186L361 187L366 192L367 195L374 200L382 215L384 215L399 226L398 233L403 238L403 241L400 244L430 272L441 275L446 279L461 281L474 289L474 283L508 224L515 236L512 241L507 241L507 249L526 257L536 295L542 339L542 352L535 353L532 356L519 355L518 358L501 363L493 362L486 356L482 360L478 360L475 358L473 351L467 345L465 352L453 346L450 351L440 344L434 353L431 350L429 357L417 350L414 353L407 354L405 350L401 348L398 351L377 353L376 351L372 352L369 355L370 362L368 368L363 373L359 374L359 377L355 380L344 380L346 389L344 395L346 399L337 407L334 414L332 415L327 407L300 429L299 433L294 432L293 439L298 444L296 456L292 462L293 465L296 467L296 472L299 476L298 479L290 487L294 497L292 501L304 502L303 511L300 514L293 509L288 511L287 518L285 521L281 522L281 524L254 544L250 557L245 566L242 600L234 610L235 647L237 648L238 651L241 652L245 658L246 664L244 666L249 680L244 683L240 682L232 684L231 681L225 679L222 685L218.5 687L101.66666666666667 687L99 685L101 675L98 671L96 670L91 673L87 670L85 657L82 655L84 645L81 640L69 644L37 644L24 647L22 637L19 632L20 624L12 619L8 613L0 613L-8 610L-13 612L-14 615L-18 616L-20 614L-30 612L-34 607L-31 596L-31 589L-35 584L-34 581L-37 579L-41 579L-46 564L-49 562L-44 553L-49 551L-51 548L-48 542L-53 537L-57 525L-64 519L-64 515L-78 519L-79 526L-82 519L-85 500L-82 489L-85 487L-84 485L-86 478L-88 479L-92 469L-90 455L-75 462L-73 457L-80 448L-89 448L-82 441L-93 431L-99 428L-100 423L-97 416L-99 413L-99 408L-107 395L-111 393L-112 384L-126 370L-130 371L-134 367L-148 362L-158 365L-162 368L-165 377L-184 382L-195 378L-208 355L-202 350L-201 343L-206 339L-212 337L-212 332L-216 332L-223 318L-227 304L-257 272L-263 272L-266 275L-268 273L-271 266L-267 264L-280 252.6L-280 112.54545454545455L-276 110L-280 104L-262 108L-258 122L-248 122L-234 119L-223 121L-219 124L-218 121L-213 119L-213 116L-209 109L-196 101L-195 98L-183 90L-183 88L-195 93L-200 98L-201 53L-198 45L-190 45L-188 42L-182 41L-180 34L-184 34L-181 30L-184 23L-181 16L-182 13L-174 7L-177 -6L-159 -29L-156 -35L-151 -32L-149 -39L-154 -38L-153 -45L-147 -47L-147 -51L-143 -59L-145 -66L-150 -68L-148 -72L-143 -75L-141 -81L-142 -84L-139 -92L-139 -98L-137 -102L-132 -104L-133 -106L-123 -110L-126 -112L-131 -112L-70.72727272727273 -112L-58 -99L-61 -106L-53 -110L-49 -106L-45 -97L-42 -98L-39 -94L-40 -90L-26 -89L-25 -94L-17 -75L-7 -75L-6 -70L0 -72L10 -70L16 -73L20 -67L18 -63L22 -62L26 -58L31 -64L34 -62L35 -58L65 -70L73 -50L74 -52L78 -53L83 -57L88 -56L102 -68L118 -68L127 -63L129 -64L135 -59L146 -44L148 -44L152 -39L157 -42L161 -34L175 -51L174 -59L186 -87L197 -95L205 -98L213 -112z"/></g></svg>