<svg xmlns="http://www.w3.org/2000/svg" class="leaflet-zoom-animated" width="2000" height="908" viewBox="-203 83 2000 908" style="transform: translate3d(-203px, 83px, 0px);"><g><path class="class-22 leaflet-clickable" stroke-linejoin="round" stroke-linecap="round" fill-rule="evenodd" stroke="#888" stroke-opacity="1" stroke-width="0.5" fill="#897c36" fill-opacity="0.5" d="M816 879L822 894L829 902L831 901L831 904L842 904L844 906L846 903L848 903L855 913L854 915L856 923L858 922L861 925L861 930L872 932L874 937L873 942L885 944L878 947L879 948L892 954L896 953L898 950L900 951L906 948L911 949L913 953L913 963L907 970L907 975L910 983L914 986L918 986L920.5 991L638 991L634 985L629 984L628 982L625 983L623 980L620 980L618 973L611 968L606 959L591 951L584 949L577 951L575 954L575 951L571 948L573 932L575 930L590 928L590 926L594 926L597 921L600 921L600 914L598 910L600 905L598 902L599 896L602 893L609 890L621 890L627 899L633 901L638 901L653 896L666 899L676 897L678 898L678 901L682 903L682 905L686 905L690 901L694 903L697 902L699 906L701 906L704 909L706 908L711 915L716 908L705 900L700 894L701 887L700 882L698 881L699 878L697 876L697 872L699 871L698 868L700 865L702 865L706 869L706 872L714 863L717 866L725 869L727 872L731 873L725 887L727 889L730 889L731 891L729 896L731 899L734 896L737 900L735 907L737 907L738 910L742 913L745 912L746 907L748 908L755 901L762 898L764 892L768 890L773 895L775 891L787 887L789 888L789 884L794 877L800 880L797 873L801 874L803 879L808 877L809 880L813 880z"/></g><g><path class="class-22 leaflet-clickable" stroke-linejoin="round" stroke-linecap="round" fill-rule="evenodd" stroke="#888" stroke-opacity="1" stroke-width="0.5" fill="#897c36" fill-opacity="0.5" d="M920.5 991L918 986L914 986L911 983L907 975L907 971L913 963L913 961L916 961L920 958L924 958L926 954L929 960L936 958L936 952L943 949L958 951L956 953L958 956L967 957L973 950L973 947L979 948L979 946L973 941L970 945L971 948L969 948L968 951L966 948L967 943L969 942L964 937L964 934L966 931L966 927L968 927L970 921L984 921L985 929L983 931L987 933L988 936L991 938L993 945L1000 945L1006 938L1009 939L1013 934L1026 931L1025 930L1028 929L1033 934L1039 933L1039 931L1044 926L1049 927L1050 925L1057 924L1059 917L1062 916L1065 910L1068 910L1066 911L1067 912L1071 911L1072 908L1070 907L1070 905L1072 903L1071 899L1068 897L1068 894L1071 894L1071 891L1073 889L1071 887L1073 885L1083 892L1088 891L1092 893L1092 895L1096 899L1098 907L1102 909L1102 911L1105 913L1105 917L1109 920L1109 926L1114 932L1118 930L1118 935L1123 935L1123 932L1126 932L1128 935L1140 933L1149 936L1152 953L1146 970L1143 971L1143 974L1149 981L1154 984L1158.6666666666667 991L1176 990L1188 981L1195 979L1198 975L1201 975L1203 973L1208 977L1207 981L1200 984L1205.6363636363637 991z"/></g><g><path class="class-22 leaflet-clickable" stroke-linejoin="round" stroke-linecap="round" fill-rule="evenodd" stroke="#888" stroke-opacity="1" stroke-width="0.5" fill="#897c36" fill-opacity="0.5" d="M1363 991L1366 991L1367 987L1369 987L1370 984L1375 982L1375 975L1372 972L1373 970L1375 971L1376 968L1373 968L1376 967L1376 955L1379 954L1382 950L1385 953L1390 952L1390 954L1393 954L1394 956L1399 958L1395 962L1396 965L1398 963L1403 963L1405 965L1406 967L1402 974L1404 976L1403 985L1407 988L1406 990L1408 991L1450 991L1451 989L1461 988L1466 984L1465 982L1467 975L1473 977L1480 969L1481 970L1482 968L1486 970L1488 963L1493 963L1493 960L1499 956L1503 957L1502 961L1505 960L1505 958L1515 958L1518 962L1518 969L1517 972L1513 973L1517 974L1518 976L1528 978L1531 991z"/></g><g><path class="class-22 leaflet-clickable" stroke-linejoin="round" stroke-linecap="round" fill-rule="evenodd" stroke="#888" stroke-opacity="1" stroke-width="0.5" fill="#897c36" fill-opacity="0.5" d="M1068 910L1065 910L1062 916L1059 917L1057 923L1049 927L1044 926L1039 931L1039 933L1033 934L1028 930L1015 933L1009 939L1006 938L1000 945L993 945L991 938L988 936L987 933L983 931L985 929L983 920L977 922L970 921L968 927L966 927L966 931L964 934L964 937L969 942L967 943L966 948L968 951L968 949L971 948L970 945L973 941L979 946L979 948L973 947L973 950L967 957L959 956L956 953L958 951L943 949L937 952L936 958L929 960L926 954L922 959L920 958L916 961L913 961L913 954L911 949L906 948L900 951L898 950L896 953L892 954L879 948L878 947L885 944L873 942L874 937L872 932L861 930L861 925L858 922L856 923L855 921L855 916L859 911L862 910L862 908L868 907L869 904L875 902L876 898L878 898L883 904L887 905L888 896L884 881L886 877L883 877L891 862L888 863L887 861L890 859L895 849L895 840L893 834L893 829L895 827L891 821L891 813L894 810L892 808L904 808L912 821L913 820L915 822L914 824L918 830L922 833L921 835L922 836L923 834L931 837L937 842L949 830L958 836L962 834L964 831L965 824L982 824L986 820L977 812L977 810L972 808L970 804L966 806L962 803L964 801L963 797L957 796L954 792L948 790L949 788L947 782L946 784L944 784L943 787L930 787L929 783L932 780L934 780L932 777L930 777L928 772L924 770L927 764L932 759L937 758L937 753L935 751L937 750L937 746L941 743L942 744L942 742L939 741L940 737L936 731L927 735L926 730L928 726L936 727L935 723L940 723L945 714L951 711L954 703L960 698L961 695L959 690L961 687L959 686L963 674L965 674L965 676L967 677L973 675L976 678L978 678L977 683L974 687L976 689L975 691L977 694L979 694L979 700L981 702L989 701L994 708L990 708L984 716L978 711L973 717L978 724L981 724L981 726L978 726L978 728L974 730L976 731L975 737L980 739L987 739L989 748L998 742L997 740L1001 737L1002 732L1006 733L1009 731L1008 733L1031 743L1024 750L1024 753L1019 758L1018 761L1020 762L1016 766L1013 783L1015 786L1012 787L1006 793L1005 791L1003 795L1007 805L1011 805L1011 809L1007 811L1007 813L1009 813L1010 816L1012 814L1017 814L1022 816L1023 818L1024 817L1024 820L1026 821L1028 820L1034 823L1039 821L1044 825L1042 830L1038 833L1040 838L1039 840L1036 837L1027 836L1024 837L1025 838L1021 842L1019 842L1019 849L1017 852L1019 854L1021 861L1013 868L1011 872L1012 882L1013 884L1015 883L1018 888L1020 888L1021 886L1029 891L1036 903L1041 898L1047 895L1050 897L1052 895L1057 900L1059 900L1060 898L1063 907L1065 909L1068 909z"/></g><g><path class="class-12 leaflet-clickable" stroke-linejoin="round" stroke-linecap="round" fill-rule="evenodd" stroke="#888" stroke-opacity="1" stroke-width="0.5" fill="#c0976b" fill-opacity="0.5" d="M971 535L971 543L974 554L987 577L991 583L1013 603L1011 615L1005 625L1005 639L1022 675L1027 691L1038 705L1044 710L1047 716L1069 739L1083 759L1093 770L1100 798L1106 807L1106 820L1109 824L1117 828L1118 831L1122 831L1125 837L1125 843L1127 845L1137 847L1137 855L1139 861L1143 866L1163 876L1173 879L1207 880L1218 887L1220 892L1226 895L1242 896L1245 904L1259 920L1259 924L1262 930L1265 932L1279 933L1304 928L1304 931L1307 931L1307 940L1309 942L1308 945L1310 948L1308 950L1308 960L1312 960L1313 963L1318 962L1322 972L1328 972L1328 975L1334 976L1334 978L1335 977L1339 979L1343 987L1350 991L1205.6363636363637 991L1200 984L1205 982L1208 978L1203 973L1185 983L1176 990L1158.6666666666667 991L1154 984L1149 981L1143 974L1143 971L1146 970L1152 953L1149 936L1138 933L1128 935L1126 932L1123 932L1123 935L1118 935L1118 930L1114 932L1109 926L1109 920L1105 917L1105 913L1102 911L1102 909L1098 907L1096 899L1092 895L1092 893L1088 891L1083 892L1073 885L1071 887L1073 889L1071 891L1071 894L1068 894L1068 897L1071 899L1072 903L1070 905L1072 911L1067 912L1066 911L1068 910L1063 907L1060 898L1059 900L1057 900L1052 895L1050 897L1047 895L1041 898L1036 903L1029 891L1021 886L1020 888L1018 888L1015 883L1013 884L1011 879L1011 873L1013 868L1021 861L1019 854L1017 852L1019 849L1019 842L1021 842L1026 836L1033 836L1039 840L1040 838L1038 833L1042 830L1044 825L1039 821L1034 823L1028 820L1026 821L1024 820L1024 817L1023 818L1022 816L1017 814L1012 814L1011 816L1009 813L1007 813L1007 811L1011 809L1011 805L1007 805L1003 795L1005 791L1006 793L1012 787L1015 786L1013 783L1016 766L1020 762L1018 761L1019 758L1024 754L1024 751L1031 743L1008 733L1009 731L1006 733L1002 732L1001 737L997 740L998 742L989 748L987 739L980 739L975 737L976 731L974 730L978 728L978 726L981 726L981 724L978 724L973 718L977 711L984 716L990 708L994 708L989 701L981 702L978 696L979 694L975 692L976 689L974 687L977 683L978 678L976 678L973 675L967 677L965 676L965 674L963 674L959 686L961 687L959 690L961 695L960 698L953 705L951 704L949 698L950 695L946 690L936 704L931 705L927 710L923 712L923 715L917 716L910 723L903 722L902 713L898 708L904 703L904 699L908 698L907 694L913 685L907 687L903 691L903 686L905 684L909 684L910 682L911 674L919 672L923 677L921 678L922 679L928 679L931 676L929 676L928 671L929 668L931 668L930 666L931 662L933 661L933 657L938 655L938 650L933 646L933 644L929 646L928 644L925 644L927 641L926 639L921 641L921 643L914 643L908 636L909 635L903 632L909 623L908 620L904 619L905 613L903 610L897 606L894 594L901 591L900 588L902 588L903 590L910 583L910 581L907 576L905 578L902 571L905 570L902 568L906 568L905 565L901 567L899 563L902 564L904 562L909 564L908 562L910 561L912 552L914 551L912 549L921 542L920 539L922 537L918 537L918 535L915 535L915 532L913 533L911 530L907 531L899 524L890 524L891 521L894 520L898 522L906 518L909 518L910 520L911 518L913 518L912 520L915 521L917 519L917 522L920 522L923 520L922 518L924 515L929 516L929 514L933 515L935 519L942 522L945 526L953 526L955 528L953 530L958 534L961 539L967 540L967 537L969 536z"/></g><g><path class="class-02 leaflet-clickable" stroke-linejoin="round" stroke-linecap="round" fill-rule="evenodd" stroke="#888" stroke-opacity="1" stroke-width="0.5" fill="#e6a583" fill-opacity="0.5" d="M0 0"/></g><g><path class="class-02 leaflet-clickable" stroke-linejoin="round" stroke-linecap="round" fill-rule="evenodd" stroke="#888" stroke-opacity="1" stroke-width="0.5" fill="#e6a583" fill-opacity="0.5" d="M0 0"/></g><g><path class="class-02 leaflet-clickable" stroke-linejoin="round" stroke-linecap="round" fill-rule="evenodd" stroke="#888" stroke-opacity="1" stroke-width="0.5" fill="#e6a583" fill-opacity="0.5" d="M0 0"/></g><g><path class="class-02 leaflet-clickable" stroke-linejoin="round" stroke-linecap="round" fill-rule="evenodd" stroke="#888" stroke-opacity="1" stroke-width="0.5" fill="#e6a583" fill-opacity="0.5" d="M0 0"/></g><g><path class="class-02 leaflet-clickable" stroke-linejoin="round" stroke-linecap="round" fill-rule="evenodd" stroke="#888" stroke-opacity="1" stroke-width="0.5" fill="#e6a583" fill-opacity="0.5" d="M0 0"/></g><g><path class="class-02 leaflet-clickable" stroke-linejoin="round" stroke-linecap="round" fill-rule="evenodd" stroke="#888" stroke-opacity="1" stroke-width="0.5" fill="#e6a583" fill-opacity="0.5" d="M0 0"/></g><g><path class="class-02 leaflet-clickable" stroke-linejoin="round" stroke-linecap="round" fill-rule="evenodd" stroke="#888" stroke-opacity="1" stroke-width="0.5" fill="#e6a583" fill-opacity="0.5" d="M0 0"/></g><g><path class="class-02 leaflet-clickable" stroke-linejoin="round" stroke-linecap="round" fill-rule="evenodd" stroke="#888" stroke-opacity="1" stroke-width="0.5" fill="#e6a583" fill-opacity="0.5" d="M0 0"/></g><g><path class="class-02 leaflet-clickable" stroke-linejoin="round" stroke-linecap="round" fill-rule="evenodd" stroke="#888" stroke-opacity="1" stroke-width="0.5" fill="#e6a583" fill-opacity="0.5" d="M0 0"/></g><g><path class="class-02 leaflet-clickable" stroke-linejoin="round" stroke-linecap="round" fill-rule="evenodd" stroke="#888" stroke-opacity="1" stroke-width="0.5" fill="#e6a583" fill-opacity="0.5" d="M0 0"/></g><g><path class="class-02 leaflet-clickable" stroke-linejoin="round" stroke-linecap="round" fill-rule="evenodd" stroke="#888" stroke-opacity="1" stroke-width="0.5" fill="#e6a583" fill-opacity="0.5" d="M783 729L784 728L789 732L789 734L794 739L801 738L801 740L804 741L806 739L813 740L814 738L821 755L817 765L823 770L827 770L825 776L826 778L830 777L830 775L832 775L836 769L838 769L839 767L840 768L840 765L842 764L840 760L849 752L853 752L855 757L858 754L858 758L860 759L861 749L866 753L866 758L861 760L865 762L865 766L859 768L861 772L865 775L871 765L874 765L879 769L881 767L888 769L888 772L890 774L890 772L892 771L896 776L897 781L894 782L895 788L891 790L891 794L888 798L888 801L890 802L894 810L891 813L893 818L891 821L895 827L893 829L895 849L887 858L882 858L876 857L871 848L866 845L863 845L865 840L864 832L866 830L864 830L865 821L856 813L857 809L855 805L849 802L851 798L850 795L846 799L846 802L842 802L840 811L828 822L828 825L830 826L830 829L833 831L835 838L832 844L832 857L828 862L824 862L821 866L822 869L816 879L812 881L809 880L808 877L804 877L803 879L801 874L797 873L800 880L794 877L789 884L789 888L787 887L780 889L775 891L773 894L768 890L764 892L762 898L755 901L748 908L746 907L745 912L742 913L738 910L737 907L735 907L737 900L735 896L731 899L729 896L731 891L729 888L727 889L725 887L731 874L714 863L716 860L718 860L723 851L732 846L734 838L737 837L735 836L736 833L741 827L741 817L753 810L751 808L752 801L748 798L745 787L748 784L756 782L756 775L758 770L763 769L760 767L759 764L759 755L755 754L756 750L761 753L766 752L770 748L772 748L772 750L776 749L776 739L771 730L774 732L774 734L777 735L776 731L778 728L781 729z"/></g><g><path class="class-11 leaflet-clickable" stroke-linejoin="round" stroke-linecap="round" fill-rule="evenodd" stroke="#888" stroke-opacity="1" stroke-width="0.5" fill="#cbc39a" fill-opacity="0.5" d="M953 705L951 711L945 714L942 721L937 724L935 723L936 727L928 726L926 730L927 735L936 731L940 737L939 741L942 742L942 744L941 743L937 746L937 750L935 751L937 753L937 758L932 759L923 770L928 771L930 777L932 777L934 780L932 780L929 783L922 782L922 786L917 793L908 792L906 794L900 790L896 794L891 794L891 790L895 788L894 782L897 781L897 778L892 771L890 772L890 774L888 772L888 769L881 767L879 769L874 765L871 765L865 775L860 772L859 768L864 766L865 762L861 761L864 758L866 758L866 753L861 749L860 759L858 759L858 754L855 757L855 754L853 752L846 753L841 760L842 764L840 765L840 768L839 767L838 769L836 769L832 775L830 775L830 777L826 778L825 776L827 770L823 770L817 765L821 755L814 741L814 738L813 740L806 739L804 741L801 738L794 739L789 734L789 732L784 728L783 729L785 703L794 701L801 697L805 698L810 693L815 691L811 683L816 680L815 679L817 674L820 672L821 668L823 668L828 654L827 651L825 651L825 648L826 649L833 644L837 648L841 648L849 643L854 643L857 641L856 637L854 636L856 634L856 631L866 628L871 639L877 643L880 642L879 639L885 641L889 641L890 639L896 639L897 630L891 627L890 625L893 622L905 622L906 620L908 620L909 622L903 632L905 634L909 634L908 636L911 638L911 641L914 643L921 643L921 641L926 639L927 641L925 644L928 644L929 646L933 644L933 646L938 650L938 654L933 657L933 661L931 662L930 666L931 668L929 668L928 671L929 676L931 676L928 679L922 679L922 675L919 672L916 672L911 674L909 684L905 684L903 686L903 691L907 687L913 685L910 688L910 691L907 693L908 698L904 699L904 703L898 708L902 713L903 722L910 723L917 716L923 715L923 712L933 704L936 704L938 702L946 690L950 695L949 698L951 704z"/></g><g><path class="class-11 leaflet-clickable" stroke-linejoin="round" stroke-linecap="round" fill-rule="evenodd" stroke="#888" stroke-opacity="1" stroke-width="0.5" fill="#cbc39a" fill-opacity="0.5" d="M1643 673L1645 673L1645 702L1659 703L1659 710L1663 711L1663 713L1674 714L1680 708L1695 728L1692 728L1691 731L1695 731L1694 735L1698 736L1699 742L1703 738L1717 756L1716 761L1718 770L1723 777L1728 778L1727 781L1726 780L1733 789L1758 811L1757 905L1760 905L1760 911L1758 911L1759 920L1757 920L1758 934L1753 934L1753 940L1758 940L1758 942L1756 942L1756 946L1752 946L1752 952L1757 952L1757 966L1590 966L1590 952L1578 951L1579 950L1575 952L1576 950L1569 950L1559 942L1554 942L1553 940L1549 940L1543 937L1542 932L1540 934L1536 933L1537 934L1533 939L1533 956L1531 957L1531 960L1520 952L1519 953L1510 950L1508 947L1501 946L1494 939L1486 938L1486 936L1483 933L1484 928L1482 922L1482 904L1469 903L1466 906L1465 903L1460 901L1459 899L1459 895L1455 886L1463 884L1502 881L1506 887L1511 889L1513 884L1524 882L1525 880L1544 872L1553 863L1562 857L1579 849L1582 845L1595 837L1613 820L1616 807L1615 798L1618 792L1616 787L1620 779L1635 767L1639 759L1635 750L1635 740L1637 738L1635 728L1636 719L1634 707L1639 694L1639 687L1643 682L1642 675z"/></g><g><path class="class-11 leaflet-clickable" stroke-linejoin="round" stroke-linecap="round" fill-rule="evenodd" stroke="#888" stroke-opacity="1" stroke-width="0.5" fill="#cbc39a" fill-opacity="0.5" d="M1590 966L1590 991L1531 991L1529 979L1518 976L1517 974L1513 973L1517 972L1518 969L1518 962L1515 958L1506 958L1502 961L1503 957L1499 956L1498 958L1493 960L1493 963L1488 963L1486 969L1480 969L1473 977L1467 975L1465 982L1466 984L1461 988L1451 989L1450 991L1408 991L1406 990L1407 988L1403 985L1404 976L1402 974L1403 970L1406 967L1405 965L1403 963L1398 963L1396 965L1395 962L1399 959L1393 954L1390 954L1390 952L1386 953L1382 950L1379 954L1376 955L1376 967L1373 968L1376 968L1375 971L1373 970L1372 972L1375 975L1375 982L1372 982L1369 987L1367 987L1366 991L1350 991L1344 987L1339 980L1335 977L1334 978L1334 976L1328 975L1328 972L1322 972L1318 962L1313 963L1312 960L1308 960L1308 950L1310 948L1308 945L1309 942L1307 940L1307 931L1305 932L1304 928L1354 910L1371 906L1406 907L1418 905L1427 900L1435 889L1455 886L1459 894L1460 901L1465 903L1466 906L1469 903L1482 904L1482 922L1484 928L1483 933L1486 936L1486 938L1494 939L1501 946L1508 947L1510 950L1519 953L1520 952L1531 960L1531 957L1533 956L1533 939L1537 934L1536 933L1540 934L1542 932L1543 937L1549 940L1553 940L1554 942L1559 942L1569 950L1576 950L1575 952L1577 952L1577 950L1590 952L1590 960z"/></g><g><path class="class-11 leaflet-clickable" stroke-linejoin="round" stroke-linecap="round" fill-rule="evenodd" stroke="#888" stroke-opacity="1" stroke-width="0.5" fill="#cbc39a" fill-opacity="0.5" d="M892 807L892 805L888 801L888 798L891 794L896 794L899 790L902 792L903 791L905 794L908 792L917 793L922 786L922 782L929 783L930 787L943 787L944 784L946 784L946 782L948 784L948 790L954 792L957 796L960 795L963 797L964 801L962 802L966 806L970 804L970 806L977 810L977 812L986 820L982 824L966 824L964 826L965 831L958 836L949 830L937 842L931 837L923 834L922 836L921 835L922 833L918 830L914 824L915 822L913 820L912 821L904 808L900 807L896 809z"/></g><g><path class="class-01 leaflet-clickable" stroke-linejoin="round" stroke-linecap="round" fill-rule="evenodd" stroke="#888" stroke-opacity="1" stroke-width="0.5" fill="#f1d2b2" fill-opacity="0.5" d="M863 845L858 844L855 847L849 846L848 843L840 843L835 839L833 831L830 829L830 826L828 825L828 822L831 818L840 811L842 803L846 803L846 800L849 795L851 798L849 802L855 804L857 809L856 813L865 821L863 828L864 830L866 830L864 832L864 844z"/></g><g><path class="class-01 leaflet-clickable" stroke-linejoin="round" stroke-linecap="round" fill-rule="evenodd" stroke="#888" stroke-opacity="1" stroke-width="0.5" fill="#f1d2b2" fill-opacity="0.5" d="M863 845L868 846L873 850L872 851L876 857L880 858L887 858L894 850L890 859L887 861L888 863L891 861L883 877L886 877L884 881L888 896L887 905L885 906L878 898L876 898L875 902L869 904L868 907L862 908L862 910L859 911L855 916L855 913L849 907L848 903L844 905L831 904L831 901L829 902L822 894L816 879L822 869L822 864L824 862L828 862L832 857L832 844L835 839L840 843L848 843L849 846L855 847L858 844L862 844z"/></g><g><path class="class-10 leaflet-clickable" stroke-linejoin="round" stroke-linecap="round" fill-rule="evenodd" stroke="#888" stroke-opacity="1" stroke-width="0.5" fill="#ccdfcc" fill-opacity="0.5" d="M738 727L752 734L753 736L748 742L752 743L751 748L754 748L757 751L756 750L755 754L759 755L758 764L763 769L758 769L756 775L756 782L746 785L745 787L748 798L752 801L751 808L753 810L743 814L741 817L741 827L736 833L735 836L737 837L734 838L732 846L723 851L718 860L716 860L706 872L704 866L700 865L698 868L699 871L697 872L697 876L699 878L698 881L700 882L701 887L700 894L702 898L716 908L711 915L706 908L704 909L703 907L699 906L697 902L694 903L690 901L688 904L687 903L686 905L683 905L681 902L678 901L678 898L676 897L672 899L666 899L653 896L638 901L633 901L627 899L621 890L609 890L602 893L599 896L598 902L600 905L598 910L601 918L600 921L597 921L594 926L590 926L590 928L575 930L571 942L571 948L575 951L575 954L571 956L560 951L543 946L526 942L524 943L491 929L487 930L466 922L464 923L463 921L450 915L448 911L449 909L444 900L434 891L432 891L434 889L433 885L430 882L433 875L439 873L440 868L438 865L440 862L443 864L449 860L453 854L466 855L476 850L481 858L483 859L487 857L491 850L494 847L497 847L495 844L495 839L498 840L500 835L504 835L507 832L513 832L519 827L523 829L524 828L526 831L536 812L536 807L538 806L535 804L535 802L528 805L525 802L520 804L523 800L522 793L517 791L515 787L517 784L513 777L515 774L520 773L521 765L516 760L507 758L506 759L500 756L495 759L493 758L492 757L494 752L494 742L502 743L504 742L501 739L508 740L513 745L515 743L514 742L517 742L521 739L525 739L525 734L530 734L532 729L536 730L548 722L551 724L560 721L565 723L572 721L573 719L586 718L585 722L593 722L593 731L597 736L603 734L605 736L607 734L616 737L616 734L618 734L618 732L622 730L622 725L627 725L629 723L634 725L635 723L637 724L637 729L641 729L643 731L646 731L647 733L646 736L642 736L640 740L643 743L642 752L656 752L660 755L660 753L664 752L662 750L664 747L667 750L668 748L677 747L679 749L677 751L682 754L679 759L682 762L684 759L688 759L689 761L691 760L692 762L694 762L694 758L698 760L699 764L702 764L704 761L710 759L713 760L716 756L719 756L719 760L722 759L722 761L728 757L737 756L736 753L738 753L737 750L734 748L734 744L737 738L739 737L737 734L740 731L738 729z"/></g><g><path class="class-00 leaflet-clickable" stroke-linejoin="round" stroke-linecap="round" fill-rule="evenodd" stroke="#888" stroke-opacity="1" stroke-width="0.5" fill="#f2eee4" fill-opacity="0.5" d="M856 631L856 634L854 635L857 641L855 643L849 643L841 648L837 648L833 644L829 648L824 649L825 651L827 651L828 654L823 668L821 668L820 672L817 674L815 679L816 680L811 683L815 691L805 697L801 697L794 701L785 703L783 729L778 728L776 730L777 735L774 734L774 732L771 730L776 739L775 744L777 748L773 750L772 748L770 748L766 752L761 753L754 748L751 748L752 743L748 742L752 738L752 734L734 725L734 721L732 719L726 718L723 706L724 702L726 702L726 699L725 696L722 693L720 694L719 690L717 690L716 686L720 684L718 680L719 677L717 677L724 673L727 665L729 666L728 668L739 669L746 665L746 661L751 664L757 664L759 666L764 664L762 663L764 662L764 655L768 657L769 655L767 648L771 637L779 640L780 642L785 643L794 635L797 636L797 632L800 629L794 628L792 630L789 627L788 623L790 622L790 610L793 607L793 602L801 603L804 609L812 616L815 617L821 614L823 616L827 609L827 605L828 604L830 606L833 606L836 603L835 599L838 599L841 594L844 594L845 597L849 600L849 613L852 618L852 623L849 623L848 626L851 629L853 629z"/></g><g><path class="class-00 leaflet-clickable" stroke-linejoin="round" stroke-linecap="round" fill-rule="evenodd" stroke="#888" stroke-opacity="1" stroke-width="0.5" fill="#f2eee4" fill-opacity="0.5" d="M717.6 83L714 92L707 99L701 87L660 124L669 135L674 145L678 146L686 154L687 166L694 167L694 176L691 180L697 191L699 198L703 199L707 206L712 205L715 208L721 209L722 211L715 210L713 212L717 213L717 215L721 216L722 219L727 220L729 222L727 229L734 230L740 228L744 230L748 236L746 237L749 241L746 242L740 240L740 244L716 237L705 239L697 246L695 263L704 271L694 280L697 288L696 308L689 306L688 304L683 308L671 304L667 300L660 286L650 283L648 281L642 284L637 289L622 287L620 283L623 284L624 279L619 277L616 279L608 275L601 261L561 250L546 251L547 263L527 256L510 285L510 289L504 285L488 280L473 266L474 264L472 261L472 257L465 251L464 252L460 244L456 242L454 237L451 237L450 233L455 225L460 222L465 225L466 221L463 221L452 209L457 204L458 200L460 200L460 198L464 195L467 186L468 180L465 176L465 147L473 133L468 125L463 101L439 91L438 92L437 89L432 87L431 83z"/></g><g><path class="class-10 leaflet-clickable" stroke-linejoin="round" stroke-linecap="round" fill-rule="evenodd" stroke="#888" stroke-opacity="1" stroke-width="0.5" fill="#ccdfcc" fill-opacity="0.5" d="M0 0"/></g><g><path class="class-10 leaflet-clickable" stroke-linejoin="round" stroke-linecap="round" fill-rule="evenodd" stroke="#888" stroke-opacity="1" stroke-width="0.5" fill="#ccdfcc" fill-opacity="0.5" d="M0 0"/></g><g><path class="class-10 leaflet-clickable" stroke-linejoin="round" stroke-linecap="round" fill-rule="evenodd" stroke="#888" stroke-opacity="1" stroke-width="0.5" fill="#ccdfcc" fill-opacity="0.5" d="M0 0"/></g><g><path class="class-10 leaflet-clickable" stroke-linejoin="round" stroke-linecap="round" fill-rule="evenodd" stroke="#888" stroke-opacity="1" stroke-width="0.5" fill="#ccdfcc" fill-opacity="0.5" d="M1757 954L1757 952L1752 952L1752 946L1756 946L1756 942L1758 942L1758 940L1753 940L1753 934L1758 934L1757 920L1759 920L1758 911L1760 911L1760 905L1757 905L1757 864L1759 839L1758 811L1744 799L1751 793L1751 791L1758 791L1757 796L1761 796L1761 793L1759 793L1760 784L1768 787L1768 784L1771 784L1772 782L1767 782L1769 777L1771 777L1773 773L1776 773L1776 776L1780 769L1782 769L1782 767L1787 766L1791 755L1797 754L1797 942L1792 945L1788 953L1785 954L1782 958L1778 956L1776 952L1772 952L1771 949L1769 949L1768 947L1761 951L1760 950L1759 952z"/></g><g><path class="class-10 leaflet-clickable" stroke-linejoin="round" stroke-linecap="round" fill-rule="evenodd" stroke="#888" stroke-opacity="1" stroke-width="0.5" fill="#ccdfcc" fill-opacity="0.5" d="M0 0"/></g><g><path class="class-00 leaflet-clickable" stroke-linejoin="round" stroke-linecap="round" fill-rule="evenodd" stroke="#888" stroke-opacity="1" stroke-width="0.5" fill="#f2eee4" fill-opacity="0.5" d="M790 610L790 622L788 623L792 630L796 628L800 629L797 632L797 636L794 635L785 643L771 637L767 648L769 654L768 657L764 655L764 662L762 663L764 664L759 666L757 664L751 664L746 661L746 665L743 665L739 669L728 668L729 666L727 665L724 673L717 676L719 677L718 680L720 683L716 686L717 690L719 690L720 694L722 693L726 699L726 702L724 702L723 706L726 718L732 719L734 721L734 725L738 727L738 729L740 730L737 734L739 737L737 738L734 744L734 748L737 749L737 756L728 757L722 761L722 759L719 760L719 756L716 756L713 760L710 759L704 761L702 764L699 764L698 760L695 758L694 762L692 762L691 760L689 761L688 759L684 759L683 762L679 759L682 754L677 751L679 749L677 747L668 748L667 750L665 747L662 750L664 752L660 753L660 755L657 752L643 752L643 747L642 748L642 743L640 740L641 736L646 736L647 733L646 731L637 729L637 725L635 723L634 725L629 723L627 725L622 725L622 730L620 730L618 734L616 734L616 737L607 734L605 736L597 736L594 733L592 726L593 722L586 722L586 719L579 718L587 704L591 701L592 694L586 691L586 686L584 685L585 684L582 684L582 681L579 679L581 677L580 675L592 665L599 649L604 648L603 645L606 642L607 643L609 633L620 629L620 624L617 620L626 617L625 613L620 607L624 603L623 601L626 597L625 596L628 586L626 586L626 583L630 582L636 577L640 578L646 576L652 579L659 578L659 580L666 585L673 583L680 585L687 588L686 590L688 592L694 593L692 598L703 602L704 604L710 607L712 607L712 605L714 606L714 609L721 605L728 605L727 599L730 592L745 591L755 596L754 599L756 598L760 601L764 607L774 607L773 609L775 613L786 613L789 612L789 610z"/></g><g><path class="class-00 leaflet-clickable" stroke-linejoin="round" stroke-linecap="round" fill-rule="evenodd" stroke="#888" stroke-opacity="1" stroke-width="0.5" fill="#f2eee4" fill-opacity="0.5" d="M-122 347L-128 348L-131 344L-135 326L-133 326L-124 342z"/></g><g><path class="class-00 leaflet-clickable" stroke-linejoin="round" stroke-linecap="round" fill-rule="evenodd" stroke="#888" stroke-opacity="1" stroke-width="0.5" fill="#f2eee4" fill-opacity="0.5" d="M-173 310L-171 310L-167 316L-170 322L-172 322L-172 320L-175 318L-173 316L-176 313L-175 310z"/></g><g><path class="class-00 leaflet-clickable" stroke-linejoin="round" stroke-linecap="round" fill-rule="evenodd" stroke="#888" stroke-opacity="1" stroke-width="0.5" fill="#f2eee4" fill-opacity="0.5" d="M-176 304L-173 308L-174 309L-178 305z"/></g><g><path class="class-00 leaflet-clickable" stroke-linejoin="round" stroke-linecap="round" fill-rule="evenodd" stroke="#888" stroke-opacity="1" stroke-width="0.5" fill="#f2eee4" fill-opacity="0.5" d="M-203 255L-193 261L-189 274L-192 275L-196 271L-198 271L-203 260.6666666666667z"/></g><g><path class="class-00 leaflet-clickable" stroke-linejoin="round" stroke-linecap="round" fill-rule="evenodd" stroke="#888" stroke-opacity="1" stroke-width="0.5" fill="#f2eee4" fill-opacity="0.5" d="M-203 232L-203 232z"/></g><g><path class="class-00 leaflet-clickable" stroke-linejoin="round" stroke-linecap="round" fill-rule="evenodd" stroke="#888" stroke-opacity="1" stroke-width="0.5" fill="#f2eee4" fill-opacity="0.5" d="M0 0"/></g><g><path class="class-00 leaflet-clickable" stroke-linejoin="round" stroke-linecap="round" fill-rule="evenodd" stroke="#888" stroke-opacity="1" stroke-width="0.5" fill="#f2eee4" fill-opacity="0.5" d="M0 0"/></g><g><path class="class-00 leaflet-clickable" stroke-linejoin="round" stroke-linecap="round" fill-rule="evenodd" stroke="#888" stroke-opacity="1" stroke-width="0.5" fill="#f2eee4" fill-opacity="0.5" d="M0 0"/></g><g><path class="class-00 leaflet-clickable" stroke-linejoin="round" stroke-linecap="round" fill-rule="evenodd" stroke="#888" stroke-opacity="1" stroke-width="0.5" fill="#f2eee4" fill-opacity="0.5" d="M0 0"/></g><g><path class="class-00 leaflet-clickable" stroke-linejoin="round" stroke-linecap="round" fill-rule="evenodd" stroke="#888" stroke-opacity="1" stroke-width="0.5" fill="#f2eee4" fill-opacity="0.5" d="M0 0"/></g><g><path class="class-00 leaflet-clickable" stroke-linejoin="round" stroke-linecap="round" fill-rule="evenodd" stroke="#888" stroke-opacity="1" stroke-width="0.5" fill="#f2eee4" fill-opacity="0.5" d="M0 0"/></g><g><path class="class-00 leaflet-clickable" stroke-linejoin="round" stroke-linecap="round" fill-rule="evenodd" stroke="#888" stroke-opacity="1" stroke-width="0.5" fill="#f2eee4" fill-opacity="0.5" d="M0 0"/></g><g><path class="class-00 leaflet-clickable" stroke-linejoin="round" stroke-linecap="round" fill-rule="evenodd" stroke="#888" stroke-opacity="1" stroke-width="0.5" fill="#f2eee4" fill-opacity="0.5" d="M-203 276L-200 282L-203 288L-203 323L-196 338L-193 339L-191 342L-185 344L-168 345L-168 339L-171 336L-171 330L-168 329L-168 327L-162 328L-162 331L-158 333L-156 337L-141 347L-138 359L-134 360L-125 357L-123 361L-126 368L-125 371L-113 383L-113 396L-92 407L-93 411L-88 417L-89 420L-87 423L-89 425L-89 439L-99 452L-110 456L-114 459L-116 463L-119 463L-127 472L-131 472L-132 474L-137 475L-146 467L-148 463L-153 446L-155 431L-169 408L-179 400L-188 397L-196 392L-203 385z"/></g><g><path class="class-00 leaflet-clickable" stroke-linejoin="round" stroke-linecap="round" fill-rule="evenodd" stroke="#888" stroke-opacity="1" stroke-width="0.5" fill="#f2eee4" fill-opacity="0.5" d="M0 0"/></g><g><path class="class-00 leaflet-clickable" stroke-linejoin="round" stroke-linecap="round" fill-rule="evenodd" stroke="#888" stroke-opacity="1" stroke-width="0.5" fill="#f2eee4" fill-opacity="0.5" d="M0 0"/></g><g><path class="class-00 leaflet-clickable" stroke-linejoin="round" stroke-linecap="round" fill-rule="evenodd" stroke="#888" stroke-opacity="1" stroke-width="0.5" fill="#f2eee4" fill-opacity="0.5" d="M0 0"/></g><g><path class="class-00 leaflet-clickable" stroke-linejoin="round" stroke-linecap="round" fill-rule="evenodd" stroke="#888" stroke-opacity="1" stroke-width="0.5" fill="#f2eee4" fill-opacity="0.5" d="M-11 83L-13 88L-16 89L-16 92L-20 96L-20 102L-25 101L-30 104L-38 106L-40 112L-42 113L-36 113L-39 121L-41 119L-44 122L-50 121L-61 132L-65 130L-67 127L-69 127L-72 130L-73 129L-72 120L-74 109L-87 95L-94 92L-95 94L-106 91L-112 93L-119 90L-125.5 83z"/></g><g><path class="class-00 leaflet-clickable" stroke-linejoin="round" stroke-linecap="round" fill-rule="evenodd" stroke="#888" stroke-opacity="1" stroke-width="0.5" fill="#f2eee4" fill-opacity="0.5" d="M1797 754L1791 755L1787 766L1782 767L1777 776L1776 773L1773 773L1771 777L1769 777L1767 782L1772 782L1771 784L1768 784L1768 787L1760 784L1759 793L1761 793L1761 796L1757 796L1758 791L1754 790L1751 791L1751 793L1744 799L1728 784L1726 780L1727 781L1728 778L1723 777L1718 770L1718 763L1716 761L1717 756L1703 738L1699 742L1698 736L1694 735L1695 731L1691 731L1692 728L1695 728L1680 708L1674 714L1663 713L1663 711L1659 710L1659 703L1645 702L1645 673L1643 673L1646 663L1652 655L1671 643L1681 641L1691 635L1721 628L1784 620L1797 615z"/></g><g><path class="class-00 leaflet-clickable" stroke-linejoin="round" stroke-linecap="round" fill-rule="evenodd" stroke="#888" stroke-opacity="1" stroke-width="0.5" fill="#f2eee4" fill-opacity="0.5" d="M1705 500L1710 502L1718 511L1717 519L1713 524L1708 520L1706 521L1707 517L1703 515L1701 511L1704 511L1706 508L1703 503L1701 504L1701 501L1704 502z"/></g><g><path class="class-00 leaflet-clickable" stroke-linejoin="round" stroke-linecap="round" fill-rule="evenodd" stroke="#888" stroke-opacity="1" stroke-width="0.5" fill="#f2eee4" fill-opacity="0.5" d="M-73 129L-72 130L-67 127L-65 130L-61 132L-50 121L-44 122L-41 119L-39 121L-37 118L-38 116L-35 113L-42 113L-40 112L-38 106L-30 104L-25 101L-20 102L-20 96L-16 93L-16 89L-13 88L-11 83L40 83L40 92L34 97L38 99L46 110L44 114L40 117L55 139L55 142L59 143L62 148L64 148L68 144L75 146L81 145L85 151L88 151L90 148L95 147L105 154L107 162L106 169L127 186L128 191L132 193L134 191L136 192L136 195L133 196L135 199L130 203L121 207L117 206L116 211L120 213L118 218L113 221L117 230L114 229L118 236L122 238L120 240L121 257L126 260L131 269L131 272L133 270L139 275L139 281L145 280L159 295L161 303L165 310L167 310L167 313L173 315L172 319L169 321L171 324L170 325L176 333L181 335L191 332L192 328L199 325L210 329L216 334L217 341L220 341L223 351L225 352L223 355L224 358L232 364L229 368L233 368L237 372L236 375L228 372L227 378L232 389L230 394L233 407L234 403L241 401L241 403L244 406L246 412L249 415L247 418L251 420L249 425L251 432L252 434L256 435L256 448L264 452L266 452L266 450L269 449L277 450L279 454L277 455L277 459L273 464L269 466L272 473L267 484L269 496L272 496L272 498L274 499L273 502L275 503L273 510L266 510L266 508L262 507L260 508L260 505L257 502L251 505L254 513L251 514L248 512L238 493L230 485L221 479L200 455L187 443L185 443L176 424L166 414L167 413L150 397L151 395L143 383L143 379L132 367L115 354L115 352L68 318L60 314L56 307L44 300L40 295L39 289L31 280L22 262L11 251L9 246L1 237L-10 231L-31 225L-41 220L-51 219L-57 213L-57 211L-64 206L-68 201L-79 197L-85 198L-89 181L-88 172L-90 167L-87 156L-78 143L-76 134L-72 130z"/></g><g><path class="class-00 leaflet-clickable" stroke-linejoin="round" stroke-linecap="round" fill-rule="evenodd" stroke="#888" stroke-opacity="1" stroke-width="0.5" fill="#f2eee4" fill-opacity="0.5" d="M804.5 83L805 88L800 92L801 94L812 94L825 101L822 126L824 131L828 128L837 136L843 136L846 156L849 156L851 154L853 155L859 151L870 165L877 157L899 160L899 213L913 213L913 218L867 255L859 255L858 251L856 250L854 255L848 258L846 257L846 260L844 262L846 271L842 277L844 285L841 286L834 282L828 285L825 289L822 289L817 292L815 295L816 298L811 300L811 302L805 300L794 307L795 314L803 312L807 323L807 330L804 335L801 351L809 359L811 359L812 363L816 367L819 376L816 375L808 385L804 387L791 384L782 385L773 407L777 424L762 423L757 428L763 432L760 439L749 437L751 431L744 431L742 436L736 436L737 443L740 443L740 446L726 443L728 426L723 421L725 410L728 411L727 406L725 406L725 402L729 393L725 389L724 383L720 378L722 356L721 351L723 349L714 345L716 345L717 340L712 340L715 323L705 314L702 317L697 307L697 288L694 280L704 271L695 263L697 246L705 239L716 237L740 244L740 240L746 242L749 241L746 237L748 236L747 232L740 228L734 230L727 229L729 222L727 220L722 219L721 216L717 215L717 213L713 212L715 210L722 211L721 209L715 208L712 205L707 206L703 199L699 198L697 191L691 180L695 170L694 167L687 166L686 154L678 146L674 145L669 135L660 124L701 87L707 99L714 92L717.6 83z"/></g><g><path class="class-10 leaflet-clickable" stroke-linejoin="round" stroke-linecap="round" fill-rule="evenodd" stroke="#888" stroke-opacity="1" stroke-width="0.5" fill="#ccdfcc" fill-opacity="0.5" d="M600 558L600 561L597 564L599 566L603 566L602 570L599 569L584 575L584 578L581 582L579 582L574 590L568 590L567 594L561 594L560 597L551 594L537 586L533 586L530 583L520 588L513 583L512 580L510 580L511 577L508 576L514 561L519 554L525 550L525 547L527 545L526 543L529 540L527 532L542 532L546 529L545 527L558 522L559 515L561 515L561 519L565 522L565 524L574 526L574 532L580 532L581 530L584 531L586 536L588 537L588 544L584 545L586 545L585 548L591 549L600 556z"/></g><g><path class="class-12 leaflet-clickable" stroke-linejoin="round" stroke-linecap="round" fill-rule="evenodd" stroke="#888" stroke-opacity="1" stroke-width="0.5" fill="#c0976b" fill-opacity="0.5" d="M431 83L433 88L418 85L406 85L406 83L403 83L402 86L389 83L378 83L377 84L380 88L376 95L366 100L360 115L361 118L353 127L352 123L349 124L341 114L332 110L324 110L317 116L310 118L305 109L291 115L288 112L286 115L282 112L282 108L270 109L270 107L265 106L260 97L260 99L253 99L252 95L247 89L242 91L244 95L236 86L235 87L227.75 83L215.33333333333334 83L214 85L212 83L209 83L208 88L212 89L206 91L207 92L205 93L202 100L203 103L198 110L201 110L200 111L202 114L200 121L197 122L196 125L199 124L198 128L195 126L184 141L186 148L182 150L182 165L175 167L173 171L173 193L181 188L163 206L162 204L144 205L142 198L133 196L136 195L136 192L128 192L127 186L106 169L107 163L105 154L95 147L90 148L88 151L85 151L81 145L75 146L68 144L64 148L62 148L59 143L56 143L55 139L40 117L44 114L46 110L38 99L34 97L39 94L41 89L41 84L38 84L38.333333333333336 83z"/></g><g><path class="class-11 leaflet-clickable" stroke-linejoin="round" stroke-linecap="round" fill-rule="evenodd" stroke="#888" stroke-opacity="1" stroke-width="0.5" fill="#cbc39a" fill-opacity="0.5" d="M433 88L437 89L438 92L439 91L463 101L468 125L473 133L465 147L465 176L468 180L467 186L464 195L460 198L460 200L458 200L457 204L452 209L463 221L466 221L466 225L460 222L455 225L451 233L451 237L454 237L456 242L460 244L464 252L465 251L472 257L472 261L474 263L473 266L488 280L504 285L510 289L510 285L527 256L530 262L529 265L526 265L526 268L536 272L543 301L544 320L540 320L539 322L533 322L527 325L519 325L516 322L512 324L507 317L506 320L500 317L498 319L493 316L490 320L489 319L488 323L484 320L476 321L474 318L472 320L459 320L455 331L453 331L450 334L445 334L446 343L440 351L439 352L437 348L420 360L419 364L421 366L421 372L419 375L422 382L418 387L420 392L419 395L425 395L424 399L423 401L419 398L413 406L400 416L395 431L394 444L390 449L390 464L392 470L396 473L395 477L397 484L391 486L386 484L384 487L381 488L382 490L380 491L381 493L379 495L382 502L376 508L379 514L377 518L361 523L361 526L353 522L351 515L346 515L345 505L339 506L336 504L335 498L329 496L327 501L318 511L316 511L314 503L308 496L308 494L324 488L322 487L322 480L318 480L316 477L316 473L314 471L315 467L313 464L308 466L288 466L285 468L284 462L282 460L283 456L282 454L279 454L277 450L269 449L266 450L266 452L264 452L256 448L257 439L256 436L251 432L249 425L251 420L247 418L249 416L244 406L241 403L241 401L234 403L233 407L230 394L232 389L227 378L228 372L234 375L236 375L237 372L233 368L229 368L232 364L224 358L223 355L225 352L223 351L220 341L217 341L216 334L210 329L199 325L192 328L191 332L185 334L181 335L175 332L170 325L171 324L169 321L172 319L173 315L167 313L167 310L165 310L159 296L145 281L140 281L138 278L139 276L133 270L131 272L131 269L126 260L121 257L121 244L119 240L122 238L118 236L114 229L117 230L113 221L118 218L120 213L116 211L117 206L121 207L130 203L135 199L133 196L142 198L144 205L162 204L163 206L177 191L181 189L173 193L174 167L182 165L182 150L186 148L184 141L195 126L198 128L199 124L196 125L197 122L200 121L202 114L200 111L201 110L198 110L202 106L202 100L205 93L207 92L206 91L212 89L208 88L208 83L212 83L214 85L215.33333333333334 83L227.75 83L235 87L236 86L244 95L242 91L247 89L253 97L253 99L260 99L260 97L265 106L270 107L270 109L281 108L283 111L282 112L286 115L288 112L291 115L305 109L310 119L312 117L317 116L324 110L332 110L341 114L346 122L349 124L352 123L353 127L361 118L360 115L366 100L376 95L380 88L377 84L378 83L389 83L401 86L403 83L406 83L406 85L418 85z"/></g><g><path class="class-20 leaflet-clickable" stroke-linejoin="round" stroke-linecap="round" fill-rule="evenodd" stroke="#888" stroke-opacity="1" stroke-width="0.5" fill="#95c497" fill-opacity="0.5" d="M203 623L203 626L201 627L198 624L200 622z"/></g><g><path class="class-20 leaflet-clickable" stroke-linejoin="round" stroke-linecap="round" fill-rule="evenodd" stroke="#888" stroke-opacity="1" stroke-width="0.5" fill="#95c497" fill-opacity="0.5" d="M184 610L190 611L191 613L189 614L188 617L179 613L182 610z"/></g><g><path class="class-20 leaflet-clickable" stroke-linejoin="round" stroke-linecap="round" fill-rule="evenodd" stroke="#888" stroke-opacity="1" stroke-width="0.5" fill="#95c497" fill-opacity="0.5" d="M164 590L174 593L177 602L175 604L166 599L167 598L164 595L165 592z"/></g><g><path class="class-20 leaflet-clickable" stroke-linejoin="round" stroke-linecap="round" fill-rule="evenodd" stroke="#888" stroke-opacity="1" stroke-width="0.5" fill="#95c497" fill-opacity="0.5" d="M162 582L164 586L162 587L161 585z"/></g><g><path class="class-20 leaflet-clickable" stroke-linejoin="round" stroke-linecap="round" fill-rule="evenodd" stroke="#888" stroke-opacity="1" stroke-width="0.5" fill="#95c497" fill-opacity="0.5" d="M374 520L374 522L379 525L380 531L376 536L375 542L373 544L372 563L376 563L379 560L383 564L388 562L390 563L388 575L391 579L398 582L401 581L413 583L412 586L416 590L412 596L414 597L413 601L419 605L418 607L422 610L424 611L426 609L431 617L428 617L428 625L424 629L422 634L413 636L408 633L404 636L404 638L398 640L388 639L385 643L387 646L384 653L384 661L387 663L381 669L379 669L379 673L373 674L374 677L371 679L376 678L379 681L380 679L384 686L384 691L382 692L383 696L381 696L380 694L380 689L371 683L370 680L366 677L362 676L355 666L348 666L344 664L344 662L339 660L340 658L330 656L318 667L312 667L310 665L305 667L299 676L299 681L297 680L293 683L291 689L289 689L282 681L278 684L266 681L267 678L270 678L273 671L286 657L286 655L290 656L294 651L293 645L295 634L292 625L296 616L298 615L296 611L297 610L294 607L291 608L274 597L260 569L255 558L257 543L252 521L245 508L246 507L250 514L253 514L254 513L251 505L257 502L260 505L260 508L266 508L266 510L274 509L274 500L272 496L269 496L267 489L267 484L272 473L269 466L273 464L277 459L277 455L279 454L282 454L283 456L282 460L284 462L285 468L288 466L308 466L313 464L315 467L314 470L316 473L316 477L318 480L322 480L322 487L324 488L308 494L308 496L314 503L316 511L318 511L327 501L329 496L332 498L335 497L336 504L339 506L345 505L346 515L351 515L353 522L355 522L357 525L360 526L361 523L372 519z"/></g><g><path class="class-00 leaflet-clickable" stroke-linejoin="round" stroke-linecap="round" fill-rule="evenodd" stroke="#888" stroke-opacity="1" stroke-width="0.5" fill="#f2eee4" fill-opacity="0.5" d="M0 0"/></g><g><path class="class-00 leaflet-clickable" stroke-linejoin="round" stroke-linecap="round" fill-rule="evenodd" stroke="#888" stroke-opacity="1" stroke-width="0.5" fill="#f2eee4" fill-opacity="0.5" d="M0 0"/></g><g><path class="class-00 leaflet-clickable" stroke-linejoin="round" stroke-linecap="round" fill-rule="evenodd" stroke="#888" stroke-opacity="1" stroke-width="0.5" fill="#f2eee4" fill-opacity="0.5" d="M452 855L444 864L440 862L438 865L440 867L439 873L435 874L429 882L424 876L407 864L396 858L375 850L376 847L378 846L373 841L370 841L366 844L361 840L343 835L350 835L350 837L352 838L351 835L353 835L355 829L358 827L363 829L366 827L366 825L373 826L375 824L377 825L383 822L388 823L395 821L394 818L399 810L398 809L400 804L408 806L409 808L415 810L414 808L416 807L422 812L440 803L444 812L452 819L450 832L451 834L449 841L449 846L452 849L452 852z"/></g><g><path class="class-00 leaflet-clickable" stroke-linejoin="round" stroke-linecap="round" fill-rule="evenodd" stroke="#888" stroke-opacity="1" stroke-width="0.5" fill="#f2eee4" fill-opacity="0.5" d="M0 0"/></g><g><path class="class-20 leaflet-clickable" stroke-linejoin="round" stroke-linecap="round" fill-rule="evenodd" stroke="#888" stroke-opacity="1" stroke-width="0.5" fill="#95c497" fill-opacity="0.5" d="M697 307L702 317L692 328L684 335L678 329L678 324L673 342L659 347L661 371L648 383L608 418L577 427L572 426L570 418L566 418L565 426L561 430L565 434L566 431L565 434L562 435L561 439L566 441L568 449L564 457L566 457L570 475L576 483L593 497L601 496L599 505L604 506L603 510L607 515L609 512L612 513L611 510L619 510L625 502L625 499L627 500L627 496L634 491L634 487L641 487L646 490L644 494L648 496L652 503L653 510L650 516L645 516L644 525L639 525L639 527L643 533L641 534L644 534L649 540L647 543L649 547L647 556L645 556L644 558L647 558L646 561L642 564L640 567L641 568L635 573L635 576L633 577L634 579L630 579L628 576L627 569L621 569L617 564L610 559L608 560L607 558L600 558L600 556L591 549L585 548L586 545L584 545L588 544L588 537L586 536L585 532L581 530L580 532L574 532L574 526L565 524L565 522L561 519L561 515L559 515L558 522L553 525L545 526L545 530L540 532L527 532L529 540L526 543L527 545L525 547L525 550L519 553L514 561L508 576L510 577L510 580L512 580L513 583L520 588L515 593L517 594L518 600L523 602L524 605L529 606L529 608L531 609L528 615L529 621L526 625L524 625L523 621L521 620L519 627L513 627L514 629L510 630L508 635L506 635L504 638L501 637L501 635L499 635L498 633L496 633L495 635L492 633L489 639L489 645L491 649L490 651L485 653L478 649L476 651L473 650L473 652L471 653L470 652L464 654L458 646L459 645L457 644L451 646L450 644L448 644L445 647L443 646L440 639L437 638L439 635L439 631L434 630L432 632L431 628L433 626L435 627L436 625L441 624L444 626L446 624L449 624L451 621L447 615L442 620L440 616L437 616L436 613L433 613L435 608L434 604L438 602L440 604L443 601L446 602L446 596L450 589L449 583L445 581L449 580L448 578L455 577L458 571L460 569L465 569L466 566L471 561L477 564L479 563L479 560L487 559L487 554L483 553L485 550L489 549L490 547L487 545L487 543L492 537L489 535L488 532L479 531L479 533L477 533L481 523L477 520L471 520L464 524L465 533L467 530L469 530L470 531L468 535L470 536L466 536L462 538L462 540L459 539L457 549L451 550L450 548L448 549L446 547L442 551L437 550L434 548L442 533L440 533L438 529L439 527L441 527L443 520L446 519L444 511L440 505L436 507L429 504L423 517L423 523L420 527L421 532L418 544L413 534L414 532L412 528L416 521L418 521L416 518L418 511L417 509L419 506L418 505L427 499L428 490L417 488L415 489L414 487L403 487L400 491L404 495L404 502L407 502L406 505L408 507L405 508L411 511L412 514L406 520L405 524L401 523L400 525L397 525L397 523L399 523L398 522L401 515L399 508L396 508L393 511L388 510L387 512L389 515L387 516L390 517L391 522L387 519L384 520L381 527L379 527L379 525L374 522L374 520L377 518L379 514L376 508L381 502L381 498L379 495L381 493L380 491L382 490L381 488L386 484L389 486L397 484L395 477L396 473L390 464L390 449L394 444L395 431L398 420L403 413L416 404L419 398L423 401L424 399L425 395L419 395L420 392L418 387L422 383L421 378L419 376L422 366L419 364L420 360L423 360L433 350L437 348L439 352L440 351L446 343L445 334L450 334L453 331L455 331L459 320L472 320L474 318L476 321L482 319L488 323L489 319L490 320L493 316L498 319L500 317L506 320L507 317L512 324L516 322L519 325L527 325L533 322L539 322L540 320L544 320L543 301L536 272L526 268L526 265L529 265L530 262L527 256L547 263L546 251L561 250L601 261L608 275L616 279L619 277L624 279L623 284L620 283L622 287L637 289L642 284L648 281L650 283L659 285L667 300L671 304L683 308L688 304L689 306L696 308z"/></g><g><path class="class-11 leaflet-clickable" stroke-linejoin="round" stroke-linecap="round" fill-rule="evenodd" stroke="#888" stroke-opacity="1" stroke-width="0.5" fill="#cbc39a" fill-opacity="0.5" d="M760 439L759 449L764 450L763 452L769 455L764 459L763 462L762 461L762 465L760 464L760 470L766 470L767 479L761 485L768 489L773 487L780 487L784 489L784 494L787 496L795 496L799 493L810 497L812 500L816 499L811 487L816 487L821 495L826 494L827 499L831 498L835 506L839 520L855 520L867 522L871 526L872 524L877 525L891 521L890 524L899 524L899 526L903 527L907 531L911 530L913 533L915 532L915 534L918 535L918 537L922 537L920 539L921 542L912 549L914 551L912 552L910 561L908 562L909 564L904 562L902 564L899 563L901 567L904 565L906 568L903 567L902 568L905 570L902 571L905 577L907 576L907 579L910 581L910 583L903 590L902 588L900 588L901 590L894 594L897 606L903 609L905 613L904 619L906 620L905 622L893 622L892 624L890 624L891 627L897 630L896 639L890 639L889 641L879 639L880 642L877 643L871 639L866 628L857 631L853 629L851 630L848 626L849 623L852 623L852 618L849 613L848 606L849 601L844 594L841 593L838 599L835 599L836 603L833 606L830 606L829 604L827 605L827 609L824 616L821 614L816 617L809 614L804 609L801 603L798 602L793 602L793 607L789 612L782 612L778 614L775 613L773 609L774 607L764 607L760 601L756 598L755 599L755 596L745 591L730 592L727 599L728 604L718 606L714 609L714 606L712 605L712 607L710 607L704 604L703 602L692 598L694 593L688 592L686 590L687 588L684 588L680 585L673 583L666 585L661 582L659 578L652 579L646 576L640 578L636 577L634 579L633 577L635 576L635 573L641 569L640 567L646 561L647 558L644 558L645 556L647 556L649 547L647 543L649 540L644 534L641 534L643 533L639 527L639 525L644 525L645 517L650 516L653 510L651 500L648 496L644 494L647 490L641 487L634 487L634 491L627 496L627 500L625 499L625 502L619 510L611 510L612 513L609 512L607 515L603 511L604 506L599 505L601 496L593 497L576 483L570 475L566 457L564 457L568 449L566 441L561 439L562 435L565 435L567 431L565 434L561 430L565 426L566 418L570 418L572 426L577 427L608 418L661 371L659 347L673 342L678 324L678 329L684 335L705 314L715 323L712 340L717 340L716 345L714 345L723 349L719 371L720 378L724 383L724 389L729 395L725 402L725 406L727 406L728 411L725 410L723 420L728 426L726 443L740 446L740 443L737 443L736 436L742 436L744 431L751 431L749 437L757 438z"/></g><g><path class="class-01 leaflet-clickable" stroke-linejoin="round" stroke-linecap="round" fill-rule="evenodd" stroke="#888" stroke-opacity="1" stroke-width="0.5" fill="#f1d2b2" fill-opacity="0.5" d="M971 535L967 537L967 540L961 539L953 530L955 528L953 526L945 526L944 524L935 519L933 515L929 514L929 516L924 515L922 518L923 520L920 522L917 522L917 519L915 521L912 520L913 518L911 518L910 520L909 518L906 518L898 522L894 520L878 525L872 524L871 526L867 522L855 520L839 520L835 506L831 498L827 499L826 494L821 495L816 487L811 487L816 499L812 500L810 497L799 493L795 496L787 496L784 494L784 489L780 487L773 487L768 489L761 486L767 479L766 470L760 470L760 464L762 465L761 461L763 462L764 459L769 455L763 452L764 450L759 449L759 442L763 432L757 428L762 423L777 424L773 407L782 385L791 384L804 387L808 385L816 375L819 376L816 367L812 363L811 359L809 359L801 351L802 342L807 330L807 323L803 312L795 314L794 307L805 300L811 302L811 300L816 298L815 295L817 292L824 289L828 285L834 283L841 286L844 285L842 277L846 271L844 262L846 260L846 257L848 258L854 255L856 250L859 254L863 256L867 255L913 218L913 213L899 213L899 160L877 157L870 165L859 151L853 155L852 154L846 156L843 136L837 136L828 128L824 131L822 126L825 101L812 94L801 94L800 92L805 88L804.5 83L839 83L839 86L842 88L845 99L845 107L849 108L851 111L851 118L853 122L857 120L860 122L863 121L865 122L865 124L867 122L871 126L877 124L881 129L883 128L887 133L886 134L890 135L891 138L899 136L900 139L912 139L912 142L917 146L920 145L924 151L927 150L929 154L932 154L934 156L936 154L938 157L940 155L945 155L945 157L948 158L949 155L955 157L963 155L969 156L970 158L974 159L982 159L988 166L993 168L995 173L998 172L998 174L1001 174L1004 178L1009 178L1009 170L1018 168L1017 166L1030 166L1027 193L999 250L991 271L981 312L977 349L976 387L973 424L974 461L971 482L965 499L966 520L969 530z"/></g><g><path class="class-00 leaflet-clickable" stroke-linejoin="round" stroke-linecap="round" fill-rule="evenodd" stroke="#888" stroke-opacity="1" stroke-width="0.5" fill="#f2eee4" fill-opacity="0.5" d="M520 588L530 583L533 586L537 586L551 594L560 597L561 594L567 594L568 590L574 590L579 582L581 582L584 575L599 569L602 570L603 566L599 566L597 564L600 561L600 558L607 558L608 560L610 559L617 564L620 569L627 569L628 576L632 580L626 583L626 586L628 586L625 596L626 597L623 601L624 603L620 607L626 615L626 617L617 620L620 624L620 629L609 633L607 643L606 642L603 645L603 649L599 649L593 665L580 675L581 677L579 679L582 681L582 684L585 684L584 685L586 686L586 691L592 694L591 701L587 703L579 718L573 719L572 721L565 723L561 721L554 724L548 722L545 723L536 730L532 729L530 734L526 733L526 739L521 739L517 742L514 742L515 743L513 745L509 740L502 739L502 741L504 742L502 743L494 742L494 752L492 757L493 758L495 759L500 756L506 759L507 758L516 760L521 765L521 770L519 774L515 774L513 777L517 784L515 787L516 789L520 793L522 793L523 800L520 804L525 802L527 805L534 802L538 805L536 807L536 812L530 824L530 827L526 831L524 828L523 829L519 827L513 832L507 832L504 835L500 835L499 840L496 839L495 844L497 847L494 847L487 857L484 859L478 855L476 850L466 855L452 855L452 849L449 844L452 819L444 812L440 803L422 812L416 807L414 808L415 810L409 808L408 806L400 804L398 809L399 810L394 818L395 821L388 823L383 822L377 825L375 824L373 826L367 825L363 829L358 827L355 829L353 835L351 835L352 838L350 837L350 835L343 835L343 833L339 829L333 830L332 829L334 825L332 823L322 823L312 815L313 811L308 807L309 804L307 803L307 798L304 795L302 796L301 794L296 792L270 756L265 746L264 733L255 725L251 716L253 716L261 709L278 706L281 707L288 704L293 696L292 692L289 690L291 689L293 683L297 680L299 681L299 676L303 669L310 665L312 667L318 667L319 665L324 663L330 656L340 658L339 660L346 665L355 666L360 672L360 674L370 680L371 683L380 689L381 696L383 696L382 692L384 691L384 686L380 679L379 681L376 678L371 679L374 677L373 674L379 673L379 669L381 669L387 663L384 661L384 654L387 646L385 644L387 640L398 640L404 638L404 636L408 633L413 636L422 634L422 632L428 625L428 617L431 617L426 609L424 611L422 610L418 607L419 605L413 601L414 598L412 596L416 590L412 586L413 583L394 581L388 575L390 563L386 562L383 564L380 562L380 560L376 563L373 563L372 550L376 536L380 531L379 527L382 526L384 520L387 519L390 522L390 517L387 516L389 515L387 512L388 510L395 511L396 508L399 508L401 515L398 522L399 523L397 523L397 525L400 525L401 523L405 524L405 520L412 514L411 511L405 508L408 507L406 505L407 502L404 502L404 495L400 491L403 487L414 487L415 489L422 488L428 490L427 499L418 505L418 514L416 516L418 520L416 521L412 528L414 532L413 534L418 544L421 532L420 528L423 523L423 517L427 506L431 504L436 507L440 505L442 506L446 519L444 520L441 527L439 527L438 529L440 533L442 533L434 548L437 550L442 551L446 547L448 549L450 548L450 550L457 549L459 539L462 540L462 538L470 536L468 535L470 531L469 530L467 530L465 533L464 524L471 520L477 520L481 523L477 533L479 533L479 531L488 532L489 535L492 537L487 542L487 545L490 547L489 549L485 550L483 553L487 554L487 559L479 560L479 563L477 564L471 561L466 566L465 569L458 571L455 577L448 578L449 580L445 581L450 586L450 589L446 596L446 602L443 601L441 604L439 602L434 604L435 608L433 613L436 613L437 616L440 616L442 620L447 615L451 621L449 624L446 624L444 626L442 624L436 625L436 627L433 626L431 628L432 632L434 630L439 631L439 635L437 638L440 639L443 646L445 647L450 644L451 646L457 644L459 645L458 646L464 654L470 652L471 653L473 652L473 650L476 651L478 649L485 653L490 651L491 649L488 645L490 643L489 640L492 633L495 635L496 633L498 633L499 635L501 635L501 637L504 638L512 629L514 629L513 627L519 627L521 620L523 621L524 625L526 625L529 622L528 615L531 609L529 608L529 606L524 605L524 602L518 600L517 595L515 593L518 591z"/></g></svg>