<svg xmlns="http://www.w3.org/2000/svg" class="leaflet-zoom-animated" width="2634" height="842" viewBox="-417 -133 2634 842" style="transform: translate3d(-417px, -133px, 0px);"><g><path class="class-3 leaflet-clickable" stroke-linejoin="round" stroke-linecap="round" fill-rule="evenodd" stroke="#005540" stroke-opacity="1" stroke-width="0.5" fill="#086" fill-opacity="0.5" d="M945 435L949 441L953 441L955 446L960 450L959 451L962 452L960 452L963 454L969 454L968 460L972 464L972 471L973 470L974 473L978 475L977 480L974 484L975 485L971 487L970 491L966 493L961 487L959 488L949 484L941 484L933 478L909 470L910 469L905 465L901 464L892 455L884 452L885 448L891 445L891 439L893 438L897 438L897 440L899 441L915 441L917 443L918 442L918 444L919 441L917 441L916 439L915 432L918 433L920 431L923 434L922 437L927 444L933 438L937 438L941 434L944 436z"/></g><g><path class="class-3 leaflet-clickable" stroke-linejoin="round" stroke-linecap="round" fill-rule="evenodd" stroke="#005540" stroke-opacity="1" stroke-width="0.5" fill="#086" fill-opacity="0.5" d="M1073 473L1067 489L1069 492L1068 496L1070 500L1064 497L1054 495L1042 496L1037 501L1033 501L1023 506L1022 505L1019 508L1010 508L1001 505L998 502L984 501L974 494L967 493L971 490L970 487L975 485L974 484L977 481L977 477L979 475L974 474L973 470L972 471L972 464L968 460L969 456L973 454L974 455L976 453L980 453L983 455L985 452L984 451L983 453L982 448L987 445L989 452L996 448L1001 449L1008 443L1009 437L1015 440L1020 449L1028 449L1029 454L1027 459L1031 463L1034 464L1040 459L1042 459L1043 460L1041 462L1045 467L1050 470L1049 471L1068 473z"/></g><g><path class="class-3 leaflet-clickable" stroke-linejoin="round" stroke-linecap="round" fill-rule="evenodd" stroke="#005540" stroke-opacity="1" stroke-width="0.5" fill="#086" fill-opacity="0.5" d="M1128 470L1131 473L1132 472L1132 474L1136 476L1135 477L1140 481L1145 483L1146 488L1152 491L1151 498L1122 498L1111 518L1114 522L1111 527L1112 531L1110 535L1082 507L1074 501L1069 500L1067 496L1069 495L1069 492L1067 489L1073 473L1081 466L1081 464L1085 460L1084 458L1087 453L1090 455L1090 457L1092 457L1091 459L1094 465L1095 464L1097 466L1096 467L1097 466L1099 468L1103 463L1108 462L1107 461L1113 458L1113 456L1116 454L1119 455L1119 459L1123 460L1123 466L1128 467L1129 470z"/></g><g><path class="class-3 leaflet-clickable" stroke-linejoin="round" stroke-linecap="round" fill-rule="evenodd" stroke="#005540" stroke-opacity="1" stroke-width="0.5" fill="#086" fill-opacity="0.5" d="M957 427L960 430L964 428L962 434L963 441L962 442L960 440L955 444L949 441L945 436L950 425L957 427z"/></g><g><path class="class-2 leaflet-clickable" stroke-linejoin="round" stroke-linecap="round" fill-rule="evenodd" stroke="#005540" stroke-opacity="1" stroke-width="0.5" fill="#00cc99" fill-opacity="0.5" d="M984 349L986 357L994 366L992 372L993 378L1000 392L1007 398L1014 407L1017 419L1022 424L1022 426L1025 427L1027 432L1032 435L1041 435L1051 440L1058 449L1067 447L1068 456L1076 460L1078 463L1078 470L1076 470L1073 473L1049 472L1050 470L1045 467L1041 462L1043 460L1042 459L1040 459L1034 464L1031 464L1027 459L1029 454L1028 449L1020 449L1021 448L1020 449L1018 447L1013 438L1009 437L1008 444L1006 440L1002 439L1000 441L997 437L994 436L996 431L995 428L1002 422L993 419L994 418L992 416L992 414L995 411L995 407L999 401L992 398L989 402L985 400L986 397L984 395L985 393L986 394L989 392L986 391L984 384L982 384L981 390L979 391L977 388L976 391L971 395L966 396L967 395L965 392L968 390L969 387L967 388L971 383L971 385L973 385L974 380L976 378L972 376L973 375L970 376L967 373L968 370L967 371L964 365L969 361L966 356L968 357L969 353L972 350L964 346L970 346L973 344L979 347L982 351L983 349z"/></g><g><path class="class-2 leaflet-clickable" stroke-linejoin="round" stroke-linecap="round" fill-rule="evenodd" stroke="#005540" stroke-opacity="1" stroke-width="0.5" fill="#00cc99" fill-opacity="0.5" d="M1221 443L1222 440L1222 442z"/></g><g><path class="class-2 leaflet-clickable" stroke-linejoin="round" stroke-linecap="round" fill-rule="evenodd" stroke="#005540" stroke-opacity="1" stroke-width="0.5" fill="#00cc99" fill-opacity="0.5" d="M1223 435L1223 437L1223 435z"/></g><g><path class="class-2 leaflet-clickable" stroke-linejoin="round" stroke-linecap="round" fill-rule="evenodd" stroke="#005540" stroke-opacity="1" stroke-width="0.5" fill="#00cc99" fill-opacity="0.5" d="M1235 391L1229 398L1229 394L1231 391L1236 390z"/></g><g><path class="class-2 leaflet-clickable" stroke-linejoin="round" stroke-linecap="round" fill-rule="evenodd" stroke="#005540" stroke-opacity="1" stroke-width="0.5" fill="#00cc99" fill-opacity="0.5" d="M1180 454L1179 450L1181 449L1181 425L1180 418L1177 415L1180 413L1181 414L1181 412L1183 412L1183 410L1188 407L1188 405L1191 404L1192 401L1195 401L1197 398L1203 397L1207 394L1214 386L1217 380L1217 368L1224 370L1227 369L1228 366L1233 373L1233 370L1234 371L1234 379L1231 385L1219 399L1219 409L1218 410L1219 406L1218 409L1212 412L1214 416L1219 413L1220 414L1219 418L1214 420L1214 424L1217 421L1219 421L1217 423L1209 449L1206 449L1206 443L1201 443L1201 441L1195 441L1193 447L1190 449L1187 455L1183 452L1181 454z"/></g><g><path class="class-2 leaflet-clickable" stroke-linejoin="round" stroke-linecap="round" fill-rule="evenodd" stroke="#005540" stroke-opacity="1" stroke-width="0.5" fill="#00cc99" fill-opacity="0.5" d="M1227 365L1225 367L1220 368L1222 366L1226 366z"/></g><g><path class="class-2 leaflet-clickable" stroke-linejoin="round" stroke-linecap="round" fill-rule="evenodd" stroke="#005540" stroke-opacity="1" stroke-width="0.5" fill="#00cc99" fill-opacity="0.5" d="M1008 443L1004 447L999 449L996 448L991 452L989 452L987 446L983 446L983 453L985 451L986 452L984 452L981 455L979 453L975 453L975 455L970 456L969 453L965 454L955 446L955 444L958 441L963 442L962 434L965 428L964 417L966 417L975 426L978 423L981 425L983 422L987 421L984 417L981 416L982 415L980 413L978 413L978 411L973 412L974 411L972 408L977 401L975 398L972 398L975 397L981 390L982 384L985 385L985 389L989 392L984 395L986 397L985 400L989 402L992 398L998 401L992 416L994 418L993 419L1002 422L1000 424L1001 425L997 424L994 437L995 436L1000 441L1004 439L1008 443z"/></g><g><path class="class-2 leaflet-clickable" stroke-linejoin="round" stroke-linecap="round" fill-rule="evenodd" stroke="#005540" stroke-opacity="1" stroke-width="0.5" fill="#00cc99" fill-opacity="0.5" d="M710 302L708 302L708 297L710 301z"/></g><g><path class="class-2 leaflet-clickable" stroke-linejoin="round" stroke-linecap="round" fill-rule="evenodd" stroke="#005540" stroke-opacity="1" stroke-width="0.5" fill="#00cc99" fill-opacity="0.5" d="M698 293L698 296L697 293z"/></g><g><path class="class-2 leaflet-clickable" stroke-linejoin="round" stroke-linecap="round" fill-rule="evenodd" stroke="#005540" stroke-opacity="1" stroke-width="0.5" fill="#00cc99" fill-opacity="0.5" d="M697 291L697 292z"/></g><g><path class="class-2 leaflet-clickable" stroke-linejoin="round" stroke-linecap="round" fill-rule="evenodd" stroke="#005540" stroke-opacity="1" stroke-width="0.5" fill="#00cc99" fill-opacity="0.5" d="M690 279L693 281L694 284L690 280z"/></g><g><path class="class-2 leaflet-clickable" stroke-linejoin="round" stroke-linecap="round" fill-rule="evenodd" stroke="#005540" stroke-opacity="1" stroke-width="0.5" fill="#00cc99" fill-opacity="0.5" d="M690 273L689 275L690 273z"/></g><g><path class="class-2 leaflet-clickable" stroke-linejoin="round" stroke-linecap="round" fill-rule="evenodd" stroke="#005540" stroke-opacity="1" stroke-width="0.5" fill="#00cc99" fill-opacity="0.5" d="M688 263L689 266L688 264z"/></g><g><path class="class-2 leaflet-clickable" stroke-linejoin="round" stroke-linecap="round" fill-rule="evenodd" stroke="#005540" stroke-opacity="1" stroke-width="0.5" fill="#00cc99" fill-opacity="0.5" d="M682 263L682 265L682 263z"/></g><g><path class="class-2 leaflet-clickable" stroke-linejoin="round" stroke-linecap="round" fill-rule="evenodd" stroke="#005540" stroke-opacity="1" stroke-width="0.5" fill="#00cc99" fill-opacity="0.5" d="M682 254L682 256L680 256L678 260L679 261L678 258L679 255L681 255z"/></g><g><path class="class-2 leaflet-clickable" stroke-linejoin="round" stroke-linecap="round" fill-rule="evenodd" stroke="#005540" stroke-opacity="1" stroke-width="0.5" fill="#00cc99" fill-opacity="0.5" d="M677 252L677 252z"/></g><g><path class="class-2 leaflet-clickable" stroke-linejoin="round" stroke-linecap="round" fill-rule="evenodd" stroke="#005540" stroke-opacity="1" stroke-width="0.5" fill="#00cc99" fill-opacity="0.5" d="M659 224L659 226L658 224z"/></g><g><path class="class-2 leaflet-clickable" stroke-linejoin="round" stroke-linecap="round" fill-rule="evenodd" stroke="#005540" stroke-opacity="1" stroke-width="0.5" fill="#00cc99" fill-opacity="0.5" d="M662 219L661 219z"/></g><g><path class="class-2 leaflet-clickable" stroke-linejoin="round" stroke-linecap="round" fill-rule="evenodd" stroke="#005540" stroke-opacity="1" stroke-width="0.5" fill="#00cc99" fill-opacity="0.5" d="M588 208L588 208z"/></g><g><path class="class-2 leaflet-clickable" stroke-linejoin="round" stroke-linecap="round" fill-rule="evenodd" stroke="#005540" stroke-opacity="1" stroke-width="0.5" fill="#00cc99" fill-opacity="0.5" d="M610 205L643 205L645 212L653 218L656 224L655 225L662 229L660 230L660 232L662 234L664 233L667 235L670 241L673 243L672 244L676 254L676 262L681 268L683 268L684 274L691 285L689 293L692 300L698 302L698 298L701 298L706 302L706 305L710 306L710 308L713 311L713 314L718 317L719 324L715 329L706 334L703 330L701 320L697 316L693 314L681 302L671 297L666 298L656 290L656 287L653 286L658 274L658 261L652 250L645 248L630 236L628 235L625 238L618 231L614 231L611 227L607 227L604 224L603 220L590 209L591 208L603 211L609 208L610 206z"/></g><g><path class="class-2 leaflet-clickable" stroke-linejoin="round" stroke-linecap="round" fill-rule="evenodd" stroke="#005540" stroke-opacity="1" stroke-width="0.5" fill="#00cc99" fill-opacity="0.5" d="M925 397L929 399L928 401L931 404L930 405L932 408L930 408L928 412L929 419L926 420L924 426L918 433L915 432L916 439L919 441L919 444L915 441L912 442L910 440L904 439L900 441L894 438L891 439L890 441L891 446L884 449L884 455L854 445L848 436L854 429L859 428L862 430L865 427L865 425L866 426L866 424L871 422L872 423L874 421L875 417L871 417L872 415L869 410L871 408L870 406L864 405L864 402L867 401L866 400L871 401L877 396L884 395L888 395L887 396L889 396L891 400L895 400L896 397L900 396L900 398L903 399L901 399L901 402L903 404L907 404L907 402L909 402L912 406L922 406L925 405L924 402L926 398z"/></g><g><path class="class-2 leaflet-clickable" stroke-linejoin="round" stroke-linecap="round" fill-rule="evenodd" stroke="#005540" stroke-opacity="1" stroke-width="0.5" fill="#00cc99" fill-opacity="0.5" d="M964 417L963 414L969 414L972 412L971 411L977 411L982 415L982 417L984 417L987 420L986 422L983 421L981 424L978 423L975 426L968 420L967 417L965 418z"/></g><g><path class="class-2 leaflet-clickable" stroke-linejoin="round" stroke-linecap="round" fill-rule="evenodd" stroke="#005540" stroke-opacity="1" stroke-width="0.5" fill="#00cc99" fill-opacity="0.5" d="M1152 384L1152 391L1156 391L1157 394L1160 393L1165 397L1164 398L1170 404L1173 412L1180 418L1180 457L1139 457L1139 453L1129 451L1126 449L1127 448L1124 451L1124 455L1112 449L1112 444L1108 442L1105 438L1108 436L1116 436L1119 438L1136 428L1145 420L1145 412L1151 405L1150 391L1152 384z"/></g><g><path class="class-2 leaflet-clickable" stroke-linejoin="round" stroke-linecap="round" fill-rule="evenodd" stroke="#005540" stroke-opacity="1" stroke-width="0.5" fill="#00cc99" fill-opacity="0.5" d="M939 368L938 371L939 373L941 373L937 376L933 375L934 376L932 382L923 382L920 385L922 393L926 398L924 402L925 405L912 406L909 402L907 402L907 404L903 404L901 402L901 400L903 399L900 398L900 396L898 396L895 399L889 399L889 397L886 394L889 391L886 384L889 382L893 374L896 373L895 370L897 370L896 367L898 363L897 362L899 360L905 360L907 362L909 361L917 367L923 367L924 363L926 363L936 369L938 368z"/></g><g><path class="class-2 leaflet-clickable" stroke-linejoin="round" stroke-linecap="round" fill-rule="evenodd" stroke="#005540" stroke-opacity="1" stroke-width="0.5" fill="#00cc99" fill-opacity="0.5" d="M937 398L942 401L945 400L945 407L948 409L947 410L951 407L951 405L956 405L956 403L957 409L959 407L962 407L965 410L963 414L965 418L965 428L960 430L957 427L957 421L955 419L954 414L948 421L950 425L949 430L946 431L947 433L944 436L940 434L941 435L939 435L937 438L933 438L927 444L923 439L924 438L922 437L923 434L920 431L929 418L927 412L930 411L930 403L934 403L934 399L936 398z"/></g><g><path class="class-2 leaflet-clickable" stroke-linejoin="round" stroke-linecap="round" fill-rule="evenodd" stroke="#005540" stroke-opacity="1" stroke-width="0.5" fill="#00cc99" fill-opacity="0.5" d="M1217 368L1217 380L1214 386L1203 398L1197 398L1191 404L1189 404L1188 407L1186 407L1187 408L1181 414L1180 413L1177 415L1174 413L1170 407L1170 404L1167 400L1165 400L1161 393L1158 394L1153 391L1152 384L1154 379L1164 374L1190 370L1194 367L1199 367L1202 365L1217 368z"/></g><g><path class="class-2 leaflet-clickable" stroke-linejoin="round" stroke-linecap="round" fill-rule="evenodd" stroke="#005540" stroke-opacity="1" stroke-width="0.5" fill="#00cc99" fill-opacity="0.5" d="M1167 341L1171 344L1169 346L1166 343L1167 341z"/></g><g><path class="class-2 leaflet-clickable" stroke-linejoin="round" stroke-linecap="round" fill-rule="evenodd" stroke="#005540" stroke-opacity="1" stroke-width="0.5" fill="#00cc99" fill-opacity="0.5" d="M1139 457L1139 470L1128 470L1129 467L1123 465L1124 462L1120 459L1120 455L1116 455L1109 460L1108 459L1108 461L1106 463L1102 463L1102 465L1099 468L1097 466L1096 467L1097 466L1095 464L1093 464L1091 459L1092 456L1090 456L1091 455L1088 453L1085 454L1085 460L1081 464L1079 469L1077 467L1079 463L1077 463L1073 458L1068 456L1069 452L1067 448L1083 442L1096 442L1099 440L1099 438L1104 437L1107 442L1111 442L1112 449L1116 452L1124 456L1124 450L1127 448L1127 450L1133 453L1139 453L1139 455z"/></g><g><path class="class-2 leaflet-clickable" stroke-linejoin="round" stroke-linecap="round" fill-rule="evenodd" stroke="#005540" stroke-opacity="1" stroke-width="0.5" fill="#00cc99" fill-opacity="0.5" d="M598 444L598 444z"/></g><g><path class="class-2 leaflet-clickable" stroke-linejoin="round" stroke-linecap="round" fill-rule="evenodd" stroke="#005540" stroke-opacity="1" stroke-width="0.5" fill="#00cc99" fill-opacity="0.5" d="M683 432L685 434L684 435L682 433L683 432z"/></g><g><path class="class-2 leaflet-clickable" stroke-linejoin="round" stroke-linecap="round" fill-rule="evenodd" stroke="#005540" stroke-opacity="1" stroke-width="0.5" fill="#00cc99" fill-opacity="0.5" d="M854 429L848 436L834 426L827 424L828 425L831 422L832 423L840 421L839 420L841 416L846 419L850 416L854 420L854 429z"/></g><g><path class="class-2 leaflet-clickable" stroke-linejoin="round" stroke-linecap="round" fill-rule="evenodd" stroke="#005540" stroke-opacity="1" stroke-width="0.5" fill="#00cc99" fill-opacity="0.5" d="M687 422L687 421z"/></g><g><path class="class-2 leaflet-clickable" stroke-linejoin="round" stroke-linecap="round" fill-rule="evenodd" stroke="#005540" stroke-opacity="1" stroke-width="0.5" fill="#00cc99" fill-opacity="0.5" d="M979 392L975 397L972 398L976 399L976 401L972 407L974 410L971 411L972 412L970 414L964 414L965 409L962 407L958 407L957 409L956 406L958 404L956 403L956 405L953 404L951 408L949 408L948 410L948 408L945 405L945 400L942 401L937 398L937 391L942 390L944 388L948 379L947 378L955 376L957 372L958 375L964 376L964 372L968 370L967 373L970 376L973 375L972 376L974 376L976 379L973 383L974 385L969 384L966 388L968 387L966 396L971 395L977 389L979 391z"/></g><g><path class="class-1 leaflet-clickable" stroke-linejoin="round" stroke-linecap="round" fill-rule="evenodd" stroke="#005540" stroke-opacity="1" stroke-width="0.5" fill="#7fd" fill-opacity="0.5" d="M579 197L578 197z"/></g><g><path class="class-1 leaflet-clickable" stroke-linejoin="round" stroke-linecap="round" fill-rule="evenodd" stroke="#005540" stroke-opacity="1" stroke-width="0.5" fill="#7fd" fill-opacity="0.5" d="M587 195L589 201L588 204L584 202L587 199L587 196z"/></g><g><path class="class-1 leaflet-clickable" stroke-linejoin="round" stroke-linecap="round" fill-rule="evenodd" stroke="#005540" stroke-opacity="1" stroke-width="0.5" fill="#7fd" fill-opacity="0.5" d="M640 187L643 189L642 190L641 188z"/></g><g><path class="class-1 leaflet-clickable" stroke-linejoin="round" stroke-linecap="round" fill-rule="evenodd" stroke="#005540" stroke-opacity="1" stroke-width="0.5" fill="#7fd" fill-opacity="0.5" d="M626 176L626 177z"/></g><g><path class="class-1 leaflet-clickable" stroke-linejoin="round" stroke-linecap="round" fill-rule="evenodd" stroke="#005540" stroke-opacity="1" stroke-width="0.5" fill="#7fd" fill-opacity="0.5" d="M626 165L629 167L629 170L631 172L634 171L634 179L624 168L625 165z"/></g><g><path class="class-1 leaflet-clickable" stroke-linejoin="round" stroke-linecap="round" fill-rule="evenodd" stroke="#005540" stroke-opacity="1" stroke-width="0.5" fill="#7fd" fill-opacity="0.5" d="M516 174L518 177L517 182L515 177L516 174z"/></g><g><path class="class-1 leaflet-clickable" stroke-linejoin="round" stroke-linecap="round" fill-rule="evenodd" stroke="#005540" stroke-opacity="1" stroke-width="0.5" fill="#7fd" fill-opacity="0.5" d="M605 153L605 154z"/></g><g><path class="class-1 leaflet-clickable" stroke-linejoin="round" stroke-linecap="round" fill-rule="evenodd" stroke="#005540" stroke-opacity="1" stroke-width="0.5" fill="#7fd" fill-opacity="0.5" d="M598 112L598 112z"/></g><g><path class="class-1 leaflet-clickable" stroke-linejoin="round" stroke-linecap="round" fill-rule="evenodd" stroke="#005540" stroke-opacity="1" stroke-width="0.5" fill="#7fd" fill-opacity="0.5" d="M598 105L600 107L599 108L597 108L597 105z"/></g><g><path class="class-1 leaflet-clickable" stroke-linejoin="round" stroke-linecap="round" fill-rule="evenodd" stroke="#005540" stroke-opacity="1" stroke-width="0.5" fill="#7fd" fill-opacity="0.5" d="M596 86L593 88L591 93L593 95L593 102L596 103L597 105L597 110L595 113L595 123L599 129L599 137L601 142L600 149L606 157L606 159L609 159L623 172L626 182L628 180L630 184L633 184L635 191L641 195L640 197L642 199L642 205L610 205L613 201L612 198L614 194L612 190L607 186L607 184L604 181L602 181L601 177L598 176L598 174L576 159L577 157L574 153L574 146L568 140L569 134L563 127L562 128L561 119L554 112L555 109L553 106L554 107L555 104L549 99L549 96L544 88L544 85L598 80L596 86z"/></g><g><path class="class-1 leaflet-clickable" stroke-linejoin="round" stroke-linecap="round" fill-rule="evenodd" stroke="#005540" stroke-opacity="1" stroke-width="0.5" fill="#7fd" fill-opacity="0.5" d="M871 362L873 361L881 365L891 358L892 357L890 357L892 355L894 355L899 361L897 361L898 362L896 367L898 370L896 370L896 372L893 374L893 376L886 385L889 388L886 394L884 396L878 396L869 402L868 400L864 402L864 405L866 404L871 407L871 409L869 410L872 415L871 416L876 417L873 423L871 422L867 424L862 430L860 428L854 429L854 421L850 416L846 419L841 416L839 421L832 423L831 422L828 425L824 423L824 421L823 422L820 420L818 415L816 415L808 404L804 394L812 392L814 390L813 388L815 385L816 386L818 382L823 380L830 382L837 390L836 385L834 385L838 381L837 376L847 374L846 373L849 370L844 365L845 363L843 361L839 361L838 357L834 355L836 347L838 345L839 346L838 343L841 344L840 347L844 344L841 339L842 337L848 339L848 341L845 342L846 343L844 347L846 351L846 347L849 341L852 343L849 352L850 353L854 353L856 350L858 350L857 347L859 345L861 347L860 348L864 350L862 356L858 356L854 360L852 360L854 362L853 365L849 367L849 369L853 369L854 371L849 373L851 373L852 377L862 379L864 374L867 375L871 371L872 372L874 368L870 365L871 363z"/></g><g><path class="class-1 leaflet-clickable" stroke-linejoin="round" stroke-linecap="round" fill-rule="evenodd" stroke="#005540" stroke-opacity="1" stroke-width="0.5" fill="#7fd" fill-opacity="0.5" d="M957 427L953 427L948 423L953 414L957 421L957 426z"/></g><g><path class="class-1 leaflet-clickable" stroke-linejoin="round" stroke-linecap="round" fill-rule="evenodd" stroke="#005540" stroke-opacity="1" stroke-width="0.5" fill="#7fd" fill-opacity="0.5" d="M984 349L982 351L974 344L972 344L971 346L964 345L962 347L955 345L953 346L945 337L944 341L941 339L937 339L936 337L931 337L933 335L931 332L933 330L931 328L932 323L930 323L932 321L935 322L934 317L937 312L943 312L945 309L945 307L941 303L943 296L940 294L940 292L944 291L945 288L949 286L951 287L953 283L952 281L955 278L958 279L969 270L966 269L966 255L960 255L958 257L956 253L953 255L952 249L950 250L946 247L947 241L941 239L943 234L939 233L941 229L939 219L935 218L935 216L940 213L944 216L946 230L950 234L954 246L956 245L958 247L963 248L963 250L969 250L974 255L987 255L992 260L994 259L993 258L998 257L998 263L991 276L986 294L984 336L982 339L983 348z"/></g><g><path class="class-1 leaflet-clickable" stroke-linejoin="round" stroke-linecap="round" fill-rule="evenodd" stroke="#005540" stroke-opacity="1" stroke-width="0.5" fill="#7fd" fill-opacity="0.5" d="M648 186L647 188L647 186z"/></g><g><path class="class-1 leaflet-clickable" stroke-linejoin="round" stroke-linecap="round" fill-rule="evenodd" stroke="#005540" stroke-opacity="1" stroke-width="0.5" fill="#7fd" fill-opacity="0.5" d="M654 173L656 179L653 186L648 182L649 175L653 173z"/></g><g><path class="class-1 leaflet-clickable" stroke-linejoin="round" stroke-linecap="round" fill-rule="evenodd" stroke="#005540" stroke-opacity="1" stroke-width="0.5" fill="#7fd" fill-opacity="0.5" d="M599 106L601 106L600 107z"/></g><g><path class="class-1 leaflet-clickable" stroke-linejoin="round" stroke-linecap="round" fill-rule="evenodd" stroke="#005540" stroke-opacity="1" stroke-width="0.5" fill="#7fd" fill-opacity="0.5" d="M596 86L676 115L681 118L734 118L733 120L731 120L732 123L735 125L734 126L736 126L733 126L733 129L730 129L730 132L732 135L731 136L738 141L737 144L739 145L737 145L737 158L739 158L739 160L736 160L737 166L735 168L735 182L738 186L740 196L728 198L727 202L731 209L730 210L734 213L736 217L738 222L736 224L739 231L742 231L736 239L736 241L734 241L731 244L731 246L723 248L723 244L721 241L716 238L711 238L707 229L699 227L695 223L692 223L693 209L691 207L690 208L686 206L686 208L684 208L684 206L678 204L672 195L668 193L662 186L663 184L656 180L656 173L654 170L653 171L651 169L652 167L648 162L646 156L643 155L643 148L635 134L636 122L630 119L623 118L623 114L618 110L610 113L601 106L594 103L592 96L593 95L591 93L593 91L593 87L596 87zM687 205L687 206z"/></g><g><path class="class-1 leaflet-clickable" stroke-linejoin="round" stroke-linecap="round" fill-rule="evenodd" stroke="#005540" stroke-opacity="1" stroke-width="0.5" fill="#7fd" fill-opacity="0.5" d="M931 325L933 329L931 331L933 335L931 337L936 337L944 341L945 337L953 346L966 346L972 350L966 357L968 357L968 361L964 365L967 368L967 370L963 372L965 372L964 376L960 376L957 372L954 373L952 364L947 370L945 370L941 366L939 366L939 368L936 369L927 363L925 363L923 367L919 368L915 366L912 362L899 360L903 355L903 351L901 348L904 344L902 339L903 338L900 337L898 341L897 340L896 343L893 344L891 342L891 339L889 340L884 335L882 330L883 328L881 325L883 323L881 323L883 320L885 322L893 320L906 308L906 302L909 301L910 296L912 299L917 295L920 296L919 301L922 303L922 326L925 327L925 324L926 325L927 323L929 323L928 325L930 325z"/></g><g><path class="class-0 leaflet-clickable" stroke-linejoin="round" stroke-linecap="round" fill-rule="evenodd" stroke="#005540" stroke-opacity="1" stroke-width="0.5" fill="#ddfff6" fill-opacity="0.5" d="M955 373L954 376L950 378L949 376L944 386L945 388L937 391L937 398L935 397L935 402L931 404L928 401L928 398L926 398L922 394L920 385L923 382L931 382L932 379L933 380L933 375L939 375L941 373L938 372L940 366L947 370L952 364L954 373z"/></g><g><path class="class-0 leaflet-clickable" stroke-linejoin="round" stroke-linecap="round" fill-rule="evenodd" stroke="#005540" stroke-opacity="1" stroke-width="0.5" fill="#ddfff6" fill-opacity="0.5" d="M723 248L727 248L732 244L733 241L737 239L741 229L747 230L746 233L748 233L751 236L751 245L757 253L766 253L768 256L767 258L773 262L773 264L775 264L772 267L770 267L771 270L769 271L771 275L771 280L773 280L776 286L781 289L784 295L783 296L786 299L789 299L789 297L795 299L797 305L800 308L798 308L799 316L802 317L804 321L803 322L805 324L805 328L811 329L808 333L808 340L809 339L810 342L809 343L805 341L804 344L786 325L785 321L779 315L774 307L756 294L740 274L727 269L724 265L720 265L718 257L723 248z"/></g><g><path class="class-0 leaflet-clickable" stroke-linejoin="round" stroke-linecap="round" fill-rule="evenodd" stroke="#005540" stroke-opacity="1" stroke-width="0.5" fill="#ddfff6" fill-opacity="0.5" d="M849 238L857 241L859 249L857 252L858 261L854 268L858 272L855 272L854 275L860 281L859 282L866 287L868 287L873 279L877 294L876 296L873 297L869 297L868 295L858 295L846 306L847 315L845 315L845 317L842 319L839 326L838 331L840 336L836 337L836 344L831 347L827 342L825 342L825 340L823 340L821 343L819 341L818 339L822 337L819 333L820 332L812 332L810 328L807 329L805 327L803 322L804 321L801 316L799 317L798 308L800 309L798 307L797 302L792 297L789 297L789 299L785 299L781 289L771 280L769 271L771 269L770 268L775 265L774 264L777 267L781 267L786 263L784 264L784 258L787 257L786 254L791 246L793 236L794 237L796 234L798 237L799 236L802 239L803 238L809 243L817 243L818 245L824 243L829 247L837 235L841 237L846 237z"/></g><g><path class="class-0 leaflet-clickable" stroke-linejoin="round" stroke-linecap="round" fill-rule="evenodd" stroke="#005540" stroke-opacity="1" stroke-width="0.5" fill="#ddfff6" fill-opacity="0.5" d="M937 211L933 215L929 210L925 213L924 220L918 222L914 226L915 229L921 229L921 235L919 239L918 240L916 237L906 247L915 258L914 261L918 267L921 268L919 268L923 271L923 273L928 273L928 276L917 275L915 277L915 281L917 283L915 285L914 292L912 293L904 286L898 288L896 286L897 285L883 278L877 278L878 281L873 279L868 288L859 282L860 281L854 275L854 273L856 271L857 272L854 268L858 262L857 252L859 249L857 241L849 238L849 236L846 233L848 230L844 210L845 209L843 209L843 206L845 206L845 203L851 192L850 191L858 179L862 180L863 177L867 173L868 174L867 172L869 170L870 164L874 159L878 159L881 156L892 159L900 158L902 162L904 162L904 164L905 163L905 165L918 176L922 188L926 193L925 194L937 210z"/></g><g><path class="class-0 leaflet-clickable" stroke-linejoin="round" stroke-linecap="round" fill-rule="evenodd" stroke="#005540" stroke-opacity="1" stroke-width="0.5" fill="#ddfff6" fill-opacity="0.5" d="M937 211L940 213L935 216L935 218L939 219L941 228L939 233L943 234L941 238L947 241L946 247L950 250L952 249L953 255L956 253L958 257L960 255L966 255L966 269L969 269L959 279L955 278L952 281L952 287L949 286L945 288L944 291L940 292L940 294L942 294L943 296L941 303L946 309L943 312L937 312L934 317L935 322L932 321L930 323L932 323L931 325L928 325L929 323L927 323L926 325L925 324L926 327L923 326L923 313L921 310L922 304L919 302L920 297L915 292L915 285L917 283L915 282L915 277L917 275L928 276L928 274L924 273L919 268L921 268L916 265L913 254L906 247L916 237L918 240L919 239L921 235L921 229L915 229L914 226L918 222L924 220L925 213L929 210L933 214L935 213z"/></g><g><path class="class-0 leaflet-clickable" stroke-linejoin="round" stroke-linecap="round" fill-rule="evenodd" stroke="#005540" stroke-opacity="1" stroke-width="0.5" fill="#ddfff6" fill-opacity="0.5" d="M891 355L890 356L892 358L887 359L883 364L879 364L873 361L870 362L868 360L873 352L873 348L879 347L881 345L885 347L884 348L887 348L887 352L891 355z"/></g><g><path class="class-0 leaflet-clickable" stroke-linejoin="round" stroke-linecap="round" fill-rule="evenodd" stroke="#005540" stroke-opacity="1" stroke-width="0.5" fill="#ddfff6" fill-opacity="0.5" d="M792 371L791 371z"/></g><g><path class="class-0 leaflet-clickable" stroke-linejoin="round" stroke-linecap="round" fill-rule="evenodd" stroke="#005540" stroke-opacity="1" stroke-width="0.5" fill="#ddfff6" fill-opacity="0.5" d="M787 368L789 369L788 370L786 368z"/></g><g><path class="class-0 leaflet-clickable" stroke-linejoin="round" stroke-linecap="round" fill-rule="evenodd" stroke="#005540" stroke-opacity="1" stroke-width="0.5" fill="#ddfff6" fill-opacity="0.5" d="M782 363L784 363L785 366L783 366L782 364z"/></g><g><path class="class-0 leaflet-clickable" stroke-linejoin="round" stroke-linecap="round" fill-rule="evenodd" stroke="#005540" stroke-opacity="1" stroke-width="0.5" fill="#ddfff6" fill-opacity="0.5" d="M782 361L781 362z"/></g><g><path class="class-0 leaflet-clickable" stroke-linejoin="round" stroke-linecap="round" fill-rule="evenodd" stroke="#005540" stroke-opacity="1" stroke-width="0.5" fill="#ddfff6" fill-opacity="0.5" d="M834 346L836 347L834 356L838 356L839 360L843 361L845 363L844 366L849 370L846 373L847 374L837 376L838 381L834 385L837 387L837 389L826 380L817 382L814 388L812 386L807 386L815 376L815 367L814 368L809 364L805 356L805 349L802 343L803 342L803 344L805 341L810 343L808 339L808 333L811 329L812 332L820 332L819 333L822 337L818 339L820 343L824 340L829 344L830 347L834 345z"/></g><g><path class="class-0 leaflet-clickable" stroke-linejoin="round" stroke-linecap="round" fill-rule="evenodd" stroke="#005540" stroke-opacity="1" stroke-width="0.5" fill="#ddfff6" fill-opacity="0.5" d="M915 292L917 295L912 299L910 297L909 301L907 302L906 308L901 313L893 320L888 322L885 322L883 320L881 323L883 323L881 325L885 336L889 340L891 339L891 342L893 344L896 343L900 337L903 338L902 339L904 343L902 344L901 348L903 350L903 355L900 359L899 360L898 358L891 355L887 352L887 348L886 349L881 345L879 347L873 348L873 352L868 359L871 363L871 366L874 368L873 371L871 371L867 375L864 374L864 378L862 379L858 379L851 376L849 372L853 371L853 369L849 369L849 367L853 365L854 362L852 360L862 355L864 350L862 348L861 349L859 345L857 347L858 350L856 350L855 353L849 352L852 349L852 344L851 342L849 342L847 343L846 351L844 347L846 343L845 342L848 341L848 339L845 337L841 338L844 343L841 347L841 343L839 343L837 347L835 346L836 338L840 336L838 331L841 319L846 315L847 316L846 306L850 302L852 302L852 299L854 299L856 295L868 295L871 297L876 296L877 291L873 283L873 280L878 281L877 278L886 279L891 281L893 284L897 285L896 286L898 288L904 286L907 288L908 291L912 293L915 292z"/></g><g><path class="class-0 leaflet-clickable" stroke-linejoin="round" stroke-linecap="round" fill-rule="evenodd" stroke="#005540" stroke-opacity="1" stroke-width="0.5" fill="#ddfff6" fill-opacity="0.5" d="M858 179L850 191L851 192L845 202L845 207L844 206L843 209L845 209L845 223L847 224L848 229L846 234L849 236L849 238L837 235L835 236L836 237L829 247L825 243L819 245L817 243L812 244L811 242L810 243L804 240L803 238L802 239L799 236L798 237L796 234L795 237L793 237L794 238L791 242L791 246L786 253L787 257L784 258L784 264L786 262L782 267L778 267L767 258L768 257L765 252L757 253L755 251L751 245L751 237L748 233L746 233L746 229L740 231L738 230L739 229L738 230L738 227L736 225L738 222L736 219L737 217L735 216L734 212L730 210L732 209L727 202L727 198L740 196L740 192L735 181L736 176L734 174L734 172L736 172L735 168L737 166L736 160L739 159L737 157L737 145L739 146L736 138L732 137L730 133L730 130L733 129L733 126L736 126L734 126L735 125L732 123L733 121L731 121L734 118L747 118L747 106L750 105L787 106L792 113L795 116L797 116L808 128L818 135L820 135L820 137L822 137L823 143L827 148L827 156L830 159L830 161L834 165L838 166L837 167L840 170L847 172L858 179z"/></g></svg>