<svg xmlns="http://www.w3.org/2000/svg" class="leaflet-zoom-animated" width="1975" height="842" viewBox="-268 -208 1975 842" style="transform: translate3d(-268px, -208px, 0px);"><g><path class="class-0 leaflet-clickable" stroke-linejoin="round" stroke-linecap="round" fill-rule="evenodd" stroke="#005540" stroke-opacity="1" stroke-width="0.5" fill="#00cc99" fill-opacity="0.5" d="M373 444L373 444z"/></g><g><path class="class-0 leaflet-clickable" stroke-linejoin="round" stroke-linecap="round" fill-rule="evenodd" stroke="#005540" stroke-opacity="1" stroke-width="0.5" fill="#00cc99" fill-opacity="0.5" d="M996 443L997 440L996 443z"/></g><g><path class="class-0 leaflet-clickable" stroke-linejoin="round" stroke-linecap="round" fill-rule="evenodd" stroke="#005540" stroke-opacity="1" stroke-width="0.5" fill="#00cc99" fill-opacity="0.5" d="M998 435L998 437L998 435z"/></g><g><path class="class-0 leaflet-clickable" stroke-linejoin="round" stroke-linecap="round" fill-rule="evenodd" stroke="#005540" stroke-opacity="1" stroke-width="0.5" fill="#00cc99" fill-opacity="0.5" d="M458 432L460 434L459 435L457 433L458 432z"/></g><g><path class="class-0 leaflet-clickable" stroke-linejoin="round" stroke-linecap="round" fill-rule="evenodd" stroke="#005540" stroke-opacity="1" stroke-width="0.5" fill="#00cc99" fill-opacity="0.5" d="M462 422L462 421z"/></g><g><path class="class-0 leaflet-clickable" stroke-linejoin="round" stroke-linecap="round" fill-rule="evenodd" stroke="#005540" stroke-opacity="1" stroke-width="0.5" fill="#00cc99" fill-opacity="0.5" d="M1010 390L1010 392L1004 398L1004 394L1006 391L1011 390z"/></g><g><path class="class-0 leaflet-clickable" stroke-linejoin="round" stroke-linecap="round" fill-rule="evenodd" stroke="#005540" stroke-opacity="1" stroke-width="0.5" fill="#00cc99" fill-opacity="0.5" d="M926 388L925 388z"/></g><g><path class="class-0 leaflet-clickable" stroke-linejoin="round" stroke-linecap="round" fill-rule="evenodd" stroke="#005540" stroke-opacity="1" stroke-width="0.5" fill="#00cc99" fill-opacity="0.5" d="M884 380L883 380z"/></g><g><path class="class-0 leaflet-clickable" stroke-linejoin="round" stroke-linecap="round" fill-rule="evenodd" stroke="#005540" stroke-opacity="1" stroke-width="0.5" fill="#00cc99" fill-opacity="0.5" d="M1010 374L1011 375L1010 374z"/></g><g><path class="class-0 leaflet-clickable" stroke-linejoin="round" stroke-linecap="round" fill-rule="evenodd" stroke="#005540" stroke-opacity="1" stroke-width="0.5" fill="#00cc99" fill-opacity="0.5" d="M567 371L566 371z"/></g><g><path class="class-0 leaflet-clickable" stroke-linejoin="round" stroke-linecap="round" fill-rule="evenodd" stroke="#005540" stroke-opacity="1" stroke-width="0.5" fill="#00cc99" fill-opacity="0.5" d="M562 368L564 369L563 370L561 368z"/></g><g><path class="class-0 leaflet-clickable" stroke-linejoin="round" stroke-linecap="round" fill-rule="evenodd" stroke="#005540" stroke-opacity="1" stroke-width="0.5" fill="#00cc99" fill-opacity="0.5" d="M1002 365L1000 367L995 368L997 366L1000 367L1002 365z"/></g><g><path class="class-0 leaflet-clickable" stroke-linejoin="round" stroke-linecap="round" fill-rule="evenodd" stroke="#005540" stroke-opacity="1" stroke-width="0.5" fill="#00cc99" fill-opacity="0.5" d="M557 363L559 363L560 366L558 366L557 364z"/></g><g><path class="class-0 leaflet-clickable" stroke-linejoin="round" stroke-linecap="round" fill-rule="evenodd" stroke="#005540" stroke-opacity="1" stroke-width="0.5" fill="#00cc99" fill-opacity="0.5" d="M557 361L556 361z"/></g><g><path class="class-0 leaflet-clickable" stroke-linejoin="round" stroke-linecap="round" fill-rule="evenodd" stroke="#005540" stroke-opacity="1" stroke-width="0.5" fill="#00cc99" fill-opacity="0.5" d="M941 344L941 343z"/></g><g><path class="class-0 leaflet-clickable" stroke-linejoin="round" stroke-linecap="round" fill-rule="evenodd" stroke="#005540" stroke-opacity="1" stroke-width="0.5" fill="#00cc99" fill-opacity="0.5" d="M942 341L945 342L946 344L944 346L941 343L942 341z"/></g><g><path class="class-0 leaflet-clickable" stroke-linejoin="round" stroke-linecap="round" fill-rule="evenodd" stroke="#005540" stroke-opacity="1" stroke-width="0.5" fill="#00cc99" fill-opacity="0.5" d="M485 302L483 302L483 297L485 302z"/></g><g><path class="class-0 leaflet-clickable" stroke-linejoin="round" stroke-linecap="round" fill-rule="evenodd" stroke="#005540" stroke-opacity="1" stroke-width="0.5" fill="#00cc99" fill-opacity="0.5" d="M473 293L474 296L472 294L473 293z"/></g><g><path class="class-0 leaflet-clickable" stroke-linejoin="round" stroke-linecap="round" fill-rule="evenodd" stroke="#005540" stroke-opacity="1" stroke-width="0.5" fill="#00cc99" fill-opacity="0.5" d="M472 291L472 292z"/></g><g><path class="class-0 leaflet-clickable" stroke-linejoin="round" stroke-linecap="round" fill-rule="evenodd" stroke="#005540" stroke-opacity="1" stroke-width="0.5" fill="#00cc99" fill-opacity="0.5" d="M468 285L468 285z"/></g><g><path class="class-0 leaflet-clickable" stroke-linejoin="round" stroke-linecap="round" fill-rule="evenodd" stroke="#005540" stroke-opacity="1" stroke-width="0.5" fill="#00cc99" fill-opacity="0.5" d="M465 279L469 284L465 281L465 279z"/></g><g><path class="class-0 leaflet-clickable" stroke-linejoin="round" stroke-linecap="round" fill-rule="evenodd" stroke="#005540" stroke-opacity="1" stroke-width="0.5" fill="#00cc99" fill-opacity="0.5" d="M465 273L464 275L465 273z"/></g><g><path class="class-0 leaflet-clickable" stroke-linejoin="round" stroke-linecap="round" fill-rule="evenodd" stroke="#005540" stroke-opacity="1" stroke-width="0.5" fill="#00cc99" fill-opacity="0.5" d="M463 263L464 266L463 264z"/></g><g><path class="class-0 leaflet-clickable" stroke-linejoin="round" stroke-linecap="round" fill-rule="evenodd" stroke="#005540" stroke-opacity="1" stroke-width="0.5" fill="#00cc99" fill-opacity="0.5" d="M457 263L457 265L457 263z"/></g><g><path class="class-0 leaflet-clickable" stroke-linejoin="round" stroke-linecap="round" fill-rule="evenodd" stroke="#005540" stroke-opacity="1" stroke-width="0.5" fill="#00cc99" fill-opacity="0.5" d="M452 261L452 261z"/></g><g><path class="class-0 leaflet-clickable" stroke-linejoin="round" stroke-linecap="round" fill-rule="evenodd" stroke="#005540" stroke-opacity="1" stroke-width="0.5" fill="#00cc99" fill-opacity="0.5" d="M457 254L457 256L455 256L453 260L454 261L453 258L454 255L456 255z"/></g><g><path class="class-0 leaflet-clickable" stroke-linejoin="round" stroke-linecap="round" fill-rule="evenodd" stroke="#005540" stroke-opacity="1" stroke-width="0.5" fill="#00cc99" fill-opacity="0.5" d="M452 252L452 252z"/></g><g><path class="class-0 leaflet-clickable" stroke-linejoin="round" stroke-linecap="round" fill-rule="evenodd" stroke="#005540" stroke-opacity="1" stroke-width="0.5" fill="#00cc99" fill-opacity="0.5" d="M434 224L434 226L433 224z"/></g><g><path class="class-0 leaflet-clickable" stroke-linejoin="round" stroke-linecap="round" fill-rule="evenodd" stroke="#005540" stroke-opacity="1" stroke-width="0.5" fill="#00cc99" fill-opacity="0.5" d="M437 219L436 219z"/></g><g><path class="class-0 leaflet-clickable" stroke-linejoin="round" stroke-linecap="round" fill-rule="evenodd" stroke="#005540" stroke-opacity="1" stroke-width="0.5" fill="#00cc99" fill-opacity="0.5" d="M363 208L362 208z"/></g><g><path class="class-0 leaflet-clickable" stroke-linejoin="round" stroke-linecap="round" fill-rule="evenodd" stroke="#005540" stroke-opacity="1" stroke-width="0.5" fill="#00cc99" fill-opacity="0.5" d="M354 197L354 197z"/></g><g><path class="class-0 leaflet-clickable" stroke-linejoin="round" stroke-linecap="round" fill-rule="evenodd" stroke="#005540" stroke-opacity="1" stroke-width="0.5" fill="#00cc99" fill-opacity="0.5" d="M362 195L364 201L363 204L359 202L362 199L362 195z"/></g><g><path class="class-0 leaflet-clickable" stroke-linejoin="round" stroke-linecap="round" fill-rule="evenodd" stroke="#005540" stroke-opacity="1" stroke-width="0.5" fill="#00cc99" fill-opacity="0.5" d="M415 187L418 189L417 190L416 188z"/></g><g><path class="class-0 leaflet-clickable" stroke-linejoin="round" stroke-linecap="round" fill-rule="evenodd" stroke="#005540" stroke-opacity="1" stroke-width="0.5" fill="#00cc99" fill-opacity="0.5" d="M414 187L414 187z"/></g><g><path class="class-0 leaflet-clickable" stroke-linejoin="round" stroke-linecap="round" fill-rule="evenodd" stroke="#005540" stroke-opacity="1" stroke-width="0.5" fill="#00cc99" fill-opacity="0.5" d="M423 186L422 188L422 186z"/></g><g><path class="class-0 leaflet-clickable" stroke-linejoin="round" stroke-linecap="round" fill-rule="evenodd" stroke="#005540" stroke-opacity="1" stroke-width="0.5" fill="#00cc99" fill-opacity="0.5" d="M401 176L401 176z"/></g><g><path class="class-0 leaflet-clickable" stroke-linejoin="round" stroke-linecap="round" fill-rule="evenodd" stroke="#005540" stroke-opacity="1" stroke-width="0.5" fill="#00cc99" fill-opacity="0.5" d="M291 175L293 177L292 182L290 178L292 174z"/></g><g><path class="class-0 leaflet-clickable" stroke-linejoin="round" stroke-linecap="round" fill-rule="evenodd" stroke="#005540" stroke-opacity="1" stroke-width="0.5" fill="#00cc99" fill-opacity="0.5" d="M429 173L431 179L429 184L430 185L428 186L423 182L424 175L428 173z"/></g><g><path class="class-0 leaflet-clickable" stroke-linejoin="round" stroke-linecap="round" fill-rule="evenodd" stroke="#005540" stroke-opacity="1" stroke-width="0.5" fill="#00cc99" fill-opacity="0.5" d="M401 165L404 167L404 170L406 172L409 171L409 179L399 168L401 165z"/></g><g><path class="class-0 leaflet-clickable" stroke-linejoin="round" stroke-linecap="round" fill-rule="evenodd" stroke="#005540" stroke-opacity="1" stroke-width="0.5" fill="#00cc99" fill-opacity="0.5" d="M380 153L381 154L380 153z"/></g><g><path class="class-0 leaflet-clickable" stroke-linejoin="round" stroke-linecap="round" fill-rule="evenodd" stroke="#005540" stroke-opacity="1" stroke-width="0.5" fill="#00cc99" fill-opacity="0.5" d="M373 112L373 112z"/></g><g><path class="class-0 leaflet-clickable" stroke-linejoin="round" stroke-linecap="round" fill-rule="evenodd" stroke="#005540" stroke-opacity="1" stroke-width="0.5" fill="#00cc99" fill-opacity="0.5" d="M375 106L376 107L375 106z"/></g><g><path class="class-0 leaflet-clickable" stroke-linejoin="round" stroke-linecap="round" fill-rule="evenodd" stroke="#005540" stroke-opacity="1" stroke-width="0.5" fill="#00cc99" fill-opacity="0.5" d="M373 105L375 107L374 108L372 108L372 105z"/></g><g><path class="class-0 leaflet-clickable" stroke-linejoin="round" stroke-linecap="round" fill-rule="evenodd" stroke="#005540" stroke-opacity="1" stroke-width="0.5" fill="#00cc99" fill-opacity="0.5" d="M372 83L372 87L451 115L456 118L522 118L522 106L525 105L562 106L567 113L570 116L572 116L583 128L593 135L595 135L595 137L597 137L598 142L602 148L602 156L609 165L613 166L612 167L615 170L622 172L630 178L637 180L638 177L642 173L643 174L642 172L644 170L645 164L649 159L653 159L656 156L665 159L675 158L677 162L679 162L679 164L680 163L680 165L693 176L697 188L701 193L700 194L703 199L708 203L711 209L719 216L721 230L725 234L729 246L731 245L733 247L738 248L738 250L744 250L749 255L762 255L767 260L769 259L768 258L773 257L773 263L766 276L761 294L759 336L757 339L757 346L763 360L769 366L767 374L775 392L782 398L790 409L792 419L797 424L797 426L800 427L803 433L807 435L816 435L822 439L826 439L831 448L833 449L841 448L858 442L871 442L874 440L874 438L883 436L891 436L894 438L911 428L920 420L920 412L926 405L926 387L928 381L934 376L947 372L965 370L969 367L977 365L983 365L997 370L1002 369L1003 366L1008 373L1009 370L1008 373L1010 377L1006 385L994 399L994 409L993 410L994 406L994 408L991 409L989 413L987 413L990 416L994 414L995 415L994 418L989 420L989 424L992 421L994 421L992 423L992 427L990 429L984 449L981 449L981 443L976 443L976 441L970 441L968 447L965 449L962 455L958 452L955 457L914 457L914 470L903 470L906 473L907 472L907 474L911 476L910 477L912 479L920 483L921 488L927 491L926 498L897 498L886 518L889 522L886 527L887 531L885 535L857 507L849 501L839 497L829 495L817 496L812 501L808 501L798 506L797 505L794 508L785 508L776 505L773 502L759 501L749 494L742 493L736 487L734 488L724 484L716 484L708 478L684 470L685 469L680 465L676 464L664 453L657 454L631 446L619 432L595 420L593 415L591 415L583 404L579 394L587 392L589 390L587 386L582 386L590 376L590 367L589 368L585 365L580 357L580 349L577 341L561 325L560 321L554 315L549 307L531 294L515 274L503 270L499 265L495 265L493 257L498 248L498 244L494 239L488 239L485 237L482 229L474 227L470 223L468 223L468 209L466 207L465 208L461 206L461 208L459 208L459 206L453 204L447 195L443 193L437 186L438 184L431 180L431 173L429 170L428 171L426 169L427 167L423 162L421 156L418 155L418 148L410 134L411 122L405 119L398 118L398 114L393 110L386 113L372 104L372 110L370 113L370 123L374 129L374 137L376 142L375 149L377 153L381 157L381 159L384 159L398 172L401 182L403 180L405 184L408 184L410 191L412 193L416 193L415 197L417 199L419 211L428 218L431 224L430 225L437 229L435 230L435 232L437 234L439 233L442 235L445 238L445 242L448 243L447 244L451 254L451 262L456 268L458 268L460 277L466 285L464 289L465 297L468 301L471 302L474 301L474 297L481 303L481 305L485 306L485 308L488 311L488 315L491 316L494 320L494 324L492 327L483 334L481 334L479 332L476 320L472 316L450 299L446 297L441 298L440 296L433 292L431 290L431 287L428 286L433 272L433 261L428 251L420 248L405 236L403 235L400 238L393 231L389 231L386 227L382 227L379 224L378 220L366 211L366 209L378 211L384 208L388 201L387 198L389 194L387 190L382 186L382 184L379 181L377 181L376 177L373 176L373 174L368 169L363 168L361 165L355 163L351 159L352 157L349 153L349 146L343 140L344 134L338 127L337 128L336 119L329 112L330 109L327 106L329 107L330 104L324 99L324 96L319 88L319 85L373 80L373 82zM462 205L462 206z"/></g></svg>