<svg xmlns="http://www.w3.org/2000/svg" class="leaflet-zoom-animated" width="2000" height="844" viewBox="-319 -135 2000 844" style="transform: translate3d(-319px, -135px, 0px);"><g><path class="class-0 leaflet-clickable" stroke-linejoin="round" stroke-linecap="round" fill-rule="evenodd" stroke="#005540" stroke-opacity="1" stroke-width="0.5" fill="#00cc99" fill-opacity="0.5" d="M380 444L380 444z"/></g><g><path class="class-0 leaflet-clickable" stroke-linejoin="round" stroke-linecap="round" fill-rule="evenodd" stroke="#005540" stroke-opacity="1" stroke-width="0.5" fill="#00cc99" fill-opacity="0.5" d="M1003 443L1004 440L1003 443z"/></g><g><path class="class-0 leaflet-clickable" stroke-linejoin="round" stroke-linecap="round" fill-rule="evenodd" stroke="#005540" stroke-opacity="1" stroke-width="0.5" fill="#00cc99" fill-opacity="0.5" d="M1005 435L1005 437L1005 435z"/></g><g><path class="class-0 leaflet-clickable" stroke-linejoin="round" stroke-linecap="round" fill-rule="evenodd" stroke="#005540" stroke-opacity="1" stroke-width="0.5" fill="#00cc99" fill-opacity="0.5" d="M465 432L467 434L466 435L464 433L465 432z"/></g><g><path class="class-0 leaflet-clickable" stroke-linejoin="round" stroke-linecap="round" fill-rule="evenodd" stroke="#005540" stroke-opacity="1" stroke-width="0.5" fill="#00cc99" fill-opacity="0.5" d="M469 422L469 421z"/></g><g><path class="class-0 leaflet-clickable" stroke-linejoin="round" stroke-linecap="round" fill-rule="evenodd" stroke="#005540" stroke-opacity="1" stroke-width="0.5" fill="#00cc99" fill-opacity="0.5" d="M1017 390L1017 392L1011 398L1011 394L1013 391L1018 390z"/></g><g><path class="class-0 leaflet-clickable" stroke-linejoin="round" stroke-linecap="round" fill-rule="evenodd" stroke="#005540" stroke-opacity="1" stroke-width="0.5" fill="#00cc99" fill-opacity="0.5" d="M933 388L932 388z"/></g><g><path class="class-0 leaflet-clickable" stroke-linejoin="round" stroke-linecap="round" fill-rule="evenodd" stroke="#005540" stroke-opacity="1" stroke-width="0.5" fill="#00cc99" fill-opacity="0.5" d="M891 380L890 380z"/></g><g><path class="class-0 leaflet-clickable" stroke-linejoin="round" stroke-linecap="round" fill-rule="evenodd" stroke="#005540" stroke-opacity="1" stroke-width="0.5" fill="#00cc99" fill-opacity="0.5" d="M1017 374L1018 375L1017 374z"/></g><g><path class="class-0 leaflet-clickable" stroke-linejoin="round" stroke-linecap="round" fill-rule="evenodd" stroke="#005540" stroke-opacity="1" stroke-width="0.5" fill="#00cc99" fill-opacity="0.5" d="M574 371L573 371z"/></g><g><path class="class-0 leaflet-clickable" stroke-linejoin="round" stroke-linecap="round" fill-rule="evenodd" stroke="#005540" stroke-opacity="1" stroke-width="0.5" fill="#00cc99" fill-opacity="0.5" d="M569 368L571 369L570 370L568 368z"/></g><g><path class="class-0 leaflet-clickable" stroke-linejoin="round" stroke-linecap="round" fill-rule="evenodd" stroke="#005540" stroke-opacity="1" stroke-width="0.5" fill="#00cc99" fill-opacity="0.5" d="M1009 365L1007 367L1002 368L1004 366L1007 367L1009 365z"/></g><g><path class="class-0 leaflet-clickable" stroke-linejoin="round" stroke-linecap="round" fill-rule="evenodd" stroke="#005540" stroke-opacity="1" stroke-width="0.5" fill="#00cc99" fill-opacity="0.5" d="M564 363L566 363L567 366L565 366L564 364z"/></g><g><path class="class-0 leaflet-clickable" stroke-linejoin="round" stroke-linecap="round" fill-rule="evenodd" stroke="#005540" stroke-opacity="1" stroke-width="0.5" fill="#00cc99" fill-opacity="0.5" d="M564 361L563 361z"/></g><g><path class="class-0 leaflet-clickable" stroke-linejoin="round" stroke-linecap="round" fill-rule="evenodd" stroke="#005540" stroke-opacity="1" stroke-width="0.5" fill="#00cc99" fill-opacity="0.5" d="M948 344L948 343z"/></g><g><path class="class-0 leaflet-clickable" stroke-linejoin="round" stroke-linecap="round" fill-rule="evenodd" stroke="#005540" stroke-opacity="1" stroke-width="0.5" fill="#00cc99" fill-opacity="0.5" d="M949 341L952 342L953 344L951 346L948 343L949 341z"/></g><g><path class="class-0 leaflet-clickable" stroke-linejoin="round" stroke-linecap="round" fill-rule="evenodd" stroke="#005540" stroke-opacity="1" stroke-width="0.5" fill="#00cc99" fill-opacity="0.5" d="M492 302L490 302L490 297L492 302z"/></g><g><path class="class-0 leaflet-clickable" stroke-linejoin="round" stroke-linecap="round" fill-rule="evenodd" stroke="#005540" stroke-opacity="1" stroke-width="0.5" fill="#00cc99" fill-opacity="0.5" d="M480 293L481 296L479 294L480 293z"/></g><g><path class="class-0 leaflet-clickable" stroke-linejoin="round" stroke-linecap="round" fill-rule="evenodd" stroke="#005540" stroke-opacity="1" stroke-width="0.5" fill="#00cc99" fill-opacity="0.5" d="M479 291L479 292z"/></g><g><path class="class-0 leaflet-clickable" stroke-linejoin="round" stroke-linecap="round" fill-rule="evenodd" stroke="#005540" stroke-opacity="1" stroke-width="0.5" fill="#00cc99" fill-opacity="0.5" d="M475 285L475 285z"/></g><g><path class="class-0 leaflet-clickable" stroke-linejoin="round" stroke-linecap="round" fill-rule="evenodd" stroke="#005540" stroke-opacity="1" stroke-width="0.5" fill="#00cc99" fill-opacity="0.5" d="M472 279L476 284L472 281L472 279z"/></g><g><path class="class-0 leaflet-clickable" stroke-linejoin="round" stroke-linecap="round" fill-rule="evenodd" stroke="#005540" stroke-opacity="1" stroke-width="0.5" fill="#00cc99" fill-opacity="0.5" d="M472 273L471 275L472 273z"/></g><g><path class="class-0 leaflet-clickable" stroke-linejoin="round" stroke-linecap="round" fill-rule="evenodd" stroke="#005540" stroke-opacity="1" stroke-width="0.5" fill="#00cc99" fill-opacity="0.5" d="M470 263L471 266L470 264z"/></g><g><path class="class-0 leaflet-clickable" stroke-linejoin="round" stroke-linecap="round" fill-rule="evenodd" stroke="#005540" stroke-opacity="1" stroke-width="0.5" fill="#00cc99" fill-opacity="0.5" d="M464 263L464 265L464 263z"/></g><g><path class="class-0 leaflet-clickable" stroke-linejoin="round" stroke-linecap="round" fill-rule="evenodd" stroke="#005540" stroke-opacity="1" stroke-width="0.5" fill="#00cc99" fill-opacity="0.5" d="M459 261L459 261z"/></g><g><path class="class-0 leaflet-clickable" stroke-linejoin="round" stroke-linecap="round" fill-rule="evenodd" stroke="#005540" stroke-opacity="1" stroke-width="0.5" fill="#00cc99" fill-opacity="0.5" d="M464 254L464 256L462 256L460 260L461 261L460 258L461 255L463 255z"/></g><g><path class="class-0 leaflet-clickable" stroke-linejoin="round" stroke-linecap="round" fill-rule="evenodd" stroke="#005540" stroke-opacity="1" stroke-width="0.5" fill="#00cc99" fill-opacity="0.5" d="M459 252L459 252z"/></g><g><path class="class-0 leaflet-clickable" stroke-linejoin="round" stroke-linecap="round" fill-rule="evenodd" stroke="#005540" stroke-opacity="1" stroke-width="0.5" fill="#00cc99" fill-opacity="0.5" d="M441 224L441 226L440 224z"/></g><g><path class="class-0 leaflet-clickable" stroke-linejoin="round" stroke-linecap="round" fill-rule="evenodd" stroke="#005540" stroke-opacity="1" stroke-width="0.5" fill="#00cc99" fill-opacity="0.5" d="M444 219L443 219z"/></g><g><path class="class-0 leaflet-clickable" stroke-linejoin="round" stroke-linecap="round" fill-rule="evenodd" stroke="#005540" stroke-opacity="1" stroke-width="0.5" fill="#00cc99" fill-opacity="0.5" d="M370 208L369 208z"/></g><g><path class="class-0 leaflet-clickable" stroke-linejoin="round" stroke-linecap="round" fill-rule="evenodd" stroke="#005540" stroke-opacity="1" stroke-width="0.5" fill="#00cc99" fill-opacity="0.5" d="M361 197L361 197z"/></g><g><path class="class-0 leaflet-clickable" stroke-linejoin="round" stroke-linecap="round" fill-rule="evenodd" stroke="#005540" stroke-opacity="1" stroke-width="0.5" fill="#00cc99" fill-opacity="0.5" d="M369 195L371 201L370 204L366 202L369 199L369 195z"/></g><g><path class="class-0 leaflet-clickable" stroke-linejoin="round" stroke-linecap="round" fill-rule="evenodd" stroke="#005540" stroke-opacity="1" stroke-width="0.5" fill="#00cc99" fill-opacity="0.5" d="M422 187L425 189L424 190L423 188z"/></g><g><path class="class-0 leaflet-clickable" stroke-linejoin="round" stroke-linecap="round" fill-rule="evenodd" stroke="#005540" stroke-opacity="1" stroke-width="0.5" fill="#00cc99" fill-opacity="0.5" d="M421 187L421 187z"/></g><g><path class="class-0 leaflet-clickable" stroke-linejoin="round" stroke-linecap="round" fill-rule="evenodd" stroke="#005540" stroke-opacity="1" stroke-width="0.5" fill="#00cc99" fill-opacity="0.5" d="M430 186L429 188L429 186z"/></g><g><path class="class-0 leaflet-clickable" stroke-linejoin="round" stroke-linecap="round" fill-rule="evenodd" stroke="#005540" stroke-opacity="1" stroke-width="0.5" fill="#00cc99" fill-opacity="0.5" d="M408 176L408 176z"/></g><g><path class="class-0 leaflet-clickable" stroke-linejoin="round" stroke-linecap="round" fill-rule="evenodd" stroke="#005540" stroke-opacity="1" stroke-width="0.5" fill="#00cc99" fill-opacity="0.5" d="M298 175L300 177L299 182L297 178L299 174z"/></g><g><path class="class-0 leaflet-clickable" stroke-linejoin="round" stroke-linecap="round" fill-rule="evenodd" stroke="#005540" stroke-opacity="1" stroke-width="0.5" fill="#00cc99" fill-opacity="0.5" d="M436 173L438 179L436 184L437 185L435 186L430 182L431 175L435 173z"/></g><g><path class="class-0 leaflet-clickable" stroke-linejoin="round" stroke-linecap="round" fill-rule="evenodd" stroke="#005540" stroke-opacity="1" stroke-width="0.5" fill="#00cc99" fill-opacity="0.5" d="M408 165L411 167L411 170L413 172L416 171L416 179L406 168L408 165z"/></g><g><path class="class-0 leaflet-clickable" stroke-linejoin="round" stroke-linecap="round" fill-rule="evenodd" stroke="#005540" stroke-opacity="1" stroke-width="0.5" fill="#00cc99" fill-opacity="0.5" d="M387 153L388 154L387 153z"/></g><g><path class="class-0 leaflet-clickable" stroke-linejoin="round" stroke-linecap="round" fill-rule="evenodd" stroke="#005540" stroke-opacity="1" stroke-width="0.5" fill="#00cc99" fill-opacity="0.5" d="M380 112L380 112z"/></g><g><path class="class-0 leaflet-clickable" stroke-linejoin="round" stroke-linecap="round" fill-rule="evenodd" stroke="#005540" stroke-opacity="1" stroke-width="0.5" fill="#00cc99" fill-opacity="0.5" d="M382 106L383 107L382 106z"/></g><g><path class="class-0 leaflet-clickable" stroke-linejoin="round" stroke-linecap="round" fill-rule="evenodd" stroke="#005540" stroke-opacity="1" stroke-width="0.5" fill="#00cc99" fill-opacity="0.5" d="M380 105L382 107L381 108L379 108L379 105z"/></g><g><path class="class-0 leaflet-clickable" stroke-linejoin="round" stroke-linecap="round" fill-rule="evenodd" stroke="#005540" stroke-opacity="1" stroke-width="0.5" fill="#00cc99" fill-opacity="0.5" d="M379 83L379 87L458 115L463 118L529 118L529 106L532 105L569 106L574 113L577 116L579 116L590 128L600 135L602 135L602 137L604 137L605 142L609 148L609 156L616 165L620 166L619 167L622 170L629 172L637 178L644 180L645 177L649 173L650 174L649 172L651 170L652 164L656 159L660 159L663 156L672 159L682 158L684 162L686 162L686 164L687 163L687 165L700 176L704 188L708 193L707 194L710 199L715 203L718 209L726 216L728 230L732 234L736 246L738 245L740 247L745 248L745 250L751 250L756 255L769 255L774 260L776 259L775 258L780 257L780 263L773 276L768 294L766 336L764 339L764 346L770 360L776 366L774 374L782 392L789 398L797 409L799 419L804 424L804 426L807 427L810 433L814 435L823 435L829 439L833 439L838 448L840 449L848 448L865 442L878 442L881 440L881 438L890 436L898 436L901 438L918 428L927 420L927 412L933 405L933 387L935 381L941 376L954 372L972 370L976 367L984 365L990 365L1004 370L1009 369L1010 366L1015 373L1016 370L1015 373L1017 377L1013 385L1001 399L1001 409L1000 410L1001 406L1001 408L998 409L996 413L994 413L997 416L1001 414L1002 415L1001 418L996 420L996 424L999 421L1001 421L999 423L999 427L997 429L991 449L988 449L988 443L983 443L983 441L977 441L975 447L972 449L969 455L965 452L962 457L921 457L921 470L910 470L913 473L914 472L914 474L918 476L917 477L919 479L927 483L928 488L934 491L933 498L904 498L893 518L896 522L893 527L894 531L892 535L864 507L856 501L846 497L836 495L824 496L819 501L815 501L805 506L804 505L801 508L792 508L783 505L780 502L766 501L756 494L749 493L743 487L741 488L731 484L723 484L715 478L691 470L692 469L687 465L683 464L671 453L664 454L638 446L626 432L602 420L600 415L598 415L590 404L586 394L594 392L596 390L594 386L589 386L597 376L597 367L596 368L592 365L587 357L587 349L584 341L568 325L567 321L561 315L556 307L538 294L522 274L510 270L506 265L502 265L500 257L505 248L505 244L501 239L495 239L492 237L489 229L481 227L477 223L475 223L475 209L473 207L472 208L468 206L468 208L466 208L466 206L460 204L454 195L450 193L444 186L445 184L438 180L438 173L436 170L435 171L433 169L434 167L430 162L428 156L425 155L425 148L417 134L418 122L412 119L405 118L405 114L400 110L393 113L379 104L379 110L377 113L377 123L381 129L381 137L383 142L382 149L384 153L388 157L388 159L391 159L405 172L408 182L410 180L412 184L415 184L417 191L419 193L423 193L422 197L424 199L426 211L435 218L438 224L437 225L444 229L442 230L442 232L444 234L446 233L449 235L452 238L452 242L455 243L454 244L458 254L458 262L463 268L465 268L467 277L473 285L471 289L472 297L475 301L478 302L481 301L481 297L488 303L488 305L492 306L492 308L495 311L495 315L498 316L501 320L501 324L499 327L490 334L488 334L486 332L483 320L479 316L457 299L453 297L448 298L447 296L440 292L438 290L438 287L435 286L440 272L440 261L435 251L427 248L412 236L410 235L407 238L400 231L396 231L393 227L389 227L386 224L385 220L373 211L373 209L385 211L391 208L395 201L394 198L396 194L394 190L389 186L389 184L386 181L384 181L383 177L380 176L380 174L375 169L370 168L368 165L362 163L358 159L359 157L356 153L356 146L350 140L351 134L345 127L344 128L343 119L336 112L337 109L334 106L336 107L337 104L331 99L331 96L326 88L326 85L380 80L380 82zM469 205L469 206z"/></g></svg>