<svg xmlns="http://www.w3.org/2000/svg" class="leaflet-zoom-animated" width="1978" height="849" viewBox="-319 -137 1978 849" style="transform: translate3d(-319px, -137px, 0px);"><g><path class="class-3 leaflet-clickable" stroke-linejoin="round" stroke-linecap="round" fill-rule="evenodd" stroke="#005540" stroke-opacity="1" stroke-width="0.5" fill="#086" fill-opacity="0.5" d="M745 135L738 143L729 133L722 139L719 154L707 157L700 164L700 170L702 172L704 172L704 170L706 169L713 172L713 184L706 194L704 188L683 206L689 215L696 221L697 227L700 228L699 234L702 243L705 243L706 247L713 249L710 250L712 250L711 252L717 254L716 258L723 258L727 262L727 264L723 264L723 266L711 262L706 263L701 267L701 275L705 279L700 284L702 288L701 298L697 296L694 298L689 296L682 286L674 286L671 289L664 287L663 285L665 286L665 284L663 282L657 282L654 274L643 272L636 269L626 269L627 275L616 272L607 288L605 286L597 284L590 277L590 275L578 261L580 259L580 256L583 255L585 257L586 255L579 248L582 246L587 237L585 218L589 210L587 207L584 194L569 188L563 179L563 177L567 173L567 170L565 168L565 161L564 162L564 160L561 158L562 143L559 133L560 132L558 132L558 125L561 127L561 125L559 124L566 107L574 90L576 91L587 71L596 72L597 68L602 63L601 62L604 62L605 59L607 59L607 52L608 53L608 51L610 50L610 44L616 32L622 32L625 30L628 31L632 25L644 30L648 28L659 31L666 31L667 29L668 31L671 30L676 36L679 37L679 41L680 38L681 39L682 44L690 47L692 52L702 58L703 62L708 67L708 74L714 81L713 82L715 84L715 89L720 92L719 94L723 97L722 102L725 106L724 108L728 111L728 113L734 115L743 128L743 133L745 133z"/></g><g><path class="class-3 leaflet-clickable" stroke-linejoin="round" stroke-linecap="round" fill-rule="evenodd" stroke="#005540" stroke-opacity="1" stroke-width="0.5" fill="#086" fill-opacity="0.5" d="M745 135L746 134L750 139L741 146L742 149L749 152L749 160L754 171L750 178L748 178L749 180L754 179L757 181L755 188L753 190L759 191L765 195L764 207L765 209L767 208L774 212L776 222L782 220L788 226L791 222L802 224L802 251L810 251L810 253L786 272L782 272L783 271L781 269L779 272L776 272L776 280L774 282L775 287L770 285L765 289L761 290L760 294L757 294L750 298L751 301L754 300L757 306L753 319L759 324L763 332L761 331L756 337L744 337L740 347L741 356L734 355L731 358L734 360L733 363L728 363L728 360L721 362L721 366L723 365L723 367L716 365L717 357L714 354L715 350L717 350L716 345L718 341L716 340L715 335L713 333L714 318L710 317L711 314L709 314L711 308L710 305L706 301L704 302L701 298L702 288L700 284L705 279L701 275L701 267L706 263L711 262L723 266L723 264L726 265L727 262L723 258L716 258L717 255L712 252L712 250L710 250L714 249L706 247L705 243L702 243L699 234L700 229L697 227L696 221L689 215L683 206L704 188L706 194L713 184L713 173L706 168L704 171L702 171L700 164L707 157L719 154L722 139L729 133L738 143L741 139z"/></g><g><path class="class-3 leaflet-clickable" stroke-linejoin="round" stroke-linecap="round" fill-rule="evenodd" stroke="#005540" stroke-opacity="1" stroke-width="0.5" fill="#086" fill-opacity="0.5" d="M784 566L782 566L781 568L771 564L767 557L767 555L773 550L774 545L776 546L777 542L777 544L780 546L781 551L785 554L785 566z"/></g><g><path class="class-3 leaflet-clickable" stroke-linejoin="round" stroke-linecap="round" fill-rule="evenodd" stroke="#005540" stroke-opacity="1" stroke-width="0.5" fill="#086" fill-opacity="0.5" d="M744 509L745 508L751 514L761 514L760 515L764 522L761 526L765 529L766 528L766 532L768 532L774 527L774 522L778 520L781 522L782 521L782 523L783 519L786 520L786 522L783 525L785 525L786 527L782 528L783 530L786 531L788 528L787 527L789 526L793 529L793 527L798 531L799 530L802 533L797 543L800 549L799 561L801 568L796 573L794 573L784 566L786 559L785 555L781 551L780 546L777 544L777 542L776 546L774 545L773 549L767 555L771 564L769 566L769 572L767 575L764 576L763 581L759 585L755 582L754 583L752 580L751 581L753 584L750 583L747 588L743 588L740 591L738 591L737 589L735 590L734 593L732 593L727 598L726 597L725 600L720 598L721 594L720 592L718 592L718 589L716 587L718 582L715 578L711 577L710 575L721 563L724 556L724 552L729 549L729 545L726 540L727 539L725 538L726 536L731 535L731 530L734 528L732 526L733 521L731 521L731 519L740 519L741 514L739 510L740 509L740 511L742 511L742 508L743 509z"/></g><g><path class="class-3 leaflet-clickable" stroke-linejoin="round" stroke-linecap="round" fill-rule="evenodd" stroke="#005540" stroke-opacity="1" stroke-width="0.5" fill="#086" fill-opacity="0.5" d="M653 423L652 426L654 429L646 431L640 439L637 439L637 441L633 441L633 443L622 437L616 436L615 438L613 438L608 432L610 424L615 419L618 413L616 412L616 410L623 410L633 403L639 406L640 410L645 410L647 413L647 416L645 417L653 422z"/></g><g><path class="class-3 leaflet-clickable" stroke-linejoin="round" stroke-linecap="round" fill-rule="evenodd" stroke="#005540" stroke-opacity="1" stroke-width="0.5" fill="#086" fill-opacity="0.5" d="M799 548L797 544L799 541L803 539L805 539L805 541L812 541L814 535L817 535L817 537L822 538L826 535L827 538L835 543L834 545L836 547L838 546L846 553L843 556L836 555L836 559L832 562L827 559L821 565L818 562L813 561L814 560L805 548L801 548z"/></g><g><path class="class-3 leaflet-clickable" stroke-linejoin="round" stroke-linecap="round" fill-rule="evenodd" stroke="#005540" stroke-opacity="1" stroke-width="0.5" fill="#086" fill-opacity="0.5" d="M839 411L836 414L829 407L826 407L819 401L814 403L814 405L807 403L804 405L798 404L795 406L788 407L786 405L773 404L769 394L766 393L766 391L764 392L761 387L759 388L761 394L752 391L747 392L743 387L734 387L737 384L736 379L733 379L733 376L736 372L733 369L734 360L731 358L734 355L741 356L740 347L744 337L755 337L761 331L763 332L761 327L753 319L757 306L754 300L751 301L750 298L756 294L758 295L761 293L763 289L770 285L774 287L774 282L776 280L776 272L779 272L780 269L782 269L782 272L786 272L810 253L810 251L802 251L802 224L791 222L788 226L782 220L776 222L774 212L767 208L765 209L764 207L765 195L759 191L753 191L757 181L754 179L749 180L748 178L750 178L754 171L749 160L749 152L742 149L741 146L750 139L753 140L754 142L756 141L760 145L759 148L762 149L759 158L761 158L764 165L763 173L769 179L768 180L771 181L776 198L779 199L778 203L780 205L781 204L791 207L792 206L798 212L802 212L805 214L808 213L811 217L820 222L838 222L844 224L855 233L857 233L858 229L868 227L867 239L852 269L844 297L841 318L841 342L839 356L840 380L835 396L837 409z"/></g><g><path class="class-3 leaflet-clickable" stroke-linejoin="round" stroke-linecap="round" fill-rule="evenodd" stroke="#005540" stroke-opacity="1" stroke-width="0.5" fill="#086" fill-opacity="0.5" d="M570 188L572 190L584 194L587 207L589 210L585 218L587 237L580 248L586 255L586 257L583 255L580 256L580 259L578 261L597 284L605 286L607 288L616 272L618 275L616 276L616 278L621 280L624 290L625 303L615 307L608 305L606 302L606 304L603 302L602 304L599 302L597 305L591 305L590 303L584 304L578 311L575 312L576 315L572 320L571 318L563 324L564 336L562 338L563 340L566 341L564 345L563 343L561 344L561 346L553 352L551 356L550 366L548 369L548 378L551 380L552 385L550 387L547 386L544 388L544 395L541 398L542 402L540 404L539 403L533 406L534 407L530 405L526 401L525 396L522 397L520 395L521 393L519 392L517 392L517 394L511 400L510 395L507 392L508 390L515 388L515 385L511 383L510 377L496 378L494 372L491 369L483 370L481 368L482 363L478 359L476 348L473 345L471 345L470 348L469 346L467 330L471 332L471 330L467 328L469 326L464 322L465 318L458 308L457 309L450 307L449 310L441 311L437 305L439 304L439 302L435 299L433 292L426 284L423 285L421 280L418 280L417 275L413 273L414 263L410 259L412 259L410 254L413 250L411 249L412 247L414 248L421 244L420 242L423 243L425 247L435 247L437 243L444 239L440 240L439 229L440 227L441 228L445 225L443 225L443 222L446 218L445 215L449 209L451 207L452 208L451 205L453 204L454 201L452 199L454 197L455 190L459 189L457 187L459 185L460 186L463 182L473 190L475 191L474 189L476 189L478 192L483 194L483 192L485 197L488 197L488 199L494 198L495 201L498 201L506 198L508 204L515 199L519 199L530 208L533 204L536 194L541 192L543 188L541 184L543 184L543 182L547 186L553 187L556 185L556 187L562 187z"/></g><g><path class="class-3 leaflet-clickable" stroke-linejoin="round" stroke-linecap="round" fill-rule="evenodd" stroke="#005540" stroke-opacity="1" stroke-width="0.5" fill="#086" fill-opacity="0.5" d="M781 459L781 466L775 466L772 468L769 466L765 469L767 471L765 474L765 478L761 481L759 486L761 490L746 495L744 509L742 508L742 511L740 511L740 509L739 510L739 512L741 513L740 519L731 519L729 515L727 515L730 512L720 506L719 503L716 503L716 494L711 488L711 486L713 486L712 482L717 477L719 479L726 477L726 475L733 477L735 475L734 474L738 471L737 468L739 462L743 465L752 462L753 458L749 459L747 456L749 445L753 445L761 453L762 451L765 452L766 446L769 447L771 443L774 441L778 445L777 447L779 455L777 457L780 459z"/></g><g><path class="class-3 leaflet-clickable" stroke-linejoin="round" stroke-linecap="round" fill-rule="evenodd" stroke="#005540" stroke-opacity="1" stroke-width="0.5" fill="#086" fill-opacity="0.5" d="M701 298L704 302L699 308L695 311L692 309L692 307L689 315L684 317L684 329L682 331L657 353L641 357L639 357L639 355L636 353L633 359L635 361L636 359L634 363L637 368L635 373L638 382L641 386L650 392L654 392L654 400L659 401L658 399L663 399L666 395L665 394L670 390L670 388L674 387L676 389L675 391L679 395L679 399L678 401L675 402L675 407L673 406L673 411L675 411L678 414L676 416L677 417L675 423L677 423L674 426L674 429L670 431L670 434L667 432L665 428L663 429L658 423L653 423L645 417L647 413L646 410L640 410L640 407L635 406L633 402L630 406L626 407L623 410L616 410L616 412L618 413L608 428L607 432L613 438L610 441L612 441L612 443L618 447L618 454L616 456L614 454L614 456L608 459L605 463L599 460L597 467L598 469L596 470L591 469L586 471L580 466L575 467L572 463L572 459L568 459L573 456L578 456L577 452L575 452L574 454L569 450L570 446L573 446L574 444L576 445L578 438L577 435L575 435L578 432L579 433L587 426L593 426L592 424L596 423L596 421L594 421L598 419L596 417L599 414L599 412L597 410L592 411L591 410L594 407L594 405L588 404L585 406L585 410L588 410L588 412L584 413L582 418L571 419L570 418L574 411L572 407L574 408L574 404L576 403L574 399L575 398L573 396L569 396L567 397L563 407L564 410L562 416L559 408L562 401L562 397L567 393L566 388L555 387L553 389L557 397L556 398L559 401L555 406L551 407L553 404L552 398L547 400L548 405L546 403L544 407L540 404L542 402L541 399L544 395L544 387L552 386L551 380L548 376L548 369L550 366L551 356L553 352L560 347L561 344L563 343L564 345L566 341L563 341L562 339L564 335L563 324L571 318L572 320L576 315L575 312L578 311L583 304L590 303L597 305L599 302L602 304L603 302L606 304L606 302L609 306L611 305L613 307L625 304L624 290L621 280L616 278L616 276L618 276L616 272L627 275L626 269L636 269L643 272L654 274L657 282L663 282L665 284L665 286L663 285L664 287L671 289L677 285L682 286L689 296L694 298L697 296L701 298z"/></g><g><path class="class-3 leaflet-clickable" stroke-linejoin="round" stroke-linecap="round" fill-rule="evenodd" stroke="#005540" stroke-opacity="1" stroke-width="0.5" fill="#086" fill-opacity="0.5" d="M613 438L615 438L615 436L622 437L632 443L633 441L637 441L637 439L641 438L645 431L654 429L654 427L652 427L653 423L659 424L663 429L666 428L669 434L666 435L666 443L664 447L666 453L661 454L663 455L663 459L657 461L655 468L652 469L653 470L651 472L650 477L649 476L645 481L643 481L643 484L649 491L648 495L646 495L645 500L642 503L639 503L638 505L627 505L619 509L618 511L617 510L616 513L610 515L610 517L604 513L603 514L605 515L601 515L599 517L599 521L601 524L602 522L604 522L611 524L614 527L614 529L610 532L611 540L613 540L615 544L613 546L615 545L617 547L620 545L622 547L617 559L611 558L603 562L600 564L602 567L600 567L600 569L599 568L599 570L594 574L591 569L579 572L577 566L579 561L579 554L573 547L573 545L570 546L568 549L564 550L553 546L550 555L542 555L542 557L540 556L534 559L532 557L529 563L522 558L519 559L519 555L517 556L512 554L509 551L507 544L498 537L487 521L485 517L486 513L479 503L484 498L496 497L499 495L500 492L498 489L499 486L503 483L503 480L508 476L509 478L512 478L518 472L523 473L525 476L530 476L535 483L536 482L542 488L543 492L545 487L543 484L539 484L545 478L546 465L555 463L557 461L564 461L568 455L567 454L569 452L559 444L559 440L561 439L559 437L560 436L553 434L552 435L547 432L547 425L539 425L539 417L541 415L540 414L543 407L546 403L548 405L547 400L552 398L553 399L551 407L555 406L559 401L556 398L557 397L553 389L555 387L567 389L566 393L562 396L562 404L559 407L560 413L562 415L566 397L568 396L573 396L575 398L574 408L572 407L574 411L570 418L571 419L580 419L585 412L587 413L588 410L586 410L585 408L587 404L593 405L594 407L591 410L592 411L597 410L599 412L599 414L596 417L598 418L594 421L596 421L596 423L592 424L593 426L587 426L575 435L577 435L578 437L576 444L574 444L574 446L571 446L569 450L571 450L574 454L575 452L577 452L578 455L575 457L569 457L568 459L572 459L572 463L575 467L582 466L585 471L590 469L596 470L598 469L597 467L599 460L605 463L609 458L612 458L614 454L616 456L618 455L618 447L612 443L612 439z"/></g><g><path class="class-3 leaflet-clickable" stroke-linejoin="round" stroke-linecap="round" fill-rule="evenodd" stroke="#005540" stroke-opacity="1" stroke-width="0.5" fill="#086" fill-opacity="0.5" d="M1313 600L1315 595L1314 593L1315 597z"/></g><g><path class="class-3 leaflet-clickable" stroke-linejoin="round" stroke-linecap="round" fill-rule="evenodd" stroke="#005540" stroke-opacity="1" stroke-width="0.5" fill="#086" fill-opacity="0.5" d="M1317 583L1318 587L1317 583z"/></g><g><path class="class-3 leaflet-clickable" stroke-linejoin="round" stroke-linecap="round" fill-rule="evenodd" stroke="#005540" stroke-opacity="1" stroke-width="0.5" fill="#086" fill-opacity="0.5" d="M1342 494L1330 509L1328 504L1331 497L1334 494L1336 496L1342 493z"/></g><g><path class="class-3 leaflet-clickable" stroke-linejoin="round" stroke-linecap="round" fill-rule="evenodd" stroke="#005540" stroke-opacity="1" stroke-width="0.5" fill="#086" fill-opacity="0.5" d="M1232 621L1229 620L1229 617L1231 617L1232 614L1229 614L1229 611L1232 611L1233 599L1231 582L1232 550L1225 543L1229 541L1228 539L1232 539L1232 542L1234 542L1234 540L1232 540L1233 536L1239 536L1236 535L1237 533L1239 531L1242 532L1243 528L1247 527L1246 526L1248 524L1248 521L1252 521L1256 515L1261 515L1261 512L1265 509L1278 508L1296 490L1305 473L1305 449L1307 449L1308 451L1310 450L1314 452L1321 452L1324 451L1326 444L1327 446L1332 448L1336 457L1336 461L1339 457L1338 453L1339 454L1338 464L1339 466L1341 466L1340 472L1338 472L1335 481L1328 490L1317 500L1310 511L1308 517L1308 523L1310 526L1309 530L1307 532L1310 526L1305 532L1303 532L1300 537L1296 538L1295 541L1299 543L1300 546L1302 543L1305 544L1310 540L1311 543L1306 551L1304 549L1301 552L1298 559L1299 561L1301 561L1305 555L1309 555L1305 560L1303 570L1301 572L1297 584L1295 598L1292 602L1291 609L1288 611L1283 610L1283 598L1273 598L1273 595L1262 594L1260 596L1258 603L1256 604L1257 606L1253 609L1251 616L1244 623L1237 618L1232 620z"/></g><g><path class="class-3 leaflet-clickable" stroke-linejoin="round" stroke-linecap="round" fill-rule="evenodd" stroke="#005540" stroke-opacity="1" stroke-width="0.5" fill="#086" fill-opacity="0.5" d="M1325 444L1323 446L1313 448L1314 446L1317 447L1324 444z"/></g><g><path class="class-3 leaflet-clickable" stroke-linejoin="round" stroke-linecap="round" fill-rule="evenodd" stroke="#005540" stroke-opacity="1" stroke-width="0.5" fill="#086" fill-opacity="0.5" d="M733 363L732 367L737 372L735 373L735 375L733 375L733 379L736 379L737 384L733 387L743 387L747 392L752 391L759 394L761 394L759 390L759 388L761 387L764 392L766 391L766 393L769 394L773 404L781 404L786 405L788 407L792 407L797 404L798 406L802 406L805 409L809 409L811 411L810 412L814 412L814 414L809 419L808 425L805 425L803 427L806 428L805 427L804 428L806 429L804 430L808 435L805 439L804 438L803 440L800 441L801 445L805 449L806 454L801 456L800 455L798 457L802 459L802 462L800 464L798 463L790 465L786 459L779 459L777 457L779 453L777 447L778 445L775 441L769 447L766 446L765 452L759 452L753 445L749 445L747 449L748 450L742 451L740 450L740 447L735 448L733 444L730 444L730 442L722 439L717 441L717 446L711 448L699 443L700 441L693 436L686 436L678 432L670 434L669 433L671 430L674 429L673 428L677 423L675 423L677 418L676 416L678 414L675 411L673 411L673 406L675 407L675 403L678 402L679 395L675 391L676 389L674 387L670 388L670 390L667 392L663 399L658 399L659 401L654 400L654 392L650 392L641 386L638 382L635 371L637 369L634 363L636 359L635 361L633 359L635 358L636 353L638 353L639 357L657 353L684 329L683 317L689 315L692 306L692 308L695 311L706 301L711 308L709 314L711 314L710 317L714 319L712 329L716 340L718 340L716 344L717 350L715 349L714 354L717 357L716 364L722 367L723 365L721 366L721 362L725 360L728 360L728 363L732 363z"/></g><g><path class="class-3 leaflet-clickable" stroke-linejoin="round" stroke-linecap="round" fill-rule="evenodd" stroke="#005540" stroke-opacity="1" stroke-width="0.5" fill="#086" fill-opacity="0.5" d="M317 209L319 207L322 210L328 204L334 204L334 202L336 201L332 201L334 197L338 195L343 195L345 188L349 184L348 183L350 182L354 175L351 175L353 172L359 174L359 172L363 172L366 174L363 179L370 181L373 184L372 186L374 186L371 192L376 199L373 203L380 213L380 215L383 216L384 218L387 216L392 216L396 220L398 218L404 219L407 225L406 229L417 237L417 240L421 240L421 244L411 248L413 251L410 254L412 259L410 259L414 263L413 273L416 274L418 279L423 282L423 285L426 284L434 295L435 299L439 302L439 304L437 305L441 310L445 311L448 310L450 307L457 309L458 308L465 318L464 322L469 326L467 328L471 330L471 332L467 330L470 348L471 345L473 345L476 348L478 354L477 357L482 363L481 368L483 370L490 369L492 371L492 373L488 377L489 381L487 386L487 390L491 397L489 399L486 399L480 395L478 397L480 401L477 400L471 389L462 382L450 368L445 366L446 364L442 360L443 359L432 345L430 345L424 333L413 322L375 294L371 286L368 284L364 275L353 262L348 259L337 257L327 253L319 244L311 243L308 227L317 209z"/></g><g><path class="class-3 leaflet-clickable" stroke-linejoin="round" stroke-linecap="round" fill-rule="evenodd" stroke="#005540" stroke-opacity="1" stroke-width="0.5" fill="#086" fill-opacity="0.5" d="M830 497L824 503L824 505L821 506L820 508L818 507L816 510L817 511L820 509L824 515L821 519L822 523L819 523L815 529L817 529L817 531L820 533L818 535L815 535L812 541L806 541L805 539L799 541L798 540L801 538L800 535L802 533L799 530L798 531L798 529L793 527L793 529L789 526L787 527L788 528L786 531L783 530L782 528L785 527L785 525L783 525L786 522L786 520L784 519L783 523L779 520L776 520L773 528L766 533L766 528L765 529L761 526L764 522L760 515L761 514L756 513L755 515L753 513L749 513L745 508L744 509L746 495L750 495L755 492L756 493L758 490L761 490L759 485L761 484L766 475L766 468L768 468L769 466L772 468L780 465L781 466L781 459L786 458L787 462L790 465L798 463L799 464L802 462L802 459L798 457L804 454L808 455L804 460L808 461L807 462L810 466L815 464L815 466L819 466L822 469L822 471L819 474L819 478L817 478L817 481L819 482L817 484L814 484L813 483L815 482L812 480L809 481L808 485L804 488L805 490L809 486L806 490L807 493L805 493L804 497L802 497L805 505L808 506L817 497L821 496L826 489L829 496z"/></g><g><path class="class-3 leaflet-clickable" stroke-linejoin="round" stroke-linecap="round" fill-rule="evenodd" stroke="#005540" stroke-opacity="1" stroke-width="0.5" fill="#086" fill-opacity="0.5" d="M784 566L787 567L793 573L796 573L800 569L797 575L799 575L795 581L797 588L797 596L796 597L792 593L780 602L777 596L768 596L763 589L761 583L763 581L764 576L767 575L769 572L770 564L781 568L781 566L784 566z"/></g><g><path class="class-3 leaflet-clickable" stroke-linejoin="round" stroke-linecap="round" fill-rule="evenodd" stroke="#005540" stroke-opacity="1" stroke-width="0.5" fill="#086" fill-opacity="0.5" d="M748 449L747 456L749 459L753 458L752 462L746 465L739 462L737 464L738 471L735 472L733 477L727 475L726 477L724 476L723 478L719 479L716 477L717 478L712 481L713 485L711 486L711 488L716 494L716 503L718 503L723 509L720 516L720 518L722 519L721 521L714 525L714 523L713 524L711 522L704 526L702 526L702 524L700 523L700 525L694 525L692 523L694 521L690 517L686 519L685 518L685 520L682 521L675 520L673 512L676 512L676 510L674 510L673 508L672 509L672 506L666 506L660 512L652 512L650 511L648 504L646 505L646 503L642 503L649 493L649 491L644 486L643 482L649 476L650 477L652 470L653 468L655 468L654 466L657 464L657 462L663 459L663 455L661 454L665 453L666 451L663 447L666 443L666 435L678 432L685 436L693 436L700 441L699 443L711 448L717 447L717 441L722 439L729 442L730 441L730 443L735 448L740 447L739 448L741 451L746 451L748 450L747 449z"/></g><g><path class="class-3 leaflet-clickable" stroke-linejoin="round" stroke-linecap="round" fill-rule="evenodd" stroke="#005540" stroke-opacity="1" stroke-width="0.5" fill="#086" fill-opacity="0.5" d="M454 455L454 457L452 456L453 455z"/></g><g><path class="class-3 leaflet-clickable" stroke-linejoin="round" stroke-linecap="round" fill-rule="evenodd" stroke="#005540" stroke-opacity="1" stroke-width="0.5" fill="#086" fill-opacity="0.5" d="M445 449L448 451L447 452L442 450L444 449z"/></g><g><path class="class-3 leaflet-clickable" stroke-linejoin="round" stroke-linecap="round" fill-rule="evenodd" stroke="#005540" stroke-opacity="1" stroke-width="0.5" fill="#086" fill-opacity="0.5" d="M435 439L439 440L442 444L440 446L436 444L435 440z"/></g><g><path class="class-3 leaflet-clickable" stroke-linejoin="round" stroke-linecap="round" fill-rule="evenodd" stroke="#005540" stroke-opacity="1" stroke-width="0.5" fill="#086" fill-opacity="0.5" d="M434 435L434 437z"/></g><g><path class="class-3 leaflet-clickable" stroke-linejoin="round" stroke-linecap="round" fill-rule="evenodd" stroke="#005540" stroke-opacity="1" stroke-width="0.5" fill="#086" fill-opacity="0.5" d="M540 404L543 406L543 409L539 417L539 425L540 426L542 424L548 426L547 432L549 434L560 436L559 437L561 439L559 444L568 452L567 457L563 461L557 461L552 464L551 463L546 465L546 475L544 479L539 482L539 484L541 483L545 487L544 492L543 488L536 482L535 483L530 477L527 477L520 472L518 472L512 477L506 477L498 488L495 485L492 486L486 484L496 473L496 471L497 472L500 469L499 456L502 451L499 447L498 448L490 443L481 425L480 407L476 398L478 401L480 401L478 397L480 395L482 395L484 398L489 399L491 397L490 393L487 390L487 384L489 381L488 378L492 371L494 371L496 378L510 376L511 383L515 385L515 388L507 391L510 395L511 400L517 394L517 392L519 392L522 397L526 398L526 400L531 406L533 407L539 403z"/></g><g><path class="class-3 leaflet-clickable" stroke-linejoin="round" stroke-linecap="round" fill-rule="evenodd" stroke="#005540" stroke-opacity="1" stroke-width="0.5" fill="#086" fill-opacity="0.5" d="M68 601L70 601L67 602L67 600z"/></g><g><path class="class-3 leaflet-clickable" stroke-linejoin="round" stroke-linecap="round" fill-rule="evenodd" stroke="#005540" stroke-opacity="1" stroke-width="0.5" fill="#086" fill-opacity="0.5" d="M238 577L241 580L240 583L238 583L235 580L237 578z"/></g><g><path class="class-3 leaflet-clickable" stroke-linejoin="round" stroke-linecap="round" fill-rule="evenodd" stroke="#005540" stroke-opacity="1" stroke-width="0.5" fill="#086" fill-opacity="0.5" d="M579 572L575 576L572 576L573 580L570 581L568 585L557 576L541 569L541 565L539 564L536 566L534 564L524 561L528 561L529 563L532 557L534 559L539 556L542 557L542 555L549 555L553 549L553 546L560 549L568 549L570 546L573 545L573 547L579 554L579 561L577 566L579 570z"/></g><g><path class="class-3 leaflet-clickable" stroke-linejoin="round" stroke-linecap="round" fill-rule="evenodd" stroke="#005540" stroke-opacity="1" stroke-width="0.5" fill="#086" fill-opacity="0.5" d="M246 556L246 555z"/></g><g><path class="class-2 leaflet-clickable" stroke-linejoin="round" stroke-linecap="round" fill-rule="evenodd" stroke="#005540" stroke-opacity="1" stroke-width="0.5" fill="#00cc99" fill-opacity="0.5" d="M587 71L578 88L576 91L575 90L573 92L574 93L559 124L561 125L561 127L558 126L558 132L560 132L559 133L561 136L562 146L561 158L564 160L564 162L565 161L565 168L567 170L567 173L563 177L563 179L567 183L569 188L556 187L556 185L553 187L547 186L543 182L543 184L541 184L543 188L541 192L536 194L530 208L520 199L513 200L508 204L506 198L498 201L494 200L494 198L488 199L488 197L485 197L483 192L483 194L480 194L477 189L475 189L475 191L463 182L460 186L459 185L457 187L459 189L456 190L452 199L454 201L451 205L452 208L451 207L445 215L446 218L444 219L443 222L443 225L445 225L442 226L441 228L440 227L439 229L440 240L444 238L435 246L425 247L424 243L420 242L420 239L417 240L417 237L406 229L404 220L400 218L396 220L395 217L392 216L387 216L384 218L383 216L380 215L380 213L373 203L376 200L372 193L370 192L373 190L374 186L372 186L373 184L370 181L367 181L367 179L363 179L363 176L366 174L364 172L360 172L359 174L352 172L351 174L349 174L346 172L347 170L346 166L344 165L344 161L347 158L344 147L341 145L339 141L340 140L337 136L333 136L332 134L334 131L332 130L332 126L325 116L325 110L327 108L328 110L338 110L345 107L345 105L349 106L352 103L350 101L351 97L347 90L347 84L344 82L345 81L342 77L342 64L339 61L340 58L343 57L341 47L344 45L345 42L344 38L346 36L344 35L349 32L349 29L346 29L345 27L346 3L349 5L348 2L345 1L346 -1L344 -3L346 -4L346 -6L344 -6L343 -11L336 -13L331 -22L331 -29L337 -29L337 -34L343 -35L340 -36L341 -37L339 -40L336 -41L337 -44L333 -45L334 -47L337 -47L339 -52L364 -52L364 -76L441 -76L443 -74L444 -75L450 -70L456 -59L461 -55L465 -55L475 -43L481 -40L485 -34L490 -29L492 -29L492 -26L501 -23L511 -16L516 -8L518 -1L523 6L525 22L531 34L538 41L538 43L544 44L549 51L554 54L563 56L572 63L576 63L584 70L586 68L587 70z"/></g><g><path class="class-2 leaflet-clickable" stroke-linejoin="round" stroke-linecap="round" fill-rule="evenodd" stroke="#005540" stroke-opacity="1" stroke-width="0.5" fill="#00cc99" fill-opacity="0.5" d="M1175 481L1175 495L1182 495L1182 499L1185 499L1185 501L1190 501L1193 498L1200 508L1200 512L1202 512L1202 514L1204 513L1211 522L1214 532L1217 533L1217 536L1232 550L1233 599L1231 607L1232 611L1229 611L1229 614L1232 614L1231 617L1229 617L1229 620L1232 620L1232 627L1148 627L1148 620L1136 618L1133 615L1125 612L1124 610L1120 612L1118 624L1113 620L1112 621L1111 619L1103 617L1100 613L1098 614L1095 611L1094 596L1086 597L1081 589L1081 587L1084 586L1102 584L1109 589L1109 587L1125 580L1129 575L1144 567L1157 557L1161 548L1161 537L1163 533L1168 530L1172 525L1170 514L1170 498L1173 491L1174 482z"/></g><g><path class="class-2 leaflet-clickable" stroke-linejoin="round" stroke-linecap="round" fill-rule="evenodd" stroke="#005540" stroke-opacity="1" stroke-width="0.5" fill="#00cc99" fill-opacity="0.5" d="M1305 449L1305 473L1296 490L1286 500L1284 500L1278 508L1265 509L1260 512L1261 515L1256 515L1253 517L1252 521L1248 521L1246 526L1247 527L1244 528L1242 532L1239 531L1236 535L1239 535L1235 537L1233 536L1232 540L1234 540L1234 542L1232 542L1232 539L1228 539L1229 541L1225 543L1220 539L1216 534L1217 533L1215 533L1212 529L1211 522L1204 513L1202 515L1202 512L1200 512L1200 508L1193 498L1190 501L1185 501L1185 499L1182 499L1182 496L1175 495L1176 475L1186 467L1199 461L1246 454L1256 448L1267 445L1272 446L1276 443L1286 443L1298 448L1305 449z"/></g><g><path class="class-2 leaflet-clickable" stroke-linejoin="round" stroke-linecap="round" fill-rule="evenodd" stroke="#005540" stroke-opacity="1" stroke-width="0.5" fill="#00cc99" fill-opacity="0.5" d="M1205 394L1207 394L1212 399L1210 406L1203 400L1205 400L1206 398L1205 395L1203 396L1204 394L1205 395z"/></g><g><path class="class-2 leaflet-clickable" stroke-linejoin="round" stroke-linecap="round" fill-rule="evenodd" stroke="#005540" stroke-opacity="1" stroke-width="0.5" fill="#00cc99" fill-opacity="0.5" d="M722 508L730 512L727 515L729 515L729 518L732 520L731 519L731 521L733 521L732 526L733 528L735 528L731 530L731 535L725 538L727 539L727 543L729 544L729 549L724 552L724 556L721 563L706 580L704 576L702 578L704 593L711 598L709 601L707 600L707 598L705 599L702 595L696 595L696 597L691 593L688 594L683 592L669 595L665 592L664 589L657 589L652 592L653 604L650 607L640 609L638 617L641 619L641 621L637 622L633 619L617 616L600 609L596 609L585 605L579 602L575 594L569 589L570 588L568 586L573 578L573 575L575 576L580 571L583 572L590 569L594 574L599 570L599 568L600 569L600 567L602 567L600 565L601 563L602 564L603 562L611 558L617 559L621 550L622 547L620 545L617 547L615 545L614 546L615 544L610 537L610 532L613 531L614 527L611 524L599 522L599 517L601 515L602 516L606 514L610 517L610 515L616 513L617 510L618 511L619 509L627 505L630 506L633 504L637 505L641 503L646 503L646 505L649 505L649 509L652 512L660 512L666 506L672 506L671 509L673 508L674 510L676 510L676 512L674 512L673 514L675 516L674 520L682 521L685 520L685 517L686 519L689 517L693 519L692 520L694 521L692 523L694 525L700 525L700 523L702 526L704 526L708 523L710 524L711 522L713 524L714 523L714 525L721 522L722 520L720 516L723 509L722 508z"/></g><g><path class="class-2 leaflet-clickable" stroke-linejoin="round" stroke-linecap="round" fill-rule="evenodd" stroke="#005540" stroke-opacity="1" stroke-width="0.5" fill="#00cc99" fill-opacity="0.5" d="M887 599L881 606L875 607L873 610L870 611L867 609L862 610L853 617L851 617L845 610L845 605L839 604L835 609L837 615L836 618L837 619L839 615L843 617L841 617L837 622L833 622L830 619L823 619L819 624L816 621L814 624L813 623L811 625L809 619L807 618L799 621L795 618L792 618L795 616L789 615L789 610L783 609L783 605L780 605L780 602L792 593L796 597L797 596L797 588L795 582L799 575L797 575L798 572L801 568L799 561L799 548L803 547L806 549L814 562L815 561L821 565L827 560L832 562L836 559L835 557L837 555L844 556L846 554L838 546L835 546L833 541L831 542L827 539L826 535L824 538L818 537L817 535L820 533L816 529L818 524L822 523L821 519L824 516L821 509L818 511L816 510L817 507L820 508L821 505L823 505L830 497L830 495L833 493L834 491L832 487L834 481L840 482L842 484L840 488L841 490L844 495L847 494L850 498L845 500L845 502L842 500L840 502L843 507L840 509L841 512L847 515L848 518L852 515L854 510L867 514L868 516L860 529L860 537L855 542L855 544L859 547L856 550L868 555L875 556L873 564L871 562L865 562L862 567L863 574L858 580L858 584L862 588L864 587L868 589L871 596L877 591L882 594L883 593L884 597L887 598z"/></g><g><path class="class-2 leaflet-clickable" stroke-linejoin="round" stroke-linecap="round" fill-rule="evenodd" stroke="#005540" stroke-opacity="1" stroke-width="0.5" fill="#00cc99" fill-opacity="0.5" d="M1148 627L1148 654L1127 654L1130 650L1127 647L1122 647L1116 643L1119 640L1118 635L1111 631L1112 626L1110 623L1105 624L1104 622L1102 622L1099 624L1100 625L1097 626L1096 629L1094 628L1089 633L1087 632L1086 636L1082 639L1078 638L1071 646L1071 648L1067 649L1067 647L1064 646L1065 645L1062 641L1059 642L1055 637L1055 626L1050 625L1052 623L1044 619L1041 622L1041 627L1039 629L1040 634L1036 638L1036 640L1035 639L1029 651L1027 651L1028 650L1025 648L1028 644L1028 640L1023 636L1023 633L1015 630L1012 625L1011 626L1007 624L1008 615L1006 612L1007 610L1005 610L1005 608L1037 597L1062 597L1067 594L1071 588L1073 589L1081 587L1083 595L1086 597L1094 596L1094 609L1098 614L1099 613L1103 617L1111 619L1112 621L1113 620L1118 624L1120 616L1119 615L1121 611L1124 610L1124 612L1133 615L1138 619L1148 620L1148 624z"/></g><g><path class="class-2 leaflet-clickable" stroke-linejoin="round" stroke-linecap="round" fill-rule="evenodd" stroke="#005540" stroke-opacity="1" stroke-width="0.5" fill="#00cc99" fill-opacity="0.5" d="M839 411L839 418L846 432L856 443L859 444L855 462L866 486L866 490L900 529L903 543L906 547L906 554L913 560L914 559L917 567L921 567L923 576L936 583L956 584L964 591L974 592L978 600L983 604L983 608L985 610L990 611L1005 608L1005 610L1007 610L1006 612L1008 615L1007 623L1011 626L1012 625L1015 630L1022 633L1023 636L1028 640L1027 646L1025 647L1028 650L1027 651L1029 651L1025 654L1021 654L1017 658L1008 659L969 656L970 651L962 648L953 636L957 634L955 630L944 638L943 637L938 640L933 640L932 638L930 638L926 631L924 631L927 627L929 620L928 612L923 610L919 612L917 612L916 610L913 612L911 610L912 609L909 609L905 600L897 590L894 590L890 587L887 591L887 593L889 593L889 600L887 600L887 598L884 597L884 593L882 594L877 591L871 596L868 589L864 587L863 588L858 584L858 581L863 574L863 565L866 562L871 562L872 564L872 560L875 556L866 554L861 551L858 552L856 550L859 548L858 546L856 546L855 540L860 537L860 530L867 514L855 510L848 518L848 516L845 513L843 514L841 512L841 509L843 507L840 503L841 500L845 502L845 500L849 498L847 494L844 495L840 490L840 486L842 484L840 482L835 481L832 487L834 488L834 491L830 495L830 497L826 489L821 496L819 496L813 502L811 502L808 506L804 504L802 498L805 496L805 493L807 493L806 491L810 486L805 489L804 488L808 485L809 481L813 480L814 484L819 482L817 482L817 479L819 478L818 477L822 469L819 466L815 466L815 464L810 466L807 462L808 461L804 460L808 455L805 453L805 449L802 447L800 441L808 436L804 430L804 428L806 428L803 427L805 425L808 426L807 425L809 423L810 417L814 414L814 412L812 413L809 409L808 410L802 406L798 406L798 404L804 405L809 403L813 405L816 401L818 401L826 407L830 408L834 413L836 414L837 412z"/></g><g><path class="class-1 leaflet-clickable" stroke-linejoin="round" stroke-linecap="round" fill-rule="evenodd" stroke="#005540" stroke-opacity="1" stroke-width="0.5" fill="#7fd" fill-opacity="0.5" d="M1017 659L1005 691L1009 698L1009 702L1006 705L1009 712L999 707L979 703L959 704L950 709L948 711L949 712L835 712L819 702L810 701L804 698L805 696L811 695L813 692L811 688L820 685L818 679L823 679L826 672L824 668L825 665L829 664L820 660L819 654L814 653L815 643L814 640L807 633L806 629L810 626L810 624L814 624L816 621L818 624L823 619L829 619L832 620L832 622L837 622L841 617L843 617L839 615L838 618L836 618L837 615L835 609L838 604L845 604L845 609L851 617L853 617L856 613L862 610L866 610L867 608L870 611L873 610L875 607L881 606L886 599L889 600L889 593L888 594L887 591L890 587L894 590L899 591L909 609L912 609L911 610L913 612L915 610L917 612L922 610L928 612L929 620L927 627L924 631L926 631L926 633L933 640L938 640L943 637L944 638L955 630L957 633L953 637L962 648L970 651L969 656L1008 659z"/></g><g><path class="class-1 leaflet-clickable" stroke-linejoin="round" stroke-linecap="round" fill-rule="evenodd" stroke="#005540" stroke-opacity="1" stroke-width="0.5" fill="#7fd" fill-opacity="0.5" d="M761 583L763 589L768 595L778 597L780 600L780 605L784 607L783 609L789 610L789 615L794 616L792 618L799 621L806 618L809 618L810 620L810 626L806 629L808 636L812 637L815 643L814 644L816 650L814 651L814 653L819 654L819 659L829 664L826 665L824 668L826 672L824 677L820 680L818 679L820 684L816 687L811 687L811 689L813 690L811 695L805 696L803 698L794 687L788 688L773 683L758 680L756 681L746 676L744 674L745 673L742 673L734 668L693 654L683 645L673 641L672 638L669 636L666 636L658 628L657 624L645 619L642 619L641 621L641 619L638 617L640 610L648 608L653 604L652 592L657 589L664 589L667 594L683 592L686 594L691 593L695 597L696 595L702 595L705 599L706 598L709 601L711 598L703 591L703 576L706 578L706 580L710 575L718 582L716 587L718 589L718 593L720 592L721 594L720 598L724 600L726 600L726 597L727 598L732 593L734 593L736 589L740 591L743 588L746 588L750 583L753 584L751 581L752 580L755 583L759 585L760 584z"/></g><g><path class="class-1 leaflet-clickable" stroke-linejoin="round" stroke-linecap="round" fill-rule="evenodd" stroke="#005540" stroke-opacity="1" stroke-width="0.5" fill="#7fd" fill-opacity="0.5" d="M1127 654L1129 656L1135 657L1138 664L1142 665L1142 667L1145 669L1144 670L1148 672L1148 670L1151 674L1156 675L1161 679L1163 685L1165 686L1164 689L1165 688L1166 691L1168 690L1171 691L1171 693L1175 694L1173 699L1174 701L1172 702L1174 702L1172 703L1174 705L1172 707L1173 710L1114 710L1112.888888888889 712L1009 712L1006 706L1009 703L1009 698L1005 691L1017 659L1021 654L1025 654L1029 651L1035 639L1036 640L1036 638L1040 634L1039 630L1041 628L1039 628L1041 628L1041 623L1044 619L1050 621L1052 623L1050 625L1051 626L1055 626L1056 628L1054 631L1054 635L1057 641L1059 643L1062 641L1065 645L1064 646L1067 647L1067 649L1069 649L1076 640L1081 638L1082 639L1086 636L1086 632L1089 632L1094 628L1095 629L1102 622L1104 622L1104 624L1110 623L1112 626L1110 631L1118 634L1117 637L1119 640L1116 643L1122 647L1123 646L1127 648L1130 651L1128 652z"/></g><g><path class="class-3 leaflet-clickable" stroke-linejoin="round" stroke-linecap="round" fill-rule="evenodd" stroke="#005540" stroke-opacity="1" stroke-width="0.5" fill="#086" fill-opacity="0.5" d="M29 106L28 107z"/></g><g><path class="class-3 leaflet-clickable" stroke-linejoin="round" stroke-linecap="round" fill-rule="evenodd" stroke="#005540" stroke-opacity="1" stroke-width="0.5" fill="#086" fill-opacity="0.5" d="M45 103L48 109L47 120L45 121L39 117L44 112L44 104z"/></g><g><path class="class-3 leaflet-clickable" stroke-linejoin="round" stroke-linecap="round" fill-rule="evenodd" stroke="#005540" stroke-opacity="1" stroke-width="0.5" fill="#086" fill-opacity="0.5" d="M151 88L153 88L157 92L156 93L152 89z"/></g><g><path class="class-3 leaflet-clickable" stroke-linejoin="round" stroke-linecap="round" fill-rule="evenodd" stroke="#005540" stroke-opacity="1" stroke-width="0.5" fill="#086" fill-opacity="0.5" d="M122 66L123 68z"/></g><g><path class="class-3 leaflet-clickable" stroke-linejoin="round" stroke-linecap="round" fill-rule="evenodd" stroke="#005540" stroke-opacity="1" stroke-width="0.5" fill="#086" fill-opacity="0.5" d="M123 42L130 49L130 55L138 56L138 64L142 68L141 72L122 53L119 47L121 43z"/></g><g><path class="class-3 leaflet-clickable" stroke-linejoin="round" stroke-linecap="round" fill-rule="evenodd" stroke="#005540" stroke-opacity="1" stroke-width="0.5" fill="#086" fill-opacity="0.5" d="M-96 62L-96 65L-93 67L-93 77L-95 77L-100 63L-96 61z"/></g><g><path class="class-3 leaflet-clickable" stroke-linejoin="round" stroke-linecap="round" fill-rule="evenodd" stroke="#005540" stroke-opacity="1" stroke-width="0.5" fill="#086" fill-opacity="0.5" d="M82 19L83 20L81 20z"/></g><g><path class="class-3 leaflet-clickable" stroke-linejoin="round" stroke-linecap="round" fill-rule="evenodd" stroke="#005540" stroke-opacity="1" stroke-width="0.5" fill="#086" fill-opacity="0.5" d="M67 -63L66 -64z"/></g><g><path class="class-3 leaflet-clickable" stroke-linejoin="round" stroke-linecap="round" fill-rule="evenodd" stroke="#005540" stroke-opacity="1" stroke-width="0.5" fill="#086" fill-opacity="0.5" d="M67 -77L71 -71L70 -70L68 -70L65 -73L64 -78L66 -78z"/></g><g><path class="class-3 leaflet-clickable" stroke-linejoin="round" stroke-linecap="round" fill-rule="evenodd" stroke="#005540" stroke-opacity="1" stroke-width="0.5" fill="#086" fill-opacity="0.5" d="M64 -114L58 -113L57 -106L53 -102L53 -100L56 -97L57 -83L63 -78L65 -70L61 -57L60 -42L61 -39L64 -37L63 -34L67 -31L69 -27L69 -15L72 -8L72 5L70 8L76 20L82 24L83 30L87 32L90 31L117 56L118 58L116 60L122 69L122 77L125 75L124 74L129 74L128 75L130 81L135 79L137 81L141 97L146 99L151 98L153 100L152 109L156 113L155 120L157 123L91 123L98 112L95 109L99 98L96 94L93 93L94 92L92 89L89 89L79 74L73 72L73 68L70 65L68 65L67 62L56 51L47 48L41 42L38 42L34 38L32 39L28 34L27 35L23 31L23 24L21 21L19 21L20 14L18 2L13 -3L10 -1L8 -5L7 -23L-3 -33L-6 -33L-4 -42L-14 -57L-18 -59L-18 -61L-22 -65L-20 -65L-20 -70L-24 -74L-19 -74L-18 -79L-24 -82L-25 -85L-31 -89L-30 -91L-32 -99L-33 -101L-38 -103L-41 -112L-41 -116L23 -123L68 -126L64 -119L64 -115z"/></g><g><path class="class-3 leaflet-clickable" stroke-linejoin="round" stroke-linecap="round" fill-rule="evenodd" stroke="#005540" stroke-opacity="1" stroke-width="0.5" fill="#086" fill-opacity="0.5" d="M167 85L167 88L164 88L165 85z"/></g><g><path class="class-3 leaflet-clickable" stroke-linejoin="round" stroke-linecap="round" fill-rule="evenodd" stroke="#005540" stroke-opacity="1" stroke-width="0.5" fill="#086" fill-opacity="0.5" d="M178 59L179 64L183 70L178 84L166 77L170 73L170 62L174 61L175 59L177 60z"/></g><g><path class="class-3 leaflet-clickable" stroke-linejoin="round" stroke-linecap="round" fill-rule="evenodd" stroke="#005540" stroke-opacity="1" stroke-width="0.5" fill="#086" fill-opacity="0.5" d="M70 -75L74 -73L71 -74z"/></g><g><path class="class-3 leaflet-clickable" stroke-linejoin="round" stroke-linecap="round" fill-rule="evenodd" stroke="#005540" stroke-opacity="1" stroke-width="0.5" fill="#086" fill-opacity="0.5" d="M64 -114L234 -52L339 -52L337 -47L333 -46L337 -44L335 -41L339 -40L339 -38L341 -37L340 -36L343 -36L337 -34L337 -29L331 -29L331 -20L334 -18L334 -15L336 -13L341 -13L343 -11L344 -6L346 -6L346 -4L344 -3L346 -1L345 1L347 1L349 4L346 3L345 21L345 29L349 29L349 32L344 34L346 36L344 37L345 45L341 47L343 57L341 57L339 61L342 63L342 76L346 84L347 90L350 94L350 97L351 96L350 101L352 103L349 106L346 105L345 107L340 109L329 108L328 110L327 108L325 110L325 115L327 122L332 126L332 130L334 131L332 133L333 136L339 138L340 143L344 146L347 158L344 161L344 165L347 170L346 171L349 174L354 175L343 192L343 195L338 195L334 197L332 201L336 201L334 202L334 204L328 205L322 210L319 207L317 209L317 202L315 197L309 191L297 191L293 189L289 184L289 180L285 175L285 172L278 168L271 167L264 161L256 158L256 147L254 141L256 131L259 131L257 129L246 127L245 125L242 128L244 128L243 131L239 128L240 127L238 125L234 126L224 118L222 112L215 103L205 99L202 92L194 84L196 82L195 80L190 78L190 76L184 72L184 65L181 62L181 55L173 53L175 46L172 44L172 42L165 34L162 25L158 23L158 10L153 4L152 -4L144 -13L140 -24L142 -30L141 -35L142 -34L144 -38L142 -44L137 -47L118 -52L119 -53L117 -60L105 -67L104 -66L102 -68L100 -60L94 -60L88 -63L80 -70L78 -70L74 -75L70 -75L60 -81L59 -80L57 -83L56 -97L53 -100L53 -102L57 -106L58 -113L64 -114zM244 124L245 124z"/></g><g><path class="class-3 leaflet-clickable" stroke-linejoin="round" stroke-linecap="round" fill-rule="evenodd" stroke="#005540" stroke-opacity="1" stroke-width="0.5" fill="#086" fill-opacity="0.5" d="M292 318L289 318L286 312L286 307L291 315z"/></g><g><path class="class-3 leaflet-clickable" stroke-linejoin="round" stroke-linecap="round" fill-rule="evenodd" stroke="#005540" stroke-opacity="1" stroke-width="0.5" fill="#086" fill-opacity="0.5" d="M267 299L270 302L268 305L265 302L265 299z"/></g><g><path class="class-3 leaflet-clickable" stroke-linejoin="round" stroke-linecap="round" fill-rule="evenodd" stroke="#005540" stroke-opacity="1" stroke-width="0.5" fill="#086" fill-opacity="0.5" d="M265 296L266 298L264 297z"/></g><g><path class="class-3 leaflet-clickable" stroke-linejoin="round" stroke-linecap="round" fill-rule="evenodd" stroke="#005540" stroke-opacity="1" stroke-width="0.5" fill="#086" fill-opacity="0.5" d="M251 270L252 273L255 273L257 275L259 281L257 282L250 273z"/></g><g><path class="class-3 leaflet-clickable" stroke-linejoin="round" stroke-linecap="round" fill-rule="evenodd" stroke="#005540" stroke-opacity="1" stroke-width="0.5" fill="#086" fill-opacity="0.5" d="M251 260L251 262L251 260z"/></g><g><path class="class-3 leaflet-clickable" stroke-linejoin="round" stroke-linecap="round" fill-rule="evenodd" stroke="#005540" stroke-opacity="1" stroke-width="0.5" fill="#086" fill-opacity="0.5" d="M248 239L248 245L246 241z"/></g><g><path class="class-3 leaflet-clickable" stroke-linejoin="round" stroke-linecap="round" fill-rule="evenodd" stroke="#005540" stroke-opacity="1" stroke-width="0.5" fill="#086" fill-opacity="0.5" d="M236 239L237 242L235 242L235 240z"/></g><g><path class="class-3 leaflet-clickable" stroke-linejoin="round" stroke-linecap="round" fill-rule="evenodd" stroke="#005540" stroke-opacity="1" stroke-width="0.5" fill="#086" fill-opacity="0.5" d="M235 221L234 225L232 225L227 234L228 228L230 226L229 223L233 222z"/></g><g><path class="class-3 leaflet-clickable" stroke-linejoin="round" stroke-linecap="round" fill-rule="evenodd" stroke="#005540" stroke-opacity="1" stroke-width="0.5" fill="#086" fill-opacity="0.5" d="M225 218L224 219L225 218z"/></g><g><path class="class-3 leaflet-clickable" stroke-linejoin="round" stroke-linecap="round" fill-rule="evenodd" stroke="#005540" stroke-opacity="1" stroke-width="0.5" fill="#086" fill-opacity="0.5" d="M188 161L190 163L189 165L188 161z"/></g><g><path class="class-3 leaflet-clickable" stroke-linejoin="round" stroke-linecap="round" fill-rule="evenodd" stroke="#005540" stroke-opacity="1" stroke-width="0.5" fill="#086" fill-opacity="0.5" d="M194 152L193 152z"/></g><g><path class="class-3 leaflet-clickable" stroke-linejoin="round" stroke-linecap="round" fill-rule="evenodd" stroke="#005540" stroke-opacity="1" stroke-width="0.5" fill="#086" fill-opacity="0.5" d="M46 129L48 129L46 129z"/></g><g><path class="class-3 leaflet-clickable" stroke-linejoin="round" stroke-linecap="round" fill-rule="evenodd" stroke="#005540" stroke-opacity="1" stroke-width="0.5" fill="#086" fill-opacity="0.5" d="M91 123L157 123L157 130L161 137L165 141L168 141L176 146L177 152L183 161L182 163L185 166L194 169L191 172L191 176L194 178L194 180L196 180L196 182L200 179L212 190L211 196L217 198L216 204L220 209L219 212L223 220L221 226L223 236L228 240L228 244L232 249L237 249L236 252L240 260L241 268L246 274L247 273L253 285L249 293L249 298L252 302L252 308L255 313L261 316L268 317L269 314L267 310L269 308L272 308L275 313L282 317L283 323L286 324L290 322L292 324L290 328L296 335L297 343L307 347L306 349L309 353L309 360L306 367L302 371L296 373L287 381L282 380L278 374L274 357L267 346L255 340L238 322L226 314L213 307L208 307L205 310L187 297L184 293L186 291L185 289L182 286L178 286L186 262L187 235L184 230L184 227L178 221L174 213L170 213L162 208L161 209L140 191L134 189L130 184L124 184L120 189L118 189L112 183L112 180L109 176L104 174L101 175L93 167L89 166L87 168L86 166L81 165L81 163L79 163L78 154L68 147L64 142L55 137L52 131L53 130L56 132L60 131L63 133L65 132L69 134L78 134L86 129L87 130L90 124z"/></g></svg>