<svg xmlns="http://www.w3.org/2000/svg" class="leaflet-zoom-animated" width="1973" height="898" viewBox="34 -627 1973 898" style="transform: translate3d(34px, -627px, 0px);"><g><path class="class-3 leaflet-clickable" stroke-linejoin="round" stroke-linecap="round" fill-rule="evenodd" stroke="#005540" stroke-opacity="1" stroke-width="0.5" fill="#086" fill-opacity="0.5" d="M0 0"/></g><g><path class="class-1 leaflet-clickable" stroke-linejoin="round" stroke-linecap="round" fill-rule="evenodd" stroke="#005540" stroke-opacity="1" stroke-width="0.5" fill="#7fd" fill-opacity="0.5" d="M0 0"/></g><g><path class="class-1 leaflet-clickable" stroke-linejoin="round" stroke-linecap="round" fill-rule="evenodd" stroke="#005540" stroke-opacity="1" stroke-width="0.5" fill="#7fd" fill-opacity="0.5" d="M1908 211L1908 235L1899 252L1889 262L1887 262L1881 270L1802 271L1803 270L1796 260L1793 263L1788 263L1788 261L1785 261L1785 258L1778 257L1779 237L1789 229L1802 223L1849 216L1859 210L1870 207L1875 208L1879 205L1889 205L1901 210L1908 211z"/></g><g><path class="class-1 leaflet-clickable" stroke-linejoin="round" stroke-linecap="round" fill-rule="evenodd" stroke="#005540" stroke-opacity="1" stroke-width="0.5" fill="#7fd" fill-opacity="0.5" d="M1808 156L1810 156L1815 161L1813 168L1806 162L1808 162L1809 160L1808 157L1806 158L1807 156L1808 157z"/></g><g><path class="class-1 leaflet-clickable" stroke-linejoin="round" stroke-linecap="round" fill-rule="evenodd" stroke="#005540" stroke-opacity="1" stroke-width="0.5" fill="#7fd" fill-opacity="0.5" d="M0 0"/></g><g><path class="class-1 leaflet-clickable" stroke-linejoin="round" stroke-linecap="round" fill-rule="evenodd" stroke="#005540" stroke-opacity="1" stroke-width="0.5" fill="#7fd" fill-opacity="0.5" d="M0 0"/></g><g><path class="class-1 leaflet-clickable" stroke-linejoin="round" stroke-linecap="round" fill-rule="evenodd" stroke="#005540" stroke-opacity="1" stroke-width="0.5" fill="#7fd" fill-opacity="0.5" d="M1945 256L1933 271L1931 266L1934 259L1937 256L1939 258L1945 255z"/></g><g><path class="class-1 leaflet-clickable" stroke-linejoin="round" stroke-linecap="round" fill-rule="evenodd" stroke="#005540" stroke-opacity="1" stroke-width="0.5" fill="#7fd" fill-opacity="0.5" d="M1868 271L1881 270L1899 252L1908 235L1908 211L1910 211L1911 213L1913 212L1917 214L1924 214L1927 213L1929 206L1930 208L1935 210L1939 219L1939 223L1942 219L1941 215L1942 216L1941 226L1942 228L1944 228L1943 234L1941 234L1938 243L1931 252L1920 262L1915 271z"/></g><g><path class="class-1 leaflet-clickable" stroke-linejoin="round" stroke-linecap="round" fill-rule="evenodd" stroke="#005540" stroke-opacity="1" stroke-width="0.5" fill="#7fd" fill-opacity="0.5" d="M1928 206L1926 208L1916 210L1917 208L1920 209L1927 206z"/></g><g><path class="class-2 leaflet-clickable" stroke-linejoin="round" stroke-linecap="round" fill-rule="evenodd" stroke="#005540" stroke-opacity="1" stroke-width="0.5" fill="#00cc99" fill-opacity="0.5" d="M1778 243L1778 257L1785 257L1785 261L1788 261L1788 263L1793 263L1796 260L1803 270L1802 271L1774 271L1773 260L1776 253L1777 244z"/></g><g><path class="class-2 leaflet-clickable" stroke-linejoin="round" stroke-linecap="round" fill-rule="evenodd" stroke="#005540" stroke-opacity="1" stroke-width="0.5" fill="#00cc99" fill-opacity="0.5" d="M0 0"/></g><g><path class="class-3 leaflet-clickable" stroke-linejoin="round" stroke-linecap="round" fill-rule="evenodd" stroke="#005540" stroke-opacity="1" stroke-width="0.5" fill="#086" fill-opacity="0.5" d="M0 0"/></g><g><path class="class-2 leaflet-clickable" stroke-linejoin="round" stroke-linecap="round" fill-rule="evenodd" stroke="#005540" stroke-opacity="1" stroke-width="0.5" fill="#00cc99" fill-opacity="0.5" d="M1442 173L1439 176L1432 169L1429 169L1422 163L1417 165L1417 167L1410 165L1407 167L1401 166L1398 168L1391 169L1389 167L1376 166L1372 156L1369 155L1369 153L1367 154L1364 149L1362 150L1364 156L1355 153L1350 154L1346 149L1337 149L1340 146L1339 141L1336 141L1336 138L1339 134L1336 131L1337 122L1334 120L1337 117L1344 118L1343 109L1347 99L1358 99L1364 93L1366 94L1364 89L1356 81L1360 68L1357 62L1354 63L1353 60L1359 56L1361 57L1364 55L1366 51L1373 47L1377 49L1377 44L1379 42L1379 34L1382 34L1383 31L1385 31L1385 34L1389 34L1413 15L1413 13L1405 13L1405 -14L1394 -16L1391 -12L1385 -18L1379 -16L1377 -26L1370 -30L1368 -29L1367 -31L1368 -43L1362 -47L1356 -47L1360 -57L1357 -59L1352 -58L1351 -60L1353 -60L1357 -67L1352 -78L1352 -86L1345 -89L1344 -92L1353 -99L1357 -96L1359 -97L1363 -93L1362 -90L1365 -89L1362 -80L1364 -80L1367 -73L1366 -65L1372 -59L1371 -58L1374 -57L1379 -40L1382 -39L1381 -35L1383 -33L1384 -34L1394 -31L1395 -32L1401 -26L1405 -26L1408 -24L1411 -25L1414 -21L1423 -16L1441 -16L1447 -14L1458 -5L1460 -5L1461 -9L1471 -11L1470 1L1455 31L1447 59L1444 80L1444 104L1442 118L1443 142L1438 158L1440 171z"/></g><g><path class="class-0 leaflet-clickable" stroke-linejoin="round" stroke-linecap="round" fill-rule="evenodd" stroke="#005540" stroke-opacity="1" stroke-width="0.5" fill="#ddfff6" fill-opacity="0.5" d="M1348 -103L1349 -104L1353 -99L1344 -92L1345 -89L1352 -86L1352 -78L1357 -67L1353 -60L1351 -60L1352 -58L1357 -59L1360 -57L1358 -50L1356 -48L1362 -47L1368 -43L1367 -31L1368 -29L1370 -30L1377 -26L1379 -16L1385 -18L1391 -12L1394 -16L1405 -14L1405 13L1413 13L1413 15L1389 34L1385 34L1386 33L1384 31L1382 34L1379 34L1379 42L1377 44L1378 49L1373 47L1368 51L1364 52L1363 56L1360 56L1353 60L1354 63L1357 62L1360 68L1356 81L1362 86L1366 94L1364 93L1359 99L1347 99L1343 109L1344 118L1337 117L1334 120L1337 122L1336 125L1331 125L1331 122L1324 124L1324 128L1326 127L1326 129L1319 127L1320 119L1317 116L1318 112L1320 112L1319 107L1321 103L1319 102L1318 97L1316 95L1317 80L1313 79L1314 76L1312 76L1314 70L1313 67L1309 63L1307 64L1304 60L1305 50L1303 46L1308 41L1304 37L1304 29L1309 25L1314 24L1326 28L1326 26L1329 27L1330 24L1326 20L1319 20L1320 17L1315 14L1315 12L1313 12L1317 11L1309 9L1308 5L1305 5L1302 -4L1303 -9L1300 -11L1299 -17L1292 -23L1286 -32L1307 -50L1309 -44L1316 -54L1316 -65L1309 -70L1307 -67L1305 -67L1303 -74L1310 -81L1322 -84L1325 -99L1332 -105L1341 -95L1344 -99z"/></g><g><path class="class-1 leaflet-clickable" stroke-linejoin="round" stroke-linecap="round" fill-rule="evenodd" stroke="#005540" stroke-opacity="1" stroke-width="0.5" fill="#7fd" fill-opacity="0.5" d="M1348 -103L1341 -95L1332 -105L1325 -99L1322 -84L1310 -81L1303 -74L1303 -68L1305 -66L1307 -66L1307 -68L1309 -69L1316 -66L1316 -54L1309 -44L1307 -50L1286 -32L1292 -23L1299 -17L1300 -11L1303 -10L1302 -4L1305 5L1308 5L1309 9L1316 11L1313 12L1315 12L1314 14L1320 16L1319 20L1326 20L1330 24L1330 26L1326 26L1326 28L1314 24L1309 25L1304 29L1304 37L1308 41L1303 46L1305 50L1304 60L1300 58L1297 60L1292 58L1285 48L1277 48L1274 51L1267 49L1266 47L1268 48L1268 46L1266 44L1260 44L1257 36L1246 34L1239 31L1229 31L1230 37L1219 34L1210 50L1208 48L1200 46L1193 39L1193 37L1181 23L1183 21L1183 18L1186 17L1188 19L1189 17L1182 10L1185 8L1190 -1L1188 -20L1192 -28L1190 -31L1187 -44L1172 -50L1166 -59L1166 -61L1170 -65L1170 -68L1168 -70L1168 -77L1167 -76L1167 -78L1164 -80L1165 -95L1162 -105L1163 -106L1161 -106L1161 -113L1164 -111L1164 -113L1162 -114L1169 -131L1177 -148L1179 -147L1190 -167L1199 -166L1200 -170L1205 -175L1204 -176L1207 -176L1208 -179L1210 -179L1210 -186L1211 -185L1211 -187L1213 -188L1213 -194L1219 -206L1225 -206L1228 -208L1231 -207L1235 -213L1247 -208L1251 -210L1262 -207L1269 -207L1270 -209L1271 -207L1274 -208L1279 -202L1282 -201L1282 -197L1283 -200L1284 -199L1285 -194L1293 -191L1295 -186L1305 -180L1306 -176L1311 -171L1311 -164L1317 -157L1316 -156L1318 -154L1318 -149L1323 -146L1322 -144L1326 -141L1325 -136L1328 -132L1327 -130L1331 -127L1331 -125L1337 -123L1346 -110L1346 -105L1348 -105z"/></g><g><path class="class-3 leaflet-clickable" stroke-linejoin="round" stroke-linecap="round" fill-rule="evenodd" stroke="#005540" stroke-opacity="1" stroke-width="0.5" fill="#086" fill-opacity="0.5" d="M632 -132L631 -131z"/></g><g><path class="class-3 leaflet-clickable" stroke-linejoin="round" stroke-linecap="round" fill-rule="evenodd" stroke="#005540" stroke-opacity="1" stroke-width="0.5" fill="#086" fill-opacity="0.5" d="M648 -135L651 -129L650 -118L648 -117L642 -121L647 -126L647 -134z"/></g><g><path class="class-3 leaflet-clickable" stroke-linejoin="round" stroke-linecap="round" fill-rule="evenodd" stroke="#005540" stroke-opacity="1" stroke-width="0.5" fill="#086" fill-opacity="0.5" d="M754 -150L756 -150L760 -146L759 -145L755 -149z"/></g><g><path class="class-3 leaflet-clickable" stroke-linejoin="round" stroke-linecap="round" fill-rule="evenodd" stroke="#005540" stroke-opacity="1" stroke-width="0.5" fill="#086" fill-opacity="0.5" d="M725 -172L726 -170z"/></g><g><path class="class-3 leaflet-clickable" stroke-linejoin="round" stroke-linecap="round" fill-rule="evenodd" stroke="#005540" stroke-opacity="1" stroke-width="0.5" fill="#086" fill-opacity="0.5" d="M726 -196L733 -189L733 -183L741 -182L741 -174L745 -170L744 -166L725 -185L722 -191L724 -195z"/></g><g><path class="class-3 leaflet-clickable" stroke-linejoin="round" stroke-linecap="round" fill-rule="evenodd" stroke="#005540" stroke-opacity="1" stroke-width="0.5" fill="#086" fill-opacity="0.5" d="M507 -176L507 -173L510 -171L510 -161L508 -161L503 -175L507 -177z"/></g><g><path class="class-3 leaflet-clickable" stroke-linejoin="round" stroke-linecap="round" fill-rule="evenodd" stroke="#005540" stroke-opacity="1" stroke-width="0.5" fill="#086" fill-opacity="0.5" d="M685 -219L686 -218L684 -218z"/></g><g><path class="class-3 leaflet-clickable" stroke-linejoin="round" stroke-linecap="round" fill-rule="evenodd" stroke="#005540" stroke-opacity="1" stroke-width="0.5" fill="#086" fill-opacity="0.5" d="M670 -301L669 -302z"/></g><g><path class="class-3 leaflet-clickable" stroke-linejoin="round" stroke-linecap="round" fill-rule="evenodd" stroke="#005540" stroke-opacity="1" stroke-width="0.5" fill="#086" fill-opacity="0.5" d="M670 -315L674 -309L673 -308L671 -308L668 -311L667 -316L669 -316z"/></g><g><path class="class-3 leaflet-clickable" stroke-linejoin="round" stroke-linecap="round" fill-rule="evenodd" stroke="#005540" stroke-opacity="1" stroke-width="0.5" fill="#086" fill-opacity="0.5" d="M667 -352L661 -351L660 -344L656 -340L656 -338L659 -335L660 -321L666 -316L668 -308L664 -295L663 -280L664 -277L667 -275L666 -272L670 -269L672 -265L672 -253L675 -246L675 -233L673 -230L679 -218L685 -214L686 -208L690 -206L693 -207L720 -182L721 -180L719 -178L725 -169L725 -161L728 -163L727 -164L732 -164L731 -163L733 -157L738 -159L740 -157L744 -141L749 -139L754 -140L756 -138L755 -129L759 -125L758 -118L760 -115L694 -115L701 -126L698 -129L702 -140L699 -144L696 -145L697 -146L695 -149L692 -149L682 -164L676 -166L676 -170L673 -173L671 -173L670 -176L659 -187L650 -190L644 -196L641 -196L637 -200L635 -199L631 -204L630 -203L626 -207L626 -214L624 -217L622 -217L623 -224L621 -236L616 -241L613 -239L611 -243L610 -261L600 -271L597 -271L599 -280L589 -295L585 -297L585 -299L581 -303L583 -303L583 -308L579 -312L584 -312L585 -317L579 -320L578 -323L572 -327L573 -329L571 -337L570 -339L565 -341L562 -350L562 -354L626 -361L671 -364L667 -357L667 -353z"/></g><g><path class="class-1 leaflet-clickable" stroke-linejoin="round" stroke-linecap="round" fill-rule="evenodd" stroke="#005540" stroke-opacity="1" stroke-width="0.5" fill="#7fd" fill-opacity="0.5" d="M1351 211L1350 218L1352 221L1356 220L1355 224L1349 227L1342 224L1340 226L1341 233L1338 234L1336 239L1330 237L1329 239L1327 238L1326 240L1322 241L1319 239L1320 240L1315 243L1316 247L1314 248L1314 250L1319 256L1319 265L1321 265L1326 271L1275 271L1275 268L1269 268L1266 271L1252 271L1253 270L1251 266L1249 267L1249 265L1245 265L1252 255L1252 253L1247 248L1246 244L1252 238L1253 239L1255 232L1256 230L1258 230L1257 228L1260 226L1260 224L1266 221L1266 217L1264 216L1268 215L1269 213L1266 209L1269 205L1269 197L1281 194L1288 198L1296 198L1303 203L1302 205L1314 210L1320 209L1320 203L1325 201L1332 204L1333 203L1333 205L1338 210L1343 209L1342 210L1344 213L1349 213L1351 212L1350 211z"/></g><g><path class="class-3 leaflet-clickable" stroke-linejoin="round" stroke-linecap="round" fill-rule="evenodd" stroke="#005540" stroke-opacity="1" stroke-width="0.5" fill="#086" fill-opacity="0.5" d="M1347 271L1349 271L1342 271L1346 271z"/></g><g><path class="class-2 leaflet-clickable" stroke-linejoin="round" stroke-linecap="round" fill-rule="evenodd" stroke="#005540" stroke-opacity="1" stroke-width="0.5" fill="#00cc99" fill-opacity="0.5" d="M0 0"/></g><g><path class="class-2 leaflet-clickable" stroke-linejoin="round" stroke-linecap="round" fill-rule="evenodd" stroke="#005540" stroke-opacity="1" stroke-width="0.5" fill="#00cc99" fill-opacity="0.5" d="M0 0"/></g><g><path class="class-1 leaflet-clickable" stroke-linejoin="round" stroke-linecap="round" fill-rule="evenodd" stroke="#005540" stroke-opacity="1" stroke-width="0.5" fill="#7fd" fill-opacity="0.5" d="M1384 221L1384 228L1378 228L1375 230L1372 228L1368 231L1370 233L1368 236L1368 240L1364 243L1362 248L1364 252L1349 257L1347 271L1329 271L1323 268L1322 265L1319 265L1319 256L1314 250L1314 248L1316 248L1315 244L1320 239L1322 241L1329 239L1329 237L1336 239L1338 237L1337 236L1341 233L1340 230L1342 224L1346 227L1355 224L1356 220L1352 221L1350 218L1352 207L1356 207L1364 215L1365 213L1368 214L1369 208L1372 209L1374 205L1377 203L1381 207L1380 209L1382 217L1380 219L1383 221z"/></g><g><path class="class-2 leaflet-clickable" stroke-linejoin="round" stroke-linecap="round" fill-rule="evenodd" stroke="#005540" stroke-opacity="1" stroke-width="0.5" fill="#00cc99" fill-opacity="0.5" d="M1433 259L1427 265L1427 267L1423 270L1421 269L1420 271L1423 271L1347 271L1349 257L1353 257L1358 254L1359 255L1361 252L1364 252L1362 247L1364 246L1369 237L1369 230L1371 230L1372 228L1375 230L1383 227L1384 228L1384 221L1389 220L1390 224L1393 227L1401 225L1402 226L1405 224L1405 221L1401 219L1407 216L1411 217L1407 222L1411 223L1410 224L1413 228L1418 226L1418 228L1422 228L1425 231L1425 233L1422 236L1422 240L1420 240L1420 243L1422 244L1420 246L1417 246L1416 245L1418 244L1415 242L1412 243L1411 247L1407 250L1408 252L1412 248L1409 252L1410 255L1408 255L1407 259L1405 259L1408 267L1411 268L1420 259L1424 258L1429 251L1432 258z"/></g><g><path class="class-3 leaflet-clickable" stroke-linejoin="round" stroke-linecap="round" fill-rule="evenodd" stroke="#005540" stroke-opacity="1" stroke-width="0.5" fill="#086" fill-opacity="0.5" d="M0 0"/></g><g><path class="class-3 leaflet-clickable" stroke-linejoin="round" stroke-linecap="round" fill-rule="evenodd" stroke="#005540" stroke-opacity="1" stroke-width="0.5" fill="#086" fill-opacity="0.5" d="M1424 271L1419 271L1420 269L1423 270L1424 267L1426 267L1433 259L1433 257L1436 255L1437 253L1435 249L1437 243L1443 244L1445 246L1443 250L1444 252L1447 257L1450 256L1453 260L1448 262L1448 264L1445 262L1443 264L1446 269L1444 271z"/></g><g><path class="class-3 leaflet-clickable" stroke-linejoin="round" stroke-linecap="round" fill-rule="evenodd" stroke="#005540" stroke-opacity="1" stroke-width="0.5" fill="#086" fill-opacity="0.5" d="M1442 173L1442 180L1449 194L1459 205L1462 206L1458 224L1469 248L1469 252L1486 271L1444 271L1446 269L1443 265L1444 262L1448 264L1448 262L1452 260L1450 256L1447 257L1443 252L1443 248L1445 246L1443 244L1438 243L1435 249L1437 250L1437 253L1433 257L1433 259L1429 251L1424 258L1422 258L1416 264L1414 264L1411 268L1407 266L1405 260L1408 258L1408 255L1410 255L1409 253L1413 248L1408 251L1407 250L1411 247L1412 243L1414 242L1416 242L1417 246L1422 244L1420 244L1420 241L1422 240L1421 239L1425 231L1422 228L1418 228L1418 226L1413 228L1410 224L1411 223L1407 222L1411 217L1408 215L1408 211L1405 209L1403 203L1411 198L1407 192L1407 190L1409 190L1406 189L1408 187L1411 188L1410 187L1412 185L1413 179L1417 176L1417 174L1415 175L1412 171L1411 172L1405 168L1401 168L1401 166L1407 167L1412 165L1416 167L1419 163L1421 163L1429 169L1433 170L1437 175L1439 176L1440 174z"/></g><g><path class="class-1 leaflet-clickable" stroke-linejoin="round" stroke-linecap="round" fill-rule="evenodd" stroke="#005540" stroke-opacity="1" stroke-width="0.5" fill="#7fd" fill-opacity="0.5" d="M1325 270L1329 271L1222 271L1230 267L1233 268L1236 266L1240 267L1244 265L1249 265L1249 267L1252 267L1252 271L1266 271L1269 268L1275 268L1274 271L1326 271L1325 270z"/></g><g><path class="class-1 leaflet-clickable" stroke-linejoin="round" stroke-linecap="round" fill-rule="evenodd" stroke="#005540" stroke-opacity="1" stroke-width="0.5" fill="#7fd" fill-opacity="0.5" d="M0 0"/></g><g><path class="class-1 leaflet-clickable" stroke-linejoin="round" stroke-linecap="round" fill-rule="evenodd" stroke="#005540" stroke-opacity="1" stroke-width="0.5" fill="#7fd" fill-opacity="0.5" d="M0 0"/></g><g><path class="class-1 leaflet-clickable" stroke-linejoin="round" stroke-linecap="round" fill-rule="evenodd" stroke="#005540" stroke-opacity="1" stroke-width="0.5" fill="#7fd" fill-opacity="0.5" d="M0 0"/></g><g><path class="class-1 leaflet-clickable" stroke-linejoin="round" stroke-linecap="round" fill-rule="evenodd" stroke="#005540" stroke-opacity="1" stroke-width="0.5" fill="#7fd" fill-opacity="0.5" d="M0 0"/></g><g><path class="class-1 leaflet-clickable" stroke-linejoin="round" stroke-linecap="round" fill-rule="evenodd" stroke="#005540" stroke-opacity="1" stroke-width="0.5" fill="#7fd" fill-opacity="0.5" d="M895 80L892 80L889 74L889 69L894 77z"/></g><g><path class="class-1 leaflet-clickable" stroke-linejoin="round" stroke-linecap="round" fill-rule="evenodd" stroke="#005540" stroke-opacity="1" stroke-width="0.5" fill="#7fd" fill-opacity="0.5" d="M870 61L873 64L871 67L868 64L868 61z"/></g><g><path class="class-1 leaflet-clickable" stroke-linejoin="round" stroke-linecap="round" fill-rule="evenodd" stroke="#005540" stroke-opacity="1" stroke-width="0.5" fill="#7fd" fill-opacity="0.5" d="M868 58L869 60L867 59z"/></g><g><path class="class-1 leaflet-clickable" stroke-linejoin="round" stroke-linecap="round" fill-rule="evenodd" stroke="#005540" stroke-opacity="1" stroke-width="0.5" fill="#7fd" fill-opacity="0.5" d="M854 32L855 35L858 35L860 37L862 43L860 44L853 35z"/></g><g><path class="class-1 leaflet-clickable" stroke-linejoin="round" stroke-linecap="round" fill-rule="evenodd" stroke="#005540" stroke-opacity="1" stroke-width="0.5" fill="#7fd" fill-opacity="0.5" d="M854 22L854 24L854 22z"/></g><g><path class="class-1 leaflet-clickable" stroke-linejoin="round" stroke-linecap="round" fill-rule="evenodd" stroke="#005540" stroke-opacity="1" stroke-width="0.5" fill="#7fd" fill-opacity="0.5" d="M851 1L851 7L849 3z"/></g><g><path class="class-1 leaflet-clickable" stroke-linejoin="round" stroke-linecap="round" fill-rule="evenodd" stroke="#005540" stroke-opacity="1" stroke-width="0.5" fill="#7fd" fill-opacity="0.5" d="M839 1L840 4L838 4L838 2z"/></g><g><path class="class-1 leaflet-clickable" stroke-linejoin="round" stroke-linecap="round" fill-rule="evenodd" stroke="#005540" stroke-opacity="1" stroke-width="0.5" fill="#7fd" fill-opacity="0.5" d="M838 -17L837 -13L835 -13L830 -4L831 -10L833 -12L832 -15L836 -16z"/></g><g><path class="class-1 leaflet-clickable" stroke-linejoin="round" stroke-linecap="round" fill-rule="evenodd" stroke="#005540" stroke-opacity="1" stroke-width="0.5" fill="#7fd" fill-opacity="0.5" d="M828 -20L827 -19L828 -20z"/></g><g><path class="class-1 leaflet-clickable" stroke-linejoin="round" stroke-linecap="round" fill-rule="evenodd" stroke="#005540" stroke-opacity="1" stroke-width="0.5" fill="#7fd" fill-opacity="0.5" d="M791 -77L793 -75L792 -73L791 -77z"/></g><g><path class="class-1 leaflet-clickable" stroke-linejoin="round" stroke-linecap="round" fill-rule="evenodd" stroke="#005540" stroke-opacity="1" stroke-width="0.5" fill="#7fd" fill-opacity="0.5" d="M797 -86L796 -86z"/></g><g><path class="class-1 leaflet-clickable" stroke-linejoin="round" stroke-linecap="round" fill-rule="evenodd" stroke="#005540" stroke-opacity="1" stroke-width="0.5" fill="#7fd" fill-opacity="0.5" d="M649 -109L651 -109L649 -109z"/></g><g><path class="class-1 leaflet-clickable" stroke-linejoin="round" stroke-linecap="round" fill-rule="evenodd" stroke="#005540" stroke-opacity="1" stroke-width="0.5" fill="#7fd" fill-opacity="0.5" d="M694 -115L760 -115L760 -108L764 -101L768 -97L771 -97L779 -92L780 -86L786 -77L785 -75L788 -72L797 -69L794 -66L794 -62L797 -60L797 -58L799 -58L799 -56L803 -59L815 -48L814 -42L820 -40L819 -34L823 -29L822 -26L826 -18L824 -12L826 -2L831 2L831 6L835 11L840 11L839 14L843 22L844 30L849 36L850 35L856 47L852 55L852 60L855 64L855 70L858 75L864 78L871 79L872 76L870 72L872 70L875 70L878 75L885 79L886 85L889 86L893 84L895 86L893 90L899 97L900 105L910 109L909 111L912 115L912 122L909 129L905 133L899 135L890 143L885 142L881 136L877 119L870 108L858 102L841 84L829 76L816 69L811 69L808 72L790 59L787 55L789 53L788 51L785 48L781 48L789 24L790 -3L787 -8L787 -11L781 -17L777 -25L773 -25L765 -30L764 -29L743 -47L737 -49L733 -54L727 -54L723 -49L721 -49L715 -55L715 -58L712 -62L707 -64L704 -63L696 -71L692 -72L690 -70L689 -72L684 -73L684 -75L682 -75L681 -84L671 -91L667 -96L658 -101L655 -107L656 -108L659 -106L663 -107L666 -105L668 -106L672 -104L681 -104L689 -109L690 -108L693 -114z"/></g><g><path class="class-1 leaflet-clickable" stroke-linejoin="round" stroke-linecap="round" fill-rule="evenodd" stroke="#005540" stroke-opacity="1" stroke-width="0.5" fill="#7fd" fill-opacity="0.5" d="M1216 200L1218 200L1218 198L1225 199L1235 205L1236 203L1240 203L1240 201L1244 200L1248 193L1257 191L1257 189L1255 189L1256 185L1262 186L1266 191L1269 190L1272 196L1269 197L1269 205L1267 209L1269 215L1264 216L1266 217L1266 221L1260 223L1258 230L1255 231L1256 232L1254 234L1253 239L1252 238L1248 243L1246 243L1246 246L1252 253L1252 255L1251 257L1249 257L1248 262L1245 265L1242 265L1241 267L1230 267L1224 271L1086 271L1083 268L1082 265L1085 261L1099 259L1102 257L1103 254L1101 251L1102 248L1106 245L1106 242L1111 238L1112 240L1115 240L1121 234L1126 235L1128 238L1133 238L1138 245L1139 244L1145 250L1146 254L1148 249L1146 246L1142 246L1148 240L1149 227L1158 225L1160 223L1167 223L1171 217L1170 216L1172 214L1162 206L1162 202L1164 201L1162 199L1163 198L1156 196L1155 197L1150 194L1150 187L1142 187L1142 179L1144 177L1143 176L1146 169L1149 165L1151 167L1150 162L1155 160L1156 161L1154 169L1158 168L1162 163L1157 155L1158 153L1156 151L1158 149L1170 151L1169 155L1165 158L1165 166L1162 169L1163 175L1165 177L1169 159L1171 158L1176 158L1178 160L1177 170L1175 169L1177 173L1173 180L1174 181L1183 181L1188 174L1190 175L1191 172L1189 172L1188 170L1190 166L1196 167L1197 169L1194 172L1195 173L1200 172L1202 174L1202 176L1199 179L1201 180L1197 183L1199 183L1199 185L1195 186L1196 188L1190 188L1178 197L1180 197L1181 199L1179 206L1177 206L1177 208L1174 208L1172 212L1174 212L1177 216L1178 214L1180 214L1181 217L1178 219L1172 219L1171 221L1175 221L1175 225L1178 229L1185 228L1188 233L1193 231L1199 232L1201 231L1200 229L1202 222L1208 225L1212 220L1215 220L1217 216L1219 218L1221 217L1221 209L1215 205L1215 201z"/></g><g><path class="class-0 leaflet-clickable" stroke-linejoin="round" stroke-linecap="round" fill-rule="evenodd" stroke="#005540" stroke-opacity="1" stroke-width="0.5" fill="#ddfff6" fill-opacity="0.5" d="M1256 185L1255 188L1257 191L1249 193L1243 201L1240 201L1240 203L1236 203L1236 205L1225 199L1219 198L1218 200L1216 200L1211 194L1213 186L1218 181L1221 175L1219 174L1219 172L1226 172L1236 165L1242 168L1243 172L1248 172L1250 175L1250 178L1248 179L1256 184z"/></g><g><path class="class-2 leaflet-clickable" stroke-linejoin="round" stroke-linecap="round" fill-rule="evenodd" stroke="#005540" stroke-opacity="1" stroke-width="0.5" fill="#00cc99" fill-opacity="0.5" d="M1336 125L1335 129L1340 134L1338 135L1338 137L1336 137L1336 141L1339 141L1340 146L1336 149L1346 149L1350 154L1355 153L1362 156L1364 156L1362 152L1362 150L1364 149L1367 154L1369 153L1369 155L1372 156L1376 166L1384 166L1389 167L1391 169L1395 169L1400 166L1401 168L1405 168L1408 171L1412 171L1414 173L1413 174L1417 174L1417 176L1412 181L1411 187L1408 187L1406 189L1409 190L1408 189L1407 190L1409 191L1407 192L1411 197L1408 201L1407 200L1403 203L1404 207L1408 211L1409 216L1404 218L1403 217L1401 219L1405 221L1405 224L1403 226L1401 225L1393 227L1389 221L1382 221L1380 219L1382 215L1380 209L1381 207L1378 203L1372 209L1369 208L1368 214L1362 214L1356 207L1352 207L1350 211L1351 212L1345 213L1343 212L1343 209L1338 210L1336 206L1333 206L1333 204L1325 201L1320 203L1320 208L1314 210L1302 205L1303 203L1296 198L1289 198L1281 194L1273 196L1272 195L1274 192L1277 191L1276 190L1280 185L1278 185L1280 180L1279 178L1281 176L1278 173L1276 173L1276 168L1278 169L1278 165L1281 164L1282 157L1278 153L1279 151L1277 149L1273 150L1273 152L1270 154L1266 161L1261 161L1262 163L1257 162L1257 154L1253 154L1244 148L1241 144L1238 133L1240 131L1237 125L1239 121L1238 123L1236 121L1238 120L1239 115L1241 115L1242 119L1260 115L1287 91L1286 79L1292 77L1295 68L1295 70L1298 73L1309 63L1314 70L1312 76L1314 76L1313 79L1317 81L1315 91L1319 102L1321 102L1319 106L1320 112L1318 111L1317 116L1320 119L1319 126L1325 129L1326 127L1324 128L1324 124L1328 122L1331 122L1331 125L1335 125z"/></g><g><path class="class-1 leaflet-clickable" stroke-linejoin="round" stroke-linecap="round" fill-rule="evenodd" stroke="#005540" stroke-opacity="1" stroke-width="0.5" fill="#7fd" fill-opacity="0.5" d="M1304 60L1307 64L1302 70L1298 73L1295 71L1295 69L1292 77L1287 79L1287 91L1285 93L1260 115L1244 119L1242 119L1242 117L1239 115L1236 121L1238 123L1239 121L1237 125L1240 130L1238 135L1241 144L1244 148L1253 154L1257 154L1257 162L1262 163L1261 161L1266 161L1269 157L1268 156L1273 152L1273 150L1277 149L1279 151L1278 153L1282 157L1282 161L1278 164L1278 169L1276 168L1276 173L1278 173L1281 176L1279 178L1280 179L1278 185L1280 185L1277 188L1277 191L1273 193L1273 196L1270 194L1268 190L1266 191L1261 185L1256 185L1248 179L1250 175L1249 172L1243 172L1243 169L1238 168L1236 164L1233 168L1229 169L1226 172L1219 172L1219 174L1221 175L1211 190L1210 194L1216 200L1213 203L1215 203L1215 205L1221 209L1221 216L1219 218L1217 216L1217 218L1211 221L1208 225L1202 222L1200 229L1201 231L1199 232L1194 231L1189 233L1183 228L1178 229L1175 225L1175 221L1171 221L1176 218L1181 218L1180 214L1178 214L1177 216L1172 212L1173 208L1176 208L1177 206L1179 207L1181 200L1180 197L1178 197L1181 194L1182 195L1190 188L1196 188L1195 186L1199 185L1199 183L1197 183L1201 181L1199 179L1202 176L1202 174L1200 172L1195 173L1194 172L1197 169L1197 167L1191 166L1188 168L1188 172L1191 172L1191 174L1187 175L1185 180L1174 181L1173 180L1177 173L1175 169L1177 170L1177 166L1179 165L1177 161L1178 160L1176 158L1172 158L1170 159L1166 169L1167 172L1165 178L1162 170L1165 163L1165 159L1170 155L1169 150L1158 149L1156 151L1160 159L1159 160L1162 163L1158 168L1154 169L1156 166L1155 160L1150 162L1151 167L1149 165L1147 169L1143 166L1145 164L1144 161L1147 157L1147 149L1155 148L1154 142L1151 138L1151 131L1153 128L1154 118L1156 114L1163 109L1164 106L1166 105L1167 107L1169 103L1166 103L1165 101L1167 97L1166 86L1174 80L1175 82L1179 77L1178 74L1181 73L1186 66L1193 65L1200 67L1202 64L1205 66L1206 64L1209 66L1209 64L1212 68L1214 67L1216 69L1228 66L1227 52L1224 42L1219 40L1219 38L1221 38L1219 34L1230 37L1229 31L1239 31L1246 34L1257 36L1260 44L1266 44L1268 46L1268 48L1266 47L1267 49L1274 51L1280 47L1285 48L1292 58L1297 60L1300 58L1304 60z"/></g><g><path class="class-1 leaflet-clickable" stroke-linejoin="round" stroke-linecap="round" fill-rule="evenodd" stroke="#005540" stroke-opacity="1" stroke-width="0.5" fill="#7fd" fill-opacity="0.5" d="M1057 217L1057 219L1055 218L1056 217z"/></g><g><path class="class-1 leaflet-clickable" stroke-linejoin="round" stroke-linecap="round" fill-rule="evenodd" stroke="#005540" stroke-opacity="1" stroke-width="0.5" fill="#7fd" fill-opacity="0.5" d="M1048 211L1051 213L1050 214L1045 212L1047 211z"/></g><g><path class="class-1 leaflet-clickable" stroke-linejoin="round" stroke-linecap="round" fill-rule="evenodd" stroke="#005540" stroke-opacity="1" stroke-width="0.5" fill="#7fd" fill-opacity="0.5" d="M1038 201L1042 202L1045 206L1043 208L1039 206L1038 202z"/></g><g><path class="class-1 leaflet-clickable" stroke-linejoin="round" stroke-linecap="round" fill-rule="evenodd" stroke="#005540" stroke-opacity="1" stroke-width="0.5" fill="#7fd" fill-opacity="0.5" d="M1037 197L1037 199z"/></g><g><path class="class-1 leaflet-clickable" stroke-linejoin="round" stroke-linecap="round" fill-rule="evenodd" stroke="#005540" stroke-opacity="1" stroke-width="0.5" fill="#7fd" fill-opacity="0.5" d="M1143 166L1146 168L1146 171L1142 179L1142 187L1143 188L1145 186L1151 188L1150 194L1152 196L1163 198L1162 199L1164 201L1162 206L1171 214L1170 219L1166 223L1160 223L1155 226L1154 225L1149 227L1149 237L1147 241L1142 244L1142 246L1144 245L1148 249L1147 254L1146 250L1139 244L1138 245L1133 239L1130 239L1123 234L1121 234L1115 239L1109 239L1101 250L1098 247L1095 248L1089 246L1099 235L1099 233L1100 234L1103 231L1102 218L1105 213L1102 209L1101 210L1093 205L1084 187L1083 169L1079 160L1081 163L1083 163L1081 159L1083 157L1085 157L1087 160L1092 161L1094 159L1093 155L1090 152L1090 146L1092 143L1091 140L1095 133L1097 133L1099 140L1113 138L1114 145L1118 147L1118 150L1110 153L1113 157L1114 162L1120 156L1120 154L1122 154L1125 159L1129 160L1129 162L1134 168L1136 169L1142 165z"/></g><g><path class="class-1 leaflet-clickable" stroke-linejoin="round" stroke-linecap="round" fill-rule="evenodd" stroke="#005540" stroke-opacity="1" stroke-width="0.5" fill="#7fd" fill-opacity="0.5" d="M920 -29L922 -31L925 -28L931 -34L937 -34L937 -36L939 -37L935 -37L937 -41L941 -43L946 -43L948 -50L952 -54L951 -55L957 -63L954 -63L956 -66L962 -64L962 -66L966 -66L969 -64L966 -59L973 -57L976 -54L975 -52L977 -52L974 -46L979 -39L976 -35L983 -25L983 -23L986 -22L987 -20L990 -22L995 -22L999 -18L1001 -20L1007 -19L1010 -13L1009 -9L1020 -1L1020 2L1024 2L1024 6L1014 10L1016 13L1013 16L1015 21L1013 21L1017 25L1016 35L1019 36L1021 41L1026 44L1026 47L1029 46L1037 57L1038 61L1042 64L1042 66L1040 67L1044 72L1048 73L1051 72L1053 69L1060 71L1061 70L1068 80L1067 84L1072 88L1070 90L1074 92L1074 94L1070 92L1073 110L1074 107L1076 107L1079 110L1081 116L1080 119L1085 125L1084 130L1086 132L1093 131L1095 133L1095 135L1091 139L1092 143L1090 148L1090 152L1094 159L1092 161L1089 161L1083 157L1081 159L1083 163L1080 162L1074 151L1065 144L1053 130L1048 128L1049 126L1045 122L1046 121L1035 107L1033 107L1027 95L1016 84L978 56L974 48L971 46L967 37L956 24L951 21L940 19L930 15L922 6L914 5L911 -11L920 -29z"/></g><g><path class="class-2 leaflet-clickable" stroke-linejoin="round" stroke-linecap="round" fill-rule="evenodd" stroke="#005540" stroke-opacity="1" stroke-width="0.5" fill="#00cc99" fill-opacity="0.5" d="M1173 -50L1175 -48L1187 -44L1190 -31L1192 -28L1188 -20L1190 -1L1183 10L1189 17L1189 19L1186 17L1183 18L1183 21L1181 23L1200 46L1208 48L1210 50L1219 34L1221 37L1219 38L1219 40L1224 42L1227 52L1228 65L1218 69L1211 67L1209 64L1209 66L1206 64L1205 66L1202 64L1200 67L1194 67L1193 65L1187 66L1181 73L1178 74L1179 77L1175 82L1174 80L1166 86L1167 98L1165 100L1169 103L1167 107L1166 105L1164 106L1164 108L1156 114L1154 118L1153 128L1151 131L1151 140L1154 142L1155 147L1153 149L1150 148L1147 150L1147 157L1144 160L1145 164L1143 166L1142 165L1136 168L1137 169L1133 167L1129 163L1128 158L1125 159L1123 157L1124 155L1122 154L1120 154L1120 156L1114 162L1113 157L1110 154L1111 152L1118 150L1118 147L1114 145L1113 139L1099 140L1097 134L1094 131L1086 132L1084 130L1085 125L1081 121L1079 110L1076 107L1074 107L1073 110L1072 108L1070 92L1074 94L1074 92L1070 90L1072 88L1067 84L1068 80L1061 70L1060 71L1053 69L1052 72L1044 73L1040 67L1042 66L1042 64L1038 61L1036 54L1029 46L1026 47L1024 42L1021 42L1020 37L1016 35L1017 25L1013 21L1015 21L1013 16L1016 12L1014 11L1015 9L1017 10L1024 6L1023 4L1026 5L1028 9L1038 9L1040 5L1047 1L1043 2L1042 -9L1043 -11L1044 -10L1048 -13L1046 -13L1046 -16L1049 -20L1048 -23L1052 -29L1054 -31L1055 -30L1054 -33L1057 -37L1055 -39L1057 -41L1058 -48L1062 -49L1060 -51L1062 -53L1063 -52L1066 -56L1076 -48L1078 -47L1077 -49L1079 -49L1081 -46L1086 -44L1086 -46L1088 -41L1091 -41L1091 -39L1097 -40L1098 -37L1101 -37L1109 -40L1111 -34L1118 -39L1122 -39L1133 -30L1136 -34L1139 -44L1144 -46L1146 -50L1144 -54L1146 -54L1146 -56L1150 -52L1156 -51L1159 -53L1159 -51L1165 -51z"/></g><g><path class="class-1 leaflet-clickable" stroke-linejoin="round" stroke-linecap="round" fill-rule="evenodd" stroke="#005540" stroke-opacity="1" stroke-width="0.5" fill="#7fd" fill-opacity="0.5" d="M770 -153L770 -150L767 -150L768 -153z"/></g><g><path class="class-1 leaflet-clickable" stroke-linejoin="round" stroke-linecap="round" fill-rule="evenodd" stroke="#005540" stroke-opacity="1" stroke-width="0.5" fill="#7fd" fill-opacity="0.5" d="M781 -179L782 -174L786 -168L781 -154L769 -161L773 -165L773 -176L777 -177L778 -179L780 -178z"/></g><g><path class="class-1 leaflet-clickable" stroke-linejoin="round" stroke-linecap="round" fill-rule="evenodd" stroke="#005540" stroke-opacity="1" stroke-width="0.5" fill="#7fd" fill-opacity="0.5" d="M673 -313L677 -311L674 -312z"/></g><g><path class="class-1 leaflet-clickable" stroke-linejoin="round" stroke-linecap="round" fill-rule="evenodd" stroke="#005540" stroke-opacity="1" stroke-width="0.5" fill="#7fd" fill-opacity="0.5" d="M667 -352L837 -290L942 -290L940 -285L936 -284L940 -282L938 -279L942 -278L942 -276L944 -275L943 -274L946 -274L940 -272L940 -267L934 -267L934 -258L937 -256L937 -253L939 -251L944 -251L946 -249L947 -244L949 -244L949 -242L947 -241L949 -239L948 -237L950 -237L952 -234L949 -235L948 -217L948 -209L952 -209L952 -206L947 -204L949 -202L947 -201L948 -193L944 -191L946 -181L944 -181L942 -177L945 -175L945 -162L949 -154L950 -148L953 -144L953 -141L954 -142L953 -137L955 -135L952 -132L949 -133L948 -131L943 -129L932 -130L931 -128L930 -130L928 -128L928 -123L930 -116L935 -112L935 -108L937 -107L935 -105L936 -102L942 -100L943 -95L947 -92L950 -80L947 -77L947 -73L950 -68L949 -67L952 -64L957 -63L946 -46L946 -43L941 -43L937 -41L935 -37L939 -37L937 -36L937 -34L931 -33L925 -28L922 -31L920 -29L920 -36L918 -41L912 -47L900 -47L896 -49L892 -54L892 -58L888 -63L888 -66L881 -70L874 -71L867 -77L859 -80L859 -91L857 -97L859 -107L862 -107L860 -109L849 -111L848 -113L845 -110L847 -110L846 -107L842 -110L843 -111L841 -113L837 -112L827 -120L825 -126L818 -135L808 -139L805 -146L797 -154L799 -156L798 -158L793 -160L793 -162L787 -166L787 -173L784 -176L784 -183L776 -185L778 -192L775 -194L775 -196L768 -204L765 -213L761 -215L761 -228L756 -234L755 -242L747 -251L743 -262L745 -268L744 -273L745 -272L747 -276L745 -282L740 -285L721 -290L722 -291L720 -298L708 -305L707 -304L705 -306L703 -298L697 -298L691 -301L683 -308L681 -308L677 -313L673 -313L663 -319L662 -318L660 -321L659 -335L656 -338L656 -340L660 -344L661 -351L667 -352zM847 -114L848 -114z"/></g><g><path class="class-3 leaflet-clickable" stroke-linejoin="round" stroke-linecap="round" fill-rule="evenodd" stroke="#005540" stroke-opacity="1" stroke-width="0.5" fill="#086" fill-opacity="0.5" d="M1190 -167L1181 -150L1179 -147L1178 -148L1176 -146L1177 -145L1162 -114L1164 -113L1164 -111L1161 -112L1161 -106L1163 -106L1162 -105L1164 -102L1165 -92L1164 -80L1167 -78L1167 -76L1168 -77L1168 -70L1170 -68L1170 -65L1166 -61L1166 -59L1170 -55L1172 -50L1159 -51L1159 -53L1156 -51L1150 -52L1146 -56L1146 -54L1144 -54L1146 -50L1144 -46L1139 -44L1133 -30L1123 -39L1116 -38L1111 -34L1109 -40L1101 -37L1097 -38L1097 -40L1091 -39L1091 -41L1088 -41L1086 -46L1086 -44L1083 -44L1080 -49L1078 -49L1078 -47L1066 -56L1063 -52L1062 -53L1060 -51L1062 -49L1059 -48L1055 -39L1057 -37L1054 -33L1055 -30L1054 -31L1048 -23L1049 -20L1046 -16L1046 -13L1048 -13L1044 -10L1043 -11L1042 -9L1043 2L1047 0L1038 8L1028 9L1027 5L1023 4L1023 1L1020 2L1020 -1L1009 -9L1007 -18L1003 -20L999 -18L998 -21L995 -22L990 -22L987 -20L986 -22L983 -23L983 -25L976 -35L979 -38L973 -46L976 -48L977 -52L975 -52L976 -54L973 -57L970 -57L970 -59L966 -59L966 -62L969 -64L967 -66L963 -66L962 -64L955 -66L954 -64L952 -64L949 -66L950 -68L949 -72L947 -73L947 -77L950 -80L947 -91L944 -93L942 -97L943 -98L940 -102L936 -102L935 -104L937 -107L935 -108L935 -112L928 -122L928 -128L930 -130L931 -128L941 -128L948 -131L948 -133L952 -132L955 -135L953 -137L954 -141L950 -148L950 -154L947 -156L948 -157L945 -161L945 -174L942 -177L943 -180L946 -181L944 -191L947 -193L948 -196L947 -200L949 -202L947 -203L952 -206L952 -209L949 -209L948 -211L949 -235L952 -233L951 -236L948 -237L949 -239L947 -241L949 -242L949 -244L947 -244L946 -249L939 -251L934 -260L934 -267L940 -267L940 -272L946 -273L943 -274L944 -275L942 -278L939 -279L940 -282L936 -283L937 -285L940 -285L942 -290L967 -290L967 -314L1044 -314L1046 -312L1047 -313L1053 -308L1059 -297L1064 -293L1068 -293L1078 -281L1084 -278L1088 -272L1093 -267L1095 -267L1095 -264L1104 -261L1114 -254L1119 -246L1121 -239L1126 -232L1128 -216L1134 -204L1141 -197L1141 -195L1147 -194L1152 -187L1157 -184L1166 -182L1175 -175L1179 -175L1187 -168L1189 -170L1190 -168z"/></g></svg>