<svg xmlns="http://www.w3.org/2000/svg" class="leaflet-zoom-animated" width="1978" height="849" viewBox="-319 -137 1978 849" style="transform: translate3d(-319px, -137px, 0px);"><g><path class="class-3 leaflet-clickable" stroke-linejoin="round" stroke-linecap="round" fill-rule="evenodd" stroke="#005540" stroke-opacity="1" stroke-width="0.5" fill="#086" fill-opacity="0.5" d="M820 -19L806 -3L789 -22L774 -10L768 20L744 26L730 40L730 52L733 55L736 54L738 56L738 53L743 49L746 52L757 55L756 80L752 85L750 92L743 99L737 87L696 124L705 135L710 145L714 146L722 154L723 166L730 167L730 176L727 180L733 191L735 198L739 199L743 206L748 205L751 208L757 209L758 211L751 210L749 212L753 213L753 215L757 216L758 219L763 220L765 222L763 229L770 230L776 228L780 230L784 236L782 237L785 241L782 242L776 240L776 244L752 237L741 239L733 246L731 263L740 271L730 280L733 288L732 308L725 306L724 304L719 308L707 304L703 300L696 286L686 283L684 281L678 284L673 289L658 287L656 283L659 284L660 279L655 277L652 279L644 275L637 261L597 250L582 251L583 263L563 256L546 285L546 289L540 285L524 280L509 266L510 264L508 261L508 257L501 251L500 252L496 244L492 242L490 237L487 237L486 233L491 225L496 222L501 225L502 221L499 221L488 209L493 204L494 200L496 200L496 198L500 195L503 186L504 180L501 176L501 147L509 133L504 125L499 101L475 91L474 92L473 89L468 87L464 77L462 77L455 71L457 67L455 67L461 62L462 59L465 58L464 52L461 51L460 38L457 30L453 28L455 4L454 -2L452 -1L451 -7L451 -16L453 -16L448 -22L451 -25L445 -26L447 -28L446 -38L448 -37L447 -35L451 -34L453 -38L448 -40L474 -96L476 -103L478 -102L479 -104L477 -104L478 -109L481 -109L482 -106L485 -112L486 -111L493 -127L495 -130L497 -130L496 -133L499.2 -137L748 -137L752 -134L754 -130L753 -129L756 -128L757 -126L757 -123L760 -119L760 -111L764 -109L766 -104L770 -102L768 -100L770 -96L775 -94L772 -91L775 -89L774 -84L780 -74L779 -72L782 -67L785 -67L787 -63L791 -60L798 -58L807 -42L812 -41L811 -38L813 -34L815 -34L817 -22L819 -21z"/></g><g><path class="class-3 leaflet-clickable" stroke-linejoin="round" stroke-linecap="round" fill-rule="evenodd" stroke="#005540" stroke-opacity="1" stroke-width="0.5" fill="#086" fill-opacity="0.5" d="M820 -19L823 -19L824 -16L831 -10L812 4L813 10L828 15L829 32L835 50L838 53L830 68L827 67L827 71L829 69L834 69L834 71L838 71L843 74L844 77L840 84L841 88L836 92L837 94L848 94L861 101L858 126L860 131L864 128L873 136L879 136L882 156L885 156L887 154L889 155L895 151L906 165L913 157L935 160L935 213L949 213L949 218L903 255L895 255L894 251L892 250L890 255L884 258L882 257L882 260L880 262L882 271L878 277L880 285L877 286L870 282L864 285L861 289L858 289L853 292L851 295L852 298L847 300L847 302L841 300L830 307L831 314L839 312L843 323L843 330L840 335L837 351L845 359L847 359L848 363L852 367L855 376L852 375L844 385L840 387L827 384L818 385L809 407L813 424L798 423L793 428L799 432L796 439L785 437L787 431L780 431L778 436L772 436L773 443L776 443L776 446L762 443L764 426L759 421L761 410L764 411L763 406L761 406L761 402L765 393L761 389L760 383L756 378L758 356L757 351L759 349L750 345L752 345L753 340L748 340L751 323L741 314L738 317L733 307L733 288L730 280L740 271L731 263L733 246L741 239L752 237L776 244L776 240L782 242L785 241L782 237L784 236L783 232L776 228L770 230L763 229L765 222L763 220L758 219L757 216L753 215L753 213L749 212L751 210L758 211L757 209L751 208L748 205L743 206L739 199L735 198L733 191L727 180L731 170L730 167L723 166L722 154L714 146L710 145L705 135L696 124L737 87L743 99L750 92L751 87L756 80L757 55L746 52L744 51L744 49L738 52L738 56L736 54L733 55L730 52L730 40L744 26L768 20L774 -10L789 -22L806 -3L812 -9z"/></g><g><path class="class-3 leaflet-clickable" stroke-linejoin="round" stroke-linecap="round" fill-rule="evenodd" stroke="#005540" stroke-opacity="1" stroke-width="0.5" fill="#086" fill-opacity="0.5" d="M0 0"/></g><g><path class="class-3 leaflet-clickable" stroke-linejoin="round" stroke-linecap="round" fill-rule="evenodd" stroke="#005540" stroke-opacity="1" stroke-width="0.5" fill="#086" fill-opacity="0.5" d="M0 0"/></g><g><path class="class-3 leaflet-clickable" stroke-linejoin="round" stroke-linecap="round" fill-rule="evenodd" stroke="#005540" stroke-opacity="1" stroke-width="0.5" fill="#086" fill-opacity="0.5" d="M636 558L636 561L633 564L635 566L639 566L638 570L635 569L620 575L620 578L617 582L615 582L610 590L604 590L603 594L597 594L596 597L587 594L573 586L569 586L566 583L556 588L549 583L548 580L546 580L547 577L544 576L550 561L555 554L561 550L561 547L563 545L562 543L565 540L563 532L578 532L582 529L581 527L594 522L595 515L597 515L597 519L601 522L601 524L610 526L610 532L616 532L617 530L620 531L622 536L624 537L624 544L620 545L622 545L621 548L627 549L636 556z"/></g><g><path class="class-3 leaflet-clickable" stroke-linejoin="round" stroke-linecap="round" fill-rule="evenodd" stroke="#005540" stroke-opacity="1" stroke-width="0.5" fill="#086" fill-opacity="0.5" d="M0 0"/></g><g><path class="class-3 leaflet-clickable" stroke-linejoin="round" stroke-linecap="round" fill-rule="evenodd" stroke="#005540" stroke-opacity="1" stroke-width="0.5" fill="#086" fill-opacity="0.5" d="M1007 535L1003 537L1003 540L997 539L989 530L991 528L989 526L981 526L980 524L971 519L969 515L965 514L965 516L960 515L958 518L959 520L956 522L953 522L953 519L951 521L948 520L949 518L947 518L946 520L945 518L942 518L934 522L930 520L914 525L908 524L907 526L903 522L891 520L875 520L871 506L867 498L863 499L862 494L857 495L852 487L847 487L852 499L848 500L846 497L835 493L831 496L823 496L820 494L820 489L816 487L809 487L804 489L797 486L803 479L802 470L796 470L796 464L798 465L797 461L799 462L800 459L805 455L799 452L800 450L795 449L795 442L799 432L793 428L798 423L813 424L809 407L818 385L827 384L840 387L844 385L852 375L855 376L852 367L848 363L847 359L845 359L837 351L838 342L843 330L843 323L839 312L831 314L830 307L841 300L847 302L847 300L852 298L851 295L853 292L860 289L864 285L870 283L877 286L880 285L878 277L882 271L880 262L882 260L882 257L884 258L890 255L892 250L895 254L899 256L903 255L949 218L949 213L935 213L935 160L913 157L906 165L895 151L889 155L888 154L882 156L879 136L873 136L864 128L860 131L858 126L861 101L848 94L837 94L836 92L841 88L840 84L844 77L843 74L838 71L834 71L834 69L829 69L827 71L827 67L830 68L838 53L835 50L829 32L828 15L813 10L812 4L831 -10L832 -7L836 -8L836 -5L839 -4L842 -6L844 -3L848 -2L850 3L849 9L853 10L851 26L848 28L852 29L852 32L857 34L856 37L858 42L858 51L856 53L856 58L859 58L862 62L862 67L866 68L868 70L868 74L872 76L875 82L875 86L878 88L882 105L881 107L885 108L887 111L887 118L889 122L893 120L896 122L899 121L901 122L901 124L903 122L907 126L913 124L917 129L919 128L923 133L922 134L926 135L927 138L935 136L936 139L948 139L948 142L953 146L956 145L960 151L963 150L965 154L968 154L970 156L972 154L974 157L976 155L981 155L981 157L984 158L985 155L991 157L999 155L1005 156L1006 158L1010 159L1018 159L1024 166L1029 168L1031 173L1034 172L1034 174L1037 174L1040 178L1045 178L1045 170L1054 168L1053 166L1066 166L1063 193L1035 250L1027 271L1017 312L1013 349L1012 387L1009 424L1010 461L1007 482L1001 499L1002 520L1005 530z"/></g><g><path class="class-3 leaflet-clickable" stroke-linejoin="round" stroke-linecap="round" fill-rule="evenodd" stroke="#005540" stroke-opacity="1" stroke-width="0.5" fill="#086" fill-opacity="0.5" d="M469 88L473 89L474 92L475 91L499 101L504 125L509 133L501 147L501 176L504 180L503 186L500 195L496 198L496 200L494 200L493 204L488 209L499 221L502 221L502 225L496 222L491 225L487 233L487 237L490 237L492 242L496 244L500 252L501 251L508 257L508 261L510 263L509 266L524 280L540 285L546 289L546 285L563 256L566 262L565 265L562 265L562 268L572 272L579 301L580 320L576 320L575 322L569 322L563 325L555 325L552 322L548 324L543 317L542 320L536 317L534 319L529 316L526 320L525 319L524 323L520 320L512 321L510 318L508 320L495 320L491 331L489 331L486 334L481 334L482 343L476 351L475 352L473 348L456 360L455 364L457 366L457 372L455 375L458 382L454 387L456 392L455 395L461 395L460 399L459 401L455 398L449 406L436 416L431 431L430 444L426 449L426 464L428 470L432 473L431 477L433 484L427 486L422 484L420 487L417 488L418 490L416 491L417 493L415 495L418 502L412 508L415 514L413 518L397 523L397 526L389 522L387 515L382 515L381 505L375 506L372 504L371 498L365 496L363 501L354 511L352 511L350 503L344 496L344 494L360 488L358 487L358 480L354 480L352 477L352 473L350 471L351 467L349 464L344 466L324 466L321 468L320 462L318 460L319 456L318 454L315 454L313 450L305 449L302 450L302 452L300 452L292 448L293 439L292 436L287 432L285 425L287 420L283 418L285 416L280 406L277 403L277 401L270 403L269 407L266 394L268 389L263 378L264 372L270 375L272 375L273 372L269 368L265 368L268 364L260 358L259 355L261 352L259 351L256 341L253 341L252 334L246 329L235 325L228 328L227 332L221 334L217 335L211 332L206 325L207 324L205 321L208 319L209 315L203 313L203 310L201 310L195 296L181 281L176 281L174 278L175 276L169 270L167 272L167 269L162 260L157 257L157 244L155 240L158 238L154 236L150 229L153 230L149 221L154 218L156 213L152 211L153 206L157 207L166 203L171 199L169 196L178 198L180 205L198 204L199 206L213 191L217 189L209 193L210 167L218 165L218 150L222 148L220 141L231 126L234 128L235 124L232 125L233 122L236 121L238 114L236 111L237 110L234 110L238 106L238 100L241 93L243 92L242 91L248 89L244 88L244 83L248 83L250 85L255 76L265 84L271 87L272 86L280 95L278 91L283 89L289 97L289 99L296 99L296 97L301 106L306 107L306 109L317 108L319 111L318 112L322 115L324 112L327 115L341 109L346 119L348 117L353 116L360 110L368 110L377 114L382 122L385 124L388 123L389 127L397 118L396 115L402 100L412 95L416 88L413 84L413 81L417 76L421 83L437 86L439 83L442 83L442 85L454 85z"/></g><g><path class="class-3 leaflet-clickable" stroke-linejoin="round" stroke-linecap="round" fill-rule="evenodd" stroke="#005540" stroke-opacity="1" stroke-width="0.5" fill="#086" fill-opacity="0.5" d="M892 631L892 634L890 635L893 641L891 643L885 643L877 648L873 648L869 644L865 648L860 649L861 651L863 651L864 654L859 668L857 668L856 672L853 674L851 679L852 680L847 683L851 691L841 697L837 697L830 701L821 703L820.3076923076923 712L761 712L759 706L760 702L762 702L762 699L761 696L758 693L756 694L755 690L753 690L752 686L756 684L754 680L755 677L753 677L760 673L763 665L765 666L764 668L775 669L782 665L782 661L787 664L793 664L795 666L800 664L798 663L800 662L800 655L804 657L805 655L803 648L807 637L815 640L816 642L821 643L830 635L833 636L833 632L836 629L830 628L828 630L825 627L824 623L826 622L826 610L829 607L829 602L837 603L840 609L848 616L851 617L857 614L859 616L863 609L863 605L864 604L866 606L869 606L872 603L871 599L874 599L877 594L880 594L881 597L885 600L885 613L888 618L888 623L885 623L884 626L887 629L889 629z"/></g><g><path class="class-3 leaflet-clickable" stroke-linejoin="round" stroke-linecap="round" fill-rule="evenodd" stroke="#005540" stroke-opacity="1" stroke-width="0.5" fill="#086" fill-opacity="0.5" d="M733 307L738 317L728 328L720 335L714 329L714 324L709 342L695 347L697 371L684 383L644 418L613 427L608 426L606 418L602 418L601 426L597 430L601 434L602 431L601 434L598 435L597 439L602 441L604 449L600 457L602 457L606 475L612 483L629 497L637 496L635 505L640 506L639 510L643 515L645 512L648 513L647 510L655 510L661 502L661 499L663 500L663 496L670 491L670 487L677 487L682 490L680 494L684 496L688 503L689 510L686 516L681 516L680 525L675 525L675 527L679 533L677 534L680 534L685 540L683 543L685 547L683 556L681 556L680 558L683 558L682 561L678 564L676 567L677 568L671 573L671 576L669 577L670 579L666 579L664 576L663 569L657 569L653 564L646 559L644 560L643 558L636 558L636 556L627 549L621 548L622 545L620 545L624 544L624 537L622 536L621 532L617 530L616 532L610 532L610 526L601 524L601 522L597 519L597 515L595 515L594 522L589 525L581 526L581 530L576 532L563 532L565 540L562 543L563 545L561 547L561 550L555 553L550 561L544 576L546 577L546 580L548 580L549 583L556 588L551 593L553 594L554 600L559 602L560 605L565 606L565 608L567 609L564 615L565 621L562 625L560 625L559 621L557 620L555 627L549 627L550 629L546 630L544 635L542 635L540 638L537 637L537 635L535 635L534 633L532 633L531 635L528 633L525 639L525 645L527 649L526 651L521 653L514 649L512 651L509 650L509 652L507 653L506 652L500 654L494 646L495 645L493 644L487 646L486 644L484 644L481 647L479 646L476 639L473 638L475 635L475 631L470 630L468 632L467 628L469 626L471 627L472 625L477 624L480 626L482 624L485 624L487 621L483 615L478 620L476 616L473 616L472 613L469 613L471 608L470 604L474 602L476 604L479 601L482 602L482 596L486 589L485 583L481 581L485 580L484 578L491 577L494 571L496 569L501 569L502 566L507 561L513 564L515 563L515 560L523 559L523 554L519 553L521 550L525 549L526 547L523 545L523 543L528 537L525 535L524 532L515 531L515 533L513 533L517 523L513 520L507 520L500 524L501 533L503 530L505 530L506 531L504 535L506 536L502 536L498 538L498 540L495 539L493 549L487 550L486 548L484 549L482 547L478 551L473 550L470 548L478 533L476 533L474 529L475 527L477 527L479 520L482 519L480 511L476 505L472 507L465 504L459 517L459 523L456 527L457 532L454 544L449 534L450 532L448 528L452 521L454 521L452 518L454 511L453 509L455 506L454 505L463 499L464 490L453 488L451 489L450 487L439 487L436 491L440 495L440 502L443 502L442 505L444 507L441 508L447 511L448 514L442 520L441 524L437 523L436 525L433 525L433 523L435 523L434 522L437 515L435 508L432 508L429 511L424 510L423 512L425 515L423 516L426 517L427 522L423 519L420 520L417 527L415 527L415 525L410 522L410 520L413 518L415 514L412 508L417 502L417 498L415 495L417 493L416 491L418 490L417 488L422 484L425 486L433 484L431 477L432 473L426 464L426 449L430 444L431 431L434 420L439 413L452 404L455 398L459 401L460 399L461 395L455 395L456 392L454 387L458 383L457 378L455 376L458 366L455 364L456 360L459 360L469 350L473 348L475 352L476 351L482 343L481 334L486 334L489 331L491 331L495 320L508 320L510 318L512 321L518 319L524 323L525 319L526 320L529 316L534 319L536 317L542 320L543 317L548 324L552 322L555 325L563 325L569 322L575 322L576 320L580 320L579 301L572 272L562 268L562 265L565 265L566 262L563 256L583 263L582 251L597 250L637 261L644 275L652 279L655 277L660 279L659 284L656 283L658 287L673 289L678 284L684 281L686 283L695 285L703 300L707 304L719 308L724 304L725 306L732 308z"/></g><g><path class="class-3 leaflet-clickable" stroke-linejoin="round" stroke-linecap="round" fill-rule="evenodd" stroke="#005540" stroke-opacity="1" stroke-width="0.5" fill="#086" fill-opacity="0.5" d="M556 588L566 583L569 586L573 586L587 594L596 597L597 594L603 594L604 590L610 590L615 582L617 582L620 575L635 569L638 570L639 566L635 566L633 564L636 561L636 558L643 558L644 560L646 559L653 564L656 569L663 569L664 576L668 580L662 583L662 586L664 586L661 596L662 597L659 601L660 603L656 607L661 613L662 617L653 620L656 624L656 629L645 633L643 643L642 642L639 645L639 649L635 649L629 665L616 675L617 677L615 679L618 681L618 684L621 684L620 685L622 686L622 691L628 694L627 701L623 703L619 711L293 712L297 709L314 706L317 707L324 704L329 696L328 692L325 690L327 689L329 683L333 680L335 681L335 676L339 669L346 665L348 667L354 667L355 665L360 663L366 656L376 658L375 660L382 665L391 666L396 672L396 674L406 680L407 683L416 689L417 696L419 696L418 692L420 691L420 686L416 679L415 681L412 678L407 679L410 677L409 674L415 673L415 669L417 669L423 663L420 661L420 654L423 646L421 644L423 640L434 640L440 638L440 636L444 633L449 636L458 634L458 632L464 625L464 617L467 617L462 609L460 611L458 610L454 607L455 605L449 601L450 598L448 596L452 590L448 586L449 583L430 581L424 575L426 563L422 562L419 564L416 562L416 560L412 563L409 563L408 550L412 536L416 531L415 527L418 526L420 520L423 519L426 522L426 517L423 516L425 515L423 512L424 510L431 511L432 508L435 508L437 515L434 522L435 523L433 523L433 525L436 525L437 523L441 524L441 520L448 514L447 511L441 508L444 507L442 505L443 502L440 502L440 495L436 491L439 487L450 487L451 489L458 488L464 490L463 499L454 505L454 514L452 516L454 520L452 521L448 528L450 532L449 534L454 544L457 532L456 528L459 523L459 517L463 506L467 504L472 507L476 505L478 506L482 519L480 520L477 527L475 527L474 529L476 533L478 533L470 548L473 550L478 551L482 547L484 549L486 548L486 550L493 549L495 539L498 540L498 538L506 536L504 535L506 531L505 530L503 530L501 533L500 524L507 520L513 520L517 523L513 533L515 533L515 531L524 532L525 535L528 537L523 542L523 545L526 547L525 549L521 550L519 553L523 554L523 559L515 560L515 563L513 564L507 561L502 566L501 569L494 571L491 577L484 578L485 580L481 581L486 586L486 589L482 596L482 602L479 601L477 604L475 602L470 604L471 608L469 613L472 613L473 616L476 616L478 620L483 615L487 621L485 624L482 624L480 626L478 624L472 625L472 627L469 626L467 628L468 632L470 630L475 631L475 635L473 638L476 639L479 646L481 647L486 644L487 646L493 644L495 645L494 646L500 654L506 652L507 653L509 652L509 650L512 651L514 649L521 653L526 651L527 649L524 645L526 643L525 640L528 633L531 635L532 633L534 633L535 635L537 635L537 637L540 638L548 629L550 629L549 627L555 627L557 620L559 621L560 625L562 625L565 622L564 615L567 609L565 608L565 606L560 605L560 602L554 600L553 595L551 593L554 591z"/></g><g><path class="class-3 leaflet-clickable" stroke-linejoin="round" stroke-linecap="round" fill-rule="evenodd" stroke="#005540" stroke-opacity="1" stroke-width="0.5" fill="#086" fill-opacity="0.5" d="M0 0"/></g><g><path class="class-3 leaflet-clickable" stroke-linejoin="round" stroke-linecap="round" fill-rule="evenodd" stroke="#005540" stroke-opacity="1" stroke-width="0.5" fill="#086" fill-opacity="0.5" d="M0 0"/></g><g><path class="class-3 leaflet-clickable" stroke-linejoin="round" stroke-linecap="round" fill-rule="evenodd" stroke="#005540" stroke-opacity="1" stroke-width="0.5" fill="#086" fill-opacity="0.5" d="M0 0"/></g><g><path class="class-3 leaflet-clickable" stroke-linejoin="round" stroke-linecap="round" fill-rule="evenodd" stroke="#005540" stroke-opacity="1" stroke-width="0.5" fill="#086" fill-opacity="0.5" d="M0 0"/></g><g><path class="class-3 leaflet-clickable" stroke-linejoin="round" stroke-linecap="round" fill-rule="evenodd" stroke="#005540" stroke-opacity="1" stroke-width="0.5" fill="#086" fill-opacity="0.5" d="M0 0"/></g><g><path class="class-3 leaflet-clickable" stroke-linejoin="round" stroke-linecap="round" fill-rule="evenodd" stroke="#005540" stroke-opacity="1" stroke-width="0.5" fill="#086" fill-opacity="0.5" d="M796 439L795 449L800 450L799 452L805 455L800 459L799 462L798 461L798 465L796 464L796 470L802 470L803 479L797 485L804 489L809 487L816 487L820 489L820 494L823 496L831 496L835 493L846 497L848 500L852 499L847 487L852 487L857 495L862 494L863 499L867 498L871 506L875 520L891 520L903 522L907 526L908 524L913 525L927 521L926 524L935 524L935 526L939 527L943 531L947 530L949 533L951 532L951 534L954 535L954 537L958 537L956 539L957 542L948 549L950 551L948 552L946 561L944 562L945 564L940 562L938 564L935 563L937 567L940 565L942 568L939 567L938 568L941 570L938 571L941 577L943 576L943 579L946 581L946 583L939 590L938 588L936 588L937 590L930 594L933 606L939 609L941 613L940 619L942 620L941 622L929 622L928 624L926 624L927 627L933 630L932 639L926 639L925 641L915 639L916 642L913 643L907 639L902 628L893 631L889 629L887 630L884 626L885 623L888 623L888 618L885 613L884 606L885 601L880 594L877 593L874 599L871 599L872 603L869 606L866 606L865 604L863 605L863 609L860 616L857 614L852 617L845 614L840 609L837 603L834 602L829 602L829 607L825 612L818 612L814 614L811 613L809 609L810 607L800 607L796 601L792 598L791 599L791 596L781 591L766 592L763 599L764 604L754 606L750 609L750 606L748 605L748 607L746 607L740 604L739 602L728 598L730 593L724 592L722 590L723 588L720 588L716 585L709 583L702 585L697 582L695 578L688 579L682 576L676 578L672 577L670 579L669 577L671 576L671 573L677 569L676 567L682 561L683 558L680 558L681 556L683 556L685 547L683 543L685 540L680 534L677 534L679 533L675 527L675 525L680 525L681 517L686 516L689 510L687 500L684 496L680 494L683 490L677 487L670 487L670 491L663 496L663 500L661 499L661 502L655 510L647 510L648 513L645 512L643 515L639 511L640 506L635 505L637 496L629 497L612 483L606 475L602 457L600 457L604 449L602 441L597 439L598 435L601 435L603 431L601 434L597 430L601 426L602 418L606 418L608 426L613 427L644 418L697 371L695 347L709 342L714 324L714 329L720 335L741 314L751 323L748 340L753 340L752 345L750 345L759 349L755 371L756 378L760 383L760 389L765 395L761 402L761 406L763 406L764 411L761 410L759 420L764 426L762 443L776 446L776 443L773 443L772 436L778 436L780 431L787 431L785 437L793 438z"/></g><g><path class="class-3 leaflet-clickable" stroke-linejoin="round" stroke-linecap="round" fill-rule="evenodd" stroke="#005540" stroke-opacity="1" stroke-width="0.5" fill="#086" fill-opacity="0.5" d="M989 705L987 711L985 712L820.3076923076923 712L821 703L830 701L837 697L841 698L846 693L851 691L847 683L852 680L851 679L853 674L856 672L857 668L859 668L864 654L863 651L861 651L861 648L862 649L869 644L873 648L877 648L885 643L890 643L893 641L892 637L890 636L892 634L892 631L902 628L907 639L913 643L916 642L915 639L921 641L925 641L926 639L932 639L933 630L927 627L926 625L929 622L941 622L942 620L944 620L945 622L939 632L941 634L945 634L944 636L947 638L947 641L950 643L957 643L957 641L962 639L963 641L961 644L964 644L965 646L969 644L969 646L974 650L974 654L969 657L969 661L967 662L966 666L967 668L965 668L964 671L965 676L967 676L964 679L958 679L957 678L959 677L955 672L947 674L946 682L945 684L941 684L939 686L939 691L943 687L949 685L946 688L946 691L943 693L944 698L940 699L940 703L934 708L937 712L959 712L969 704L972 704L982 690L986 695L985 698L987 704z"/></g><g><path class="class-3 leaflet-clickable" stroke-linejoin="round" stroke-linecap="round" fill-rule="evenodd" stroke="#005540" stroke-opacity="1" stroke-width="0.5" fill="#086" fill-opacity="0.5" d="M0 0"/></g><g><path class="class-3 leaflet-clickable" stroke-linejoin="round" stroke-linecap="round" fill-rule="evenodd" stroke="#005540" stroke-opacity="1" stroke-width="0.5" fill="#086" fill-opacity="0.5" d="M826 610L826 622L824 623L828 630L832 628L836 629L833 632L833 636L830 635L821 643L807 637L803 648L805 654L804 657L800 655L800 662L798 663L800 664L795 666L793 664L787 664L782 661L782 665L779 665L775 669L764 668L765 666L763 665L760 673L753 676L755 677L754 680L756 683L752 686L753 690L755 690L756 694L758 693L762 699L762 702L760 702L759 706L761 712L619 712L623 704L627 701L628 694L622 691L622 686L620 685L621 684L618 684L618 681L615 679L617 677L616 675L628 665L635 649L640 648L639 645L642 642L643 643L645 633L656 629L656 624L653 620L662 617L661 613L656 607L660 603L659 601L662 597L661 596L664 586L662 586L662 583L666 582L672 577L676 578L682 576L688 579L695 578L695 580L702 585L709 583L716 585L723 588L722 590L724 592L730 593L728 598L739 602L740 604L746 607L748 607L748 605L750 606L750 609L757 605L764 605L763 599L766 592L781 591L791 596L790 599L792 598L796 601L800 607L810 607L809 609L811 613L822 613L825 612L825 610z"/></g><g><path class="class-3 leaflet-clickable" stroke-linejoin="round" stroke-linecap="round" fill-rule="evenodd" stroke="#005540" stroke-opacity="1" stroke-width="0.5" fill="#086" fill-opacity="0.5" d="M239 623L239 626L237 627L234 624L236 622z"/></g><g><path class="class-3 leaflet-clickable" stroke-linejoin="round" stroke-linecap="round" fill-rule="evenodd" stroke="#005540" stroke-opacity="1" stroke-width="0.5" fill="#086" fill-opacity="0.5" d="M220 610L226 611L227 613L225 614L224 617L215 613L218 610z"/></g><g><path class="class-3 leaflet-clickable" stroke-linejoin="round" stroke-linecap="round" fill-rule="evenodd" stroke="#005540" stroke-opacity="1" stroke-width="0.5" fill="#086" fill-opacity="0.5" d="M200 590L210 593L213 602L211 604L202 599L203 598L200 595L201 592z"/></g><g><path class="class-3 leaflet-clickable" stroke-linejoin="round" stroke-linecap="round" fill-rule="evenodd" stroke="#005540" stroke-opacity="1" stroke-width="0.5" fill="#086" fill-opacity="0.5" d="M198 582L200 586L198 587L197 585z"/></g><g><path class="class-3 leaflet-clickable" stroke-linejoin="round" stroke-linecap="round" fill-rule="evenodd" stroke="#005540" stroke-opacity="1" stroke-width="0.5" fill="#086" fill-opacity="0.5" d="M410 520L410 522L415 525L416 531L412 536L411 542L409 544L408 563L412 563L415 560L419 564L424 562L426 563L424 575L427 579L434 582L437 581L449 583L448 586L452 590L448 596L450 597L449 601L455 605L454 607L458 610L460 611L462 609L467 617L464 617L464 625L460 629L458 634L449 636L444 633L440 636L440 638L434 640L424 639L421 643L423 646L420 653L420 661L423 663L417 669L415 669L415 673L409 674L410 677L407 679L412 678L415 681L416 679L420 686L420 691L418 692L419 696L417 696L416 694L416 689L407 683L406 680L402 677L398 676L391 666L384 666L380 664L380 662L375 660L376 658L366 656L354 667L348 667L346 665L341 667L335 676L335 681L333 680L329 683L327 689L325 689L318 681L314 684L302 681L303 678L306 678L309 671L322 657L322 655L326 656L330 651L329 645L331 634L328 625L332 616L334 615L332 611L333 610L330 607L327 608L310 597L296 569L291 558L293 543L288 521L281 508L282 507L286 514L289 514L290 513L287 505L293 502L296 505L296 508L302 508L302 510L310 509L310 500L308 496L305 496L303 489L303 484L308 473L305 466L309 464L313 459L313 455L315 454L318 454L319 456L318 460L320 462L321 468L324 466L344 466L349 464L351 467L350 470L352 473L352 477L354 480L358 480L358 487L360 488L344 494L344 496L350 503L352 511L354 511L363 501L365 496L368 498L371 497L372 504L375 506L381 505L382 515L387 515L389 522L391 522L393 525L396 526L397 523L408 519z"/></g><g><path class="class-3 leaflet-clickable" stroke-linejoin="round" stroke-linecap="round" fill-rule="evenodd" stroke="#005540" stroke-opacity="1" stroke-width="0.5" fill="#086" fill-opacity="0.5" d="M0 0"/></g><g><path class="class-3 leaflet-clickable" stroke-linejoin="round" stroke-linecap="round" fill-rule="evenodd" stroke="#005540" stroke-opacity="1" stroke-width="0.5" fill="#086" fill-opacity="0.5" d="M0 0"/></g><g><path class="class-3 leaflet-clickable" stroke-linejoin="round" stroke-linecap="round" fill-rule="evenodd" stroke="#005540" stroke-opacity="1" stroke-width="0.5" fill="#086" fill-opacity="0.5" d="M0 0"/></g><g><path class="class-3 leaflet-clickable" stroke-linejoin="round" stroke-linecap="round" fill-rule="evenodd" stroke="#005540" stroke-opacity="1" stroke-width="0.5" fill="#086" fill-opacity="0.5" d="M0 0"/></g><g><path class="class-2 leaflet-clickable" stroke-linejoin="round" stroke-linecap="round" fill-rule="evenodd" stroke="#005540" stroke-opacity="1" stroke-width="0.5" fill="#00cc99" fill-opacity="0.5" d="M499.2 -137L496 -133L497 -130L495 -130L493 -127L486 -111L485 -112L482 -106L481 -109L478 -109L477 -104L479 -104L478 -102L476 -103L474 -96L448 -40L453 -38L451 -34L447 -35L448 -37L446 -38L447 -28L445 -26L451 -25L448 -22L453 -16L451 -16L452 -1L454 -2L455 4L453 28L457 30L460 38L461 51L464 52L465 58L462 59L461 62L455 67L457 67L455 70L459 75L464 77L469 88L454 85L442 85L442 83L439 83L438 86L421 83L417 76L413 81L413 84L416 88L412 95L402 100L396 115L397 118L389 127L388 123L385 124L377 114L368 110L360 110L353 116L346 118L341 109L327 115L324 112L322 115L318 112L318 108L306 109L306 107L301 106L296 97L296 99L289 99L288 95L283 89L278 91L280 95L272 86L269 86L255 76L250 85L248 83L245 83L244 88L248 89L242 91L243 92L241 93L238 100L239 103L234 110L237 110L236 111L238 114L236 121L233 122L232 125L235 124L234 128L231 126L220 141L222 148L218 150L218 165L211 167L209 171L209 193L217 188L199 206L198 204L180 205L178 198L169 196L172 195L172 192L164 192L163 186L142 169L143 163L141 154L131 147L126 148L124 151L121 151L117 145L111 146L104 144L100 148L98 148L95 143L91 142L91 139L76 117L80 114L82 110L74 99L70 97L75 94L77 84L74 84L75 81L69 73L64 74L65 71L58 72L57 70L56 64L60 62L60 57L55 56L52 59L50 56L47 60L46 58L40 59L33 56L34 58L32 60L27 60L26 55L23 56L22 44L19 42L17 38L21 30L24 28L20 21L20 16L17 12L18 5L10 -1L8 -12L2 -16L-4 -16L-6 -20L-2 -26L-6 -28L-7 -36L-10 -40L-16 -44L-20 -56L-20 -71L-15 -71L-13 -69L6 -69L5 -70L13 -72L15 -74L20 -74L20 -77L23 -78L27 -75L30 -77L30 -80L32 -79L33 -81L31 -87L32 -90L30 -90L32 -94L26 -104L24 -119L19 -122L19 -125L21 -125L20 -127L18 -126L15 -133L13 -134L13.25 -137z"/></g><g><path class="class-2 leaflet-clickable" stroke-linejoin="round" stroke-linecap="round" fill-rule="evenodd" stroke="#005540" stroke-opacity="1" stroke-width="0.5" fill="#00cc99" fill-opacity="0.5" d="M0 0"/></g><g><path class="class-2 leaflet-clickable" stroke-linejoin="round" stroke-linecap="round" fill-rule="evenodd" stroke="#005540" stroke-opacity="1" stroke-width="0.5" fill="#00cc99" fill-opacity="0.5" d="M0 0"/></g><g><path class="class-2 leaflet-clickable" stroke-linejoin="round" stroke-linecap="round" fill-rule="evenodd" stroke="#005540" stroke-opacity="1" stroke-width="0.5" fill="#00cc99" fill-opacity="0.5" d="M0 0"/></g><g><path class="class-2 leaflet-clickable" stroke-linejoin="round" stroke-linecap="round" fill-rule="evenodd" stroke="#005540" stroke-opacity="1" stroke-width="0.5" fill="#00cc99" fill-opacity="0.5" d="M0 0"/></g><g><path class="class-2 leaflet-clickable" stroke-linejoin="round" stroke-linecap="round" fill-rule="evenodd" stroke="#005540" stroke-opacity="1" stroke-width="0.5" fill="#00cc99" fill-opacity="0.5" d="M985 712L987 711L990 703L996 698L997 695L995 690L997 687L995 686L999 674L1001 674L1001 676L1003 677L1009 675L1012 678L1014 678L1013 683L1010 687L1012 689L1011 691L1013 694L1015 694L1015 700L1017 702L1025 701L1030 708L1026 708L1022.3333333333334 712L1012.3333333333334 712z"/></g><g><path class="class-2 leaflet-clickable" stroke-linejoin="round" stroke-linecap="round" fill-rule="evenodd" stroke="#005540" stroke-opacity="1" stroke-width="0.5" fill="#00cc99" fill-opacity="0.5" d="M0 0"/></g><g><path class="class-2 leaflet-clickable" stroke-linejoin="round" stroke-linecap="round" fill-rule="evenodd" stroke="#005540" stroke-opacity="1" stroke-width="0.5" fill="#00cc99" fill-opacity="0.5" d="M1007 535L1007 543L1010 554L1023 577L1027 583L1049 603L1047 615L1041 625L1041 639L1058 675L1063 691L1081 712L1012.3333333333334 712L1022.3333333333334 712L1026 708L1030 708L1025 701L1017 702L1014 696L1015 694L1011 692L1012 689L1010 687L1013 683L1014 678L1012 678L1009 675L1003 677L1001 676L1001 674L999 674L995 686L997 687L995 690L997 695L996 698L989 705L987 704L985 698L986 695L982 690L972 704L967 705L963 710L959 712L937 712L934 708L940 703L940 699L944 698L943 694L949 685L943 687L939 691L939 686L941 684L945 684L946 682L947 674L955 672L959 677L957 678L958 679L964 679L967 676L965 676L964 671L965 668L967 668L966 666L967 662L969 661L969 657L974 655L974 650L969 646L969 644L965 646L964 644L961 644L963 641L962 639L957 641L957 643L950 643L944 636L945 635L939 632L945 623L944 620L940 619L941 613L939 610L933 606L930 594L937 591L936 588L938 588L939 590L946 583L946 581L943 576L941 578L938 571L941 570L938 568L942 568L941 565L937 567L935 563L938 564L940 562L945 564L944 562L946 561L948 552L950 551L948 549L957 542L956 539L958 537L954 537L954 535L951 535L951 532L949 533L947 530L943 531L935 524L926 524L927 521L930 520L934 522L942 518L945 518L946 520L947 518L949 518L948 520L951 521L953 519L953 522L956 522L959 520L958 518L960 515L965 516L965 514L969 515L971 519L978 522L981 526L989 526L991 528L989 530L994 534L997 539L1003 540L1003 537L1005 536z"/></g><g><path class="class-1 leaflet-clickable" stroke-linejoin="round" stroke-linecap="round" fill-rule="evenodd" stroke="#005540" stroke-opacity="1" stroke-width="0.5" fill="#7fd" fill-opacity="0.5" d="M0 0"/></g><g><path class="class-1 leaflet-clickable" stroke-linejoin="round" stroke-linecap="round" fill-rule="evenodd" stroke="#005540" stroke-opacity="1" stroke-width="0.5" fill="#7fd" fill-opacity="0.5" d="M0 0"/></g><g><path class="class-1 leaflet-clickable" stroke-linejoin="round" stroke-linecap="round" fill-rule="evenodd" stroke="#005540" stroke-opacity="1" stroke-width="0.5" fill="#7fd" fill-opacity="0.5" d="M0 0"/></g><g><path class="class-3 leaflet-clickable" stroke-linejoin="round" stroke-linecap="round" fill-rule="evenodd" stroke="#005540" stroke-opacity="1" stroke-width="0.5" fill="#086" fill-opacity="0.5" d="M0 0"/></g><g><path class="class-3 leaflet-clickable" stroke-linejoin="round" stroke-linecap="round" fill-rule="evenodd" stroke="#005540" stroke-opacity="1" stroke-width="0.5" fill="#086" fill-opacity="0.5" d="M0 0"/></g><g><path class="class-3 leaflet-clickable" stroke-linejoin="round" stroke-linecap="round" fill-rule="evenodd" stroke="#005540" stroke-opacity="1" stroke-width="0.5" fill="#086" fill-opacity="0.5" d="M0 0"/></g><g><path class="class-3 leaflet-clickable" stroke-linejoin="round" stroke-linecap="round" fill-rule="evenodd" stroke="#005540" stroke-opacity="1" stroke-width="0.5" fill="#086" fill-opacity="0.5" d="M0 0"/></g><g><path class="class-3 leaflet-clickable" stroke-linejoin="round" stroke-linecap="round" fill-rule="evenodd" stroke="#005540" stroke-opacity="1" stroke-width="0.5" fill="#086" fill-opacity="0.5" d="M0 0"/></g><g><path class="class-3 leaflet-clickable" stroke-linejoin="round" stroke-linecap="round" fill-rule="evenodd" stroke="#005540" stroke-opacity="1" stroke-width="0.5" fill="#086" fill-opacity="0.5" d="M0 0"/></g><g><path class="class-3 leaflet-clickable" stroke-linejoin="round" stroke-linecap="round" fill-rule="evenodd" stroke="#005540" stroke-opacity="1" stroke-width="0.5" fill="#086" fill-opacity="0.5" d="M0 0"/></g><g><path class="class-3 leaflet-clickable" stroke-linejoin="round" stroke-linecap="round" fill-rule="evenodd" stroke="#005540" stroke-opacity="1" stroke-width="0.5" fill="#086" fill-opacity="0.5" d="M0 0"/></g><g><path class="class-3 leaflet-clickable" stroke-linejoin="round" stroke-linecap="round" fill-rule="evenodd" stroke="#005540" stroke-opacity="1" stroke-width="0.5" fill="#086" fill-opacity="0.5" d="M0 0"/></g><g><path class="class-3 leaflet-clickable" stroke-linejoin="round" stroke-linecap="round" fill-rule="evenodd" stroke="#005540" stroke-opacity="1" stroke-width="0.5" fill="#086" fill-opacity="0.5" d="M0 0"/></g><g><path class="class-3 leaflet-clickable" stroke-linejoin="round" stroke-linecap="round" fill-rule="evenodd" stroke="#005540" stroke-opacity="1" stroke-width="0.5" fill="#086" fill-opacity="0.5" d="M0 0"/></g><g><path class="class-3 leaflet-clickable" stroke-linejoin="round" stroke-linecap="round" fill-rule="evenodd" stroke="#005540" stroke-opacity="1" stroke-width="0.5" fill="#086" fill-opacity="0.5" d="M-306.75 -137L-309 -135L-308 -133L-312 -126L-312 -122L-315 -120L-316 -122L-319 -121L-319 -137z"/></g><g><path class="class-3 leaflet-clickable" stroke-linejoin="round" stroke-linecap="round" fill-rule="evenodd" stroke="#005540" stroke-opacity="1" stroke-width="0.5" fill="#086" fill-opacity="0.5" d="M0 0"/></g><g><path class="class-3 leaflet-clickable" stroke-linejoin="round" stroke-linecap="round" fill-rule="evenodd" stroke="#005540" stroke-opacity="1" stroke-width="0.5" fill="#086" fill-opacity="0.5" d="M13.25 -137L13 -134L15 -133L18 -126L20 -127L21 -125L19 -125L19 -122L24 -119L24 -111L26 -104L29 -100L30 -95L32 -94L30 -90L32 -90L31 -87L33 -81L32 -79L30 -80L30 -77L27 -75L23 -78L20 -77L20 -74L15 -74L13 -72L5 -70L6 -69L-5 -69L-12 -71L-13 -69L-15 -71L-20 -71L-20 -56L-16 -44L-10 -40L-7 -36L-6 -28L-2 -26L-6 -20L-4 -16L2 -16L8 -12L10 -1L18 4L17 12L20 16L20 21L24 28L21 30L17 38L23 48L23 56L26 55L27 60L39 62L35 63L30 72L27 78L29 81L25 83L23 88L20 89L20 92L16 96L16 102L11 101L6 104L-2 106L-4 112L-6 113L0 113L-3 121L-5 119L-8 122L-14 121L-25 132L-29 130L-31 127L-33 127L-36 130L-37 129L-36 120L-38 109L-51 95L-58 92L-59 94L-70 91L-76 93L-88 86L-95 67L-99 61L-100 56L-103 53L-109 51L-110 52L-113 49L-128 46L-135 42L-143 33L-150 30L-153 31L-158 29L-160 25L-158 6L-161 -2L-161 -8L-159 -12L-161 -20L-158 -25L-152 -26L-155 -30L-162 -30L-163 -32L-166 -31L-178 -35L-179 -38L-181 -38L-183 -34L-187 -32L-183 -33L-185 -27L-187 -29L-190 -29L-192 -32L-191 -35L-195 -39L-201 -36L-211 -42L-221 -52L-227 -64L-230 -66L-231 -71L-237 -74L-237 -80L-240 -83L-260 -90L-266 -106L-280 -117L-282 -121L-280 -121L-277 -124L-279 -124L-281 -127L-289 -132L-293 -137zM-182 -41L-183 -40L-181 -38L-180 -39z"/></g><g><path class="class-3 leaflet-clickable" stroke-linejoin="round" stroke-linecap="round" fill-rule="evenodd" stroke="#005540" stroke-opacity="1" stroke-width="0.5" fill="#086" fill-opacity="0.5" d="M-86 347L-92 348L-95 344L-99 326L-97 326L-88 342z"/></g><g><path class="class-3 leaflet-clickable" stroke-linejoin="round" stroke-linecap="round" fill-rule="evenodd" stroke="#005540" stroke-opacity="1" stroke-width="0.5" fill="#086" fill-opacity="0.5" d="M-137 310L-135 310L-131 316L-134 322L-136 322L-136 320L-139 318L-137 316L-140 313L-139 310z"/></g><g><path class="class-3 leaflet-clickable" stroke-linejoin="round" stroke-linecap="round" fill-rule="evenodd" stroke="#005540" stroke-opacity="1" stroke-width="0.5" fill="#086" fill-opacity="0.5" d="M-140 304L-137 308L-138 309L-142 305z"/></g><g><path class="class-3 leaflet-clickable" stroke-linejoin="round" stroke-linecap="round" fill-rule="evenodd" stroke="#005540" stroke-opacity="1" stroke-width="0.5" fill="#086" fill-opacity="0.5" d="M-169 252L-165 257L-157 261L-153 274L-156 275L-160 271L-162 271L-166 261L-169 260L-170 257z"/></g><g><path class="class-3 leaflet-clickable" stroke-linejoin="round" stroke-linecap="round" fill-rule="evenodd" stroke="#005540" stroke-opacity="1" stroke-width="0.5" fill="#086" fill-opacity="0.5" d="M-167 232L-169 236L-171 235L-171 233L-169 232z"/></g><g><path class="class-3 leaflet-clickable" stroke-linejoin="round" stroke-linecap="round" fill-rule="evenodd" stroke="#005540" stroke-opacity="1" stroke-width="0.5" fill="#086" fill-opacity="0.5" d="M-175 191L-173 201L-174 203L-178 198L-177 194z"/></g><g><path class="class-3 leaflet-clickable" stroke-linejoin="round" stroke-linecap="round" fill-rule="evenodd" stroke="#005540" stroke-opacity="1" stroke-width="0.5" fill="#086" fill-opacity="0.5" d="M-199 191L-197 193L-198 196L-201 191z"/></g><g><path class="class-3 leaflet-clickable" stroke-linejoin="round" stroke-linecap="round" fill-rule="evenodd" stroke="#005540" stroke-opacity="1" stroke-width="0.5" fill="#086" fill-opacity="0.5" d="M-201 155L-203 159L-203 164L-205 162L-211 170L-212 175L-214 177L-214 181L-216 180L-217 177L-211 164L-211 158L-203 156z"/></g><g><path class="class-3 leaflet-clickable" stroke-linejoin="round" stroke-linecap="round" fill-rule="evenodd" stroke="#005540" stroke-opacity="1" stroke-width="0.5" fill="#086" fill-opacity="0.5" d="M-220 148L-219 151L-222 150L-220 148z"/></g><g><path class="class-3 leaflet-clickable" stroke-linejoin="round" stroke-linecap="round" fill-rule="evenodd" stroke="#005540" stroke-opacity="1" stroke-width="0.5" fill="#086" fill-opacity="0.5" d="M-294 34L-290 39L-293 42L-296 35L-295 34z"/></g><g><path class="class-3 leaflet-clickable" stroke-linejoin="round" stroke-linecap="round" fill-rule="evenodd" stroke="#005540" stroke-opacity="1" stroke-width="0.5" fill="#086" fill-opacity="0.5" d="M-281 16L-281 19L-283 18L-283 16z"/></g><g><path class="class-3 leaflet-clickable" stroke-linejoin="round" stroke-linecap="round" fill-rule="evenodd" stroke="#005540" stroke-opacity="1" stroke-width="0.5" fill="#086" fill-opacity="0.5" d="M0 0"/></g><g><path class="class-3 leaflet-clickable" stroke-linejoin="round" stroke-linecap="round" fill-rule="evenodd" stroke="#005540" stroke-opacity="1" stroke-width="0.5" fill="#086" fill-opacity="0.5" d="M-319 4L-316 10L-314 21L-313 23L-311 23L-310 26L-308 27L-308 30L-306 31L-306 38L-301 44L-295 47L-287 48L-286 50L-282 50L-282 53L-285 54L-288 60L-287 64L-284 66L-282 71L-278 75L-270 71L-265 74L-261 80L-256 83L-255 86L-247 91L-246 106L-237 109L-238 120L-230 131L-232 135L-228 149L-225 152L-227 159L-226 163L-228 165L-228 169L-226 171L-226 179L-223 179L-223 185L-218 188L-215 192L-213 201L-208 208L-206 210L-197 211L-198 218L-189 235L-191 236L-187 248L-184 251L-183 255L-180 256L-179 259L-176 259L-174 261L-173 266L-170 269L-164 282L-168 293L-171 296L-172 307L-171 311L-167 316L-168 322L-160 338L-157 339L-155 342L-149 344L-132 345L-132 339L-135 336L-135 330L-132 329L-132 327L-126 328L-126 331L-122 333L-120 337L-105 347L-102 359L-98 360L-89 357L-87 361L-90 368L-89 371L-77 383L-77 396L-56 407L-57 411L-52 417L-53 420L-51 423L-53 425L-53 439L-63 452L-74 456L-78 459L-80 463L-83 463L-91 472L-95 472L-96 474L-101 475L-110 467L-117 446L-119 431L-128 415L-136 405L-143 400L-152 397L-165 388L-179 371L-197 353L-217 340L-236 330L-249 326L-259 328L-260 332L-275 318L-296 307L-297 302L-301 298L-301 295L-300 296L-299 294L-300 288L-307 284L-314 284L-314 282L-311 279L-298 234L-299 232L-295 213L-296 186L-304 163L-308 158L-315 154L-316 147L-319 142.75z"/></g><g><path class="class-3 leaflet-clickable" stroke-linejoin="round" stroke-linecap="round" fill-rule="evenodd" stroke="#005540" stroke-opacity="1" stroke-width="0.5" fill="#086" fill-opacity="0.5" d="M-37 129L-36 130L-31 127L-29 130L-25 132L-14 121L-8 122L-5 119L-3 121L-1 118L-2 116L1 113L-6 113L-4 112L-2 106L6 104L11 101L16 102L16 96L20 93L20 89L23 88L25 83L29 81L27 78L30 72L35 63L39 62L32 61L34 58L33 56L46 58L47 60L50 56L52 59L55 56L59 57L61 60L60 62L58 62L58 64L56 64L58 72L65 71L64 74L69 73L75 81L74 84L77 84L75 94L70 97L74 99L82 110L80 114L76 117L91 139L91 142L95 143L98 148L100 148L104 144L111 146L117 145L121 151L124 151L126 148L131 147L141 154L143 162L142 169L163 186L164 191L168 193L170 191L172 192L172 195L169 196L171 199L166 203L157 207L153 206L152 211L156 213L154 218L149 221L153 230L150 229L154 236L158 238L156 240L157 257L162 260L167 269L167 272L169 270L175 275L175 281L181 280L195 295L197 303L201 310L203 310L203 313L209 315L208 319L205 321L207 324L206 325L212 333L217 335L227 332L228 328L235 325L246 329L252 334L253 341L256 341L259 351L261 352L259 355L260 358L268 364L265 368L269 368L273 372L272 375L264 372L263 378L268 389L266 394L269 407L270 403L277 401L277 403L280 406L282 412L285 415L283 418L287 420L285 425L287 432L288 434L292 435L292 448L300 452L302 452L302 450L305 449L313 450L315 454L313 455L313 459L309 464L305 466L308 473L303 484L305 496L308 496L308 498L310 499L309 502L311 503L309 510L302 510L302 508L298 507L296 508L296 505L293 502L287 505L290 513L287 514L284 512L274 493L266 485L257 479L236 455L223 443L221 443L212 424L202 414L203 413L186 397L187 395L179 383L179 379L168 367L151 354L151 352L104 318L96 314L92 307L80 300L76 295L75 289L67 280L58 262L47 251L45 246L37 237L26 231L5 225L-5 220L-15 219L-21 213L-21 211L-28 206L-32 201L-43 197L-49 198L-53 181L-52 172L-54 167L-51 156L-42 143L-40 134L-36 130z"/></g></svg>