<svg xmlns="http://www.w3.org/2000/svg" class="leaflet-zoom-animated" width="1979" height="719" viewBox="445 483 1979 719" style="transform: translate3d(445px, 483px, 0px);"><g><path class="class-3 leaflet-clickable" stroke-linejoin="round" stroke-linecap="round" fill-rule="evenodd" stroke="#005540" stroke-opacity="1" stroke-width="0.5" fill="#086" fill-opacity="0.5" d="M1711 1000L1714 1003L1715 1002L1715 1004L1719 1006L1718 1007L1723 1011L1728 1013L1729 1018L1735 1021L1734 1028L1705 1028L1694 1048L1697 1052L1694 1057L1695 1061L1693 1065L1665 1037L1657 1031L1652 1030L1650 1026L1652 1025L1652 1022L1650 1019L1656 1003L1664 996L1664 994L1668 990L1667 988L1670 983L1673 985L1673 987L1675 987L1674 989L1677 995L1678 994L1680 996L1679 997L1680 996L1682 998L1686 993L1691 992L1690 991L1696 988L1696 986L1699 984L1702 985L1702 989L1706 990L1706 996L1711 997L1712 1000z"/></g><g><path class="class-3 leaflet-clickable" stroke-linejoin="round" stroke-linecap="round" fill-rule="evenodd" stroke="#005540" stroke-opacity="1" stroke-width="0.5" fill="#086" fill-opacity="0.5" d="M1656 1003L1650 1019L1652 1022L1651 1026L1653 1030L1647 1027L1637 1025L1625 1026L1620 1031L1616 1031L1606 1036L1605 1035L1602 1038L1593 1038L1584 1035L1581 1032L1567 1031L1557 1024L1550 1023L1554 1020L1553 1017L1558 1015L1557 1014L1560 1011L1560 1007L1562 1005L1557 1004L1556 1000L1555 1001L1555 994L1551 990L1552 986L1556 984L1557 985L1559 983L1563 983L1566 985L1568 982L1567 981L1566 983L1565 978L1570 975L1572 982L1579 978L1584 979L1591 973L1592 967L1598 970L1603 979L1611 979L1612 984L1610 989L1614 993L1617 994L1623 989L1625 989L1626 990L1624 992L1628 997L1633 1000L1632 1001L1651 1003z"/></g><g><path class="class-3 leaflet-clickable" stroke-linejoin="round" stroke-linecap="round" fill-rule="evenodd" stroke="#005540" stroke-opacity="1" stroke-width="0.5" fill="#086" fill-opacity="0.5" d="M1528 965L1532 971L1536 971L1538 976L1543 980L1542 981L1545 982L1543 982L1546 984L1552 984L1551 990L1555 994L1555 1001L1556 1000L1557 1003L1561 1005L1560 1010L1557 1014L1558 1015L1554 1017L1553 1021L1549 1023L1544 1017L1542 1018L1532 1014L1524 1014L1516 1008L1492 1000L1493 999L1488 995L1484 994L1475 985L1467 982L1468 978L1474 975L1474 969L1476 968L1480 968L1480 970L1482 971L1498 971L1500 973L1501 972L1501 974L1502 971L1500 971L1499 969L1498 962L1501 963L1503 961L1506 964L1505 967L1510 974L1516 968L1520 968L1524 964L1527 966z"/></g><g><path class="class-3 leaflet-clickable" stroke-linejoin="round" stroke-linecap="round" fill-rule="evenodd" stroke="#005540" stroke-opacity="1" stroke-width="0.5" fill="#086" fill-opacity="0.5" d="M1508 927L1512 929L1511 931L1514 934L1513 935L1515 938L1513 938L1511 942L1512 949L1509 950L1507 956L1501 963L1498 962L1499 969L1502 971L1502 974L1498 971L1495 972L1493 970L1487 969L1483 971L1477 968L1473 971L1474 976L1467 979L1467 985L1437 975L1431 966L1437 959L1442 958L1445 960L1448 957L1448 955L1449 956L1449 954L1454 952L1455 953L1457 951L1458 947L1454 947L1455 945L1452 940L1454 938L1453 936L1447 935L1447 932L1450 931L1449 930L1454 931L1460 926L1467 925L1471 925L1470 926L1472 926L1474 930L1478 930L1479 927L1483 926L1483 928L1486 929L1484 929L1484 932L1486 934L1490 934L1490 932L1492 932L1495 936L1505 936L1508 935L1507 932L1509 928z"/></g><g><path class="class-3 leaflet-clickable" stroke-linejoin="round" stroke-linecap="round" fill-rule="evenodd" stroke="#005540" stroke-opacity="1" stroke-width="0.5" fill="#086" fill-opacity="0.5" d="M1567 879L1569 887L1577 896L1575 902L1576 908L1583 922L1590 928L1597 937L1600 949L1605 954L1605 956L1608 957L1610 962L1615 965L1624 965L1634 970L1641 979L1650 977L1651 986L1659 990L1661 993L1661 1000L1659 1000L1656 1003L1632 1002L1633 1000L1628 997L1624 992L1626 990L1625 989L1623 989L1617 994L1614 994L1610 989L1612 984L1611 979L1603 979L1604 978L1603 979L1601 977L1596 968L1592 967L1591 974L1589 970L1585 969L1583 971L1580 967L1577 966L1579 961L1578 958L1585 952L1576 949L1577 948L1575 946L1575 944L1578 941L1578 937L1582 931L1575 928L1572 932L1568 930L1569 927L1567 925L1568 923L1569 924L1572 922L1569 921L1567 914L1565 914L1564 920L1562 921L1560 918L1559 921L1554 925L1549 926L1550 925L1548 922L1551 920L1552 917L1550 918L1554 913L1554 915L1556 915L1557 910L1559 908L1555 906L1556 905L1553 906L1550 903L1551 900L1550 901L1547 895L1552 891L1549 886L1551 887L1552 883L1555 880L1547 876L1553 876L1556 874L1562 877L1565 881L1566 879z"/></g><g><path class="class-3 leaflet-clickable" stroke-linejoin="round" stroke-linecap="round" fill-rule="evenodd" stroke="#005540" stroke-opacity="1" stroke-width="0.5" fill="#086" fill-opacity="0.5" d="M1591 973L1587 977L1582 979L1579 978L1574 982L1572 982L1570 976L1566 976L1566 983L1568 981L1569 982L1567 982L1564 985L1562 983L1558 983L1558 985L1553 986L1552 983L1548 984L1538 976L1538 974L1541 971L1546 972L1545 964L1548 958L1547 947L1549 947L1558 956L1561 953L1564 955L1566 952L1570 951L1567 947L1564 946L1565 945L1563 943L1561 943L1561 941L1556 942L1557 941L1555 938L1560 931L1558 928L1555 928L1558 927L1564 920L1565 914L1568 915L1568 919L1572 922L1567 925L1569 927L1568 930L1572 932L1575 928L1581 931L1575 946L1577 948L1576 949L1585 952L1583 954L1584 955L1580 954L1577 967L1578 966L1583 971L1587 969L1591 973z"/></g><g><path class="class-3 leaflet-clickable" stroke-linejoin="round" stroke-linecap="round" fill-rule="evenodd" stroke="#005540" stroke-opacity="1" stroke-width="0.5" fill="#086" fill-opacity="0.5" d="M1522 898L1521 901L1522 903L1524 903L1520 906L1516 905L1517 906L1515 912L1506 912L1503 915L1505 923L1509 928L1507 932L1508 935L1495 936L1492 932L1490 932L1490 934L1486 934L1484 932L1484 930L1486 929L1483 928L1483 926L1481 926L1478 929L1472 929L1472 927L1469 924L1472 921L1469 914L1472 912L1476 904L1479 903L1478 900L1480 900L1479 897L1481 893L1480 892L1482 890L1488 890L1490 892L1492 891L1500 897L1506 897L1507 893L1509 893L1519 899L1521 898z"/></g><g><path class="class-3 leaflet-clickable" stroke-linejoin="round" stroke-linecap="round" fill-rule="evenodd" stroke="#005540" stroke-opacity="1" stroke-width="0.5" fill="#086" fill-opacity="0.5" d="M1800 898L1800 910L1797 916L1786 928L1780 928L1774 934L1772 934L1771 937L1769 937L1770 938L1764 944L1763 943L1760 945L1757 943L1753 937L1753 934L1750 930L1748 930L1744 923L1741 924L1736 921L1735 914L1737 909L1747 904L1773 900L1777 897L1782 897L1785 895L1800 898z"/></g><g><path class="class-3 leaflet-clickable" stroke-linejoin="round" stroke-linecap="round" fill-rule="evenodd" stroke="#005540" stroke-opacity="1" stroke-width="0.5" fill="#086" fill-opacity="0.5" d="M1750 871L1754 874L1752 876L1749 873L1750 871z"/></g><g><path class="class-3 leaflet-clickable" stroke-linejoin="round" stroke-linecap="round" fill-rule="evenodd" stroke="#005540" stroke-opacity="1" stroke-width="0.5" fill="#086" fill-opacity="0.5" d="M1514 855L1516 859L1514 861L1516 865L1514 867L1519 867L1527 871L1528 867L1536 876L1549 876L1555 880L1549 887L1551 887L1551 891L1547 895L1550 898L1550 900L1546 902L1548 902L1547 906L1543 906L1540 902L1537 903L1535 894L1530 900L1528 900L1524 896L1522 896L1522 898L1519 899L1510 893L1508 893L1506 897L1502 898L1498 896L1495 892L1482 890L1486 885L1486 881L1484 878L1487 874L1485 869L1486 868L1483 867L1481 871L1480 870L1479 873L1476 874L1474 872L1474 869L1472 870L1467 865L1465 860L1466 858L1464 855L1466 853L1464 853L1466 850L1468 852L1476 850L1489 838L1489 832L1492 831L1493 826L1495 829L1500 825L1503 826L1502 831L1505 833L1505 856L1508 857L1508 854L1509 855L1510 853L1512 853L1511 855L1513 855z"/></g><g><path class="class-2 leaflet-clickable" stroke-linejoin="round" stroke-linecap="round" fill-rule="evenodd" stroke="#005540" stroke-opacity="1" stroke-width="0.5" fill="#00cc99" fill-opacity="0.5" d="M1498 822L1500 825L1495 829L1493 827L1492 831L1490 832L1489 838L1484 843L1476 850L1471 852L1468 852L1466 850L1464 853L1466 853L1464 855L1468 866L1472 870L1474 869L1474 872L1476 874L1479 873L1483 867L1486 868L1485 869L1487 873L1485 874L1484 878L1486 880L1486 885L1483 889L1482 890L1481 888L1474 885L1470 882L1470 878L1469 879L1464 875L1462 877L1456 878L1456 882L1451 889L1454 893L1454 896L1457 898L1456 901L1454 901L1450 905L1447 904L1447 908L1445 909L1441 909L1434 906L1432 902L1436 901L1436 899L1432 899L1432 897L1436 895L1437 892L1435 890L1445 885L1447 880L1445 878L1444 879L1442 875L1440 877L1441 880L1439 880L1438 883L1432 882L1435 879L1435 874L1434 872L1432 872L1430 873L1429 881L1427 877L1429 873L1428 872L1431 871L1431 869L1428 867L1424 868L1427 873L1424 877L1424 873L1422 873L1420 877L1418 876L1419 868L1423 866L1421 861L1424 849L1429 845L1430 846L1429 836L1433 832L1435 832L1435 829L1437 829L1439 825L1451 825L1454 827L1459 826L1460 821L1456 813L1456 810L1461 811L1460 808L1469 809L1474 811L1476 814L1480 815L1479 816L1481 818L1487 816L1490 818L1491 821L1495 823L1498 822z"/></g><g><path class="class-2 leaflet-clickable" stroke-linejoin="round" stroke-linecap="round" fill-rule="evenodd" stroke="#005540" stroke-opacity="1" stroke-width="0.5" fill="#00cc99" fill-opacity="0.5" d="M1562 922L1558 927L1555 928L1559 929L1559 931L1555 937L1557 940L1554 941L1555 942L1553 944L1547 944L1548 939L1545 937L1541 937L1540 939L1539 936L1541 934L1539 933L1539 935L1536 934L1534 938L1532 938L1531 940L1531 938L1528 935L1528 930L1525 931L1520 928L1520 921L1525 920L1527 918L1531 909L1530 908L1538 906L1540 902L1541 905L1547 906L1547 902L1551 900L1550 903L1553 906L1556 905L1555 906L1557 906L1559 909L1556 913L1557 915L1552 914L1549 918L1551 917L1549 926L1554 925L1560 919L1562 921z"/></g><g><path class="class-2 leaflet-clickable" stroke-linejoin="round" stroke-linecap="round" fill-rule="evenodd" stroke="#005540" stroke-opacity="1" stroke-width="0.5" fill="#00cc99" fill-opacity="0.5" d="M1375 901L1374 901z"/></g><g><path class="class-2 leaflet-clickable" stroke-linejoin="round" stroke-linecap="round" fill-rule="evenodd" stroke="#005540" stroke-opacity="1" stroke-width="0.5" fill="#00cc99" fill-opacity="0.5" d="M1370 898L1372 899L1371 900L1369 898z"/></g><g><path class="class-2 leaflet-clickable" stroke-linejoin="round" stroke-linecap="round" fill-rule="evenodd" stroke="#005540" stroke-opacity="1" stroke-width="0.5" fill="#00cc99" fill-opacity="0.5" d="M1365 893L1367 893L1368 896L1366 896L1365 894z"/></g><g><path class="class-2 leaflet-clickable" stroke-linejoin="round" stroke-linecap="round" fill-rule="evenodd" stroke="#005540" stroke-opacity="1" stroke-width="0.5" fill="#00cc99" fill-opacity="0.5" d="M1365 891L1364 892z"/></g><g><path class="class-2 leaflet-clickable" stroke-linejoin="round" stroke-linecap="round" fill-rule="evenodd" stroke="#005540" stroke-opacity="1" stroke-width="0.5" fill="#00cc99" fill-opacity="0.5" d="M1417 876L1419 877L1417 886L1421 886L1422 890L1426 891L1428 893L1427 896L1432 900L1429 903L1430 904L1420 906L1421 911L1417 915L1420 917L1420 919L1409 910L1400 912L1397 918L1395 916L1390 916L1398 906L1398 897L1397 898L1392 894L1388 886L1388 879L1385 873L1386 872L1386 874L1388 871L1393 873L1391 869L1391 863L1394 859L1395 862L1403 862L1402 863L1405 867L1401 869L1403 873L1407 870L1412 874L1413 877L1417 875z"/></g><g><path class="class-2 leaflet-clickable" stroke-linejoin="round" stroke-linecap="round" fill-rule="evenodd" stroke="#005540" stroke-opacity="1" stroke-width="0.5" fill="#00cc99" fill-opacity="0.5" d="M1540 957L1543 960L1547 958L1545 964L1546 971L1545 972L1543 970L1538 974L1532 971L1528 966L1533 955L1540 957z"/></g><g><path class="class-2 leaflet-clickable" stroke-linejoin="round" stroke-linecap="round" fill-rule="evenodd" stroke="#005540" stroke-opacity="1" stroke-width="0.5" fill="#00cc99" fill-opacity="0.5" d="M1735 914L1735 921L1739 921L1740 924L1743 923L1748 927L1747 928L1753 934L1756 942L1763 948L1763 987L1722 987L1722 983L1712 981L1709 979L1710 978L1707 981L1707 985L1695 979L1695 974L1691 972L1688 968L1691 966L1699 966L1702 968L1719 958L1728 950L1728 942L1734 935L1733 921L1735 914z"/></g><g><path class="class-2 leaflet-clickable" stroke-linejoin="round" stroke-linecap="round" fill-rule="evenodd" stroke="#005540" stroke-opacity="1" stroke-width="0.5" fill="#00cc99" fill-opacity="0.5" d="M1722 987L1722 1000L1711 1000L1712 997L1706 995L1707 992L1703 989L1703 985L1699 985L1692 990L1691 989L1691 991L1689 993L1685 993L1685 995L1682 998L1680 996L1679 997L1680 996L1678 994L1676 994L1674 989L1675 986L1673 986L1674 985L1671 983L1668 984L1668 990L1664 994L1662 999L1660 997L1662 993L1660 993L1656 988L1651 986L1652 982L1650 978L1666 972L1679 972L1682 970L1682 968L1687 967L1690 972L1694 972L1695 979L1699 982L1707 986L1707 980L1710 978L1710 980L1716 983L1722 983L1722 985z"/></g><g><path class="class-2 leaflet-clickable" stroke-linejoin="round" stroke-linecap="round" fill-rule="evenodd" stroke="#005540" stroke-opacity="1" stroke-width="0.5" fill="#00cc99" fill-opacity="0.5" d="M1181 974L1181 974z"/></g><g><path class="class-2 leaflet-clickable" stroke-linejoin="round" stroke-linecap="round" fill-rule="evenodd" stroke="#005540" stroke-opacity="1" stroke-width="0.5" fill="#00cc99" fill-opacity="0.5" d="M1266 962L1268 964L1267 965L1265 963L1266 962z"/></g><g><path class="class-2 leaflet-clickable" stroke-linejoin="round" stroke-linecap="round" fill-rule="evenodd" stroke="#005540" stroke-opacity="1" stroke-width="0.5" fill="#00cc99" fill-opacity="0.5" d="M1437 959L1431 966L1417 956L1410 954L1411 955L1414 952L1415 953L1423 951L1422 950L1424 946L1429 949L1433 946L1437 950L1437 959z"/></g><g><path class="class-2 leaflet-clickable" stroke-linejoin="round" stroke-linecap="round" fill-rule="evenodd" stroke="#005540" stroke-opacity="1" stroke-width="0.5" fill="#00cc99" fill-opacity="0.5" d="M1270 952L1270 951z"/></g><g><path class="class-2 leaflet-clickable" stroke-linejoin="round" stroke-linecap="round" fill-rule="evenodd" stroke="#005540" stroke-opacity="1" stroke-width="0.5" fill="#00cc99" fill-opacity="0.5" d="M1306 778L1310 778L1315 774L1316 771L1320 769L1324 759L1330 760L1329 763L1331 763L1334 766L1334 775L1340 783L1349 783L1351 786L1350 788L1356 792L1356 794L1358 794L1355 797L1353 797L1354 800L1352 801L1354 805L1354 810L1356 810L1359 816L1364 819L1367 825L1366 826L1369 829L1372 829L1372 827L1378 829L1380 835L1383 838L1381 838L1382 846L1385 847L1387 851L1386 852L1388 854L1388 858L1394 859L1391 863L1391 870L1392 869L1393 872L1392 873L1388 871L1387 874L1369 855L1368 851L1362 845L1357 837L1339 824L1323 804L1310 799L1307 795L1303 795L1301 787L1306 778z"/></g><g><path class="class-2 leaflet-clickable" stroke-linejoin="round" stroke-linecap="round" fill-rule="evenodd" stroke="#005540" stroke-opacity="1" stroke-width="0.5" fill="#00cc99" fill-opacity="0.5" d="M1454 892L1456 891L1464 895L1474 888L1475 887L1473 887L1475 885L1477 885L1482 891L1480 891L1481 892L1479 897L1481 900L1479 900L1479 902L1476 904L1476 906L1469 915L1472 918L1469 924L1467 926L1461 926L1452 932L1451 930L1447 932L1447 935L1449 934L1454 937L1454 939L1452 940L1455 945L1454 946L1459 947L1456 953L1454 952L1450 954L1445 960L1443 958L1437 959L1437 951L1433 946L1429 949L1424 946L1422 951L1415 953L1414 952L1411 955L1407 953L1407 951L1406 952L1403 950L1401 945L1399 945L1391 934L1387 924L1395 922L1397 920L1396 918L1398 915L1399 916L1401 912L1406 910L1413 912L1420 920L1419 915L1417 915L1421 911L1420 906L1430 904L1429 903L1432 900L1427 895L1428 893L1426 891L1422 891L1421 887L1417 885L1419 877L1421 875L1422 876L1421 873L1424 874L1423 877L1427 874L1424 869L1425 867L1431 869L1431 871L1428 872L1429 873L1427 877L1429 881L1429 877L1432 871L1435 873L1432 882L1433 883L1437 883L1439 880L1441 880L1440 877L1442 875L1444 877L1443 878L1447 880L1445 886L1441 886L1437 890L1435 890L1437 892L1436 895L1432 897L1432 899L1436 899L1437 901L1432 903L1434 903L1435 907L1445 909L1447 904L1450 905L1454 901L1455 902L1457 898L1453 895L1454 893z"/></g><g><path class="class-2 leaflet-clickable" stroke-linejoin="round" stroke-linecap="round" fill-rule="evenodd" stroke="#005540" stroke-opacity="1" stroke-width="0.5" fill="#00cc99" fill-opacity="0.5" d="M1804 973L1805 970L1805 972z"/></g><g><path class="class-2 leaflet-clickable" stroke-linejoin="round" stroke-linecap="round" fill-rule="evenodd" stroke="#005540" stroke-opacity="1" stroke-width="0.5" fill="#00cc99" fill-opacity="0.5" d="M1806 965L1806 967L1806 965z"/></g><g><path class="class-2 leaflet-clickable" stroke-linejoin="round" stroke-linecap="round" fill-rule="evenodd" stroke="#005540" stroke-opacity="1" stroke-width="0.5" fill="#00cc99" fill-opacity="0.5" d="M1818 921L1812 928L1812 924L1814 921L1819 920z"/></g><g><path class="class-2 leaflet-clickable" stroke-linejoin="round" stroke-linecap="round" fill-rule="evenodd" stroke="#005540" stroke-opacity="1" stroke-width="0.5" fill="#00cc99" fill-opacity="0.5" d="M1763 984L1762 980L1764 979L1764 955L1763 948L1760 945L1763 943L1764 944L1764 942L1766 942L1766 940L1771 937L1771 935L1774 934L1775 931L1778 931L1780 928L1786 927L1790 924L1797 916L1800 910L1800 898L1807 900L1810 899L1811 896L1816 903L1816 900L1817 901L1817 909L1814 915L1802 929L1802 939L1801 940L1802 936L1801 939L1795 942L1797 946L1802 943L1803 944L1802 948L1797 950L1797 954L1800 951L1802 951L1800 953L1792 979L1789 979L1789 973L1784 973L1784 971L1778 971L1776 977L1773 979L1770 985L1766 982L1764 984z"/></g><g><path class="class-2 leaflet-clickable" stroke-linejoin="round" stroke-linecap="round" fill-rule="evenodd" stroke="#005540" stroke-opacity="1" stroke-width="0.5" fill="#00cc99" fill-opacity="0.5" d="M1810 895L1808 897L1803 898L1805 896L1809 896z"/></g><g><path class="class-1 leaflet-clickable" stroke-linejoin="round" stroke-linecap="round" fill-rule="evenodd" stroke="#005540" stroke-opacity="1" stroke-width="0.5" fill="#7fd" fill-opacity="0.5" d="M1538 903L1537 906L1533 908L1532 906L1527 916L1528 918L1520 921L1520 928L1518 927L1518 932L1514 934L1511 931L1511 928L1509 928L1505 924L1503 915L1506 912L1514 912L1515 909L1516 910L1516 905L1522 905L1524 903L1521 902L1523 896L1530 900L1535 894L1537 903z"/></g><g><path class="class-1 leaflet-clickable" stroke-linejoin="round" stroke-linecap="round" fill-rule="evenodd" stroke="#005540" stroke-opacity="1" stroke-width="0.5" fill="#7fd" fill-opacity="0.5" d="M1432 768L1440 771L1442 779L1440 782L1441 791L1437 798L1441 802L1438 802L1437 805L1443 811L1442 812L1449 817L1451 817L1456 809L1460 824L1456 827L1452 827L1451 825L1441 825L1429 836L1430 845L1428 845L1428 847L1425 849L1422 856L1421 861L1423 866L1419 867L1419 874L1414 877L1410 872L1408 872L1408 870L1406 870L1404 873L1402 871L1401 869L1405 867L1402 863L1403 862L1395 862L1393 858L1390 859L1388 857L1386 852L1387 851L1384 846L1382 847L1381 838L1383 839L1381 837L1380 832L1375 827L1372 827L1372 829L1368 829L1364 819L1354 810L1352 801L1354 799L1353 798L1358 795L1357 794L1360 797L1364 797L1369 793L1367 794L1367 788L1370 787L1369 784L1374 776L1376 766L1377 767L1379 764L1381 767L1382 766L1385 769L1386 768L1392 773L1400 773L1401 775L1407 773L1412 777L1420 765L1424 767L1429 767z"/></g><g><path class="class-1 leaflet-clickable" stroke-linejoin="round" stroke-linecap="round" fill-rule="evenodd" stroke="#005540" stroke-opacity="1" stroke-width="0.5" fill="#7fd" fill-opacity="0.5" d="M1441 709L1433 721L1434 722L1428 732L1428 737L1427 736L1426 739L1428 739L1428 753L1430 754L1431 759L1429 764L1432 766L1432 768L1420 765L1418 766L1419 767L1412 777L1408 773L1402 775L1400 773L1395 774L1394 772L1393 773L1387 770L1386 768L1385 769L1382 766L1381 767L1379 764L1378 767L1376 767L1377 768L1374 772L1374 776L1369 783L1370 787L1367 788L1367 794L1369 792L1365 797L1361 797L1350 788L1351 787L1348 782L1340 783L1338 781L1334 775L1334 767L1331 763L1329 763L1329 759L1323 761L1321 760L1322 759L1321 760L1321 757L1319 755L1321 752L1319 749L1320 747L1318 746L1317 742L1313 740L1315 739L1310 732L1310 728L1323 726L1323 722L1318 711L1319 706L1317 704L1317 702L1319 702L1318 698L1320 696L1319 690L1322 689L1320 687L1320 675L1322 676L1319 668L1315 667L1313 663L1313 660L1316 659L1316 656L1319 656L1317 656L1318 655L1315 653L1316 651L1314 651L1317 648L1330 648L1330 636L1333 635L1370 636L1375 643L1378 646L1380 646L1391 658L1401 665L1403 665L1403 667L1405 667L1406 673L1410 678L1410 686L1413 689L1413 691L1417 695L1421 696L1420 697L1423 700L1430 702L1441 709z"/></g><g><path class="class-1 leaflet-clickable" stroke-linejoin="round" stroke-linecap="round" fill-rule="evenodd" stroke="#005540" stroke-opacity="1" stroke-width="0.5" fill="#7fd" fill-opacity="0.5" d="M1547 947L1546 944L1552 944L1555 942L1554 941L1560 941L1565 945L1565 947L1567 947L1570 950L1569 952L1566 951L1564 954L1561 953L1558 956L1551 950L1550 947L1548 948z"/></g><g><path class="class-1 leaflet-clickable" stroke-linejoin="round" stroke-linecap="round" fill-rule="evenodd" stroke="#005540" stroke-opacity="1" stroke-width="0.5" fill="#7fd" fill-opacity="0.5" d="M1293 832L1291 832L1291 827L1293 831z"/></g><g><path class="class-1 leaflet-clickable" stroke-linejoin="round" stroke-linecap="round" fill-rule="evenodd" stroke="#005540" stroke-opacity="1" stroke-width="0.5" fill="#7fd" fill-opacity="0.5" d="M1281 823L1281 826L1280 823z"/></g><g><path class="class-1 leaflet-clickable" stroke-linejoin="round" stroke-linecap="round" fill-rule="evenodd" stroke="#005540" stroke-opacity="1" stroke-width="0.5" fill="#7fd" fill-opacity="0.5" d="M1280 821L1280 822z"/></g><g><path class="class-1 leaflet-clickable" stroke-linejoin="round" stroke-linecap="round" fill-rule="evenodd" stroke="#005540" stroke-opacity="1" stroke-width="0.5" fill="#7fd" fill-opacity="0.5" d="M1273 809L1276 811L1277 814L1273 810z"/></g><g><path class="class-1 leaflet-clickable" stroke-linejoin="round" stroke-linecap="round" fill-rule="evenodd" stroke="#005540" stroke-opacity="1" stroke-width="0.5" fill="#7fd" fill-opacity="0.5" d="M1273 803L1272 805L1273 803z"/></g><g><path class="class-1 leaflet-clickable" stroke-linejoin="round" stroke-linecap="round" fill-rule="evenodd" stroke="#005540" stroke-opacity="1" stroke-width="0.5" fill="#7fd" fill-opacity="0.5" d="M1271 793L1272 796L1271 794z"/></g><g><path class="class-1 leaflet-clickable" stroke-linejoin="round" stroke-linecap="round" fill-rule="evenodd" stroke="#005540" stroke-opacity="1" stroke-width="0.5" fill="#7fd" fill-opacity="0.5" d="M1265 793L1265 795L1265 793z"/></g><g><path class="class-1 leaflet-clickable" stroke-linejoin="round" stroke-linecap="round" fill-rule="evenodd" stroke="#005540" stroke-opacity="1" stroke-width="0.5" fill="#7fd" fill-opacity="0.5" d="M1265 784L1265 786L1263 786L1261 790L1262 791L1261 788L1262 785L1264 785z"/></g><g><path class="class-1 leaflet-clickable" stroke-linejoin="round" stroke-linecap="round" fill-rule="evenodd" stroke="#005540" stroke-opacity="1" stroke-width="0.5" fill="#7fd" fill-opacity="0.5" d="M1260 782L1260 782z"/></g><g><path class="class-1 leaflet-clickable" stroke-linejoin="round" stroke-linecap="round" fill-rule="evenodd" stroke="#005540" stroke-opacity="1" stroke-width="0.5" fill="#7fd" fill-opacity="0.5" d="M1242 754L1242 756L1241 754z"/></g><g><path class="class-1 leaflet-clickable" stroke-linejoin="round" stroke-linecap="round" fill-rule="evenodd" stroke="#005540" stroke-opacity="1" stroke-width="0.5" fill="#7fd" fill-opacity="0.5" d="M1245 749L1244 749z"/></g><g><path class="class-1 leaflet-clickable" stroke-linejoin="round" stroke-linecap="round" fill-rule="evenodd" stroke="#005540" stroke-opacity="1" stroke-width="0.5" fill="#7fd" fill-opacity="0.5" d="M1171 738L1171 738z"/></g><g><path class="class-1 leaflet-clickable" stroke-linejoin="round" stroke-linecap="round" fill-rule="evenodd" stroke="#005540" stroke-opacity="1" stroke-width="0.5" fill="#7fd" fill-opacity="0.5" d="M1193 735L1226 735L1228 742L1236 748L1239 754L1238 755L1245 759L1243 760L1243 762L1245 764L1247 763L1250 765L1253 771L1256 773L1255 774L1259 784L1259 792L1264 798L1266 798L1267 804L1274 815L1272 823L1275 830L1281 832L1281 828L1284 828L1289 832L1289 835L1293 836L1293 838L1296 841L1296 844L1301 847L1302 854L1298 859L1289 864L1286 860L1284 850L1280 846L1276 844L1264 832L1254 827L1249 828L1239 820L1239 817L1236 816L1241 804L1241 791L1235 780L1228 778L1213 766L1211 765L1208 768L1201 761L1197 761L1194 757L1190 757L1187 754L1186 750L1173 739L1174 738L1186 741L1192 738L1193 736z"/></g><g><path class="class-1 leaflet-clickable" stroke-linejoin="round" stroke-linecap="round" fill-rule="evenodd" stroke="#005540" stroke-opacity="1" stroke-width="0.5" fill="#7fd" fill-opacity="0.5" d="M1567 879L1565 881L1557 874L1555 874L1554 876L1547 875L1545 877L1538 875L1536 876L1528 867L1527 871L1524 869L1520 869L1519 867L1514 867L1516 865L1514 862L1516 860L1514 858L1515 853L1513 853L1515 851L1518 852L1517 847L1520 842L1526 842L1528 839L1528 837L1524 833L1526 826L1523 824L1523 822L1527 821L1528 818L1532 816L1534 817L1536 813L1535 811L1538 808L1541 809L1552 800L1549 799L1549 785L1543 785L1541 787L1539 783L1536 785L1535 779L1533 780L1529 777L1530 771L1524 769L1526 764L1522 763L1524 759L1522 749L1518 748L1518 746L1523 743L1527 746L1529 760L1533 764L1537 776L1539 775L1541 777L1546 778L1546 780L1552 780L1557 785L1570 785L1575 790L1577 789L1576 788L1581 787L1581 793L1574 806L1569 824L1567 866L1565 869L1566 878z"/></g><g><path class="class-1 leaflet-clickable" stroke-linejoin="round" stroke-linecap="round" fill-rule="evenodd" stroke="#005540" stroke-opacity="1" stroke-width="0.5" fill="#7fd" fill-opacity="0.5" d="M1520 928L1525 931L1528 930L1528 937L1531 939L1530 940L1534 937L1534 935L1539 935L1539 933L1540 939L1542 937L1545 937L1548 940L1546 944L1548 948L1548 958L1543 960L1540 957L1540 951L1538 949L1537 944L1531 951L1533 955L1532 960L1529 961L1530 963L1527 966L1523 964L1524 965L1522 965L1520 968L1516 968L1510 974L1506 969L1507 968L1505 967L1506 964L1503 961L1512 948L1510 942L1513 941L1513 933L1517 933L1517 929L1519 928z"/></g><g><path class="class-1 leaflet-clickable" stroke-linejoin="round" stroke-linecap="round" fill-rule="evenodd" stroke="#005540" stroke-opacity="1" stroke-width="0.5" fill="#7fd" fill-opacity="0.5" d="M1474 885L1473 886L1475 888L1470 889L1466 894L1462 894L1456 891L1453 892L1451 890L1456 882L1456 878L1462 877L1464 875L1468 877L1467 878L1470 878L1470 882L1474 885z"/></g><g><path class="class-1 leaflet-clickable" stroke-linejoin="round" stroke-linecap="round" fill-rule="evenodd" stroke="#005540" stroke-opacity="1" stroke-width="0.5" fill="#7fd" fill-opacity="0.5" d="M1162 727L1161 727z"/></g><g><path class="class-1 leaflet-clickable" stroke-linejoin="round" stroke-linecap="round" fill-rule="evenodd" stroke="#005540" stroke-opacity="1" stroke-width="0.5" fill="#7fd" fill-opacity="0.5" d="M1170 725L1172 731L1171 734L1167 732L1170 729L1170 726z"/></g><g><path class="class-1 leaflet-clickable" stroke-linejoin="round" stroke-linecap="round" fill-rule="evenodd" stroke="#005540" stroke-opacity="1" stroke-width="0.5" fill="#7fd" fill-opacity="0.5" d="M1223 717L1226 719L1225 720L1224 718z"/></g><g><path class="class-1 leaflet-clickable" stroke-linejoin="round" stroke-linecap="round" fill-rule="evenodd" stroke="#005540" stroke-opacity="1" stroke-width="0.5" fill="#7fd" fill-opacity="0.5" d="M1209 706L1209 707z"/></g><g><path class="class-1 leaflet-clickable" stroke-linejoin="round" stroke-linecap="round" fill-rule="evenodd" stroke="#005540" stroke-opacity="1" stroke-width="0.5" fill="#7fd" fill-opacity="0.5" d="M1209 695L1212 697L1212 700L1214 702L1217 701L1217 709L1207 698L1208 695z"/></g><g><path class="class-1 leaflet-clickable" stroke-linejoin="round" stroke-linecap="round" fill-rule="evenodd" stroke="#005540" stroke-opacity="1" stroke-width="0.5" fill="#7fd" fill-opacity="0.5" d="M1099 704L1101 707L1100 712L1098 707L1099 704z"/></g><g><path class="class-1 leaflet-clickable" stroke-linejoin="round" stroke-linecap="round" fill-rule="evenodd" stroke="#005540" stroke-opacity="1" stroke-width="0.5" fill="#7fd" fill-opacity="0.5" d="M1188 683L1188 684z"/></g><g><path class="class-1 leaflet-clickable" stroke-linejoin="round" stroke-linecap="round" fill-rule="evenodd" stroke="#005540" stroke-opacity="1" stroke-width="0.5" fill="#7fd" fill-opacity="0.5" d="M1181 642L1181 642z"/></g><g><path class="class-1 leaflet-clickable" stroke-linejoin="round" stroke-linecap="round" fill-rule="evenodd" stroke="#005540" stroke-opacity="1" stroke-width="0.5" fill="#7fd" fill-opacity="0.5" d="M1181 635L1183 637L1182 638L1180 638L1180 635z"/></g><g><path class="class-1 leaflet-clickable" stroke-linejoin="round" stroke-linecap="round" fill-rule="evenodd" stroke="#005540" stroke-opacity="1" stroke-width="0.5" fill="#7fd" fill-opacity="0.5" d="M1179 616L1176 618L1174 623L1176 625L1176 632L1180 635L1180 640L1178 643L1178 653L1182 659L1182 667L1184 672L1183 679L1189 687L1189 689L1192 689L1206 702L1209 712L1211 710L1213 714L1216 714L1218 721L1224 725L1223 727L1225 729L1225 735L1193 735L1196 731L1195 728L1197 724L1195 720L1190 716L1190 714L1187 711L1185 711L1184 707L1181 706L1181 704L1159 689L1160 687L1157 683L1157 676L1151 670L1152 664L1146 657L1145 658L1144 649L1137 642L1138 639L1136 636L1137 637L1138 634L1132 629L1132 626L1127 618L1127 615L1181 610L1179 616z"/></g><g><path class="class-1 leaflet-clickable" stroke-linejoin="round" stroke-linecap="round" fill-rule="evenodd" stroke="#005540" stroke-opacity="1" stroke-width="0.5" fill="#7fd" fill-opacity="0.5" d="M1231 716L1230 718L1230 716z"/></g><g><path class="class-1 leaflet-clickable" stroke-linejoin="round" stroke-linecap="round" fill-rule="evenodd" stroke="#005540" stroke-opacity="1" stroke-width="0.5" fill="#7fd" fill-opacity="0.5" d="M1237 703L1239 709L1236 716L1231 712L1232 705L1236 703z"/></g><g><path class="class-1 leaflet-clickable" stroke-linejoin="round" stroke-linecap="round" fill-rule="evenodd" stroke="#005540" stroke-opacity="1" stroke-width="0.5" fill="#7fd" fill-opacity="0.5" d="M1182 636L1184 636L1183 637z"/></g><g><path class="class-1 leaflet-clickable" stroke-linejoin="round" stroke-linecap="round" fill-rule="evenodd" stroke="#005540" stroke-opacity="1" stroke-width="0.5" fill="#7fd" fill-opacity="0.5" d="M1179 616L1259 645L1264 648L1317 648L1316 650L1314 650L1315 653L1318 655L1317 656L1319 656L1316 656L1316 659L1313 659L1313 662L1315 665L1314 666L1321 671L1320 674L1322 675L1320 675L1320 688L1322 688L1322 690L1319 690L1320 696L1318 698L1318 712L1321 716L1323 726L1311 728L1310 732L1314 739L1313 740L1317 743L1319 747L1321 752L1319 754L1322 761L1325 761L1319 769L1319 771L1317 771L1314 774L1314 776L1306 778L1306 774L1304 771L1299 768L1294 768L1290 759L1282 757L1278 753L1275 753L1276 739L1274 737L1273 738L1269 736L1269 738L1267 738L1267 736L1261 734L1255 725L1251 723L1245 716L1246 714L1239 710L1239 703L1237 700L1236 701L1234 699L1235 697L1231 692L1229 686L1226 685L1226 678L1218 664L1219 652L1213 649L1206 648L1206 644L1201 640L1193 643L1184 636L1177 633L1175 626L1176 625L1174 623L1176 621L1176 617L1179 617zM1270 735L1270 736z"/></g><g><path class="class-0 leaflet-clickable" stroke-linejoin="round" stroke-linecap="round" fill-rule="evenodd" stroke="#005540" stroke-opacity="1" stroke-width="0.5" fill="#ddfff6" fill-opacity="0.5" d="M1520 741L1523 743L1518 746L1518 748L1522 749L1524 758L1522 763L1526 764L1524 768L1530 771L1529 777L1533 780L1535 779L1536 785L1539 783L1541 787L1543 785L1549 785L1549 799L1552 799L1542 809L1538 808L1535 811L1535 817L1532 816L1528 818L1527 821L1523 822L1523 824L1525 824L1526 826L1524 833L1529 839L1526 842L1520 842L1517 847L1518 852L1515 851L1513 853L1515 853L1514 855L1511 855L1512 853L1510 853L1509 855L1508 854L1509 857L1506 856L1506 843L1504 840L1505 834L1502 832L1503 827L1498 822L1498 815L1500 813L1498 812L1498 807L1500 805L1511 806L1511 804L1507 803L1502 798L1504 798L1499 795L1496 784L1489 777L1499 767L1501 770L1502 769L1504 765L1504 759L1498 759L1497 756L1501 752L1507 750L1508 743L1512 740L1516 744L1518 743z"/></g><g><path class="class-0 leaflet-clickable" stroke-linejoin="round" stroke-linecap="round" fill-rule="evenodd" stroke="#005540" stroke-opacity="1" stroke-width="0.5" fill="#ddfff6" fill-opacity="0.5" d="M1520 741L1516 745L1512 740L1508 743L1507 750L1501 752L1497 756L1498 759L1504 759L1504 765L1502 769L1501 770L1499 767L1489 777L1498 788L1497 791L1501 797L1504 798L1502 798L1506 801L1506 803L1511 803L1511 806L1500 805L1498 807L1498 811L1500 813L1498 815L1497 822L1495 823L1487 816L1481 818L1479 816L1480 815L1466 808L1460 808L1461 811L1456 809L1451 818L1442 812L1443 811L1437 805L1437 803L1439 801L1440 802L1437 798L1441 792L1440 782L1442 779L1440 771L1432 768L1432 766L1429 763L1431 760L1427 740L1428 739L1426 739L1426 736L1428 736L1428 733L1434 722L1433 721L1441 709L1445 710L1446 707L1450 703L1451 704L1450 702L1452 700L1453 694L1457 689L1461 689L1464 686L1475 689L1483 688L1485 692L1487 692L1487 694L1488 693L1488 695L1501 706L1505 718L1509 723L1508 724L1520 740z"/></g><g><path class="class-0 leaflet-clickable" stroke-linejoin="round" stroke-linecap="round" fill-rule="evenodd" stroke="#005540" stroke-opacity="1" stroke-width="0.5" fill="#ddfff6" fill-opacity="0.5" d="M1540 957L1536 957L1531 953L1536 944L1540 951L1540 956z"/></g></svg>