<svg xmlns="http://www.w3.org/2000/svg" class="leaflet-zoom-animated" width="1967" height="898" viewBox="-354 -162 1967 898" style="transform: translate3d(-354px, -162px, 0px);"><g><path class="class-3 leaflet-clickable" stroke-linejoin="round" stroke-linecap="round" fill-rule="evenodd" stroke="#005540" stroke-opacity="1" stroke-width="0.5" fill="#086" fill-opacity="0.5" d="M687 427L683 427L678 423L683 414L687 421L687 426z"/></g><g><path class="class-2 leaflet-clickable" stroke-linejoin="round" stroke-linecap="round" fill-rule="evenodd" stroke="#005540" stroke-opacity="1" stroke-width="0.5" fill="#00cc99" fill-opacity="0.5" d="M440 302L438 302L438 297L440 301z"/></g><g><path class="class-2 leaflet-clickable" stroke-linejoin="round" stroke-linecap="round" fill-rule="evenodd" stroke="#005540" stroke-opacity="1" stroke-width="0.5" fill="#00cc99" fill-opacity="0.5" d="M428 293L428 296L427 293z"/></g><g><path class="class-2 leaflet-clickable" stroke-linejoin="round" stroke-linecap="round" fill-rule="evenodd" stroke="#005540" stroke-opacity="1" stroke-width="0.5" fill="#00cc99" fill-opacity="0.5" d="M427 291L427 292z"/></g><g><path class="class-2 leaflet-clickable" stroke-linejoin="round" stroke-linecap="round" fill-rule="evenodd" stroke="#005540" stroke-opacity="1" stroke-width="0.5" fill="#00cc99" fill-opacity="0.5" d="M420 279L423 281L424 284L420 280z"/></g><g><path class="class-2 leaflet-clickable" stroke-linejoin="round" stroke-linecap="round" fill-rule="evenodd" stroke="#005540" stroke-opacity="1" stroke-width="0.5" fill="#00cc99" fill-opacity="0.5" d="M420 273L419 275L420 273z"/></g><g><path class="class-2 leaflet-clickable" stroke-linejoin="round" stroke-linecap="round" fill-rule="evenodd" stroke="#005540" stroke-opacity="1" stroke-width="0.5" fill="#00cc99" fill-opacity="0.5" d="M418 263L419 266L418 264z"/></g><g><path class="class-2 leaflet-clickable" stroke-linejoin="round" stroke-linecap="round" fill-rule="evenodd" stroke="#005540" stroke-opacity="1" stroke-width="0.5" fill="#00cc99" fill-opacity="0.5" d="M412 263L412 265L412 263z"/></g><g><path class="class-2 leaflet-clickable" stroke-linejoin="round" stroke-linecap="round" fill-rule="evenodd" stroke="#005540" stroke-opacity="1" stroke-width="0.5" fill="#00cc99" fill-opacity="0.5" d="M412 254L412 256L410 256L408 260L409 261L408 258L409 255L411 255z"/></g><g><path class="class-2 leaflet-clickable" stroke-linejoin="round" stroke-linecap="round" fill-rule="evenodd" stroke="#005540" stroke-opacity="1" stroke-width="0.5" fill="#00cc99" fill-opacity="0.5" d="M407 252L407 252z"/></g><g><path class="class-2 leaflet-clickable" stroke-linejoin="round" stroke-linecap="round" fill-rule="evenodd" stroke="#005540" stroke-opacity="1" stroke-width="0.5" fill="#00cc99" fill-opacity="0.5" d="M389 224L389 226L388 224z"/></g><g><path class="class-2 leaflet-clickable" stroke-linejoin="round" stroke-linecap="round" fill-rule="evenodd" stroke="#005540" stroke-opacity="1" stroke-width="0.5" fill="#00cc99" fill-opacity="0.5" d="M392 219L391 219z"/></g><g><path class="class-2 leaflet-clickable" stroke-linejoin="round" stroke-linecap="round" fill-rule="evenodd" stroke="#005540" stroke-opacity="1" stroke-width="0.5" fill="#00cc99" fill-opacity="0.5" d="M318 208L318 208z"/></g><g><path class="class-2 leaflet-clickable" stroke-linejoin="round" stroke-linecap="round" fill-rule="evenodd" stroke="#005540" stroke-opacity="1" stroke-width="0.5" fill="#00cc99" fill-opacity="0.5" d="M340 205L373 205L375 212L383 218L386 224L385 225L392 229L390 230L390 232L392 234L394 233L397 235L400 241L403 243L402 244L406 254L406 262L411 268L413 268L414 274L421 285L419 293L422 300L428 302L428 298L431 298L436 302L436 305L440 306L440 308L443 311L443 314L448 317L449 324L445 329L436 334L433 330L431 320L427 316L423 314L411 302L401 297L396 298L386 290L386 287L383 286L388 274L388 261L382 250L375 248L360 236L358 235L355 238L348 231L344 231L341 227L337 227L334 224L333 220L320 209L321 208L333 211L339 208L340 206z"/></g><g><path class="class-2 leaflet-clickable" stroke-linejoin="round" stroke-linecap="round" fill-rule="evenodd" stroke="#005540" stroke-opacity="1" stroke-width="0.5" fill="#00cc99" fill-opacity="0.5" d="M685 373L684 376L680 378L679 376L674 386L675 388L667 391L667 398L665 397L665 402L661 404L658 401L658 398L656 398L652 394L650 385L653 382L661 382L662 379L663 380L663 375L669 375L671 373L668 372L670 366L677 370L682 364L684 373z"/></g><g><path class="class-2 leaflet-clickable" stroke-linejoin="round" stroke-linecap="round" fill-rule="evenodd" stroke="#005540" stroke-opacity="1" stroke-width="0.5" fill="#00cc99" fill-opacity="0.5" d="M378 186L377 188L377 186z"/></g><g><path class="class-2 leaflet-clickable" stroke-linejoin="round" stroke-linecap="round" fill-rule="evenodd" stroke="#005540" stroke-opacity="1" stroke-width="0.5" fill="#00cc99" fill-opacity="0.5" d="M384 173L386 179L383 186L378 182L379 175L383 173z"/></g><g><path class="class-2 leaflet-clickable" stroke-linejoin="round" stroke-linecap="round" fill-rule="evenodd" stroke="#005540" stroke-opacity="1" stroke-width="0.5" fill="#00cc99" fill-opacity="0.5" d="M329 106L331 106L330 107z"/></g><g><path class="class-2 leaflet-clickable" stroke-linejoin="round" stroke-linecap="round" fill-rule="evenodd" stroke="#005540" stroke-opacity="1" stroke-width="0.5" fill="#00cc99" fill-opacity="0.5" d="M326 86L406 115L411 118L464 118L463 120L461 120L462 123L465 125L464 126L466 126L463 126L463 129L460 129L460 132L462 135L461 136L468 141L467 144L469 145L467 145L467 158L469 158L469 160L466 160L467 166L465 168L465 182L468 186L470 196L458 198L457 202L461 209L460 210L464 213L466 217L468 222L466 224L469 231L472 231L466 239L466 241L464 241L461 244L461 246L453 248L453 244L451 241L446 238L441 238L437 229L429 227L425 223L422 223L423 209L421 207L420 208L416 206L416 208L414 208L414 206L408 204L402 195L398 193L392 186L393 184L386 180L386 173L384 170L383 171L381 169L382 167L378 162L376 156L373 155L373 148L365 134L366 122L360 119L353 118L353 114L348 110L340 113L331 106L324 103L322 96L323 95L321 93L323 91L323 87L326 87zM417 205L417 206z"/></g><g><path class="class-2 leaflet-clickable" stroke-linejoin="round" stroke-linecap="round" fill-rule="evenodd" stroke="#005540" stroke-opacity="1" stroke-width="0.5" fill="#00cc99" fill-opacity="0.5" d="M951 443L952 440L952 442z"/></g><g><path class="class-2 leaflet-clickable" stroke-linejoin="round" stroke-linecap="round" fill-rule="evenodd" stroke="#005540" stroke-opacity="1" stroke-width="0.5" fill="#00cc99" fill-opacity="0.5" d="M953 435L953 437L953 435z"/></g><g><path class="class-2 leaflet-clickable" stroke-linejoin="round" stroke-linecap="round" fill-rule="evenodd" stroke="#005540" stroke-opacity="1" stroke-width="0.5" fill="#00cc99" fill-opacity="0.5" d="M965 391L959 398L959 394L961 391L966 390z"/></g><g><path class="class-2 leaflet-clickable" stroke-linejoin="round" stroke-linecap="round" fill-rule="evenodd" stroke="#005540" stroke-opacity="1" stroke-width="0.5" fill="#00cc99" fill-opacity="0.5" d="M910 454L909 450L911 449L911 425L910 418L907 415L910 413L911 414L911 412L913 412L913 410L918 407L918 405L921 404L922 401L925 401L927 398L933 397L937 394L944 386L947 380L947 368L954 370L957 369L958 366L963 373L963 370L964 371L964 379L961 385L949 399L949 409L948 410L949 406L948 409L942 412L944 416L949 413L950 414L949 418L944 420L944 424L947 421L949 421L947 423L939 449L936 449L936 443L931 443L931 441L925 441L923 447L920 449L917 455L913 452L911 454z"/></g><g><path class="class-2 leaflet-clickable" stroke-linejoin="round" stroke-linecap="round" fill-rule="evenodd" stroke="#005540" stroke-opacity="1" stroke-width="0.5" fill="#00cc99" fill-opacity="0.5" d="M957 365L955 367L950 368L952 366L956 366z"/></g><g><path class="class-2 leaflet-clickable" stroke-linejoin="round" stroke-linecap="round" fill-rule="evenodd" stroke="#005540" stroke-opacity="1" stroke-width="0.5" fill="#00cc99" fill-opacity="0.5" d="M621 355L620 356L622 358L617 359L613 364L609 364L603 361L600 362L598 360L603 352L603 348L609 347L611 345L615 347L614 348L617 348L617 352L621 355z"/></g><g><path class="class-1 leaflet-clickable" stroke-linejoin="round" stroke-linecap="round" fill-rule="evenodd" stroke="#005540" stroke-opacity="1" stroke-width="0.5" fill="#7fd" fill-opacity="0.5" d="M309 197L308 197z"/></g><g><path class="class-1 leaflet-clickable" stroke-linejoin="round" stroke-linecap="round" fill-rule="evenodd" stroke="#005540" stroke-opacity="1" stroke-width="0.5" fill="#7fd" fill-opacity="0.5" d="M317 195L319 201L318 204L314 202L317 199L317 196z"/></g><g><path class="class-1 leaflet-clickable" stroke-linejoin="round" stroke-linecap="round" fill-rule="evenodd" stroke="#005540" stroke-opacity="1" stroke-width="0.5" fill="#7fd" fill-opacity="0.5" d="M370 187L373 189L372 190L371 188z"/></g><g><path class="class-1 leaflet-clickable" stroke-linejoin="round" stroke-linecap="round" fill-rule="evenodd" stroke="#005540" stroke-opacity="1" stroke-width="0.5" fill="#7fd" fill-opacity="0.5" d="M356 176L356 177z"/></g><g><path class="class-1 leaflet-clickable" stroke-linejoin="round" stroke-linecap="round" fill-rule="evenodd" stroke="#005540" stroke-opacity="1" stroke-width="0.5" fill="#7fd" fill-opacity="0.5" d="M356 165L359 167L359 170L361 172L364 171L364 179L354 168L355 165z"/></g><g><path class="class-1 leaflet-clickable" stroke-linejoin="round" stroke-linecap="round" fill-rule="evenodd" stroke="#005540" stroke-opacity="1" stroke-width="0.5" fill="#7fd" fill-opacity="0.5" d="M246 174L248 177L247 182L245 177L246 174z"/></g><g><path class="class-1 leaflet-clickable" stroke-linejoin="round" stroke-linecap="round" fill-rule="evenodd" stroke="#005540" stroke-opacity="1" stroke-width="0.5" fill="#7fd" fill-opacity="0.5" d="M335 153L335 154z"/></g><g><path class="class-1 leaflet-clickable" stroke-linejoin="round" stroke-linecap="round" fill-rule="evenodd" stroke="#005540" stroke-opacity="1" stroke-width="0.5" fill="#7fd" fill-opacity="0.5" d="M328 112L328 112z"/></g><g><path class="class-1 leaflet-clickable" stroke-linejoin="round" stroke-linecap="round" fill-rule="evenodd" stroke="#005540" stroke-opacity="1" stroke-width="0.5" fill="#7fd" fill-opacity="0.5" d="M328 105L330 107L329 108L327 108L327 105z"/></g><g><path class="class-1 leaflet-clickable" stroke-linejoin="round" stroke-linecap="round" fill-rule="evenodd" stroke="#005540" stroke-opacity="1" stroke-width="0.5" fill="#7fd" fill-opacity="0.5" d="M326 86L323 88L321 93L323 95L323 102L326 103L327 105L327 110L325 113L325 123L329 129L329 137L331 142L330 149L336 157L336 159L339 159L353 172L356 182L358 180L360 184L363 184L365 191L371 195L370 197L372 199L372 205L340 205L343 201L342 198L344 194L342 190L337 186L337 184L334 181L332 181L331 177L328 176L328 174L306 159L307 157L304 153L304 146L298 140L299 134L293 127L292 128L291 119L284 112L285 109L283 106L284 107L285 104L279 99L279 96L274 88L274 85L328 80L326 86z"/></g><g><path class="class-1 leaflet-clickable" stroke-linejoin="round" stroke-linecap="round" fill-rule="evenodd" stroke="#005540" stroke-opacity="1" stroke-width="0.5" fill="#7fd" fill-opacity="0.5" d="M328 444L328 444z"/></g><g><path class="class-1 leaflet-clickable" stroke-linejoin="round" stroke-linecap="round" fill-rule="evenodd" stroke="#005540" stroke-opacity="1" stroke-width="0.5" fill="#7fd" fill-opacity="0.5" d="M413 432L415 434L414 435L412 433L413 432z"/></g><g><path class="class-1 leaflet-clickable" stroke-linejoin="round" stroke-linecap="round" fill-rule="evenodd" stroke="#005540" stroke-opacity="1" stroke-width="0.5" fill="#7fd" fill-opacity="0.5" d="M584 429L578 436L564 426L557 424L558 425L561 422L562 423L570 421L569 420L571 416L576 419L580 416L584 420L584 429z"/></g><g><path class="class-1 leaflet-clickable" stroke-linejoin="round" stroke-linecap="round" fill-rule="evenodd" stroke="#005540" stroke-opacity="1" stroke-width="0.5" fill="#7fd" fill-opacity="0.5" d="M417 422L417 421z"/></g><g><path class="class-1 leaflet-clickable" stroke-linejoin="round" stroke-linecap="round" fill-rule="evenodd" stroke="#005540" stroke-opacity="1" stroke-width="0.5" fill="#7fd" fill-opacity="0.5" d="M601 362L603 361L611 365L621 358L622 357L620 357L622 355L624 355L629 361L627 361L628 362L626 367L628 370L626 370L626 372L623 374L623 376L616 385L619 388L616 394L614 396L608 396L599 402L598 400L594 402L594 405L596 404L601 407L601 409L599 410L602 415L601 416L606 417L603 423L601 422L597 424L592 430L590 428L584 429L584 421L580 416L576 419L571 416L569 421L562 423L561 422L558 425L554 423L554 421L553 422L550 420L548 415L546 415L538 404L534 394L542 392L544 390L543 388L545 385L546 386L548 382L553 380L560 382L567 390L566 385L564 385L568 381L567 376L577 374L576 373L579 370L574 365L575 363L573 361L569 361L568 357L564 355L566 347L568 345L569 346L568 343L571 344L570 347L574 344L571 339L572 337L578 339L578 341L575 342L576 343L574 347L576 351L576 347L579 341L582 343L579 352L580 353L584 353L586 350L588 350L587 347L589 345L591 347L590 348L594 350L592 356L588 356L584 360L582 360L584 362L583 365L579 367L579 369L583 369L584 371L579 373L581 373L582 377L592 379L594 374L597 375L601 371L602 372L604 368L600 365L601 363z"/></g><g><path class="class-1 leaflet-clickable" stroke-linejoin="round" stroke-linecap="round" fill-rule="evenodd" stroke="#005540" stroke-opacity="1" stroke-width="0.5" fill="#7fd" fill-opacity="0.5" d="M947 368L947 380L944 386L933 398L927 398L921 404L919 404L918 407L916 407L917 408L911 414L910 413L907 415L904 413L900 407L900 404L897 400L895 400L891 393L888 394L883 391L882 384L884 379L894 374L920 370L924 367L929 367L932 365L947 368z"/></g><g><path class="class-1 leaflet-clickable" stroke-linejoin="round" stroke-linecap="round" fill-rule="evenodd" stroke="#005540" stroke-opacity="1" stroke-width="0.5" fill="#7fd" fill-opacity="0.5" d="M897 341L900 342L901 344L899 346L896 343L897 341z"/></g><g><path class="class-1 leaflet-clickable" stroke-linejoin="round" stroke-linecap="round" fill-rule="evenodd" stroke="#005540" stroke-opacity="1" stroke-width="0.5" fill="#7fd" fill-opacity="0.5" d="M453 248L457 248L462 244L463 241L467 239L471 229L477 230L476 233L478 233L481 236L481 245L487 253L496 253L498 256L497 258L503 262L503 264L505 264L502 267L500 267L501 270L499 271L501 275L501 280L503 280L506 286L511 289L514 295L513 296L516 299L519 299L519 297L525 299L527 305L530 308L528 308L529 316L532 317L534 321L533 322L535 324L535 328L541 329L538 333L538 340L539 339L540 342L539 343L535 341L534 344L516 325L515 321L509 315L504 307L486 294L470 274L457 269L454 265L450 265L448 257L453 248z"/></g><g><path class="class-1 leaflet-clickable" stroke-linejoin="round" stroke-linecap="round" fill-rule="evenodd" stroke="#005540" stroke-opacity="1" stroke-width="0.5" fill="#7fd" fill-opacity="0.5" d="M579 238L587 241L589 249L587 252L588 261L584 268L588 272L585 272L584 275L590 281L589 282L596 287L598 287L603 279L607 294L606 296L603 297L599 297L598 295L588 295L576 306L577 315L575 315L575 317L572 319L569 326L568 331L570 336L566 337L566 344L561 347L557 342L555 342L555 340L553 340L551 343L549 341L548 339L552 337L549 333L550 332L542 332L540 328L537 329L535 327L533 322L534 321L531 316L529 317L528 308L530 309L528 307L527 302L522 297L519 297L519 299L515 299L511 289L501 280L499 271L501 269L500 268L505 265L504 264L507 267L511 267L516 263L514 264L514 258L517 257L516 254L521 246L523 236L524 237L526 234L528 237L529 236L532 239L533 238L539 243L547 243L548 245L554 243L559 247L567 235L571 237L576 237z"/></g><g><path class="class-1 leaflet-clickable" stroke-linejoin="round" stroke-linecap="round" fill-rule="evenodd" stroke="#005540" stroke-opacity="1" stroke-width="0.5" fill="#7fd" fill-opacity="0.5" d="M669 368L668 371L669 373L671 373L667 376L663 375L664 376L662 382L653 382L650 385L652 393L656 398L654 402L655 405L642 406L639 402L637 402L637 404L633 404L631 402L631 400L633 399L630 398L630 396L628 396L625 399L619 399L619 397L616 394L619 391L616 384L619 382L623 374L626 373L625 370L627 370L626 367L628 363L627 362L629 360L635 360L637 362L639 361L647 367L653 367L654 363L656 363L666 369L668 368z"/></g><g><path class="class-1 leaflet-clickable" stroke-linejoin="round" stroke-linecap="round" fill-rule="evenodd" stroke="#005540" stroke-opacity="1" stroke-width="0.5" fill="#7fd" fill-opacity="0.5" d="M687 427L690 430L694 428L692 434L693 441L692 442L690 440L685 444L679 441L675 436L680 425L687 427z"/></g><g><path class="class-1 leaflet-clickable" stroke-linejoin="round" stroke-linecap="round" fill-rule="evenodd" stroke="#005540" stroke-opacity="1" stroke-width="0.5" fill="#7fd" fill-opacity="0.5" d="M709 392L705 397L702 398L706 399L706 401L702 407L704 410L701 411L702 412L700 414L694 414L695 409L692 407L688 407L687 409L686 406L688 404L686 403L686 405L683 404L681 408L679 408L678 410L678 408L675 405L675 400L672 401L667 398L667 391L672 390L674 388L678 379L677 378L685 376L687 372L688 375L694 376L694 372L698 370L697 373L700 376L703 375L702 376L704 376L706 379L703 383L704 385L699 384L696 388L698 387L696 396L701 395L707 389L709 391z"/></g><g><path class="class-0 leaflet-clickable" stroke-linejoin="round" stroke-linecap="round" fill-rule="evenodd" stroke="#005540" stroke-opacity="1" stroke-width="0.5" fill="#ddfff6" fill-opacity="0.5" d="M667 398L672 401L675 400L675 407L678 409L677 410L681 407L681 405L686 405L686 403L687 409L689 407L692 407L695 410L693 414L695 418L695 428L690 430L687 427L687 421L685 419L684 414L678 421L680 425L679 430L676 431L677 433L674 436L670 434L671 435L669 435L667 438L663 438L657 444L653 439L654 438L652 437L653 434L650 431L659 418L657 412L660 411L660 403L664 403L664 399L666 398z"/></g><g><path class="class-0 leaflet-clickable" stroke-linejoin="round" stroke-linecap="round" fill-rule="evenodd" stroke="#005540" stroke-opacity="1" stroke-width="0.5" fill="#ddfff6" fill-opacity="0.5" d="M522 371L521 371z"/></g><g><path class="class-0 leaflet-clickable" stroke-linejoin="round" stroke-linecap="round" fill-rule="evenodd" stroke="#005540" stroke-opacity="1" stroke-width="0.5" fill="#ddfff6" fill-opacity="0.5" d="M517 368L519 369L518 370L516 368z"/></g><g><path class="class-0 leaflet-clickable" stroke-linejoin="round" stroke-linecap="round" fill-rule="evenodd" stroke="#005540" stroke-opacity="1" stroke-width="0.5" fill="#ddfff6" fill-opacity="0.5" d="M512 363L514 363L515 366L513 366L512 364z"/></g><g><path class="class-0 leaflet-clickable" stroke-linejoin="round" stroke-linecap="round" fill-rule="evenodd" stroke="#005540" stroke-opacity="1" stroke-width="0.5" fill="#ddfff6" fill-opacity="0.5" d="M512 361L511 362z"/></g><g><path class="class-0 leaflet-clickable" stroke-linejoin="round" stroke-linecap="round" fill-rule="evenodd" stroke="#005540" stroke-opacity="1" stroke-width="0.5" fill="#ddfff6" fill-opacity="0.5" d="M564 346L566 347L564 356L568 356L569 360L573 361L575 363L574 366L579 370L576 373L577 374L567 376L568 381L564 385L567 387L567 389L556 380L547 382L544 388L542 386L537 386L545 376L545 367L544 368L539 364L535 356L535 349L532 343L533 342L533 344L535 341L540 343L538 339L538 333L541 329L542 332L550 332L549 333L552 337L548 339L550 343L554 340L559 344L560 347L564 345z"/></g><g><path class="class-0 leaflet-clickable" stroke-linejoin="round" stroke-linecap="round" fill-rule="evenodd" stroke="#005540" stroke-opacity="1" stroke-width="0.5" fill="#ddfff6" fill-opacity="0.5" d="M655 397L659 399L658 401L661 404L660 405L662 408L660 408L658 412L659 419L656 420L654 426L648 433L645 432L646 439L649 441L649 444L645 441L642 442L640 440L634 439L630 441L624 438L621 439L620 441L621 446L614 449L614 455L584 445L578 436L584 429L589 428L592 430L595 427L595 425L596 426L596 424L601 422L602 423L604 421L605 417L601 417L602 415L599 410L601 408L600 406L594 405L594 402L597 401L596 400L601 401L607 396L614 395L618 395L617 396L619 396L621 400L625 400L626 397L630 396L630 398L633 399L631 399L631 402L633 404L637 404L637 402L639 402L642 406L652 406L655 405L654 402L656 398z"/></g><g><path class="class-0 leaflet-clickable" stroke-linejoin="round" stroke-linecap="round" fill-rule="evenodd" stroke="#005540" stroke-opacity="1" stroke-width="0.5" fill="#ddfff6" fill-opacity="0.5" d="M694 417L693 414L699 414L702 412L701 411L707 411L712 415L712 417L714 417L717 420L716 422L713 421L711 424L708 423L705 426L698 420L697 417L695 418z"/></g><g><path class="class-0 leaflet-clickable" stroke-linejoin="round" stroke-linecap="round" fill-rule="evenodd" stroke="#005540" stroke-opacity="1" stroke-width="0.5" fill="#ddfff6" fill-opacity="0.5" d="M803 473L797 489L799 492L798 496L800 500L794 497L784 495L772 496L767 501L763 501L753 506L752 505L749 508L740 508L731 505L728 502L714 501L704 494L697 493L701 490L700 487L705 485L704 484L707 481L707 477L709 475L704 474L703 470L702 471L702 464L698 460L699 456L703 454L704 455L706 453L710 453L713 455L715 452L714 451L713 453L712 448L717 445L719 452L726 448L731 449L738 443L739 437L745 440L750 449L758 449L759 454L757 459L761 463L764 464L770 459L772 459L773 460L771 462L775 467L780 470L779 471L798 473z"/></g><g><path class="class-0 leaflet-clickable" stroke-linejoin="round" stroke-linecap="round" fill-rule="evenodd" stroke="#005540" stroke-opacity="1" stroke-width="0.5" fill="#ddfff6" fill-opacity="0.5" d="M675 435L679 441L683 441L685 446L690 450L689 451L692 452L690 452L693 454L699 454L698 460L702 464L702 471L703 470L704 473L708 475L707 480L704 484L705 485L701 487L700 491L696 493L691 487L689 488L679 484L671 484L663 478L639 470L640 469L635 465L631 464L622 455L614 452L615 448L621 445L621 439L623 438L627 438L627 440L629 441L645 441L647 443L648 442L648 444L649 441L647 441L646 439L645 432L648 433L650 431L653 434L652 437L657 444L663 438L667 438L671 434L674 436z"/></g><g><path class="class-0 leaflet-clickable" stroke-linejoin="round" stroke-linecap="round" fill-rule="evenodd" stroke="#005540" stroke-opacity="1" stroke-width="0.5" fill="#ddfff6" fill-opacity="0.5" d="M858 470L861 473L862 472L862 474L866 476L865 477L870 481L875 483L876 488L882 491L881 498L852 498L841 518L844 522L841 527L842 531L840 535L812 507L804 501L799 500L797 496L799 495L799 492L797 489L803 473L811 466L811 464L815 460L814 458L817 453L820 455L820 457L822 457L821 459L824 465L825 464L827 466L826 467L827 466L829 468L833 463L838 462L837 461L843 458L843 456L846 454L849 455L849 459L853 460L853 466L858 467L859 470z"/></g><g><path class="class-1 leaflet-clickable" stroke-linejoin="round" stroke-linecap="round" fill-rule="evenodd" stroke="#005540" stroke-opacity="1" stroke-width="0.5" fill="#7fd" fill-opacity="0.5" d="M645 292L647 295L642 299L640 297L639 301L637 302L636 308L631 313L623 320L618 322L615 322L613 320L611 323L613 323L611 325L615 336L619 340L621 339L621 342L623 344L626 343L630 337L633 338L632 339L634 343L632 344L631 348L633 350L633 355L630 359L629 360L628 358L621 355L617 352L617 348L616 349L611 345L609 347L603 348L603 352L598 359L601 363L601 366L604 368L603 371L601 371L597 375L594 374L594 378L592 379L588 379L581 376L579 372L583 371L583 369L579 369L579 367L583 365L584 362L582 360L592 355L594 350L592 348L591 349L589 345L587 347L588 350L586 350L585 353L579 352L582 349L582 344L581 342L579 342L577 343L576 351L574 347L576 343L575 342L578 341L578 339L575 337L571 338L574 343L571 347L571 343L569 343L567 347L565 346L566 338L570 336L568 331L571 319L576 315L577 316L576 306L580 302L582 302L582 299L584 299L586 295L598 295L601 297L606 296L607 291L603 283L603 280L608 281L607 278L616 279L621 281L623 284L627 285L626 286L628 288L634 286L637 288L638 291L642 293L645 292z"/></g><g><path class="class-1 leaflet-clickable" stroke-linejoin="round" stroke-linecap="round" fill-rule="evenodd" stroke="#005540" stroke-opacity="1" stroke-width="0.5" fill="#7fd" fill-opacity="0.5" d="M661 325L663 329L661 331L663 335L661 337L666 337L674 341L675 337L683 346L696 346L702 350L696 357L698 357L698 361L694 365L697 368L697 370L693 372L695 372L694 376L690 376L687 372L684 373L682 364L677 370L675 370L671 366L669 366L669 368L666 369L657 363L655 363L653 367L649 368L645 366L642 362L629 360L633 355L633 351L631 348L634 344L632 339L633 338L630 337L628 341L627 340L626 343L623 344L621 342L621 339L619 340L614 335L612 330L613 328L611 325L613 323L611 323L613 320L615 322L623 320L636 308L636 302L639 301L640 296L642 299L647 295L650 296L649 301L652 303L652 326L655 327L655 324L656 325L657 323L659 323L658 325L660 325z"/></g><g><path class="class-0 leaflet-clickable" stroke-linejoin="round" stroke-linecap="round" fill-rule="evenodd" stroke="#005540" stroke-opacity="1" stroke-width="0.5" fill="#ddfff6" fill-opacity="0.5" d="M738 443L734 447L729 449L726 448L721 452L719 452L717 446L713 446L713 453L715 451L716 452L714 452L711 455L709 453L705 453L705 455L700 456L699 453L695 454L685 446L685 444L688 441L693 442L692 434L695 428L694 417L696 417L705 426L708 423L711 425L713 422L717 421L714 417L711 416L712 415L710 413L708 413L708 411L703 412L704 411L702 408L707 401L705 398L702 398L705 397L711 390L712 384L715 385L715 389L719 392L714 395L716 397L715 400L719 402L722 398L728 401L722 416L724 418L723 419L732 422L730 424L731 425L727 424L724 437L725 436L730 441L734 439L738 443z"/></g><g><path class="class-1 leaflet-clickable" stroke-linejoin="round" stroke-linecap="round" fill-rule="evenodd" stroke="#005540" stroke-opacity="1" stroke-width="0.5" fill="#7fd" fill-opacity="0.5" d="M714 349L716 357L724 366L722 372L723 378L730 392L737 398L744 407L747 419L752 424L752 426L755 427L757 432L762 435L771 435L781 440L788 449L797 447L798 456L806 460L808 463L808 470L806 470L803 473L779 472L780 470L775 467L771 462L773 460L772 459L770 459L764 464L761 464L757 459L759 454L758 449L750 449L751 448L750 449L748 447L743 438L739 437L738 444L736 440L732 439L730 441L727 437L724 436L726 431L725 428L732 422L723 419L724 418L722 416L722 414L725 411L725 407L729 401L722 398L719 402L715 400L716 397L714 395L715 393L716 394L719 392L716 391L714 384L712 384L711 390L709 391L707 388L706 391L701 395L696 396L697 395L695 392L698 390L699 387L697 388L701 383L701 385L703 385L704 380L706 378L702 376L703 375L700 376L697 373L698 370L697 371L694 365L699 361L696 356L698 357L699 353L702 350L694 346L700 346L703 344L709 347L712 351L713 349z"/></g><g><path class="class-1 leaflet-clickable" stroke-linejoin="round" stroke-linecap="round" fill-rule="evenodd" stroke="#005540" stroke-opacity="1" stroke-width="0.5" fill="#7fd" fill-opacity="0.5" d="M588 179L580 191L581 192L575 202L575 207L574 206L573 209L575 209L575 223L577 224L578 229L576 234L579 236L579 238L567 235L565 236L566 237L559 247L555 243L549 245L547 243L542 244L541 242L540 243L534 240L533 238L532 239L529 236L528 237L526 234L525 237L523 237L524 238L521 242L521 246L516 253L517 257L514 258L514 264L516 262L512 267L508 267L497 258L498 257L495 252L487 253L485 251L481 245L481 237L478 233L476 233L476 229L470 231L468 230L469 229L468 230L468 227L466 225L468 222L466 219L467 217L465 216L464 212L460 210L462 209L457 202L457 198L470 196L470 192L465 181L466 176L464 174L464 172L466 172L465 168L467 166L466 160L469 159L467 157L467 145L469 146L466 138L462 137L460 133L460 130L463 129L463 126L466 126L464 126L465 125L462 123L463 121L461 121L464 118L477 118L477 106L480 105L517 106L522 113L525 116L527 116L538 128L548 135L550 135L550 137L552 137L553 143L557 148L557 156L560 159L560 161L564 165L568 166L567 167L570 170L577 172L588 179z"/></g><g><path class="class-3 leaflet-clickable" stroke-linejoin="round" stroke-linecap="round" fill-rule="evenodd" stroke="#005540" stroke-opacity="1" stroke-width="0.5" fill="#086" fill-opacity="0.5" d="M667 211L663 215L659 210L655 213L654 220L648 222L644 226L645 229L651 229L651 235L649 239L648 240L646 237L636 247L645 258L644 261L648 267L651 268L649 268L653 271L653 273L658 273L658 276L647 275L645 277L645 281L647 283L645 285L644 292L642 293L634 286L628 288L626 286L627 285L613 278L607 278L608 281L603 279L598 288L589 282L590 281L584 275L584 273L586 271L587 272L584 268L588 262L587 252L589 249L587 241L579 238L579 236L576 233L578 230L574 210L575 209L573 209L573 206L575 206L575 203L581 192L580 191L588 179L592 180L593 177L597 173L598 174L597 172L599 170L600 164L604 159L608 159L611 156L622 159L630 158L632 162L634 162L634 164L635 163L635 165L648 176L652 188L656 193L655 194L667 210z"/></g><g><path class="class-3 leaflet-clickable" stroke-linejoin="round" stroke-linecap="round" fill-rule="evenodd" stroke="#005540" stroke-opacity="1" stroke-width="0.5" fill="#086" fill-opacity="0.5" d="M667 211L670 213L665 216L665 218L669 219L671 228L669 233L673 234L671 238L677 241L676 247L680 250L682 249L683 255L686 253L688 257L690 255L696 255L696 269L699 269L689 279L685 278L682 281L682 287L679 286L675 288L674 291L670 292L670 294L672 294L673 296L671 303L676 309L673 312L667 312L664 317L665 322L662 321L660 323L662 323L661 325L658 325L659 323L657 323L656 325L655 324L656 327L653 326L653 313L651 310L652 304L649 302L650 297L645 292L645 285L647 283L645 282L645 277L647 275L658 276L658 274L654 273L649 268L651 268L646 265L643 254L636 247L646 237L648 240L649 239L651 235L651 229L645 229L644 226L648 222L654 220L655 213L659 210L663 214L665 213z"/></g><g><path class="class-1 leaflet-clickable" stroke-linejoin="round" stroke-linecap="round" fill-rule="evenodd" stroke="#005540" stroke-opacity="1" stroke-width="0.5" fill="#7fd" fill-opacity="0.5" d="M714 349L712 351L704 344L702 344L701 346L694 345L692 347L685 345L683 346L675 337L674 341L671 339L667 339L666 337L661 337L663 335L661 332L663 330L661 328L662 323L660 323L662 321L665 322L664 317L667 312L673 312L675 309L675 307L671 303L673 296L670 294L670 292L674 291L675 288L679 286L681 287L683 283L682 281L685 278L688 279L699 270L696 269L696 255L690 255L688 257L686 253L683 255L682 249L680 250L676 247L677 241L671 239L673 234L669 233L671 229L669 219L665 218L665 216L670 213L674 216L676 230L680 234L684 246L686 245L688 247L693 248L693 250L699 250L704 255L717 255L722 260L724 259L723 258L728 257L728 263L721 276L716 294L714 336L712 339L713 348z"/></g><g><path class="class-3 leaflet-clickable" stroke-linejoin="round" stroke-linecap="round" fill-rule="evenodd" stroke="#005540" stroke-opacity="1" stroke-width="0.5" fill="#086" fill-opacity="0.5" d="M869 457L869 470L858 470L859 467L853 465L854 462L850 459L850 455L846 455L839 460L838 459L838 461L836 463L832 463L832 465L829 468L827 466L826 467L827 466L825 464L823 464L821 459L822 456L820 456L821 455L818 453L815 454L815 460L811 464L809 469L807 467L809 463L807 463L803 458L798 456L799 452L797 448L813 442L826 442L829 440L829 438L834 437L837 442L841 442L842 449L845 450L846 452L854 456L854 450L857 448L857 450L863 453L869 453L869 455z"/></g><g><path class="class-3 leaflet-clickable" stroke-linejoin="round" stroke-linecap="round" fill-rule="evenodd" stroke="#005540" stroke-opacity="1" stroke-width="0.5" fill="#086" fill-opacity="0.5" d="M882 384L882 391L886 391L887 394L890 393L895 397L894 398L900 404L903 412L910 418L910 457L869 457L869 453L859 451L856 449L857 448L854 451L854 455L842 449L842 444L838 442L835 438L838 436L846 436L849 438L866 428L875 420L875 412L881 405L880 391L882 384z"/></g></svg>