<svg xmlns="http://www.w3.org/2000/svg" class="leaflet-zoom-animated" width="2000" height="842" viewBox="-317 -133 2000 842" style="transform: translate3d(-317px, -133px, 0px);"><g><path class="class-02 leaflet-clickable" stroke-linejoin="round" stroke-linecap="round" fill-rule="evenodd" stroke="#888" stroke-opacity="1" stroke-width="0.5" fill="#e6a583" fill-opacity="0.5" d="M729 435L733 441L737 441L739 446L744 450L743 451L746 452L744 452L747 454L753 454L752 460L756 464L756 471L757 470L758 473L762 475L761 480L758 484L759 485L755 487L754 491L750 493L745 487L743 488L733 484L725 484L717 478L693 470L694 469L689 465L685 464L676 455L668 452L669 448L675 445L675 439L677 438L681 438L681 440L683 441L699 441L701 443L702 442L702 444L703 441L701 441L700 439L699 432L702 433L704 431L707 434L706 437L711 444L717 438L721 438L725 434L728 436z"/></g><g><path class="class-12 leaflet-clickable" stroke-linejoin="round" stroke-linecap="round" fill-rule="evenodd" stroke="#888" stroke-opacity="1" stroke-width="0.5" fill="#c0976b" fill-opacity="0.5" d="M709 397L713 399L712 401L715 404L714 405L716 408L714 408L712 412L713 419L710 420L708 426L702 433L699 432L700 439L703 441L703 444L699 441L696 442L694 440L688 439L684 441L678 438L675 439L674 441L675 446L668 449L668 455L638 445L632 436L638 429L643 428L646 430L649 427L649 425L650 426L650 424L655 422L656 423L658 421L659 417L655 417L656 415L653 410L655 408L654 406L648 405L648 402L651 401L650 400L655 401L661 396L668 395L672 395L671 396L673 396L675 400L679 400L680 397L684 396L684 398L687 399L685 399L685 402L687 404L691 404L691 402L693 402L696 406L706 406L709 405L708 402L710 398z"/></g><g><path class="class-12 leaflet-clickable" stroke-linejoin="round" stroke-linecap="round" fill-rule="evenodd" stroke="#888" stroke-opacity="1" stroke-width="0.5" fill="#c0976b" fill-opacity="0.5" d="M1001 368L1001 380L998 386L987 398L981 398L975 404L973 404L972 407L970 407L971 408L965 414L964 413L961 415L958 413L954 407L954 404L951 400L949 400L945 393L942 394L937 391L936 384L938 379L948 374L974 370L978 367L983 367L986 365L1001 368z"/></g><g><path class="class-12 leaflet-clickable" stroke-linejoin="round" stroke-linecap="round" fill-rule="evenodd" stroke="#888" stroke-opacity="1" stroke-width="0.5" fill="#c0976b" fill-opacity="0.5" d="M951 341L954 342L955 344L953 346L950 343L951 341z"/></g><g><path class="class-11 leaflet-clickable" stroke-linejoin="round" stroke-linecap="round" fill-rule="evenodd" stroke="#888" stroke-opacity="1" stroke-width="0.5" fill="#cbc39a" fill-opacity="0.5" d="M576 371L575 371z"/></g><g><path class="class-11 leaflet-clickable" stroke-linejoin="round" stroke-linecap="round" fill-rule="evenodd" stroke="#888" stroke-opacity="1" stroke-width="0.5" fill="#cbc39a" fill-opacity="0.5" d="M571 368L573 369L572 370L570 368z"/></g><g><path class="class-11 leaflet-clickable" stroke-linejoin="round" stroke-linecap="round" fill-rule="evenodd" stroke="#888" stroke-opacity="1" stroke-width="0.5" fill="#cbc39a" fill-opacity="0.5" d="M566 363L568 363L569 366L567 366L566 364z"/></g><g><path class="class-11 leaflet-clickable" stroke-linejoin="round" stroke-linecap="round" fill-rule="evenodd" stroke="#888" stroke-opacity="1" stroke-width="0.5" fill="#cbc39a" fill-opacity="0.5" d="M566 361L565 362z"/></g><g><path class="class-11 leaflet-clickable" stroke-linejoin="round" stroke-linecap="round" fill-rule="evenodd" stroke="#888" stroke-opacity="1" stroke-width="0.5" fill="#cbc39a" fill-opacity="0.5" d="M618 346L620 347L618 356L622 356L623 360L627 361L629 363L628 366L633 370L630 373L631 374L621 376L622 381L618 385L621 387L621 389L610 380L601 382L598 388L596 386L591 386L599 376L599 367L598 368L593 364L589 356L589 349L586 343L587 342L587 344L589 341L594 343L592 339L592 333L595 329L596 332L604 332L603 333L606 337L602 339L604 343L608 340L613 344L614 347L618 345z"/></g><g><path class="class-11 leaflet-clickable" stroke-linejoin="round" stroke-linecap="round" fill-rule="evenodd" stroke="#888" stroke-opacity="1" stroke-width="0.5" fill="#cbc39a" fill-opacity="0.5" d="M936 384L936 391L940 391L941 394L944 393L949 397L948 398L954 404L957 412L964 418L964 457L923 457L923 453L913 451L910 449L911 448L908 451L908 455L896 449L896 444L892 442L889 438L892 436L900 436L903 438L920 428L929 420L929 412L935 405L934 391L936 384z"/></g><g><path class="class-11 leaflet-clickable" stroke-linejoin="round" stroke-linecap="round" fill-rule="evenodd" stroke="#888" stroke-opacity="1" stroke-width="0.5" fill="#cbc39a" fill-opacity="0.5" d="M741 427L744 430L748 428L746 434L747 441L746 442L744 440L739 444L733 441L729 436L734 425L741 427z"/></g><g><path class="class-21 leaflet-clickable" stroke-linejoin="round" stroke-linecap="round" fill-rule="evenodd" stroke="#888" stroke-opacity="1" stroke-width="0.5" fill="#95a865" fill-opacity="0.5" d="M382 444L382 444z"/></g><g><path class="class-21 leaflet-clickable" stroke-linejoin="round" stroke-linecap="round" fill-rule="evenodd" stroke="#888" stroke-opacity="1" stroke-width="0.5" fill="#95a865" fill-opacity="0.5" d="M467 432L469 434L468 435L466 433L467 432z"/></g><g><path class="class-21 leaflet-clickable" stroke-linejoin="round" stroke-linecap="round" fill-rule="evenodd" stroke="#888" stroke-opacity="1" stroke-width="0.5" fill="#95a865" fill-opacity="0.5" d="M638 429L632 436L618 426L611 424L612 425L615 422L616 423L624 421L623 420L625 416L630 419L634 416L638 420L638 429z"/></g><g><path class="class-21 leaflet-clickable" stroke-linejoin="round" stroke-linecap="round" fill-rule="evenodd" stroke="#888" stroke-opacity="1" stroke-width="0.5" fill="#95a865" fill-opacity="0.5" d="M471 422L471 421z"/></g><g><path class="class-21 leaflet-clickable" stroke-linejoin="round" stroke-linecap="round" fill-rule="evenodd" stroke="#888" stroke-opacity="1" stroke-width="0.5" fill="#95a865" fill-opacity="0.5" d="M507 248L511 248L516 244L517 241L521 239L525 229L531 230L530 233L532 233L535 236L535 245L541 253L550 253L552 256L551 258L557 262L557 264L559 264L556 267L554 267L555 270L553 271L555 275L555 280L557 280L560 286L565 289L568 295L567 296L570 299L573 299L573 297L579 299L581 305L584 308L582 308L583 316L586 317L588 321L587 322L589 324L589 328L595 329L592 333L592 340L593 339L594 342L593 343L589 341L588 344L570 325L569 321L563 315L558 307L540 294L524 274L511 269L508 265L504 265L502 257L507 248z"/></g><g><path class="class-10 leaflet-clickable" stroke-linejoin="round" stroke-linecap="round" fill-rule="evenodd" stroke="#888" stroke-opacity="1" stroke-width="0.5" fill="#ccdfcc" fill-opacity="0.5" d="M748 417L747 414L753 414L756 412L755 411L761 411L766 415L766 417L768 417L771 420L770 422L767 421L765 424L762 423L759 426L752 420L751 417L749 418z"/></g><g><path class="class-00 leaflet-clickable" stroke-linejoin="round" stroke-linecap="round" fill-rule="evenodd" stroke="#888" stroke-opacity="1" stroke-width="0.5" fill="#ccc" fill-opacity="0.5" d="M494 302L492 302L492 297L494 301z"/></g><g><path class="class-00 leaflet-clickable" stroke-linejoin="round" stroke-linecap="round" fill-rule="evenodd" stroke="#888" stroke-opacity="1" stroke-width="0.5" fill="#ccc" fill-opacity="0.5" d="M482 293L482 296L481 293z"/></g><g><path class="class-00 leaflet-clickable" stroke-linejoin="round" stroke-linecap="round" fill-rule="evenodd" stroke="#888" stroke-opacity="1" stroke-width="0.5" fill="#ccc" fill-opacity="0.5" d="M481 291L481 292z"/></g><g><path class="class-00 leaflet-clickable" stroke-linejoin="round" stroke-linecap="round" fill-rule="evenodd" stroke="#888" stroke-opacity="1" stroke-width="0.5" fill="#ccc" fill-opacity="0.5" d="M474 279L477 281L478 284L474 280z"/></g><g><path class="class-00 leaflet-clickable" stroke-linejoin="round" stroke-linecap="round" fill-rule="evenodd" stroke="#888" stroke-opacity="1" stroke-width="0.5" fill="#ccc" fill-opacity="0.5" d="M474 273L473 275L474 273z"/></g><g><path class="class-00 leaflet-clickable" stroke-linejoin="round" stroke-linecap="round" fill-rule="evenodd" stroke="#888" stroke-opacity="1" stroke-width="0.5" fill="#ccc" fill-opacity="0.5" d="M472 263L473 266L472 264z"/></g><g><path class="class-00 leaflet-clickable" stroke-linejoin="round" stroke-linecap="round" fill-rule="evenodd" stroke="#888" stroke-opacity="1" stroke-width="0.5" fill="#ccc" fill-opacity="0.5" d="M466 263L466 265L466 263z"/></g><g><path class="class-00 leaflet-clickable" stroke-linejoin="round" stroke-linecap="round" fill-rule="evenodd" stroke="#888" stroke-opacity="1" stroke-width="0.5" fill="#ccc" fill-opacity="0.5" d="M466 254L466 256L464 256L462 260L463 261L462 258L463 255L465 255z"/></g><g><path class="class-00 leaflet-clickable" stroke-linejoin="round" stroke-linecap="round" fill-rule="evenodd" stroke="#888" stroke-opacity="1" stroke-width="0.5" fill="#ccc" fill-opacity="0.5" d="M461 252L461 252z"/></g><g><path class="class-00 leaflet-clickable" stroke-linejoin="round" stroke-linecap="round" fill-rule="evenodd" stroke="#888" stroke-opacity="1" stroke-width="0.5" fill="#ccc" fill-opacity="0.5" d="M443 224L443 226L442 224z"/></g><g><path class="class-00 leaflet-clickable" stroke-linejoin="round" stroke-linecap="round" fill-rule="evenodd" stroke="#888" stroke-opacity="1" stroke-width="0.5" fill="#ccc" fill-opacity="0.5" d="M446 219L445 219z"/></g><g><path class="class-00 leaflet-clickable" stroke-linejoin="round" stroke-linecap="round" fill-rule="evenodd" stroke="#888" stroke-opacity="1" stroke-width="0.5" fill="#ccc" fill-opacity="0.5" d="M372 208L372 208z"/></g><g><path class="class-00 leaflet-clickable" stroke-linejoin="round" stroke-linecap="round" fill-rule="evenodd" stroke="#888" stroke-opacity="1" stroke-width="0.5" fill="#ccc" fill-opacity="0.5" d="M394 205L427 205L429 212L437 218L440 224L439 225L446 229L444 230L444 232L446 234L448 233L451 235L454 241L457 243L456 244L460 254L460 262L465 268L467 268L468 274L475 285L473 293L476 300L482 302L482 298L485 298L490 302L490 305L494 306L494 308L497 311L497 314L502 317L503 324L499 329L490 334L487 330L485 320L481 316L477 314L465 302L455 297L450 298L440 290L440 287L437 286L442 274L442 261L436 250L429 248L414 236L412 235L409 238L402 231L398 231L395 227L391 227L388 224L387 220L374 209L375 208L387 211L393 208L394 206z"/></g><g><path class="class-20 leaflet-clickable" stroke-linejoin="round" stroke-linecap="round" fill-rule="evenodd" stroke="#888" stroke-opacity="1" stroke-width="0.5" fill="#95c497" fill-opacity="0.5" d="M363 197L362 197z"/></g><g><path class="class-20 leaflet-clickable" stroke-linejoin="round" stroke-linecap="round" fill-rule="evenodd" stroke="#888" stroke-opacity="1" stroke-width="0.5" fill="#95c497" fill-opacity="0.5" d="M371 195L373 201L372 204L368 202L371 199L371 196z"/></g><g><path class="class-20 leaflet-clickable" stroke-linejoin="round" stroke-linecap="round" fill-rule="evenodd" stroke="#888" stroke-opacity="1" stroke-width="0.5" fill="#95c497" fill-opacity="0.5" d="M424 187L427 189L426 190L425 188z"/></g><g><path class="class-20 leaflet-clickable" stroke-linejoin="round" stroke-linecap="round" fill-rule="evenodd" stroke="#888" stroke-opacity="1" stroke-width="0.5" fill="#95c497" fill-opacity="0.5" d="M410 176L410 177z"/></g><g><path class="class-20 leaflet-clickable" stroke-linejoin="round" stroke-linecap="round" fill-rule="evenodd" stroke="#888" stroke-opacity="1" stroke-width="0.5" fill="#95c497" fill-opacity="0.5" d="M410 165L413 167L413 170L415 172L418 171L418 179L408 168L409 165z"/></g><g><path class="class-20 leaflet-clickable" stroke-linejoin="round" stroke-linecap="round" fill-rule="evenodd" stroke="#888" stroke-opacity="1" stroke-width="0.5" fill="#95c497" fill-opacity="0.5" d="M300 174L302 177L301 182L299 177L300 174z"/></g><g><path class="class-20 leaflet-clickable" stroke-linejoin="round" stroke-linecap="round" fill-rule="evenodd" stroke="#888" stroke-opacity="1" stroke-width="0.5" fill="#95c497" fill-opacity="0.5" d="M389 153L389 154z"/></g><g><path class="class-20 leaflet-clickable" stroke-linejoin="round" stroke-linecap="round" fill-rule="evenodd" stroke="#888" stroke-opacity="1" stroke-width="0.5" fill="#95c497" fill-opacity="0.5" d="M382 112L382 112z"/></g><g><path class="class-20 leaflet-clickable" stroke-linejoin="round" stroke-linecap="round" fill-rule="evenodd" stroke="#888" stroke-opacity="1" stroke-width="0.5" fill="#95c497" fill-opacity="0.5" d="M382 105L384 107L383 108L381 108L381 105z"/></g><g><path class="class-20 leaflet-clickable" stroke-linejoin="round" stroke-linecap="round" fill-rule="evenodd" stroke="#888" stroke-opacity="1" stroke-width="0.5" fill="#95c497" fill-opacity="0.5" d="M380 86L377 88L375 93L377 95L377 102L380 103L381 105L381 110L379 113L379 123L383 129L383 137L385 142L384 149L390 157L390 159L393 159L407 172L410 182L412 180L414 184L417 184L419 191L425 195L424 197L426 199L426 205L394 205L397 201L396 198L398 194L396 190L391 186L391 184L388 181L386 181L385 177L382 176L382 174L360 159L361 157L358 153L358 146L352 140L353 134L347 127L346 128L345 119L338 112L339 109L337 106L338 107L339 104L333 99L333 96L328 88L328 85L382 80L380 86z"/></g><g><path class="class-20 leaflet-clickable" stroke-linejoin="round" stroke-linecap="round" fill-rule="evenodd" stroke="#888" stroke-opacity="1" stroke-width="0.5" fill="#95c497" fill-opacity="0.5" d="M432 186L431 188L431 186z"/></g><g><path class="class-20 leaflet-clickable" stroke-linejoin="round" stroke-linecap="round" fill-rule="evenodd" stroke="#888" stroke-opacity="1" stroke-width="0.5" fill="#95c497" fill-opacity="0.5" d="M438 173L440 179L437 186L432 182L433 175L437 173z"/></g><g><path class="class-20 leaflet-clickable" stroke-linejoin="round" stroke-linecap="round" fill-rule="evenodd" stroke="#888" stroke-opacity="1" stroke-width="0.5" fill="#95c497" fill-opacity="0.5" d="M383 106L385 106L384 107z"/></g><g><path class="class-20 leaflet-clickable" stroke-linejoin="round" stroke-linecap="round" fill-rule="evenodd" stroke="#888" stroke-opacity="1" stroke-width="0.5" fill="#95c497" fill-opacity="0.5" d="M380 86L460 115L465 118L518 118L517 120L515 120L516 123L519 125L518 126L520 126L517 126L517 129L514 129L514 132L516 135L515 136L522 141L521 144L523 145L521 145L521 158L523 158L523 160L520 160L521 166L519 168L519 182L522 186L524 196L512 198L511 202L515 209L514 210L518 213L520 217L522 222L520 224L523 231L526 231L520 239L520 241L518 241L515 244L515 246L507 248L507 244L505 241L500 238L495 238L491 229L483 227L479 223L476 223L477 209L475 207L474 208L470 206L470 208L468 208L468 206L462 204L456 195L452 193L446 186L447 184L440 180L440 173L438 170L437 171L435 169L436 167L432 162L430 156L427 155L427 148L419 134L420 122L414 119L407 118L407 114L402 110L394 113L385 106L378 103L376 96L377 95L375 93L377 91L377 87L380 87zM471 205L471 206z"/></g><g><path class="class-20 leaflet-clickable" stroke-linejoin="round" stroke-linecap="round" fill-rule="evenodd" stroke="#888" stroke-opacity="1" stroke-width="0.5" fill="#95c497" fill-opacity="0.5" d="M741 427L737 427L732 423L737 414L741 421L741 426z"/></g><g><path class="class-21 leaflet-clickable" stroke-linejoin="round" stroke-linecap="round" fill-rule="evenodd" stroke="#888" stroke-opacity="1" stroke-width="0.5" fill="#95a865" fill-opacity="0.5" d="M1005 443L1006 440L1006 442z"/></g><g><path class="class-21 leaflet-clickable" stroke-linejoin="round" stroke-linecap="round" fill-rule="evenodd" stroke="#888" stroke-opacity="1" stroke-width="0.5" fill="#95a865" fill-opacity="0.5" d="M1007 435L1007 437L1007 435z"/></g><g><path class="class-21 leaflet-clickable" stroke-linejoin="round" stroke-linecap="round" fill-rule="evenodd" stroke="#888" stroke-opacity="1" stroke-width="0.5" fill="#95a865" fill-opacity="0.5" d="M1019 391L1013 398L1013 394L1015 391L1020 390z"/></g><g><path class="class-21 leaflet-clickable" stroke-linejoin="round" stroke-linecap="round" fill-rule="evenodd" stroke="#888" stroke-opacity="1" stroke-width="0.5" fill="#95a865" fill-opacity="0.5" d="M964 454L963 450L965 449L965 425L964 418L961 415L964 413L965 414L965 412L967 412L967 410L972 407L972 405L975 404L976 401L979 401L981 398L987 397L991 394L998 386L1001 380L1001 368L1008 370L1011 369L1012 366L1017 373L1017 370L1018 371L1018 379L1015 385L1003 399L1003 409L1002 410L1003 406L1002 409L996 412L998 416L1003 413L1004 414L1003 418L998 420L998 424L1001 421L1003 421L1001 423L993 449L990 449L990 443L985 443L985 441L979 441L977 447L974 449L971 455L967 452L965 454z"/></g><g><path class="class-21 leaflet-clickable" stroke-linejoin="round" stroke-linecap="round" fill-rule="evenodd" stroke="#888" stroke-opacity="1" stroke-width="0.5" fill="#95a865" fill-opacity="0.5" d="M1011 365L1009 367L1004 368L1006 366L1010 366z"/></g><g><path class="class-21 leaflet-clickable" stroke-linejoin="round" stroke-linecap="round" fill-rule="evenodd" stroke="#888" stroke-opacity="1" stroke-width="0.5" fill="#95a865" fill-opacity="0.5" d="M739 373L738 376L734 378L733 376L728 386L729 388L721 391L721 398L719 397L719 402L715 404L712 401L712 398L710 398L706 394L704 385L707 382L715 382L716 379L717 380L717 375L723 375L725 373L722 372L724 366L731 370L736 364L738 373z"/></g><g><path class="class-12 leaflet-clickable" stroke-linejoin="round" stroke-linecap="round" fill-rule="evenodd" stroke="#888" stroke-opacity="1" stroke-width="0.5" fill="#c0976b" fill-opacity="0.5" d="M715 325L717 329L715 331L717 335L715 337L720 337L728 341L729 337L737 346L750 346L756 350L750 357L752 357L752 361L748 365L751 368L751 370L747 372L749 372L748 376L744 376L741 372L738 373L736 364L731 370L729 370L725 366L723 366L723 368L720 369L711 363L709 363L707 367L703 368L699 366L696 362L683 360L687 355L687 351L685 348L688 344L686 339L687 338L684 337L682 341L681 340L680 343L677 344L675 342L675 339L673 340L668 335L666 330L667 328L665 325L667 323L665 323L667 320L669 322L677 320L690 308L690 302L693 301L694 296L696 299L701 295L704 296L703 301L706 303L706 326L709 327L709 324L710 325L711 323L713 323L712 325L714 325z"/></g><g><path class="class-20 leaflet-clickable" stroke-linejoin="round" stroke-linecap="round" fill-rule="evenodd" stroke="#888" stroke-opacity="1" stroke-width="0.5" fill="#95c497" fill-opacity="0.5" d="M768 349L766 351L758 344L756 344L755 346L748 345L746 347L739 345L737 346L729 337L728 341L725 339L721 339L720 337L715 337L717 335L715 332L717 330L715 328L716 323L714 323L716 321L719 322L718 317L721 312L727 312L729 309L729 307L725 303L727 296L724 294L724 292L728 291L729 288L733 286L735 287L737 283L736 281L739 278L742 279L753 270L750 269L750 255L744 255L742 257L740 253L737 255L736 249L734 250L730 247L731 241L725 239L727 234L723 233L725 229L723 219L719 218L719 216L724 213L728 216L730 230L734 234L738 246L740 245L742 247L747 248L747 250L753 250L758 255L771 255L776 260L778 259L777 258L782 257L782 263L775 276L770 294L768 336L766 339L767 348z"/></g><g><path class="class-20 leaflet-clickable" stroke-linejoin="round" stroke-linecap="round" fill-rule="evenodd" stroke="#888" stroke-opacity="1" stroke-width="0.5" fill="#95c497" fill-opacity="0.5" d="M721 211L724 213L719 216L719 218L723 219L725 228L723 233L727 234L725 238L731 241L730 247L734 250L736 249L737 255L740 253L742 257L744 255L750 255L750 269L753 269L743 279L739 278L736 281L736 287L733 286L729 288L728 291L724 292L724 294L726 294L727 296L725 303L730 309L727 312L721 312L718 317L719 322L716 321L714 323L716 323L715 325L712 325L713 323L711 323L710 325L709 324L710 327L707 326L707 313L705 310L706 304L703 302L704 297L699 292L699 285L701 283L699 282L699 277L701 275L712 276L712 274L708 273L703 268L705 268L700 265L697 254L690 247L700 237L702 240L703 239L705 235L705 229L699 229L698 226L702 222L708 220L709 213L713 210L717 214L719 213z"/></g><g><path class="class-21 leaflet-clickable" stroke-linejoin="round" stroke-linecap="round" fill-rule="evenodd" stroke="#888" stroke-opacity="1" stroke-width="0.5" fill="#95a865" fill-opacity="0.5" d="M642 179L634 191L635 192L629 202L629 207L628 206L627 209L629 209L629 223L631 224L632 229L630 234L633 236L633 238L621 235L619 236L620 237L613 247L609 243L603 245L601 243L596 244L595 242L594 243L588 240L587 238L586 239L583 236L582 237L580 234L579 237L577 237L578 238L575 242L575 246L570 253L571 257L568 258L568 264L570 262L566 267L562 267L551 258L552 257L549 252L541 253L539 251L535 245L535 237L532 233L530 233L530 229L524 231L522 230L523 229L522 230L522 227L520 225L522 222L520 219L521 217L519 216L518 212L514 210L516 209L511 202L511 198L524 196L524 192L519 181L520 176L518 174L518 172L520 172L519 168L521 166L520 160L523 159L521 157L521 145L523 146L520 138L516 137L514 133L514 130L517 129L517 126L520 126L518 126L519 125L516 123L517 121L515 121L518 118L531 118L531 106L534 105L571 106L576 113L579 116L581 116L592 128L602 135L604 135L604 137L606 137L607 143L611 148L611 156L614 159L614 161L618 165L622 166L621 167L624 170L631 172L642 179z"/></g><g><path class="class-21 leaflet-clickable" stroke-linejoin="round" stroke-linecap="round" fill-rule="evenodd" stroke="#888" stroke-opacity="1" stroke-width="0.5" fill="#95a865" fill-opacity="0.5" d="M655 362L657 361L665 365L675 358L676 357L674 357L676 355L678 355L683 361L681 361L682 362L680 367L682 370L680 370L680 372L677 374L677 376L670 385L673 388L670 394L668 396L662 396L653 402L652 400L648 402L648 405L650 404L655 407L655 409L653 410L656 415L655 416L660 417L657 423L655 422L651 424L646 430L644 428L638 429L638 421L634 416L630 419L625 416L623 421L616 423L615 422L612 425L608 423L608 421L607 422L604 420L602 415L600 415L592 404L588 394L596 392L598 390L597 388L599 385L600 386L602 382L607 380L614 382L621 390L620 385L618 385L622 381L621 376L631 374L630 373L633 370L628 365L629 363L627 361L623 361L622 357L618 355L620 347L622 345L623 346L622 343L625 344L624 347L628 344L625 339L626 337L632 339L632 341L629 342L630 343L628 347L630 351L630 347L633 341L636 343L633 352L634 353L638 353L640 350L642 350L641 347L643 345L645 347L644 348L648 350L646 356L642 356L638 360L636 360L638 362L637 365L633 367L633 369L637 369L638 371L633 373L635 373L636 377L646 379L648 374L651 375L655 371L656 372L658 368L654 365L655 363z"/></g><g><path class="class-10 leaflet-clickable" stroke-linejoin="round" stroke-linecap="round" fill-rule="evenodd" stroke="#888" stroke-opacity="1" stroke-width="0.5" fill="#ccdfcc" fill-opacity="0.5" d="M721 398L726 401L729 400L729 407L732 409L731 410L735 407L735 405L740 405L740 403L741 409L743 407L746 407L749 410L747 414L749 418L749 428L744 430L741 427L741 421L739 419L738 414L732 421L734 425L733 430L730 431L731 433L728 436L724 434L725 435L723 435L721 438L717 438L711 444L707 439L708 438L706 437L707 434L704 431L713 418L711 412L714 411L714 403L718 403L718 399L720 398z"/></g><g><path class="class-12 leaflet-clickable" stroke-linejoin="round" stroke-linecap="round" fill-rule="evenodd" stroke="#888" stroke-opacity="1" stroke-width="0.5" fill="#c0976b" fill-opacity="0.5" d="M857 473L851 489L853 492L852 496L854 500L848 497L838 495L826 496L821 501L817 501L807 506L806 505L803 508L794 508L785 505L782 502L768 501L758 494L751 493L755 490L754 487L759 485L758 484L761 481L761 477L763 475L758 474L757 470L756 471L756 464L752 460L753 456L757 454L758 455L760 453L764 453L767 455L769 452L768 451L767 453L766 448L771 445L773 452L780 448L785 449L792 443L793 437L799 440L804 449L812 449L813 454L811 459L815 463L818 464L824 459L826 459L827 460L825 462L829 467L834 470L833 471L852 473z"/></g><g><path class="class-11 leaflet-clickable" stroke-linejoin="round" stroke-linecap="round" fill-rule="evenodd" stroke="#888" stroke-opacity="1" stroke-width="0.5" fill="#cbc39a" fill-opacity="0.5" d="M923 457L923 470L912 470L913 467L907 465L908 462L904 459L904 455L900 455L893 460L892 459L892 461L890 463L886 463L886 465L883 468L881 466L880 467L881 466L879 464L877 464L875 459L876 456L874 456L875 455L872 453L869 454L869 460L865 464L863 469L861 467L863 463L861 463L857 458L852 456L853 452L851 448L867 442L880 442L883 440L883 438L888 437L891 442L895 442L896 449L899 450L900 452L908 456L908 450L911 448L911 450L917 453L923 453L923 455z"/></g><g><path class="class-02 leaflet-clickable" stroke-linejoin="round" stroke-linecap="round" fill-rule="evenodd" stroke="#888" stroke-opacity="1" stroke-width="0.5" fill="#e6a583" fill-opacity="0.5" d="M912 470L915 473L916 472L916 474L920 476L919 477L924 481L929 483L930 488L936 491L935 498L906 498L895 518L898 522L895 527L896 531L894 535L866 507L858 501L853 500L851 496L853 495L853 492L851 489L857 473L865 466L865 464L869 460L868 458L871 453L874 455L874 457L876 457L875 459L878 465L879 464L881 466L880 467L881 466L883 468L887 463L892 462L891 461L897 458L897 456L900 454L903 455L903 459L907 460L907 466L912 467L913 470z"/></g><g><path class="class-12 leaflet-clickable" stroke-linejoin="round" stroke-linecap="round" fill-rule="evenodd" stroke="#888" stroke-opacity="1" stroke-width="0.5" fill="#c0976b" fill-opacity="0.5" d="M768 349L770 357L778 366L776 372L777 378L784 392L791 398L798 407L801 419L806 424L806 426L809 427L811 432L816 435L825 435L835 440L842 449L851 447L852 456L860 460L862 463L862 470L860 470L857 473L833 472L834 470L829 467L825 462L827 460L826 459L824 459L818 464L815 464L811 459L813 454L812 449L804 449L805 448L804 449L802 447L797 438L793 437L792 444L790 440L786 439L784 441L781 437L778 436L780 431L779 428L786 422L777 419L778 418L776 416L776 414L779 411L779 407L783 401L776 398L773 402L769 400L770 397L768 395L769 393L770 394L773 392L770 391L768 384L766 384L765 390L763 391L761 388L760 391L755 395L750 396L751 395L749 392L752 390L753 387L751 388L755 383L755 385L757 385L758 380L760 378L756 376L757 375L754 376L751 373L752 370L751 371L748 365L753 361L750 356L752 357L753 353L756 350L748 346L754 346L757 344L763 347L766 351L767 349z"/></g><g><path class="class-02 leaflet-clickable" stroke-linejoin="round" stroke-linecap="round" fill-rule="evenodd" stroke="#888" stroke-opacity="1" stroke-width="0.5" fill="#e6a583" fill-opacity="0.5" d="M792 443L788 447L783 449L780 448L775 452L773 452L771 446L767 446L767 453L769 451L770 452L768 452L765 455L763 453L759 453L759 455L754 456L753 453L749 454L739 446L739 444L742 441L747 442L746 434L749 428L748 417L750 417L759 426L762 423L765 425L767 422L771 421L768 417L765 416L766 415L764 413L762 413L762 411L757 412L758 411L756 408L761 401L759 398L756 398L759 397L765 390L766 384L769 385L769 389L773 392L768 395L770 397L769 400L773 402L776 398L782 401L776 416L778 418L777 419L786 422L784 424L785 425L781 424L778 437L779 436L784 441L788 439L792 443z"/></g><g><path class="class-11 leaflet-clickable" stroke-linejoin="round" stroke-linecap="round" fill-rule="evenodd" stroke="#888" stroke-opacity="1" stroke-width="0.5" fill="#cbc39a" fill-opacity="0.5" d="M763 392L759 397L756 398L760 399L760 401L756 407L758 410L755 411L756 412L754 414L748 414L749 409L746 407L742 407L741 409L740 406L742 404L740 403L740 405L737 404L735 408L733 408L732 410L732 408L729 405L729 400L726 401L721 398L721 391L726 390L728 388L732 379L731 378L739 376L741 372L742 375L748 376L748 372L752 370L751 373L754 376L757 375L756 376L758 376L760 379L757 383L758 385L753 384L750 388L752 387L750 396L755 395L761 389L763 391z"/></g><g><path class="class-12 leaflet-clickable" stroke-linejoin="round" stroke-linecap="round" fill-rule="evenodd" stroke="#888" stroke-opacity="1" stroke-width="0.5" fill="#c0976b" fill-opacity="0.5" d="M723 368L722 371L723 373L725 373L721 376L717 375L718 376L716 382L707 382L704 385L706 393L710 398L708 402L709 405L696 406L693 402L691 402L691 404L687 404L685 402L685 400L687 399L684 398L684 396L682 396L679 399L673 399L673 397L670 394L673 391L670 384L673 382L677 374L680 373L679 370L681 370L680 367L682 363L681 362L683 360L689 360L691 362L693 361L701 367L707 367L708 363L710 363L720 369L722 368z"/></g><g><path class="class-20 leaflet-clickable" stroke-linejoin="round" stroke-linecap="round" fill-rule="evenodd" stroke="#888" stroke-opacity="1" stroke-width="0.5" fill="#95c497" fill-opacity="0.5" d="M675 355L674 356L676 358L671 359L667 364L663 364L657 361L654 362L652 360L657 352L657 348L663 347L665 345L669 347L668 348L671 348L671 352L675 355z"/></g><g><path class="class-11 leaflet-clickable" stroke-linejoin="round" stroke-linecap="round" fill-rule="evenodd" stroke="#888" stroke-opacity="1" stroke-width="0.5" fill="#cbc39a" fill-opacity="0.5" d="M699 292L701 295L696 299L694 297L693 301L691 302L690 308L685 313L677 320L672 322L669 322L667 320L665 323L667 323L665 325L669 336L673 340L675 339L675 342L677 344L680 343L684 337L687 338L686 339L688 343L686 344L685 348L687 350L687 355L684 359L683 360L682 358L675 355L671 352L671 348L670 349L665 345L663 347L657 348L657 352L652 359L655 363L655 366L658 368L657 371L655 371L651 375L648 374L648 378L646 379L642 379L635 376L633 372L637 371L637 369L633 369L633 367L637 365L638 362L636 360L646 355L648 350L646 348L645 349L643 345L641 347L642 350L640 350L639 353L633 352L636 349L636 344L635 342L633 342L631 343L630 351L628 347L630 343L629 342L632 341L632 339L629 337L625 338L628 343L625 347L625 343L623 343L621 347L619 346L620 338L624 336L622 331L625 319L630 315L631 316L630 306L634 302L636 302L636 299L638 299L640 295L652 295L655 297L660 296L661 291L657 283L657 280L662 281L661 278L670 279L675 281L677 284L681 285L680 286L682 288L688 286L691 288L692 291L696 293L699 292z"/></g><g><path class="class-21 leaflet-clickable" stroke-linejoin="round" stroke-linecap="round" fill-rule="evenodd" stroke="#888" stroke-opacity="1" stroke-width="0.5" fill="#95a865" fill-opacity="0.5" d="M633 238L641 241L643 249L641 252L642 261L638 268L642 272L639 272L638 275L644 281L643 282L650 287L652 287L657 279L661 294L660 296L657 297L653 297L652 295L642 295L630 306L631 315L629 315L629 317L626 319L623 326L622 331L624 336L620 337L620 344L615 347L611 342L609 342L609 340L607 340L605 343L603 341L602 339L606 337L603 333L604 332L596 332L594 328L591 329L589 327L587 322L588 321L585 316L583 317L582 308L584 309L582 307L581 302L576 297L573 297L573 299L569 299L565 289L555 280L553 271L555 269L554 268L559 265L558 264L561 267L565 267L570 263L568 264L568 258L571 257L570 254L575 246L577 236L578 237L580 234L582 237L583 236L586 239L587 238L593 243L601 243L602 245L608 243L613 247L621 235L625 237L630 237z"/></g><g><path class="class-20 leaflet-clickable" stroke-linejoin="round" stroke-linecap="round" fill-rule="evenodd" stroke="#888" stroke-opacity="1" stroke-width="0.5" fill="#95c497" fill-opacity="0.5" d="M721 211L717 215L713 210L709 213L708 220L702 222L698 226L699 229L705 229L705 235L703 239L702 240L700 237L690 247L699 258L698 261L702 267L705 268L703 268L707 271L707 273L712 273L712 276L701 275L699 277L699 281L701 283L699 285L698 292L696 293L688 286L682 288L680 286L681 285L667 278L661 278L662 281L657 279L652 288L643 282L644 281L638 275L638 273L640 271L641 272L638 268L642 262L641 252L643 249L641 241L633 238L633 236L630 233L632 230L628 210L629 209L627 209L627 206L629 206L629 203L635 192L634 191L642 179L646 180L647 177L651 173L652 174L651 172L653 170L654 164L658 159L662 159L665 156L676 159L684 158L686 162L688 162L688 164L689 163L689 165L702 176L706 188L710 193L709 194L721 210z"/></g></svg>