<svg xmlns="http://www.w3.org/2000/svg" class="leaflet-zoom-animated" width="1973" height="898" viewBox="-355 -162 1973 898" style="transform: translate3d(-355px, -162px, 0px);"><g><path class="class-3 leaflet-clickable" stroke-linejoin="round" stroke-linecap="round" fill-rule="evenodd" stroke="#005540" stroke-opacity="1" stroke-width="0.5" fill="#086" fill-opacity="0.5" d="M860 470L863 473L864 472L864 474L868 476L867 477L872 481L877 483L878 488L884 491L883 498L854 498L843 518L846 522L843 527L844 531L842 535L814 507L806 501L801 500L799 496L801 495L801 492L799 489L805 473L813 466L813 464L817 460L816 458L819 453L822 455L822 457L824 457L823 459L826 465L827 464L829 466L828 467L829 466L831 468L835 463L840 462L839 461L845 458L845 456L848 454L851 455L851 459L855 460L855 466L860 467L861 470z"/></g><g><path class="class-3 leaflet-clickable" stroke-linejoin="round" stroke-linecap="round" fill-rule="evenodd" stroke="#005540" stroke-opacity="1" stroke-width="0.5" fill="#086" fill-opacity="0.5" d="M524 371L523 371z"/></g><g><path class="class-3 leaflet-clickable" stroke-linejoin="round" stroke-linecap="round" fill-rule="evenodd" stroke="#005540" stroke-opacity="1" stroke-width="0.5" fill="#086" fill-opacity="0.5" d="M519 368L521 369L520 370L518 368z"/></g><g><path class="class-3 leaflet-clickable" stroke-linejoin="round" stroke-linecap="round" fill-rule="evenodd" stroke="#005540" stroke-opacity="1" stroke-width="0.5" fill="#086" fill-opacity="0.5" d="M514 363L516 363L517 366L515 366L514 364z"/></g><g><path class="class-3 leaflet-clickable" stroke-linejoin="round" stroke-linecap="round" fill-rule="evenodd" stroke="#005540" stroke-opacity="1" stroke-width="0.5" fill="#086" fill-opacity="0.5" d="M514 361L513 362z"/></g><g><path class="class-3 leaflet-clickable" stroke-linejoin="round" stroke-linecap="round" fill-rule="evenodd" stroke="#005540" stroke-opacity="1" stroke-width="0.5" fill="#086" fill-opacity="0.5" d="M566 346L568 347L566 356L570 356L571 360L575 361L577 363L576 366L581 370L578 373L579 374L569 376L570 381L566 385L569 387L569 389L558 380L549 382L546 388L544 386L539 386L547 376L547 367L546 368L541 364L537 356L537 349L534 343L535 342L535 344L537 341L542 343L540 339L540 333L543 329L544 332L552 332L551 333L554 337L550 339L552 343L556 340L561 344L562 347L566 345z"/></g><g><path class="class-3 leaflet-clickable" stroke-linejoin="round" stroke-linecap="round" fill-rule="evenodd" stroke="#005540" stroke-opacity="1" stroke-width="0.5" fill="#086" fill-opacity="0.5" d="M647 292L649 295L644 299L642 297L641 301L639 302L638 308L633 313L625 320L620 322L617 322L615 320L613 323L615 323L613 325L617 336L621 340L623 339L623 342L625 344L628 343L632 337L635 338L634 339L636 343L634 344L633 348L635 350L635 355L632 359L631 360L630 358L623 355L619 352L619 348L618 349L613 345L611 347L605 348L605 352L600 359L603 363L603 366L606 368L605 371L603 371L599 375L596 374L596 378L594 379L590 379L583 376L581 372L585 371L585 369L581 369L581 367L585 365L586 362L584 360L594 355L596 350L594 348L593 349L591 345L589 347L590 350L588 350L587 353L581 352L584 349L584 344L583 342L581 342L579 343L578 351L576 347L578 343L577 342L580 341L580 339L577 337L573 338L576 343L573 347L573 343L571 343L569 347L567 346L568 338L572 336L570 331L573 319L578 315L579 316L578 306L582 302L584 302L584 299L586 299L588 295L600 295L603 297L608 296L609 291L605 283L605 280L610 281L609 278L618 279L623 281L625 284L629 285L628 286L630 288L636 286L639 288L640 291L644 293L647 292z"/></g><g><path class="class-3 leaflet-clickable" stroke-linejoin="round" stroke-linecap="round" fill-rule="evenodd" stroke="#005540" stroke-opacity="1" stroke-width="0.5" fill="#086" fill-opacity="0.5" d="M677 435L681 441L685 441L687 446L692 450L691 451L694 452L692 452L695 454L701 454L700 460L704 464L704 471L705 470L706 473L710 475L709 480L706 484L707 485L703 487L702 491L698 493L693 487L691 488L681 484L673 484L665 478L641 470L642 469L637 465L633 464L624 455L616 452L617 448L623 445L623 439L625 438L629 438L629 440L631 441L647 441L649 443L650 442L650 444L651 441L649 441L648 439L647 432L650 433L652 431L655 434L654 437L659 444L665 438L669 438L673 434L676 436z"/></g><g><path class="class-3 leaflet-clickable" stroke-linejoin="round" stroke-linecap="round" fill-rule="evenodd" stroke="#005540" stroke-opacity="1" stroke-width="0.5" fill="#086" fill-opacity="0.5" d="M669 211L665 215L661 210L657 213L656 220L650 222L646 226L647 229L653 229L653 235L651 239L650 240L648 237L638 247L647 258L646 261L650 267L653 268L651 268L655 271L655 273L660 273L660 276L649 275L647 277L647 281L649 283L647 285L646 292L644 293L636 286L630 288L628 286L629 285L615 278L609 278L610 281L605 279L600 288L591 282L592 281L586 275L586 273L588 271L589 272L586 268L590 262L589 252L591 249L589 241L581 238L581 236L578 233L580 230L576 210L577 209L575 209L575 206L577 206L577 203L583 192L582 191L590 179L594 180L595 177L599 173L600 174L599 172L601 170L602 164L606 159L610 159L613 156L624 159L632 158L634 162L636 162L636 164L637 163L637 165L650 176L654 188L658 193L657 194L669 210z"/></g><g><path class="class-3 leaflet-clickable" stroke-linejoin="round" stroke-linecap="round" fill-rule="evenodd" stroke="#005540" stroke-opacity="1" stroke-width="0.5" fill="#086" fill-opacity="0.5" d="M953 443L954 440L954 442z"/></g><g><path class="class-3 leaflet-clickable" stroke-linejoin="round" stroke-linecap="round" fill-rule="evenodd" stroke="#005540" stroke-opacity="1" stroke-width="0.5" fill="#086" fill-opacity="0.5" d="M955 435L955 437L955 435z"/></g><g><path class="class-3 leaflet-clickable" stroke-linejoin="round" stroke-linecap="round" fill-rule="evenodd" stroke="#005540" stroke-opacity="1" stroke-width="0.5" fill="#086" fill-opacity="0.5" d="M967 391L961 398L961 394L963 391L968 390z"/></g><g><path class="class-3 leaflet-clickable" stroke-linejoin="round" stroke-linecap="round" fill-rule="evenodd" stroke="#005540" stroke-opacity="1" stroke-width="0.5" fill="#086" fill-opacity="0.5" d="M912 454L911 450L913 449L913 425L912 418L909 415L912 413L913 414L913 412L915 412L915 410L920 407L920 405L923 404L924 401L927 401L929 398L935 397L939 394L946 386L949 380L949 368L956 370L959 369L960 366L965 373L965 370L966 371L966 379L963 385L951 399L951 409L950 410L951 406L950 409L944 412L946 416L951 413L952 414L951 418L946 420L946 424L949 421L951 421L949 423L941 449L938 449L938 443L933 443L933 441L927 441L925 447L922 449L919 455L915 452L913 454z"/></g><g><path class="class-3 leaflet-clickable" stroke-linejoin="round" stroke-linecap="round" fill-rule="evenodd" stroke="#005540" stroke-opacity="1" stroke-width="0.5" fill="#086" fill-opacity="0.5" d="M959 365L957 367L952 368L954 366L958 366z"/></g><g><path class="class-2 leaflet-clickable" stroke-linejoin="round" stroke-linecap="round" fill-rule="evenodd" stroke="#005540" stroke-opacity="1" stroke-width="0.5" fill="#00cc99" fill-opacity="0.5" d="M590 179L582 191L583 192L577 202L577 207L576 206L575 209L577 209L577 223L579 224L580 229L578 234L581 236L581 238L569 235L567 236L568 237L561 247L557 243L551 245L549 243L544 244L543 242L542 243L536 240L535 238L534 239L531 236L530 237L528 234L527 237L525 237L526 238L523 242L523 246L518 253L519 257L516 258L516 264L518 262L514 267L510 267L499 258L500 257L497 252L489 253L487 251L483 245L483 237L480 233L478 233L478 229L472 231L470 230L471 229L470 230L470 227L468 225L470 222L468 219L469 217L467 216L466 212L462 210L464 209L459 202L459 198L472 196L472 192L467 181L468 176L466 174L466 172L468 172L467 168L469 166L468 160L471 159L469 157L469 145L471 146L468 138L464 137L462 133L462 130L465 129L465 126L468 126L466 126L467 125L464 123L465 121L463 121L466 118L479 118L479 106L482 105L519 106L524 113L527 116L529 116L540 128L550 135L552 135L552 137L554 137L555 143L559 148L559 156L562 159L562 161L566 165L570 166L569 167L572 170L579 172L590 179z"/></g><g><path class="class-2 leaflet-clickable" stroke-linejoin="round" stroke-linecap="round" fill-rule="evenodd" stroke="#005540" stroke-opacity="1" stroke-width="0.5" fill="#00cc99" fill-opacity="0.5" d="M311 197L310 197z"/></g><g><path class="class-2 leaflet-clickable" stroke-linejoin="round" stroke-linecap="round" fill-rule="evenodd" stroke="#005540" stroke-opacity="1" stroke-width="0.5" fill="#00cc99" fill-opacity="0.5" d="M319 195L321 201L320 204L316 202L319 199L319 196z"/></g><g><path class="class-2 leaflet-clickable" stroke-linejoin="round" stroke-linecap="round" fill-rule="evenodd" stroke="#005540" stroke-opacity="1" stroke-width="0.5" fill="#00cc99" fill-opacity="0.5" d="M372 187L375 189L374 190L373 188z"/></g><g><path class="class-2 leaflet-clickable" stroke-linejoin="round" stroke-linecap="round" fill-rule="evenodd" stroke="#005540" stroke-opacity="1" stroke-width="0.5" fill="#00cc99" fill-opacity="0.5" d="M358 176L358 177z"/></g><g><path class="class-2 leaflet-clickable" stroke-linejoin="round" stroke-linecap="round" fill-rule="evenodd" stroke="#005540" stroke-opacity="1" stroke-width="0.5" fill="#00cc99" fill-opacity="0.5" d="M358 165L361 167L361 170L363 172L366 171L366 179L356 168L357 165z"/></g><g><path class="class-2 leaflet-clickable" stroke-linejoin="round" stroke-linecap="round" fill-rule="evenodd" stroke="#005540" stroke-opacity="1" stroke-width="0.5" fill="#00cc99" fill-opacity="0.5" d="M248 174L250 177L249 182L247 177L248 174z"/></g><g><path class="class-2 leaflet-clickable" stroke-linejoin="round" stroke-linecap="round" fill-rule="evenodd" stroke="#005540" stroke-opacity="1" stroke-width="0.5" fill="#00cc99" fill-opacity="0.5" d="M337 153L337 154z"/></g><g><path class="class-2 leaflet-clickable" stroke-linejoin="round" stroke-linecap="round" fill-rule="evenodd" stroke="#005540" stroke-opacity="1" stroke-width="0.5" fill="#00cc99" fill-opacity="0.5" d="M330 112L330 112z"/></g><g><path class="class-2 leaflet-clickable" stroke-linejoin="round" stroke-linecap="round" fill-rule="evenodd" stroke="#005540" stroke-opacity="1" stroke-width="0.5" fill="#00cc99" fill-opacity="0.5" d="M330 105L332 107L331 108L329 108L329 105z"/></g><g><path class="class-2 leaflet-clickable" stroke-linejoin="round" stroke-linecap="round" fill-rule="evenodd" stroke="#005540" stroke-opacity="1" stroke-width="0.5" fill="#00cc99" fill-opacity="0.5" d="M328 86L325 88L323 93L325 95L325 102L328 103L329 105L329 110L327 113L327 123L331 129L331 137L333 142L332 149L338 157L338 159L341 159L355 172L358 182L360 180L362 184L365 184L367 191L373 195L372 197L374 199L374 205L342 205L345 201L344 198L346 194L344 190L339 186L339 184L336 181L334 181L333 177L330 176L330 174L308 159L309 157L306 153L306 146L300 140L301 134L295 127L294 128L293 119L286 112L287 109L285 106L286 107L287 104L281 99L281 96L276 88L276 85L330 80L328 86z"/></g><g><path class="class-2 leaflet-clickable" stroke-linejoin="round" stroke-linecap="round" fill-rule="evenodd" stroke="#005540" stroke-opacity="1" stroke-width="0.5" fill="#00cc99" fill-opacity="0.5" d="M871 457L871 470L860 470L861 467L855 465L856 462L852 459L852 455L848 455L841 460L840 459L840 461L838 463L834 463L834 465L831 468L829 466L828 467L829 466L827 464L825 464L823 459L824 456L822 456L823 455L820 453L817 454L817 460L813 464L811 469L809 467L811 463L809 463L805 458L800 456L801 452L799 448L815 442L828 442L831 440L831 438L836 437L839 442L843 442L844 449L847 450L848 452L856 456L856 450L859 448L859 450L865 453L871 453L871 455z"/></g><g><path class="class-2 leaflet-clickable" stroke-linejoin="round" stroke-linecap="round" fill-rule="evenodd" stroke="#005540" stroke-opacity="1" stroke-width="0.5" fill="#00cc99" fill-opacity="0.5" d="M581 238L589 241L591 249L589 252L590 261L586 268L590 272L587 272L586 275L592 281L591 282L598 287L600 287L605 279L609 294L608 296L605 297L601 297L600 295L590 295L578 306L579 315L577 315L577 317L574 319L571 326L570 331L572 336L568 337L568 344L563 347L559 342L557 342L557 340L555 340L553 343L551 341L550 339L554 337L551 333L552 332L544 332L542 328L539 329L537 327L535 322L536 321L533 316L531 317L530 308L532 309L530 307L529 302L524 297L521 297L521 299L517 299L513 289L503 280L501 271L503 269L502 268L507 265L506 264L509 267L513 267L518 263L516 264L516 258L519 257L518 254L523 246L525 236L526 237L528 234L530 237L531 236L534 239L535 238L541 243L549 243L550 245L556 243L561 247L569 235L573 237L578 237z"/></g><g><path class="class-2 leaflet-clickable" stroke-linejoin="round" stroke-linecap="round" fill-rule="evenodd" stroke="#005540" stroke-opacity="1" stroke-width="0.5" fill="#00cc99" fill-opacity="0.5" d="M455 248L459 248L464 244L465 241L469 239L473 229L479 230L478 233L480 233L483 236L483 245L489 253L498 253L500 256L499 258L505 262L505 264L507 264L504 267L502 267L503 270L501 271L503 275L503 280L505 280L508 286L513 289L516 295L515 296L518 299L521 299L521 297L527 299L529 305L532 308L530 308L531 316L534 317L536 321L535 322L537 324L537 328L543 329L540 333L540 340L541 339L542 342L541 343L537 341L536 344L518 325L517 321L511 315L506 307L488 294L472 274L459 269L456 265L452 265L450 257L455 248z"/></g><g><path class="class-2 leaflet-clickable" stroke-linejoin="round" stroke-linecap="round" fill-rule="evenodd" stroke="#005540" stroke-opacity="1" stroke-width="0.5" fill="#00cc99" fill-opacity="0.5" d="M689 427L692 430L696 428L694 434L695 441L694 442L692 440L687 444L681 441L677 436L682 425L689 427z"/></g><g><path class="class-2 leaflet-clickable" stroke-linejoin="round" stroke-linecap="round" fill-rule="evenodd" stroke="#005540" stroke-opacity="1" stroke-width="0.5" fill="#00cc99" fill-opacity="0.5" d="M884 384L884 391L888 391L889 394L892 393L897 397L896 398L902 404L905 412L912 418L912 457L871 457L871 453L861 451L858 449L859 448L856 451L856 455L844 449L844 444L840 442L837 438L840 436L848 436L851 438L868 428L877 420L877 412L883 405L882 391L884 384z"/></g><g><path class="class-2 leaflet-clickable" stroke-linejoin="round" stroke-linecap="round" fill-rule="evenodd" stroke="#005540" stroke-opacity="1" stroke-width="0.5" fill="#00cc99" fill-opacity="0.5" d="M669 211L672 213L667 216L667 218L671 219L673 228L671 233L675 234L673 238L679 241L678 247L682 250L684 249L685 255L688 253L690 257L692 255L698 255L698 269L701 269L691 279L687 278L684 281L684 287L681 286L677 288L676 291L672 292L672 294L674 294L675 296L673 303L678 309L675 312L669 312L666 317L667 322L664 321L662 323L664 323L663 325L660 325L661 323L659 323L658 325L657 324L658 327L655 326L655 313L653 310L654 304L651 302L652 297L647 292L647 285L649 283L647 282L647 277L649 275L660 276L660 274L656 273L651 268L653 268L648 265L645 254L638 247L648 237L650 240L651 239L653 235L653 229L647 229L646 226L650 222L656 220L657 213L661 210L665 214L667 213z"/></g><g><path class="class-1 leaflet-clickable" stroke-linejoin="round" stroke-linecap="round" fill-rule="evenodd" stroke="#005540" stroke-opacity="1" stroke-width="0.5" fill="#7fd" fill-opacity="0.5" d="M442 302L440 302L440 297L442 301z"/></g><g><path class="class-1 leaflet-clickable" stroke-linejoin="round" stroke-linecap="round" fill-rule="evenodd" stroke="#005540" stroke-opacity="1" stroke-width="0.5" fill="#7fd" fill-opacity="0.5" d="M430 293L430 296L429 293z"/></g><g><path class="class-1 leaflet-clickable" stroke-linejoin="round" stroke-linecap="round" fill-rule="evenodd" stroke="#005540" stroke-opacity="1" stroke-width="0.5" fill="#7fd" fill-opacity="0.5" d="M429 291L429 292z"/></g><g><path class="class-1 leaflet-clickable" stroke-linejoin="round" stroke-linecap="round" fill-rule="evenodd" stroke="#005540" stroke-opacity="1" stroke-width="0.5" fill="#7fd" fill-opacity="0.5" d="M422 279L425 281L426 284L422 280z"/></g><g><path class="class-1 leaflet-clickable" stroke-linejoin="round" stroke-linecap="round" fill-rule="evenodd" stroke="#005540" stroke-opacity="1" stroke-width="0.5" fill="#7fd" fill-opacity="0.5" d="M422 273L421 275L422 273z"/></g><g><path class="class-1 leaflet-clickable" stroke-linejoin="round" stroke-linecap="round" fill-rule="evenodd" stroke="#005540" stroke-opacity="1" stroke-width="0.5" fill="#7fd" fill-opacity="0.5" d="M420 263L421 266L420 264z"/></g><g><path class="class-1 leaflet-clickable" stroke-linejoin="round" stroke-linecap="round" fill-rule="evenodd" stroke="#005540" stroke-opacity="1" stroke-width="0.5" fill="#7fd" fill-opacity="0.5" d="M414 263L414 265L414 263z"/></g><g><path class="class-1 leaflet-clickable" stroke-linejoin="round" stroke-linecap="round" fill-rule="evenodd" stroke="#005540" stroke-opacity="1" stroke-width="0.5" fill="#7fd" fill-opacity="0.5" d="M414 254L414 256L412 256L410 260L411 261L410 258L411 255L413 255z"/></g><g><path class="class-1 leaflet-clickable" stroke-linejoin="round" stroke-linecap="round" fill-rule="evenodd" stroke="#005540" stroke-opacity="1" stroke-width="0.5" fill="#7fd" fill-opacity="0.5" d="M409 252L409 252z"/></g><g><path class="class-1 leaflet-clickable" stroke-linejoin="round" stroke-linecap="round" fill-rule="evenodd" stroke="#005540" stroke-opacity="1" stroke-width="0.5" fill="#7fd" fill-opacity="0.5" d="M391 224L391 226L390 224z"/></g><g><path class="class-1 leaflet-clickable" stroke-linejoin="round" stroke-linecap="round" fill-rule="evenodd" stroke="#005540" stroke-opacity="1" stroke-width="0.5" fill="#7fd" fill-opacity="0.5" d="M394 219L393 219z"/></g><g><path class="class-1 leaflet-clickable" stroke-linejoin="round" stroke-linecap="round" fill-rule="evenodd" stroke="#005540" stroke-opacity="1" stroke-width="0.5" fill="#7fd" fill-opacity="0.5" d="M320 208L320 208z"/></g><g><path class="class-1 leaflet-clickable" stroke-linejoin="round" stroke-linecap="round" fill-rule="evenodd" stroke="#005540" stroke-opacity="1" stroke-width="0.5" fill="#7fd" fill-opacity="0.5" d="M342 205L375 205L377 212L385 218L388 224L387 225L394 229L392 230L392 232L394 234L396 233L399 235L402 241L405 243L404 244L408 254L408 262L413 268L415 268L416 274L423 285L421 293L424 300L430 302L430 298L433 298L438 302L438 305L442 306L442 308L445 311L445 314L450 317L451 324L447 329L438 334L435 330L433 320L429 316L425 314L413 302L403 297L398 298L388 290L388 287L385 286L390 274L390 261L384 250L377 248L362 236L360 235L357 238L350 231L346 231L343 227L339 227L336 224L335 220L322 209L323 208L335 211L341 208L342 206z"/></g><g><path class="class-1 leaflet-clickable" stroke-linejoin="round" stroke-linecap="round" fill-rule="evenodd" stroke="#005540" stroke-opacity="1" stroke-width="0.5" fill="#7fd" fill-opacity="0.5" d="M663 325L665 329L663 331L665 335L663 337L668 337L676 341L677 337L685 346L698 346L704 350L698 357L700 357L700 361L696 365L699 368L699 370L695 372L697 372L696 376L692 376L689 372L686 373L684 364L679 370L677 370L673 366L671 366L671 368L668 369L659 363L657 363L655 367L651 368L647 366L644 362L631 360L635 355L635 351L633 348L636 344L634 339L635 338L632 337L630 341L629 340L628 343L625 344L623 342L623 339L621 340L616 335L614 330L615 328L613 325L615 323L613 323L615 320L617 322L625 320L638 308L638 302L641 301L642 296L644 299L649 295L652 296L651 301L654 303L654 326L657 327L657 324L658 325L659 323L661 323L660 325L662 325z"/></g><g><path class="class-1 leaflet-clickable" stroke-linejoin="round" stroke-linecap="round" fill-rule="evenodd" stroke="#005540" stroke-opacity="1" stroke-width="0.5" fill="#7fd" fill-opacity="0.5" d="M716 349L714 351L706 344L704 344L703 346L696 345L694 347L687 345L685 346L677 337L676 341L673 339L669 339L668 337L663 337L665 335L663 332L665 330L663 328L664 323L662 323L664 321L667 322L666 317L669 312L675 312L677 309L677 307L673 303L675 296L672 294L672 292L676 291L677 288L681 286L683 287L685 283L684 281L687 278L690 279L701 270L698 269L698 255L692 255L690 257L688 253L685 255L684 249L682 250L678 247L679 241L673 239L675 234L671 233L673 229L671 219L667 218L667 216L672 213L676 216L678 230L682 234L686 246L688 245L690 247L695 248L695 250L701 250L706 255L719 255L724 260L726 259L725 258L730 257L730 263L723 276L718 294L716 336L714 339L715 348z"/></g><g><path class="class-1 leaflet-clickable" stroke-linejoin="round" stroke-linecap="round" fill-rule="evenodd" stroke="#005540" stroke-opacity="1" stroke-width="0.5" fill="#7fd" fill-opacity="0.5" d="M330 444L330 444z"/></g><g><path class="class-1 leaflet-clickable" stroke-linejoin="round" stroke-linecap="round" fill-rule="evenodd" stroke="#005540" stroke-opacity="1" stroke-width="0.5" fill="#7fd" fill-opacity="0.5" d="M415 432L417 434L416 435L414 433L415 432z"/></g><g><path class="class-1 leaflet-clickable" stroke-linejoin="round" stroke-linecap="round" fill-rule="evenodd" stroke="#005540" stroke-opacity="1" stroke-width="0.5" fill="#7fd" fill-opacity="0.5" d="M586 429L580 436L566 426L559 424L560 425L563 422L564 423L572 421L571 420L573 416L578 419L582 416L586 420L586 429z"/></g><g><path class="class-1 leaflet-clickable" stroke-linejoin="round" stroke-linecap="round" fill-rule="evenodd" stroke="#005540" stroke-opacity="1" stroke-width="0.5" fill="#7fd" fill-opacity="0.5" d="M419 422L419 421z"/></g><g><path class="class-1 leaflet-clickable" stroke-linejoin="round" stroke-linecap="round" fill-rule="evenodd" stroke="#005540" stroke-opacity="1" stroke-width="0.5" fill="#7fd" fill-opacity="0.5" d="M623 355L622 356L624 358L619 359L615 364L611 364L605 361L602 362L600 360L605 352L605 348L611 347L613 345L617 347L616 348L619 348L619 352L623 355z"/></g><g><path class="class-1 leaflet-clickable" stroke-linejoin="round" stroke-linecap="round" fill-rule="evenodd" stroke="#005540" stroke-opacity="1" stroke-width="0.5" fill="#7fd" fill-opacity="0.5" d="M696 417L695 414L701 414L704 412L703 411L709 411L714 415L714 417L716 417L719 420L718 422L715 421L713 424L710 423L707 426L700 420L699 417L697 418z"/></g><g><path class="class-1 leaflet-clickable" stroke-linejoin="round" stroke-linecap="round" fill-rule="evenodd" stroke="#005540" stroke-opacity="1" stroke-width="0.5" fill="#7fd" fill-opacity="0.5" d="M380 186L379 188L379 186z"/></g><g><path class="class-1 leaflet-clickable" stroke-linejoin="round" stroke-linecap="round" fill-rule="evenodd" stroke="#005540" stroke-opacity="1" stroke-width="0.5" fill="#7fd" fill-opacity="0.5" d="M386 173L388 179L385 186L380 182L381 175L385 173z"/></g><g><path class="class-1 leaflet-clickable" stroke-linejoin="round" stroke-linecap="round" fill-rule="evenodd" stroke="#005540" stroke-opacity="1" stroke-width="0.5" fill="#7fd" fill-opacity="0.5" d="M331 106L333 106L332 107z"/></g><g><path class="class-1 leaflet-clickable" stroke-linejoin="round" stroke-linecap="round" fill-rule="evenodd" stroke="#005540" stroke-opacity="1" stroke-width="0.5" fill="#7fd" fill-opacity="0.5" d="M328 86L408 115L413 118L466 118L465 120L463 120L464 123L467 125L466 126L468 126L465 126L465 129L462 129L462 132L464 135L463 136L470 141L469 144L471 145L469 145L469 158L471 158L471 160L468 160L469 166L467 168L467 182L470 186L472 196L460 198L459 202L463 209L462 210L466 213L468 217L470 222L468 224L471 231L474 231L468 239L468 241L466 241L463 244L463 246L455 248L455 244L453 241L448 238L443 238L439 229L431 227L427 223L424 223L425 209L423 207L422 208L418 206L418 208L416 208L416 206L410 204L404 195L400 193L394 186L395 184L388 180L388 173L386 170L385 171L383 169L384 167L380 162L378 156L375 155L375 148L367 134L368 122L362 119L355 118L355 114L350 110L342 113L333 106L326 103L324 96L325 95L323 93L325 91L325 87L328 87zM419 205L419 206z"/></g><g><path class="class-1 leaflet-clickable" stroke-linejoin="round" stroke-linecap="round" fill-rule="evenodd" stroke="#005540" stroke-opacity="1" stroke-width="0.5" fill="#7fd" fill-opacity="0.5" d="M949 368L949 380L946 386L935 398L929 398L923 404L921 404L920 407L918 407L919 408L913 414L912 413L909 415L906 413L902 407L902 404L899 400L897 400L893 393L890 394L885 391L884 384L886 379L896 374L922 370L926 367L931 367L934 365L949 368z"/></g><g><path class="class-1 leaflet-clickable" stroke-linejoin="round" stroke-linecap="round" fill-rule="evenodd" stroke="#005540" stroke-opacity="1" stroke-width="0.5" fill="#7fd" fill-opacity="0.5" d="M899 341L902 342L903 344L901 346L898 343L899 341z"/></g><g><path class="class-0 leaflet-clickable" stroke-linejoin="round" stroke-linecap="round" fill-rule="evenodd" stroke="#005540" stroke-opacity="1" stroke-width="0.5" fill="#ddfff6" fill-opacity="0.5" d="M689 427L685 427L680 423L685 414L689 421L689 426z"/></g><g><path class="class-3 leaflet-clickable" stroke-linejoin="round" stroke-linecap="round" fill-rule="evenodd" stroke="#005540" stroke-opacity="1" stroke-width="0.5" fill="#086" fill-opacity="0.5" d="M716 349L718 357L726 366L724 372L725 378L732 392L739 398L746 407L749 419L754 424L754 426L757 427L759 432L764 435L773 435L783 440L790 449L799 447L800 456L808 460L810 463L810 470L808 470L805 473L781 472L782 470L777 467L773 462L775 460L774 459L772 459L766 464L763 464L759 459L761 454L760 449L752 449L753 448L752 449L750 447L745 438L741 437L740 444L738 440L734 439L732 441L729 437L726 436L728 431L727 428L734 422L725 419L726 418L724 416L724 414L727 411L727 407L731 401L724 398L721 402L717 400L718 397L716 395L717 393L718 394L721 392L718 391L716 384L714 384L713 390L711 391L709 388L708 391L703 395L698 396L699 395L697 392L700 390L701 387L699 388L703 383L703 385L705 385L706 380L708 378L704 376L705 375L702 376L699 373L700 370L699 371L696 365L701 361L698 356L700 357L701 353L704 350L696 346L702 346L705 344L711 347L714 351L715 349z"/></g><g><path class="class-2 leaflet-clickable" stroke-linejoin="round" stroke-linecap="round" fill-rule="evenodd" stroke="#005540" stroke-opacity="1" stroke-width="0.5" fill="#00cc99" fill-opacity="0.5" d="M805 473L799 489L801 492L800 496L802 500L796 497L786 495L774 496L769 501L765 501L755 506L754 505L751 508L742 508L733 505L730 502L716 501L706 494L699 493L703 490L702 487L707 485L706 484L709 481L709 477L711 475L706 474L705 470L704 471L704 464L700 460L701 456L705 454L706 455L708 453L712 453L715 455L717 452L716 451L715 453L714 448L719 445L721 452L728 448L733 449L740 443L741 437L747 440L752 449L760 449L761 454L759 459L763 463L766 464L772 459L774 459L775 460L773 462L777 467L782 470L781 471L800 473z"/></g><g><path class="class-1 leaflet-clickable" stroke-linejoin="round" stroke-linecap="round" fill-rule="evenodd" stroke="#005540" stroke-opacity="1" stroke-width="0.5" fill="#7fd" fill-opacity="0.5" d="M740 443L736 447L731 449L728 448L723 452L721 452L719 446L715 446L715 453L717 451L718 452L716 452L713 455L711 453L707 453L707 455L702 456L701 453L697 454L687 446L687 444L690 441L695 442L694 434L697 428L696 417L698 417L707 426L710 423L713 425L715 422L719 421L716 417L713 416L714 415L712 413L710 413L710 411L705 412L706 411L704 408L709 401L707 398L704 398L707 397L713 390L714 384L717 385L717 389L721 392L716 395L718 397L717 400L721 402L724 398L730 401L724 416L726 418L725 419L734 422L732 424L733 425L729 424L726 437L727 436L732 441L736 439L740 443z"/></g><g><path class="class-1 leaflet-clickable" stroke-linejoin="round" stroke-linecap="round" fill-rule="evenodd" stroke="#005540" stroke-opacity="1" stroke-width="0.5" fill="#7fd" fill-opacity="0.5" d="M671 368L670 371L671 373L673 373L669 376L665 375L666 376L664 382L655 382L652 385L654 393L658 398L656 402L657 405L644 406L641 402L639 402L639 404L635 404L633 402L633 400L635 399L632 398L632 396L630 396L627 399L621 399L621 397L618 394L621 391L618 384L621 382L625 374L628 373L627 370L629 370L628 367L630 363L629 362L631 360L637 360L639 362L641 361L649 367L655 367L656 363L658 363L668 369L670 368z"/></g><g><path class="class-1 leaflet-clickable" stroke-linejoin="round" stroke-linecap="round" fill-rule="evenodd" stroke="#005540" stroke-opacity="1" stroke-width="0.5" fill="#7fd" fill-opacity="0.5" d="M687 373L686 376L682 378L681 376L676 386L677 388L669 391L669 398L667 397L667 402L663 404L660 401L660 398L658 398L654 394L652 385L655 382L663 382L664 379L665 380L665 375L671 375L673 373L670 372L672 366L679 370L684 364L686 373z"/></g><g><path class="class-1 leaflet-clickable" stroke-linejoin="round" stroke-linecap="round" fill-rule="evenodd" stroke="#005540" stroke-opacity="1" stroke-width="0.5" fill="#7fd" fill-opacity="0.5" d="M711 392L707 397L704 398L708 399L708 401L704 407L706 410L703 411L704 412L702 414L696 414L697 409L694 407L690 407L689 409L688 406L690 404L688 403L688 405L685 404L683 408L681 408L680 410L680 408L677 405L677 400L674 401L669 398L669 391L674 390L676 388L680 379L679 378L687 376L689 372L690 375L696 376L696 372L700 370L699 373L702 376L705 375L704 376L706 376L708 379L705 383L706 385L701 384L698 388L700 387L698 396L703 395L709 389L711 391z"/></g><g><path class="class-1 leaflet-clickable" stroke-linejoin="round" stroke-linecap="round" fill-rule="evenodd" stroke="#005540" stroke-opacity="1" stroke-width="0.5" fill="#7fd" fill-opacity="0.5" d="M669 398L674 401L677 400L677 407L680 409L679 410L683 407L683 405L688 405L688 403L689 409L691 407L694 407L697 410L695 414L697 418L697 428L692 430L689 427L689 421L687 419L686 414L680 421L682 425L681 430L678 431L679 433L676 436L672 434L673 435L671 435L669 438L665 438L659 444L655 439L656 438L654 437L655 434L652 431L661 418L659 412L662 411L662 403L666 403L666 399L668 398z"/></g><g><path class="class-2 leaflet-clickable" stroke-linejoin="round" stroke-linecap="round" fill-rule="evenodd" stroke="#005540" stroke-opacity="1" stroke-width="0.5" fill="#00cc99" fill-opacity="0.5" d="M657 397L661 399L660 401L663 404L662 405L664 408L662 408L660 412L661 419L658 420L656 426L650 433L647 432L648 439L651 441L651 444L647 441L644 442L642 440L636 439L632 441L626 438L623 439L622 441L623 446L616 449L616 455L586 445L580 436L586 429L591 428L594 430L597 427L597 425L598 426L598 424L603 422L604 423L606 421L607 417L603 417L604 415L601 410L603 408L602 406L596 405L596 402L599 401L598 400L603 401L609 396L616 395L620 395L619 396L621 396L623 400L627 400L628 397L632 396L632 398L635 399L633 399L633 402L635 404L639 404L639 402L641 402L644 406L654 406L657 405L656 402L658 398z"/></g><g><path class="class-1 leaflet-clickable" stroke-linejoin="round" stroke-linecap="round" fill-rule="evenodd" stroke="#005540" stroke-opacity="1" stroke-width="0.5" fill="#7fd" fill-opacity="0.5" d="M603 362L605 361L613 365L623 358L624 357L622 357L624 355L626 355L631 361L629 361L630 362L628 367L630 370L628 370L628 372L625 374L625 376L618 385L621 388L618 394L616 396L610 396L601 402L600 400L596 402L596 405L598 404L603 407L603 409L601 410L604 415L603 416L608 417L605 423L603 422L599 424L594 430L592 428L586 429L586 421L582 416L578 419L573 416L571 421L564 423L563 422L560 425L556 423L556 421L555 422L552 420L550 415L548 415L540 404L536 394L544 392L546 390L545 388L547 385L548 386L550 382L555 380L562 382L569 390L568 385L566 385L570 381L569 376L579 374L578 373L581 370L576 365L577 363L575 361L571 361L570 357L566 355L568 347L570 345L571 346L570 343L573 344L572 347L576 344L573 339L574 337L580 339L580 341L577 342L578 343L576 347L578 351L578 347L581 341L584 343L581 352L582 353L586 353L588 350L590 350L589 347L591 345L593 347L592 348L596 350L594 356L590 356L586 360L584 360L586 362L585 365L581 367L581 369L585 369L586 371L581 373L583 373L584 377L594 379L596 374L599 375L603 371L604 372L606 368L602 365L603 363z"/></g></svg>