<svg xmlns="http://www.w3.org/2000/svg" class="leaflet-zoom-animated" style="transform: translate(-313px, -133px);" width="1977" height="842" viewBox="-313 -133 1977 842"><g><path class="class-3 leaflet-clickable" stroke-linejoin="round" stroke-linecap="round" fill-rule="evenodd" stroke="#005540" stroke-opacity="1" stroke-width="0.5" fill="#086" fill-opacity="0.5" d="M904 470L907 473L908 472L908 474L912 476L911 477L916 481L921 483L922 488L928 491L927 498L898 498L887 518L890 522L887 527L888 531L886 535L858 507L850 501L845 500L843 496L845 495L845 492L843 489L849 473L857 466L857 464L861 460L860 458L863 453L866 455L866 457L868 457L867 459L870 465L871 464L873 466L872 467L873 466L875 468L879 463L884 462L883 461L889 458L889 456L892 454L895 455L895 459L899 460L899 466L904 467L905 470z"/></g><g><path class="class-3 leaflet-clickable" stroke-linejoin="round" stroke-linecap="round" fill-rule="evenodd" stroke="#005540" stroke-opacity="1" stroke-width="0.5" fill="#086" fill-opacity="0.5" d="M721 435L725 441L729 441L731 446L736 450L735 451L738 452L736 452L739 454L745 454L744 460L748 464L748 471L749 470L750 473L754 475L753 480L750 484L751 485L747 487L746 491L742 493L737 487L735 488L725 484L717 484L709 478L685 470L686 469L681 465L677 464L668 455L660 452L661 448L667 445L667 439L669 438L673 438L673 440L675 441L691 441L693 443L694 442L694 444L695 441L693 441L692 439L691 432L694 433L696 431L699 434L698 437L703 444L709 438L713 438L717 434L720 436z"/></g><g><path class="class-3 leaflet-clickable" stroke-linejoin="round" stroke-linecap="round" fill-rule="evenodd" stroke="#005540" stroke-opacity="1" stroke-width="0.5" fill="#086" fill-opacity="0.5" d="M849 473L843 489L845 492L844 496L846 500L840 497L830 495L818 496L813 501L809 501L799 506L798 505L795 508L786 508L777 505L774 502L760 501L750 494L743 493L747 490L746 487L751 485L750 484L753 481L753 477L755 475L750 474L749 470L748 471L748 464L744 460L745 456L749 454L750 455L752 453L756 453L759 455L761 452L760 451L759 453L758 448L763 445L765 452L772 448L777 449L784 443L785 437L791 440L796 449L804 449L805 454L803 459L807 463L810 464L816 459L818 459L819 460L817 462L821 467L826 470L825 471L844 473z"/></g><g><path class="class-3 leaflet-clickable" stroke-linejoin="round" stroke-linecap="round" fill-rule="evenodd" stroke="#005540" stroke-opacity="1" stroke-width="0.5" fill="#086" fill-opacity="0.5" d="M568 371L567 371z"/></g><g><path class="class-3 leaflet-clickable" stroke-linejoin="round" stroke-linecap="round" fill-rule="evenodd" stroke="#005540" stroke-opacity="1" stroke-width="0.5" fill="#086" fill-opacity="0.5" d="M563 368L565 369L564 370L562 368z"/></g><g><path class="class-3 leaflet-clickable" stroke-linejoin="round" stroke-linecap="round" fill-rule="evenodd" stroke="#005540" stroke-opacity="1" stroke-width="0.5" fill="#086" fill-opacity="0.5" d="M558 363L560 363L561 366L559 366L558 364z"/></g><g><path class="class-3 leaflet-clickable" stroke-linejoin="round" stroke-linecap="round" fill-rule="evenodd" stroke="#005540" stroke-opacity="1" stroke-width="0.5" fill="#086" fill-opacity="0.5" d="M558 361L557 362z"/></g><g><path class="class-3 leaflet-clickable" stroke-linejoin="round" stroke-linecap="round" fill-rule="evenodd" stroke="#005540" stroke-opacity="1" stroke-width="0.5" fill="#086" fill-opacity="0.5" d="M610 346L612 347L610 356L614 356L615 360L619 361L621 363L620 366L625 370L622 373L623 374L613 376L614 381L610 385L613 387L613 389L602 380L593 382L590 388L588 386L583 386L591 376L591 367L590 368L585 364L581 356L581 349L578 343L579 342L579 344L581 341L586 343L584 339L584 333L587 329L588 332L596 332L595 333L598 337L594 339L596 343L600 340L605 344L606 347L610 345z"/></g><g><path class="class-3 leaflet-clickable" stroke-linejoin="round" stroke-linecap="round" fill-rule="evenodd" stroke="#005540" stroke-opacity="1" stroke-width="0.5" fill="#086" fill-opacity="0.5" d="M691 292L693 295L688 299L686 297L685 301L683 302L682 308L677 313L669 320L664 322L661 322L659 320L657 323L659 323L657 325L661 336L665 340L667 339L667 342L669 344L672 343L676 337L679 338L678 339L680 343L678 344L677 348L679 350L679 355L676 359L675 360L674 358L667 355L663 352L663 348L662 349L657 345L655 347L649 348L649 352L644 359L647 363L647 366L650 368L649 371L647 371L643 375L640 374L640 378L638 379L634 379L627 376L625 372L629 371L629 369L625 369L625 367L629 365L630 362L628 360L638 355L640 350L638 348L637 349L635 345L633 347L634 350L632 350L631 353L625 352L628 349L628 344L627 342L625 342L623 343L622 351L620 347L622 343L621 342L624 341L624 339L621 337L617 338L620 343L617 347L617 343L615 343L613 347L611 346L612 338L616 336L614 331L617 319L622 315L623 316L622 306L626 302L628 302L628 299L630 299L632 295L644 295L647 297L652 296L653 291L649 283L649 280L654 281L653 278L662 279L667 281L669 284L673 285L672 286L674 288L680 286L683 288L684 291L688 293L691 292z"/></g><g><path class="class-3 leaflet-clickable" stroke-linejoin="round" stroke-linecap="round" fill-rule="evenodd" stroke="#005540" stroke-opacity="1" stroke-width="0.5" fill="#086" fill-opacity="0.5" d="M784 443L780 447L775 449L772 448L767 452L765 452L763 446L759 446L759 453L761 451L762 452L760 452L757 455L755 453L751 453L751 455L746 456L745 453L741 454L731 446L731 444L734 441L739 442L738 434L741 428L740 417L742 417L751 426L754 423L757 425L759 422L763 421L760 417L757 416L758 415L756 413L754 413L754 411L749 412L750 411L748 408L753 401L751 398L748 398L751 397L757 390L758 384L761 385L761 389L765 392L760 395L762 397L761 400L765 402L768 398L774 401L768 416L770 418L769 419L778 422L776 424L777 425L773 424L770 437L771 436L776 441L780 439L784 443z"/></g><g><path class="class-2 leaflet-clickable" stroke-linejoin="round" stroke-linecap="round" fill-rule="evenodd" stroke="#005540" stroke-opacity="1" stroke-width="0.5" fill="#00cc99" fill-opacity="0.5" d="M625 238L633 241L635 249L633 252L634 261L630 268L634 272L631 272L630 275L636 281L635 282L642 287L644 287L649 279L653 294L652 296L649 297L645 297L644 295L634 295L622 306L623 315L621 315L621 317L618 319L615 326L614 331L616 336L612 337L612 344L607 347L603 342L601 342L601 340L599 340L597 343L595 341L594 339L598 337L595 333L596 332L588 332L586 328L583 329L581 327L579 322L580 321L577 316L575 317L574 308L576 309L574 307L573 302L568 297L565 297L565 299L561 299L557 289L547 280L545 271L547 269L546 268L551 265L550 264L553 267L557 267L562 263L560 264L560 258L563 257L562 254L567 246L569 236L570 237L572 234L574 237L575 236L578 239L579 238L585 243L593 243L594 245L600 243L605 247L613 235L617 237L622 237z"/></g><g><path class="class-2 leaflet-clickable" stroke-linejoin="round" stroke-linecap="round" fill-rule="evenodd" stroke="#005540" stroke-opacity="1" stroke-width="0.5" fill="#00cc99" fill-opacity="0.5" d="M707 325L709 329L707 331L709 335L707 337L712 337L720 341L721 337L729 346L742 346L748 350L742 357L744 357L744 361L740 365L743 368L743 370L739 372L741 372L740 376L736 376L733 372L730 373L728 364L723 370L721 370L717 366L715 366L715 368L712 369L703 363L701 363L699 367L695 368L691 366L688 362L675 360L679 355L679 351L677 348L680 344L678 339L679 338L676 337L674 341L673 340L672 343L669 344L667 342L667 339L665 340L660 335L658 330L659 328L657 325L659 323L657 323L659 320L661 322L669 320L682 308L682 302L685 301L686 296L688 299L693 295L696 296L695 301L698 303L698 326L701 327L701 324L702 325L703 323L705 323L704 325L706 325z"/></g><g><path class="class-2 leaflet-clickable" stroke-linejoin="round" stroke-linecap="round" fill-rule="evenodd" stroke="#005540" stroke-opacity="1" stroke-width="0.5" fill="#00cc99" fill-opacity="0.5" d="M755 392L751 397L748 398L752 399L752 401L748 407L750 410L747 411L748 412L746 414L740 414L741 409L738 407L734 407L733 409L732 406L734 404L732 403L732 405L729 404L727 408L725 408L724 410L724 408L721 405L721 400L718 401L713 398L713 391L718 390L720 388L724 379L723 378L731 376L733 372L734 375L740 376L740 372L744 370L743 373L746 376L749 375L748 376L750 376L752 379L749 383L750 385L745 384L742 388L744 387L742 396L747 395L753 389L755 391z"/></g><g><path class="class-2 leaflet-clickable" stroke-linejoin="round" stroke-linecap="round" fill-rule="evenodd" stroke="#005540" stroke-opacity="1" stroke-width="0.5" fill="#00cc99" fill-opacity="0.5" d="M915 457L915 470L904 470L905 467L899 465L900 462L896 459L896 455L892 455L885 460L884 459L884 461L882 463L878 463L878 465L875 468L873 466L872 467L873 466L871 464L869 464L867 459L868 456L866 456L867 455L864 453L861 454L861 460L857 464L855 469L853 467L855 463L853 463L849 458L844 456L845 452L843 448L859 442L872 442L875 440L875 438L880 437L883 442L887 442L888 449L891 450L892 452L900 456L900 450L903 448L903 450L909 453L915 453L915 455z"/></g><g><path class="class-2 leaflet-clickable" stroke-linejoin="round" stroke-linecap="round" fill-rule="evenodd" stroke="#005540" stroke-opacity="1" stroke-width="0.5" fill="#00cc99" fill-opacity="0.5" d="M928 384L928 391L932 391L933 394L936 393L941 397L940 398L946 404L949 412L956 418L956 457L915 457L915 453L905 451L902 449L903 448L900 451L900 455L888 449L888 444L884 442L881 438L884 436L892 436L895 438L912 428L921 420L921 412L927 405L926 391L928 384z"/></g><g><path class="class-1 leaflet-clickable" stroke-linejoin="round" stroke-linecap="round" fill-rule="evenodd" stroke="#005540" stroke-opacity="1" stroke-width="0.5" fill="#7fd" fill-opacity="0.5" d="M760 349L762 357L770 366L768 372L769 378L776 392L783 398L790 407L793 419L798 424L798 426L801 427L803 432L808 435L817 435L827 440L834 449L843 447L844 456L852 460L854 463L854 470L852 470L849 473L825 472L826 470L821 467L817 462L819 460L818 459L816 459L810 464L807 464L803 459L805 454L804 449L796 449L797 448L796 449L794 447L789 438L785 437L784 444L782 440L778 439L776 441L773 437L770 436L772 431L771 428L778 422L769 419L770 418L768 416L768 414L771 411L771 407L775 401L768 398L765 402L761 400L762 397L760 395L761 393L762 394L765 392L762 391L760 384L758 384L757 390L755 391L753 388L752 391L747 395L742 396L743 395L741 392L744 390L745 387L743 388L747 383L747 385L749 385L750 380L752 378L748 376L749 375L746 376L743 373L744 370L743 371L740 365L745 361L742 356L744 357L745 353L748 350L740 346L746 346L749 344L755 347L758 351L759 349z"/></g><g><path class="class-1 leaflet-clickable" stroke-linejoin="round" stroke-linecap="round" fill-rule="evenodd" stroke="#005540" stroke-opacity="1" stroke-width="0.5" fill="#7fd" fill-opacity="0.5" d="M740 417L739 414L745 414L748 412L747 411L753 411L758 415L758 417L760 417L763 420L762 422L759 421L757 424L754 423L751 426L744 420L743 417L741 418z"/></g><g><path class="class-1 leaflet-clickable" stroke-linejoin="round" stroke-linecap="round" fill-rule="evenodd" stroke="#005540" stroke-opacity="1" stroke-width="0.5" fill="#7fd" fill-opacity="0.5" d="M701 397L705 399L704 401L707 404L706 405L708 408L706 408L704 412L705 419L702 420L700 426L694 433L691 432L692 439L695 441L695 444L691 441L688 442L686 440L680 439L676 441L670 438L667 439L666 441L667 446L660 449L660 455L630 445L624 436L630 429L635 428L638 430L641 427L641 425L642 426L642 424L647 422L648 423L650 421L651 417L647 417L648 415L645 410L647 408L646 406L640 405L640 402L643 401L642 400L647 401L653 396L660 395L664 395L663 396L665 396L667 400L671 400L672 397L676 396L676 398L679 399L677 399L677 402L679 404L683 404L683 402L685 402L688 406L698 406L701 405L700 402L702 398z"/></g><g><path class="class-1 leaflet-clickable" stroke-linejoin="round" stroke-linecap="round" fill-rule="evenodd" stroke="#005540" stroke-opacity="1" stroke-width="0.5" fill="#7fd" fill-opacity="0.5" d="M667 355L666 356L668 358L663 359L659 364L655 364L649 361L646 362L644 360L649 352L649 348L655 347L657 345L661 347L660 348L663 348L663 352L667 355z"/></g><g><path class="class-1 leaflet-clickable" stroke-linejoin="round" stroke-linecap="round" fill-rule="evenodd" stroke="#005540" stroke-opacity="1" stroke-width="0.5" fill="#7fd" fill-opacity="0.5" d="M634 179L626 191L627 192L621 202L621 207L620 206L619 209L621 209L621 223L623 224L624 229L622 234L625 236L625 238L613 235L611 236L612 237L605 247L601 243L595 245L593 243L588 244L587 242L586 243L580 240L579 238L578 239L575 236L574 237L572 234L571 237L569 237L570 238L567 242L567 246L562 253L563 257L560 258L560 264L562 262L558 267L554 267L543 258L544 257L541 252L533 253L531 251L527 245L527 237L524 233L522 233L522 229L516 231L514 230L515 229L514 230L514 227L512 225L514 222L512 219L513 217L511 216L510 212L506 210L508 209L503 202L503 198L516 196L516 192L511 181L512 176L510 174L510 172L512 172L511 168L513 166L512 160L515 159L513 157L513 145L515 146L512 138L508 137L506 133L506 130L509 129L509 126L512 126L510 126L511 125L508 123L509 121L507 121L510 118L523 118L523 106L526 105L563 106L568 113L571 116L573 116L584 128L594 135L596 135L596 137L598 137L599 143L603 148L603 156L606 159L606 161L610 165L614 166L613 167L616 170L623 172L634 179z"/></g><g><path class="class-1 leaflet-clickable" stroke-linejoin="round" stroke-linecap="round" fill-rule="evenodd" stroke="#005540" stroke-opacity="1" stroke-width="0.5" fill="#7fd" fill-opacity="0.5" d="M731 373L730 376L726 378L725 376L720 386L721 388L713 391L713 398L711 397L711 402L707 404L704 401L704 398L702 398L698 394L696 385L699 382L707 382L708 379L709 380L709 375L715 375L717 373L714 372L716 366L723 370L728 364L730 373z"/></g><g><path class="class-1 leaflet-clickable" stroke-linejoin="round" stroke-linecap="round" fill-rule="evenodd" stroke="#005540" stroke-opacity="1" stroke-width="0.5" fill="#7fd" fill-opacity="0.5" d="M486 302L484 302L484 297L486 301z"/></g><g><path class="class-1 leaflet-clickable" stroke-linejoin="round" stroke-linecap="round" fill-rule="evenodd" stroke="#005540" stroke-opacity="1" stroke-width="0.5" fill="#7fd" fill-opacity="0.5" d="M474 293L474 296L473 293z"/></g><g><path class="class-1 leaflet-clickable" stroke-linejoin="round" stroke-linecap="round" fill-rule="evenodd" stroke="#005540" stroke-opacity="1" stroke-width="0.5" fill="#7fd" fill-opacity="0.5" d="M473 291L473 292z"/></g><g><path class="class-1 leaflet-clickable" stroke-linejoin="round" stroke-linecap="round" fill-rule="evenodd" stroke="#005540" stroke-opacity="1" stroke-width="0.5" fill="#7fd" fill-opacity="0.5" d="M466 279L469 281L470 284L466 280z"/></g><g><path class="class-1 leaflet-clickable" stroke-linejoin="round" stroke-linecap="round" fill-rule="evenodd" stroke="#005540" stroke-opacity="1" stroke-width="0.5" fill="#7fd" fill-opacity="0.5" d="M466 273L465 275L466 273z"/></g><g><path class="class-1 leaflet-clickable" stroke-linejoin="round" stroke-linecap="round" fill-rule="evenodd" stroke="#005540" stroke-opacity="1" stroke-width="0.5" fill="#7fd" fill-opacity="0.5" d="M464 263L465 266L464 264z"/></g><g><path class="class-1 leaflet-clickable" stroke-linejoin="round" stroke-linecap="round" fill-rule="evenodd" stroke="#005540" stroke-opacity="1" stroke-width="0.5" fill="#7fd" fill-opacity="0.5" d="M458 263L458 265L458 263z"/></g><g><path class="class-1 leaflet-clickable" stroke-linejoin="round" stroke-linecap="round" fill-rule="evenodd" stroke="#005540" stroke-opacity="1" stroke-width="0.5" fill="#7fd" fill-opacity="0.5" d="M458 254L458 256L456 256L454 260L455 261L454 258L455 255L457 255z"/></g><g><path class="class-1 leaflet-clickable" stroke-linejoin="round" stroke-linecap="round" fill-rule="evenodd" stroke="#005540" stroke-opacity="1" stroke-width="0.5" fill="#7fd" fill-opacity="0.5" d="M453 252L453 252z"/></g><g><path class="class-1 leaflet-clickable" stroke-linejoin="round" stroke-linecap="round" fill-rule="evenodd" stroke="#005540" stroke-opacity="1" stroke-width="0.5" fill="#7fd" fill-opacity="0.5" d="M435 224L435 226L434 224z"/></g><g><path class="class-1 leaflet-clickable" stroke-linejoin="round" stroke-linecap="round" fill-rule="evenodd" stroke="#005540" stroke-opacity="1" stroke-width="0.5" fill="#7fd" fill-opacity="0.5" d="M438 219L437 219z"/></g><g><path class="class-1 leaflet-clickable" stroke-linejoin="round" stroke-linecap="round" fill-rule="evenodd" stroke="#005540" stroke-opacity="1" stroke-width="0.5" fill="#7fd" fill-opacity="0.5" d="M364 208L364 208z"/></g><g><path class="class-1 leaflet-clickable" stroke-linejoin="round" stroke-linecap="round" fill-rule="evenodd" stroke="#005540" stroke-opacity="1" stroke-width="0.5" fill="#7fd" fill-opacity="0.5" d="M386 205L419 205L421 212L429 218L432 224L431 225L438 229L436 230L436 232L438 234L440 233L443 235L446 241L449 243L448 244L452 254L452 262L457 268L459 268L460 274L467 285L465 293L468 300L474 302L474 298L477 298L482 302L482 305L486 306L486 308L489 311L489 314L494 317L495 324L491 329L482 334L479 330L477 320L473 316L469 314L457 302L447 297L442 298L432 290L432 287L429 286L434 274L434 261L428 250L421 248L406 236L404 235L401 238L394 231L390 231L387 227L383 227L380 224L379 220L366 209L367 208L379 211L385 208L386 206z"/></g><g><path class="class-1 leaflet-clickable" stroke-linejoin="round" stroke-linecap="round" fill-rule="evenodd" stroke="#005540" stroke-opacity="1" stroke-width="0.5" fill="#7fd" fill-opacity="0.5" d="M647 362L649 361L657 365L667 358L668 357L666 357L668 355L670 355L675 361L673 361L674 362L672 367L674 370L672 370L672 372L669 374L669 376L662 385L665 388L662 394L660 396L654 396L645 402L644 400L640 402L640 405L642 404L647 407L647 409L645 410L648 415L647 416L652 417L649 423L647 422L643 424L638 430L636 428L630 429L630 421L626 416L622 419L617 416L615 421L608 423L607 422L604 425L600 423L600 421L599 422L596 420L594 415L592 415L584 404L580 394L588 392L590 390L589 388L591 385L592 386L594 382L599 380L606 382L613 390L612 385L610 385L614 381L613 376L623 374L622 373L625 370L620 365L621 363L619 361L615 361L614 357L610 355L612 347L614 345L615 346L614 343L617 344L616 347L620 344L617 339L618 337L624 339L624 341L621 342L622 343L620 347L622 351L622 347L625 341L628 343L625 352L626 353L630 353L632 350L634 350L633 347L635 345L637 347L636 348L640 350L638 356L634 356L630 360L628 360L630 362L629 365L625 367L625 369L629 369L630 371L625 373L627 373L628 377L638 379L640 374L643 375L647 371L648 372L650 368L646 365L647 363z"/></g><g><path class="class-1 leaflet-clickable" stroke-linejoin="round" stroke-linecap="round" fill-rule="evenodd" stroke="#005540" stroke-opacity="1" stroke-width="0.5" fill="#7fd" fill-opacity="0.5" d="M715 368L714 371L715 373L717 373L713 376L709 375L710 376L708 382L699 382L696 385L698 393L702 398L700 402L701 405L688 406L685 402L683 402L683 404L679 404L677 402L677 400L679 399L676 398L676 396L674 396L671 399L665 399L665 397L662 394L665 391L662 384L665 382L669 374L672 373L671 370L673 370L672 367L674 363L673 362L675 360L681 360L683 362L685 361L693 367L699 367L700 363L702 363L712 369L714 368z"/></g><g><path class="class-1 leaflet-clickable" stroke-linejoin="round" stroke-linecap="round" fill-rule="evenodd" stroke="#005540" stroke-opacity="1" stroke-width="0.5" fill="#7fd" fill-opacity="0.5" d="M374 444L374 444z"/></g><g><path class="class-1 leaflet-clickable" stroke-linejoin="round" stroke-linecap="round" fill-rule="evenodd" stroke="#005540" stroke-opacity="1" stroke-width="0.5" fill="#7fd" fill-opacity="0.5" d="M459 432L461 434L460 435L458 433L459 432z"/></g><g><path class="class-1 leaflet-clickable" stroke-linejoin="round" stroke-linecap="round" fill-rule="evenodd" stroke="#005540" stroke-opacity="1" stroke-width="0.5" fill="#7fd" fill-opacity="0.5" d="M630 429L624 436L610 426L603 424L604 425L607 422L608 423L616 421L615 420L617 416L622 419L626 416L630 420L630 429z"/></g><g><path class="class-1 leaflet-clickable" stroke-linejoin="round" stroke-linecap="round" fill-rule="evenodd" stroke="#005540" stroke-opacity="1" stroke-width="0.5" fill="#7fd" fill-opacity="0.5" d="M463 422L463 421z"/></g><g><path class="class-0 leaflet-clickable" stroke-linejoin="round" stroke-linecap="round" fill-rule="evenodd" stroke="#005540" stroke-opacity="1" stroke-width="0.5" fill="#ddfff6" fill-opacity="0.5" d="M424 186L423 188L423 186z"/></g><g><path class="class-0 leaflet-clickable" stroke-linejoin="round" stroke-linecap="round" fill-rule="evenodd" stroke="#005540" stroke-opacity="1" stroke-width="0.5" fill="#ddfff6" fill-opacity="0.5" d="M430 173L432 179L429 186L424 182L425 175L429 173z"/></g><g><path class="class-0 leaflet-clickable" stroke-linejoin="round" stroke-linecap="round" fill-rule="evenodd" stroke="#005540" stroke-opacity="1" stroke-width="0.5" fill="#ddfff6" fill-opacity="0.5" d="M375 106L377 106L376 107z"/></g><g><path class="class-0 leaflet-clickable" stroke-linejoin="round" stroke-linecap="round" fill-rule="evenodd" stroke="#005540" stroke-opacity="1" stroke-width="0.5" fill="#ddfff6" fill-opacity="0.5" d="M372 86L452 115L457 118L510 118L509 120L507 120L508 123L511 125L510 126L512 126L509 126L509 129L506 129L506 132L508 135L507 136L514 141L513 144L515 145L513 145L513 158L515 158L515 160L512 160L513 166L511 168L511 182L514 186L516 196L504 198L503 202L507 209L506 210L510 213L512 217L514 222L512 224L515 231L518 231L512 239L512 241L510 241L507 244L507 246L499 248L499 244L497 241L492 238L487 238L483 229L475 227L471 223L468 223L469 209L467 207L466 208L462 206L462 208L460 208L460 206L454 204L448 195L444 193L438 186L439 184L432 180L432 173L430 170L429 171L427 169L428 167L424 162L422 156L419 155L419 148L411 134L412 122L406 119L399 118L399 114L394 110L386 113L377 106L370 103L368 96L369 95L367 93L369 91L369 87L372 87zM463 205L463 206z"/></g><g><path class="class-0 leaflet-clickable" stroke-linejoin="round" stroke-linecap="round" fill-rule="evenodd" stroke="#005540" stroke-opacity="1" stroke-width="0.5" fill="#ddfff6" fill-opacity="0.5" d="M355 197L354 197z"/></g><g><path class="class-0 leaflet-clickable" stroke-linejoin="round" stroke-linecap="round" fill-rule="evenodd" stroke="#005540" stroke-opacity="1" stroke-width="0.5" fill="#ddfff6" fill-opacity="0.5" d="M363 195L365 201L364 204L360 202L363 199L363 196z"/></g><g><path class="class-0 leaflet-clickable" stroke-linejoin="round" stroke-linecap="round" fill-rule="evenodd" stroke="#005540" stroke-opacity="1" stroke-width="0.5" fill="#ddfff6" fill-opacity="0.5" d="M416 187L419 189L418 190L417 188z"/></g><g><path class="class-0 leaflet-clickable" stroke-linejoin="round" stroke-linecap="round" fill-rule="evenodd" stroke="#005540" stroke-opacity="1" stroke-width="0.5" fill="#ddfff6" fill-opacity="0.5" d="M402 176L402 177z"/></g><g><path class="class-0 leaflet-clickable" stroke-linejoin="round" stroke-linecap="round" fill-rule="evenodd" stroke="#005540" stroke-opacity="1" stroke-width="0.5" fill="#ddfff6" fill-opacity="0.5" d="M402 165L405 167L405 170L407 172L410 171L410 179L400 168L401 165z"/></g><g><path class="class-0 leaflet-clickable" stroke-linejoin="round" stroke-linecap="round" fill-rule="evenodd" stroke="#005540" stroke-opacity="1" stroke-width="0.5" fill="#ddfff6" fill-opacity="0.5" d="M292 174L294 177L293 182L291 177L292 174z"/></g><g><path class="class-0 leaflet-clickable" stroke-linejoin="round" stroke-linecap="round" fill-rule="evenodd" stroke="#005540" stroke-opacity="1" stroke-width="0.5" fill="#ddfff6" fill-opacity="0.5" d="M381 153L381 154z"/></g><g><path class="class-0 leaflet-clickable" stroke-linejoin="round" stroke-linecap="round" fill-rule="evenodd" stroke="#005540" stroke-opacity="1" stroke-width="0.5" fill="#ddfff6" fill-opacity="0.5" d="M374 112L374 112z"/></g><g><path class="class-0 leaflet-clickable" stroke-linejoin="round" stroke-linecap="round" fill-rule="evenodd" stroke="#005540" stroke-opacity="1" stroke-width="0.5" fill="#ddfff6" fill-opacity="0.5" d="M374 105L376 107L375 108L373 108L373 105z"/></g><g><path class="class-0 leaflet-clickable" stroke-linejoin="round" stroke-linecap="round" fill-rule="evenodd" stroke="#005540" stroke-opacity="1" stroke-width="0.5" fill="#ddfff6" fill-opacity="0.5" d="M372 86L369 88L367 93L369 95L369 102L372 103L373 105L373 110L371 113L371 123L375 129L375 137L377 142L376 149L382 157L382 159L385 159L399 172L402 182L404 180L406 184L409 184L411 191L417 195L416 197L418 199L418 205L386 205L389 201L388 198L390 194L388 190L383 186L383 184L380 181L378 181L377 177L374 176L374 174L352 159L353 157L350 153L350 146L344 140L345 134L339 127L338 128L337 119L330 112L331 109L329 106L330 107L331 104L325 99L325 96L320 88L320 85L374 80L372 86z"/></g><g><path class="class-0 leaflet-clickable" stroke-linejoin="round" stroke-linecap="round" fill-rule="evenodd" stroke="#005540" stroke-opacity="1" stroke-width="0.5" fill="#ddfff6" fill-opacity="0.5" d="M713 398L718 401L721 400L721 407L724 409L723 410L727 407L727 405L732 405L732 403L733 409L735 407L738 407L741 410L739 414L741 418L741 428L736 430L733 427L733 421L731 419L730 414L724 421L726 425L725 430L722 431L723 433L720 436L716 434L717 435L715 435L713 438L709 438L703 444L699 439L700 438L698 437L699 434L696 431L705 418L703 412L706 411L706 403L710 403L710 399L712 398z"/></g><g><path class="class-0 leaflet-clickable" stroke-linejoin="round" stroke-linecap="round" fill-rule="evenodd" stroke="#005540" stroke-opacity="1" stroke-width="0.5" fill="#ddfff6" fill-opacity="0.5" d="M733 427L736 430L740 428L738 434L739 441L738 442L736 440L731 444L725 441L721 436L726 425L733 427z"/></g><g><path class="class-0 leaflet-clickable" stroke-linejoin="round" stroke-linecap="round" fill-rule="evenodd" stroke="#005540" stroke-opacity="1" stroke-width="0.5" fill="#ddfff6" fill-opacity="0.5" d="M499 248L503 248L508 244L509 241L513 239L517 229L523 230L522 233L524 233L527 236L527 245L533 253L542 253L544 256L543 258L549 262L549 264L551 264L548 267L546 267L547 270L545 271L547 275L547 280L549 280L552 286L557 289L560 295L559 296L562 299L565 299L565 297L571 299L573 305L576 308L574 308L575 316L578 317L580 321L579 322L581 324L581 328L587 329L584 333L584 340L585 339L586 342L585 343L581 341L580 344L562 325L561 321L555 315L550 307L532 294L516 274L503 269L500 265L496 265L494 257L499 248z"/></g><g><path class="class-0 leaflet-clickable" stroke-linejoin="round" stroke-linecap="round" fill-rule="evenodd" stroke="#005540" stroke-opacity="1" stroke-width="0.5" fill="#ddfff6" fill-opacity="0.5" d="M713 211L716 213L711 216L711 218L715 219L717 228L715 233L719 234L717 238L723 241L722 247L726 250L728 249L729 255L732 253L734 257L736 255L742 255L742 269L745 269L735 279L731 278L728 281L728 287L725 286L721 288L720 291L716 292L716 294L718 294L719 296L717 303L722 309L719 312L713 312L710 317L711 322L708 321L706 323L708 323L707 325L704 325L705 323L703 323L702 325L701 324L702 327L699 326L699 313L697 310L698 304L695 302L696 297L691 292L691 285L693 283L691 282L691 277L693 275L704 276L704 274L700 273L695 268L697 268L692 265L689 254L682 247L692 237L694 240L695 239L697 235L697 229L691 229L690 226L694 222L700 220L701 213L705 210L709 214L711 213z"/></g><g><path class="class-0 leaflet-clickable" stroke-linejoin="round" stroke-linecap="round" fill-rule="evenodd" stroke="#005540" stroke-opacity="1" stroke-width="0.5" fill="#ddfff6" fill-opacity="0.5" d="M993 368L993 380L990 386L979 398L973 398L967 404L965 404L964 407L962 407L963 408L957 414L956 413L953 415L950 413L946 407L946 404L943 400L941 400L937 393L934 394L929 391L928 384L930 379L940 374L966 370L970 367L975 367L978 365L993 368z"/></g><g><path class="class-0 leaflet-clickable" stroke-linejoin="round" stroke-linecap="round" fill-rule="evenodd" stroke="#005540" stroke-opacity="1" stroke-width="0.5" fill="#ddfff6" fill-opacity="0.5" d="M943 341L946 342L947 344L945 346L942 343L943 341z"/></g><g><path class="class-0 leaflet-clickable" stroke-linejoin="round" stroke-linecap="round" fill-rule="evenodd" stroke="#005540" stroke-opacity="1" stroke-width="0.5" fill="#ddfff6" fill-opacity="0.5" d="M713 211L709 215L705 210L701 213L700 220L694 222L690 226L691 229L697 229L697 235L695 239L694 240L692 237L682 247L691 258L690 261L694 267L697 268L695 268L699 271L699 273L704 273L704 276L693 275L691 277L691 281L693 283L691 285L690 292L688 293L680 286L674 288L672 286L673 285L659 278L653 278L654 281L649 279L644 288L635 282L636 281L630 275L630 273L632 271L633 272L630 268L634 262L633 252L635 249L633 241L625 238L625 236L622 233L624 230L620 210L621 209L619 209L619 206L621 206L621 203L627 192L626 191L634 179L638 180L639 177L643 173L644 174L643 172L645 170L646 164L650 159L654 159L657 156L668 159L676 158L678 162L680 162L680 164L681 163L681 165L694 176L698 188L702 193L701 194L713 210z"/></g><g><path class="class-0 leaflet-clickable" stroke-linejoin="round" stroke-linecap="round" fill-rule="evenodd" stroke="#005540" stroke-opacity="1" stroke-width="0.5" fill="#ddfff6" fill-opacity="0.5" d="M760 349L758 351L750 344L748 344L747 346L740 345L738 347L731 345L729 346L721 337L720 341L717 339L713 339L712 337L707 337L709 335L707 332L709 330L707 328L708 323L706 323L708 321L711 322L710 317L713 312L719 312L721 309L721 307L717 303L719 296L716 294L716 292L720 291L721 288L725 286L727 287L729 283L728 281L731 278L734 279L745 270L742 269L742 255L736 255L734 257L732 253L729 255L728 249L726 250L722 247L723 241L717 239L719 234L715 233L717 229L715 219L711 218L711 216L716 213L720 216L722 230L726 234L730 246L732 245L734 247L739 248L739 250L745 250L750 255L763 255L768 260L770 259L769 258L774 257L774 263L767 276L762 294L760 336L758 339L759 348z"/></g><g><path class="class-0 leaflet-clickable" stroke-linejoin="round" stroke-linecap="round" fill-rule="evenodd" stroke="#005540" stroke-opacity="1" stroke-width="0.5" fill="#ddfff6" fill-opacity="0.5" d="M733 427L729 427L724 423L729 414L733 421L733 426z"/></g><g><path class="class-1 leaflet-clickable" stroke-linejoin="round" stroke-linecap="round" fill-rule="evenodd" stroke="#005540" stroke-opacity="1" stroke-width="0.5" fill="#7fd" fill-opacity="0.5" d="M997 443L998 440L998 442z"/></g><g><path class="class-1 leaflet-clickable" stroke-linejoin="round" stroke-linecap="round" fill-rule="evenodd" stroke="#005540" stroke-opacity="1" stroke-width="0.5" fill="#7fd" fill-opacity="0.5" d="M999 435L999 437L999 435z"/></g><g><path class="class-1 leaflet-clickable" stroke-linejoin="round" stroke-linecap="round" fill-rule="evenodd" stroke="#005540" stroke-opacity="1" stroke-width="0.5" fill="#7fd" fill-opacity="0.5" d="M1011 391L1005 398L1005 394L1007 391L1012 390z"/></g><g><path class="class-1 leaflet-clickable" stroke-linejoin="round" stroke-linecap="round" fill-rule="evenodd" stroke="#005540" stroke-opacity="1" stroke-width="0.5" fill="#7fd" fill-opacity="0.5" d="M956 454L955 450L957 449L957 425L956 418L953 415L956 413L957 414L957 412L959 412L959 410L964 407L964 405L967 404L968 401L971 401L973 398L979 397L983 394L990 386L993 380L993 368L1000 370L1003 369L1004 366L1009 373L1009 370L1010 371L1010 379L1007 385L995 399L995 409L994 410L995 406L994 409L988 412L990 416L995 413L996 414L995 418L990 420L990 424L993 421L995 421L993 423L985 449L982 449L982 443L977 443L977 441L971 441L969 447L966 449L963 455L959 452L957 454z"/></g><g><path class="class-1 leaflet-clickable" stroke-linejoin="round" stroke-linecap="round" fill-rule="evenodd" stroke="#005540" stroke-opacity="1" stroke-width="0.5" fill="#7fd" fill-opacity="0.5" d="M1003 365L1001 367L996 368L998 366L1002 366z"/></g></svg>