<svg xmlns="http://www.w3.org/2000/svg" class="leaflet-zoom-animated" width="1967" height="1123" viewBox="-480 -274 1967 1123" style="transform: translate3d(-480px, -274px, 0px);"><g><path class="class-3 leaflet-clickable" stroke-linejoin="round" stroke-linecap="round" fill-rule="evenodd" stroke="#005540" stroke-opacity="1" stroke-width="0.5" fill="#086" fill-opacity="0.5" d="M732 470L735 473L736 472L736 474L740 476L739 477L744 481L749 483L750 488L756 491L755 498L726 498L715 518L718 522L715 527L716 531L714 535L686 507L678 501L673 500L671 496L673 495L673 492L671 489L677 473L685 466L685 464L689 460L688 458L691 453L694 455L694 457L696 457L695 459L698 465L699 464L701 466L700 467L701 466L703 468L707 463L712 462L711 461L717 458L717 456L720 454L723 455L723 459L727 460L727 466L732 467L733 470z"/></g><g><path class="class-3 leaflet-clickable" stroke-linejoin="round" stroke-linecap="round" fill-rule="evenodd" stroke="#005540" stroke-opacity="1" stroke-width="0.5" fill="#086" fill-opacity="0.5" d="M549 435L553 441L557 441L559 446L564 450L563 451L566 452L564 452L567 454L573 454L572 460L576 464L576 471L577 470L578 473L582 475L581 480L578 484L579 485L575 487L574 491L570 493L565 487L563 488L553 484L545 484L537 478L513 470L514 469L509 465L505 464L496 455L488 452L489 448L495 445L495 439L497 438L501 438L501 440L503 441L519 441L521 443L522 442L522 444L523 441L521 441L520 439L519 432L522 433L524 431L527 434L526 437L531 444L537 438L541 438L545 434L548 436z"/></g><g><path class="class-3 leaflet-clickable" stroke-linejoin="round" stroke-linecap="round" fill-rule="evenodd" stroke="#005540" stroke-opacity="1" stroke-width="0.5" fill="#086" fill-opacity="0.5" d="M677 473L671 489L673 492L672 496L674 500L668 497L658 495L646 496L641 501L637 501L627 506L626 505L623 508L614 508L605 505L602 502L588 501L578 494L571 493L575 490L574 487L579 485L578 484L581 481L581 477L583 475L578 474L577 470L576 471L576 464L572 460L573 456L577 454L578 455L580 453L584 453L587 455L589 452L588 451L587 453L586 448L591 445L593 452L600 448L605 449L612 443L613 437L619 440L624 449L632 449L633 454L631 459L635 463L638 464L644 459L646 459L647 460L645 462L649 467L654 470L653 471L672 473z"/></g><g><path class="class-3 leaflet-clickable" stroke-linejoin="round" stroke-linecap="round" fill-rule="evenodd" stroke="#005540" stroke-opacity="1" stroke-width="0.5" fill="#086" fill-opacity="0.5" d="M396 371L395 371z"/></g><g><path class="class-3 leaflet-clickable" stroke-linejoin="round" stroke-linecap="round" fill-rule="evenodd" stroke="#005540" stroke-opacity="1" stroke-width="0.5" fill="#086" fill-opacity="0.5" d="M391 368L393 369L392 370L390 368z"/></g><g><path class="class-3 leaflet-clickable" stroke-linejoin="round" stroke-linecap="round" fill-rule="evenodd" stroke="#005540" stroke-opacity="1" stroke-width="0.5" fill="#086" fill-opacity="0.5" d="M386 363L388 363L389 366L387 366L386 364z"/></g><g><path class="class-3 leaflet-clickable" stroke-linejoin="round" stroke-linecap="round" fill-rule="evenodd" stroke="#005540" stroke-opacity="1" stroke-width="0.5" fill="#086" fill-opacity="0.5" d="M386 361L385 362z"/></g><g><path class="class-3 leaflet-clickable" stroke-linejoin="round" stroke-linecap="round" fill-rule="evenodd" stroke="#005540" stroke-opacity="1" stroke-width="0.5" fill="#086" fill-opacity="0.5" d="M438 346L440 347L438 356L442 356L443 360L447 361L449 363L448 366L453 370L450 373L451 374L441 376L442 381L438 385L441 387L441 389L430 380L421 382L418 388L416 386L411 386L419 376L419 367L418 368L413 364L409 356L409 349L406 343L407 342L407 344L409 341L414 343L412 339L412 333L415 329L416 332L424 332L423 333L426 337L422 339L424 343L428 340L433 344L434 347L438 345z"/></g><g><path class="class-3 leaflet-clickable" stroke-linejoin="round" stroke-linecap="round" fill-rule="evenodd" stroke="#005540" stroke-opacity="1" stroke-width="0.5" fill="#086" fill-opacity="0.5" d="M519 292L521 295L516 299L514 297L513 301L511 302L510 308L505 313L497 320L492 322L489 322L487 320L485 323L487 323L485 325L489 336L493 340L495 339L495 342L497 344L500 343L504 337L507 338L506 339L508 343L506 344L505 348L507 350L507 355L504 359L503 360L502 358L495 355L491 352L491 348L490 349L485 345L483 347L477 348L477 352L472 359L475 363L475 366L478 368L477 371L475 371L471 375L468 374L468 378L466 379L462 379L455 376L453 372L457 371L457 369L453 369L453 367L457 365L458 362L456 360L466 355L468 350L466 348L465 349L463 345L461 347L462 350L460 350L459 353L453 352L456 349L456 344L455 342L453 342L451 343L450 351L448 347L450 343L449 342L452 341L452 339L449 337L445 338L448 343L445 347L445 343L443 343L441 347L439 346L440 338L444 336L442 331L445 319L450 315L451 316L450 306L454 302L456 302L456 299L458 299L460 295L472 295L475 297L480 296L481 291L477 283L477 280L482 281L481 278L490 279L495 281L497 284L501 285L500 286L502 288L508 286L511 288L512 291L516 293L519 292z"/></g><g><path class="class-3 leaflet-clickable" stroke-linejoin="round" stroke-linecap="round" fill-rule="evenodd" stroke="#005540" stroke-opacity="1" stroke-width="0.5" fill="#086" fill-opacity="0.5" d="M612 443L608 447L603 449L600 448L595 452L593 452L591 446L587 446L587 453L589 451L590 452L588 452L585 455L583 453L579 453L579 455L574 456L573 453L569 454L559 446L559 444L562 441L567 442L566 434L569 428L568 417L570 417L579 426L582 423L585 425L587 422L591 421L588 417L585 416L586 415L584 413L582 413L582 411L577 412L578 411L576 408L581 401L579 398L576 398L579 397L585 390L586 384L589 385L589 389L593 392L588 395L590 397L589 400L593 402L596 398L602 401L596 416L598 418L597 419L606 422L604 424L605 425L601 424L598 437L599 436L604 441L608 439L612 443z"/></g><g><path class="class-2 leaflet-clickable" stroke-linejoin="round" stroke-linecap="round" fill-rule="evenodd" stroke="#005540" stroke-opacity="1" stroke-width="0.5" fill="#00cc99" fill-opacity="0.5" d="M453 238L461 241L463 249L461 252L462 261L458 268L462 272L459 272L458 275L464 281L463 282L470 287L472 287L477 279L481 294L480 296L477 297L473 297L472 295L462 295L450 306L451 315L449 315L449 317L446 319L443 326L442 331L444 336L440 337L440 344L435 347L431 342L429 342L429 340L427 340L425 343L423 341L422 339L426 337L423 333L424 332L416 332L414 328L411 329L409 327L407 322L408 321L405 316L403 317L402 308L404 309L402 307L401 302L396 297L393 297L393 299L389 299L385 289L375 280L373 271L375 269L374 268L379 265L378 264L381 267L385 267L390 263L388 264L388 258L391 257L390 254L395 246L397 236L398 237L400 234L402 237L403 236L406 239L407 238L413 243L421 243L422 245L428 243L433 247L441 235L445 237L450 237z"/></g><g><path class="class-2 leaflet-clickable" stroke-linejoin="round" stroke-linecap="round" fill-rule="evenodd" stroke="#005540" stroke-opacity="1" stroke-width="0.5" fill="#00cc99" fill-opacity="0.5" d="M535 325L537 329L535 331L537 335L535 337L540 337L548 341L549 337L557 346L570 346L576 350L570 357L572 357L572 361L568 365L571 368L571 370L567 372L569 372L568 376L564 376L561 372L558 373L556 364L551 370L549 370L545 366L543 366L543 368L540 369L531 363L529 363L527 367L523 368L519 366L516 362L503 360L507 355L507 351L505 348L506 345L508 344L506 339L507 338L504 337L502 341L501 340L500 343L497 344L495 342L495 339L493 340L488 335L486 330L487 328L485 325L487 323L485 323L487 320L489 322L497 320L510 308L510 302L513 301L514 296L516 299L521 295L524 296L523 301L526 303L526 326L529 327L529 324L530 325L531 323L533 323L532 325L534 325z"/></g><g><path class="class-2 leaflet-clickable" stroke-linejoin="round" stroke-linecap="round" fill-rule="evenodd" stroke="#005540" stroke-opacity="1" stroke-width="0.5" fill="#00cc99" fill-opacity="0.5" d="M583 392L579 397L576 398L580 399L580 401L576 407L578 410L575 411L576 412L574 414L568 414L569 409L566 407L562 407L561 409L560 406L562 404L560 403L560 405L557 404L555 408L553 408L552 410L552 408L549 405L549 400L546 401L541 398L541 391L546 390L548 388L552 379L551 378L559 376L561 372L562 375L568 376L568 372L572 370L571 373L574 376L577 375L576 376L578 376L580 379L577 383L578 385L573 384L570 388L572 387L570 396L575 395L581 389L583 391z"/></g><g><path class="class-2 leaflet-clickable" stroke-linejoin="round" stroke-linecap="round" fill-rule="evenodd" stroke="#005540" stroke-opacity="1" stroke-width="0.5" fill="#00cc99" fill-opacity="0.5" d="M743 457L743 470L732 470L733 467L727 465L728 462L724 459L724 455L720 455L713 460L712 459L712 461L710 463L706 463L706 465L703 468L701 466L700 467L701 466L699 464L697 464L695 459L696 456L694 456L695 455L692 453L689 454L689 460L685 464L683 469L681 467L683 463L681 463L677 458L672 456L673 452L671 448L687 442L700 442L703 440L703 438L708 437L711 442L715 442L716 449L719 450L720 452L728 456L728 450L731 448L731 450L737 453L743 453L743 455z"/></g><g><path class="class-2 leaflet-clickable" stroke-linejoin="round" stroke-linecap="round" fill-rule="evenodd" stroke="#005540" stroke-opacity="1" stroke-width="0.5" fill="#00cc99" fill-opacity="0.5" d="M756 384L756 391L760 391L761 394L764 393L769 397L768 398L774 404L777 412L784 418L784 457L743 457L743 453L733 451L730 449L731 448L728 451L728 455L716 449L716 444L712 442L709 438L712 436L720 436L723 438L740 428L749 420L749 412L755 405L754 391L756 384z"/></g><g><path class="class-1 leaflet-clickable" stroke-linejoin="round" stroke-linecap="round" fill-rule="evenodd" stroke="#005540" stroke-opacity="1" stroke-width="0.5" fill="#7fd" fill-opacity="0.5" d="M588 349L590 357L598 366L596 372L597 378L604 392L611 398L618 407L621 419L626 424L626 426L629 427L631 432L636 435L645 435L655 440L662 449L671 447L672 456L680 460L682 463L682 470L680 470L677 473L653 472L654 470L649 467L645 462L647 460L646 459L644 459L638 464L635 464L631 459L633 454L632 449L624 449L625 448L624 449L622 447L617 438L613 437L612 444L610 440L606 439L604 441L601 437L598 436L600 431L599 428L606 422L597 419L598 418L596 416L596 414L599 411L599 407L603 401L596 398L593 402L589 400L590 397L588 395L589 393L590 394L593 392L590 391L588 384L586 384L585 390L583 391L581 388L580 391L575 395L570 396L571 395L569 392L572 390L573 387L571 388L575 383L575 385L577 385L578 380L580 378L576 376L577 375L574 376L571 373L572 370L571 371L568 365L573 361L570 356L572 357L573 353L576 350L568 346L574 346L577 344L583 347L586 351L587 349z"/></g><g><path class="class-1 leaflet-clickable" stroke-linejoin="round" stroke-linecap="round" fill-rule="evenodd" stroke="#005540" stroke-opacity="1" stroke-width="0.5" fill="#7fd" fill-opacity="0.5" d="M825 443L826 440L826 442z"/></g><g><path class="class-1 leaflet-clickable" stroke-linejoin="round" stroke-linecap="round" fill-rule="evenodd" stroke="#005540" stroke-opacity="1" stroke-width="0.5" fill="#7fd" fill-opacity="0.5" d="M827 435L827 437L827 435z"/></g><g><path class="class-1 leaflet-clickable" stroke-linejoin="round" stroke-linecap="round" fill-rule="evenodd" stroke="#005540" stroke-opacity="1" stroke-width="0.5" fill="#7fd" fill-opacity="0.5" d="M839 391L833 398L833 394L835 391L840 390z"/></g><g><path class="class-1 leaflet-clickable" stroke-linejoin="round" stroke-linecap="round" fill-rule="evenodd" stroke="#005540" stroke-opacity="1" stroke-width="0.5" fill="#7fd" fill-opacity="0.5" d="M784 454L783 450L785 449L785 425L784 418L781 415L784 413L785 414L785 412L787 412L787 410L792 407L792 405L795 404L796 401L799 401L801 398L807 397L811 394L818 386L821 380L821 368L828 370L831 369L832 366L837 373L837 370L838 371L838 379L835 385L823 399L823 409L822 410L823 406L822 409L816 412L818 416L823 413L824 414L823 418L818 420L818 424L821 421L823 421L821 423L813 449L810 449L810 443L805 443L805 441L799 441L797 447L794 449L791 455L787 452L785 454z"/></g><g><path class="class-1 leaflet-clickable" stroke-linejoin="round" stroke-linecap="round" fill-rule="evenodd" stroke="#005540" stroke-opacity="1" stroke-width="0.5" fill="#7fd" fill-opacity="0.5" d="M831 365L829 367L824 368L826 366L830 366z"/></g><g><path class="class-1 leaflet-clickable" stroke-linejoin="round" stroke-linecap="round" fill-rule="evenodd" stroke="#005540" stroke-opacity="1" stroke-width="0.5" fill="#7fd" fill-opacity="0.5" d="M568 417L567 414L573 414L576 412L575 411L581 411L586 415L586 417L588 417L591 420L590 422L587 421L585 424L582 423L579 426L572 420L571 417L569 418z"/></g><g><path class="class-1 leaflet-clickable" stroke-linejoin="round" stroke-linecap="round" fill-rule="evenodd" stroke="#005540" stroke-opacity="1" stroke-width="0.5" fill="#7fd" fill-opacity="0.5" d="M529 397L533 399L532 401L535 404L534 405L536 408L534 408L532 412L533 419L530 420L528 426L522 433L519 432L520 439L523 441L523 444L519 441L516 442L514 440L508 439L504 441L498 438L495 439L494 441L495 446L488 449L488 455L458 445L452 436L458 429L463 428L466 430L469 427L469 425L470 426L470 424L475 422L476 423L478 421L479 417L475 417L476 415L473 410L475 408L474 406L468 405L468 402L471 401L470 400L475 401L481 396L488 395L492 395L491 396L493 396L495 400L499 400L500 397L504 396L504 398L507 399L505 399L505 402L507 404L511 404L511 402L513 402L516 406L526 406L529 405L528 402L530 398z"/></g><g><path class="class-1 leaflet-clickable" stroke-linejoin="round" stroke-linecap="round" fill-rule="evenodd" stroke="#005540" stroke-opacity="1" stroke-width="0.5" fill="#7fd" fill-opacity="0.5" d="M462 179L454 191L455 192L449 202L449 207L448 206L447 209L449 209L449 223L451 224L452 229L450 234L453 236L453 238L441 235L439 236L440 237L433 247L429 243L423 245L421 243L416 244L415 242L414 243L408 240L407 238L406 239L403 236L402 237L400 234L399 237L397 237L398 238L395 242L395 246L390 253L391 257L388 258L388 264L390 262L386 267L382 267L371 258L372 257L369 252L361 253L359 251L355 245L355 237L352 233L350 233L350 229L344 231L342 230L343 229L342 230L342 227L340 225L342 222L340 219L341 217L339 216L338 212L334 210L336 209L331 202L331 198L344 196L344 192L339 181L340 176L338 174L338 172L340 172L339 168L341 166L340 160L343 159L341 157L341 145L343 146L340 138L336 137L334 133L334 130L337 129L337 126L340 126L338 126L339 125L336 123L337 121L335 121L338 118L351 118L351 106L354 105L391 106L396 113L399 116L401 116L412 128L422 135L424 135L424 137L426 137L427 143L431 148L431 156L434 159L434 161L438 165L442 166L441 167L444 170L451 172L462 179z"/></g><g><path class="class-1 leaflet-clickable" stroke-linejoin="round" stroke-linecap="round" fill-rule="evenodd" stroke="#005540" stroke-opacity="1" stroke-width="0.5" fill="#7fd" fill-opacity="0.5" d="M495 355L494 356L496 358L491 359L487 364L483 364L477 361L474 362L472 360L477 352L477 348L483 347L485 345L489 347L488 348L491 348L491 352L495 355z"/></g><g><path class="class-1 leaflet-clickable" stroke-linejoin="round" stroke-linecap="round" fill-rule="evenodd" stroke="#005540" stroke-opacity="1" stroke-width="0.5" fill="#7fd" fill-opacity="0.5" d="M559 373L558 376L554 378L553 376L548 386L549 388L541 391L541 398L539 397L539 402L535 404L532 401L532 398L530 398L526 394L524 385L527 382L535 382L536 379L537 380L537 375L543 375L545 373L542 372L544 366L551 370L556 364L558 373z"/></g><g><path class="class-1 leaflet-clickable" stroke-linejoin="round" stroke-linecap="round" fill-rule="evenodd" stroke="#005540" stroke-opacity="1" stroke-width="0.5" fill="#7fd" fill-opacity="0.5" d="M314 302L312 302L312 297L314 301z"/></g><g><path class="class-1 leaflet-clickable" stroke-linejoin="round" stroke-linecap="round" fill-rule="evenodd" stroke="#005540" stroke-opacity="1" stroke-width="0.5" fill="#7fd" fill-opacity="0.5" d="M302 293L302 296L301 293z"/></g><g><path class="class-1 leaflet-clickable" stroke-linejoin="round" stroke-linecap="round" fill-rule="evenodd" stroke="#005540" stroke-opacity="1" stroke-width="0.5" fill="#7fd" fill-opacity="0.5" d="M301 291L301 292z"/></g><g><path class="class-1 leaflet-clickable" stroke-linejoin="round" stroke-linecap="round" fill-rule="evenodd" stroke="#005540" stroke-opacity="1" stroke-width="0.5" fill="#7fd" fill-opacity="0.5" d="M294 279L297 281L298 284L294 280z"/></g><g><path class="class-1 leaflet-clickable" stroke-linejoin="round" stroke-linecap="round" fill-rule="evenodd" stroke="#005540" stroke-opacity="1" stroke-width="0.5" fill="#7fd" fill-opacity="0.5" d="M294 273L293 275L294 273z"/></g><g><path class="class-1 leaflet-clickable" stroke-linejoin="round" stroke-linecap="round" fill-rule="evenodd" stroke="#005540" stroke-opacity="1" stroke-width="0.5" fill="#7fd" fill-opacity="0.5" d="M292 263L293 266L292 264z"/></g><g><path class="class-1 leaflet-clickable" stroke-linejoin="round" stroke-linecap="round" fill-rule="evenodd" stroke="#005540" stroke-opacity="1" stroke-width="0.5" fill="#7fd" fill-opacity="0.5" d="M286 263L286 265L286 263z"/></g><g><path class="class-1 leaflet-clickable" stroke-linejoin="round" stroke-linecap="round" fill-rule="evenodd" stroke="#005540" stroke-opacity="1" stroke-width="0.5" fill="#7fd" fill-opacity="0.5" d="M286 254L286 256L284 256L282 260L283 261L282 258L283 255L285 255z"/></g><g><path class="class-1 leaflet-clickable" stroke-linejoin="round" stroke-linecap="round" fill-rule="evenodd" stroke="#005540" stroke-opacity="1" stroke-width="0.5" fill="#7fd" fill-opacity="0.5" d="M281 252L281 252z"/></g><g><path class="class-1 leaflet-clickable" stroke-linejoin="round" stroke-linecap="round" fill-rule="evenodd" stroke="#005540" stroke-opacity="1" stroke-width="0.5" fill="#7fd" fill-opacity="0.5" d="M263 224L263 226L262 224z"/></g><g><path class="class-1 leaflet-clickable" stroke-linejoin="round" stroke-linecap="round" fill-rule="evenodd" stroke="#005540" stroke-opacity="1" stroke-width="0.5" fill="#7fd" fill-opacity="0.5" d="M266 219L265 219z"/></g><g><path class="class-1 leaflet-clickable" stroke-linejoin="round" stroke-linecap="round" fill-rule="evenodd" stroke="#005540" stroke-opacity="1" stroke-width="0.5" fill="#7fd" fill-opacity="0.5" d="M192 208L192 208z"/></g><g><path class="class-1 leaflet-clickable" stroke-linejoin="round" stroke-linecap="round" fill-rule="evenodd" stroke="#005540" stroke-opacity="1" stroke-width="0.5" fill="#7fd" fill-opacity="0.5" d="M214 205L247 205L249 212L257 218L260 224L259 225L266 229L264 230L264 232L266 234L268 233L271 235L274 241L277 243L276 244L280 254L280 262L285 268L287 268L288 274L295 285L293 293L296 300L302 302L302 298L305 298L310 302L310 305L314 306L314 308L317 311L317 314L322 317L323 324L319 329L310 334L307 330L305 320L301 316L297 314L285 302L275 297L270 298L260 290L260 287L257 286L262 274L262 261L256 250L249 248L234 236L232 235L229 238L222 231L218 231L215 227L211 227L208 224L207 220L194 209L195 208L207 211L213 208L214 206z"/></g><g><path class="class-1 leaflet-clickable" stroke-linejoin="round" stroke-linecap="round" fill-rule="evenodd" stroke="#005540" stroke-opacity="1" stroke-width="0.5" fill="#7fd" fill-opacity="0.5" d="M475 362L477 361L485 365L495 358L496 357L494 357L496 355L498 355L503 361L501 361L502 362L500 367L502 370L500 370L500 372L497 374L497 376L490 385L493 388L490 394L488 396L482 396L473 402L472 400L468 402L468 405L470 404L475 407L475 409L473 410L476 415L475 416L480 417L477 423L475 422L471 424L466 430L464 428L458 429L458 421L454 416L450 419L445 416L443 421L436 423L435 422L432 425L428 423L428 421L427 422L424 420L422 415L420 415L412 404L408 394L416 392L418 390L417 388L419 385L420 386L422 382L427 380L434 382L441 390L440 385L438 385L442 381L441 376L451 374L450 373L453 370L448 365L449 363L447 361L443 361L442 357L438 355L440 347L442 345L443 346L442 343L445 344L444 347L448 344L445 339L446 337L452 339L452 341L449 342L450 343L448 347L450 351L450 347L453 341L456 343L453 352L454 353L458 353L460 350L462 350L461 347L463 345L465 347L464 348L468 350L466 356L462 356L458 360L456 360L458 362L457 365L453 367L453 369L457 369L458 371L453 373L455 373L456 377L466 379L468 374L471 375L475 371L476 372L478 368L474 365L475 363z"/></g><g><path class="class-1 leaflet-clickable" stroke-linejoin="round" stroke-linecap="round" fill-rule="evenodd" stroke="#005540" stroke-opacity="1" stroke-width="0.5" fill="#7fd" fill-opacity="0.5" d="M543 368L542 371L543 373L545 373L541 376L537 375L538 376L536 382L527 382L524 385L526 393L530 398L528 402L529 405L516 406L513 402L511 402L511 404L507 404L505 402L505 400L507 399L504 398L504 396L502 396L499 399L493 399L493 397L490 394L493 391L490 384L493 382L497 374L500 373L499 370L501 370L500 367L502 363L501 362L503 360L509 360L511 362L513 361L521 367L527 367L528 363L530 363L540 369L542 368z"/></g><g><path class="class-1 leaflet-clickable" stroke-linejoin="round" stroke-linecap="round" fill-rule="evenodd" stroke="#005540" stroke-opacity="1" stroke-width="0.5" fill="#7fd" fill-opacity="0.5" d="M202 444L202 444z"/></g><g><path class="class-1 leaflet-clickable" stroke-linejoin="round" stroke-linecap="round" fill-rule="evenodd" stroke="#005540" stroke-opacity="1" stroke-width="0.5" fill="#7fd" fill-opacity="0.5" d="M287 432L289 434L288 435L286 433L287 432z"/></g><g><path class="class-1 leaflet-clickable" stroke-linejoin="round" stroke-linecap="round" fill-rule="evenodd" stroke="#005540" stroke-opacity="1" stroke-width="0.5" fill="#7fd" fill-opacity="0.5" d="M458 429L452 436L438 426L431 424L432 425L435 422L436 423L444 421L443 420L445 416L450 419L454 416L458 420L458 429z"/></g><g><path class="class-1 leaflet-clickable" stroke-linejoin="round" stroke-linecap="round" fill-rule="evenodd" stroke="#005540" stroke-opacity="1" stroke-width="0.5" fill="#7fd" fill-opacity="0.5" d="M291 422L291 421z"/></g><g><path class="class-0 leaflet-clickable" stroke-linejoin="round" stroke-linecap="round" fill-rule="evenodd" stroke="#005540" stroke-opacity="1" stroke-width="0.5" fill="#ddfff6" fill-opacity="0.5" d="M252 186L251 188L251 186z"/></g><g><path class="class-0 leaflet-clickable" stroke-linejoin="round" stroke-linecap="round" fill-rule="evenodd" stroke="#005540" stroke-opacity="1" stroke-width="0.5" fill="#ddfff6" fill-opacity="0.5" d="M258 173L260 179L257 186L252 182L253 175L257 173z"/></g><g><path class="class-0 leaflet-clickable" stroke-linejoin="round" stroke-linecap="round" fill-rule="evenodd" stroke="#005540" stroke-opacity="1" stroke-width="0.5" fill="#ddfff6" fill-opacity="0.5" d="M203 106L205 106L204 107z"/></g><g><path class="class-0 leaflet-clickable" stroke-linejoin="round" stroke-linecap="round" fill-rule="evenodd" stroke="#005540" stroke-opacity="1" stroke-width="0.5" fill="#ddfff6" fill-opacity="0.5" d="M200 86L280 115L285 118L338 118L337 120L335 120L336 123L339 125L338 126L340 126L337 126L337 129L334 129L334 132L336 135L335 136L342 141L341 144L343 145L341 145L341 158L343 158L343 160L340 160L341 166L339 168L339 182L342 186L344 196L332 198L331 202L335 209L334 210L338 213L340 217L342 222L340 224L343 231L346 231L340 239L340 241L338 241L335 244L335 246L327 248L327 244L325 241L320 238L315 238L311 229L303 227L299 223L296 223L297 209L295 207L294 208L290 206L290 208L288 208L288 206L282 204L276 195L272 193L266 186L267 184L260 180L260 173L258 170L257 171L255 169L256 167L252 162L250 156L247 155L247 148L239 134L240 122L234 119L227 118L227 114L222 110L214 113L205 106L198 103L196 96L197 95L195 93L197 91L197 87L200 87zM291 205L291 206z"/></g><g><path class="class-0 leaflet-clickable" stroke-linejoin="round" stroke-linecap="round" fill-rule="evenodd" stroke="#005540" stroke-opacity="1" stroke-width="0.5" fill="#ddfff6" fill-opacity="0.5" d="M183 197L182 197z"/></g><g><path class="class-0 leaflet-clickable" stroke-linejoin="round" stroke-linecap="round" fill-rule="evenodd" stroke="#005540" stroke-opacity="1" stroke-width="0.5" fill="#ddfff6" fill-opacity="0.5" d="M191 195L193 201L192 204L188 202L191 199L191 196z"/></g><g><path class="class-0 leaflet-clickable" stroke-linejoin="round" stroke-linecap="round" fill-rule="evenodd" stroke="#005540" stroke-opacity="1" stroke-width="0.5" fill="#ddfff6" fill-opacity="0.5" d="M244 187L247 189L246 190L245 188z"/></g><g><path class="class-0 leaflet-clickable" stroke-linejoin="round" stroke-linecap="round" fill-rule="evenodd" stroke="#005540" stroke-opacity="1" stroke-width="0.5" fill="#ddfff6" fill-opacity="0.5" d="M230 176L230 177z"/></g><g><path class="class-0 leaflet-clickable" stroke-linejoin="round" stroke-linecap="round" fill-rule="evenodd" stroke="#005540" stroke-opacity="1" stroke-width="0.5" fill="#ddfff6" fill-opacity="0.5" d="M230 165L233 167L233 170L235 172L238 171L238 179L228 168L229 165z"/></g><g><path class="class-0 leaflet-clickable" stroke-linejoin="round" stroke-linecap="round" fill-rule="evenodd" stroke="#005540" stroke-opacity="1" stroke-width="0.5" fill="#ddfff6" fill-opacity="0.5" d="M120 174L122 177L121 182L119 177L120 174z"/></g><g><path class="class-0 leaflet-clickable" stroke-linejoin="round" stroke-linecap="round" fill-rule="evenodd" stroke="#005540" stroke-opacity="1" stroke-width="0.5" fill="#ddfff6" fill-opacity="0.5" d="M209 153L209 154z"/></g><g><path class="class-0 leaflet-clickable" stroke-linejoin="round" stroke-linecap="round" fill-rule="evenodd" stroke="#005540" stroke-opacity="1" stroke-width="0.5" fill="#ddfff6" fill-opacity="0.5" d="M202 112L202 112z"/></g><g><path class="class-0 leaflet-clickable" stroke-linejoin="round" stroke-linecap="round" fill-rule="evenodd" stroke="#005540" stroke-opacity="1" stroke-width="0.5" fill="#ddfff6" fill-opacity="0.5" d="M202 105L204 107L203 108L201 108L201 105z"/></g><g><path class="class-0 leaflet-clickable" stroke-linejoin="round" stroke-linecap="round" fill-rule="evenodd" stroke="#005540" stroke-opacity="1" stroke-width="0.5" fill="#ddfff6" fill-opacity="0.5" d="M200 86L197 88L195 93L197 95L197 102L201 105L201 110L199 113L199 123L203 129L203 137L205 142L204 149L210 157L210 159L213 159L227 172L230 182L232 180L234 184L237 184L239 191L245 195L244 197L246 199L246 205L214 205L217 201L216 198L218 194L216 190L211 186L211 184L208 181L206 181L205 177L202 176L202 174L180 159L181 157L178 153L178 146L172 140L173 134L167 127L166 128L165 119L158 112L159 109L157 106L158 107L159 104L153 99L153 96L148 88L148 85L202 80L200 86z"/></g><g><path class="class-0 leaflet-clickable" stroke-linejoin="round" stroke-linecap="round" fill-rule="evenodd" stroke="#005540" stroke-opacity="1" stroke-width="0.5" fill="#ddfff6" fill-opacity="0.5" d="M541 398L546 401L549 400L549 407L552 409L551 410L555 407L555 405L560 405L560 403L561 409L563 407L566 407L569 410L567 414L569 418L569 428L564 430L561 427L561 421L559 419L558 414L552 421L554 425L553 430L550 431L551 433L548 436L544 434L545 435L543 435L541 438L537 438L531 444L527 439L528 438L526 437L527 434L524 431L533 418L531 412L534 411L534 403L538 403L538 399L540 398z"/></g><g><path class="class-0 leaflet-clickable" stroke-linejoin="round" stroke-linecap="round" fill-rule="evenodd" stroke="#005540" stroke-opacity="1" stroke-width="0.5" fill="#ddfff6" fill-opacity="0.5" d="M561 427L564 430L568 428L566 434L567 441L566 442L564 440L559 444L553 441L549 436L554 425L561 427z"/></g><g><path class="class-0 leaflet-clickable" stroke-linejoin="round" stroke-linecap="round" fill-rule="evenodd" stroke="#005540" stroke-opacity="1" stroke-width="0.5" fill="#ddfff6" fill-opacity="0.5" d="M327 248L331 248L336 244L337 241L341 239L345 229L351 230L350 233L352 233L355 236L355 245L361 253L370 253L372 256L371 258L377 262L377 264L379 264L376 267L374 267L375 270L373 271L375 275L375 280L377 280L380 286L385 289L388 295L387 296L390 299L393 299L393 297L399 299L401 305L404 308L402 308L403 316L406 317L408 321L407 322L409 324L409 328L415 329L412 333L412 340L413 339L414 342L413 343L409 341L408 344L390 325L389 321L383 315L378 307L360 294L344 274L331 269L328 265L324 265L322 257L327 248z"/></g><g><path class="class-0 leaflet-clickable" stroke-linejoin="round" stroke-linecap="round" fill-rule="evenodd" stroke="#005540" stroke-opacity="1" stroke-width="0.5" fill="#ddfff6" fill-opacity="0.5" d="M541 211L544 213L539 216L539 218L543 219L545 228L543 233L547 234L545 238L551 241L550 247L554 250L556 249L557 255L560 253L562 257L564 255L570 255L570 269L573 269L563 279L559 278L556 281L556 287L553 286L549 288L548 291L544 292L544 294L546 294L547 296L545 303L550 309L547 312L541 312L538 317L539 322L536 321L534 323L536 323L535 325L532 325L533 323L531 323L530 325L529 324L530 327L527 326L527 313L525 310L526 304L523 302L524 297L519 292L519 285L521 283L519 282L519 277L521 275L532 276L532 274L528 273L523 268L525 268L520 265L517 254L510 247L520 237L522 240L523 239L525 235L525 229L519 229L518 226L522 222L528 220L529 213L533 210L537 214L539 213z"/></g><g><path class="class-0 leaflet-clickable" stroke-linejoin="round" stroke-linecap="round" fill-rule="evenodd" stroke="#005540" stroke-opacity="1" stroke-width="0.5" fill="#ddfff6" fill-opacity="0.5" d="M821 368L821 380L818 386L807 398L801 398L795 404L793 404L792 407L790 407L791 408L785 414L784 413L781 415L778 413L774 407L774 404L771 400L769 400L765 393L762 394L757 391L756 384L758 379L768 374L794 370L798 367L803 367L806 365L821 368z"/></g><g><path class="class-0 leaflet-clickable" stroke-linejoin="round" stroke-linecap="round" fill-rule="evenodd" stroke="#005540" stroke-opacity="1" stroke-width="0.5" fill="#ddfff6" fill-opacity="0.5" d="M771 341L774 342L775 344L773 346L770 343L771 341z"/></g><g><path class="class-0 leaflet-clickable" stroke-linejoin="round" stroke-linecap="round" fill-rule="evenodd" stroke="#005540" stroke-opacity="1" stroke-width="0.5" fill="#ddfff6" fill-opacity="0.5" d="M541 211L537 215L533 210L529 213L528 220L522 222L518 226L519 229L525 229L525 235L523 239L522 240L520 237L510 247L519 258L518 261L522 267L525 268L523 268L527 271L527 273L532 273L532 276L521 275L519 277L519 281L521 283L519 285L518 292L516 293L508 286L502 288L500 286L501 285L487 278L481 278L482 281L477 279L472 288L463 282L464 281L458 275L458 273L460 271L461 272L458 268L462 262L461 252L463 249L461 241L453 238L453 236L450 233L452 230L448 210L449 209L447 209L447 206L449 206L449 203L455 192L454 191L462 179L466 180L467 177L471 173L472 174L471 172L473 170L474 164L478 159L482 159L485 156L496 159L504 158L506 162L508 162L508 164L509 163L509 165L522 176L526 188L530 193L529 194L541 210z"/></g><g><path class="class-0 leaflet-clickable" stroke-linejoin="round" stroke-linecap="round" fill-rule="evenodd" stroke="#005540" stroke-opacity="1" stroke-width="0.5" fill="#ddfff6" fill-opacity="0.5" d="M588 349L586 351L578 344L576 344L575 346L568 345L566 347L559 345L557 346L549 337L548 341L545 339L541 339L540 337L535 337L537 335L535 332L537 330L535 328L536 323L534 323L536 321L539 322L538 317L541 312L547 312L549 309L549 307L545 303L547 296L544 294L544 292L548 291L549 288L553 286L555 287L557 283L556 281L559 278L562 279L573 270L570 269L570 255L564 255L562 257L560 253L557 255L556 249L554 250L550 247L551 241L545 239L547 234L543 233L545 229L543 219L539 218L539 216L544 213L548 216L550 230L554 234L558 246L560 245L562 247L567 248L567 250L573 250L578 255L591 255L596 260L598 259L597 258L602 257L602 263L595 276L590 294L588 336L586 339L587 348z"/></g><g><path class="class-0 leaflet-clickable" stroke-linejoin="round" stroke-linecap="round" fill-rule="evenodd" stroke="#005540" stroke-opacity="1" stroke-width="0.5" fill="#ddfff6" fill-opacity="0.5" d="M561 427L557 427L552 423L557 414L561 421L561 426z"/></g></svg>